<svg xmlns="http://www.w3.org/2000/svg" viewBox="0 0 48 48">
  <defs>
    <linearGradient id="g" x1="0%" y1="0%" x2="100%" y2="100%">
      <stop offset="0%" stop-color="#90A4AE"/>
      <stop offset="100%" stop-color="#455A64"/>
    </linearGradient>
    <filter id="sh" x="-20%" y="-20%" width="140%" height="140%">
      <feDropShadow dx="1.5" dy="2.5" stdDeviation="2" flood-color="#263238" flood-opacity="0.25"/>
    </filter>
  </defs>
  <g filter="url(#sh)" fill="none" stroke="url(#g)" stroke-width="2.4" stroke-linecap="round" stroke-linejoin="round">
    <path d="M24 16 Q24 6 12 8 Q6 10 8 18 Q10 28 16 34 Q20 38 24 38 Q28 38 32 34 Q38 28 40 18 Q42 10 36 8 Q24 6 24 16 Z"/>
    <path d="M24 16 Q24 10 20 6 Q24 8 28 6 Q24 10 24 16"/>
    <line x1="24" y1="16" x2="24" y2="8"/>
  </g>
</svg>