<svg xmlns="http://www.w3.org/2000/svg" viewBox="0 0 48 48">
  <defs>
    <linearGradient id="iconGrad" x1="0%" y1="0%" x2="100%" y2="100%">
      <stop offset="0%" stop-color="#90A4AE"/>
      <stop offset="100%" stop-color="#424f55"/>
    </linearGradient>
    <filter id="shadow" x="-30%" y="-30%" width="160%" height="160%">
      <feDropShadow dx="2.5" dy="3.5" stdDeviation="3" flood-color="#1a1a2e" flood-opacity="0.45"/>
    </filter>
  </defs>
  <g filter="url(#shadow)" fill="none">
    <g stroke="#21272a" stroke-width="4.5" stroke-linecap="round" stroke-linejoin="round" transform="translate(2,2)">
      <rect x="10" y="20" width="28" height="18" rx="3"/>
    <path d="M16 20v-4a4 4 0 014-4h8a4 4 0 014 4v4"/>
    </g>
    <g stroke="#424f55" stroke-width="3" stroke-linecap="round" stroke-linejoin="round" transform="translate(1,1)">
      <rect x="10" y="20" width="28" height="18" rx="3"/>
    <path d="M16 20v-4a4 4 0 014-4h8a4 4 0 014 4v4"/>
    </g>
    <g stroke="url(#iconGrad)" stroke-width="1.5" stroke-linecap="round" stroke-linejoin="round">
      <rect x="10" y="20" width="28" height="18" rx="3"/>
    <path d="M16 20v-4a4 4 0 014-4h8a4 4 0 014 4v4"/>
    </g>
  </g>
</svg>
