<svg xmlns="http://www.w3.org/2000/svg" viewBox="0 0 48 48">
  <defs>
    <linearGradient id="g" x1="0%" y1="0%" x2="100%" y2="100%">
      <stop offset="0%" stop-color="#a7dfac"/>
      <stop offset="100%" stop-color="#216627"/>
    </linearGradient>
    <filter id="sh" x="-30%" y="-30%" width="160%" height="160%">
      <feDropShadow dx="2.5" dy="3.5" stdDeviation="3" flood-color="#1a1a2e" flood-opacity="0.45"/>
    </filter>
  </defs>
  <g filter="url(#sh)" fill="none">
    <g stroke="#0f2e11" stroke-width="4.5" stroke-linecap="round" stroke-linejoin="round" transform="translate(2,2)">
<ellipse cx="24" cy="22" rx="8" ry="10"/><ellipse cx="24" cy="12" rx="10" ry="4"/><line x1="24" y1="8" x2="24" y2="4"/><circle cx="20" cy="20" r="1.5"/><circle cx="28" cy="20" r="1.5"/><line x1="24" y1="32" x2="24" y2="38"/>
    </g>
    <g stroke="#216627" stroke-width="3" stroke-linecap="round" stroke-linejoin="round" transform="translate(1,1)">
<ellipse cx="24" cy="22" rx="8" ry="10"/><ellipse cx="24" cy="12" rx="10" ry="4"/><line x1="24" y1="8" x2="24" y2="4"/><circle cx="20" cy="20" r="1.5"/><circle cx="28" cy="20" r="1.5"/><line x1="24" y1="32" x2="24" y2="38"/>
    </g>
    <g stroke="url(#g)" stroke-width="1.5" stroke-linecap="round" stroke-linejoin="round">
<ellipse cx="24" cy="22" rx="8" ry="10"/><ellipse cx="24" cy="12" rx="10" ry="4"/><line x1="24" y1="8" x2="24" y2="4"/><circle cx="20" cy="20" r="1.5"/><circle cx="28" cy="20" r="1.5"/><line x1="24" y1="32" x2="24" y2="38"/>
    </g>
  </g>
</svg>