<svg xmlns="http://www.w3.org/2000/svg" viewBox="0 0 48 48">
  <defs>
    <linearGradient id="g" x1="0%" y1="0%" x2="100%" y2="100%">
      <stop offset="0%" stop-color="#9ec59d"/>
      <stop offset="100%" stop-color="#164514"/>
    </linearGradient>
    <filter id="sh" x="-30%" y="-30%" width="160%" height="160%">
      <feDropShadow dx="2.5" dy="3.5" stdDeviation="3" flood-color="#1a1a2e" flood-opacity="0.45"/>
    </filter>
  </defs>
  <g filter="url(#sh)" fill="none">
    <g stroke="#0a1f09" stroke-width="4.5" stroke-linecap="round" stroke-linejoin="round" transform="translate(2,2)">
<rect x="4" y="6" width="40" height="30" rx="4"/>
        <rect x="4" y="36" width="40" height="6" rx="2"/>
        <rect x="10" y="12" width="14" height="10" rx="2"/>
        <rect x="28" y="12" width="10" height="10" rx="2"/>
    </g>
    <g stroke="#164514" stroke-width="3" stroke-linecap="round" stroke-linejoin="round" transform="translate(1,1)">
<rect x="4" y="6" width="40" height="30" rx="4"/>
        <rect x="4" y="36" width="40" height="6" rx="2"/>
        <rect x="10" y="12" width="14" height="10" rx="2"/>
        <rect x="28" y="12" width="10" height="10" rx="2"/>
    </g>
    <g stroke="url(#g)" stroke-width="1.5" stroke-linecap="round" stroke-linejoin="round">
<rect x="4" y="6" width="40" height="30" rx="4"/>
        <rect x="4" y="36" width="40" height="6" rx="2"/>
        <rect x="10" y="12" width="14" height="10" rx="2"/>
        <rect x="28" y="12" width="10" height="10" rx="2"/>
    </g>
  </g>
</svg>