<svg xmlns="http://www.w3.org/2000/svg" viewBox="0 0 48 48">
  <defs>
    <linearGradient id="g" x1="0%" y1="0%" x2="100%" y2="100%">
      <stop offset="0%" stop-color="#c9b0c8"/>
      <stop offset="100%" stop-color="#221421"/>
    </linearGradient>
    <filter id="shadow" x="-30%" y="-30%" width="160%" height="160%">
      <feDropShadow dx="2.5" dy="3.5" stdDeviation="3" flood-color="#1a1a2e" flood-opacity="0.45"/>
    </filter>
  </defs>
  <g filter="url(#shadow)" fill="none">
    <g stroke="#110a10" stroke-width="4.5" stroke-linecap="round" stroke-linejoin="round" transform="translate(2,2)">
    <rect x="8" y="6" width="32" height="32" rx="4"/>
    <circle cx="24" cy="22" r="8"/>
    <line x1="24" y1="22" x2="24" y2="16 M24 22 L28 24"/>
    <circle cx="24" cy="22" r="2" fill="currentColor"/>
    </g>
    <g stroke="#221421" stroke-width="3" stroke-linecap="round" stroke-linejoin="round" transform="translate(1,1)">
    <rect x="8" y="6" width="32" height="32" rx="4"/>
    <circle cx="24" cy="22" r="8"/>
    <line x1="24" y1="22" x2="24" y2="16 M24 22 L28 24"/>
    <circle cx="24" cy="22" r="2" fill="currentColor"/>
    </g>
    <g stroke="url(#g)" stroke-width="1.5" stroke-linecap="round" stroke-linejoin="round">
    <rect x="8" y="6" width="32" height="32" rx="4"/>
    <circle cx="24" cy="22" r="8"/>
    <line x1="24" y1="22" x2="24" y2="16 M24 22 L28 24"/>
    <circle cx="24" cy="22" r="2" fill="currentColor"/>
    </g>
  </g>
</svg>