<svg xmlns="http://www.w3.org/2000/svg" viewBox="0 0 48 48">
  <defs>
    <linearGradient id="iconGrad" x1="0%" y1="0%" x2="100%" y2="100%">
      <stop offset="0%" stop-color="#DCEDC8"/>
      <stop offset="100%" stop-color="#4C6B29"/>
    </linearGradient>
    <filter id="shadow" x="-30%" y="-30%" width="160%" height="160%">
      <feDropShadow dx="2.5" dy="3.5" stdDeviation="3" flood-color="#1a1a2e" flood-opacity="0.45"/>
    </filter>
  </defs>
  <g filter="url(#shadow)" fill="none">
    <g stroke="#263514" stroke-width="4.5" stroke-linecap="round" stroke-linejoin="round" transform="translate(2,2)">
        <line x1="24" y1="8" x2="24" y2="2"/>
        <circle cx="24" cy="2" r="2" fill="#607D8B"/>
        <path d="M24 8 C36 8 38 26 34 34 C30 40 18 40 14 34 C10 26 12 8 24 8 Z"/>
        <ellipse cx="16" cy="18" rx="5" ry="7" fill="#607D8B"/>
        <ellipse cx="32" cy="18" rx="5" ry="7" fill="#607D8B"/>
        <line x1="20" y1="28" x2="28" y2="28"/>
    </g>
    <g stroke="#4C6B29" stroke-width="3" stroke-linecap="round" stroke-linejoin="round" transform="translate(1,1)">
        <line x1="24" y1="8" x2="24" y2="2"/>
        <circle cx="24" cy="2" r="2" fill="#607D8B"/>
        <path d="M24 8 C36 8 38 26 34 34 C30 40 18 40 14 34 C10 26 12 8 24 8 Z"/>
        <ellipse cx="16" cy="18" rx="5" ry="7" fill="#607D8B"/>
        <ellipse cx="32" cy="18" rx="5" ry="7" fill="#607D8B"/>
        <line x1="20" y1="28" x2="28" y2="28"/>
    </g>
    <g stroke="url(#iconGrad)" stroke-width="1.5" stroke-linecap="round" stroke-linejoin="round">
        <line x1="24" y1="8" x2="24" y2="2"/>
        <circle cx="24" cy="2" r="2" fill="#607D8B"/>
        <path d="M24 8 C36 8 38 26 34 34 C30 40 18 40 14 34 C10 26 12 8 24 8 Z"/>
        <ellipse cx="16" cy="18" rx="5" ry="7" fill="#607D8B"/>
        <ellipse cx="32" cy="18" rx="5" ry="7" fill="#607D8B"/>
        <line x1="20" y1="28" x2="28" y2="28"/>
    </g>
  </g>
</svg>