<svg xmlns="http://www.w3.org/2000/svg" viewBox="0 0 48 48">
  <defs>
    <linearGradient id="g" x1="0%" y1="0%" x2="100%" y2="100%">
      <stop offset="0%" stop-color="#c9d2b3"/>
      <stop offset="100%" stop-color="#4a5530"/>
    </linearGradient>
    <filter id="sh" x="-30%" y="-30%" width="160%" height="160%">
      <feDropShadow dx="2.5" dy="3.5" stdDeviation="3" flood-color="#1a1a2e" flood-opacity="0.45"/>
    </filter>
  </defs>
  <g filter="url(#sh)" fill="none">
    <g stroke="#222616" stroke-width="4.5" stroke-linecap="round" stroke-linejoin="round" transform="translate(2,2)">
<rect x="4" y="16" width="40" height="16" rx="3"/>
        <rect x="8" y="20" width="10" height="8" rx="1"/>
        <circle cx="14" cy="36" r="4"/>
        <circle cx="34" cy="36" r="4"/>
        <path d="M28 20 L28 28 L36 28"/>
        <line x1="32" y1="20" x2="32" y2="28"/>
    </g>
    <g stroke="#4a5530" stroke-width="3" stroke-linecap="round" stroke-linejoin="round" transform="translate(1,1)">
<rect x="4" y="16" width="40" height="16" rx="3"/>
        <rect x="8" y="20" width="10" height="8" rx="1"/>
        <circle cx="14" cy="36" r="4"/>
        <circle cx="34" cy="36" r="4"/>
        <path d="M28 20 L28 28 L36 28"/>
        <line x1="32" y1="20" x2="32" y2="28"/>
    </g>
    <g stroke="url(#g)" stroke-width="1.5" stroke-linecap="round" stroke-linejoin="round">
<rect x="4" y="16" width="40" height="16" rx="3"/>
        <rect x="8" y="20" width="10" height="8" rx="1"/>
        <circle cx="14" cy="36" r="4"/>
        <circle cx="34" cy="36" r="4"/>
        <path d="M28 20 L28 28 L36 28"/>
        <line x1="32" y1="20" x2="32" y2="28"/>
    </g>
  </g>
</svg>