<svg xmlns="http://www.w3.org/2000/svg" viewBox="0 0 48 48">
  <defs>
    <linearGradient id="g" x1="0%" y1="0%" x2="100%" y2="100%">
      <stop offset="0%" stop-color="#e2e6c1"/>
      <stop offset="100%" stop-color="#30321d"/>
    </linearGradient>
    <filter id="shadow" x="-30%" y="-30%" width="160%" height="160%">
      <feDropShadow dx="2.5" dy="3.5" stdDeviation="3" flood-color="#1a1a2e" flood-opacity="0.45"/>
    </filter>
  </defs>
  <g filter="url(#shadow)" fill="none">
    <g stroke="#18190e" stroke-width="4.5" stroke-linecap="round" stroke-linejoin="round" transform="translate(2,2)">
    <line x1="16" y1="44" x2="16" y2="16"/>
    <line x1="20" y1="44" x2="20" y2="12"/>
    <line x1="24" y1="44" x2="24" y2="8"/>
    <line x1="28" y1="44" x2="28" y2="12"/>
    <line x1="32" y1="44" x2="32" y2="16"/>
    <ellipse cx="16" cy="14" rx="4" ry="3"/>
    <ellipse cx="20" cy="10" rx="4" ry="3"/>
    <ellipse cx="24" cy="6" rx="4" ry="3"/>
    <ellipse cx="28" cy="10" rx="4" ry="3"/>
    <ellipse cx="32" cy="14" rx="4" ry="3"/>
    </g>
    <g stroke="#30321d" stroke-width="3" stroke-linecap="round" stroke-linejoin="round" transform="translate(1,1)">
    <line x1="16" y1="44" x2="16" y2="16"/>
    <line x1="20" y1="44" x2="20" y2="12"/>
    <line x1="24" y1="44" x2="24" y2="8"/>
    <line x1="28" y1="44" x2="28" y2="12"/>
    <line x1="32" y1="44" x2="32" y2="16"/>
    <ellipse cx="16" cy="14" rx="4" ry="3"/>
    <ellipse cx="20" cy="10" rx="4" ry="3"/>
    <ellipse cx="24" cy="6" rx="4" ry="3"/>
    <ellipse cx="28" cy="10" rx="4" ry="3"/>
    <ellipse cx="32" cy="14" rx="4" ry="3"/>
    </g>
    <g stroke="url(#g)" stroke-width="1.5" stroke-linecap="round" stroke-linejoin="round">
    <line x1="16" y1="44" x2="16" y2="16"/>
    <line x1="20" y1="44" x2="20" y2="12"/>
    <line x1="24" y1="44" x2="24" y2="8"/>
    <line x1="28" y1="44" x2="28" y2="12"/>
    <line x1="32" y1="44" x2="32" y2="16"/>
    <ellipse cx="16" cy="14" rx="4" ry="3"/>
    <ellipse cx="20" cy="10" rx="4" ry="3"/>
    <ellipse cx="24" cy="6" rx="4" ry="3"/>
    <ellipse cx="28" cy="10" rx="4" ry="3"/>
    <ellipse cx="32" cy="14" rx="4" ry="3"/>
    </g>
  </g>
</svg>