<svg xmlns="http://www.w3.org/2000/svg" viewBox="0 0 48 48">
  <defs>
    <linearGradient id="g" x1="0%" y1="0%" x2="100%" y2="100%">
      <stop offset="0%" stop-color="#a7a6d3"/>
      <stop offset="100%" stop-color="#211f56"/>
    </linearGradient>
    <filter id="sh" x="-30%" y="-30%" width="160%" height="160%">
      <feDropShadow dx="2.5" dy="3.5" stdDeviation="3" flood-color="#1a1a2e" flood-opacity="0.45"/>
    </filter>
  </defs>
  <g filter="url(#sh)" fill="none">
    <g stroke="#0f0e27" stroke-width="4.5" stroke-linecap="round" stroke-linejoin="round" transform="translate(2,2)">
<circle cx="24" cy="24" r="18"/>
        <circle cx="14" cy="14" r="4"/>
        <circle cx="34" cy="14" r="4"/>
        <path d="M16 28 L24 28 L32 28"/>
        <line x1="24" y1="28" x2="24" y2="36"/>
    </g>
    <g stroke="#211f56" stroke-width="3" stroke-linecap="round" stroke-linejoin="round" transform="translate(1,1)">
<circle cx="24" cy="24" r="18"/>
        <circle cx="14" cy="14" r="4"/>
        <circle cx="34" cy="14" r="4"/>
        <path d="M16 28 L24 28 L32 28"/>
        <line x1="24" y1="28" x2="24" y2="36"/>
    </g>
    <g stroke="url(#g)" stroke-width="1.5" stroke-linecap="round" stroke-linejoin="round">
<circle cx="24" cy="24" r="18"/>
        <circle cx="14" cy="14" r="4"/>
        <circle cx="34" cy="14" r="4"/>
        <path d="M16 28 L24 28 L32 28"/>
        <line x1="24" y1="28" x2="24" y2="36"/>
    </g>
  </g>
</svg>