<svg xmlns="http://www.w3.org/2000/svg" viewBox="0 0 48 48">
  <defs>
    <linearGradient id="g" x1="0%" y1="0%" x2="100%" y2="100%">
      <stop offset="0%" stop-color="#b0cedf"/>
      <stop offset="100%" stop-color="#14242e"/>
    </linearGradient>
    <filter id="shadow" x="-30%" y="-30%" width="160%" height="160%">
      <feDropShadow dx="2.5" dy="3.5" stdDeviation="3" flood-color="#1a1a2e" flood-opacity="0.45"/>
    </filter>
  </defs>
  <g filter="url(#shadow)" fill="none">
    <g stroke="#0a1217" stroke-width="4.5" stroke-linecap="round" stroke-linejoin="round" transform="translate(2,2)">
    <path d="M12 38 Q12 44 24 44 Q36 44 36 38" fill="none" stroke-width="3"/>
    <circle cx="24" cy="44" r="2" fill="currentColor"/>
    <circle cx="16" cy="42" r="1.5" fill="currentColor"/>
    <circle cx="32" cy="42" r="1.5" fill="currentColor"/>
    </g>
    <g stroke="#14242e" stroke-width="3" stroke-linecap="round" stroke-linejoin="round" transform="translate(1,1)">
    <path d="M12 38 Q12 44 24 44 Q36 44 36 38" fill="none" stroke-width="3"/>
    <circle cx="24" cy="44" r="2" fill="currentColor"/>
    <circle cx="16" cy="42" r="1.5" fill="currentColor"/>
    <circle cx="32" cy="42" r="1.5" fill="currentColor"/>
    </g>
    <g stroke="url(#g)" stroke-width="1.5" stroke-linecap="round" stroke-linejoin="round">
    <path d="M12 38 Q12 44 24 44 Q36 44 36 38" fill="none" stroke-width="3"/>
    <circle cx="24" cy="44" r="2" fill="currentColor"/>
    <circle cx="16" cy="42" r="1.5" fill="currentColor"/>
    <circle cx="32" cy="42" r="1.5" fill="currentColor"/>
    </g>
  </g>
</svg>