<svg xmlns="http://www.w3.org/2000/svg" viewBox="0 0 48 48">
  <defs>
    <linearGradient id="g" x1="0%" y1="0%" x2="100%" y2="100%">
      <stop offset="0%" stop-color="#c2dfbc"/>
      <stop offset="100%" stop-color="#42663a"/>
    </linearGradient>
    <filter id="sh" x="-30%" y="-30%" width="160%" height="160%">
      <feDropShadow dx="2.5" dy="3.5" stdDeviation="3" flood-color="#1a1a2e" flood-opacity="0.45"/>
    </filter>
  </defs>
  <g filter="url(#sh)" fill="none">
    <g stroke="#1e2e1a" stroke-width="4.5" stroke-linecap="round" stroke-linejoin="round" transform="translate(2,2)">
<path d="M24 6 Q10 14 10 24 Q10 34 24 42"/>
        <path d="M24 6 Q38 14 38 24 Q38 34 24 42"/>
        <line x1="10" y1="18" x2="38" y2="18"/>
        <line x1="10" y1="30" x2="38" y2="30"/>
    </g>
    <g stroke="#42663a" stroke-width="3" stroke-linecap="round" stroke-linejoin="round" transform="translate(1,1)">
<path d="M24 6 Q10 14 10 24 Q10 34 24 42"/>
        <path d="M24 6 Q38 14 38 24 Q38 34 24 42"/>
        <line x1="10" y1="18" x2="38" y2="18"/>
        <line x1="10" y1="30" x2="38" y2="30"/>
    </g>
    <g stroke="url(#g)" stroke-width="1.5" stroke-linecap="round" stroke-linejoin="round">
<path d="M24 6 Q10 14 10 24 Q10 34 24 42"/>
        <path d="M24 6 Q38 14 38 24 Q38 34 24 42"/>
        <line x1="10" y1="18" x2="38" y2="18"/>
        <line x1="10" y1="30" x2="38" y2="30"/>
    </g>
  </g>
</svg>