<svg xmlns="http://www.w3.org/2000/svg" viewBox="0 0 48 48">
  <defs>
    <linearGradient id="g" x1="0%" y1="0%" x2="100%" y2="100%">
      <stop offset="0%" stop-color="#afa9c0"/>
      <stop offset="100%" stop-color="#13101d"/>
    </linearGradient>
    <filter id="shadow" x="-30%" y="-30%" width="160%" height="160%">
      <feDropShadow dx="2.5" dy="3.5" stdDeviation="3" flood-color="#1a1a2e" flood-opacity="0.45"/>
    </filter>
  </defs>
  <g filter="url(#shadow)" fill="none">
    <g stroke="#09080e" stroke-width="4.5" stroke-linecap="round" stroke-linejoin="round" transform="translate(2,2)">
    <ellipse cx="26" cy="22" rx="8" ry="6"/>
    <path d="M8 22 Q4 22 2 24 L8 24 Z"/>
    <line x1="34" y1="20" x2="44" y2="16"/>
    <line x1="34" y1="24" x2="44" y2="28"/>
    <path d="M18 28 L18 42 M30 28 L30 42"/>
    </g>
    <g stroke="#13101d" stroke-width="3" stroke-linecap="round" stroke-linejoin="round" transform="translate(1,1)">
    <ellipse cx="26" cy="22" rx="8" ry="6"/>
    <path d="M8 22 Q4 22 2 24 L8 24 Z"/>
    <line x1="34" y1="20" x2="44" y2="16"/>
    <line x1="34" y1="24" x2="44" y2="28"/>
    <path d="M18 28 L18 42 M30 28 L30 42"/>
    </g>
    <g stroke="url(#g)" stroke-width="1.5" stroke-linecap="round" stroke-linejoin="round">
    <ellipse cx="26" cy="22" rx="8" ry="6"/>
    <path d="M8 22 Q4 22 2 24 L8 24 Z"/>
    <line x1="34" y1="20" x2="44" y2="16"/>
    <line x1="34" y1="24" x2="44" y2="28"/>
    <path d="M18 28 L18 42 M30 28 L30 42"/>
    </g>
  </g>
</svg>