<svg xmlns="http://www.w3.org/2000/svg" viewBox="0 0 48 48">
  <defs>
    <linearGradient id="g" x1="0%" y1="0%" x2="100%" y2="100%">
      <stop offset="0%" stop-color="#b2ccaf"/>
      <stop offset="100%" stop-color="#2f4e2b"/>
    </linearGradient>
    <filter id="sh" x="-30%" y="-30%" width="160%" height="160%">
      <feDropShadow dx="2.5" dy="3.5" stdDeviation="3" flood-color="#1a1a2e" flood-opacity="0.45"/>
    </filter>
  </defs>
  <g filter="url(#sh)" fill="none">
    <g stroke="#152313" stroke-width="4.5" stroke-linecap="round" stroke-linejoin="round" transform="translate(2,2)">
<polygon points="12,36 20,10 28,10 36,36"/>
        <rect x="12" y="36" width="24" height="6" rx="2"/>
        <line x1="24" y1="10" x2="24" y2="6"/>
    </g>
    <g stroke="#2f4e2b" stroke-width="3" stroke-linecap="round" stroke-linejoin="round" transform="translate(1,1)">
<polygon points="12,36 20,10 28,10 36,36"/>
        <rect x="12" y="36" width="24" height="6" rx="2"/>
        <line x1="24" y1="10" x2="24" y2="6"/>
    </g>
    <g stroke="url(#g)" stroke-width="1.5" stroke-linecap="round" stroke-linejoin="round">
<polygon points="12,36 20,10 28,10 36,36"/>
        <rect x="12" y="36" width="24" height="6" rx="2"/>
        <line x1="24" y1="10" x2="24" y2="6"/>
    </g>
  </g>
</svg>