<svg xmlns="http://www.w3.org/2000/svg" viewBox="0 0 48 48">
  <defs>
    <linearGradient id="g" x1="0%" y1="0%" x2="100%" y2="100%">
      <stop offset="0%" stop-color="#c9c5e3"/>
      <stop offset="100%" stop-color="#221f30"/>
    </linearGradient>
    <filter id="shadow" x="-30%" y="-30%" width="160%" height="160%">
      <feDropShadow dx="2.5" dy="3.5" stdDeviation="3" flood-color="#1a1a2e" flood-opacity="0.45"/>
    </filter>
  </defs>
  <g filter="url(#shadow)" fill="none">
    <g stroke="#110f18" stroke-width="4.5" stroke-linecap="round" stroke-linejoin="round" transform="translate(2,2)">
    <circle cx="24" cy="24" r="12"/>
    <path d="M24 12 Q24 4 20 2 Q24 4 28 2 Q24 4 24 12"/>
    <path d="M20 28 Q24 32 28 28"/>
    <line x1="24" y1="12" x2="24" y2="4"/>
    </g>
    <g stroke="#221f30" stroke-width="3" stroke-linecap="round" stroke-linejoin="round" transform="translate(1,1)">
    <circle cx="24" cy="24" r="12"/>
    <path d="M24 12 Q24 4 20 2 Q24 4 28 2 Q24 4 24 12"/>
    <path d="M20 28 Q24 32 28 28"/>
    <line x1="24" y1="12" x2="24" y2="4"/>
    </g>
    <g stroke="url(#g)" stroke-width="1.5" stroke-linecap="round" stroke-linejoin="round">
    <circle cx="24" cy="24" r="12"/>
    <path d="M24 12 Q24 4 20 2 Q24 4 28 2 Q24 4 24 12"/>
    <path d="M20 28 Q24 32 28 28"/>
    <line x1="24" y1="12" x2="24" y2="4"/>
    </g>
  </g>
</svg>