<svg xmlns="http://www.w3.org/2000/svg" viewBox="0 0 48 48">
  <defs>
    <linearGradient id="iconGrad" x1="0%" y1="0%" x2="100%" y2="100%">
      <stop offset="0%" stop-color="#90CAF9"/>
      <stop offset="100%" stop-color="#376387"/>
    </linearGradient>
    <filter id="shadow" x="-30%" y="-30%" width="160%" height="160%">
      <feDropShadow dx="2.5" dy="3.5" stdDeviation="3" flood-color="#1a1a2e" flood-opacity="0.45"/>
    </filter>
  </defs>
  <g filter="url(#shadow)" fill="none">
    <g stroke="#1b3143" stroke-width="4.5" stroke-linecap="round" stroke-linejoin="round" transform="translate(2,2)">
      <circle cx="24" cy="24" r="12"/>
    <circle cx="24" cy="24" r="4"/>
    <line x1="24" y1="11" x2="24" y2="6"/>
    <line x1="33" y1="15" x2="37" y2="11"/>
    <line x1="37" y1="24" x2="42" y2="24"/>
    <line x1="33" y1="33" x2="37" y2="37"/>
    <line x1="24" y1="37" x2="24" y2="42"/>
    <line x1="15" y1="33" x2="11" y2="37"/>
    <line x1="11" y1="24" x2="6" y2="24"/>
    <line x1="15" y1="15" x2="11" y2="11"/>
    </g>
    <g stroke="#376387" stroke-width="3" stroke-linecap="round" stroke-linejoin="round" transform="translate(1,1)">
      <circle cx="24" cy="24" r="12"/>
    <circle cx="24" cy="24" r="4"/>
    <line x1="24" y1="11" x2="24" y2="6"/>
    <line x1="33" y1="15" x2="37" y2="11"/>
    <line x1="37" y1="24" x2="42" y2="24"/>
    <line x1="33" y1="33" x2="37" y2="37"/>
    <line x1="24" y1="37" x2="24" y2="42"/>
    <line x1="15" y1="33" x2="11" y2="37"/>
    <line x1="11" y1="24" x2="6" y2="24"/>
    <line x1="15" y1="15" x2="11" y2="11"/>
    </g>
    <g stroke="url(#iconGrad)" stroke-width="1.5" stroke-linecap="round" stroke-linejoin="round">
      <circle cx="24" cy="24" r="12"/>
    <circle cx="24" cy="24" r="4"/>
    <line x1="24" y1="11" x2="24" y2="6"/>
    <line x1="33" y1="15" x2="37" y2="11"/>
    <line x1="37" y1="24" x2="42" y2="24"/>
    <line x1="33" y1="33" x2="37" y2="37"/>
    <line x1="24" y1="37" x2="24" y2="42"/>
    <line x1="15" y1="33" x2="11" y2="37"/>
    <line x1="11" y1="24" x2="6" y2="24"/>
    <line x1="15" y1="15" x2="11" y2="11"/>
    </g>
  </g>
</svg>
