<svg xmlns="http://www.w3.org/2000/svg" viewBox="0 0 48 48">
  <defs>
    <linearGradient id="g" x1="0%" y1="0%" x2="100%" y2="100%">
      <stop offset="0%" stop-color="#a9c7a8"/>
      <stop offset="100%" stop-color="#10210f"/>
    </linearGradient>
    <filter id="shadow" x="-30%" y="-30%" width="160%" height="160%">
      <feDropShadow dx="2.5" dy="3.5" stdDeviation="3" flood-color="#1a1a2e" flood-opacity="0.45"/>
    </filter>
  </defs>
  <g filter="url(#shadow)" fill="none">
    <g stroke="#081007" stroke-width="4.5" stroke-linecap="round" stroke-linejoin="round" transform="translate(2,2)">
    <ellipse cx="24" cy="24" rx="13" ry="8"/>
    <path d="M14 20 Q24 12 34 20"/>
    <path d="M11 24 L11 32 M17 24 L17 34 M24 24 L24 34 M31 24 L31 34 M37 24 L37 32"/>
    <path d="M11 28 Q17 34 24 34 Q31 34 37 28"/>
    <circle cx="12" cy="24" r="2"/>
    </g>
    <g stroke="#10210f" stroke-width="3" stroke-linecap="round" stroke-linejoin="round" transform="translate(1,1)">
    <ellipse cx="24" cy="24" rx="13" ry="8"/>
    <path d="M14 20 Q24 12 34 20"/>
    <path d="M11 24 L11 32 M17 24 L17 34 M24 24 L24 34 M31 24 L31 34 M37 24 L37 32"/>
    <path d="M11 28 Q17 34 24 34 Q31 34 37 28"/>
    <circle cx="12" cy="24" r="2"/>
    </g>
    <g stroke="url(#g)" stroke-width="1.5" stroke-linecap="round" stroke-linejoin="round">
    <ellipse cx="24" cy="24" rx="13" ry="8"/>
    <path d="M14 20 Q24 12 34 20"/>
    <path d="M11 24 L11 32 M17 24 L17 34 M24 24 L24 34 M31 24 L31 34 M37 24 L37 32"/>
    <path d="M11 28 Q17 34 24 34 Q31 34 37 28"/>
    <circle cx="12" cy="24" r="2"/>
    </g>
  </g>
</svg>