<svg xmlns="http://www.w3.org/2000/svg" viewBox="0 0 48 48">
  <defs>
    <linearGradient id="g" x1="0%" y1="0%" x2="100%" y2="100%">
      <stop offset="0%" stop-color="#a9d6a2"/>
      <stop offset="100%" stop-color="#235a1a"/>
    </linearGradient>
    <filter id="sh" x="-30%" y="-30%" width="160%" height="160%">
      <feDropShadow dx="2.5" dy="3.5" stdDeviation="3" flood-color="#1a1a2e" flood-opacity="0.45"/>
    </filter>
  </defs>
  <g filter="url(#sh)" fill="none">
    <g stroke="#10290c" stroke-width="4.5" stroke-linecap="round" stroke-linejoin="round" transform="translate(2,2)">
<rect x="8" y="14" width="32" height="18" rx="4"/><rect x="6" y="28" width="36" height="10" rx="3"/><rect x="12" y="10" width="24" height="6" rx="3"/><line x1="12" y1="10" x2="10" y2="6"/><line x1="36" y1="10" x2="38" y2="6"/>
    </g>
    <g stroke="#235a1a" stroke-width="3" stroke-linecap="round" stroke-linejoin="round" transform="translate(1,1)">
<rect x="8" y="14" width="32" height="18" rx="4"/><rect x="6" y="28" width="36" height="10" rx="3"/><rect x="12" y="10" width="24" height="6" rx="3"/><line x1="12" y1="10" x2="10" y2="6"/><line x1="36" y1="10" x2="38" y2="6"/>
    </g>
    <g stroke="url(#g)" stroke-width="1.5" stroke-linecap="round" stroke-linejoin="round">
<rect x="8" y="14" width="32" height="18" rx="4"/><rect x="6" y="28" width="36" height="10" rx="3"/><rect x="12" y="10" width="24" height="6" rx="3"/><line x1="12" y1="10" x2="10" y2="6"/><line x1="36" y1="10" x2="38" y2="6"/>
    </g>
  </g>
</svg>