<svg xmlns="http://www.w3.org/2000/svg" viewBox="0 0 48 48">
  <defs>
    <linearGradient id="g" x1="0%" y1="0%" x2="100%" y2="100%">
      <stop offset="0%" stop-color="#c1adb4"/>
      <stop offset="100%" stop-color="#1d1216"/>
    </linearGradient>
    <filter id="shadow" x="-30%" y="-30%" width="160%" height="160%">
      <feDropShadow dx="2.5" dy="3.5" stdDeviation="3" flood-color="#1a1a2e" flood-opacity="0.45"/>
    </filter>
  </defs>
  <g filter="url(#shadow)" fill="none">
    <g stroke="#0e090b" stroke-width="4.5" stroke-linecap="round" stroke-linejoin="round" transform="translate(2,2)">
    <ellipse cx="24" cy="28" rx="10" ry="8"/>
    <ellipse cx="24" cy="16" rx="8" ry="6"/>
    <polygon points="24,2 20,10 28,10"/>
    <path d="M14 12 L6 8 M34 12 L42 8 M18 8 L12 4 M30 8 L36 4"/>
    <path d="M16 20 L14 16 M32 20 L34 16"/>
    </g>
    <g stroke="#1d1216" stroke-width="3" stroke-linecap="round" stroke-linejoin="round" transform="translate(1,1)">
    <ellipse cx="24" cy="28" rx="10" ry="8"/>
    <ellipse cx="24" cy="16" rx="8" ry="6"/>
    <polygon points="24,2 20,10 28,10"/>
    <path d="M14 12 L6 8 M34 12 L42 8 M18 8 L12 4 M30 8 L36 4"/>
    <path d="M16 20 L14 16 M32 20 L34 16"/>
    </g>
    <g stroke="url(#g)" stroke-width="1.5" stroke-linecap="round" stroke-linejoin="round">
    <ellipse cx="24" cy="28" rx="10" ry="8"/>
    <ellipse cx="24" cy="16" rx="8" ry="6"/>
    <polygon points="24,2 20,10 28,10"/>
    <path d="M14 12 L6 8 M34 12 L42 8 M18 8 L12 4 M30 8 L36 4"/>
    <path d="M16 20 L14 16 M32 20 L34 16"/>
    </g>
  </g>
</svg>