<svg xmlns="http://www.w3.org/2000/svg" viewBox="0 0 48 48">
  <defs>
    <linearGradient id="g" x1="0%" y1="0%" x2="100%" y2="100%">
      <stop offset="0%" stop-color="#acbec9"/>
      <stop offset="100%" stop-color="#111c21"/>
    </linearGradient>
    <filter id="shadow" x="-30%" y="-30%" width="160%" height="160%">
      <feDropShadow dx="2.5" dy="3.5" stdDeviation="3" flood-color="#1a1a2e" flood-opacity="0.45"/>
    </filter>
  </defs>
  <g filter="url(#shadow)" fill="none">
    <g stroke="#080e10" stroke-width="4.5" stroke-linecap="round" stroke-linejoin="round" transform="translate(2,2)">
    <line x1="18" y1="44" x2="18" y2="10"/>
    <line x1="30" y1="44" x2="30" y2="10"/>
    <line x1="24" y1="44" x2="24" y2="6"/>
    <polygon points="24,6 20,14 28,14"/>
    <polygon points="18,10 14,18 22,18"/>
    <polygon points="30,10 26,18 34,18"/>
    </g>
    <g stroke="#111c21" stroke-width="3" stroke-linecap="round" stroke-linejoin="round" transform="translate(1,1)">
    <line x1="18" y1="44" x2="18" y2="10"/>
    <line x1="30" y1="44" x2="30" y2="10"/>
    <line x1="24" y1="44" x2="24" y2="6"/>
    <polygon points="24,6 20,14 28,14"/>
    <polygon points="18,10 14,18 22,18"/>
    <polygon points="30,10 26,18 34,18"/>
    </g>
    <g stroke="url(#g)" stroke-width="1.5" stroke-linecap="round" stroke-linejoin="round">
    <line x1="18" y1="44" x2="18" y2="10"/>
    <line x1="30" y1="44" x2="30" y2="10"/>
    <line x1="24" y1="44" x2="24" y2="6"/>
    <polygon points="24,6 20,14 28,14"/>
    <polygon points="18,10 14,18 22,18"/>
    <polygon points="30,10 26,18 34,18"/>
    </g>
  </g>
</svg>