<svg xmlns="http://www.w3.org/2000/svg" viewBox="0 0 48 48">
  <defs>
    <linearGradient id="g" x1="0%" y1="0%" x2="100%" y2="100%">
      <stop offset="0%" stop-color="#cbcdb7"/>
      <stop offset="100%" stop-color="#232418"/>
    </linearGradient>
    <filter id="shadow" x="-30%" y="-30%" width="160%" height="160%">
      <feDropShadow dx="2.5" dy="3.5" stdDeviation="3" flood-color="#1a1a2e" flood-opacity="0.45"/>
    </filter>
  </defs>
  <g filter="url(#shadow)" fill="none">
    <g stroke="#11120c" stroke-width="4.5" stroke-linecap="round" stroke-linejoin="round" transform="translate(2,2)">
    <path d="M14 8 Q22 4 30 10 Q36 16 34 24 Q32 34 22 36 Q12 38 8 28 Q4 18 14 8 Z"/>
    <circle cx="16" cy="14" r="2" fill="currentColor"/>
    <circle cx="28" cy="20" r="1.5" fill="currentColor"/>
    <circle cx="20" cy="30" r="2" fill="currentColor"/>
    </g>
    <g stroke="#232418" stroke-width="3" stroke-linecap="round" stroke-linejoin="round" transform="translate(1,1)">
    <path d="M14 8 Q22 4 30 10 Q36 16 34 24 Q32 34 22 36 Q12 38 8 28 Q4 18 14 8 Z"/>
    <circle cx="16" cy="14" r="2" fill="currentColor"/>
    <circle cx="28" cy="20" r="1.5" fill="currentColor"/>
    <circle cx="20" cy="30" r="2" fill="currentColor"/>
    </g>
    <g stroke="url(#g)" stroke-width="1.5" stroke-linecap="round" stroke-linejoin="round">
    <path d="M14 8 Q22 4 30 10 Q36 16 34 24 Q32 34 22 36 Q12 38 8 28 Q4 18 14 8 Z"/>
    <circle cx="16" cy="14" r="2" fill="currentColor"/>
    <circle cx="28" cy="20" r="1.5" fill="currentColor"/>
    <circle cx="20" cy="30" r="2" fill="currentColor"/>
    </g>
  </g>
</svg>