<svg xmlns="http://www.w3.org/2000/svg" viewBox="0 0 48 48">
  <defs>
    <linearGradient id="g" x1="0%" y1="0%" x2="100%" y2="100%">
      <stop offset="0%" stop-color="#c7cea4"/>
      <stop offset="100%" stop-color="#48501d"/>
    </linearGradient>
    <filter id="sh" x="-30%" y="-30%" width="160%" height="160%">
      <feDropShadow dx="2.5" dy="3.5" stdDeviation="3" flood-color="#1a1a2e" flood-opacity="0.45"/>
    </filter>
  </defs>
  <g filter="url(#sh)" fill="none">
    <g stroke="#21240d" stroke-width="4.5" stroke-linecap="round" stroke-linejoin="round" transform="translate(2,2)">
<circle cx="24" cy="24" r="16"/>
        <circle cx="24" cy="22" r="10"/>
        <rect x="14" y="28" width="20" height="4" rx="2"/>
        <line x1="20" y1="18" x2="20" y2="26"/>
        <line x1="28" y1="18" x2="28" y2="26"/>
    </g>
    <g stroke="#48501d" stroke-width="3" stroke-linecap="round" stroke-linejoin="round" transform="translate(1,1)">
<circle cx="24" cy="24" r="16"/>
        <circle cx="24" cy="22" r="10"/>
        <rect x="14" y="28" width="20" height="4" rx="2"/>
        <line x1="20" y1="18" x2="20" y2="26"/>
        <line x1="28" y1="18" x2="28" y2="26"/>
    </g>
    <g stroke="url(#g)" stroke-width="1.5" stroke-linecap="round" stroke-linejoin="round">
<circle cx="24" cy="24" r="16"/>
        <circle cx="24" cy="22" r="10"/>
        <rect x="14" y="28" width="20" height="4" rx="2"/>
        <line x1="20" y1="18" x2="20" y2="26"/>
        <line x1="28" y1="18" x2="28" y2="26"/>
    </g>
  </g>
</svg>