<svg xmlns="http://www.w3.org/2000/svg" viewBox="0 0 48 48">
  <defs>
    <linearGradient id="iconGrad" x1="0%" y1="0%" x2="100%" y2="100%">
      <stop offset="0%" stop-color="#B39DDB"/>
      <stop offset="100%" stop-color="#514070"/>
    </linearGradient>
    <filter id="shadow" x="-30%" y="-30%" width="160%" height="160%">
      <feDropShadow dx="2.5" dy="3.5" stdDeviation="3" flood-color="#1a1a2e" flood-opacity="0.45"/>
    </filter>
  </defs>
  <g filter="url(#shadow)" fill="none">
    <g stroke="#282038" stroke-width="4.5" stroke-linecap="round" stroke-linejoin="round" transform="translate(2,2)">
      <rect x="10" y="16" width="10" height="16" rx="2"/>
    <polygon points="20,18 30,24 20,30"/>
    <path d="M33 18a10 10 0 010 12"/>
    <path d="M38 14a16 16 0 010 20"/>
    </g>
    <g stroke="#514070" stroke-width="3" stroke-linecap="round" stroke-linejoin="round" transform="translate(1,1)">
      <rect x="10" y="16" width="10" height="16" rx="2"/>
    <polygon points="20,18 30,24 20,30"/>
    <path d="M33 18a10 10 0 010 12"/>
    <path d="M38 14a16 16 0 010 20"/>
    </g>
    <g stroke="url(#iconGrad)" stroke-width="1.5" stroke-linecap="round" stroke-linejoin="round">
      <rect x="10" y="16" width="10" height="16" rx="2"/>
    <polygon points="20,18 30,24 20,30"/>
    <path d="M33 18a10 10 0 010 12"/>
    <path d="M38 14a16 16 0 010 20"/>
    </g>
  </g>
</svg>
