<svg xmlns="http://www.w3.org/2000/svg" viewBox="0 0 48 48">
  <defs>
    <linearGradient id="g" x1="0%" y1="0%" x2="100%" y2="100%">
      <stop offset="0%" stop-color="#acbbd5"/>
      <stop offset="100%" stop-color="#273959"/>
    </linearGradient>
    <filter id="sh" x="-30%" y="-30%" width="160%" height="160%">
      <feDropShadow dx="2.5" dy="3.5" stdDeviation="3" flood-color="#1a1a2e" flood-opacity="0.45"/>
    </filter>
  </defs>
  <g filter="url(#sh)" fill="none">
    <g stroke="#111a28" stroke-width="4.5" stroke-linecap="round" stroke-linejoin="round" transform="translate(2,2)">
<line x1="24" y1="6" x2="24" y2="42"/><path d="M10 18 L24 4 L38 18 Z"/><line x1="10" y1="18" x2="38" y2="18"/><rect x="12" y="6" width="24" height="4" rx="1"/>
    </g>
    <g stroke="#273959" stroke-width="3" stroke-linecap="round" stroke-linejoin="round" transform="translate(1,1)">
<line x1="24" y1="6" x2="24" y2="42"/><path d="M10 18 L24 4 L38 18 Z"/><line x1="10" y1="18" x2="38" y2="18"/><rect x="12" y="6" width="24" height="4" rx="1"/>
    </g>
    <g stroke="url(#g)" stroke-width="1.5" stroke-linecap="round" stroke-linejoin="round">
<line x1="24" y1="6" x2="24" y2="42"/><path d="M10 18 L24 4 L38 18 Z"/><line x1="10" y1="18" x2="38" y2="18"/><rect x="12" y="6" width="24" height="4" rx="1"/>
    </g>
  </g>
</svg>