<svg xmlns="http://www.w3.org/2000/svg" viewBox="0 0 48 48">
  <defs>
    <linearGradient id="g" x1="0%" y1="0%" x2="100%" y2="100%">
      <stop offset="0%" stop-color="#c6ceab"/>
      <stop offset="100%" stop-color="#202411"/>
    </linearGradient>
    <filter id="shadow" x="-30%" y="-30%" width="160%" height="160%">
      <feDropShadow dx="2.5" dy="3.5" stdDeviation="3" flood-color="#1a1a2e" flood-opacity="0.45"/>
    </filter>
  </defs>
  <g filter="url(#shadow)" fill="none">
    <g stroke="#101208" stroke-width="4.5" stroke-linecap="round" stroke-linejoin="round" transform="translate(2,2)">
    <ellipse cx="24" cy="24" rx="8" ry="5"/>
    <circle cx="24" cy="16" r="4.5"/>
    <circle cx="22" cy="14" r="1.5"/>
    <circle cx="26" cy="14" r="1.5"/>
    <path d="M18 14 L14 8 L12 12 M30 14 L34 8 L36 12"/>
    <path d="M16 24 L12 44 M32 24 L36 44"/>
    </g>
    <g stroke="#202411" stroke-width="3" stroke-linecap="round" stroke-linejoin="round" transform="translate(1,1)">
    <ellipse cx="24" cy="24" rx="8" ry="5"/>
    <circle cx="24" cy="16" r="4.5"/>
    <circle cx="22" cy="14" r="1.5"/>
    <circle cx="26" cy="14" r="1.5"/>
    <path d="M18 14 L14 8 L12 12 M30 14 L34 8 L36 12"/>
    <path d="M16 24 L12 44 M32 24 L36 44"/>
    </g>
    <g stroke="url(#g)" stroke-width="1.5" stroke-linecap="round" stroke-linejoin="round">
    <ellipse cx="24" cy="24" rx="8" ry="5"/>
    <circle cx="24" cy="16" r="4.5"/>
    <circle cx="22" cy="14" r="1.5"/>
    <circle cx="26" cy="14" r="1.5"/>
    <path d="M18 14 L14 8 L12 12 M30 14 L34 8 L36 12"/>
    <path d="M16 24 L12 44 M32 24 L36 44"/>
    </g>
  </g>
</svg>