<svg xmlns="http://www.w3.org/2000/svg" viewBox="0 0 48 48">
  <defs>
    <linearGradient id="g" x1="0%" y1="0%" x2="100%" y2="100%">
      <stop offset="0%" stop-color="#cba5e2"/>
      <stop offset="100%" stop-color="#230e2f"/>
    </linearGradient>
    <filter id="shadow" x="-30%" y="-30%" width="160%" height="160%">
      <feDropShadow dx="2.5" dy="3.5" stdDeviation="3" flood-color="#1a1a2e" flood-opacity="0.45"/>
    </filter>
  </defs>
  <g filter="url(#shadow)" fill="none">
    <g stroke="#110717" stroke-width="4.5" stroke-linecap="round" stroke-linejoin="round" transform="translate(2,2)">
    <ellipse cx="12" cy="26" rx="6" ry="10"/>
    <line x1="18" y1="22" x2="36" y2="14"/>
    <line x1="18" y1="26" x2="38" y2="26"/>
    <line x1="36" y1="14" x2="42" y2="10"/>
    <ellipse cx="38" cy="26" rx="4" ry="6"/>
    </g>
    <g stroke="#230e2f" stroke-width="3" stroke-linecap="round" stroke-linejoin="round" transform="translate(1,1)">
    <ellipse cx="12" cy="26" rx="6" ry="10"/>
    <line x1="18" y1="22" x2="36" y2="14"/>
    <line x1="18" y1="26" x2="38" y2="26"/>
    <line x1="36" y1="14" x2="42" y2="10"/>
    <ellipse cx="38" cy="26" rx="4" ry="6"/>
    </g>
    <g stroke="url(#g)" stroke-width="1.5" stroke-linecap="round" stroke-linejoin="round">
    <ellipse cx="12" cy="26" rx="6" ry="10"/>
    <line x1="18" y1="22" x2="36" y2="14"/>
    <line x1="18" y1="26" x2="38" y2="26"/>
    <line x1="36" y1="14" x2="42" y2="10"/>
    <ellipse cx="38" cy="26" rx="4" ry="6"/>
    </g>
  </g>
</svg>