<svg xmlns="http://www.w3.org/2000/svg" viewBox="0 0 48 48">
  <defs>
    <linearGradient id="g" x1="0%" y1="0%" x2="100%" y2="100%">
      <stop offset="0%" stop-color="#ceccb6"/>
      <stop offset="100%" stop-color="#242317"/>
    </linearGradient>
    <filter id="shadow" x="-30%" y="-30%" width="160%" height="160%">
      <feDropShadow dx="2.5" dy="3.5" stdDeviation="3" flood-color="#1a1a2e" flood-opacity="0.45"/>
    </filter>
  </defs>
  <g filter="url(#shadow)" fill="none">
    <g stroke="#12110b" stroke-width="4.5" stroke-linecap="round" stroke-linejoin="round" transform="translate(2,2)">
    <ellipse cx="24" cy="18" rx="12" ry="8"/>
    <path d="M12 18 L12 36 Q12 44 24 44 Q36 44 36 36 L36 18"/>
    <line x1="12" y1="26" x2="36" y2="26"/>
    <circle cx="18" cy="34" r="2" fill="currentColor"/>
    <circle cx="30" cy="34" r="2" fill="currentColor"/>
    </g>
    <g stroke="#242317" stroke-width="3" stroke-linecap="round" stroke-linejoin="round" transform="translate(1,1)">
    <ellipse cx="24" cy="18" rx="12" ry="8"/>
    <path d="M12 18 L12 36 Q12 44 24 44 Q36 44 36 36 L36 18"/>
    <line x1="12" y1="26" x2="36" y2="26"/>
    <circle cx="18" cy="34" r="2" fill="currentColor"/>
    <circle cx="30" cy="34" r="2" fill="currentColor"/>
    </g>
    <g stroke="url(#g)" stroke-width="1.5" stroke-linecap="round" stroke-linejoin="round">
    <ellipse cx="24" cy="18" rx="12" ry="8"/>
    <path d="M12 18 L12 36 Q12 44 24 44 Q36 44 36 36 L36 18"/>
    <line x1="12" y1="26" x2="36" y2="26"/>
    <circle cx="18" cy="34" r="2" fill="currentColor"/>
    <circle cx="30" cy="34" r="2" fill="currentColor"/>
    </g>
  </g>
</svg>