<svg xmlns="http://www.w3.org/2000/svg" viewBox="0 0 48 48">
  <defs>
    <linearGradient id="g" x1="0%" y1="0%" x2="100%" y2="100%">
      <stop offset="0%" stop-color="#b8bcdc"/>
      <stop offset="100%" stop-color="#181a2c"/>
    </linearGradient>
    <filter id="shadow" x="-30%" y="-30%" width="160%" height="160%">
      <feDropShadow dx="2.5" dy="3.5" stdDeviation="3" flood-color="#1a1a2e" flood-opacity="0.45"/>
    </filter>
  </defs>
  <g filter="url(#shadow)" fill="none">
    <g stroke="#0c0d16" stroke-width="4.5" stroke-linecap="round" stroke-linejoin="round" transform="translate(2,2)">
    <ellipse cx="24" cy="18" rx="8" ry="10"/>
    <line x1="24" y1="28" x2="24" y2="44"/>
    <polygon points="24,44 22,40 26,40"/>
    <path d="M16 12 Q24 6 32 12"/>
    </g>
    <g stroke="#181a2c" stroke-width="3" stroke-linecap="round" stroke-linejoin="round" transform="translate(1,1)">
    <ellipse cx="24" cy="18" rx="8" ry="10"/>
    <line x1="24" y1="28" x2="24" y2="44"/>
    <polygon points="24,44 22,40 26,40"/>
    <path d="M16 12 Q24 6 32 12"/>
    </g>
    <g stroke="url(#g)" stroke-width="1.5" stroke-linecap="round" stroke-linejoin="round">
    <ellipse cx="24" cy="18" rx="8" ry="10"/>
    <line x1="24" y1="28" x2="24" y2="44"/>
    <polygon points="24,44 22,40 26,40"/>
    <path d="M16 12 Q24 6 32 12"/>
    </g>
  </g>
</svg>