<svg xmlns="http://www.w3.org/2000/svg" viewBox="0 0 48 48">
  <defs>
    <linearGradient id="g" x1="0%" y1="0%" x2="100%" y2="100%">
      <stop offset="0%" stop-color="#9ea5bf"/>
      <stop offset="100%" stop-color="#161e3e"/>
    </linearGradient>
    <filter id="sh" x="-30%" y="-30%" width="160%" height="160%">
      <feDropShadow dx="2.5" dy="3.5" stdDeviation="3" flood-color="#1a1a2e" flood-opacity="0.45"/>
    </filter>
  </defs>
  <g filter="url(#sh)" fill="none">
    <g stroke="#0a0e1c" stroke-width="4.5" stroke-linecap="round" stroke-linejoin="round" transform="translate(2,2)">
<path d="M16 16 Q24 4 32 16 Q36 28 24 38 Q12 28 16 16 Z"/>
        <line x1="18" y1="14" x2="30" y2="14"/>
    </g>
    <g stroke="#161e3e" stroke-width="3" stroke-linecap="round" stroke-linejoin="round" transform="translate(1,1)">
<path d="M16 16 Q24 4 32 16 Q36 28 24 38 Q12 28 16 16 Z"/>
        <line x1="18" y1="14" x2="30" y2="14"/>
    </g>
    <g stroke="url(#g)" stroke-width="1.5" stroke-linecap="round" stroke-linejoin="round">
<path d="M16 16 Q24 4 32 16 Q36 28 24 38 Q12 28 16 16 Z"/>
        <line x1="18" y1="14" x2="30" y2="14"/>
    </g>
  </g>
</svg>