<svg xmlns="http://www.w3.org/2000/svg" viewBox="0 0 48 48">
  <defs>
    <linearGradient id="iconGrad" x1="0%" y1="0%" x2="100%" y2="100%">
      <stop offset="0%" stop-color="#81C784"/>
      <stop offset="100%" stop-color="#255827"/>
    </linearGradient>
    <filter id="shadow" x="-30%" y="-30%" width="160%" height="160%">
      <feDropShadow dx="2.5" dy="3.5" stdDeviation="3" flood-color="#1a1a2e" flood-opacity="0.45"/>
    </filter>
  </defs>
  <g filter="url(#shadow)" fill="none">
    <g stroke="#122C13" stroke-width="4.5" stroke-linecap="round" stroke-linejoin="round" transform="translate(2,2)">
      <rect x="8" y="12" width="32" height="24" rx="3"/>
      <path d="M20 14 C32 12 32 18 24 20 C16 22 16 26 24 28 C32 30 32 36 32 34"/>
      <line x1="24" y1="14" x2="24" y2="34"/>
    </g>
    <g stroke="#255827" stroke-width="3" stroke-linecap="round" stroke-linejoin="round" transform="translate(1,1)">
      <rect x="8" y="12" width="32" height="24" rx="3"/>
      <path d="M20 14 C32 12 32 18 24 20 C16 22 16 26 24 28 C32 30 32 36 32 34"/>
      <line x1="24" y1="14" x2="24" y2="34"/>
    </g>
    <g stroke="url(#iconGrad)" stroke-width="1.5" stroke-linecap="round" stroke-linejoin="round">
      <rect x="8" y="12" width="32" height="24" rx="3"/>
      <path d="M20 14 C32 12 32 18 24 20 C16 22 16 26 24 28 C32 30 32 36 32 34"/>
      <line x1="24" y1="14" x2="24" y2="34"/>
    </g>
  </g>
</svg>