<svg xmlns="http://www.w3.org/2000/svg" viewBox="0 0 48 48">
  <defs>
    <linearGradient id="g" x1="0%" y1="0%" x2="100%" y2="100%">
      <stop offset="0%" stop-color="#c2a3d7"/>
      <stop offset="100%" stop-color="#1e0d2a"/>
    </linearGradient>
    <filter id="shadow" x="-30%" y="-30%" width="160%" height="160%">
      <feDropShadow dx="2.5" dy="3.5" stdDeviation="3" flood-color="#1a1a2e" flood-opacity="0.45"/>
    </filter>
  </defs>
  <g filter="url(#shadow)" fill="none">
    <g stroke="#0f0615" stroke-width="4.5" stroke-linecap="round" stroke-linejoin="round" transform="translate(2,2)">
    <ellipse cx="24" cy="18" rx="12" ry="6"/>
    <line x1="12" y1="18" x2="36" y2="18"/>
    <line x1="24" y1="24" x2="24" y2="44"/>
    <line x1="16" y1="38" x2="32" y2="38"/>
    <path d="M6 14 L42 14"/>
    </g>
    <g stroke="#1e0d2a" stroke-width="3" stroke-linecap="round" stroke-linejoin="round" transform="translate(1,1)">
    <ellipse cx="24" cy="18" rx="12" ry="6"/>
    <line x1="12" y1="18" x2="36" y2="18"/>
    <line x1="24" y1="24" x2="24" y2="44"/>
    <line x1="16" y1="38" x2="32" y2="38"/>
    <path d="M6 14 L42 14"/>
    </g>
    <g stroke="url(#g)" stroke-width="1.5" stroke-linecap="round" stroke-linejoin="round">
    <ellipse cx="24" cy="18" rx="12" ry="6"/>
    <line x1="12" y1="18" x2="36" y2="18"/>
    <line x1="24" y1="24" x2="24" y2="44"/>
    <line x1="16" y1="38" x2="32" y2="38"/>
    <path d="M6 14 L42 14"/>
    </g>
  </g>
</svg>