<svg xmlns="http://www.w3.org/2000/svg" viewBox="0 0 48 48">
  <defs>
    <linearGradient id="g" x1="0%" y1="0%" x2="100%" y2="100%">
      <stop offset="0%" stop-color="#c4cca9"/>
      <stop offset="100%" stop-color="#454e23"/>
    </linearGradient>
    <filter id="sh" x="-30%" y="-30%" width="160%" height="160%">
      <feDropShadow dx="2.5" dy="3.5" stdDeviation="3" flood-color="#1a1a2e" flood-opacity="0.45"/>
    </filter>
  </defs>
  <g filter="url(#sh)" fill="none">
    <g stroke="#1f2310" stroke-width="4.5" stroke-linecap="round" stroke-linejoin="round" transform="translate(2,2)">
<line x1="8" y1="6" x2="8" y2="42"/><line x1="12" y1="6" x2="12" y2="42"/><line x1="16" y1="10" x2="16" y2="38"/><line x1="19" y1="10" x2="19" y2="38"/><line x1="22" y1="10" x2="22" y2="38"/><line x1="26" y1="6" x2="26" y2="42"/><line x1="30" y1="10" x2="30" y2="38"/><line x1="33" y1="10" x2="33" y2="38"/><line x1="36" y1="10" x2="36" y2="38"/><line x1="40" y1="6" x2="40" y2="42"/><line x1="44" y1="6" x2="44" y2="42"/>
    </g>
    <g stroke="#454e23" stroke-width="3" stroke-linecap="round" stroke-linejoin="round" transform="translate(1,1)">
<line x1="8" y1="6" x2="8" y2="42"/><line x1="12" y1="6" x2="12" y2="42"/><line x1="16" y1="10" x2="16" y2="38"/><line x1="19" y1="10" x2="19" y2="38"/><line x1="22" y1="10" x2="22" y2="38"/><line x1="26" y1="6" x2="26" y2="42"/><line x1="30" y1="10" x2="30" y2="38"/><line x1="33" y1="10" x2="33" y2="38"/><line x1="36" y1="10" x2="36" y2="38"/><line x1="40" y1="6" x2="40" y2="42"/><line x1="44" y1="6" x2="44" y2="42"/>
    </g>
    <g stroke="url(#g)" stroke-width="1.5" stroke-linecap="round" stroke-linejoin="round">
<line x1="8" y1="6" x2="8" y2="42"/><line x1="12" y1="6" x2="12" y2="42"/><line x1="16" y1="10" x2="16" y2="38"/><line x1="19" y1="10" x2="19" y2="38"/><line x1="22" y1="10" x2="22" y2="38"/><line x1="26" y1="6" x2="26" y2="42"/><line x1="30" y1="10" x2="30" y2="38"/><line x1="33" y1="10" x2="33" y2="38"/><line x1="36" y1="10" x2="36" y2="38"/><line x1="40" y1="6" x2="40" y2="42"/><line x1="44" y1="6" x2="44" y2="42"/>
    </g>
  </g>
</svg>