<svg xmlns="http://www.w3.org/2000/svg" viewBox="0 0 48 48">
  <defs>
    <linearGradient id="g" x1="0%" y1="0%" x2="100%" y2="100%">
      <stop offset="0%" stop-color="#c3a7a3"/>
      <stop offset="100%" stop-color="#43211c"/>
    </linearGradient>
    <filter id="sh" x="-30%" y="-30%" width="160%" height="160%">
      <feDropShadow dx="2.5" dy="3.5" stdDeviation="3" flood-color="#1a1a2e" flood-opacity="0.45"/>
    </filter>
  </defs>
  <g filter="url(#sh)" fill="none">
    <g stroke="#1e0f0d" stroke-width="4.5" stroke-linecap="round" stroke-linejoin="round" transform="translate(2,2)">
<polygon points="8,28 8,12 24,4 40,12 40,28"/>
        <rect x="12" y="28" width="24" height="16"/>
        <rect x="16" y="32" width="8" height="8" rx="1"/>
        <rect x="28" y="32" width="6" height="6" rx="1"/>
    </g>
    <g stroke="#43211c" stroke-width="3" stroke-linecap="round" stroke-linejoin="round" transform="translate(1,1)">
<polygon points="8,28 8,12 24,4 40,12 40,28"/>
        <rect x="12" y="28" width="24" height="16"/>
        <rect x="16" y="32" width="8" height="8" rx="1"/>
        <rect x="28" y="32" width="6" height="6" rx="1"/>
    </g>
    <g stroke="url(#g)" stroke-width="1.5" stroke-linecap="round" stroke-linejoin="round">
<polygon points="8,28 8,12 24,4 40,12 40,28"/>
        <rect x="12" y="28" width="24" height="16"/>
        <rect x="16" y="32" width="8" height="8" rx="1"/>
        <rect x="28" y="32" width="6" height="6" rx="1"/>
    </g>
  </g>
</svg>