<svg xmlns="http://www.w3.org/2000/svg" viewBox="0 0 48 48">
  <defs>
    <linearGradient id="g" x1="0%" y1="0%" x2="100%" y2="100%">
      <stop offset="0%" stop-color="#acc0e4"/>
      <stop offset="100%" stop-color="#121d31"/>
    </linearGradient>
    <filter id="shadow" x="-30%" y="-30%" width="160%" height="160%">
      <feDropShadow dx="2.5" dy="3.5" stdDeviation="3" flood-color="#1a1a2e" flood-opacity="0.45"/>
    </filter>
  </defs>
  <g filter="url(#shadow)" fill="none">
    <g stroke="#090e18" stroke-width="4.5" stroke-linecap="round" stroke-linejoin="round" transform="translate(2,2)">
    <rect x="4" y="16" width="40" height="20" rx="2"/>
    <line x1="12" y1="4" x2="12" y2="44 M36 4 L36 44"/>
    <line x1="4" y1="22" x2="44" y2="22 M4 28 L44 28"/>
    <line x1="12" y1="18" x2="36" y2="18" stroke-dasharray="4 2"/>
    </g>
    <g stroke="#121d31" stroke-width="3" stroke-linecap="round" stroke-linejoin="round" transform="translate(1,1)">
    <rect x="4" y="16" width="40" height="20" rx="2"/>
    <line x1="12" y1="4" x2="12" y2="44 M36 4 L36 44"/>
    <line x1="4" y1="22" x2="44" y2="22 M4 28 L44 28"/>
    <line x1="12" y1="18" x2="36" y2="18" stroke-dasharray="4 2"/>
    </g>
    <g stroke="url(#g)" stroke-width="1.5" stroke-linecap="round" stroke-linejoin="round">
    <rect x="4" y="16" width="40" height="20" rx="2"/>
    <line x1="12" y1="4" x2="12" y2="44 M36 4 L36 44"/>
    <line x1="4" y1="22" x2="44" y2="22 M4 28 L44 28"/>
    <line x1="12" y1="18" x2="36" y2="18" stroke-dasharray="4 2"/>
    </g>
  </g>
</svg>