<svg xmlns="http://www.w3.org/2000/svg" viewBox="0 0 48 48">
  <defs>
    <linearGradient id="g" x1="0%" y1="0%" x2="100%" y2="100%">
      <stop offset="0%" stop-color="#c6baac"/>
      <stop offset="100%" stop-color="#201912"/>
    </linearGradient>
    <filter id="shadow" x="-30%" y="-30%" width="160%" height="160%">
      <feDropShadow dx="2.5" dy="3.5" stdDeviation="3" flood-color="#1a1a2e" flood-opacity="0.45"/>
    </filter>
  </defs>
  <g filter="url(#shadow)" fill="none">
    <g stroke="#100c09" stroke-width="4.5" stroke-linecap="round" stroke-linejoin="round" transform="translate(2,2)">
    <rect x="8" y="10" width="32" height="28" rx="4"/>
    <ellipse cx="24" cy="10" rx="16" ry="5"/>
    <ellipse cx="24" cy="38" rx="16" ry="5"/>
    <line x1="8" y1="16" x2="40" y2="16 M8 32 L40 32"/>
    </g>
    <g stroke="#201912" stroke-width="3" stroke-linecap="round" stroke-linejoin="round" transform="translate(1,1)">
    <rect x="8" y="10" width="32" height="28" rx="4"/>
    <ellipse cx="24" cy="10" rx="16" ry="5"/>
    <ellipse cx="24" cy="38" rx="16" ry="5"/>
    <line x1="8" y1="16" x2="40" y2="16 M8 32 L40 32"/>
    </g>
    <g stroke="url(#g)" stroke-width="1.5" stroke-linecap="round" stroke-linejoin="round">
    <rect x="8" y="10" width="32" height="28" rx="4"/>
    <ellipse cx="24" cy="10" rx="16" ry="5"/>
    <ellipse cx="24" cy="38" rx="16" ry="5"/>
    <line x1="8" y1="16" x2="40" y2="16 M8 32 L40 32"/>
    </g>
  </g>
</svg>