<svg xmlns="http://www.w3.org/2000/svg" viewBox="0 0 48 48">
  <defs>
    <linearGradient id="g" x1="0%" y1="0%" x2="100%" y2="100%">
      <stop offset="0%" stop-color="#b5d8b0"/>
      <stop offset="100%" stop-color="#172a14"/>
    </linearGradient>
    <filter id="shadow" x="-30%" y="-30%" width="160%" height="160%">
      <feDropShadow dx="2.5" dy="3.5" stdDeviation="3" flood-color="#1a1a2e" flood-opacity="0.45"/>
    </filter>
  </defs>
  <g filter="url(#shadow)" fill="none">
    <g stroke="#0b150a" stroke-width="4.5" stroke-linecap="round" stroke-linejoin="round" transform="translate(2,2)">
    <path d="M24 44 L24 24 Q24 16 16 12 Q8 8 14 4 Q18 2 22 8 Q24 12 24 8 Q24 4 28 2 Q34 6 30 12 Q26 16 24 24"/>
    <line x1="24" y1="44" x2="24" y2="24"/>
    </g>
    <g stroke="#172a14" stroke-width="3" stroke-linecap="round" stroke-linejoin="round" transform="translate(1,1)">
    <path d="M24 44 L24 24 Q24 16 16 12 Q8 8 14 4 Q18 2 22 8 Q24 12 24 8 Q24 4 28 2 Q34 6 30 12 Q26 16 24 24"/>
    <line x1="24" y1="44" x2="24" y2="24"/>
    </g>
    <g stroke="url(#g)" stroke-width="1.5" stroke-linecap="round" stroke-linejoin="round">
    <path d="M24 44 L24 24 Q24 16 16 12 Q8 8 14 4 Q18 2 22 8 Q24 12 24 8 Q24 4 28 2 Q34 6 30 12 Q26 16 24 24"/>
    <line x1="24" y1="44" x2="24" y2="24"/>
    </g>
  </g>
</svg>