<svg xmlns="http://www.w3.org/2000/svg" viewBox="0 0 48 48">
  <defs>
    <linearGradient id="g" x1="0%" y1="0%" x2="100%" y2="100%">
      <stop offset="0%" stop-color="#b2cbbb"/>
      <stop offset="100%" stop-color="#15231a"/>
    </linearGradient>
    <filter id="shadow" x="-30%" y="-30%" width="160%" height="160%">
      <feDropShadow dx="2.5" dy="3.5" stdDeviation="3" flood-color="#1a1a2e" flood-opacity="0.45"/>
    </filter>
  </defs>
  <g filter="url(#shadow)" fill="none">
    <g stroke="#0a110d" stroke-width="4.5" stroke-linecap="round" stroke-linejoin="round" transform="translate(2,2)">
    <ellipse cx="24" cy="18" rx="14" ry="6"/>
    <circle cx="12" cy="12" r="5"/>
    <circle cx="10" cy="10" r="2"/>
    <line x1="14" y1="14" x2="24" y2="18 M34 18 L44 22"/>
    <line x1="24" y1="18" x2="24" y2="44"/>
    </g>
    <g stroke="#15231a" stroke-width="3" stroke-linecap="round" stroke-linejoin="round" transform="translate(1,1)">
    <ellipse cx="24" cy="18" rx="14" ry="6"/>
    <circle cx="12" cy="12" r="5"/>
    <circle cx="10" cy="10" r="2"/>
    <line x1="14" y1="14" x2="24" y2="18 M34 18 L44 22"/>
    <line x1="24" y1="18" x2="24" y2="44"/>
    </g>
    <g stroke="url(#g)" stroke-width="1.5" stroke-linecap="round" stroke-linejoin="round">
    <ellipse cx="24" cy="18" rx="14" ry="6"/>
    <circle cx="12" cy="12" r="5"/>
    <circle cx="10" cy="10" r="2"/>
    <line x1="14" y1="14" x2="24" y2="18 M34 18 L44 22"/>
    <line x1="24" y1="18" x2="24" y2="44"/>
    </g>
  </g>
</svg>