<svg xmlns="http://www.w3.org/2000/svg" viewBox="0 0 48 48">
  <defs>
    <linearGradient id="g" x1="0%" y1="0%" x2="100%" y2="100%">
      <stop offset="0%" stop-color="#c2c3b1"/>
      <stop offset="100%" stop-color="#1e1e14"/>
    </linearGradient>
    <filter id="shadow" x="-30%" y="-30%" width="160%" height="160%">
      <feDropShadow dx="2.5" dy="3.5" stdDeviation="3" flood-color="#1a1a2e" flood-opacity="0.45"/>
    </filter>
  </defs>
  <g filter="url(#shadow)" fill="none">
    <g stroke="#0f0f0a" stroke-width="4.5" stroke-linecap="round" stroke-linejoin="round" transform="translate(2,2)">
    <ellipse cx="24" cy="14" rx="16" ry="6"/>
    <path d="M8 14 L10 40 Q12 44 24 44 Q36 44 38 40 L40 14"/>
    </g>
    <g stroke="#1e1e14" stroke-width="3" stroke-linecap="round" stroke-linejoin="round" transform="translate(1,1)">
    <ellipse cx="24" cy="14" rx="16" ry="6"/>
    <path d="M8 14 L10 40 Q12 44 24 44 Q36 44 38 40 L40 14"/>
    </g>
    <g stroke="url(#g)" stroke-width="1.5" stroke-linecap="round" stroke-linejoin="round">
    <ellipse cx="24" cy="14" rx="16" ry="6"/>
    <path d="M8 14 L10 40 Q12 44 24 44 Q36 44 38 40 L40 14"/>
    </g>
  </g>
</svg>