<svg xmlns="http://www.w3.org/2000/svg" viewBox="0 0 48 48">
  <defs>
    <linearGradient id="g" x1="0%" y1="0%" x2="100%" y2="100%">
      <stop offset="0%" stop-color="#cdb1bf"/>
      <stop offset="100%" stop-color="#24141c"/>
    </linearGradient>
    <filter id="shadow" x="-30%" y="-30%" width="160%" height="160%">
      <feDropShadow dx="2.5" dy="3.5" stdDeviation="3" flood-color="#1a1a2e" flood-opacity="0.45"/>
    </filter>
  </defs>
  <g filter="url(#shadow)" fill="none">
    <g stroke="#120a0e" stroke-width="4.5" stroke-linecap="round" stroke-linejoin="round" transform="translate(2,2)">
    <rect x="6" y="22" width="26" height="16" rx="8"/>
    <line x1="32" y1="26" x2="42" y2="8"/>
    <line x1="32" y1="30" x2="42" y2="12"/>
    <line x1="32" y1="34" x2="42" y2="16"/>
    <line x1="32" y1="38" x2="42" y2="20"/>
    <rect x="6" y="26" width="6" height="8" rx="3"/>
    </g>
    <g stroke="#24141c" stroke-width="3" stroke-linecap="round" stroke-linejoin="round" transform="translate(1,1)">
    <rect x="6" y="22" width="26" height="16" rx="8"/>
    <line x1="32" y1="26" x2="42" y2="8"/>
    <line x1="32" y1="30" x2="42" y2="12"/>
    <line x1="32" y1="34" x2="42" y2="16"/>
    <line x1="32" y1="38" x2="42" y2="20"/>
    <rect x="6" y="26" width="6" height="8" rx="3"/>
    </g>
    <g stroke="url(#g)" stroke-width="1.5" stroke-linecap="round" stroke-linejoin="round">
    <rect x="6" y="22" width="26" height="16" rx="8"/>
    <line x1="32" y1="26" x2="42" y2="8"/>
    <line x1="32" y1="30" x2="42" y2="12"/>
    <line x1="32" y1="34" x2="42" y2="16"/>
    <line x1="32" y1="38" x2="42" y2="20"/>
    <rect x="6" y="26" width="6" height="8" rx="3"/>
    </g>
  </g>
</svg>