<svg xmlns="http://www.w3.org/2000/svg" viewBox="0 0 48 48">
  <defs>
    <linearGradient id="g" x1="0%" y1="0%" x2="100%" y2="100%">
      <stop offset="0%" stop-color="#c1d6b5"/>
      <stop offset="100%" stop-color="#415a32"/>
    </linearGradient>
    <filter id="sh" x="-30%" y="-30%" width="160%" height="160%">
      <feDropShadow dx="2.5" dy="3.5" stdDeviation="3" flood-color="#1a1a2e" flood-opacity="0.45"/>
    </filter>
  </defs>
  <g filter="url(#sh)" fill="none">
    <g stroke="#1d2916" stroke-width="4.5" stroke-linecap="round" stroke-linejoin="round" transform="translate(2,2)">
<ellipse cx="24" cy="20" rx="14" ry="10"/>
        <path d="M10 20 Q10 38 24 38 Q38 38 38 20"/>
        <circle cx="18" cy="16" r="2"/>
        <circle cx="30" cy="16" r="2"/>
        <path d="M24 24 L24 30 M20 28 L28 28"/>
    </g>
    <g stroke="#415a32" stroke-width="3" stroke-linecap="round" stroke-linejoin="round" transform="translate(1,1)">
<ellipse cx="24" cy="20" rx="14" ry="10"/>
        <path d="M10 20 Q10 38 24 38 Q38 38 38 20"/>
        <circle cx="18" cy="16" r="2"/>
        <circle cx="30" cy="16" r="2"/>
        <path d="M24 24 L24 30 M20 28 L28 28"/>
    </g>
    <g stroke="url(#g)" stroke-width="1.5" stroke-linecap="round" stroke-linejoin="round">
<ellipse cx="24" cy="20" rx="14" ry="10"/>
        <path d="M10 20 Q10 38 24 38 Q38 38 38 20"/>
        <circle cx="18" cy="16" r="2"/>
        <circle cx="30" cy="16" r="2"/>
        <path d="M24 24 L24 30 M20 28 L28 28"/>
    </g>
  </g>
</svg>