<svg xmlns="http://www.w3.org/2000/svg" viewBox="0 0 48 48">
  <defs>
    <linearGradient id="g" x1="0%" y1="0%" x2="100%" y2="100%">
      <stop offset="0%" stop-color="#a4ccd1"/>
      <stop offset="100%" stop-color="#0d2326"/>
    </linearGradient>
    <filter id="shadow" x="-30%" y="-30%" width="160%" height="160%">
      <feDropShadow dx="2.5" dy="3.5" stdDeviation="3" flood-color="#1a1a2e" flood-opacity="0.45"/>
    </filter>
  </defs>
  <g filter="url(#shadow)" fill="none">
    <g stroke="#061113" stroke-width="4.5" stroke-linecap="round" stroke-linejoin="round" transform="translate(2,2)">
    <path d="M6 14 L6 44 L42 44 L42 14 Z"/>
    <path d="M6 14 Q24 0 42 14"/>
    <path d="M24 2 L24 44"/>
    <line x1="6" y1="24" x2="42" y2="24"/>
    </g>
    <g stroke="#0d2326" stroke-width="3" stroke-linecap="round" stroke-linejoin="round" transform="translate(1,1)">
    <path d="M6 14 L6 44 L42 44 L42 14 Z"/>
    <path d="M6 14 Q24 0 42 14"/>
    <path d="M24 2 L24 44"/>
    <line x1="6" y1="24" x2="42" y2="24"/>
    </g>
    <g stroke="url(#g)" stroke-width="1.5" stroke-linecap="round" stroke-linejoin="round">
    <path d="M6 14 L6 44 L42 44 L42 14 Z"/>
    <path d="M6 14 Q24 0 42 14"/>
    <path d="M24 2 L24 44"/>
    <line x1="6" y1="24" x2="42" y2="24"/>
    </g>
  </g>
</svg>