<svg xmlns="http://www.w3.org/2000/svg" viewBox="0 0 48 48">
  <defs>
    <linearGradient id="g" x1="0%" y1="0%" x2="100%" y2="100%">
      <stop offset="0%" stop-color="#4FC3F7"/>
      <stop offset="100%" stop-color="#00305A"/>
    </linearGradient>
    <filter id="sh" x="-30%" y="-30%" width="160%" height="160%">
      <feDropShadow dx="2.5" dy="3.5" stdDeviation="3" flood-color="#1a1a2e" flood-opacity="0.45"/>
    </filter>
  </defs>
  <g filter="url(#sh)" fill="none">
    <g stroke="#00182D" stroke-width="4.5" stroke-linecap="round" stroke-linejoin="round" transform="translate(2,2)">
    <rect x="8" y="14" width="28" height="20" rx="2"/>
        <rect x="36" y="20" width="4" height="8" rx="1"/>
        <rect x="12" y="18" width="8" height="12" rx="1"/>
        <rect x="22" y="18" width="8" height="12" rx="1"/>
    </g>
    <g stroke="#00305A" stroke-width="3" stroke-linecap="round" stroke-linejoin="round" transform="translate(1,1)">
    <rect x="8" y="14" width="28" height="20" rx="2"/>
        <rect x="36" y="20" width="4" height="8" rx="1"/>
        <rect x="12" y="18" width="8" height="12" rx="1"/>
        <rect x="22" y="18" width="8" height="12" rx="1"/>
    </g>
    <g stroke="url(#g)" stroke-width="1.5" stroke-linecap="round" stroke-linejoin="round">
    <rect x="8" y="14" width="28" height="20" rx="2"/>
        <rect x="36" y="20" width="4" height="8" rx="1"/>
        <rect x="12" y="18" width="8" height="12" rx="1"/>
        <rect x="22" y="18" width="8" height="12" rx="1"/>
    </g>
  </g>
</svg>