<svg xmlns="http://www.w3.org/2000/svg" viewBox="0 0 48 48">
  <defs>
    <linearGradient id="g" x1="0%" y1="0%" x2="100%" y2="100%">
      <stop offset="0%" stop-color="#b7b2cd"/>
      <stop offset="100%" stop-color="#352e4f"/>
    </linearGradient>
    <filter id="sh" x="-30%" y="-30%" width="160%" height="160%">
      <feDropShadow dx="2.5" dy="3.5" stdDeviation="3" flood-color="#1a1a2e" flood-opacity="0.45"/>
    </filter>
  </defs>
  <g filter="url(#sh)" fill="none">
    <g stroke="#181524" stroke-width="4.5" stroke-linecap="round" stroke-linejoin="round" transform="translate(2,2)">
<ellipse cx="24" cy="26" rx="8" ry="6"/>
        <ellipse cx="24" cy="18" rx="6" ry="4"/>
        <ellipse cx="10" cy="22" rx="6" ry="3"/>
        <ellipse cx="38" cy="22" rx="6" ry="3"/>
        <line x1="18" y1="26" x2="30" y2="26"/>
        <line x1="24" y1="32" x2="24" y2="40"/>
    </g>
    <g stroke="#352e4f" stroke-width="3" stroke-linecap="round" stroke-linejoin="round" transform="translate(1,1)">
<ellipse cx="24" cy="26" rx="8" ry="6"/>
        <ellipse cx="24" cy="18" rx="6" ry="4"/>
        <ellipse cx="10" cy="22" rx="6" ry="3"/>
        <ellipse cx="38" cy="22" rx="6" ry="3"/>
        <line x1="18" y1="26" x2="30" y2="26"/>
        <line x1="24" y1="32" x2="24" y2="40"/>
    </g>
    <g stroke="url(#g)" stroke-width="1.5" stroke-linecap="round" stroke-linejoin="round">
<ellipse cx="24" cy="26" rx="8" ry="6"/>
        <ellipse cx="24" cy="18" rx="6" ry="4"/>
        <ellipse cx="10" cy="22" rx="6" ry="3"/>
        <ellipse cx="38" cy="22" rx="6" ry="3"/>
        <line x1="18" y1="26" x2="30" y2="26"/>
        <line x1="24" y1="32" x2="24" y2="40"/>
    </g>
  </g>
</svg>