<svg xmlns="http://www.w3.org/2000/svg" viewBox="0 0 48 48">
  <defs>
    <linearGradient id="g" x1="0%" y1="0%" x2="100%" y2="100%">
      <stop offset="0%" stop-color="#b0dcb1"/>
      <stop offset="100%" stop-color="#142c14"/>
    </linearGradient>
    <filter id="shadow" x="-30%" y="-30%" width="160%" height="160%">
      <feDropShadow dx="2.5" dy="3.5" stdDeviation="3" flood-color="#1a1a2e" flood-opacity="0.45"/>
    </filter>
  </defs>
  <g filter="url(#shadow)" fill="none">
    <g stroke="#0a160a" stroke-width="4.5" stroke-linecap="round" stroke-linejoin="round" transform="translate(2,2)">
    <path d="M16 8 L16 36 Q16 40 24 40 Q32 40 32 36 L32 8 Z"/>
    <path d="M32 12 L38 12 Q40 12 40 16 L40 20 Q40 24 38 24 L32 24"/>
    <ellipse cx="24" cy="8" rx="8" ry="2"/>
    </g>
    <g stroke="#142c14" stroke-width="3" stroke-linecap="round" stroke-linejoin="round" transform="translate(1,1)">
    <path d="M16 8 L16 36 Q16 40 24 40 Q32 40 32 36 L32 8 Z"/>
    <path d="M32 12 L38 12 Q40 12 40 16 L40 20 Q40 24 38 24 L32 24"/>
    <ellipse cx="24" cy="8" rx="8" ry="2"/>
    </g>
    <g stroke="url(#g)" stroke-width="1.5" stroke-linecap="round" stroke-linejoin="round">
    <path d="M16 8 L16 36 Q16 40 24 40 Q32 40 32 36 L32 8 Z"/>
    <path d="M32 12 L38 12 Q40 12 40 16 L40 20 Q40 24 38 24 L32 24"/>
    <ellipse cx="24" cy="8" rx="8" ry="2"/>
    </g>
  </g>
</svg>