<svg xmlns="http://www.w3.org/2000/svg" viewBox="0 0 48 48">
  <defs>
    <linearGradient id="g" x1="0%" y1="0%" x2="100%" y2="100%">
      <stop offset="0%" stop-color="#acb6d8"/>
      <stop offset="100%" stop-color="#11172a"/>
    </linearGradient>
    <filter id="shadow" x="-30%" y="-30%" width="160%" height="160%">
      <feDropShadow dx="2.5" dy="3.5" stdDeviation="3" flood-color="#1a1a2e" flood-opacity="0.45"/>
    </filter>
  </defs>
  <g filter="url(#shadow)" fill="none">
    <g stroke="#080b15" stroke-width="4.5" stroke-linecap="round" stroke-linejoin="round" transform="translate(2,2)">
    <ellipse cx="24" cy="26" rx="14" ry="10"/>
    <circle cx="24" cy="14" r="7"/>
    <circle cx="19" cy="12" r="2.5"/>
    <circle cx="29" cy="12" r="2.5"/>
    <path d="M16 10 L10 4 M32 10 L38 4"/>
    <line x1="24" y1="22" x2="24" y2="44"/>
    <line x1="10" y1="30" x2="4" y2="44 M38 30 L44 44"/>
    </g>
    <g stroke="#11172a" stroke-width="3" stroke-linecap="round" stroke-linejoin="round" transform="translate(1,1)">
    <ellipse cx="24" cy="26" rx="14" ry="10"/>
    <circle cx="24" cy="14" r="7"/>
    <circle cx="19" cy="12" r="2.5"/>
    <circle cx="29" cy="12" r="2.5"/>
    <path d="M16 10 L10 4 M32 10 L38 4"/>
    <line x1="24" y1="22" x2="24" y2="44"/>
    <line x1="10" y1="30" x2="4" y2="44 M38 30 L44 44"/>
    </g>
    <g stroke="url(#g)" stroke-width="1.5" stroke-linecap="round" stroke-linejoin="round">
    <ellipse cx="24" cy="26" rx="14" ry="10"/>
    <circle cx="24" cy="14" r="7"/>
    <circle cx="19" cy="12" r="2.5"/>
    <circle cx="29" cy="12" r="2.5"/>
    <path d="M16 10 L10 4 M32 10 L38 4"/>
    <line x1="24" y1="22" x2="24" y2="44"/>
    <line x1="10" y1="30" x2="4" y2="44 M38 30 L44 44"/>
    </g>
  </g>
</svg>