<svg xmlns="http://www.w3.org/2000/svg" viewBox="0 0 48 48">
  <defs>
    <linearGradient id="g" x1="0%" y1="0%" x2="100%" y2="100%">
      <stop offset="0%" stop-color="#FF8A65"/>
      <stop offset="100%" stop-color="#6D1E06"/>
    </linearGradient>
    <filter id="sh" x="-30%" y="-30%" width="160%" height="160%">
      <feDropShadow dx="2.5" dy="3.5" stdDeviation="3" flood-color="#1a1a2e" flood-opacity="0.45"/>
    </filter>
  </defs>
  <g filter="url(#sh)" fill="none">
    <g stroke="#360F03" stroke-width="4.5" stroke-linecap="round" stroke-linejoin="round" transform="translate(2,2)">
    <path d="M12 32 Q12 14 24 14 Q36 14 36 32 L40 38 L8 38 Z"/>
        <path d="M16 38 L16 40 Q16 44 24 44 Q32 44 32 40 L32 38"/>
    </g>
    <g stroke="#6D1E06" stroke-width="3" stroke-linecap="round" stroke-linejoin="round" transform="translate(1,1)">
    <path d="M12 32 Q12 14 24 14 Q36 14 36 32 L40 38 L8 38 Z"/>
        <path d="M16 38 L16 40 Q16 44 24 44 Q32 44 32 40 L32 38"/>
    </g>
    <g stroke="url(#g)" stroke-width="1.5" stroke-linecap="round" stroke-linejoin="round">
    <path d="M12 32 Q12 14 24 14 Q36 14 36 32 L40 38 L8 38 Z"/>
        <path d="M16 38 L16 40 Q16 44 24 44 Q32 44 32 40 L32 38"/>
    </g>
  </g>
</svg>