<svg xmlns="http://www.w3.org/2000/svg" viewBox="0 0 48 48">
  <defs>
    <linearGradient id="g" x1="0%" y1="0%" x2="100%" y2="100%">
      <stop offset="0%" stop-color="#a6b5db"/>
      <stop offset="100%" stop-color="#0e162b"/>
    </linearGradient>
    <filter id="shadow" x="-30%" y="-30%" width="160%" height="160%">
      <feDropShadow dx="2.5" dy="3.5" stdDeviation="3" flood-color="#1a1a2e" flood-opacity="0.45"/>
    </filter>
  </defs>
  <g filter="url(#shadow)" fill="none">
    <g stroke="#070b15" stroke-width="4.5" stroke-linecap="round" stroke-linejoin="round" transform="translate(2,2)">
    <line x1="8" y1="18" x2="40" y2="18" stroke-width="3"/>
    <line x1="24" y1="18" x2="24" y2="44"/>
    <rect x="20" y="22" width="8" height="6" rx="2"/>
    <circle cx="24" cy="8" r="5"/>
    <line x1="24" y1="13" x2="24" y2="18"/>
    </g>
    <g stroke="#0e162b" stroke-width="3" stroke-linecap="round" stroke-linejoin="round" transform="translate(1,1)">
    <line x1="8" y1="18" x2="40" y2="18" stroke-width="3"/>
    <line x1="24" y1="18" x2="24" y2="44"/>
    <rect x="20" y="22" width="8" height="6" rx="2"/>
    <circle cx="24" cy="8" r="5"/>
    <line x1="24" y1="13" x2="24" y2="18"/>
    </g>
    <g stroke="url(#g)" stroke-width="1.5" stroke-linecap="round" stroke-linejoin="round">
    <line x1="8" y1="18" x2="40" y2="18" stroke-width="3"/>
    <line x1="24" y1="18" x2="24" y2="44"/>
    <rect x="20" y="22" width="8" height="6" rx="2"/>
    <circle cx="24" cy="8" r="5"/>
    <line x1="24" y1="13" x2="24" y2="18"/>
    </g>
  </g>
</svg>