<svg xmlns="http://www.w3.org/2000/svg" viewBox="0 0 48 48">
  <defs>
    <linearGradient id="g" x1="0%" y1="0%" x2="100%" y2="100%">
      <stop offset="0%" stop-color="#ccc2a6"/>
      <stop offset="100%" stop-color="#4e4220"/>
    </linearGradient>
    <filter id="sh" x="-30%" y="-30%" width="160%" height="160%">
      <feDropShadow dx="2.5" dy="3.5" stdDeviation="3" flood-color="#1a1a2e" flood-opacity="0.45"/>
    </filter>
  </defs>
  <g filter="url(#sh)" fill="none">
    <g stroke="#231e0e" stroke-width="4.5" stroke-linecap="round" stroke-linejoin="round" transform="translate(2,2)">
<circle cx="14" cy="32" r="7"/>
        <circle cx="34" cy="32" r="7"/>
        <line x1="14" y1="32" x2="26" y2="14"/>
        <line x1="34" y1="32" x2="22" y2="14"/>
        <line x1="22" y1="14" x2="26" y2="14"/>
        <line x1="14" y1="32" x2="34" y2="32"/>
        <circle cx="24" cy="14" r="3"/>
    </g>
    <g stroke="#4e4220" stroke-width="3" stroke-linecap="round" stroke-linejoin="round" transform="translate(1,1)">
<circle cx="14" cy="32" r="7"/>
        <circle cx="34" cy="32" r="7"/>
        <line x1="14" y1="32" x2="26" y2="14"/>
        <line x1="34" y1="32" x2="22" y2="14"/>
        <line x1="22" y1="14" x2="26" y2="14"/>
        <line x1="14" y1="32" x2="34" y2="32"/>
        <circle cx="24" cy="14" r="3"/>
    </g>
    <g stroke="url(#g)" stroke-width="1.5" stroke-linecap="round" stroke-linejoin="round">
<circle cx="14" cy="32" r="7"/>
        <circle cx="34" cy="32" r="7"/>
        <line x1="14" y1="32" x2="26" y2="14"/>
        <line x1="34" y1="32" x2="22" y2="14"/>
        <line x1="22" y1="14" x2="26" y2="14"/>
        <line x1="14" y1="32" x2="34" y2="32"/>
        <circle cx="24" cy="14" r="3"/>
    </g>
  </g>
</svg>