<svg xmlns="http://www.w3.org/2000/svg" viewBox="0 0 48 48">
  <defs>
    <linearGradient id="g" x1="0%" y1="0%" x2="100%" y2="100%">
      <stop offset="0%" stop-color="#b7e5c1"/>
      <stop offset="100%" stop-color="#17311d"/>
    </linearGradient>
    <filter id="shadow" x="-30%" y="-30%" width="160%" height="160%">
      <feDropShadow dx="2.5" dy="3.5" stdDeviation="3" flood-color="#1a1a2e" flood-opacity="0.45"/>
    </filter>
  </defs>
  <g filter="url(#shadow)" fill="none">
    <g stroke="#0b180e" stroke-width="4.5" stroke-linecap="round" stroke-linejoin="round" transform="translate(2,2)">
    <path d="M10 22 Q16 16 24 22 Q32 16 38 22"/>
    <path d="M14 24 L20 24 M28 24 L34 24"/>
    <polygon points="16,42 20,28 28,28 32,42"/>
    </g>
    <g stroke="#17311d" stroke-width="3" stroke-linecap="round" stroke-linejoin="round" transform="translate(1,1)">
    <path d="M10 22 Q16 16 24 22 Q32 16 38 22"/>
    <path d="M14 24 L20 24 M28 24 L34 24"/>
    <polygon points="16,42 20,28 28,28 32,42"/>
    </g>
    <g stroke="url(#g)" stroke-width="1.5" stroke-linecap="round" stroke-linejoin="round">
    <path d="M10 22 Q16 16 24 22 Q32 16 38 22"/>
    <path d="M14 24 L20 24 M28 24 L34 24"/>
    <polygon points="16,42 20,28 28,28 32,42"/>
    </g>
  </g>
</svg>