<svg xmlns="http://www.w3.org/2000/svg" viewBox="0 0 48 48">
  <defs>
    <linearGradient id="g" x1="0%" y1="0%" x2="100%" y2="100%">
      <stop offset="0%" stop-color="#b2c6b4"/>
      <stop offset="100%" stop-color="#152016"/>
    </linearGradient>
    <filter id="shadow" x="-30%" y="-30%" width="160%" height="160%">
      <feDropShadow dx="2.5" dy="3.5" stdDeviation="3" flood-color="#1a1a2e" flood-opacity="0.45"/>
    </filter>
  </defs>
  <g filter="url(#shadow)" fill="none">
    <g stroke="#0a100b" stroke-width="4.5" stroke-linecap="round" stroke-linejoin="round" transform="translate(2,2)">
    <rect x="6" y="4" width="36" height="40" rx="2"/>
    <circle cx="36" cy="12" r="3" fill="currentColor"/>
    <circle cx="36" cy="24" r="3" fill="currentColor"/>
    <circle cx="36" cy="36" r="3" fill="currentColor"/>
    <line x1="12" y1="14" x2="30" y2="14 M12 20 L30 20 M12 26 L30 26 M12 32 L30 32"/>
    </g>
    <g stroke="#152016" stroke-width="3" stroke-linecap="round" stroke-linejoin="round" transform="translate(1,1)">
    <rect x="6" y="4" width="36" height="40" rx="2"/>
    <circle cx="36" cy="12" r="3" fill="currentColor"/>
    <circle cx="36" cy="24" r="3" fill="currentColor"/>
    <circle cx="36" cy="36" r="3" fill="currentColor"/>
    <line x1="12" y1="14" x2="30" y2="14 M12 20 L30 20 M12 26 L30 26 M12 32 L30 32"/>
    </g>
    <g stroke="url(#g)" stroke-width="1.5" stroke-linecap="round" stroke-linejoin="round">
    <rect x="6" y="4" width="36" height="40" rx="2"/>
    <circle cx="36" cy="12" r="3" fill="currentColor"/>
    <circle cx="36" cy="24" r="3" fill="currentColor"/>
    <circle cx="36" cy="36" r="3" fill="currentColor"/>
    <line x1="12" y1="14" x2="30" y2="14 M12 20 L30 20 M12 26 L30 26 M12 32 L30 32"/>
    </g>
  </g>
</svg>