<svg xmlns="http://www.w3.org/2000/svg" viewBox="0 0 48 48">
  <defs>
    <linearGradient id="g" x1="0%" y1="0%" x2="100%" y2="100%">
      <stop offset="0%" stop-color="#dbc5e3"/>
      <stop offset="100%" stop-color="#2c1f30"/>
    </linearGradient>
    <filter id="shadow" x="-30%" y="-30%" width="160%" height="160%">
      <feDropShadow dx="2.5" dy="3.5" stdDeviation="3" flood-color="#1a1a2e" flood-opacity="0.45"/>
    </filter>
  </defs>
  <g filter="url(#shadow)" fill="none">
    <g stroke="#160f18" stroke-width="4.5" stroke-linecap="round" stroke-linejoin="round" transform="translate(2,2)">
    <rect x="6" y="14" width="14" height="22" rx="4"/>
    <rect x="28" y="14" width="14" height="22" rx="4"/>
    <line x1="20" y1="20" x2="28" y2="20"/>
    <line x1="20" y1="26" x2="28" y2="26"/>
    <line x1="6" y1="18" x2="6" y2="36 M42 18 L42 36"/>
    </g>
    <g stroke="#2c1f30" stroke-width="3" stroke-linecap="round" stroke-linejoin="round" transform="translate(1,1)">
    <rect x="6" y="14" width="14" height="22" rx="4"/>
    <rect x="28" y="14" width="14" height="22" rx="4"/>
    <line x1="20" y1="20" x2="28" y2="20"/>
    <line x1="20" y1="26" x2="28" y2="26"/>
    <line x1="6" y1="18" x2="6" y2="36 M42 18 L42 36"/>
    </g>
    <g stroke="url(#g)" stroke-width="1.5" stroke-linecap="round" stroke-linejoin="round">
    <rect x="6" y="14" width="14" height="22" rx="4"/>
    <rect x="28" y="14" width="14" height="22" rx="4"/>
    <line x1="20" y1="20" x2="28" y2="20"/>
    <line x1="20" y1="26" x2="28" y2="26"/>
    <line x1="6" y1="18" x2="6" y2="36 M42 18 L42 36"/>
    </g>
  </g>
</svg>