<svg xmlns="http://www.w3.org/2000/svg" viewBox="0 0 48 48">
  <defs>
    <linearGradient id="g" x1="0%" y1="0%" x2="100%" y2="100%">
      <stop offset="0%" stop-color="#cae6dd"/>
      <stop offset="100%" stop-color="#4c6e63"/>
    </linearGradient>
    <filter id="sh" x="-30%" y="-30%" width="160%" height="160%">
      <feDropShadow dx="2.5" dy="3.5" stdDeviation="3" flood-color="#1a1a2e" flood-opacity="0.45"/>
    </filter>
  </defs>
  <g filter="url(#sh)" fill="none">
    <g stroke="#22322d" stroke-width="4.5" stroke-linecap="round" stroke-linejoin="round" transform="translate(2,2)">
<rect x="6" y="18" width="36" height="18" rx="4"/>
        <rect x="14" y="10" width="20" height="8" rx="3"/>
        <rect x="22" y="36" width="4" height="6" rx="1"/>
        <circle cx="18" cy="28" r="2"/>
        <circle cx="30" cy="28" r="2"/>
        <circle cx="24" cy="28" r="2"/>
    </g>
    <g stroke="#4c6e63" stroke-width="3" stroke-linecap="round" stroke-linejoin="round" transform="translate(1,1)">
<rect x="6" y="18" width="36" height="18" rx="4"/>
        <rect x="14" y="10" width="20" height="8" rx="3"/>
        <rect x="22" y="36" width="4" height="6" rx="1"/>
        <circle cx="18" cy="28" r="2"/>
        <circle cx="30" cy="28" r="2"/>
        <circle cx="24" cy="28" r="2"/>
    </g>
    <g stroke="url(#g)" stroke-width="1.5" stroke-linecap="round" stroke-linejoin="round">
<rect x="6" y="18" width="36" height="18" rx="4"/>
        <rect x="14" y="10" width="20" height="8" rx="3"/>
        <rect x="22" y="36" width="4" height="6" rx="1"/>
        <circle cx="18" cy="28" r="2"/>
        <circle cx="30" cy="28" r="2"/>
        <circle cx="24" cy="28" r="2"/>
    </g>
  </g>
</svg>