<svg xmlns="http://www.w3.org/2000/svg" viewBox="0 0 48 48">
  <defs>
    <linearGradient id="g" x1="0%" y1="0%" x2="100%" y2="100%">
      <stop offset="0%" stop-color="#b8c6dc"/>
      <stop offset="100%" stop-color="#18202c"/>
    </linearGradient>
    <filter id="shadow" x="-30%" y="-30%" width="160%" height="160%">
      <feDropShadow dx="2.5" dy="3.5" stdDeviation="3" flood-color="#1a1a2e" flood-opacity="0.45"/>
    </filter>
  </defs>
  <g filter="url(#shadow)" fill="none">
    <g stroke="#0c1016" stroke-width="4.5" stroke-linecap="round" stroke-linejoin="round" transform="translate(2,2)">
    <ellipse cx="24" cy="14" rx="16" ry="3"/>
    <ellipse cx="24" cy="20" rx="16" ry="3"/>
    <rect x="22" y="6" width="4" height="16" rx="2"/>
    <rect x="6" y="10" width="10" height="17" rx="3"/>
    <rect x="32" y="10" width="10" height="17" rx="3"/>
    </g>
    <g stroke="#18202c" stroke-width="3" stroke-linecap="round" stroke-linejoin="round" transform="translate(1,1)">
    <ellipse cx="24" cy="14" rx="16" ry="3"/>
    <ellipse cx="24" cy="20" rx="16" ry="3"/>
    <rect x="22" y="6" width="4" height="16" rx="2"/>
    <rect x="6" y="10" width="10" height="17" rx="3"/>
    <rect x="32" y="10" width="10" height="17" rx="3"/>
    </g>
    <g stroke="url(#g)" stroke-width="1.5" stroke-linecap="round" stroke-linejoin="round">
    <ellipse cx="24" cy="14" rx="16" ry="3"/>
    <ellipse cx="24" cy="20" rx="16" ry="3"/>
    <rect x="22" y="6" width="4" height="16" rx="2"/>
    <rect x="6" y="10" width="10" height="17" rx="3"/>
    <rect x="32" y="10" width="10" height="17" rx="3"/>
    </g>
  </g>
</svg>