<svg xmlns="http://www.w3.org/2000/svg" viewBox="0 0 48 48">
  <defs>
    <linearGradient id="g" x1="0%" y1="0%" x2="100%" y2="100%">
      <stop offset="0%" stop-color="#c3beb1"/>
      <stop offset="100%" stop-color="#1e1c14"/>
    </linearGradient>
    <filter id="shadow" x="-30%" y="-30%" width="160%" height="160%">
      <feDropShadow dx="2.5" dy="3.5" stdDeviation="3" flood-color="#1a1a2e" flood-opacity="0.45"/>
    </filter>
  </defs>
  <g filter="url(#shadow)" fill="none">
    <g stroke="#0f0e0a" stroke-width="4.5" stroke-linecap="round" stroke-linejoin="round" transform="translate(2,2)">
    <ellipse cx="24" cy="24" rx="16" ry="10"/>
    <ellipse cx="24" cy="16" rx="8" ry="6"/>
    <circle cx="19" cy="14" r="2"/>
    <circle cx="29" cy="14" r="2"/>
    <path d="M10 8 Q14 4 18 8 M30 8 Q34 4 38 8"/>
    <line x1="24" y1="22" x2="24" y2="30"/>
    </g>
    <g stroke="#1e1c14" stroke-width="3" stroke-linecap="round" stroke-linejoin="round" transform="translate(1,1)">
    <ellipse cx="24" cy="24" rx="16" ry="10"/>
    <ellipse cx="24" cy="16" rx="8" ry="6"/>
    <circle cx="19" cy="14" r="2"/>
    <circle cx="29" cy="14" r="2"/>
    <path d="M10 8 Q14 4 18 8 M30 8 Q34 4 38 8"/>
    <line x1="24" y1="22" x2="24" y2="30"/>
    </g>
    <g stroke="url(#g)" stroke-width="1.5" stroke-linecap="round" stroke-linejoin="round">
    <ellipse cx="24" cy="24" rx="16" ry="10"/>
    <ellipse cx="24" cy="16" rx="8" ry="6"/>
    <circle cx="19" cy="14" r="2"/>
    <circle cx="29" cy="14" r="2"/>
    <path d="M10 8 Q14 4 18 8 M30 8 Q34 4 38 8"/>
    <line x1="24" y1="22" x2="24" y2="30"/>
    </g>
  </g>
</svg>