<svg xmlns="http://www.w3.org/2000/svg" viewBox="0 0 48 48">
  <defs>
    <linearGradient id="g" x1="0%" y1="0%" x2="100%" y2="100%">
      <stop offset="0%" stop-color="#e2b8ae"/>
      <stop offset="100%" stop-color="#2f1813"/>
    </linearGradient>
    <filter id="shadow" x="-30%" y="-30%" width="160%" height="160%">
      <feDropShadow dx="2.5" dy="3.5" stdDeviation="3" flood-color="#1a1a2e" flood-opacity="0.45"/>
    </filter>
  </defs>
  <g filter="url(#shadow)" fill="none">
    <g stroke="#170c09" stroke-width="4.5" stroke-linecap="round" stroke-linejoin="round" transform="translate(2,2)">
    <circle cx="24" cy="24" r="14"/>
    <ellipse cx="24" cy="24" rx="14" ry="5"/>
    <ellipse cx="24" cy="24" rx="14" ry="3" transform="rotate(60 24 24)"/>
    <circle cx="24" cy="24" r="4" fill="currentColor"/>
    <ellipse cx="24" cy="24" rx="14" ry="2" transform="rotate(-60 24 24)"/>
    </g>
    <g stroke="#2f1813" stroke-width="3" stroke-linecap="round" stroke-linejoin="round" transform="translate(1,1)">
    <circle cx="24" cy="24" r="14"/>
    <ellipse cx="24" cy="24" rx="14" ry="5"/>
    <ellipse cx="24" cy="24" rx="14" ry="3" transform="rotate(60 24 24)"/>
    <circle cx="24" cy="24" r="4" fill="currentColor"/>
    <ellipse cx="24" cy="24" rx="14" ry="2" transform="rotate(-60 24 24)"/>
    </g>
    <g stroke="url(#g)" stroke-width="1.5" stroke-linecap="round" stroke-linejoin="round">
    <circle cx="24" cy="24" r="14"/>
    <ellipse cx="24" cy="24" rx="14" ry="5"/>
    <ellipse cx="24" cy="24" rx="14" ry="3" transform="rotate(60 24 24)"/>
    <circle cx="24" cy="24" r="4" fill="currentColor"/>
    <ellipse cx="24" cy="24" rx="14" ry="2" transform="rotate(-60 24 24)"/>
    </g>
  </g>
</svg>