<svg xmlns="http://www.w3.org/2000/svg" viewBox="0 0 48 48">
  <defs>
    <linearGradient id="g" x1="0%" y1="0%" x2="100%" y2="100%">
      <stop offset="0%" stop-color="#dcacd6"/>
      <stop offset="100%" stop-color="#61275a"/>
    </linearGradient>
    <filter id="sh" x="-30%" y="-30%" width="160%" height="160%">
      <feDropShadow dx="2.5" dy="3.5" stdDeviation="3" flood-color="#1a1a2e" flood-opacity="0.45"/>
    </filter>
  </defs>
  <g filter="url(#sh)" fill="none">
    <g stroke="#2c1129" stroke-width="4.5" stroke-linecap="round" stroke-linejoin="round" transform="translate(2,2)">
<rect x="8" y="14" width="32" height="24" rx="3"/><line x1="8" y1="22" x2="40" y2="22"/><line x1="8" y1="30" x2="40" y2="30"/><line x1="14" y1="14" x2="14" y2="38"/><line x1="34" y1="14" x2="34" y2="38"/>
    </g>
    <g stroke="#61275a" stroke-width="3" stroke-linecap="round" stroke-linejoin="round" transform="translate(1,1)">
<rect x="8" y="14" width="32" height="24" rx="3"/><line x1="8" y1="22" x2="40" y2="22"/><line x1="8" y1="30" x2="40" y2="30"/><line x1="14" y1="14" x2="14" y2="38"/><line x1="34" y1="14" x2="34" y2="38"/>
    </g>
    <g stroke="url(#g)" stroke-width="1.5" stroke-linecap="round" stroke-linejoin="round">
<rect x="8" y="14" width="32" height="24" rx="3"/><line x1="8" y1="22" x2="40" y2="22"/><line x1="8" y1="30" x2="40" y2="30"/><line x1="14" y1="14" x2="14" y2="38"/><line x1="34" y1="14" x2="34" y2="38"/>
    </g>
  </g>
</svg>