<svg xmlns="http://www.w3.org/2000/svg" viewBox="0 0 48 48">
  <defs>
    <linearGradient id="g" x1="0%" y1="0%" x2="100%" y2="100%">
      <stop offset="0%" stop-color="#d5d7be"/>
      <stop offset="100%" stop-color="#282a1b"/>
    </linearGradient>
    <filter id="shadow" x="-30%" y="-30%" width="160%" height="160%">
      <feDropShadow dx="2.5" dy="3.5" stdDeviation="3" flood-color="#1a1a2e" flood-opacity="0.45"/>
    </filter>
  </defs>
  <g filter="url(#shadow)" fill="none">
    <g stroke="#14150d" stroke-width="4.5" stroke-linecap="round" stroke-linejoin="round" transform="translate(2,2)">
    <rect x="4" y="12" width="40" height="28" rx="4"/>
    <rect x="4" y="12" width="40" height="8" rx="2"/>
    <line x1="8" y1="24" x2="40" y2="24 M10 30 L38 30 M12 36 L36 36"/>
    </g>
    <g stroke="#282a1b" stroke-width="3" stroke-linecap="round" stroke-linejoin="round" transform="translate(1,1)">
    <rect x="4" y="12" width="40" height="28" rx="4"/>
    <rect x="4" y="12" width="40" height="8" rx="2"/>
    <line x1="8" y1="24" x2="40" y2="24 M10 30 L38 30 M12 36 L36 36"/>
    </g>
    <g stroke="url(#g)" stroke-width="1.5" stroke-linecap="round" stroke-linejoin="round">
    <rect x="4" y="12" width="40" height="28" rx="4"/>
    <rect x="4" y="12" width="40" height="8" rx="2"/>
    <line x1="8" y1="24" x2="40" y2="24 M10 30 L38 30 M12 36 L36 36"/>
    </g>
  </g>
</svg>