<svg xmlns="http://www.w3.org/2000/svg" viewBox="0 0 48 48">
  <defs>
    <linearGradient id="g" x1="0%" y1="0%" x2="100%" y2="100%">
      <stop offset="0%" stop-color="#cfc8b3"/>
      <stop offset="100%" stop-color="#252116"/>
    </linearGradient>
    <filter id="shadow" x="-30%" y="-30%" width="160%" height="160%">
      <feDropShadow dx="2.5" dy="3.5" stdDeviation="3" flood-color="#1a1a2e" flood-opacity="0.45"/>
    </filter>
  </defs>
  <g filter="url(#shadow)" fill="none">
    <g stroke="#12100b" stroke-width="4.5" stroke-linecap="round" stroke-linejoin="round" transform="translate(2,2)">
    <rect x="6" y="8" width="36" height="34" rx="3"/>
    <line x1="6" y1="18" x2="42" y2="18 M6 28 L42 28"/>
    <line x1="16" y1="8" x2="16" y2="42 M32 8 L32 42"/>
    <circle cx="24" cy="23" r="3" fill="currentColor"/>
    </g>
    <g stroke="#252116" stroke-width="3" stroke-linecap="round" stroke-linejoin="round" transform="translate(1,1)">
    <rect x="6" y="8" width="36" height="34" rx="3"/>
    <line x1="6" y1="18" x2="42" y2="18 M6 28 L42 28"/>
    <line x1="16" y1="8" x2="16" y2="42 M32 8 L32 42"/>
    <circle cx="24" cy="23" r="3" fill="currentColor"/>
    </g>
    <g stroke="url(#g)" stroke-width="1.5" stroke-linecap="round" stroke-linejoin="round">
    <rect x="6" y="8" width="36" height="34" rx="3"/>
    <line x1="6" y1="18" x2="42" y2="18 M6 28 L42 28"/>
    <line x1="16" y1="8" x2="16" y2="42 M32 8 L32 42"/>
    <circle cx="24" cy="23" r="3" fill="currentColor"/>
    </g>
  </g>
</svg>