<svg xmlns="http://www.w3.org/2000/svg" viewBox="0 0 48 48">
  <defs>
    <linearGradient id="g" x1="0%" y1="0%" x2="100%" y2="100%">
      <stop offset="0%" stop-color="#acc3d8"/>
      <stop offset="100%" stop-color="#111e2a"/>
    </linearGradient>
    <filter id="shadow" x="-30%" y="-30%" width="160%" height="160%">
      <feDropShadow dx="2.5" dy="3.5" stdDeviation="3" flood-color="#1a1a2e" flood-opacity="0.45"/>
    </filter>
  </defs>
  <g filter="url(#shadow)" fill="none">
    <g stroke="#080f15" stroke-width="4.5" stroke-linecap="round" stroke-linejoin="round" transform="translate(2,2)">
    <circle cx="20" cy="22" r="7"/>
    <circle cx="28" cy="22" r="7"/>
    <circle cx="24" cy="30" r="6"/>
    <path d="M20 15 Q20 10 18 8 M28 15 Q28 10 30 8 M24 24 Q24 18 22 16"/>
    </g>
    <g stroke="#111e2a" stroke-width="3" stroke-linecap="round" stroke-linejoin="round" transform="translate(1,1)">
    <circle cx="20" cy="22" r="7"/>
    <circle cx="28" cy="22" r="7"/>
    <circle cx="24" cy="30" r="6"/>
    <path d="M20 15 Q20 10 18 8 M28 15 Q28 10 30 8 M24 24 Q24 18 22 16"/>
    </g>
    <g stroke="url(#g)" stroke-width="1.5" stroke-linecap="round" stroke-linejoin="round">
    <circle cx="20" cy="22" r="7"/>
    <circle cx="28" cy="22" r="7"/>
    <circle cx="24" cy="30" r="6"/>
    <path d="M20 15 Q20 10 18 8 M28 15 Q28 10 30 8 M24 24 Q24 18 22 16"/>
    </g>
  </g>
</svg>