<svg xmlns="http://www.w3.org/2000/svg" viewBox="0 0 48 48">
  <defs>
    <linearGradient id="g" x1="0%" y1="0%" x2="100%" y2="100%">
      <stop offset="0%" stop-color="#b7cad8"/>
      <stop offset="100%" stop-color="#18222a"/>
    </linearGradient>
    <filter id="shadow" x="-30%" y="-30%" width="160%" height="160%">
      <feDropShadow dx="2.5" dy="3.5" stdDeviation="3" flood-color="#1a1a2e" flood-opacity="0.45"/>
    </filter>
  </defs>
  <g filter="url(#shadow)" fill="none">
    <g stroke="#0c1115" stroke-width="4.5" stroke-linecap="round" stroke-linejoin="round" transform="translate(2,2)">
    <line x1="8" y1="40" x2="32" y2="10"/>
    <ellipse cx="34" cy="8" rx="5" ry="3" transform="rotate(30 34 8)"/>
    <rect x="6" y="40" width="8" height="6" rx="2"/>
    <line x1="6" y1="44" x2="14" y2="44"/>
    </g>
    <g stroke="#18222a" stroke-width="3" stroke-linecap="round" stroke-linejoin="round" transform="translate(1,1)">
    <line x1="8" y1="40" x2="32" y2="10"/>
    <ellipse cx="34" cy="8" rx="5" ry="3" transform="rotate(30 34 8)"/>
    <rect x="6" y="40" width="8" height="6" rx="2"/>
    <line x1="6" y1="44" x2="14" y2="44"/>
    </g>
    <g stroke="url(#g)" stroke-width="1.5" stroke-linecap="round" stroke-linejoin="round">
    <line x1="8" y1="40" x2="32" y2="10"/>
    <ellipse cx="34" cy="8" rx="5" ry="3" transform="rotate(30 34 8)"/>
    <rect x="6" y="40" width="8" height="6" rx="2"/>
    <line x1="6" y1="44" x2="14" y2="44"/>
    </g>
  </g>
</svg>