<svg xmlns="http://www.w3.org/2000/svg" viewBox="0 0 48 48">
  <defs>
    <linearGradient id="g" x1="0%" y1="0%" x2="100%" y2="100%">
      <stop offset="0%" stop-color="#bdafc6"/>
      <stop offset="100%" stop-color="#1b1320"/>
    </linearGradient>
    <filter id="shadow" x="-30%" y="-30%" width="160%" height="160%">
      <feDropShadow dx="2.5" dy="3.5" stdDeviation="3" flood-color="#1a1a2e" flood-opacity="0.45"/>
    </filter>
  </defs>
  <g filter="url(#shadow)" fill="none">
    <g stroke="#0d0910" stroke-width="4.5" stroke-linecap="round" stroke-linejoin="round" transform="translate(2,2)">
    <path d="M4 26 Q4 20 12 20 L36 20 Q44 20 44 26 L44 34 Q44 40 36 40 L12 40 Q4 40 4 34 Z"/>
    <line x1="4" y1="30" x2="44" y2="30 M4 36 L44 36"/>
    <circle cx="12" cy="44" r="3"/>
    <circle cx="24" cy="44" r="3"/>
    <circle cx="36" cy="44" r="3"/>
    </g>
    <g stroke="#1b1320" stroke-width="3" stroke-linecap="round" stroke-linejoin="round" transform="translate(1,1)">
    <path d="M4 26 Q4 20 12 20 L36 20 Q44 20 44 26 L44 34 Q44 40 36 40 L12 40 Q4 40 4 34 Z"/>
    <line x1="4" y1="30" x2="44" y2="30 M4 36 L44 36"/>
    <circle cx="12" cy="44" r="3"/>
    <circle cx="24" cy="44" r="3"/>
    <circle cx="36" cy="44" r="3"/>
    </g>
    <g stroke="url(#g)" stroke-width="1.5" stroke-linecap="round" stroke-linejoin="round">
    <path d="M4 26 Q4 20 12 20 L36 20 Q44 20 44 26 L44 34 Q44 40 36 40 L12 40 Q4 40 4 34 Z"/>
    <line x1="4" y1="30" x2="44" y2="30 M4 36 L44 36"/>
    <circle cx="12" cy="44" r="3"/>
    <circle cx="24" cy="44" r="3"/>
    <circle cx="36" cy="44" r="3"/>
    </g>
  </g>
</svg>