<svg xmlns="http://www.w3.org/2000/svg" viewBox="0 0 48 48">
  <defs>
    <linearGradient id="g" x1="0%" y1="0%" x2="100%" y2="100%">
      <stop offset="0%" stop-color="#aeced1"/>
      <stop offset="100%" stop-color="#132526"/>
    </linearGradient>
    <filter id="shadow" x="-30%" y="-30%" width="160%" height="160%">
      <feDropShadow dx="2.5" dy="3.5" stdDeviation="3" flood-color="#1a1a2e" flood-opacity="0.45"/>
    </filter>
  </defs>
  <g filter="url(#shadow)" fill="none">
    <g stroke="#091213" stroke-width="4.5" stroke-linecap="round" stroke-linejoin="round" transform="translate(2,2)">
    <path d="M8 40 L20 24 L24 24 L24 28 L18 40" stroke-width="3"/>
    <path d="M40 40 L28 24 L24 24 L24 28 L30 40" stroke-width="3"/>
    <line x1="24" y1="24" x2="24" y2="8"/>
    <circle cx="24" cy="8" r="4"/>
    <circle cx="24" cy="8" r="1.5" fill="currentColor"/>
    </g>
    <g stroke="#132526" stroke-width="3" stroke-linecap="round" stroke-linejoin="round" transform="translate(1,1)">
    <path d="M8 40 L20 24 L24 24 L24 28 L18 40" stroke-width="3"/>
    <path d="M40 40 L28 24 L24 24 L24 28 L30 40" stroke-width="3"/>
    <line x1="24" y1="24" x2="24" y2="8"/>
    <circle cx="24" cy="8" r="4"/>
    <circle cx="24" cy="8" r="1.5" fill="currentColor"/>
    </g>
    <g stroke="url(#g)" stroke-width="1.5" stroke-linecap="round" stroke-linejoin="round">
    <path d="M8 40 L20 24 L24 24 L24 28 L18 40" stroke-width="3"/>
    <path d="M40 40 L28 24 L24 24 L24 28 L30 40" stroke-width="3"/>
    <line x1="24" y1="24" x2="24" y2="8"/>
    <circle cx="24" cy="8" r="4"/>
    <circle cx="24" cy="8" r="1.5" fill="currentColor"/>
    </g>
  </g>
</svg>