<svg xmlns="http://www.w3.org/2000/svg" viewBox="0 0 48 48">
  <defs>
    <linearGradient id="g" x1="0%" y1="0%" x2="100%" y2="100%">
      <stop offset="0%" stop-color="#b2d7b4"/>
      <stop offset="100%" stop-color="#152a16"/>
    </linearGradient>
    <filter id="shadow" x="-30%" y="-30%" width="160%" height="160%">
      <feDropShadow dx="2.5" dy="3.5" stdDeviation="3" flood-color="#1a1a2e" flood-opacity="0.45"/>
    </filter>
  </defs>
  <g filter="url(#shadow)" fill="none">
    <g stroke="#0a150b" stroke-width="4.5" stroke-linecap="round" stroke-linejoin="round" transform="translate(2,2)">
    <circle cx="24" cy="24" r="14"/>
    <circle cx="24" cy="24" r="6"/>
    <polygon points="24,10 20,18 28,18"/>
    <line x1="24" y1="6" x2="24" y2="4"/>
    </g>
    <g stroke="#152a16" stroke-width="3" stroke-linecap="round" stroke-linejoin="round" transform="translate(1,1)">
    <circle cx="24" cy="24" r="14"/>
    <circle cx="24" cy="24" r="6"/>
    <polygon points="24,10 20,18 28,18"/>
    <line x1="24" y1="6" x2="24" y2="4"/>
    </g>
    <g stroke="url(#g)" stroke-width="1.5" stroke-linecap="round" stroke-linejoin="round">
    <circle cx="24" cy="24" r="14"/>
    <circle cx="24" cy="24" r="6"/>
    <polygon points="24,10 20,18 28,18"/>
    <line x1="24" y1="6" x2="24" y2="4"/>
    </g>
  </g>
</svg>