<svg xmlns="http://www.w3.org/2000/svg" viewBox="0 0 48 48">
  <defs>
    <linearGradient id="g" x1="0%" y1="0%" x2="100%" y2="100%">
      <stop offset="0%" stop-color="#69F0AE"/>
      <stop offset="100%" stop-color="#00753C"/>
    </linearGradient>
    <filter id="sh" x="-30%" y="-30%" width="160%" height="160%">
      <feDropShadow dx="2.5" dy="3.5" stdDeviation="3" flood-color="#1a1a2e" flood-opacity="0.45"/>
    </filter>
  </defs>
  <g filter="url(#sh)" fill="none">
    <g stroke="#003A1E" stroke-width="4.5" stroke-linecap="round" stroke-linejoin="round" transform="translate(2,2)">
    <rect x="14" y="10" width="20" height="28" rx="5"/>
        <circle cx="14" cy="10" r="6" fill="#607D8B"/>
        <circle cx="14" cy="38" r="6" fill="#607D8B"/>
        <circle cx="34" cy="10" r="6" fill="#607D8B"/>
        <circle cx="34" cy="38" r="6" fill="#607D8B"/>
    </g>
    <g stroke="#00753C" stroke-width="3" stroke-linecap="round" stroke-linejoin="round" transform="translate(1,1)">
    <rect x="14" y="10" width="20" height="28" rx="5"/>
        <circle cx="14" cy="10" r="6" fill="#607D8B"/>
        <circle cx="14" cy="38" r="6" fill="#607D8B"/>
        <circle cx="34" cy="10" r="6" fill="#607D8B"/>
        <circle cx="34" cy="38" r="6" fill="#607D8B"/>
    </g>
    <g stroke="url(#g)" stroke-width="1.5" stroke-linecap="round" stroke-linejoin="round">
    <rect x="14" y="10" width="20" height="28" rx="5"/>
        <circle cx="14" cy="10" r="6" fill="#607D8B"/>
        <circle cx="14" cy="38" r="6" fill="#607D8B"/>
        <circle cx="34" cy="10" r="6" fill="#607D8B"/>
        <circle cx="34" cy="38" r="6" fill="#607D8B"/>
    </g>
  </g>
</svg>