<svg xmlns="http://www.w3.org/2000/svg" viewBox="0 0 48 48">
  <defs>
    <linearGradient id="g" x1="0%" y1="0%" x2="100%" y2="100%">
      <stop offset="0%" stop-color="#bfdec8"/>
      <stop offset="100%" stop-color="#1c2d21"/>
    </linearGradient>
    <filter id="shadow" x="-30%" y="-30%" width="160%" height="160%">
      <feDropShadow dx="2.5" dy="3.5" stdDeviation="3" flood-color="#1a1a2e" flood-opacity="0.45"/>
    </filter>
  </defs>
  <g filter="url(#shadow)" fill="none">
    <g stroke="#0e1610" stroke-width="4.5" stroke-linecap="round" stroke-linejoin="round" transform="translate(2,2)">
    <polygon points="24,6 14,24 20,24 16,40 32,40 28,24 34,24"/>
    <path d="M10 40 L38 40"/>
    <path d="M14 44 L34 44"/>
    </g>
    <g stroke="#1c2d21" stroke-width="3" stroke-linecap="round" stroke-linejoin="round" transform="translate(1,1)">
    <polygon points="24,6 14,24 20,24 16,40 32,40 28,24 34,24"/>
    <path d="M10 40 L38 40"/>
    <path d="M14 44 L34 44"/>
    </g>
    <g stroke="url(#g)" stroke-width="1.5" stroke-linecap="round" stroke-linejoin="round">
    <polygon points="24,6 14,24 20,24 16,40 32,40 28,24 34,24"/>
    <path d="M10 40 L38 40"/>
    <path d="M14 44 L34 44"/>
    </g>
  </g>
</svg>