<svg xmlns="http://www.w3.org/2000/svg" viewBox="0 0 48 48">
  <defs>
    <linearGradient id="g" x1="0%" y1="0%" x2="100%" y2="100%">
      <stop offset="0%" stop-color="#d7bab6"/>
      <stop offset="100%" stop-color="#5c3833"/>
    </linearGradient>
    <filter id="sh" x="-30%" y="-30%" width="160%" height="160%">
      <feDropShadow dx="2.5" dy="3.5" stdDeviation="3" flood-color="#1a1a2e" flood-opacity="0.45"/>
    </filter>
  </defs>
  <g filter="url(#sh)" fill="none">
    <g stroke="#2a1917" stroke-width="4.5" stroke-linecap="round" stroke-linejoin="round" transform="translate(2,2)">
<rect x="8" y="6" width="32" height="36" rx="2"/><line x1="8" y1="14" x2="40" y2="14"/><line x1="8" y1="24" x2="40" y2="24"/><line x1="8" y1="34" x2="40" y2="34"/><rect x="12" y="8" width="8" height="4" rx="1"/><rect x="24" y="8" width="12" height="4" rx="1"/><rect x="12" y="18" width="16" height="4" rx="1"/><rect x="12" y="28" width="10" height="4" rx="1"/><rect x="26" y="28" width="10" height="4" rx="1"/>
    </g>
    <g stroke="#5c3833" stroke-width="3" stroke-linecap="round" stroke-linejoin="round" transform="translate(1,1)">
<rect x="8" y="6" width="32" height="36" rx="2"/><line x1="8" y1="14" x2="40" y2="14"/><line x1="8" y1="24" x2="40" y2="24"/><line x1="8" y1="34" x2="40" y2="34"/><rect x="12" y="8" width="8" height="4" rx="1"/><rect x="24" y="8" width="12" height="4" rx="1"/><rect x="12" y="18" width="16" height="4" rx="1"/><rect x="12" y="28" width="10" height="4" rx="1"/><rect x="26" y="28" width="10" height="4" rx="1"/>
    </g>
    <g stroke="url(#g)" stroke-width="1.5" stroke-linecap="round" stroke-linejoin="round">
<rect x="8" y="6" width="32" height="36" rx="2"/><line x1="8" y1="14" x2="40" y2="14"/><line x1="8" y1="24" x2="40" y2="24"/><line x1="8" y1="34" x2="40" y2="34"/><rect x="12" y="8" width="8" height="4" rx="1"/><rect x="24" y="8" width="12" height="4" rx="1"/><rect x="12" y="18" width="16" height="4" rx="1"/><rect x="12" y="28" width="10" height="4" rx="1"/><rect x="26" y="28" width="10" height="4" rx="1"/>
    </g>
  </g>
</svg>