<svg xmlns="http://www.w3.org/2000/svg" viewBox="0 0 48 48">
  <defs>
    <linearGradient id="g" x1="0%" y1="0%" x2="100%" y2="100%">
      <stop offset="0%" stop-color="#e7c3dc"/>
      <stop offset="100%" stop-color="#321e2c"/>
    </linearGradient>
    <filter id="shadow" x="-30%" y="-30%" width="160%" height="160%">
      <feDropShadow dx="2.5" dy="3.5" stdDeviation="3" flood-color="#1a1a2e" flood-opacity="0.45"/>
    </filter>
  </defs>
  <g filter="url(#shadow)" fill="none">
    <g stroke="#190f16" stroke-width="4.5" stroke-linecap="round" stroke-linejoin="round" transform="translate(2,2)">
    <path d="M8 8 L8 40 Q8 44 14 44 L34 44 Q38 44 38 40 L38 20 Q38 8 30 8 Z"/>
    <line x1="8" y1="20" x2="38" y2="20 M8 32 L38 32"/>
    <line x1="8" y1="8" x2="8" y2="20"/>
    </g>
    <g stroke="#321e2c" stroke-width="3" stroke-linecap="round" stroke-linejoin="round" transform="translate(1,1)">
    <path d="M8 8 L8 40 Q8 44 14 44 L34 44 Q38 44 38 40 L38 20 Q38 8 30 8 Z"/>
    <line x1="8" y1="20" x2="38" y2="20 M8 32 L38 32"/>
    <line x1="8" y1="8" x2="8" y2="20"/>
    </g>
    <g stroke="url(#g)" stroke-width="1.5" stroke-linecap="round" stroke-linejoin="round">
    <path d="M8 8 L8 40 Q8 44 14 44 L34 44 Q38 44 38 40 L38 20 Q38 8 30 8 Z"/>
    <line x1="8" y1="20" x2="38" y2="20 M8 32 L38 32"/>
    <line x1="8" y1="8" x2="8" y2="20"/>
    </g>
  </g>
</svg>