<svg xmlns="http://www.w3.org/2000/svg" viewBox="0 0 48 48">
  <defs>
    <linearGradient id="g" x1="0%" y1="0%" x2="100%" y2="100%">
      <stop offset="0%" stop-color="#b7d6b5"/>
      <stop offset="100%" stop-color="#182916"/>
    </linearGradient>
    <filter id="shadow" x="-30%" y="-30%" width="160%" height="160%">
      <feDropShadow dx="2.5" dy="3.5" stdDeviation="3" flood-color="#1a1a2e" flood-opacity="0.45"/>
    </filter>
  </defs>
  <g filter="url(#shadow)" fill="none">
    <g stroke="#0c140b" stroke-width="4.5" stroke-linecap="round" stroke-linejoin="round" transform="translate(2,2)">
    <path d="M18 10 L18 4 Q18 2 24 2 Q30 2 30 4 L30 10 L30 40 L18 40 Z"/>
    <ellipse cx="24" cy="40" rx="6" ry="3"/>
    <line x1="18" y1="16" x2="30" y2="16"/>
    </g>
    <g stroke="#182916" stroke-width="3" stroke-linecap="round" stroke-linejoin="round" transform="translate(1,1)">
    <path d="M18 10 L18 4 Q18 2 24 2 Q30 2 30 4 L30 10 L30 40 L18 40 Z"/>
    <ellipse cx="24" cy="40" rx="6" ry="3"/>
    <line x1="18" y1="16" x2="30" y2="16"/>
    </g>
    <g stroke="url(#g)" stroke-width="1.5" stroke-linecap="round" stroke-linejoin="round">
    <path d="M18 10 L18 4 Q18 2 24 2 Q30 2 30 4 L30 10 L30 40 L18 40 Z"/>
    <ellipse cx="24" cy="40" rx="6" ry="3"/>
    <line x1="18" y1="16" x2="30" y2="16"/>
    </g>
  </g>
</svg>