<svg xmlns="http://www.w3.org/2000/svg" viewBox="0 0 48 48">
  <defs>
    <linearGradient id="g" x1="0%" y1="0%" x2="100%" y2="100%">
      <stop offset="0%" stop-color="#c3d3b2"/>
      <stop offset="100%" stop-color="#43562e"/>
    </linearGradient>
    <filter id="sh" x="-30%" y="-30%" width="160%" height="160%">
      <feDropShadow dx="2.5" dy="3.5" stdDeviation="3" flood-color="#1a1a2e" flood-opacity="0.45"/>
    </filter>
  </defs>
  <g filter="url(#sh)" fill="none">
    <g stroke="#1e2715" stroke-width="4.5" stroke-linecap="round" stroke-linejoin="round" transform="translate(2,2)">
<path d="M18 14 Q18 6 24 6 Q30 6 30 14 L30 28 Q30 36 24 36 Q18 36 18 28 Z"/>
        <circle cx="24" cy="18" r="2.5"/>
    </g>
    <g stroke="#43562e" stroke-width="3" stroke-linecap="round" stroke-linejoin="round" transform="translate(1,1)">
<path d="M18 14 Q18 6 24 6 Q30 6 30 14 L30 28 Q30 36 24 36 Q18 36 18 28 Z"/>
        <circle cx="24" cy="18" r="2.5"/>
    </g>
    <g stroke="url(#g)" stroke-width="1.5" stroke-linecap="round" stroke-linejoin="round">
<path d="M18 14 Q18 6 24 6 Q30 6 30 14 L30 28 Q30 36 24 36 Q18 36 18 28 Z"/>
        <circle cx="24" cy="18" r="2.5"/>
    </g>
  </g>
</svg>