<svg xmlns="http://www.w3.org/2000/svg" viewBox="0 0 48 48">
  <defs>
    <linearGradient id="g" x1="0%" y1="0%" x2="100%" y2="100%">
      <stop offset="0%" stop-color="#c9a8d2"/>
      <stop offset="100%" stop-color="#220f26"/>
    </linearGradient>
    <filter id="shadow" x="-30%" y="-30%" width="160%" height="160%">
      <feDropShadow dx="2.5" dy="3.5" stdDeviation="3" flood-color="#1a1a2e" flood-opacity="0.45"/>
    </filter>
  </defs>
  <g filter="url(#shadow)" fill="none">
    <g stroke="#110713" stroke-width="4.5" stroke-linecap="round" stroke-linejoin="round" transform="translate(2,2)">
    <ellipse cx="24" cy="28" rx="16" ry="6"/>
    <path d="M8 28 L12 38 Q12 42 24 42 Q36 42 36 38 L40 28"/>
    <ellipse cx="24" cy="28" rx="12" ry="4"/>
    </g>
    <g stroke="#220f26" stroke-width="3" stroke-linecap="round" stroke-linejoin="round" transform="translate(1,1)">
    <ellipse cx="24" cy="28" rx="16" ry="6"/>
    <path d="M8 28 L12 38 Q12 42 24 42 Q36 42 36 38 L40 28"/>
    <ellipse cx="24" cy="28" rx="12" ry="4"/>
    </g>
    <g stroke="url(#g)" stroke-width="1.5" stroke-linecap="round" stroke-linejoin="round">
    <ellipse cx="24" cy="28" rx="16" ry="6"/>
    <path d="M8 28 L12 38 Q12 42 24 42 Q36 42 36 38 L40 28"/>
    <ellipse cx="24" cy="28" rx="12" ry="4"/>
    </g>
  </g>
</svg>