<svg xmlns="http://www.w3.org/2000/svg" viewBox="0 0 48 48">
  <defs>
    <linearGradient id="g" x1="0%" y1="0%" x2="100%" y2="100%">
      <stop offset="0%" stop-color="#debbda"/>
      <stop offset="100%" stop-color="#2d1a2b"/>
    </linearGradient>
    <filter id="shadow" x="-30%" y="-30%" width="160%" height="160%">
      <feDropShadow dx="2.5" dy="3.5" stdDeviation="3" flood-color="#1a1a2e" flood-opacity="0.45"/>
    </filter>
  </defs>
  <g filter="url(#shadow)" fill="none">
    <g stroke="#160d15" stroke-width="4.5" stroke-linecap="round" stroke-linejoin="round" transform="translate(2,2)">
    <ellipse cx="24" cy="24" rx="10" ry="14" fill="none" stroke-width="4"/>
    <circle cx="24" cy="12" r="2" fill="currentColor"/>
    <circle cx="18" cy="18" r="2" fill="currentColor"/>
    <circle cx="30" cy="18" r="2" fill="currentColor"/>
    <circle cx="18" cy="30" r="2" fill="currentColor"/>
    <circle cx="30" cy="30" r="2" fill="currentColor"/>
    </g>
    <g stroke="#2d1a2b" stroke-width="3" stroke-linecap="round" stroke-linejoin="round" transform="translate(1,1)">
    <ellipse cx="24" cy="24" rx="10" ry="14" fill="none" stroke-width="4"/>
    <circle cx="24" cy="12" r="2" fill="currentColor"/>
    <circle cx="18" cy="18" r="2" fill="currentColor"/>
    <circle cx="30" cy="18" r="2" fill="currentColor"/>
    <circle cx="18" cy="30" r="2" fill="currentColor"/>
    <circle cx="30" cy="30" r="2" fill="currentColor"/>
    </g>
    <g stroke="url(#g)" stroke-width="1.5" stroke-linecap="round" stroke-linejoin="round">
    <ellipse cx="24" cy="24" rx="10" ry="14" fill="none" stroke-width="4"/>
    <circle cx="24" cy="12" r="2" fill="currentColor"/>
    <circle cx="18" cy="18" r="2" fill="currentColor"/>
    <circle cx="30" cy="18" r="2" fill="currentColor"/>
    <circle cx="18" cy="30" r="2" fill="currentColor"/>
    <circle cx="30" cy="30" r="2" fill="currentColor"/>
    </g>
  </g>
</svg>