<svg xmlns="http://www.w3.org/2000/svg" viewBox="0 0 48 48">
  <defs>
    <linearGradient id="g" x1="0%" y1="0%" x2="100%" y2="100%">
      <stop offset="0%" stop-color="#c0a1a8"/>
      <stop offset="100%" stop-color="#1d0c0f"/>
    </linearGradient>
    <filter id="shadow" x="-30%" y="-30%" width="160%" height="160%">
      <feDropShadow dx="2.5" dy="3.5" stdDeviation="3" flood-color="#1a1a2e" flood-opacity="0.45"/>
    </filter>
  </defs>
  <g filter="url(#shadow)" fill="none">
    <g stroke="#0e0607" stroke-width="4.5" stroke-linecap="round" stroke-linejoin="round" transform="translate(2,2)">
    <ellipse cx="24" cy="26" rx="16" ry="12"/>
    <ellipse cx="24" cy="18" rx="12" ry="8"/>
    <line x1="12" y1="22" x2="36" y2="22 M12 30 L36 30"/>
    <line x1="20" y1="14" x2="28" y2="14"/>
    </g>
    <g stroke="#1d0c0f" stroke-width="3" stroke-linecap="round" stroke-linejoin="round" transform="translate(1,1)">
    <ellipse cx="24" cy="26" rx="16" ry="12"/>
    <ellipse cx="24" cy="18" rx="12" ry="8"/>
    <line x1="12" y1="22" x2="36" y2="22 M12 30 L36 30"/>
    <line x1="20" y1="14" x2="28" y2="14"/>
    </g>
    <g stroke="url(#g)" stroke-width="1.5" stroke-linecap="round" stroke-linejoin="round">
    <ellipse cx="24" cy="26" rx="16" ry="12"/>
    <ellipse cx="24" cy="18" rx="12" ry="8"/>
    <line x1="12" y1="22" x2="36" y2="22 M12 30 L36 30"/>
    <line x1="20" y1="14" x2="28" y2="14"/>
    </g>
  </g>
</svg>