<svg xmlns="http://www.w3.org/2000/svg" viewBox="0 0 48 48">
  <defs>
    <linearGradient id="g" x1="0%" y1="0%" x2="100%" y2="100%">
      <stop offset="0%" stop-color="#b2cbb3"/>
      <stop offset="100%" stop-color="#2e4d2f"/>
    </linearGradient>
    <filter id="sh" x="-30%" y="-30%" width="160%" height="160%">
      <feDropShadow dx="2.5" dy="3.5" stdDeviation="3" flood-color="#1a1a2e" flood-opacity="0.45"/>
    </filter>
  </defs>
  <g filter="url(#sh)" fill="none">
    <g stroke="#152315" stroke-width="4.5" stroke-linecap="round" stroke-linejoin="round" transform="translate(2,2)">
<path d="M6 38 Q6 6 24 6 Q42 6 42 38"/>
        <line x1="6" y1="38" x2="42" y2="38"/>
        <rect x="20" y="8" width="8" height="14" rx="2"/>
        <circle cx="14" cy="16" r="2"/>
        <circle cx="34" cy="16" r="2"/>
    </g>
    <g stroke="#2e4d2f" stroke-width="3" stroke-linecap="round" stroke-linejoin="round" transform="translate(1,1)">
<path d="M6 38 Q6 6 24 6 Q42 6 42 38"/>
        <line x1="6" y1="38" x2="42" y2="38"/>
        <rect x="20" y="8" width="8" height="14" rx="2"/>
        <circle cx="14" cy="16" r="2"/>
        <circle cx="34" cy="16" r="2"/>
    </g>
    <g stroke="url(#g)" stroke-width="1.5" stroke-linecap="round" stroke-linejoin="round">
<path d="M6 38 Q6 6 24 6 Q42 6 42 38"/>
        <line x1="6" y1="38" x2="42" y2="38"/>
        <rect x="20" y="8" width="8" height="14" rx="2"/>
        <circle cx="14" cy="16" r="2"/>
        <circle cx="34" cy="16" r="2"/>
    </g>
  </g>
</svg>