<svg xmlns="http://www.w3.org/2000/svg" viewBox="0 0 48 48">
  <defs>
    <linearGradient id="g" x1="0%" y1="0%" x2="100%" y2="100%">
      <stop offset="0%" stop-color="#e2bbcc"/>
      <stop offset="100%" stop-color="#2f1a23"/>
    </linearGradient>
    <filter id="shadow" x="-30%" y="-30%" width="160%" height="160%">
      <feDropShadow dx="2.5" dy="3.5" stdDeviation="3" flood-color="#1a1a2e" flood-opacity="0.45"/>
    </filter>
  </defs>
  <g filter="url(#shadow)" fill="none">
    <g stroke="#170d11" stroke-width="4.5" stroke-linecap="round" stroke-linejoin="round" transform="translate(2,2)">
    <path d="M2 40 Q12 12 24 20 Q36 12 46 40"/>
    <line x1="2" y1="40" x2="46" y2="40"/>
    <line x1="8" y1="30" x2="40" y2="30"/>
    <line x1="14" y1="34" x2="34" y2="34"/>
    <line x1="24" y1="20" x2="24" y2="40"/>
    </g>
    <g stroke="#2f1a23" stroke-width="3" stroke-linecap="round" stroke-linejoin="round" transform="translate(1,1)">
    <path d="M2 40 Q12 12 24 20 Q36 12 46 40"/>
    <line x1="2" y1="40" x2="46" y2="40"/>
    <line x1="8" y1="30" x2="40" y2="30"/>
    <line x1="14" y1="34" x2="34" y2="34"/>
    <line x1="24" y1="20" x2="24" y2="40"/>
    </g>
    <g stroke="url(#g)" stroke-width="1.5" stroke-linecap="round" stroke-linejoin="round">
    <path d="M2 40 Q12 12 24 20 Q36 12 46 40"/>
    <line x1="2" y1="40" x2="46" y2="40"/>
    <line x1="8" y1="30" x2="40" y2="30"/>
    <line x1="14" y1="34" x2="34" y2="34"/>
    <line x1="24" y1="20" x2="24" y2="40"/>
    </g>
  </g>
</svg>