<svg xmlns="http://www.w3.org/2000/svg" viewBox="0 0 48 48">
  <defs>
    <linearGradient id="g" x1="0%" y1="0%" x2="100%" y2="100%">
      <stop offset="0%" stop-color="#c69ea3"/>
      <stop offset="100%" stop-color="#200a0c"/>
    </linearGradient>
    <filter id="shadow" x="-30%" y="-30%" width="160%" height="160%">
      <feDropShadow dx="2.5" dy="3.5" stdDeviation="3" flood-color="#1a1a2e" flood-opacity="0.45"/>
    </filter>
  </defs>
  <g filter="url(#shadow)" fill="none">
    <g stroke="#100506" stroke-width="4.5" stroke-linecap="round" stroke-linejoin="round" transform="translate(2,2)">
    <line x1="8" y1="42" x2="38" y2="12"/>
    <rect x="34" y="6" width="10" height="10" rx="2" transform="rotate(45 39 11)"/>
    <line x1="8" y1="42" x2="4" y2="44 M8 42 L12 44"/>
    <line x1="22" y1="30" x2="28" y2="24" stroke-width="3"/>
    </g>
    <g stroke="#200a0c" stroke-width="3" stroke-linecap="round" stroke-linejoin="round" transform="translate(1,1)">
    <line x1="8" y1="42" x2="38" y2="12"/>
    <rect x="34" y="6" width="10" height="10" rx="2" transform="rotate(45 39 11)"/>
    <line x1="8" y1="42" x2="4" y2="44 M8 42 L12 44"/>
    <line x1="22" y1="30" x2="28" y2="24" stroke-width="3"/>
    </g>
    <g stroke="url(#g)" stroke-width="1.5" stroke-linecap="round" stroke-linejoin="round">
    <line x1="8" y1="42" x2="38" y2="12"/>
    <rect x="34" y="6" width="10" height="10" rx="2" transform="rotate(45 39 11)"/>
    <line x1="8" y1="42" x2="4" y2="44 M8 42 L12 44"/>
    <line x1="22" y1="30" x2="28" y2="24" stroke-width="3"/>
    </g>
  </g>
</svg>