<svg xmlns="http://www.w3.org/2000/svg" viewBox="0 0 48 48">
  <defs>
    <linearGradient id="g" x1="0%" y1="0%" x2="100%" y2="100%">
      <stop offset="0%" stop-color="#bba6c6"/>
      <stop offset="100%" stop-color="#1a0e20"/>
    </linearGradient>
    <filter id="shadow" x="-30%" y="-30%" width="160%" height="160%">
      <feDropShadow dx="2.5" dy="3.5" stdDeviation="3" flood-color="#1a1a2e" flood-opacity="0.45"/>
    </filter>
  </defs>
  <g filter="url(#shadow)" fill="none">
    <g stroke="#0d0710" stroke-width="4.5" stroke-linecap="round" stroke-linejoin="round" transform="translate(2,2)">
    <rect x="8" y="16" width="32" height="24" rx="3"/>
    <line x1="14" y1="20" x2="14" y2="36"/>
    <line x1="20" y1="18" x2="20" y2="36"/>
    <line x1="28" y1="18" x2="28" y2="36"/>
    <line x1="34" y1="20" x2="34" y2="36"/>
    </g>
    <g stroke="#1a0e20" stroke-width="3" stroke-linecap="round" stroke-linejoin="round" transform="translate(1,1)">
    <rect x="8" y="16" width="32" height="24" rx="3"/>
    <line x1="14" y1="20" x2="14" y2="36"/>
    <line x1="20" y1="18" x2="20" y2="36"/>
    <line x1="28" y1="18" x2="28" y2="36"/>
    <line x1="34" y1="20" x2="34" y2="36"/>
    </g>
    <g stroke="url(#g)" stroke-width="1.5" stroke-linecap="round" stroke-linejoin="round">
    <rect x="8" y="16" width="32" height="24" rx="3"/>
    <line x1="14" y1="20" x2="14" y2="36"/>
    <line x1="20" y1="18" x2="20" y2="36"/>
    <line x1="28" y1="18" x2="28" y2="36"/>
    <line x1="34" y1="20" x2="34" y2="36"/>
    </g>
  </g>
</svg>