<svg xmlns="http://www.w3.org/2000/svg" viewBox="0 0 48 48">
  <defs>
    <linearGradient id="g" x1="0%" y1="0%" x2="100%" y2="100%">
      <stop offset="0%" stop-color="#e6d8aa"/>
      <stop offset="100%" stop-color="#322a11"/>
    </linearGradient>
    <filter id="shadow" x="-30%" y="-30%" width="160%" height="160%">
      <feDropShadow dx="2.5" dy="3.5" stdDeviation="3" flood-color="#1a1a2e" flood-opacity="0.45"/>
    </filter>
  </defs>
  <g filter="url(#shadow)" fill="none">
    <g stroke="#191508" stroke-width="4.5" stroke-linecap="round" stroke-linejoin="round" transform="translate(2,2)">
    <rect x="6" y="6" width="12" height="20" rx="4"/>
    <line x1="12" y1="26" x2="12" y2="44"/>
    <line x1="6" y1="26" x2="18" y2="26"/>
    <line x1="8" y1="34" x2="16" y2="34 M8 38 L16 38"/>
    </g>
    <g stroke="#322a11" stroke-width="3" stroke-linecap="round" stroke-linejoin="round" transform="translate(1,1)">
    <rect x="6" y="6" width="12" height="20" rx="4"/>
    <line x1="12" y1="26" x2="12" y2="44"/>
    <line x1="6" y1="26" x2="18" y2="26"/>
    <line x1="8" y1="34" x2="16" y2="34 M8 38 L16 38"/>
    </g>
    <g stroke="url(#g)" stroke-width="1.5" stroke-linecap="round" stroke-linejoin="round">
    <rect x="6" y="6" width="12" height="20" rx="4"/>
    <line x1="12" y1="26" x2="12" y2="44"/>
    <line x1="6" y1="26" x2="18" y2="26"/>
    <line x1="8" y1="34" x2="16" y2="34 M8 38 L16 38"/>
    </g>
  </g>
</svg>