<svg xmlns="http://www.w3.org/2000/svg" viewBox="0 0 48 48">
  <defs>
    <linearGradient id="g" x1="0%" y1="0%" x2="100%" y2="100%">
      <stop offset="0%" stop-color="#acd1e4"/>
      <stop offset="100%" stop-color="#122631"/>
    </linearGradient>
    <filter id="shadow" x="-30%" y="-30%" width="160%" height="160%">
      <feDropShadow dx="2.5" dy="3.5" stdDeviation="3" flood-color="#1a1a2e" flood-opacity="0.45"/>
    </filter>
  </defs>
  <g filter="url(#shadow)" fill="none">
    <g stroke="#091318" stroke-width="4.5" stroke-linecap="round" stroke-linejoin="round" transform="translate(2,2)">
    <path d="M10 12 L14 42 L34 42 L38 12 Z"/>
    <ellipse cx="24" cy="12" rx="14" ry="4"/>
    <path d="M14 12 Q24 6 34 12"/>
    <line x1="24" y1="6" x2="24" y2="2"/>
    </g>
    <g stroke="#122631" stroke-width="3" stroke-linecap="round" stroke-linejoin="round" transform="translate(1,1)">
    <path d="M10 12 L14 42 L34 42 L38 12 Z"/>
    <ellipse cx="24" cy="12" rx="14" ry="4"/>
    <path d="M14 12 Q24 6 34 12"/>
    <line x1="24" y1="6" x2="24" y2="2"/>
    </g>
    <g stroke="url(#g)" stroke-width="1.5" stroke-linecap="round" stroke-linejoin="round">
    <path d="M10 12 L14 42 L34 42 L38 12 Z"/>
    <ellipse cx="24" cy="12" rx="14" ry="4"/>
    <path d="M14 12 Q24 6 34 12"/>
    <line x1="24" y1="6" x2="24" y2="2"/>
    </g>
  </g>
</svg>