<svg xmlns="http://www.w3.org/2000/svg" viewBox="0 0 48 48">
  <defs>
    <linearGradient id="g" x1="0%" y1="0%" x2="100%" y2="100%">
      <stop offset="0%" stop-color="#bbb0c9"/>
      <stop offset="100%" stop-color="#1a1422"/>
    </linearGradient>
    <filter id="shadow" x="-30%" y="-30%" width="160%" height="160%">
      <feDropShadow dx="2.5" dy="3.5" stdDeviation="3" flood-color="#1a1a2e" flood-opacity="0.45"/>
    </filter>
  </defs>
  <g filter="url(#shadow)" fill="none">
    <g stroke="#0d0a11" stroke-width="4.5" stroke-linecap="round" stroke-linejoin="round" transform="translate(2,2)">
    <ellipse cx="24" cy="24" rx="15" ry="11"/>
    <ellipse cx="24" cy="16" rx="7" ry="5"/>
    <circle cx="20" cy="14" r="2"/>
    <circle cx="28" cy="14" r="2"/>
    <path d="M12 8 Q14 2 18 8 M30 8 Q34 2 36 8"/>
    <path d="M10 24 L4 20 M38 24 L44 20"/>
    </g>
    <g stroke="#1a1422" stroke-width="3" stroke-linecap="round" stroke-linejoin="round" transform="translate(1,1)">
    <ellipse cx="24" cy="24" rx="15" ry="11"/>
    <ellipse cx="24" cy="16" rx="7" ry="5"/>
    <circle cx="20" cy="14" r="2"/>
    <circle cx="28" cy="14" r="2"/>
    <path d="M12 8 Q14 2 18 8 M30 8 Q34 2 36 8"/>
    <path d="M10 24 L4 20 M38 24 L44 20"/>
    </g>
    <g stroke="url(#g)" stroke-width="1.5" stroke-linecap="round" stroke-linejoin="round">
    <ellipse cx="24" cy="24" rx="15" ry="11"/>
    <ellipse cx="24" cy="16" rx="7" ry="5"/>
    <circle cx="20" cy="14" r="2"/>
    <circle cx="28" cy="14" r="2"/>
    <path d="M12 8 Q14 2 18 8 M30 8 Q34 2 36 8"/>
    <path d="M10 24 L4 20 M38 24 L44 20"/>
    </g>
  </g>
</svg>