<svg xmlns="http://www.w3.org/2000/svg" viewBox="0 0 48 48">
  <defs>
    <linearGradient id="g" x1="0%" y1="0%" x2="100%" y2="100%">
      <stop offset="0%" stop-color="#82B1FF"/>
      <stop offset="100%" stop-color="#18578C"/>
    </linearGradient>
    <filter id="sh" x="-30%" y="-30%" width="160%" height="160%">
      <feDropShadow dx="2.5" dy="3.5" stdDeviation="3" flood-color="#1a1a2e" flood-opacity="0.45"/>
    </filter>
  </defs>
  <g filter="url(#sh)" fill="none">
    <g stroke="#0C2D46" stroke-width="4.5" stroke-linecap="round" stroke-linejoin="round" transform="translate(2,2)">
    <ellipse cx="24" cy="28" rx="10" ry="12"/>
        <circle cx="24" cy="10" r="5"/>
        <line x1="14" y1="16" x2="8" y2="10"/>
        <line x1="34" y1="16" x2="40" y2="10"/>
        <line x1="14" y1="28" x2="8" y2="32"/>
        <line x1="34" y1="28" x2="40" y2="32"/>
        <line x1="14" y1="22" x2="8" y2="18"/>
        <line x1="34" y1="22" x2="40" y2="18"/>
    </g>
    <g stroke="#18578C" stroke-width="3" stroke-linecap="round" stroke-linejoin="round" transform="translate(1,1)">
    <ellipse cx="24" cy="28" rx="10" ry="12"/>
        <circle cx="24" cy="10" r="5"/>
        <line x1="14" y1="16" x2="8" y2="10"/>
        <line x1="34" y1="16" x2="40" y2="10"/>
        <line x1="14" y1="28" x2="8" y2="32"/>
        <line x1="34" y1="28" x2="40" y2="32"/>
        <line x1="14" y1="22" x2="8" y2="18"/>
        <line x1="34" y1="22" x2="40" y2="18"/>
    </g>
    <g stroke="url(#g)" stroke-width="1.5" stroke-linecap="round" stroke-linejoin="round">
    <ellipse cx="24" cy="28" rx="10" ry="12"/>
        <circle cx="24" cy="10" r="5"/>
        <line x1="14" y1="16" x2="8" y2="10"/>
        <line x1="34" y1="16" x2="40" y2="10"/>
        <line x1="14" y1="28" x2="8" y2="32"/>
        <line x1="34" y1="28" x2="40" y2="32"/>
        <line x1="14" y1="22" x2="8" y2="18"/>
        <line x1="34" y1="22" x2="40" y2="18"/>
    </g>
  </g>
</svg>