<svg xmlns="http://www.w3.org/2000/svg" viewBox="0 0 48 48">
  <defs>
    <linearGradient id="g" x1="0%" y1="0%" x2="100%" y2="100%">
      <stop offset="0%" stop-color="#FF8A65"/>
      <stop offset="100%" stop-color="#7A260C"/>
    </linearGradient>
    <filter id="sh" x="-30%" y="-30%" width="160%" height="160%">
      <feDropShadow dx="2.5" dy="3.5" stdDeviation="3" flood-color="#1a1a2e" flood-opacity="0.45"/>
    </filter>
  </defs>
  <g filter="url(#sh)" fill="none">
    <g stroke="#3D1306" stroke-width="4.5" stroke-linecap="round" stroke-linejoin="round" transform="translate(2,2)">
    <rect x="10" y="14" width="28" height="30"/>
        <rect x="16" y="6" width="16" height="8" rx="1"/>
        <rect x="14" y="18" width="8" height="10" rx="1"/>
        <rect x="26" y="18" width="8" height="10" rx="1"/>
        <rect x="14" y="32" width="8" height="10" rx="1"/>
        <rect x="26" y="32" width="8" height="10" rx="1"/>
        <line x1="10" y1="14" x2="38" y2="14"/>
    </g>
    <g stroke="#7A260C" stroke-width="3" stroke-linecap="round" stroke-linejoin="round" transform="translate(1,1)">
    <rect x="10" y="14" width="28" height="30"/>
        <rect x="16" y="6" width="16" height="8" rx="1"/>
        <rect x="14" y="18" width="8" height="10" rx="1"/>
        <rect x="26" y="18" width="8" height="10" rx="1"/>
        <rect x="14" y="32" width="8" height="10" rx="1"/>
        <rect x="26" y="32" width="8" height="10" rx="1"/>
        <line x1="10" y1="14" x2="38" y2="14"/>
    </g>
    <g stroke="url(#g)" stroke-width="1.5" stroke-linecap="round" stroke-linejoin="round">
    <rect x="10" y="14" width="28" height="30"/>
        <rect x="16" y="6" width="16" height="8" rx="1"/>
        <rect x="14" y="18" width="8" height="10" rx="1"/>
        <rect x="26" y="18" width="8" height="10" rx="1"/>
        <rect x="14" y="32" width="8" height="10" rx="1"/>
        <rect x="26" y="32" width="8" height="10" rx="1"/>
        <line x1="10" y1="14" x2="38" y2="14"/>
    </g>
  </g>
</svg>