<svg xmlns="http://www.w3.org/2000/svg" viewBox="0 0 48 48">
  <defs>
    <linearGradient id="g" x1="0%" y1="0%" x2="100%" y2="100%">
      <stop offset="0%" stop-color="#aabbc9"/>
      <stop offset="100%" stop-color="#101a22"/>
    </linearGradient>
    <filter id="shadow" x="-30%" y="-30%" width="160%" height="160%">
      <feDropShadow dx="2.5" dy="3.5" stdDeviation="3" flood-color="#1a1a2e" flood-opacity="0.45"/>
    </filter>
  </defs>
  <g filter="url(#shadow)" fill="none">
    <g stroke="#080d11" stroke-width="4.5" stroke-linecap="round" stroke-linejoin="round" transform="translate(2,2)">
    <path d="M16 20 Q16 6 24 6 Q32 6 32 20 Q32 26 28 30 L20 30 Q16 26 16 20 Z"/>
    <line x1="20" y1="32" x2="28" y2="32 M22 36 L26 36 M24 38 L24 42"/>
    <circle cx="24" cy="18" r="2" fill="currentColor"/>
    </g>
    <g stroke="#101a22" stroke-width="3" stroke-linecap="round" stroke-linejoin="round" transform="translate(1,1)">
    <path d="M16 20 Q16 6 24 6 Q32 6 32 20 Q32 26 28 30 L20 30 Q16 26 16 20 Z"/>
    <line x1="20" y1="32" x2="28" y2="32 M22 36 L26 36 M24 38 L24 42"/>
    <circle cx="24" cy="18" r="2" fill="currentColor"/>
    </g>
    <g stroke="url(#g)" stroke-width="1.5" stroke-linecap="round" stroke-linejoin="round">
    <path d="M16 20 Q16 6 24 6 Q32 6 32 20 Q32 26 28 30 L20 30 Q16 26 16 20 Z"/>
    <line x1="20" y1="32" x2="28" y2="32 M22 36 L26 36 M24 38 L24 42"/>
    <circle cx="24" cy="18" r="2" fill="currentColor"/>
    </g>
  </g>
</svg>