<svg xmlns="http://www.w3.org/2000/svg" viewBox="0 0 48 48">
  <defs>
    <linearGradient id="g" x1="0%" y1="0%" x2="100%" y2="100%">
      <stop offset="0%" stop-color="#FF4081"/>
      <stop offset="100%" stop-color="#781350"/>
    </linearGradient>
    <filter id="sh" x="-30%" y="-30%" width="160%" height="160%">
      <feDropShadow dx="2.5" dy="3.5" stdDeviation="3" flood-color="#1a1a2e" flood-opacity="0.45"/>
    </filter>
  </defs>
  <g filter="url(#sh)" fill="none">
    <g stroke="#3C0928" stroke-width="4.5" stroke-linecap="round" stroke-linejoin="round" transform="translate(2,2)">
    <path d="M24 6 Q16 6 16 14 Q16 20 20 24 L20 30 L28 30 L28 24 Q32 20 32 14 Q32 6 24 6 Z"/>
        <line x1="18" y1="34" x2="30" y2="34"/>
        <line x1="20" y1="38" x2="28" y2="38"/>
        <line x1="22" y1="42" x2="26" y2="42"/>
    </g>
    <g stroke="#781350" stroke-width="3" stroke-linecap="round" stroke-linejoin="round" transform="translate(1,1)">
    <path d="M24 6 Q16 6 16 14 Q16 20 20 24 L20 30 L28 30 L28 24 Q32 20 32 14 Q32 6 24 6 Z"/>
        <line x1="18" y1="34" x2="30" y2="34"/>
        <line x1="20" y1="38" x2="28" y2="38"/>
        <line x1="22" y1="42" x2="26" y2="42"/>
    </g>
    <g stroke="url(#g)" stroke-width="1.5" stroke-linecap="round" stroke-linejoin="round">
    <path d="M24 6 Q16 6 16 14 Q16 20 20 24 L20 30 L28 30 L28 24 Q32 20 32 14 Q32 6 24 6 Z"/>
        <line x1="18" y1="34" x2="30" y2="34"/>
        <line x1="20" y1="38" x2="28" y2="38"/>
        <line x1="22" y1="42" x2="26" y2="42"/>
    </g>
  </g>
</svg>