<svg xmlns="http://www.w3.org/2000/svg" viewBox="0 0 48 48">
  <defs>
    <linearGradient id="g" x1="0%" y1="0%" x2="100%" y2="100%">
      <stop offset="0%" stop-color="#bbe4e6"/>
      <stop offset="100%" stop-color="#3a6c6e"/>
    </linearGradient>
    <filter id="sh" x="-30%" y="-30%" width="160%" height="160%">
      <feDropShadow dx="2.5" dy="3.5" stdDeviation="3" flood-color="#1a1a2e" flood-opacity="0.45"/>
    </filter>
  </defs>
  <g filter="url(#sh)" fill="none">
    <g stroke="#1a3132" stroke-width="4.5" stroke-linecap="round" stroke-linejoin="round" transform="translate(2,2)">
<rect x="4" y="10" width="40" height="22" rx="4"/>
        <rect x="8" y="14" width="12" height="10" rx="2"/>
        <rect x="24" y="14" width="12" height="10" rx="2"/>
        <circle cx="12" cy="36" r="4"/>
        <circle cx="36" cy="36" r="4"/>
    </g>
    <g stroke="#3a6c6e" stroke-width="3" stroke-linecap="round" stroke-linejoin="round" transform="translate(1,1)">
<rect x="4" y="10" width="40" height="22" rx="4"/>
        <rect x="8" y="14" width="12" height="10" rx="2"/>
        <rect x="24" y="14" width="12" height="10" rx="2"/>
        <circle cx="12" cy="36" r="4"/>
        <circle cx="36" cy="36" r="4"/>
    </g>
    <g stroke="url(#g)" stroke-width="1.5" stroke-linecap="round" stroke-linejoin="round">
<rect x="4" y="10" width="40" height="22" rx="4"/>
        <rect x="8" y="14" width="12" height="10" rx="2"/>
        <rect x="24" y="14" width="12" height="10" rx="2"/>
        <circle cx="12" cy="36" r="4"/>
        <circle cx="36" cy="36" r="4"/>
    </g>
  </g>
</svg>