<svg xmlns="http://www.w3.org/2000/svg" viewBox="0 0 48 48">
  <defs>
    <linearGradient id="g" x1="0%" y1="0%" x2="100%" y2="100%">
      <stop offset="0%" stop-color="#c5b2a0"/>
      <stop offset="100%" stop-color="#452e18"/>
    </linearGradient>
    <filter id="sh" x="-30%" y="-30%" width="160%" height="160%">
      <feDropShadow dx="2.5" dy="3.5" stdDeviation="3" flood-color="#1a1a2e" flood-opacity="0.45"/>
    </filter>
  </defs>
  <g filter="url(#sh)" fill="none">
    <g stroke="#1f150b" stroke-width="4.5" stroke-linecap="round" stroke-linejoin="round" transform="translate(2,2)">
<path d="M24 24 Q10 8 8 18 Q6 28 24 24"/>
        <path d="M24 24 Q38 8 40 18 Q42 28 24 24"/>
        <path d="M24 24 Q10 32 8 30 Q6 26 24 24"/>
        <path d="M24 24 Q38 32 40 30 Q42 26 24 24"/>
        <line x1="24" y1="6" x2="24" y2="40"/>
    </g>
    <g stroke="#452e18" stroke-width="3" stroke-linecap="round" stroke-linejoin="round" transform="translate(1,1)">
<path d="M24 24 Q10 8 8 18 Q6 28 24 24"/>
        <path d="M24 24 Q38 8 40 18 Q42 28 24 24"/>
        <path d="M24 24 Q10 32 8 30 Q6 26 24 24"/>
        <path d="M24 24 Q38 32 40 30 Q42 26 24 24"/>
        <line x1="24" y1="6" x2="24" y2="40"/>
    </g>
    <g stroke="url(#g)" stroke-width="1.5" stroke-linecap="round" stroke-linejoin="round">
<path d="M24 24 Q10 8 8 18 Q6 28 24 24"/>
        <path d="M24 24 Q38 8 40 18 Q42 28 24 24"/>
        <path d="M24 24 Q10 32 8 30 Q6 26 24 24"/>
        <path d="M24 24 Q38 32 40 30 Q42 26 24 24"/>
        <line x1="24" y1="6" x2="24" y2="40"/>
    </g>
  </g>
</svg>