<svg xmlns="http://www.w3.org/2000/svg" viewBox="0 0 48 48">
  <defs>
    <linearGradient id="g" x1="0%" y1="0%" x2="100%" y2="100%">
      <stop offset="0%" stop-color="#b2bade"/>
      <stop offset="100%" stop-color="#2f3864"/>
    </linearGradient>
    <filter id="sh" x="-30%" y="-30%" width="160%" height="160%">
      <feDropShadow dx="2.5" dy="3.5" stdDeviation="3" flood-color="#1a1a2e" flood-opacity="0.45"/>
    </filter>
  </defs>
  <g filter="url(#sh)" fill="none">
    <g stroke="#15192d" stroke-width="4.5" stroke-linecap="round" stroke-linejoin="round" transform="translate(2,2)">
<rect x="8" y="6" width="32" height="36" rx="3"/><line x1="24" y1="6" x2="24" y2="42"/><rect x="12" y="12" width="8" height="10" rx="1"/><rect x="28" y="12" width="8" height="10" rx="1"/><rect x="12" y="26" width="8" height="10" rx="1"/><rect x="28" y="26" width="8" height="10" rx="1"/><circle cx="20" cy="22" r="1.5"/><circle cx="28" cy="22" r="1.5"/><circle cx="20" cy="36" r="1.5"/><circle cx="28" cy="36" r="1.5"/>
    </g>
    <g stroke="#2f3864" stroke-width="3" stroke-linecap="round" stroke-linejoin="round" transform="translate(1,1)">
<rect x="8" y="6" width="32" height="36" rx="3"/><line x1="24" y1="6" x2="24" y2="42"/><rect x="12" y="12" width="8" height="10" rx="1"/><rect x="28" y="12" width="8" height="10" rx="1"/><rect x="12" y="26" width="8" height="10" rx="1"/><rect x="28" y="26" width="8" height="10" rx="1"/><circle cx="20" cy="22" r="1.5"/><circle cx="28" cy="22" r="1.5"/><circle cx="20" cy="36" r="1.5"/><circle cx="28" cy="36" r="1.5"/>
    </g>
    <g stroke="url(#g)" stroke-width="1.5" stroke-linecap="round" stroke-linejoin="round">
<rect x="8" y="6" width="32" height="36" rx="3"/><line x1="24" y1="6" x2="24" y2="42"/><rect x="12" y="12" width="8" height="10" rx="1"/><rect x="28" y="12" width="8" height="10" rx="1"/><rect x="12" y="26" width="8" height="10" rx="1"/><rect x="28" y="26" width="8" height="10" rx="1"/><circle cx="20" cy="22" r="1.5"/><circle cx="28" cy="22" r="1.5"/><circle cx="20" cy="36" r="1.5"/><circle cx="28" cy="36" r="1.5"/>
    </g>
  </g>
</svg>