<svg xmlns="http://www.w3.org/2000/svg" viewBox="0 0 48 48">
  <defs>
    <linearGradient id="g" x1="0%" y1="0%" x2="100%" y2="100%">
      <stop offset="0%" stop-color="#FF5252"/>
      <stop offset="100%" stop-color="#B91030"/>
    </linearGradient>
    <filter id="sh" x="-30%" y="-30%" width="160%" height="160%">
      <feDropShadow dx="2.5" dy="3.5" stdDeviation="3" flood-color="#1a1a2e" flood-opacity="0.45"/>
    </filter>
  </defs>
  <g filter="url(#sh)" fill="none">
    <g stroke="#5C0818" stroke-width="4.5" stroke-linecap="round" stroke-linejoin="round" transform="translate(2,2)">
    <rect x="8" y="30" width="32" height="12" rx="2"/>
        <path d="M8 30 L14 20 L20 28 L26 18 L32 26 L40 30"/>
        <line x1="24" y1="6" x2="24" y2="14"/>
        <circle cx="24" cy="4" r="2"/>
    </g>
    <g stroke="#B91030" stroke-width="3" stroke-linecap="round" stroke-linejoin="round" transform="translate(1,1)">
    <rect x="8" y="30" width="32" height="12" rx="2"/>
        <path d="M8 30 L14 20 L20 28 L26 18 L32 26 L40 30"/>
        <line x1="24" y1="6" x2="24" y2="14"/>
        <circle cx="24" cy="4" r="2"/>
    </g>
    <g stroke="url(#g)" stroke-width="1.5" stroke-linecap="round" stroke-linejoin="round">
    <rect x="8" y="30" width="32" height="12" rx="2"/>
        <path d="M8 30 L14 20 L20 28 L26 18 L32 26 L40 30"/>
        <line x1="24" y1="6" x2="24" y2="14"/>
        <circle cx="24" cy="4" r="2"/>
    </g>
  </g>
</svg>