<svg xmlns="http://www.w3.org/2000/svg" viewBox="0 0 48 48">
  <defs>
    <linearGradient id="iconGrad" x1="0%" y1="0%" x2="100%" y2="100%">
      <stop offset="0%" stop-color="#A5D6A7"/>
      <stop offset="100%" stop-color="#466d48"/>
    </linearGradient>
    <filter id="shadow" x="-30%" y="-30%" width="160%" height="160%">
      <feDropShadow dx="2.5" dy="3.5" stdDeviation="3" flood-color="#1a1a2e" flood-opacity="0.45"/>
    </filter>
  </defs>
  <g filter="url(#shadow)" fill="none">
    <g stroke="#233624" stroke-width="4.5" stroke-linecap="round" stroke-linejoin="round" transform="translate(2,2)">
      <rect x="8" y="12" width="32" height="28" rx="3"/>
    <line x1="8" y1="20" x2="40" y2="20"/>
    <line x1="16" y1="8" x2="16" y2="14"/>
    <line x1="32" y1="8" x2="32" y2="14"/>
    <line x1="14" y1="26" x2="22" y2="26"/>
    <line x1="14" y1="32" x2="22" y2="32"/>
    <line x1="26" y1="26" x2="34" y2="26"/>
    </g>
    <g stroke="#466d48" stroke-width="3" stroke-linecap="round" stroke-linejoin="round" transform="translate(1,1)">
      <rect x="8" y="12" width="32" height="28" rx="3"/>
    <line x1="8" y1="20" x2="40" y2="20"/>
    <line x1="16" y1="8" x2="16" y2="14"/>
    <line x1="32" y1="8" x2="32" y2="14"/>
    <line x1="14" y1="26" x2="22" y2="26"/>
    <line x1="14" y1="32" x2="22" y2="32"/>
    <line x1="26" y1="26" x2="34" y2="26"/>
    </g>
    <g stroke="url(#iconGrad)" stroke-width="1.5" stroke-linecap="round" stroke-linejoin="round">
      <rect x="8" y="12" width="32" height="28" rx="3"/>
    <line x1="8" y1="20" x2="40" y2="20"/>
    <line x1="16" y1="8" x2="16" y2="14"/>
    <line x1="32" y1="8" x2="32" y2="14"/>
    <line x1="14" y1="26" x2="22" y2="26"/>
    <line x1="14" y1="32" x2="22" y2="32"/>
    <line x1="26" y1="26" x2="34" y2="26"/>
    </g>
  </g>
</svg>
