<svg xmlns="http://www.w3.org/2000/svg" viewBox="0 0 48 48">
  <defs>
    <linearGradient id="g" x1="0%" y1="0%" x2="100%" y2="100%">
      <stop offset="0%" stop-color="#e4c5be"/>
      <stop offset="100%" stop-color="#6b453d"/>
    </linearGradient>
    <filter id="sh" x="-30%" y="-30%" width="160%" height="160%">
      <feDropShadow dx="2.5" dy="3.5" stdDeviation="3" flood-color="#1a1a2e" flood-opacity="0.45"/>
    </filter>
  </defs>
  <g filter="url(#sh)" fill="none">
    <g stroke="#311f1b" stroke-width="4.5" stroke-linecap="round" stroke-linejoin="round" transform="translate(2,2)">
<rect x="10" y="6" width="28" height="28" rx="8"/>
        <circle cx="24" cy="20" r="12"/>
        <circle cx="24" cy="20" r="5"/>
        <circle cx="16" cy="16" r="2"/>
        <circle cx="32" cy="16" r="2"/>
        <circle cx="20" cy="26" r="2"/>
        <circle cx="28" cy="26" r="2"/>
    </g>
    <g stroke="#6b453d" stroke-width="3" stroke-linecap="round" stroke-linejoin="round" transform="translate(1,1)">
<rect x="10" y="6" width="28" height="28" rx="8"/>
        <circle cx="24" cy="20" r="12"/>
        <circle cx="24" cy="20" r="5"/>
        <circle cx="16" cy="16" r="2"/>
        <circle cx="32" cy="16" r="2"/>
        <circle cx="20" cy="26" r="2"/>
        <circle cx="28" cy="26" r="2"/>
    </g>
    <g stroke="url(#g)" stroke-width="1.5" stroke-linecap="round" stroke-linejoin="round">
<rect x="10" y="6" width="28" height="28" rx="8"/>
        <circle cx="24" cy="20" r="12"/>
        <circle cx="24" cy="20" r="5"/>
        <circle cx="16" cy="16" r="2"/>
        <circle cx="32" cy="16" r="2"/>
        <circle cx="20" cy="26" r="2"/>
        <circle cx="28" cy="26" r="2"/>
    </g>
  </g>
</svg>