<svg xmlns="http://www.w3.org/2000/svg" viewBox="0 0 48 48">
  <defs>
    <linearGradient id="g" x1="0%" y1="0%" x2="100%" y2="100%">
      <stop offset="0%" stop-color="#e2c8ae"/>
      <stop offset="100%" stop-color="#2f2113"/>
    </linearGradient>
    <filter id="shadow" x="-30%" y="-30%" width="160%" height="160%">
      <feDropShadow dx="2.5" dy="3.5" stdDeviation="3" flood-color="#1a1a2e" flood-opacity="0.45"/>
    </filter>
  </defs>
  <g filter="url(#shadow)" fill="none">
    <g stroke="#171009" stroke-width="4.5" stroke-linecap="round" stroke-linejoin="round" transform="translate(2,2)">
    <rect x="4" y="6" width="40" height="36" rx="3"/>
    <ellipse cx="14" cy="16" rx="6" ry="4"/>
    <ellipse cx="30" cy="12" rx="8" ry="5"/>
    <ellipse cx="20" cy="28" rx="7" ry="4"/>
    <ellipse cx="36" cy="30" rx="5" ry="6"/>
    <ellipse cx="10" cy="36" rx="4" ry="3"/>
    </g>
    <g stroke="#2f2113" stroke-width="3" stroke-linecap="round" stroke-linejoin="round" transform="translate(1,1)">
    <rect x="4" y="6" width="40" height="36" rx="3"/>
    <ellipse cx="14" cy="16" rx="6" ry="4"/>
    <ellipse cx="30" cy="12" rx="8" ry="5"/>
    <ellipse cx="20" cy="28" rx="7" ry="4"/>
    <ellipse cx="36" cy="30" rx="5" ry="6"/>
    <ellipse cx="10" cy="36" rx="4" ry="3"/>
    </g>
    <g stroke="url(#g)" stroke-width="1.5" stroke-linecap="round" stroke-linejoin="round">
    <rect x="4" y="6" width="40" height="36" rx="3"/>
    <ellipse cx="14" cy="16" rx="6" ry="4"/>
    <ellipse cx="30" cy="12" rx="8" ry="5"/>
    <ellipse cx="20" cy="28" rx="7" ry="4"/>
    <ellipse cx="36" cy="30" rx="5" ry="6"/>
    <ellipse cx="10" cy="36" rx="4" ry="3"/>
    </g>
  </g>
</svg>