<svg xmlns="http://www.w3.org/2000/svg" viewBox="0 0 48 48">
  <defs>
    <linearGradient id="g" x1="0%" y1="0%" x2="100%" y2="100%">
      <stop offset="0%" stop-color="#e5bbbb"/>
      <stop offset="100%" stop-color="#311a1a"/>
    </linearGradient>
    <filter id="shadow" x="-30%" y="-30%" width="160%" height="160%">
      <feDropShadow dx="2.5" dy="3.5" stdDeviation="3" flood-color="#1a1a2e" flood-opacity="0.45"/>
    </filter>
  </defs>
  <g filter="url(#shadow)" fill="none">
    <g stroke="#180d0d" stroke-width="4.5" stroke-linecap="round" stroke-linejoin="round" transform="translate(2,2)">
    <polygon points="24,8 14,24 20,24 16,36 32,36 28,24 34,24"/>
    <path d="M8 36 L40 36"/>
    <line x1="12" y1="44" x2="36" y2="44"/>
    <line x1="24" y1="36" x2="24" y2="44"/>
    </g>
    <g stroke="#311a1a" stroke-width="3" stroke-linecap="round" stroke-linejoin="round" transform="translate(1,1)">
    <polygon points="24,8 14,24 20,24 16,36 32,36 28,24 34,24"/>
    <path d="M8 36 L40 36"/>
    <line x1="12" y1="44" x2="36" y2="44"/>
    <line x1="24" y1="36" x2="24" y2="44"/>
    </g>
    <g stroke="url(#g)" stroke-width="1.5" stroke-linecap="round" stroke-linejoin="round">
    <polygon points="24,8 14,24 20,24 16,36 32,36 28,24 34,24"/>
    <path d="M8 36 L40 36"/>
    <line x1="12" y1="44" x2="36" y2="44"/>
    <line x1="24" y1="36" x2="24" y2="44"/>
    </g>
  </g>
</svg>