<svg xmlns="http://www.w3.org/2000/svg" viewBox="0 0 48 48">
  <defs>
    <linearGradient id="g" x1="0%" y1="0%" x2="100%" y2="100%">
      <stop offset="0%" stop-color="#aac4c9"/>
      <stop offset="100%" stop-color="#101f22"/>
    </linearGradient>
    <filter id="shadow" x="-30%" y="-30%" width="160%" height="160%">
      <feDropShadow dx="2.5" dy="3.5" stdDeviation="3" flood-color="#1a1a2e" flood-opacity="0.45"/>
    </filter>
  </defs>
  <g filter="url(#shadow)" fill="none">
    <g stroke="#080f11" stroke-width="4.5" stroke-linecap="round" stroke-linejoin="round" transform="translate(2,2)">
    <rect x="6" y="18" width="36" height="22" rx="3"/>
    <path d="M6 18 Q24 8 42 18"/>
    <rect x="10" y="24" width="12" height="10" rx="2"/>
    <rect x="26" y="24" width="12" height="10" rx="2"/>
    <circle cx="16" cy="40" r="4"/>
    <circle cx="36" cy="40" r="4"/>
    </g>
    <g stroke="#101f22" stroke-width="3" stroke-linecap="round" stroke-linejoin="round" transform="translate(1,1)">
    <rect x="6" y="18" width="36" height="22" rx="3"/>
    <path d="M6 18 Q24 8 42 18"/>
    <rect x="10" y="24" width="12" height="10" rx="2"/>
    <rect x="26" y="24" width="12" height="10" rx="2"/>
    <circle cx="16" cy="40" r="4"/>
    <circle cx="36" cy="40" r="4"/>
    </g>
    <g stroke="url(#g)" stroke-width="1.5" stroke-linecap="round" stroke-linejoin="round">
    <rect x="6" y="18" width="36" height="22" rx="3"/>
    <path d="M6 18 Q24 8 42 18"/>
    <rect x="10" y="24" width="12" height="10" rx="2"/>
    <rect x="26" y="24" width="12" height="10" rx="2"/>
    <circle cx="16" cy="40" r="4"/>
    <circle cx="36" cy="40" r="4"/>
    </g>
  </g>
</svg>