<svg xmlns="http://www.w3.org/2000/svg" viewBox="0 0 48 48">
  <defs>
    <linearGradient id="g" x1="0%" y1="0%" x2="100%" y2="100%">
      <stop offset="0%" stop-color="#FFECB3"/>
      <stop offset="100%" stop-color="#8C5800"/>
    </linearGradient>
    <filter id="sh" x="-30%" y="-30%" width="160%" height="160%">
      <feDropShadow dx="2.5" dy="3.5" stdDeviation="3" flood-color="#1a1a2e" flood-opacity="0.45"/>
    </filter>
  </defs>
  <g filter="url(#sh)" fill="none">
    <g stroke="#462C00" stroke-width="4.5" stroke-linecap="round" stroke-linejoin="round" transform="translate(2,2)">
        <rect x="18" y="20" width="12" height="22" rx="1.5"/>
        <line x1="24" y1="20" x2="24" y2="14"/>
        <path d="M24 6 Q28 12 28 15 Q28 18 24 18 Q20 18 20 15 Q20 12 24 6 Z"/>
    </g>
    <g stroke="#8C5800" stroke-width="3" stroke-linecap="round" stroke-linejoin="round" transform="translate(1,1)">
        <rect x="18" y="20" width="12" height="22" rx="1.5"/>
        <line x1="24" y1="20" x2="24" y2="14"/>
        <path d="M24 6 Q28 12 28 15 Q28 18 24 18 Q20 18 20 15 Q20 12 24 6 Z"/>
    </g>
    <g stroke="url(#g)" stroke-width="1.5" stroke-linecap="round" stroke-linejoin="round">
        <rect x="18" y="20" width="12" height="22" rx="1.5"/>
        <line x1="24" y1="20" x2="24" y2="14"/>
        <path d="M24 6 Q28 12 28 15 Q28 18 24 18 Q20 18 20 15 Q20 12 24 6 Z"/>
    </g>
  </g>
</svg>