<svg xmlns="http://www.w3.org/2000/svg" viewBox="0 0 48 48">
  <defs>
    <linearGradient id="g" x1="0%" y1="0%" x2="100%" y2="100%">
      <stop offset="0%" stop-color="#c0d2e6"/>
      <stop offset="100%" stop-color="#3f556e"/>
    </linearGradient>
    <filter id="sh" x="-30%" y="-30%" width="160%" height="160%">
      <feDropShadow dx="2.5" dy="3.5" stdDeviation="3" flood-color="#1a1a2e" flood-opacity="0.45"/>
    </filter>
  </defs>
  <g filter="url(#sh)" fill="none">
    <g stroke="#1d2732" stroke-width="4.5" stroke-linecap="round" stroke-linejoin="round" transform="translate(2,2)">
<path d="M12 42 L12 18 Q12 6 24 6 Q36 6 36 18"/>
        <line x1="12" y1="30" x2="24" y2="18"/>
    </g>
    <g stroke="#3f556e" stroke-width="3" stroke-linecap="round" stroke-linejoin="round" transform="translate(1,1)">
<path d="M12 42 L12 18 Q12 6 24 6 Q36 6 36 18"/>
        <line x1="12" y1="30" x2="24" y2="18"/>
    </g>
    <g stroke="url(#g)" stroke-width="1.5" stroke-linecap="round" stroke-linejoin="round">
<path d="M12 42 L12 18 Q12 6 24 6 Q36 6 36 18"/>
        <line x1="12" y1="30" x2="24" y2="18"/>
    </g>
  </g>
</svg>