<svg xmlns="http://www.w3.org/2000/svg" viewBox="0 0 48 48">
  <defs>
    <linearGradient id="g" x1="0%" y1="0%" x2="100%" y2="100%">
      <stop offset="0%" stop-color="#d6a6c4"/>
      <stop offset="100%" stop-color="#290e1f"/>
    </linearGradient>
    <filter id="shadow" x="-30%" y="-30%" width="160%" height="160%">
      <feDropShadow dx="2.5" dy="3.5" stdDeviation="3" flood-color="#1a1a2e" flood-opacity="0.45"/>
    </filter>
  </defs>
  <g filter="url(#shadow)" fill="none">
    <g stroke="#14070f" stroke-width="4.5" stroke-linecap="round" stroke-linejoin="round" transform="translate(2,2)">
    <line x1="24" y1="8" x2="24" y2="44"/>
    <ellipse cx="24" cy="44" rx="4" ry="2"/>
    <path d="M24 8 Q20 12 22 14 Q24 16 26 14 Q28 12 24 8"/>
    <rect x="20" y="30" width="8" height="14" rx="2"/>
    </g>
    <g stroke="#290e1f" stroke-width="3" stroke-linecap="round" stroke-linejoin="round" transform="translate(1,1)">
    <line x1="24" y1="8" x2="24" y2="44"/>
    <ellipse cx="24" cy="44" rx="4" ry="2"/>
    <path d="M24 8 Q20 12 22 14 Q24 16 26 14 Q28 12 24 8"/>
    <rect x="20" y="30" width="8" height="14" rx="2"/>
    </g>
    <g stroke="url(#g)" stroke-width="1.5" stroke-linecap="round" stroke-linejoin="round">
    <line x1="24" y1="8" x2="24" y2="44"/>
    <ellipse cx="24" cy="44" rx="4" ry="2"/>
    <path d="M24 8 Q20 12 22 14 Q24 16 26 14 Q28 12 24 8"/>
    <rect x="20" y="30" width="8" height="14" rx="2"/>
    </g>
  </g>
</svg>