<svg xmlns="http://www.w3.org/2000/svg" viewBox="0 0 48 48">
  <defs>
    <linearGradient id="g" x1="0%" y1="0%" x2="100%" y2="100%">
      <stop offset="0%" stop-color="#d7b2e5"/>
      <stop offset="100%" stop-color="#2a1531"/>
    </linearGradient>
    <filter id="shadow" x="-30%" y="-30%" width="160%" height="160%">
      <feDropShadow dx="2.5" dy="3.5" stdDeviation="3" flood-color="#1a1a2e" flood-opacity="0.45"/>
    </filter>
  </defs>
  <g filter="url(#shadow)" fill="none">
    <g stroke="#150a18" stroke-width="4.5" stroke-linecap="round" stroke-linejoin="round" transform="translate(2,2)">
    <path d="M18 8 L18 32 Q18 40 30 40 Q36 40 36 34 Q36 30 30 30 Q26 30 26 34"/>
    <line x1="18" y1="4" x2="18" y2="8" stroke-width="3"/>
    </g>
    <g stroke="#2a1531" stroke-width="3" stroke-linecap="round" stroke-linejoin="round" transform="translate(1,1)">
    <path d="M18 8 L18 32 Q18 40 30 40 Q36 40 36 34 Q36 30 30 30 Q26 30 26 34"/>
    <line x1="18" y1="4" x2="18" y2="8" stroke-width="3"/>
    </g>
    <g stroke="url(#g)" stroke-width="1.5" stroke-linecap="round" stroke-linejoin="round">
    <path d="M18 8 L18 32 Q18 40 30 40 Q36 40 36 34 Q36 30 30 30 Q26 30 26 34"/>
    <line x1="18" y1="4" x2="18" y2="8" stroke-width="3"/>
    </g>
  </g>
</svg>