<svg xmlns="http://www.w3.org/2000/svg" viewBox="0 0 48 48">
  <defs>
    <linearGradient id="g" x1="0%" y1="0%" x2="100%" y2="100%">
      <stop offset="0%" stop-color="#c9aea9"/>
      <stop offset="100%" stop-color="#211310"/>
    </linearGradient>
    <filter id="shadow" x="-30%" y="-30%" width="160%" height="160%">
      <feDropShadow dx="2.5" dy="3.5" stdDeviation="3" flood-color="#1a1a2e" flood-opacity="0.45"/>
    </filter>
  </defs>
  <g filter="url(#shadow)" fill="none">
    <g stroke="#100908" stroke-width="4.5" stroke-linecap="round" stroke-linejoin="round" transform="translate(2,2)">
    <rect x="10" y="6" width="28" height="28" rx="6"/>
    <rect x="10" y="34" width="28" height="8" rx="2"/>
    <rect x="20" y="4" width="8" height="6" rx="2"/>
    <line x1="20" y1="10" x2="20" y2="28 M28 10 L28 28"/>
    </g>
    <g stroke="#211310" stroke-width="3" stroke-linecap="round" stroke-linejoin="round" transform="translate(1,1)">
    <rect x="10" y="6" width="28" height="28" rx="6"/>
    <rect x="10" y="34" width="28" height="8" rx="2"/>
    <rect x="20" y="4" width="8" height="6" rx="2"/>
    <line x1="20" y1="10" x2="20" y2="28 M28 10 L28 28"/>
    </g>
    <g stroke="url(#g)" stroke-width="1.5" stroke-linecap="round" stroke-linejoin="round">
    <rect x="10" y="6" width="28" height="28" rx="6"/>
    <rect x="10" y="34" width="28" height="8" rx="2"/>
    <rect x="20" y="4" width="8" height="6" rx="2"/>
    <line x1="20" y1="10" x2="20" y2="28 M28 10 L28 28"/>
    </g>
  </g>
</svg>