<svg xmlns="http://www.w3.org/2000/svg" viewBox="0 0 48 48">
  <defs>
    <linearGradient id="g" x1="0%" y1="0%" x2="100%" y2="100%">
      <stop offset="0%" stop-color="#cae6e6"/>
      <stop offset="100%" stop-color="#223232"/>
    </linearGradient>
    <filter id="shadow" x="-30%" y="-30%" width="160%" height="160%">
      <feDropShadow dx="2.5" dy="3.5" stdDeviation="3" flood-color="#1a1a2e" flood-opacity="0.45"/>
    </filter>
  </defs>
  <g filter="url(#shadow)" fill="none">
    <g stroke="#111919" stroke-width="4.5" stroke-linecap="round" stroke-linejoin="round" transform="translate(2,2)">
    <path d="M4 12 L16 20 L24 14 L36 22 L44 16"/>
    <path d="M4 32 L16 24 L24 30 L36 22 L44 28"/>
    <line x1="16" y1="20" x2="16" y2="24 M36 22 L36 28"/>
    </g>
    <g stroke="#223232" stroke-width="3" stroke-linecap="round" stroke-linejoin="round" transform="translate(1,1)">
    <path d="M4 12 L16 20 L24 14 L36 22 L44 16"/>
    <path d="M4 32 L16 24 L24 30 L36 22 L44 28"/>
    <line x1="16" y1="20" x2="16" y2="24 M36 22 L36 28"/>
    </g>
    <g stroke="url(#g)" stroke-width="1.5" stroke-linecap="round" stroke-linejoin="round">
    <path d="M4 12 L16 20 L24 14 L36 22 L44 16"/>
    <path d="M4 32 L16 24 L24 30 L36 22 L44 28"/>
    <line x1="16" y1="20" x2="16" y2="24 M36 22 L36 28"/>
    </g>
  </g>
</svg>