<svg xmlns="http://www.w3.org/2000/svg" viewBox="0 0 48 48">
  <defs>
    <linearGradient id="iconGrad" x1="0%" y1="0%" x2="100%" y2="100%">
      <stop offset="0%" stop-color="#FFAB91"/>
      <stop offset="100%" stop-color="#803822"/>
    </linearGradient>
    <filter id="shadow" x="-30%" y="-30%" width="160%" height="160%">
      <feDropShadow dx="2.5" dy="3.5" stdDeviation="3" flood-color="#1a1a2e" flood-opacity="0.45"/>
    </filter>
  </defs>
  <g filter="url(#shadow)" fill="none">
    <g stroke="#401C11" stroke-width="4.5" stroke-linecap="round" stroke-linejoin="round" transform="translate(2,2)">
      <path d="M6 30 L6 22 C6 14 14 12 20 12 L24 12 L28 8 L40 8 C44 8 44 12 44 16 L44 30 Z"/>
      <circle cx="16" cy="32" r="4" fill="#607D8B"/>
      <circle cx="34" cy="32" r="4" fill="#607D8B"/>
    </g>
    <g stroke="#803822" stroke-width="3" stroke-linecap="round" stroke-linejoin="round" transform="translate(1,1)">
      <path d="M6 30 L6 22 C6 14 14 12 20 12 L24 12 L28 8 L40 8 C44 8 44 12 44 16 L44 30 Z"/>
      <circle cx="16" cy="32" r="4" fill="#607D8B"/>
      <circle cx="34" cy="32" r="4" fill="#607D8B"/>
    </g>
    <g stroke="url(#iconGrad)" stroke-width="1.5" stroke-linecap="round" stroke-linejoin="round">
      <path d="M6 30 L6 22 C6 14 14 12 20 12 L24 12 L28 8 L40 8 C44 8 44 12 44 16 L44 30 Z"/>
      <circle cx="16" cy="32" r="4" fill="#607D8B"/>
      <circle cx="34" cy="32" r="4" fill="#607D8B"/>
    </g>
  </g>
</svg>