<svg xmlns="http://www.w3.org/2000/svg" viewBox="0 0 48 48">
  <defs>
    <linearGradient id="g" x1="0%" y1="0%" x2="100%" y2="100%">
      <stop offset="0%" stop-color="#cec0e5"/>
      <stop offset="100%" stop-color="#251c31"/>
    </linearGradient>
    <filter id="shadow" x="-30%" y="-30%" width="160%" height="160%">
      <feDropShadow dx="2.5" dy="3.5" stdDeviation="3" flood-color="#1a1a2e" flood-opacity="0.45"/>
    </filter>
  </defs>
  <g filter="url(#shadow)" fill="none">
    <g stroke="#120e18" stroke-width="4.5" stroke-linecap="round" stroke-linejoin="round" transform="translate(2,2)">
    <rect x="6" y="8" width="16" height="28" rx="3"/>
    <rect x="14" y="12" width="16" height="28" rx="3"/>
    <rect x="22" y="8" width="16" height="28" rx="3"/>
    <circle cx="14" cy="18" r="2" fill="currentColor"/>
    <circle cx="22" cy="18" r="2" fill="currentColor"/>
    <circle cx="30" cy="18" r="2" fill="currentColor"/>
    </g>
    <g stroke="#251c31" stroke-width="3" stroke-linecap="round" stroke-linejoin="round" transform="translate(1,1)">
    <rect x="6" y="8" width="16" height="28" rx="3"/>
    <rect x="14" y="12" width="16" height="28" rx="3"/>
    <rect x="22" y="8" width="16" height="28" rx="3"/>
    <circle cx="14" cy="18" r="2" fill="currentColor"/>
    <circle cx="22" cy="18" r="2" fill="currentColor"/>
    <circle cx="30" cy="18" r="2" fill="currentColor"/>
    </g>
    <g stroke="url(#g)" stroke-width="1.5" stroke-linecap="round" stroke-linejoin="round">
    <rect x="6" y="8" width="16" height="28" rx="3"/>
    <rect x="14" y="12" width="16" height="28" rx="3"/>
    <rect x="22" y="8" width="16" height="28" rx="3"/>
    <circle cx="14" cy="18" r="2" fill="currentColor"/>
    <circle cx="22" cy="18" r="2" fill="currentColor"/>
    <circle cx="30" cy="18" r="2" fill="currentColor"/>
    </g>
  </g>
</svg>