<svg xmlns="http://www.w3.org/2000/svg" viewBox="0 0 48 48">
  <defs>
    <linearGradient id="g" x1="0%" y1="0%" x2="100%" y2="100%">
      <stop offset="0%" stop-color="#a8bdce"/>
      <stop offset="100%" stop-color="#223b50"/>
    </linearGradient>
    <filter id="sh" x="-30%" y="-30%" width="160%" height="160%">
      <feDropShadow dx="2.5" dy="3.5" stdDeviation="3" flood-color="#1a1a2e" flood-opacity="0.45"/>
    </filter>
  </defs>
  <g filter="url(#sh)" fill="none">
    <g stroke="#0f1b24" stroke-width="4.5" stroke-linecap="round" stroke-linejoin="round" transform="translate(2,2)">
<path d="M8 24 Q8 6 24 6 Q40 6 40 24 Z"/>
        <path d="M8 28 L40 28 L40 36 L8 36 Z"/>
    </g>
    <g stroke="#223b50" stroke-width="3" stroke-linecap="round" stroke-linejoin="round" transform="translate(1,1)">
<path d="M8 24 Q8 6 24 6 Q40 6 40 24 Z"/>
        <path d="M8 28 L40 28 L40 36 L8 36 Z"/>
    </g>
    <g stroke="url(#g)" stroke-width="1.5" stroke-linecap="round" stroke-linejoin="round">
<path d="M8 24 Q8 6 24 6 Q40 6 40 24 Z"/>
        <path d="M8 28 L40 28 L40 36 L8 36 Z"/>
    </g>
  </g>
</svg>