<svg xmlns="http://www.w3.org/2000/svg" viewBox="0 0 48 48">
  <defs>
    <linearGradient id="g" x1="0%" y1="0%" x2="100%" y2="100%">
      <stop offset="0%" stop-color="#a0a8c9"/>
      <stop offset="100%" stop-color="#19224b"/>
    </linearGradient>
    <filter id="sh" x="-30%" y="-30%" width="160%" height="160%">
      <feDropShadow dx="2.5" dy="3.5" stdDeviation="3" flood-color="#1a1a2e" flood-opacity="0.45"/>
    </filter>
  </defs>
  <g filter="url(#sh)" fill="none">
    <g stroke="#0b0f22" stroke-width="4.5" stroke-linecap="round" stroke-linejoin="round" transform="translate(2,2)">
<rect x="8" y="16" width="32" height="28"/>
        <rect x="12" y="6" width="24" height="10" rx="2"/>
        <rect x="8" y="16" width="32" height="4"/>
        <circle cx="12" cy="10" r="1.5"/>
        <circle cx="36" cy="10" r="1.5"/>
    </g>
    <g stroke="#19224b" stroke-width="3" stroke-linecap="round" stroke-linejoin="round" transform="translate(1,1)">
<rect x="8" y="16" width="32" height="28"/>
        <rect x="12" y="6" width="24" height="10" rx="2"/>
        <rect x="8" y="16" width="32" height="4"/>
        <circle cx="12" cy="10" r="1.5"/>
        <circle cx="36" cy="10" r="1.5"/>
    </g>
    <g stroke="url(#g)" stroke-width="1.5" stroke-linecap="round" stroke-linejoin="round">
<rect x="8" y="16" width="32" height="28"/>
        <rect x="12" y="6" width="24" height="10" rx="2"/>
        <rect x="8" y="16" width="32" height="4"/>
        <circle cx="12" cy="10" r="1.5"/>
        <circle cx="36" cy="10" r="1.5"/>
    </g>
  </g>
</svg>