<svg xmlns="http://www.w3.org/2000/svg" viewBox="0 0 48 48">
  <defs>
    <linearGradient id="g" x1="0%" y1="0%" x2="100%" y2="100%">
      <stop offset="0%" stop-color="#c9c9ad"/>
      <stop offset="100%" stop-color="#222112"/>
    </linearGradient>
    <filter id="shadow" x="-30%" y="-30%" width="160%" height="160%">
      <feDropShadow dx="2.5" dy="3.5" stdDeviation="3" flood-color="#1a1a2e" flood-opacity="0.45"/>
    </filter>
  </defs>
  <g filter="url(#shadow)" fill="none">
    <g stroke="#111009" stroke-width="4.5" stroke-linecap="round" stroke-linejoin="round" transform="translate(2,2)">
    <path d="M4 32 Q24 22 44 32 L42 40 L6 40 Z"/>
    <rect x="6" y="32" width="36" height="4" rx="2"/>
    <line x1="14" y1="28" x2="14" y2="40"/>
    <line x1="34" y1="28" x2="34" y2="40"/>
    <line x1="24" y1="28" x2="24" y2="40"/>
    </g>
    <g stroke="#222112" stroke-width="3" stroke-linecap="round" stroke-linejoin="round" transform="translate(1,1)">
    <path d="M4 32 Q24 22 44 32 L42 40 L6 40 Z"/>
    <rect x="6" y="32" width="36" height="4" rx="2"/>
    <line x1="14" y1="28" x2="14" y2="40"/>
    <line x1="34" y1="28" x2="34" y2="40"/>
    <line x1="24" y1="28" x2="24" y2="40"/>
    </g>
    <g stroke="url(#g)" stroke-width="1.5" stroke-linecap="round" stroke-linejoin="round">
    <path d="M4 32 Q24 22 44 32 L42 40 L6 40 Z"/>
    <rect x="6" y="32" width="36" height="4" rx="2"/>
    <line x1="14" y1="28" x2="14" y2="40"/>
    <line x1="34" y1="28" x2="34" y2="40"/>
    <line x1="24" y1="28" x2="24" y2="40"/>
    </g>
  </g>
</svg>