<svg xmlns="http://www.w3.org/2000/svg" viewBox="0 0 48 48">
  <defs>
    <linearGradient id="g" x1="0%" y1="0%" x2="100%" y2="100%">
      <stop offset="0%" stop-color="#b7d5ba"/>
      <stop offset="100%" stop-color="#345938"/>
    </linearGradient>
    <filter id="sh" x="-30%" y="-30%" width="160%" height="160%">
      <feDropShadow dx="2.5" dy="3.5" stdDeviation="3" flood-color="#1a1a2e" flood-opacity="0.45"/>
    </filter>
  </defs>
  <g filter="url(#sh)" fill="none">
    <g stroke="#182819" stroke-width="4.5" stroke-linecap="round" stroke-linejoin="round" transform="translate(2,2)">
<path d="M12 24 Q12 8 24 8 Q36 8 36 24"/>
        <line x1="24" y1="8" x2="24" y2="42"/>
        <circle cx="16" cy="32" r="5"/>
        <circle cx="32" cy="32" r="5"/>
    </g>
    <g stroke="#345938" stroke-width="3" stroke-linecap="round" stroke-linejoin="round" transform="translate(1,1)">
<path d="M12 24 Q12 8 24 8 Q36 8 36 24"/>
        <line x1="24" y1="8" x2="24" y2="42"/>
        <circle cx="16" cy="32" r="5"/>
        <circle cx="32" cy="32" r="5"/>
    </g>
    <g stroke="url(#g)" stroke-width="1.5" stroke-linecap="round" stroke-linejoin="round">
<path d="M12 24 Q12 8 24 8 Q36 8 36 24"/>
        <line x1="24" y1="8" x2="24" y2="42"/>
        <circle cx="16" cy="32" r="5"/>
        <circle cx="32" cy="32" r="5"/>
    </g>
  </g>
</svg>