<svg xmlns="http://www.w3.org/2000/svg" viewBox="0 0 48 48">
  <defs>
    <linearGradient id="g" x1="0%" y1="0%" x2="100%" y2="100%">
      <stop offset="0%" stop-color="#acb0e4"/>
      <stop offset="100%" stop-color="#121431"/>
    </linearGradient>
    <filter id="shadow" x="-30%" y="-30%" width="160%" height="160%">
      <feDropShadow dx="2.5" dy="3.5" stdDeviation="3" flood-color="#1a1a2e" flood-opacity="0.45"/>
    </filter>
  </defs>
  <g filter="url(#shadow)" fill="none">
    <g stroke="#090a18" stroke-width="4.5" stroke-linecap="round" stroke-linejoin="round" transform="translate(2,2)">
    <ellipse cx="30" cy="24" rx="10" ry="8"/>
    <rect x="6" y="18" width="16" height="16" rx="4"/>
    <ellipse cx="30" cy="24" rx="6" ry="4"/>
    <circle cx="30" cy="24" r="2" fill="currentColor"/>
    <polygon points="6,34 6,42 22,42 22,34"/>
    </g>
    <g stroke="#121431" stroke-width="3" stroke-linecap="round" stroke-linejoin="round" transform="translate(1,1)">
    <ellipse cx="30" cy="24" rx="10" ry="8"/>
    <rect x="6" y="18" width="16" height="16" rx="4"/>
    <ellipse cx="30" cy="24" rx="6" ry="4"/>
    <circle cx="30" cy="24" r="2" fill="currentColor"/>
    <polygon points="6,34 6,42 22,42 22,34"/>
    </g>
    <g stroke="url(#g)" stroke-width="1.5" stroke-linecap="round" stroke-linejoin="round">
    <ellipse cx="30" cy="24" rx="10" ry="8"/>
    <rect x="6" y="18" width="16" height="16" rx="4"/>
    <ellipse cx="30" cy="24" rx="6" ry="4"/>
    <circle cx="30" cy="24" r="2" fill="currentColor"/>
    <polygon points="6,34 6,42 22,42 22,34"/>
    </g>
  </g>
</svg>