<svg xmlns="http://www.w3.org/2000/svg" viewBox="0 0 48 48">
  <defs>
    <linearGradient id="g" x1="0%" y1="0%" x2="100%" y2="100%">
      <stop offset="0%" stop-color="#cdc8b7"/>
      <stop offset="100%" stop-color="#242118"/>
    </linearGradient>
    <filter id="shadow" x="-30%" y="-30%" width="160%" height="160%">
      <feDropShadow dx="2.5" dy="3.5" stdDeviation="3" flood-color="#1a1a2e" flood-opacity="0.45"/>
    </filter>
  </defs>
  <g filter="url(#shadow)" fill="none">
    <g stroke="#12100c" stroke-width="4.5" stroke-linecap="round" stroke-linejoin="round" transform="translate(2,2)">
    <ellipse cx="24" cy="12" rx="16" ry="3"/>
    <circle cx="12" cy="12" r="4"/>
    <circle cx="10" cy="10" r="1.5"/>
    <line x1="8" y1="14" x2="4" y2="20 M12" y1="14" x2="12" y2="20 M18" y1="14" x2="14" y2="20"/>
    <line x1="22" y1="14" x2="22" y2="20 M28" y1="14" x2="28" y2="20 M34" y1="14" x2="34" y2="20"/>
    </g>
    <g stroke="#242118" stroke-width="3" stroke-linecap="round" stroke-linejoin="round" transform="translate(1,1)">
    <ellipse cx="24" cy="12" rx="16" ry="3"/>
    <circle cx="12" cy="12" r="4"/>
    <circle cx="10" cy="10" r="1.5"/>
    <line x1="8" y1="14" x2="4" y2="20 M12" y1="14" x2="12" y2="20 M18" y1="14" x2="14" y2="20"/>
    <line x1="22" y1="14" x2="22" y2="20 M28" y1="14" x2="28" y2="20 M34" y1="14" x2="34" y2="20"/>
    </g>
    <g stroke="url(#g)" stroke-width="1.5" stroke-linecap="round" stroke-linejoin="round">
    <ellipse cx="24" cy="12" rx="16" ry="3"/>
    <circle cx="12" cy="12" r="4"/>
    <circle cx="10" cy="10" r="1.5"/>
    <line x1="8" y1="14" x2="4" y2="20 M12" y1="14" x2="12" y2="20 M18" y1="14" x2="14" y2="20"/>
    <line x1="22" y1="14" x2="22" y2="20 M28" y1="14" x2="28" y2="20 M34" y1="14" x2="34" y2="20"/>
    </g>
  </g>
</svg>