<svg xmlns="http://www.w3.org/2000/svg" viewBox="0 0 48 48">
  <defs>
    <linearGradient id="g" x1="0%" y1="0%" x2="100%" y2="100%">
      <stop offset="0%" stop-color="#e5c8bb"/>
      <stop offset="100%" stop-color="#31211a"/>
    </linearGradient>
    <filter id="shadow" x="-30%" y="-30%" width="160%" height="160%">
      <feDropShadow dx="2.5" dy="3.5" stdDeviation="3" flood-color="#1a1a2e" flood-opacity="0.45"/>
    </filter>
  </defs>
  <g filter="url(#shadow)" fill="none">
    <g stroke="#18100d" stroke-width="4.5" stroke-linecap="round" stroke-linejoin="round" transform="translate(2,2)">
    <rect x="6" y="4" width="36" height="40" rx="2"/>
    <rect x="10" y="8" width="28" height="22" rx="1"/>
    <line x1="14" y1="34" x2="34" y2="34 M14" y1="38" x2="28" y2="38"/>
    <circle cx="24" cy="24" r="3" fill="currentColor"/>
    </g>
    <g stroke="#31211a" stroke-width="3" stroke-linecap="round" stroke-linejoin="round" transform="translate(1,1)">
    <rect x="6" y="4" width="36" height="40" rx="2"/>
    <rect x="10" y="8" width="28" height="22" rx="1"/>
    <line x1="14" y1="34" x2="34" y2="34 M14" y1="38" x2="28" y2="38"/>
    <circle cx="24" cy="24" r="3" fill="currentColor"/>
    </g>
    <g stroke="url(#g)" stroke-width="1.5" stroke-linecap="round" stroke-linejoin="round">
    <rect x="6" y="4" width="36" height="40" rx="2"/>
    <rect x="10" y="8" width="28" height="22" rx="1"/>
    <line x1="14" y1="34" x2="34" y2="34 M14" y1="38" x2="28" y2="38"/>
    <circle cx="24" cy="24" r="3" fill="currentColor"/>
    </g>
  </g>
</svg>