<svg xmlns="http://www.w3.org/2000/svg" viewBox="0 0 48 48">
  <defs>
    <linearGradient id="g" x1="0%" y1="0%" x2="100%" y2="100%">
      <stop offset="0%" stop-color="#c5a8b9"/>
      <stop offset="100%" stop-color="#1f0f19"/>
    </linearGradient>
    <filter id="shadow" x="-30%" y="-30%" width="160%" height="160%">
      <feDropShadow dx="2.5" dy="3.5" stdDeviation="3" flood-color="#1a1a2e" flood-opacity="0.45"/>
    </filter>
  </defs>
  <g filter="url(#shadow)" fill="none">
    <g stroke="#0f070c" stroke-width="4.5" stroke-linecap="round" stroke-linejoin="round" transform="translate(2,2)">
    <circle cx="10" cy="10" r="5" fill="none" stroke-width="3"/>
    <circle cx="24" cy="18" r="5" fill="none" stroke-width="3"/>
    <circle cx="36" cy="28" r="5" fill="none" stroke-width="3"/>
    <circle cx="14" cy="38" r="5" fill="none" stroke-width="3"/>
    <line x1="14" y1="13" x2="20" y2="16 M28 21 L32 24 M38 32 L18 36"/>
    </g>
    <g stroke="#1f0f19" stroke-width="3" stroke-linecap="round" stroke-linejoin="round" transform="translate(1,1)">
    <circle cx="10" cy="10" r="5" fill="none" stroke-width="3"/>
    <circle cx="24" cy="18" r="5" fill="none" stroke-width="3"/>
    <circle cx="36" cy="28" r="5" fill="none" stroke-width="3"/>
    <circle cx="14" cy="38" r="5" fill="none" stroke-width="3"/>
    <line x1="14" y1="13" x2="20" y2="16 M28 21 L32 24 M38 32 L18 36"/>
    </g>
    <g stroke="url(#g)" stroke-width="1.5" stroke-linecap="round" stroke-linejoin="round">
    <circle cx="10" cy="10" r="5" fill="none" stroke-width="3"/>
    <circle cx="24" cy="18" r="5" fill="none" stroke-width="3"/>
    <circle cx="36" cy="28" r="5" fill="none" stroke-width="3"/>
    <circle cx="14" cy="38" r="5" fill="none" stroke-width="3"/>
    <line x1="14" y1="13" x2="20" y2="16 M28 21 L32 24 M38 32 L18 36"/>
    </g>
  </g>
</svg>