<svg xmlns="http://www.w3.org/2000/svg" viewBox="0 0 48 48">
  <defs>
    <linearGradient id="g" x1="0%" y1="0%" x2="100%" y2="100%">
      <stop offset="0%" stop-color="#dbaecd"/>
      <stop offset="100%" stop-color="#602a50"/>
    </linearGradient>
    <filter id="sh" x="-30%" y="-30%" width="160%" height="160%">
      <feDropShadow dx="2.5" dy="3.5" stdDeviation="3" flood-color="#1a1a2e" flood-opacity="0.45"/>
    </filter>
  </defs>
  <g filter="url(#sh)" fill="none">
    <g stroke="#2b1324" stroke-width="4.5" stroke-linecap="round" stroke-linejoin="round" transform="translate(2,2)">
<ellipse cx="24" cy="26" rx="10" ry="14"/><circle cx="24" cy="8" r="7"/><circle cx="20" cy="6" r="2"/><circle cx="28" cy="6" r="2"/><path d="M28 12 L32 10 M28 16 L34 14 M30 20 L36 18 M30 24 L36 22"/><circle cx="18" cy="24" r="2"/><circle cx="30" cy="24" r="2"/><path d="M18 36 L30 36"/>
    </g>
    <g stroke="#602a50" stroke-width="3" stroke-linecap="round" stroke-linejoin="round" transform="translate(1,1)">
<ellipse cx="24" cy="26" rx="10" ry="14"/><circle cx="24" cy="8" r="7"/><circle cx="20" cy="6" r="2"/><circle cx="28" cy="6" r="2"/><path d="M28 12 L32 10 M28 16 L34 14 M30 20 L36 18 M30 24 L36 22"/><circle cx="18" cy="24" r="2"/><circle cx="30" cy="24" r="2"/><path d="M18 36 L30 36"/>
    </g>
    <g stroke="url(#g)" stroke-width="1.5" stroke-linecap="round" stroke-linejoin="round">
<ellipse cx="24" cy="26" rx="10" ry="14"/><circle cx="24" cy="8" r="7"/><circle cx="20" cy="6" r="2"/><circle cx="28" cy="6" r="2"/><path d="M28 12 L32 10 M28 16 L34 14 M30 20 L36 18 M30 24 L36 22"/><circle cx="18" cy="24" r="2"/><circle cx="30" cy="24" r="2"/><path d="M18 36 L30 36"/>
    </g>
  </g>
</svg>