<svg xmlns="http://www.w3.org/2000/svg" viewBox="0 0 48 48">
  <defs>
    <linearGradient id="g" x1="0%" y1="0%" x2="100%" y2="100%">
      <stop offset="0%" stop-color="#b5dac3"/>
      <stop offset="100%" stop-color="#325f43"/>
    </linearGradient>
    <filter id="sh" x="-30%" y="-30%" width="160%" height="160%">
      <feDropShadow dx="2.5" dy="3.5" stdDeviation="3" flood-color="#1a1a2e" flood-opacity="0.45"/>
    </filter>
  </defs>
  <g filter="url(#sh)" fill="none">
    <g stroke="#162b1e" stroke-width="4.5" stroke-linecap="round" stroke-linejoin="round" transform="translate(2,2)">
<circle cx="12" cy="28" r="8"/>
        <circle cx="36" cy="28" r="8"/>
        <path d="M8 24 Q12 16 16 24 M32 24 Q36 16 40 24"/>
        <line x1="12" y1="16" x2="12" y2="8"/>
        <line x1="36" y1="16" x2="36" y2="8"/>
    </g>
    <g stroke="#325f43" stroke-width="3" stroke-linecap="round" stroke-linejoin="round" transform="translate(1,1)">
<circle cx="12" cy="28" r="8"/>
        <circle cx="36" cy="28" r="8"/>
        <path d="M8 24 Q12 16 16 24 M32 24 Q36 16 40 24"/>
        <line x1="12" y1="16" x2="12" y2="8"/>
        <line x1="36" y1="16" x2="36" y2="8"/>
    </g>
    <g stroke="url(#g)" stroke-width="1.5" stroke-linecap="round" stroke-linejoin="round">
<circle cx="12" cy="28" r="8"/>
        <circle cx="36" cy="28" r="8"/>
        <path d="M8 24 Q12 16 16 24 M32 24 Q36 16 40 24"/>
        <line x1="12" y1="16" x2="12" y2="8"/>
        <line x1="36" y1="16" x2="36" y2="8"/>
    </g>
  </g>
</svg>