<svg xmlns="http://www.w3.org/2000/svg" viewBox="0 0 48 48">
  <defs>
    <linearGradient id="g" x1="0%" y1="0%" x2="100%" y2="100%">
      <stop offset="0%" stop-color="#acc8d5"/>
      <stop offset="100%" stop-color="#112128"/>
    </linearGradient>
    <filter id="shadow" x="-30%" y="-30%" width="160%" height="160%">
      <feDropShadow dx="2.5" dy="3.5" stdDeviation="3" flood-color="#1a1a2e" flood-opacity="0.45"/>
    </filter>
  </defs>
  <g filter="url(#shadow)" fill="none">
    <g stroke="#081014" stroke-width="4.5" stroke-linecap="round" stroke-linejoin="round" transform="translate(2,2)">
    <polygon points="24,4 4,20 24,36 44,20"/>
    <polygon points="24,14 12,24 24,34 36,24"/>
    <polygon points="24,22 18,28 24,34 30,28"/>
    </g>
    <g stroke="#112128" stroke-width="3" stroke-linecap="round" stroke-linejoin="round" transform="translate(1,1)">
    <polygon points="24,4 4,20 24,36 44,20"/>
    <polygon points="24,14 12,24 24,34 36,24"/>
    <polygon points="24,22 18,28 24,34 30,28"/>
    </g>
    <g stroke="url(#g)" stroke-width="1.5" stroke-linecap="round" stroke-linejoin="round">
    <polygon points="24,4 4,20 24,36 44,20"/>
    <polygon points="24,14 12,24 24,34 36,24"/>
    <polygon points="24,22 18,28 24,34 30,28"/>
    </g>
  </g>
</svg>