<svg xmlns="http://www.w3.org/2000/svg" viewBox="0 0 48 48">
  <defs>
    <linearGradient id="g" x1="0%" y1="0%" x2="100%" y2="100%">
      <stop offset="0%" stop-color="#c0cdae"/>
      <stop offset="100%" stop-color="#1d2412"/>
    </linearGradient>
    <filter id="shadow" x="-30%" y="-30%" width="160%" height="160%">
      <feDropShadow dx="2.5" dy="3.5" stdDeviation="3" flood-color="#1a1a2e" flood-opacity="0.45"/>
    </filter>
  </defs>
  <g filter="url(#shadow)" fill="none">
    <g stroke="#0e1209" stroke-width="4.5" stroke-linecap="round" stroke-linejoin="round" transform="translate(2,2)">
    <ellipse cx="24" cy="26" rx="11" ry="14"/>
    <ellipse cx="24" cy="18" rx="7" ry="5"/>
    <circle cx="20" cy="18" r="2.5"/>
    <circle cx="28" cy="18" r="2.5"/>
    <path d="M20 30 Q24 34 28 30"/>
    <ellipse cx="24" cy="34" rx="4" ry="2"/>
    </g>
    <g stroke="#1d2412" stroke-width="3" stroke-linecap="round" stroke-linejoin="round" transform="translate(1,1)">
    <ellipse cx="24" cy="26" rx="11" ry="14"/>
    <ellipse cx="24" cy="18" rx="7" ry="5"/>
    <circle cx="20" cy="18" r="2.5"/>
    <circle cx="28" cy="18" r="2.5"/>
    <path d="M20 30 Q24 34 28 30"/>
    <ellipse cx="24" cy="34" rx="4" ry="2"/>
    </g>
    <g stroke="url(#g)" stroke-width="1.5" stroke-linecap="round" stroke-linejoin="round">
    <ellipse cx="24" cy="26" rx="11" ry="14"/>
    <ellipse cx="24" cy="18" rx="7" ry="5"/>
    <circle cx="20" cy="18" r="2.5"/>
    <circle cx="28" cy="18" r="2.5"/>
    <path d="M20 30 Q24 34 28 30"/>
    <ellipse cx="24" cy="34" rx="4" ry="2"/>
    </g>
  </g>
</svg>