<svg xmlns="http://www.w3.org/2000/svg" viewBox="0 0 48 48">
  <defs>
    <linearGradient id="g" x1="0%" y1="0%" x2="100%" y2="100%">
      <stop offset="0%" stop-color="#d4abb6"/>
      <stop offset="100%" stop-color="#281117"/>
    </linearGradient>
    <filter id="shadow" x="-30%" y="-30%" width="160%" height="160%">
      <feDropShadow dx="2.5" dy="3.5" stdDeviation="3" flood-color="#1a1a2e" flood-opacity="0.45"/>
    </filter>
  </defs>
  <g filter="url(#shadow)" fill="none">
    <g stroke="#14080b" stroke-width="4.5" stroke-linecap="round" stroke-linejoin="round" transform="translate(2,2)">
    <rect x="16" y="4" width="16" height="24" rx="2"/>
    <line x1="16" y1="4" x2="16" y2="44 M32 4 L32 44"/>
    <rect x="12" y="12" width="24" height="8" rx="2"/>
    <path d="M16 28 L16 44 M32 28 L32 44"/>
    </g>
    <g stroke="#281117" stroke-width="3" stroke-linecap="round" stroke-linejoin="round" transform="translate(1,1)">
    <rect x="16" y="4" width="16" height="24" rx="2"/>
    <line x1="16" y1="4" x2="16" y2="44 M32 4 L32 44"/>
    <rect x="12" y="12" width="24" height="8" rx="2"/>
    <path d="M16 28 L16 44 M32 28 L32 44"/>
    </g>
    <g stroke="url(#g)" stroke-width="1.5" stroke-linecap="round" stroke-linejoin="round">
    <rect x="16" y="4" width="16" height="24" rx="2"/>
    <line x1="16" y1="4" x2="16" y2="44 M32 4 L32 44"/>
    <rect x="12" y="12" width="24" height="8" rx="2"/>
    <path d="M16 28 L16 44 M32 28 L32 44"/>
    </g>
  </g>
</svg>