<svg xmlns="http://www.w3.org/2000/svg" viewBox="0 0 48 48">
  <defs>
    <linearGradient id="g" x1="0%" y1="0%" x2="100%" y2="100%">
      <stop offset="0%" stop-color="#b9accc"/>
      <stop offset="100%" stop-color="#191223"/>
    </linearGradient>
    <filter id="shadow" x="-30%" y="-30%" width="160%" height="160%">
      <feDropShadow dx="2.5" dy="3.5" stdDeviation="3" flood-color="#1a1a2e" flood-opacity="0.45"/>
    </filter>
  </defs>
  <g filter="url(#shadow)" fill="none">
    <g stroke="#0c0911" stroke-width="4.5" stroke-linecap="round" stroke-linejoin="round" transform="translate(2,2)">
    <path d="M24 4 L24 44 M24 4 L4 24 L4 44 M24 24 L44 16 L44 44"/>
    <path d="M8 28 L20 28 M12 34 L22 34 M6 40 L18 40 M28 30 L40 30 M30 36 L42 36 M32 42 L44 42"/>
    </g>
    <g stroke="#191223" stroke-width="3" stroke-linecap="round" stroke-linejoin="round" transform="translate(1,1)">
    <path d="M24 4 L24 44 M24 4 L4 24 L4 44 M24 24 L44 16 L44 44"/>
    <path d="M8 28 L20 28 M12 34 L22 34 M6 40 L18 40 M28 30 L40 30 M30 36 L42 36 M32 42 L44 42"/>
    </g>
    <g stroke="url(#g)" stroke-width="1.5" stroke-linecap="round" stroke-linejoin="round">
    <path d="M24 4 L24 44 M24 4 L4 24 L4 44 M24 24 L44 16 L44 44"/>
    <path d="M8 28 L20 28 M12 34 L22 34 M6 40 L18 40 M28 30 L40 30 M30 36 L42 36 M32 42 L44 42"/>
    </g>
  </g>
</svg>