<svg xmlns="http://www.w3.org/2000/svg" viewBox="0 0 48 48">
  <defs>
    <linearGradient id="g" x1="0%" y1="0%" x2="100%" y2="100%">
      <stop offset="0%" stop-color="#b9e3b4"/>
      <stop offset="100%" stop-color="#193016"/>
    </linearGradient>
    <filter id="shadow" x="-30%" y="-30%" width="160%" height="160%">
      <feDropShadow dx="2.5" dy="3.5" stdDeviation="3" flood-color="#1a1a2e" flood-opacity="0.45"/>
    </filter>
  </defs>
  <g filter="url(#shadow)" fill="none">
    <g stroke="#0c180b" stroke-width="4.5" stroke-linecap="round" stroke-linejoin="round" transform="translate(2,2)">
    <rect x="8" y="10" width="32" height="34" rx="3"/>
    <rect x="8" y="10" width="32" height="6" rx="2"/>
    <line x1="12" y1="22" x2="36" y2="22 M12 28 L36 28 M12 34 L36 34 M12 40 L36 40"/>
    <circle cx="24" cy="8" r="4"/>
    </g>
    <g stroke="#193016" stroke-width="3" stroke-linecap="round" stroke-linejoin="round" transform="translate(1,1)">
    <rect x="8" y="10" width="32" height="34" rx="3"/>
    <rect x="8" y="10" width="32" height="6" rx="2"/>
    <line x1="12" y1="22" x2="36" y2="22 M12 28 L36 28 M12 34 L36 34 M12 40 L36 40"/>
    <circle cx="24" cy="8" r="4"/>
    </g>
    <g stroke="url(#g)" stroke-width="1.5" stroke-linecap="round" stroke-linejoin="round">
    <rect x="8" y="10" width="32" height="34" rx="3"/>
    <rect x="8" y="10" width="32" height="6" rx="2"/>
    <line x1="12" y1="22" x2="36" y2="22 M12 28 L36 28 M12 34 L36 34 M12 40 L36 40"/>
    <circle cx="24" cy="8" r="4"/>
    </g>
  </g>
</svg>