<svg xmlns="http://www.w3.org/2000/svg" viewBox="0 0 48 48">
  <defs>
    <linearGradient id="g" x1="0%" y1="0%" x2="100%" y2="100%">
      <stop offset="0%" stop-color="#a4b0c0"/>
      <stop offset="100%" stop-color="#0d141d"/>
    </linearGradient>
    <filter id="shadow" x="-30%" y="-30%" width="160%" height="160%">
      <feDropShadow dx="2.5" dy="3.5" stdDeviation="3" flood-color="#1a1a2e" flood-opacity="0.45"/>
    </filter>
  </defs>
  <g filter="url(#shadow)" fill="none">
    <g stroke="#060a0e" stroke-width="4.5" stroke-linecap="round" stroke-linejoin="round" transform="translate(2,2)">
    <path d="M8 20 L10 42 Q10 44 16 44 L32 44 Q36 44 36 42 L38 20 Z"/>
    <line x1="8" y1="28" x2="38" y2="28 M8 36 L38 36"/>
    <rect x="12" y="8" width="20" height="12" rx="6"/>
    </g>
    <g stroke="#0d141d" stroke-width="3" stroke-linecap="round" stroke-linejoin="round" transform="translate(1,1)">
    <path d="M8 20 L10 42 Q10 44 16 44 L32 44 Q36 44 36 42 L38 20 Z"/>
    <line x1="8" y1="28" x2="38" y2="28 M8 36 L38 36"/>
    <rect x="12" y="8" width="20" height="12" rx="6"/>
    </g>
    <g stroke="url(#g)" stroke-width="1.5" stroke-linecap="round" stroke-linejoin="round">
    <path d="M8 20 L10 42 Q10 44 16 44 L32 44 Q36 44 36 42 L38 20 Z"/>
    <line x1="8" y1="28" x2="38" y2="28 M8 36 L38 36"/>
    <rect x="12" y="8" width="20" height="12" rx="6"/>
    </g>
  </g>
</svg>