<svg xmlns="http://www.w3.org/2000/svg" viewBox="0 0 48 48">
  <defs>
    <linearGradient id="iconGrad" x1="0%" y1="0%" x2="100%" y2="100%">
      <stop offset="0%" stop-color="#BBDEFB"/>
      <stop offset="100%" stop-color="#4f6f88"/>
    </linearGradient>
    <filter id="shadow" x="-30%" y="-30%" width="160%" height="160%">
      <feDropShadow dx="2.5" dy="3.5" stdDeviation="3" flood-color="#1a1a2e" flood-opacity="0.45"/>
    </filter>
  </defs>
  <g filter="url(#shadow)" fill="none">
    <g stroke="#273744" stroke-width="4.5" stroke-linecap="round" stroke-linejoin="round" transform="translate(2,2)">
      <path d="M14 30a6 6 0 115.3-9 8 8 0 0114.4-.2A5 5 0 0134 30z"/>
    </g>
    <g stroke="#4f6f88" stroke-width="3" stroke-linecap="round" stroke-linejoin="round" transform="translate(1,1)">
      <path d="M14 30a6 6 0 115.3-9 8 8 0 0114.4-.2A5 5 0 0134 30z"/>
    </g>
    <g stroke="url(#iconGrad)" stroke-width="1.5" stroke-linecap="round" stroke-linejoin="round">
      <path d="M14 30a6 6 0 115.3-9 8 8 0 0114.4-.2A5 5 0 0134 30z"/>
    </g>
  </g>
</svg>
