<svg xmlns="http://www.w3.org/2000/svg" viewBox="0 0 48 48">
  <defs>
    <linearGradient id="g" x1="0%" y1="0%" x2="100%" y2="100%">
      <stop offset="0%" stop-color="#c7b3c5"/>
      <stop offset="100%" stop-color="#483045"/>
    </linearGradient>
    <filter id="sh" x="-30%" y="-30%" width="160%" height="160%">
      <feDropShadow dx="2.5" dy="3.5" stdDeviation="3" flood-color="#1a1a2e" flood-opacity="0.45"/>
    </filter>
  </defs>
  <g filter="url(#sh)" fill="none">
    <g stroke="#21161f" stroke-width="4.5" stroke-linecap="round" stroke-linejoin="round" transform="translate(2,2)">
<circle cx="24" cy="24" r="18"/>
        <circle cx="14" cy="18" r="3"/>
        <circle cx="34" cy="18" r="3"/>
        <path d="M10 32 L38 32"/>
        <path d="M14 24 L34 24"/>
        <rect x="20" y="22" width="8" height="10" rx="2"/>
    </g>
    <g stroke="#483045" stroke-width="3" stroke-linecap="round" stroke-linejoin="round" transform="translate(1,1)">
<circle cx="24" cy="24" r="18"/>
        <circle cx="14" cy="18" r="3"/>
        <circle cx="34" cy="18" r="3"/>
        <path d="M10 32 L38 32"/>
        <path d="M14 24 L34 24"/>
        <rect x="20" y="22" width="8" height="10" rx="2"/>
    </g>
    <g stroke="url(#g)" stroke-width="1.5" stroke-linecap="round" stroke-linejoin="round">
<circle cx="24" cy="24" r="18"/>
        <circle cx="14" cy="18" r="3"/>
        <circle cx="34" cy="18" r="3"/>
        <path d="M10 32 L38 32"/>
        <path d="M14 24 L34 24"/>
        <rect x="20" y="22" width="8" height="10" rx="2"/>
    </g>
  </g>
</svg>