<svg xmlns="http://www.w3.org/2000/svg" viewBox="0 0 48 48">
  <defs>
    <linearGradient id="g" x1="0%" y1="0%" x2="100%" y2="100%">
      <stop offset="0%" stop-color="#b0c8cf"/>
      <stop offset="100%" stop-color="#142125"/>
    </linearGradient>
    <filter id="shadow" x="-30%" y="-30%" width="160%" height="160%">
      <feDropShadow dx="2.5" dy="3.5" stdDeviation="3" flood-color="#1a1a2e" flood-opacity="0.45"/>
    </filter>
  </defs>
  <g filter="url(#shadow)" fill="none">
    <g stroke="#0a1012" stroke-width="4.5" stroke-linecap="round" stroke-linejoin="round" transform="translate(2,2)">
    <rect x="8" y="22" width="32" height="18" rx="6"/>
    <rect x="8" y="22" width="32" height="6" rx="2"/>
    <circle cx="24" cy="26" r="3" fill="currentColor"/>
    <line x1="8" y1="30" x2="40" y2="30"/>
    </g>
    <g stroke="#142125" stroke-width="3" stroke-linecap="round" stroke-linejoin="round" transform="translate(1,1)">
    <rect x="8" y="22" width="32" height="18" rx="6"/>
    <rect x="8" y="22" width="32" height="6" rx="2"/>
    <circle cx="24" cy="26" r="3" fill="currentColor"/>
    <line x1="8" y1="30" x2="40" y2="30"/>
    </g>
    <g stroke="url(#g)" stroke-width="1.5" stroke-linecap="round" stroke-linejoin="round">
    <rect x="8" y="22" width="32" height="18" rx="6"/>
    <rect x="8" y="22" width="32" height="6" rx="2"/>
    <circle cx="24" cy="26" r="3" fill="currentColor"/>
    <line x1="8" y1="30" x2="40" y2="30"/>
    </g>
  </g>
</svg>