<svg xmlns="http://www.w3.org/2000/svg" viewBox="0 0 48 48">
  <defs>
    <linearGradient id="g" x1="0%" y1="0%" x2="100%" y2="100%">
      <stop offset="0%" stop-color="#e3cdc1"/>
      <stop offset="100%" stop-color="#30241d"/>
    </linearGradient>
    <filter id="shadow" x="-30%" y="-30%" width="160%" height="160%">
      <feDropShadow dx="2.5" dy="3.5" stdDeviation="3" flood-color="#1a1a2e" flood-opacity="0.45"/>
    </filter>
  </defs>
  <g filter="url(#shadow)" fill="none">
    <g stroke="#18120e" stroke-width="4.5" stroke-linecap="round" stroke-linejoin="round" transform="translate(2,2)">
    <path d="M24 44 L24 20 Q24 8 16 6 Q12 4 14 8 Q16 12 24 12"/>
    <ellipse cx="24" cy="12" rx="8" ry="4"/>
    <circle cx="22" cy="10" r="2"/>
    <path d="M16 12 L12 8 M28 12 L36 8"/>
    </g>
    <g stroke="#30241d" stroke-width="3" stroke-linecap="round" stroke-linejoin="round" transform="translate(1,1)">
    <path d="M24 44 L24 20 Q24 8 16 6 Q12 4 14 8 Q16 12 24 12"/>
    <ellipse cx="24" cy="12" rx="8" ry="4"/>
    <circle cx="22" cy="10" r="2"/>
    <path d="M16 12 L12 8 M28 12 L36 8"/>
    </g>
    <g stroke="url(#g)" stroke-width="1.5" stroke-linecap="round" stroke-linejoin="round">
    <path d="M24 44 L24 20 Q24 8 16 6 Q12 4 14 8 Q16 12 24 12"/>
    <ellipse cx="24" cy="12" rx="8" ry="4"/>
    <circle cx="22" cy="10" r="2"/>
    <path d="M16 12 L12 8 M28 12 L36 8"/>
    </g>
  </g>
</svg>