<svg xmlns="http://www.w3.org/2000/svg" viewBox="0 0 48 48">
  <defs>
    <linearGradient id="g" x1="0%" y1="0%" x2="100%" y2="100%">
      <stop offset="0%" stop-color="#bdbeda"/>
      <stop offset="100%" stop-color="#1b1c2b"/>
    </linearGradient>
    <filter id="shadow" x="-30%" y="-30%" width="160%" height="160%">
      <feDropShadow dx="2.5" dy="3.5" stdDeviation="3" flood-color="#1a1a2e" flood-opacity="0.45"/>
    </filter>
  </defs>
  <g filter="url(#shadow)" fill="none">
    <g stroke="#0d0e15" stroke-width="4.5" stroke-linecap="round" stroke-linejoin="round" transform="translate(2,2)">
    <ellipse cx="24" cy="22" rx="10" ry="5"/>
    <ellipse cx="24" cy="14" rx="6" ry="4"/>
    <circle cx="24" cy="12" r="2"/>
    <path d="M14 20 L6 14 M34 20 L42 14"/>
    <path d="M14 24 L6 30 M34 24 L42 30"/>
    <path d="M24 22 L24 44 M20 24 L20 32 M28 24 L28 32"/>
    </g>
    <g stroke="#1b1c2b" stroke-width="3" stroke-linecap="round" stroke-linejoin="round" transform="translate(1,1)">
    <ellipse cx="24" cy="22" rx="10" ry="5"/>
    <ellipse cx="24" cy="14" rx="6" ry="4"/>
    <circle cx="24" cy="12" r="2"/>
    <path d="M14 20 L6 14 M34 20 L42 14"/>
    <path d="M14 24 L6 30 M34 24 L42 30"/>
    <path d="M24 22 L24 44 M20 24 L20 32 M28 24 L28 32"/>
    </g>
    <g stroke="url(#g)" stroke-width="1.5" stroke-linecap="round" stroke-linejoin="round">
    <ellipse cx="24" cy="22" rx="10" ry="5"/>
    <ellipse cx="24" cy="14" rx="6" ry="4"/>
    <circle cx="24" cy="12" r="2"/>
    <path d="M14 20 L6 14 M34 20 L42 14"/>
    <path d="M14 24 L6 30 M34 24 L42 30"/>
    <path d="M24 22 L24 44 M20 24 L20 32 M28 24 L28 32"/>
    </g>
  </g>
</svg>