<svg xmlns="http://www.w3.org/2000/svg" viewBox="0 0 48 48">
  <defs>
    <linearGradient id="g" x1="0%" y1="0%" x2="100%" y2="100%">
      <stop offset="0%" stop-color="#acbbd5"/>
      <stop offset="100%" stop-color="#273959"/>
    </linearGradient>
    <filter id="sh" x="-30%" y="-30%" width="160%" height="160%">
      <feDropShadow dx="2.5" dy="3.5" stdDeviation="3" flood-color="#1a1a2e" flood-opacity="0.45"/>
    </filter>
  </defs>
  <g filter="url(#sh)" fill="none">
    <g stroke="#111a28" stroke-width="4.5" stroke-linecap="round" stroke-linejoin="round" transform="translate(2,2)">
<ellipse cx="24" cy="16" rx="16" ry="6"/><path d="M8 16 L8 36 Q8 42 24 42 Q40 42 40 36 L40 16"/><line x1="8" y1="24" x2="40" y2="24"/><line x1="8" y1="32" x2="40" y2="32"/><circle cx="14" cy="18" r="1.5"/><circle cx="24" cy="18" r="1.5"/><circle cx="34" cy="18" r="1.5"/><circle cx="18" cy="28" r="1.5"/><circle cx="30" cy="28" r="1.5"/>
    </g>
    <g stroke="#273959" stroke-width="3" stroke-linecap="round" stroke-linejoin="round" transform="translate(1,1)">
<ellipse cx="24" cy="16" rx="16" ry="6"/><path d="M8 16 L8 36 Q8 42 24 42 Q40 42 40 36 L40 16"/><line x1="8" y1="24" x2="40" y2="24"/><line x1="8" y1="32" x2="40" y2="32"/><circle cx="14" cy="18" r="1.5"/><circle cx="24" cy="18" r="1.5"/><circle cx="34" cy="18" r="1.5"/><circle cx="18" cy="28" r="1.5"/><circle cx="30" cy="28" r="1.5"/>
    </g>
    <g stroke="url(#g)" stroke-width="1.5" stroke-linecap="round" stroke-linejoin="round">
<ellipse cx="24" cy="16" rx="16" ry="6"/><path d="M8 16 L8 36 Q8 42 24 42 Q40 42 40 36 L40 16"/><line x1="8" y1="24" x2="40" y2="24"/><line x1="8" y1="32" x2="40" y2="32"/><circle cx="14" cy="18" r="1.5"/><circle cx="24" cy="18" r="1.5"/><circle cx="34" cy="18" r="1.5"/><circle cx="18" cy="28" r="1.5"/><circle cx="30" cy="28" r="1.5"/>
    </g>
  </g>
</svg>