<svg xmlns="http://www.w3.org/2000/svg" viewBox="0 0 48 48">
  <defs>
    <linearGradient id="g" x1="0%" y1="0%" x2="100%" y2="100%">
      <stop offset="0%" stop-color="#acdeaa"/>
      <stop offset="100%" stop-color="#122d10"/>
    </linearGradient>
    <filter id="shadow" x="-30%" y="-30%" width="160%" height="160%">
      <feDropShadow dx="2.5" dy="3.5" stdDeviation="3" flood-color="#1a1a2e" flood-opacity="0.45"/>
    </filter>
  </defs>
  <g filter="url(#shadow)" fill="none">
    <g stroke="#091608" stroke-width="4.5" stroke-linecap="round" stroke-linejoin="round" transform="translate(2,2)">
    <ellipse cx="24" cy="14" rx="16" ry="8"/>
    <path d="M8 14 L10 38 Q10 42 24 42 Q38 42 38 38 L40 14"/>
    <circle cx="16" cy="22" r="2" fill="currentColor"/>
    <circle cx="24" cy="20" r="2" fill="currentColor"/>
    <circle cx="32" cy="22" r="2" fill="currentColor"/>
    <circle cx="20" cy="28" r="2" fill="currentColor"/>
    <circle cx="28" cy="28" r="2" fill="currentColor"/>
    </g>
    <g stroke="#122d10" stroke-width="3" stroke-linecap="round" stroke-linejoin="round" transform="translate(1,1)">
    <ellipse cx="24" cy="14" rx="16" ry="8"/>
    <path d="M8 14 L10 38 Q10 42 24 42 Q38 42 38 38 L40 14"/>
    <circle cx="16" cy="22" r="2" fill="currentColor"/>
    <circle cx="24" cy="20" r="2" fill="currentColor"/>
    <circle cx="32" cy="22" r="2" fill="currentColor"/>
    <circle cx="20" cy="28" r="2" fill="currentColor"/>
    <circle cx="28" cy="28" r="2" fill="currentColor"/>
    </g>
    <g stroke="url(#g)" stroke-width="1.5" stroke-linecap="round" stroke-linejoin="round">
    <ellipse cx="24" cy="14" rx="16" ry="8"/>
    <path d="M8 14 L10 38 Q10 42 24 42 Q38 42 38 38 L40 14"/>
    <circle cx="16" cy="22" r="2" fill="currentColor"/>
    <circle cx="24" cy="20" r="2" fill="currentColor"/>
    <circle cx="32" cy="22" r="2" fill="currentColor"/>
    <circle cx="20" cy="28" r="2" fill="currentColor"/>
    <circle cx="28" cy="28" r="2" fill="currentColor"/>
    </g>
  </g>
</svg>