<svg xmlns="http://www.w3.org/2000/svg" viewBox="0 0 48 48">
  <defs>
    <linearGradient id="g" x1="0%" y1="0%" x2="100%" y2="100%">
      <stop offset="0%" stop-color="#abcfa9"/>
      <stop offset="100%" stop-color="#265224"/>
    </linearGradient>
    <filter id="sh" x="-30%" y="-30%" width="160%" height="160%">
      <feDropShadow dx="2.5" dy="3.5" stdDeviation="3" flood-color="#1a1a2e" flood-opacity="0.45"/>
    </filter>
  </defs>
  <g filter="url(#sh)" fill="none">
    <g stroke="#112510" stroke-width="4.5" stroke-linecap="round" stroke-linejoin="round" transform="translate(2,2)">
<line x1="10" y1="8" x2="10" y2="40"/><line x1="14" y1="8" x2="14" y2="40"/><line x1="18" y1="8" x2="18" y2="40"/><line x1="22" y1="8" x2="22" y2="40"/><line x1="26" y1="8" x2="26" y2="40"/><line x1="30" y1="8" x2="30" y2="40"/><path d="M10 8 L30 8 L34 12 L34 16 L30 20 L10 20 Z"/>
    </g>
    <g stroke="#265224" stroke-width="3" stroke-linecap="round" stroke-linejoin="round" transform="translate(1,1)">
<line x1="10" y1="8" x2="10" y2="40"/><line x1="14" y1="8" x2="14" y2="40"/><line x1="18" y1="8" x2="18" y2="40"/><line x1="22" y1="8" x2="22" y2="40"/><line x1="26" y1="8" x2="26" y2="40"/><line x1="30" y1="8" x2="30" y2="40"/><path d="M10 8 L30 8 L34 12 L34 16 L30 20 L10 20 Z"/>
    </g>
    <g stroke="url(#g)" stroke-width="1.5" stroke-linecap="round" stroke-linejoin="round">
<line x1="10" y1="8" x2="10" y2="40"/><line x1="14" y1="8" x2="14" y2="40"/><line x1="18" y1="8" x2="18" y2="40"/><line x1="22" y1="8" x2="22" y2="40"/><line x1="26" y1="8" x2="26" y2="40"/><line x1="30" y1="8" x2="30" y2="40"/><path d="M10 8 L30 8 L34 12 L34 16 L30 20 L10 20 Z"/>
    </g>
  </g>
</svg>