<svg xmlns="http://www.w3.org/2000/svg" viewBox="0 0 48 48">
  <defs>
    <linearGradient id="g" x1="0%" y1="0%" x2="100%" y2="100%">
      <stop offset="0%" stop-color="#c2dae0"/>
      <stop offset="100%" stop-color="#425f67"/>
    </linearGradient>
    <filter id="sh" x="-30%" y="-30%" width="160%" height="160%">
      <feDropShadow dx="2.5" dy="3.5" stdDeviation="3" flood-color="#1a1a2e" flood-opacity="0.45"/>
    </filter>
  </defs>
  <g filter="url(#sh)" fill="none">
    <g stroke="#1e2b2f" stroke-width="4.5" stroke-linecap="round" stroke-linejoin="round" transform="translate(2,2)">
<path d="M6 6 L26 10 L20 20 L30 18 L42 6 L38 26 L28 32 L34 42 L16 38 L22 28 L12 30 Z"/>
    </g>
    <g stroke="#425f67" stroke-width="3" stroke-linecap="round" stroke-linejoin="round" transform="translate(1,1)">
<path d="M6 6 L26 10 L20 20 L30 18 L42 6 L38 26 L28 32 L34 42 L16 38 L22 28 L12 30 Z"/>
    </g>
    <g stroke="url(#g)" stroke-width="1.5" stroke-linecap="round" stroke-linejoin="round">
<path d="M6 6 L26 10 L20 20 L30 18 L42 6 L38 26 L28 32 L34 42 L16 38 L22 28 L12 30 Z"/>
    </g>
  </g>
</svg>