<svg xmlns="http://www.w3.org/2000/svg" viewBox="0 0 48 48">
  <defs>
    <linearGradient id="iconGrad" x1="0%" y1="0%" x2="100%" y2="100%">
      <stop offset="0%" stop-color="#90CAF9"/>
      <stop offset="100%" stop-color="#376387"/>
    </linearGradient>
    <filter id="shadow" x="-30%" y="-30%" width="160%" height="160%">
      <feDropShadow dx="2.5" dy="3.5" stdDeviation="3" flood-color="#1a1a2e" flood-opacity="0.45"/>
    </filter>
  </defs>
  <g filter="url(#shadow)" fill="none">
    <g stroke="#1b3143" stroke-width="4.5" stroke-linecap="round" stroke-linejoin="round" transform="translate(2,2)">
      <path d="M8 12a4 4 0 014-4h24a4 4 0 014 4v14a4 4 0 01-4 4H18l-8 8V12z"/>
    <circle cx="20" cy="19" r="2" fill="#607D8B"/>
    <circle cx="28" cy="19" r="2" fill="#607D8B"/>
    <circle cx="36" cy="19" r="2" fill="#607D8B"/>
    </g>
    <g stroke="#376387" stroke-width="3" stroke-linecap="round" stroke-linejoin="round" transform="translate(1,1)">
      <path d="M8 12a4 4 0 014-4h24a4 4 0 014 4v14a4 4 0 01-4 4H18l-8 8V12z"/>
    <circle cx="20" cy="19" r="2" fill="#607D8B"/>
    <circle cx="28" cy="19" r="2" fill="#607D8B"/>
    <circle cx="36" cy="19" r="2" fill="#607D8B"/>
    </g>
    <g stroke="url(#iconGrad)" stroke-width="1.5" stroke-linecap="round" stroke-linejoin="round">
      <path d="M8 12a4 4 0 014-4h24a4 4 0 014 4v14a4 4 0 01-4 4H18l-8 8V12z"/>
    <circle cx="20" cy="19" r="2" fill="#607D8B"/>
    <circle cx="28" cy="19" r="2" fill="#607D8B"/>
    <circle cx="36" cy="19" r="2" fill="#607D8B"/>
    </g>
  </g>
</svg>
