<svg xmlns="http://www.w3.org/2000/svg" viewBox="0 0 48 48">
  <defs>
    <linearGradient id="g" x1="0%" y1="0%" x2="100%" y2="100%">
      <stop offset="0%" stop-color="#FFB74D"/>
      <stop offset="100%" stop-color="#8C3D00"/>
    </linearGradient>
    <filter id="sh" x="-30%" y="-30%" width="160%" height="160%">
      <feDropShadow dx="2.5" dy="3.5" stdDeviation="3" flood-color="#1a1a2e" flood-opacity="0.45"/>
    </filter>
  </defs>
  <g filter="url(#sh)" fill="none">
    <g stroke="#461E00" stroke-width="4.5" stroke-linecap="round" stroke-linejoin="round" transform="translate(2,2)">
    <circle cx="24" cy="24" r="17"/>
        <line x1="24" y1="8" x2="24" y2="40"/>
        <line x1="8" y1="24" x2="40" y2="24"/>
        <polygon points="24,10 28,24 20,24"/>
        <polygon points="24,38 20,24 28,24"/>
    </g>
    <g stroke="#8C3D00" stroke-width="3" stroke-linecap="round" stroke-linejoin="round" transform="translate(1,1)">
    <circle cx="24" cy="24" r="17"/>
        <line x1="24" y1="8" x2="24" y2="40"/>
        <line x1="8" y1="24" x2="40" y2="24"/>
        <polygon points="24,10 28,24 20,24"/>
        <polygon points="24,38 20,24 28,24"/>
    </g>
    <g stroke="url(#g)" stroke-width="1.5" stroke-linecap="round" stroke-linejoin="round">
    <circle cx="24" cy="24" r="17"/>
        <line x1="24" y1="8" x2="24" y2="40"/>
        <line x1="8" y1="24" x2="40" y2="24"/>
        <polygon points="24,10 28,24 20,24"/>
        <polygon points="24,38 20,24 28,24"/>
    </g>
  </g>
</svg>