<svg xmlns="http://www.w3.org/2000/svg" viewBox="0 0 48 48">
  <defs>
    <linearGradient id="g" x1="0%" y1="0%" x2="100%" y2="100%">
      <stop offset="0%" stop-color="#dfc0cc"/>
      <stop offset="100%" stop-color="#2e1d23"/>
    </linearGradient>
    <filter id="shadow" x="-30%" y="-30%" width="160%" height="160%">
      <feDropShadow dx="2.5" dy="3.5" stdDeviation="3" flood-color="#1a1a2e" flood-opacity="0.45"/>
    </filter>
  </defs>
  <g filter="url(#shadow)" fill="none">
    <g stroke="#170e11" stroke-width="4.5" stroke-linecap="round" stroke-linejoin="round" transform="translate(2,2)">
    <ellipse cx="24" cy="22" rx="11" ry="7"/>
    <circle cx="24" cy="12" r="4.5"/>
    <circle cx="21" cy="10" r="2"/>
    <circle cx="27" cy="10" r="2"/>
    <path d="M14 16 L4 4 M34 16 L44 4"/>
    <path d="M16 22 L6 24 M32 22 L42 24"/>
    <path d="M24 22 L24 44 M24 26 L18 26"/>
    </g>
    <g stroke="#2e1d23" stroke-width="3" stroke-linecap="round" stroke-linejoin="round" transform="translate(1,1)">
    <ellipse cx="24" cy="22" rx="11" ry="7"/>
    <circle cx="24" cy="12" r="4.5"/>
    <circle cx="21" cy="10" r="2"/>
    <circle cx="27" cy="10" r="2"/>
    <path d="M14 16 L4 4 M34 16 L44 4"/>
    <path d="M16 22 L6 24 M32 22 L42 24"/>
    <path d="M24 22 L24 44 M24 26 L18 26"/>
    </g>
    <g stroke="url(#g)" stroke-width="1.5" stroke-linecap="round" stroke-linejoin="round">
    <ellipse cx="24" cy="22" rx="11" ry="7"/>
    <circle cx="24" cy="12" r="4.5"/>
    <circle cx="21" cy="10" r="2"/>
    <circle cx="27" cy="10" r="2"/>
    <path d="M14 16 L4 4 M34 16 L44 4"/>
    <path d="M16 22 L6 24 M32 22 L42 24"/>
    <path d="M24 22 L24 44 M24 26 L18 26"/>
    </g>
  </g>
</svg>