<svg xmlns="http://www.w3.org/2000/svg" viewBox="0 0 48 48">
  <defs>
    <linearGradient id="g" x1="0%" y1="0%" x2="100%" y2="100%">
      <stop offset="0%" stop-color="#cbbfb5"/>
      <stop offset="100%" stop-color="#231c16"/>
    </linearGradient>
    <filter id="shadow" x="-30%" y="-30%" width="160%" height="160%">
      <feDropShadow dx="2.5" dy="3.5" stdDeviation="3" flood-color="#1a1a2e" flood-opacity="0.45"/>
    </filter>
  </defs>
  <g filter="url(#shadow)" fill="none">
    <g stroke="#110e0b" stroke-width="4.5" stroke-linecap="round" stroke-linejoin="round" transform="translate(2,2)">
    <rect x="4" y="22" width="16" height="12" rx="4"/>
    <polygon points="20,18 36,6 36,34"/>
    <rect x="32" y="4" width="6" height="32" rx="2"/>
    <circle cx="36" cy="6" r="2" fill="currentColor"/>
    <circle cx="36" cy="16" r="2" fill="currentColor"/>
    <circle cx="36" cy="26" r="2" fill="currentColor"/>
    </g>
    <g stroke="#231c16" stroke-width="3" stroke-linecap="round" stroke-linejoin="round" transform="translate(1,1)">
    <rect x="4" y="22" width="16" height="12" rx="4"/>
    <polygon points="20,18 36,6 36,34"/>
    <rect x="32" y="4" width="6" height="32" rx="2"/>
    <circle cx="36" cy="6" r="2" fill="currentColor"/>
    <circle cx="36" cy="16" r="2" fill="currentColor"/>
    <circle cx="36" cy="26" r="2" fill="currentColor"/>
    </g>
    <g stroke="url(#g)" stroke-width="1.5" stroke-linecap="round" stroke-linejoin="round">
    <rect x="4" y="22" width="16" height="12" rx="4"/>
    <polygon points="20,18 36,6 36,34"/>
    <rect x="32" y="4" width="6" height="32" rx="2"/>
    <circle cx="36" cy="6" r="2" fill="currentColor"/>
    <circle cx="36" cy="16" r="2" fill="currentColor"/>
    <circle cx="36" cy="26" r="2" fill="currentColor"/>
    </g>
  </g>
</svg>