<svg xmlns="http://www.w3.org/2000/svg" viewBox="0 0 48 48">
  <defs>
    <linearGradient id="iconGrad" x1="0%" y1="0%" x2="100%" y2="100%">
      <stop offset="0%" stop-color="#8D6E63"/>
      <stop offset="100%" stop-color="#3b2923"/>
    </linearGradient>
    <filter id="shadow" x="-30%" y="-30%" width="160%" height="160%">
      <feDropShadow dx="2.5" dy="3.5" stdDeviation="3" flood-color="#1a1a2e" flood-opacity="0.45"/>
    </filter>
  </defs>
  <g filter="url(#shadow)" fill="none">
    <g stroke="#1d1411" stroke-width="4.5" stroke-linecap="round" stroke-linejoin="round" transform="translate(2,2)">
      <rect x="8" y="10" width="24" height="18" rx="2"/>
    <line x1="14" y1="28" x2="26" y2="28"/>
    <line x1="20" y1="28" x2="20" y2="36"/>
    <line x1="16" y1="36" x2="24" y2="36"/>
    <line x1="36" y1="12" x2="44" y2="12"/>
    <line x1="36" y1="18" x2="44" y2="18"/>
    <line x1="36" y1="24" x2="44" y2="24"/>
    <circle cx="36" cy="12" r="3.5" fill="#607D8B"/>
    <circle cx="40" cy="18" r="3.5" fill="#607D8B"/>
    <circle cx="38" cy="24" r="3.5" fill="#607D8B"/>
    </g>
    <g stroke="#3b2923" stroke-width="3" stroke-linecap="round" stroke-linejoin="round" transform="translate(1,1)">
      <rect x="8" y="10" width="24" height="18" rx="2"/>
    <line x1="14" y1="28" x2="26" y2="28"/>
    <line x1="20" y1="28" x2="20" y2="36"/>
    <line x1="16" y1="36" x2="24" y2="36"/>
    <line x1="36" y1="12" x2="44" y2="12"/>
    <line x1="36" y1="18" x2="44" y2="18"/>
    <line x1="36" y1="24" x2="44" y2="24"/>
    <circle cx="36" cy="12" r="3.5" fill="#607D8B"/>
    <circle cx="40" cy="18" r="3.5" fill="#607D8B"/>
    <circle cx="38" cy="24" r="3.5" fill="#607D8B"/>
    </g>
    <g stroke="url(#iconGrad)" stroke-width="1.5" stroke-linecap="round" stroke-linejoin="round">
      <rect x="8" y="10" width="24" height="18" rx="2"/>
    <line x1="14" y1="28" x2="26" y2="28"/>
    <line x1="20" y1="28" x2="20" y2="36"/>
    <line x1="16" y1="36" x2="24" y2="36"/>
    <line x1="36" y1="12" x2="44" y2="12"/>
    <line x1="36" y1="18" x2="44" y2="18"/>
    <line x1="36" y1="24" x2="44" y2="24"/>
    <circle cx="36" cy="12" r="3.5" fill="#607D8B"/>
    <circle cx="40" cy="18" r="3.5" fill="#607D8B"/>
    <circle cx="38" cy="24" r="3.5" fill="#607D8B"/>
    </g>
  </g>
</svg>
