<svg xmlns="http://www.w3.org/2000/svg" viewBox="0 0 48 48">
  <defs>
    <linearGradient id="g" x1="0%" y1="0%" x2="100%" y2="100%">
      <stop offset="0%" stop-color="#adddc2"/>
      <stop offset="100%" stop-color="#122d1e"/>
    </linearGradient>
    <filter id="shadow" x="-30%" y="-30%" width="160%" height="160%">
      <feDropShadow dx="2.5" dy="3.5" stdDeviation="3" flood-color="#1a1a2e" flood-opacity="0.45"/>
    </filter>
  </defs>
  <g filter="url(#shadow)" fill="none">
    <g stroke="#09160f" stroke-width="4.5" stroke-linecap="round" stroke-linejoin="round" transform="translate(2,2)">
    <rect x="4" y="16" width="40" height="16" rx="6"/>
    <circle cx="14" cy="24" r="4"/>
    <circle cx="34" cy="24" r="4"/>
    <circle cx="14" cy="24" r="2" fill="currentColor"/>
    <circle cx="34" cy="24" r="2" fill="currentColor"/>
    <line x1="14" y1="8" x2="14" y2="16 M34 8 L34 16"/>
    </g>
    <g stroke="#122d1e" stroke-width="3" stroke-linecap="round" stroke-linejoin="round" transform="translate(1,1)">
    <rect x="4" y="16" width="40" height="16" rx="6"/>
    <circle cx="14" cy="24" r="4"/>
    <circle cx="34" cy="24" r="4"/>
    <circle cx="14" cy="24" r="2" fill="currentColor"/>
    <circle cx="34" cy="24" r="2" fill="currentColor"/>
    <line x1="14" y1="8" x2="14" y2="16 M34 8 L34 16"/>
    </g>
    <g stroke="url(#g)" stroke-width="1.5" stroke-linecap="round" stroke-linejoin="round">
    <rect x="4" y="16" width="40" height="16" rx="6"/>
    <circle cx="14" cy="24" r="4"/>
    <circle cx="34" cy="24" r="4"/>
    <circle cx="14" cy="24" r="2" fill="currentColor"/>
    <circle cx="34" cy="24" r="2" fill="currentColor"/>
    <line x1="14" y1="8" x2="14" y2="16 M34 8 L34 16"/>
    </g>
  </g>
</svg>