<svg xmlns="http://www.w3.org/2000/svg" viewBox="0 0 48 48">
  <defs>
    <linearGradient id="g" x1="0%" y1="0%" x2="100%" y2="100%">
      <stop offset="0%" stop-color="#cdb6d4"/>
      <stop offset="100%" stop-color="#241728"/>
    </linearGradient>
    <filter id="shadow" x="-30%" y="-30%" width="160%" height="160%">
      <feDropShadow dx="2.5" dy="3.5" stdDeviation="3" flood-color="#1a1a2e" flood-opacity="0.45"/>
    </filter>
  </defs>
  <g filter="url(#shadow)" fill="none">
    <g stroke="#120b14" stroke-width="4.5" stroke-linecap="round" stroke-linejoin="round" transform="translate(2,2)">
    <circle cx="8" cy="12" r="2" fill="currentColor"/>
    <circle cx="24" cy="6" r="2" fill="currentColor"/>
    <circle cx="40" cy="14" r="2" fill="currentColor"/>
    <circle cx="14" cy="28" r="2" fill="currentColor"/>
    <circle cx="34" cy="30" r="2" fill="currentColor"/>
    <circle cx="24" cy="42" r="2" fill="currentColor"/>
    <line x1="8" y1="12" x2="24" y2="6 M24 6 L40 14 M24 6 L14 28 M40 14 L34 30 M14 28 L24 42 M34 30 L24 42"/>
    </g>
    <g stroke="#241728" stroke-width="3" stroke-linecap="round" stroke-linejoin="round" transform="translate(1,1)">
    <circle cx="8" cy="12" r="2" fill="currentColor"/>
    <circle cx="24" cy="6" r="2" fill="currentColor"/>
    <circle cx="40" cy="14" r="2" fill="currentColor"/>
    <circle cx="14" cy="28" r="2" fill="currentColor"/>
    <circle cx="34" cy="30" r="2" fill="currentColor"/>
    <circle cx="24" cy="42" r="2" fill="currentColor"/>
    <line x1="8" y1="12" x2="24" y2="6 M24 6 L40 14 M24 6 L14 28 M40 14 L34 30 M14 28 L24 42 M34 30 L24 42"/>
    </g>
    <g stroke="url(#g)" stroke-width="1.5" stroke-linecap="round" stroke-linejoin="round">
    <circle cx="8" cy="12" r="2" fill="currentColor"/>
    <circle cx="24" cy="6" r="2" fill="currentColor"/>
    <circle cx="40" cy="14" r="2" fill="currentColor"/>
    <circle cx="14" cy="28" r="2" fill="currentColor"/>
    <circle cx="34" cy="30" r="2" fill="currentColor"/>
    <circle cx="24" cy="42" r="2" fill="currentColor"/>
    <line x1="8" y1="12" x2="24" y2="6 M24 6 L40 14 M24 6 L14 28 M40 14 L34 30 M14 28 L24 42 M34 30 L24 42"/>
    </g>
  </g>
</svg>