<svg xmlns="http://www.w3.org/2000/svg" viewBox="0 0 48 48">
  <defs>
    <linearGradient id="g" x1="0%" y1="0%" x2="100%" y2="100%">
      <stop offset="0%" stop-color="#acc6a4"/>
      <stop offset="100%" stop-color="#27471d"/>
    </linearGradient>
    <filter id="sh" x="-30%" y="-30%" width="160%" height="160%">
      <feDropShadow dx="2.5" dy="3.5" stdDeviation="3" flood-color="#1a1a2e" flood-opacity="0.45"/>
    </filter>
  </defs>
  <g filter="url(#sh)" fill="none">
    <g stroke="#12200d" stroke-width="4.5" stroke-linecap="round" stroke-linejoin="round" transform="translate(2,2)">
<circle cx="10" cy="10" r="2"/><circle cx="30" cy="8" r="2"/><circle cx="38" cy="22" r="2"/><circle cx="18" cy="30" r="2"/><circle cx="10" cy="36" r="2"/><circle cx="34" cy="38" r="2"/><line x1="10" y1="10" x2="30" y2="8"/><line x1="30" y1="8" x2="38" y2="22"/><line x1="38" y1="22" x2="18" y2="30"/><line x1="18" y1="30" x2="10" y2="36"/><line x1="18" y1="30" x2="34" y2="38"/>
    </g>
    <g stroke="#27471d" stroke-width="3" stroke-linecap="round" stroke-linejoin="round" transform="translate(1,1)">
<circle cx="10" cy="10" r="2"/><circle cx="30" cy="8" r="2"/><circle cx="38" cy="22" r="2"/><circle cx="18" cy="30" r="2"/><circle cx="10" cy="36" r="2"/><circle cx="34" cy="38" r="2"/><line x1="10" y1="10" x2="30" y2="8"/><line x1="30" y1="8" x2="38" y2="22"/><line x1="38" y1="22" x2="18" y2="30"/><line x1="18" y1="30" x2="10" y2="36"/><line x1="18" y1="30" x2="34" y2="38"/>
    </g>
    <g stroke="url(#g)" stroke-width="1.5" stroke-linecap="round" stroke-linejoin="round">
<circle cx="10" cy="10" r="2"/><circle cx="30" cy="8" r="2"/><circle cx="38" cy="22" r="2"/><circle cx="18" cy="30" r="2"/><circle cx="10" cy="36" r="2"/><circle cx="34" cy="38" r="2"/><line x1="10" y1="10" x2="30" y2="8"/><line x1="30" y1="8" x2="38" y2="22"/><line x1="38" y1="22" x2="18" y2="30"/><line x1="18" y1="30" x2="10" y2="36"/><line x1="18" y1="30" x2="34" y2="38"/>
    </g>
  </g>
</svg>