<svg xmlns="http://www.w3.org/2000/svg" viewBox="0 0 48 48">
  <defs>
    <linearGradient id="g" x1="0%" y1="0%" x2="100%" y2="100%">
      <stop offset="0%" stop-color="#c1d8b0"/>
      <stop offset="100%" stop-color="#1d2a14"/>
    </linearGradient>
    <filter id="shadow" x="-30%" y="-30%" width="160%" height="160%">
      <feDropShadow dx="2.5" dy="3.5" stdDeviation="3" flood-color="#1a1a2e" flood-opacity="0.45"/>
    </filter>
  </defs>
  <g filter="url(#shadow)" fill="none">
    <g stroke="#0e150a" stroke-width="4.5" stroke-linecap="round" stroke-linejoin="round" transform="translate(2,2)">
    <path d="M10 34 Q8 10 18 8 Q28 6 34 14 Q40 22 36 34 Q32 42 20 40 Q12 38 10 34 Z"/>
    <circle cx="20" cy="16" r="2" fill="currentColor"/>
    <circle cx="30" cy="22" r="2" fill="currentColor"/>
    <circle cx="26" cy="34" r="2" fill="currentColor"/>
    </g>
    <g stroke="#1d2a14" stroke-width="3" stroke-linecap="round" stroke-linejoin="round" transform="translate(1,1)">
    <path d="M10 34 Q8 10 18 8 Q28 6 34 14 Q40 22 36 34 Q32 42 20 40 Q12 38 10 34 Z"/>
    <circle cx="20" cy="16" r="2" fill="currentColor"/>
    <circle cx="30" cy="22" r="2" fill="currentColor"/>
    <circle cx="26" cy="34" r="2" fill="currentColor"/>
    </g>
    <g stroke="url(#g)" stroke-width="1.5" stroke-linecap="round" stroke-linejoin="round">
    <path d="M10 34 Q8 10 18 8 Q28 6 34 14 Q40 22 36 34 Q32 42 20 40 Q12 38 10 34 Z"/>
    <circle cx="20" cy="16" r="2" fill="currentColor"/>
    <circle cx="30" cy="22" r="2" fill="currentColor"/>
    <circle cx="26" cy="34" r="2" fill="currentColor"/>
    </g>
  </g>
</svg>