<svg xmlns="http://www.w3.org/2000/svg" viewBox="0 0 48 48">
  <defs>
    <linearGradient id="g" x1="0%" y1="0%" x2="100%" y2="100%">
      <stop offset="0%" stop-color="#e4b1a8"/>
      <stop offset="100%" stop-color="#31140f"/>
    </linearGradient>
    <filter id="shadow" x="-30%" y="-30%" width="160%" height="160%">
      <feDropShadow dx="2.5" dy="3.5" stdDeviation="3" flood-color="#1a1a2e" flood-opacity="0.45"/>
    </filter>
  </defs>
  <g filter="url(#shadow)" fill="none">
    <g stroke="#180a07" stroke-width="4.5" stroke-linecap="round" stroke-linejoin="round" transform="translate(2,2)">
    <path d="M6 26 Q6 14 16 14 L32 14 Q42 14 42 26 L42 32 Q42 40 34 40 Q28 40 24 34 Q20 40 14 40 Q6 40 6 32 Z"/>
    <circle cx="16" cy="22" r="3"/>
    <circle cx="32" cy="22" r="3"/>
    <line x1="24" y1="20" x2="24" y2="26"/>
    </g>
    <g stroke="#31140f" stroke-width="3" stroke-linecap="round" stroke-linejoin="round" transform="translate(1,1)">
    <path d="M6 26 Q6 14 16 14 L32 14 Q42 14 42 26 L42 32 Q42 40 34 40 Q28 40 24 34 Q20 40 14 40 Q6 40 6 32 Z"/>
    <circle cx="16" cy="22" r="3"/>
    <circle cx="32" cy="22" r="3"/>
    <line x1="24" y1="20" x2="24" y2="26"/>
    </g>
    <g stroke="url(#g)" stroke-width="1.5" stroke-linecap="round" stroke-linejoin="round">
    <path d="M6 26 Q6 14 16 14 L32 14 Q42 14 42 26 L42 32 Q42 40 34 40 Q28 40 24 34 Q20 40 14 40 Q6 40 6 32 Z"/>
    <circle cx="16" cy="22" r="3"/>
    <circle cx="32" cy="22" r="3"/>
    <line x1="24" y1="20" x2="24" y2="26"/>
    </g>
  </g>
</svg>