<svg xmlns="http://www.w3.org/2000/svg" viewBox="0 0 48 48">
  <defs>
    <linearGradient id="g" x1="0%" y1="0%" x2="100%" y2="100%">
      <stop offset="0%" stop-color="#9fc0c7"/>
      <stop offset="100%" stop-color="#0a1c21"/>
    </linearGradient>
    <filter id="shadow" x="-30%" y="-30%" width="160%" height="160%">
      <feDropShadow dx="2.5" dy="3.5" stdDeviation="3" flood-color="#1a1a2e" flood-opacity="0.45"/>
    </filter>
  </defs>
  <g filter="url(#shadow)" fill="none">
    <g stroke="#050e10" stroke-width="4.5" stroke-linecap="round" stroke-linejoin="round" transform="translate(2,2)">
    <circle cx="24" cy="8" r="5"/>
    <circle cx="22" cy="6" r="2"/>
    <line x1="24" y1="13" x2="24" y2="44"/>
    <line x1="24" y1="20" x2="10" y2="28 M24 20 L38 28 M24 30 L12 38 M24 30 L36 38"/>
    </g>
    <g stroke="#0a1c21" stroke-width="3" stroke-linecap="round" stroke-linejoin="round" transform="translate(1,1)">
    <circle cx="24" cy="8" r="5"/>
    <circle cx="22" cy="6" r="2"/>
    <line x1="24" y1="13" x2="24" y2="44"/>
    <line x1="24" y1="20" x2="10" y2="28 M24 20 L38 28 M24 30 L12 38 M24 30 L36 38"/>
    </g>
    <g stroke="url(#g)" stroke-width="1.5" stroke-linecap="round" stroke-linejoin="round">
    <circle cx="24" cy="8" r="5"/>
    <circle cx="22" cy="6" r="2"/>
    <line x1="24" y1="13" x2="24" y2="44"/>
    <line x1="24" y1="20" x2="10" y2="28 M24 20 L38 28 M24 30 L12 38 M24 30 L36 38"/>
    </g>
  </g>
</svg>