<svg xmlns="http://www.w3.org/2000/svg" viewBox="0 0 48 48">
  <defs>
    <linearGradient id="g" x1="0%" y1="0%" x2="100%" y2="100%">
      <stop offset="0%" stop-color="#c1e6c1"/>
      <stop offset="100%" stop-color="#406e41"/>
    </linearGradient>
    <filter id="sh" x="-30%" y="-30%" width="160%" height="160%">
      <feDropShadow dx="2.5" dy="3.5" stdDeviation="3" flood-color="#1a1a2e" flood-opacity="0.45"/>
    </filter>
  </defs>
  <g filter="url(#sh)" fill="none">
    <g stroke="#1d321d" stroke-width="4.5" stroke-linecap="round" stroke-linejoin="round" transform="translate(2,2)">
<line x1="18" y1="10" x2="18" y2="40"/><line x1="30" y1="14" x2="30" y2="40"/><line x1="12" y1="18" x2="12" y2="40"/><line x1="36" y1="20" x2="36" y2="40"/><circle cx="18" cy="10" r="3"/><circle cx="30" cy="14" r="3"/><circle cx="12" cy="18" r="2"/><circle cx="36" cy="20" r="2"/><line x1="12" y1="18" x2="6" y2="22"/><line x1="36" y1="20" x2="42" y2="24"/>
    </g>
    <g stroke="#406e41" stroke-width="3" stroke-linecap="round" stroke-linejoin="round" transform="translate(1,1)">
<line x1="18" y1="10" x2="18" y2="40"/><line x1="30" y1="14" x2="30" y2="40"/><line x1="12" y1="18" x2="12" y2="40"/><line x1="36" y1="20" x2="36" y2="40"/><circle cx="18" cy="10" r="3"/><circle cx="30" cy="14" r="3"/><circle cx="12" cy="18" r="2"/><circle cx="36" cy="20" r="2"/><line x1="12" y1="18" x2="6" y2="22"/><line x1="36" y1="20" x2="42" y2="24"/>
    </g>
    <g stroke="url(#g)" stroke-width="1.5" stroke-linecap="round" stroke-linejoin="round">
<line x1="18" y1="10" x2="18" y2="40"/><line x1="30" y1="14" x2="30" y2="40"/><line x1="12" y1="18" x2="12" y2="40"/><line x1="36" y1="20" x2="36" y2="40"/><circle cx="18" cy="10" r="3"/><circle cx="30" cy="14" r="3"/><circle cx="12" cy="18" r="2"/><circle cx="36" cy="20" r="2"/><line x1="12" y1="18" x2="6" y2="22"/><line x1="36" y1="20" x2="42" y2="24"/>
    </g>
  </g>
</svg>