<svg xmlns="http://www.w3.org/2000/svg" viewBox="0 0 48 48">
  <defs>
    <linearGradient id="g" x1="0%" y1="0%" x2="100%" y2="100%">
      <stop offset="0%" stop-color="#ccb3bb"/>
      <stop offset="100%" stop-color="#23151a"/>
    </linearGradient>
    <filter id="shadow" x="-30%" y="-30%" width="160%" height="160%">
      <feDropShadow dx="2.5" dy="3.5" stdDeviation="3" flood-color="#1a1a2e" flood-opacity="0.45"/>
    </filter>
  </defs>
  <g filter="url(#shadow)" fill="none">
    <g stroke="#110a0d" stroke-width="4.5" stroke-linecap="round" stroke-linejoin="round" transform="translate(2,2)">
    <rect x="4" y="18" width="40" height="16" rx="4"/>
    <path d="M8 18 L18 8 L34 8 L40 18"/>
    <rect x="18" y="12" width="10" height="6" rx="2"/>
    <circle cx="14" cy="34" r="5"/>
    <circle cx="34" cy="34" r="5"/>
    </g>
    <g stroke="#23151a" stroke-width="3" stroke-linecap="round" stroke-linejoin="round" transform="translate(1,1)">
    <rect x="4" y="18" width="40" height="16" rx="4"/>
    <path d="M8 18 L18 8 L34 8 L40 18"/>
    <rect x="18" y="12" width="10" height="6" rx="2"/>
    <circle cx="14" cy="34" r="5"/>
    <circle cx="34" cy="34" r="5"/>
    </g>
    <g stroke="url(#g)" stroke-width="1.5" stroke-linecap="round" stroke-linejoin="round">
    <rect x="4" y="18" width="40" height="16" rx="4"/>
    <path d="M8 18 L18 8 L34 8 L40 18"/>
    <rect x="18" y="12" width="10" height="6" rx="2"/>
    <circle cx="14" cy="34" r="5"/>
    <circle cx="34" cy="34" r="5"/>
    </g>
  </g>
</svg>