<svg xmlns="http://www.w3.org/2000/svg" viewBox="0 0 48 48">
  <defs>
    <linearGradient id="g" x1="0%" y1="0%" x2="100%" y2="100%">
      <stop offset="0%" stop-color="#9ea5bf"/>
      <stop offset="100%" stop-color="#0a0e1c"/>
    </linearGradient>
    <filter id="shadow" x="-30%" y="-30%" width="160%" height="160%">
      <feDropShadow dx="2.5" dy="3.5" stdDeviation="3" flood-color="#1a1a2e" flood-opacity="0.45"/>
    </filter>
  </defs>
  <g filter="url(#shadow)" fill="none">
    <g stroke="#05070e" stroke-width="4.5" stroke-linecap="round" stroke-linejoin="round" transform="translate(2,2)">
    <ellipse cx="24" cy="24" rx="12" ry="8"/>
    <polygon points="14,16 20,6 24,18"/>
    <polygon points="34,16 28,6 24,18"/>
    <circle cx="20" cy="20" r="2"/>
    <circle cx="28" cy="20" r="2"/>
    <path d="M20 26 Q24 30 28 26"/>
    <path d="M16 28 L10 44 M32 28 L38 44"/>
    </g>
    <g stroke="#0a0e1c" stroke-width="3" stroke-linecap="round" stroke-linejoin="round" transform="translate(1,1)">
    <ellipse cx="24" cy="24" rx="12" ry="8"/>
    <polygon points="14,16 20,6 24,18"/>
    <polygon points="34,16 28,6 24,18"/>
    <circle cx="20" cy="20" r="2"/>
    <circle cx="28" cy="20" r="2"/>
    <path d="M20 26 Q24 30 28 26"/>
    <path d="M16 28 L10 44 M32 28 L38 44"/>
    </g>
    <g stroke="url(#g)" stroke-width="1.5" stroke-linecap="round" stroke-linejoin="round">
    <ellipse cx="24" cy="24" rx="12" ry="8"/>
    <polygon points="14,16 20,6 24,18"/>
    <polygon points="34,16 28,6 24,18"/>
    <circle cx="20" cy="20" r="2"/>
    <circle cx="28" cy="20" r="2"/>
    <path d="M20 26 Q24 30 28 26"/>
    <path d="M16 28 L10 44 M32 28 L38 44"/>
    </g>
  </g>
</svg>