<svg xmlns="http://www.w3.org/2000/svg" viewBox="0 0 48 48">
  <defs>
    <linearGradient id="g" x1="0%" y1="0%" x2="100%" y2="100%">
      <stop offset="0%" stop-color="#aed1b4"/>
      <stop offset="100%" stop-color="#295430"/>
    </linearGradient>
    <filter id="sh" x="-30%" y="-30%" width="160%" height="160%">
      <feDropShadow dx="2.5" dy="3.5" stdDeviation="3" flood-color="#1a1a2e" flood-opacity="0.45"/>
    </filter>
  </defs>
  <g filter="url(#sh)" fill="none">
    <g stroke="#132616" stroke-width="4.5" stroke-linecap="round" stroke-linejoin="round" transform="translate(2,2)">
<path d="M6 36 Q6 6 24 6 Q42 6 42 36 Z"/>
        <path d="M6 22 Q24 14 42 22"/>
        <circle cx="18" cy="20" r="2"/>
        <circle cx="30" cy="20" r="2"/>
        <circle cx="24" cy="28" r="1.5"/>
    </g>
    <g stroke="#295430" stroke-width="3" stroke-linecap="round" stroke-linejoin="round" transform="translate(1,1)">
<path d="M6 36 Q6 6 24 6 Q42 6 42 36 Z"/>
        <path d="M6 22 Q24 14 42 22"/>
        <circle cx="18" cy="20" r="2"/>
        <circle cx="30" cy="20" r="2"/>
        <circle cx="24" cy="28" r="1.5"/>
    </g>
    <g stroke="url(#g)" stroke-width="1.5" stroke-linecap="round" stroke-linejoin="round">
<path d="M6 36 Q6 6 24 6 Q42 6 42 36 Z"/>
        <path d="M6 22 Q24 14 42 22"/>
        <circle cx="18" cy="20" r="2"/>
        <circle cx="30" cy="20" r="2"/>
        <circle cx="24" cy="28" r="1.5"/>
    </g>
  </g>
</svg>