<svg xmlns="http://www.w3.org/2000/svg" viewBox="0 0 48 48">
  <defs>
    <linearGradient id="g" x1="0%" y1="0%" x2="100%" y2="100%">
      <stop offset="0%" stop-color="#a9e5dd"/>
      <stop offset="100%" stop-color="#10312d"/>
    </linearGradient>
    <filter id="shadow" x="-30%" y="-30%" width="160%" height="160%">
      <feDropShadow dx="2.5" dy="3.5" stdDeviation="3" flood-color="#1a1a2e" flood-opacity="0.45"/>
    </filter>
  </defs>
  <g filter="url(#shadow)" fill="none">
    <g stroke="#081816" stroke-width="4.5" stroke-linecap="round" stroke-linejoin="round" transform="translate(2,2)">
    <ellipse cx="24" cy="20" rx="7" ry="4"/>
    <path d="M17 18 L8 10 L12 10 L18 14"/>
    <path d="M31 18 L40 10 L36 10 L30 14"/>
    <path d="M12 20 L4 22 L6 26 L14 22"/>
    <path d="M36 20 L44 22 L42 26 L34 22"/>
    <path d="M24 20 L24 44 M20 26 L28 26"/>
    </g>
    <g stroke="#10312d" stroke-width="3" stroke-linecap="round" stroke-linejoin="round" transform="translate(1,1)">
    <ellipse cx="24" cy="20" rx="7" ry="4"/>
    <path d="M17 18 L8 10 L12 10 L18 14"/>
    <path d="M31 18 L40 10 L36 10 L30 14"/>
    <path d="M12 20 L4 22 L6 26 L14 22"/>
    <path d="M36 20 L44 22 L42 26 L34 22"/>
    <path d="M24 20 L24 44 M20 26 L28 26"/>
    </g>
    <g stroke="url(#g)" stroke-width="1.5" stroke-linecap="round" stroke-linejoin="round">
    <ellipse cx="24" cy="20" rx="7" ry="4"/>
    <path d="M17 18 L8 10 L12 10 L18 14"/>
    <path d="M31 18 L40 10 L36 10 L30 14"/>
    <path d="M12 20 L4 22 L6 26 L14 22"/>
    <path d="M36 20 L44 22 L42 26 L34 22"/>
    <path d="M24 20 L24 44 M20 26 L28 26"/>
    </g>
  </g>
</svg>