<svg xmlns="http://www.w3.org/2000/svg" viewBox="0 0 48 48">
  <defs>
    <linearGradient id="g" x1="0%" y1="0%" x2="100%" y2="100%">
      <stop offset="0%" stop-color="#a6c9bd"/>
      <stop offset="100%" stop-color="#1f4a3b"/>
    </linearGradient>
    <filter id="sh" x="-30%" y="-30%" width="160%" height="160%">
      <feDropShadow dx="2.5" dy="3.5" stdDeviation="3" flood-color="#1a1a2e" flood-opacity="0.45"/>
    </filter>
  </defs>
  <g filter="url(#sh)" fill="none">
    <g stroke="#0e211b" stroke-width="4.5" stroke-linecap="round" stroke-linejoin="round" transform="translate(2,2)">
<path d="M6 34 Q6 10 20 10 Q34 10 42 34"/><line x1="6" y1="34" x2="42" y2="34"/><circle cx="26" cy="22" r="2"/><circle cx="32" cy="22" r="2"/><line x1="6" y1="20" x2="42" y2="20"/><path d="M42 30 L46 26"/><line x1="6" y1="30" x2="4" y2="26"/>
    </g>
    <g stroke="#1f4a3b" stroke-width="3" stroke-linecap="round" stroke-linejoin="round" transform="translate(1,1)">
<path d="M6 34 Q6 10 20 10 Q34 10 42 34"/><line x1="6" y1="34" x2="42" y2="34"/><circle cx="26" cy="22" r="2"/><circle cx="32" cy="22" r="2"/><line x1="6" y1="20" x2="42" y2="20"/><path d="M42 30 L46 26"/><line x1="6" y1="30" x2="4" y2="26"/>
    </g>
    <g stroke="url(#g)" stroke-width="1.5" stroke-linecap="round" stroke-linejoin="round">
<path d="M6 34 Q6 10 20 10 Q34 10 42 34"/><line x1="6" y1="34" x2="42" y2="34"/><circle cx="26" cy="22" r="2"/><circle cx="32" cy="22" r="2"/><line x1="6" y1="20" x2="42" y2="20"/><path d="M42 30 L46 26"/><line x1="6" y1="30" x2="4" y2="26"/>
    </g>
  </g>
</svg>