<svg xmlns="http://www.w3.org/2000/svg" viewBox="0 0 48 48">
  <defs>
    <linearGradient id="g" x1="0%" y1="0%" x2="100%" y2="100%">
      <stop offset="0%" stop-color="#c9ceb6"/>
      <stop offset="100%" stop-color="#222417"/>
    </linearGradient>
    <filter id="shadow" x="-30%" y="-30%" width="160%" height="160%">
      <feDropShadow dx="2.5" dy="3.5" stdDeviation="3" flood-color="#1a1a2e" flood-opacity="0.45"/>
    </filter>
  </defs>
  <g filter="url(#shadow)" fill="none">
    <g stroke="#11120b" stroke-width="4.5" stroke-linecap="round" stroke-linejoin="round" transform="translate(2,2)">
    <path d="M8 32 Q12 16 24 12 Q36 16 40 32 Q32 28 24 32 Q16 28 8 32 Z"/>
    <line x1="12" y1="18" x2="20" y2="28 M36 18 L28 28"/>
    <ellipse cx="24" cy="32" rx="8" ry="3"/>
    </g>
    <g stroke="#222417" stroke-width="3" stroke-linecap="round" stroke-linejoin="round" transform="translate(1,1)">
    <path d="M8 32 Q12 16 24 12 Q36 16 40 32 Q32 28 24 32 Q16 28 8 32 Z"/>
    <line x1="12" y1="18" x2="20" y2="28 M36 18 L28 28"/>
    <ellipse cx="24" cy="32" rx="8" ry="3"/>
    </g>
    <g stroke="url(#g)" stroke-width="1.5" stroke-linecap="round" stroke-linejoin="round">
    <path d="M8 32 Q12 16 24 12 Q36 16 40 32 Q32 28 24 32 Q16 28 8 32 Z"/>
    <line x1="12" y1="18" x2="20" y2="28 M36 18 L28 28"/>
    <ellipse cx="24" cy="32" rx="8" ry="3"/>
    </g>
  </g>
</svg>