<svg xmlns="http://www.w3.org/2000/svg" viewBox="0 0 48 48">
  <defs>
    <linearGradient id="g" x1="0%" y1="0%" x2="100%" y2="100%">
      <stop offset="0%" stop-color="#d6b8ca"/>
      <stop offset="100%" stop-color="#291822"/>
    </linearGradient>
    <filter id="shadow" x="-30%" y="-30%" width="160%" height="160%">
      <feDropShadow dx="2.5" dy="3.5" stdDeviation="3" flood-color="#1a1a2e" flood-opacity="0.45"/>
    </filter>
  </defs>
  <g filter="url(#shadow)" fill="none">
    <g stroke="#140c11" stroke-width="4.5" stroke-linecap="round" stroke-linejoin="round" transform="translate(2,2)">
    <ellipse cx="24" cy="22" rx="7" ry="5"/>
    <circle cx="24" cy="14" r="4"/>
    <circle cx="22" cy="12" r="1.5"/>
    <path d="M22 14 L18 6 M26 14 L30 6"/>
    <path d="M30 20 Q38 18 42 22 Q38 26 30 24"/>
    <path d="M22 24 L20 44 M26 24 L28 44"/>
    </g>
    <g stroke="#291822" stroke-width="3" stroke-linecap="round" stroke-linejoin="round" transform="translate(1,1)">
    <ellipse cx="24" cy="22" rx="7" ry="5"/>
    <circle cx="24" cy="14" r="4"/>
    <circle cx="22" cy="12" r="1.5"/>
    <path d="M22 14 L18 6 M26 14 L30 6"/>
    <path d="M30 20 Q38 18 42 22 Q38 26 30 24"/>
    <path d="M22 24 L20 44 M26 24 L28 44"/>
    </g>
    <g stroke="url(#g)" stroke-width="1.5" stroke-linecap="round" stroke-linejoin="round">
    <ellipse cx="24" cy="22" rx="7" ry="5"/>
    <circle cx="24" cy="14" r="4"/>
    <circle cx="22" cy="12" r="1.5"/>
    <path d="M22 14 L18 6 M26 14 L30 6"/>
    <path d="M30 20 Q38 18 42 22 Q38 26 30 24"/>
    <path d="M22 24 L20 44 M26 24 L28 44"/>
    </g>
  </g>
</svg>