<svg xmlns="http://www.w3.org/2000/svg" viewBox="0 0 48 48">
  <defs>
    <linearGradient id="g" x1="0%" y1="0%" x2="100%" y2="100%">
      <stop offset="0%" stop-color="#c4b3a1"/>
      <stop offset="100%" stop-color="#1f160c"/>
    </linearGradient>
    <filter id="shadow" x="-30%" y="-30%" width="160%" height="160%">
      <feDropShadow dx="2.5" dy="3.5" stdDeviation="3" flood-color="#1a1a2e" flood-opacity="0.45"/>
    </filter>
  </defs>
  <g filter="url(#shadow)" fill="none">
    <g stroke="#0f0b06" stroke-width="4.5" stroke-linecap="round" stroke-linejoin="round" transform="translate(2,2)">
    <polygon points="4,34 10,10 16,22 24,4 32,22 38,10 44,34"/>
    <polygon points="4,34 4,42 44,42 44,34"/>
    <circle cx="12" cy="16" r="2" fill="currentColor"/>
    <circle cx="24" cy="8" r="2" fill="currentColor"/>
    <circle cx="36" cy="16" r="2" fill="currentColor"/>
    </g>
    <g stroke="#1f160c" stroke-width="3" stroke-linecap="round" stroke-linejoin="round" transform="translate(1,1)">
    <polygon points="4,34 10,10 16,22 24,4 32,22 38,10 44,34"/>
    <polygon points="4,34 4,42 44,42 44,34"/>
    <circle cx="12" cy="16" r="2" fill="currentColor"/>
    <circle cx="24" cy="8" r="2" fill="currentColor"/>
    <circle cx="36" cy="16" r="2" fill="currentColor"/>
    </g>
    <g stroke="url(#g)" stroke-width="1.5" stroke-linecap="round" stroke-linejoin="round">
    <polygon points="4,34 10,10 16,22 24,4 32,22 38,10 44,34"/>
    <polygon points="4,34 4,42 44,42 44,34"/>
    <circle cx="12" cy="16" r="2" fill="currentColor"/>
    <circle cx="24" cy="8" r="2" fill="currentColor"/>
    <circle cx="36" cy="16" r="2" fill="currentColor"/>
    </g>
  </g>
</svg>