<svg xmlns="http://www.w3.org/2000/svg" viewBox="0 0 48 48">
  <defs>
    <linearGradient id="g" x1="0%" y1="0%" x2="100%" y2="100%">
      <stop offset="0%" stop-color="#c9a7b2"/>
      <stop offset="100%" stop-color="#220f15"/>
    </linearGradient>
    <filter id="shadow" x="-30%" y="-30%" width="160%" height="160%">
      <feDropShadow dx="2.5" dy="3.5" stdDeviation="3" flood-color="#1a1a2e" flood-opacity="0.45"/>
    </filter>
  </defs>
  <g filter="url(#shadow)" fill="none">
    <g stroke="#11070a" stroke-width="4.5" stroke-linecap="round" stroke-linejoin="round" transform="translate(2,2)">
    <circle cx="12" cy="12" r="4"/>
    <circle cx="24" cy="10" r="4"/>
    <circle cx="36" cy="12" r="4"/>
    <line x1="12" y1="16" x2="12" y2="30 M24 14 L24 28 M36 16 L36 30"/>
    <line x1="8" y1="30" x2="6" y2="44 M16 30 L12 44 M20 28 L16 44 M28 28 L24 44 M32 30 L30 44 M40 30 L42 44"/>
    </g>
    <g stroke="#220f15" stroke-width="3" stroke-linecap="round" stroke-linejoin="round" transform="translate(1,1)">
    <circle cx="12" cy="12" r="4"/>
    <circle cx="24" cy="10" r="4"/>
    <circle cx="36" cy="12" r="4"/>
    <line x1="12" y1="16" x2="12" y2="30 M24 14 L24 28 M36 16 L36 30"/>
    <line x1="8" y1="30" x2="6" y2="44 M16 30 L12 44 M20 28 L16 44 M28 28 L24 44 M32 30 L30 44 M40 30 L42 44"/>
    </g>
    <g stroke="url(#g)" stroke-width="1.5" stroke-linecap="round" stroke-linejoin="round">
    <circle cx="12" cy="12" r="4"/>
    <circle cx="24" cy="10" r="4"/>
    <circle cx="36" cy="12" r="4"/>
    <line x1="12" y1="16" x2="12" y2="30 M24 14 L24 28 M36 16 L36 30"/>
    <line x1="8" y1="30" x2="6" y2="44 M16 30 L12 44 M20 28 L16 44 M28 28 L24 44 M32 30 L30 44 M40 30 L42 44"/>
    </g>
  </g>
</svg>