<svg xmlns="http://www.w3.org/2000/svg" viewBox="0 0 48 48">
  <defs>
    <linearGradient id="g" x1="0%" y1="0%" x2="100%" y2="100%">
      <stop offset="0%" stop-color="#c6a59e"/>
      <stop offset="100%" stop-color="#471e16"/>
    </linearGradient>
    <filter id="sh" x="-30%" y="-30%" width="160%" height="160%">
      <feDropShadow dx="2.5" dy="3.5" stdDeviation="3" flood-color="#1a1a2e" flood-opacity="0.45"/>
    </filter>
  </defs>
  <g filter="url(#sh)" fill="none">
    <g stroke="#200d0a" stroke-width="4.5" stroke-linecap="round" stroke-linejoin="round" transform="translate(2,2)">
<ellipse cx="24" cy="28" rx="10" ry="12"/><circle cx="24" cy="10" r="7"/><path d="M18 4 L14 0"/><path d="M30 4 L34 0"/><circle cx="22" cy="8" r="2"/><path d="M18 34 L24 38 L30 34"/>
    </g>
    <g stroke="#471e16" stroke-width="3" stroke-linecap="round" stroke-linejoin="round" transform="translate(1,1)">
<ellipse cx="24" cy="28" rx="10" ry="12"/><circle cx="24" cy="10" r="7"/><path d="M18 4 L14 0"/><path d="M30 4 L34 0"/><circle cx="22" cy="8" r="2"/><path d="M18 34 L24 38 L30 34"/>
    </g>
    <g stroke="url(#g)" stroke-width="1.5" stroke-linecap="round" stroke-linejoin="round">
<ellipse cx="24" cy="28" rx="10" ry="12"/><circle cx="24" cy="10" r="7"/><path d="M18 4 L14 0"/><path d="M30 4 L34 0"/><circle cx="22" cy="8" r="2"/><path d="M18 34 L24 38 L30 34"/>
    </g>
  </g>
</svg>