<svg xmlns="http://www.w3.org/2000/svg" viewBox="0 0 48 48">
  <defs>
    <linearGradient id="g" x1="0%" y1="0%" x2="100%" y2="100%">
      <stop offset="0%" stop-color="#bbd3cd"/>
      <stop offset="100%" stop-color="#1a2724"/>
    </linearGradient>
    <filter id="shadow" x="-30%" y="-30%" width="160%" height="160%">
      <feDropShadow dx="2.5" dy="3.5" stdDeviation="3" flood-color="#1a1a2e" flood-opacity="0.45"/>
    </filter>
  </defs>
  <g filter="url(#shadow)" fill="none">
    <g stroke="#0d1312" stroke-width="4.5" stroke-linecap="round" stroke-linejoin="round" transform="translate(2,2)">
    <line x1="22" y1="6" x2="26" y2="44"/>
    <line x1="18" y1="10" x2="30" y2="10"/>
    <line x1="20" y1="6" x2="28" y2="6"/>
    <line x1="24" y1="16" x2="20" y2="44"/>
    </g>
    <g stroke="#1a2724" stroke-width="3" stroke-linecap="round" stroke-linejoin="round" transform="translate(1,1)">
    <line x1="22" y1="6" x2="26" y2="44"/>
    <line x1="18" y1="10" x2="30" y2="10"/>
    <line x1="20" y1="6" x2="28" y2="6"/>
    <line x1="24" y1="16" x2="20" y2="44"/>
    </g>
    <g stroke="url(#g)" stroke-width="1.5" stroke-linecap="round" stroke-linejoin="round">
    <line x1="22" y1="6" x2="26" y2="44"/>
    <line x1="18" y1="10" x2="30" y2="10"/>
    <line x1="20" y1="6" x2="28" y2="6"/>
    <line x1="24" y1="16" x2="20" y2="44"/>
    </g>
  </g>
</svg>