<svg xmlns="http://www.w3.org/2000/svg" viewBox="0 0 48 48">
  <defs>
    <linearGradient id="g" x1="0%" y1="0%" x2="100%" y2="100%">
      <stop offset="0%" stop-color="#FF8A65"/>
      <stop offset="100%" stop-color="#853F00"/>
    </linearGradient>
    <filter id="sh" x="-30%" y="-30%" width="160%" height="160%">
      <feDropShadow dx="2.5" dy="3.5" stdDeviation="3" flood-color="#1a1a2e" flood-opacity="0.45"/>
    </filter>
  </defs>
  <g filter="url(#sh)" fill="none">
    <g stroke="#421F00" stroke-width="4.5" stroke-linecap="round" stroke-linejoin="round" transform="translate(2,2)">
    <path d="M24 4 L42 14 L24 24 L6 14 Z"/>
        <path d="M6 14 L6 36 L24 46 L24 24"/>
        <path d="M24 24 L24 46 L42 36 L42 14"/>
    </g>
    <g stroke="#853F00" stroke-width="3" stroke-linecap="round" stroke-linejoin="round" transform="translate(1,1)">
    <path d="M24 4 L42 14 L24 24 L6 14 Z"/>
        <path d="M6 14 L6 36 L24 46 L24 24"/>
        <path d="M24 24 L24 46 L42 36 L42 14"/>
    </g>
    <g stroke="url(#g)" stroke-width="1.5" stroke-linecap="round" stroke-linejoin="round">
    <path d="M24 4 L42 14 L24 24 L6 14 Z"/>
        <path d="M6 14 L6 36 L24 46 L24 24"/>
        <path d="M24 24 L24 46 L42 36 L42 14"/>
    </g>
  </g>
</svg>