<svg xmlns="http://www.w3.org/2000/svg" viewBox="0 0 48 48">
  <defs>
    <linearGradient id="g" x1="0%" y1="0%" x2="100%" y2="100%">
      <stop offset="0%" stop-color="#b1c5a5"/>
      <stop offset="100%" stop-color="#141f0e"/>
    </linearGradient>
    <filter id="shadow" x="-30%" y="-30%" width="160%" height="160%">
      <feDropShadow dx="2.5" dy="3.5" stdDeviation="3" flood-color="#1a1a2e" flood-opacity="0.45"/>
    </filter>
  </defs>
  <g filter="url(#shadow)" fill="none">
    <g stroke="#0a0f07" stroke-width="4.5" stroke-linecap="round" stroke-linejoin="round" transform="translate(2,2)">
    <path d="M10 10 L14 44 L34 44 L38 10 Z"/>
    <ellipse cx="24" cy="10" rx="14" ry="4"/>
    <line x1="12" y1="20" x2="36" y2="20 M12 30 L36 30"/>
    <path d="M38 14 Q42 14 42 18 Q42 22 38 22"/>
    </g>
    <g stroke="#141f0e" stroke-width="3" stroke-linecap="round" stroke-linejoin="round" transform="translate(1,1)">
    <path d="M10 10 L14 44 L34 44 L38 10 Z"/>
    <ellipse cx="24" cy="10" rx="14" ry="4"/>
    <line x1="12" y1="20" x2="36" y2="20 M12 30 L36 30"/>
    <path d="M38 14 Q42 14 42 18 Q42 22 38 22"/>
    </g>
    <g stroke="url(#g)" stroke-width="1.5" stroke-linecap="round" stroke-linejoin="round">
    <path d="M10 10 L14 44 L34 44 L38 10 Z"/>
    <ellipse cx="24" cy="10" rx="14" ry="4"/>
    <line x1="12" y1="20" x2="36" y2="20 M12 30 L36 30"/>
    <path d="M38 14 Q42 14 42 18 Q42 22 38 22"/>
    </g>
  </g>
</svg>