<svg xmlns="http://www.w3.org/2000/svg" viewBox="0 0 48 48">
  <defs>
    <linearGradient id="g" x1="0%" y1="0%" x2="100%" y2="100%">
      <stop offset="0%" stop-color="#e5b2e4"/>
      <stop offset="100%" stop-color="#311530"/>
    </linearGradient>
    <filter id="shadow" x="-30%" y="-30%" width="160%" height="160%">
      <feDropShadow dx="2.5" dy="3.5" stdDeviation="3" flood-color="#1a1a2e" flood-opacity="0.45"/>
    </filter>
  </defs>
  <g filter="url(#shadow)" fill="none">
    <g stroke="#180a18" stroke-width="4.5" stroke-linecap="round" stroke-linejoin="round" transform="translate(2,2)">
    <path d="M8 28 L14 44 L34 44 L40 28 Z"/>
    <ellipse cx="24" cy="28" rx="16" ry="6"/>
    <circle cx="16" cy="20" r="4" fill="currentColor"/>
    <circle cx="32" cy="20" r="3" fill="currentColor"/>
    <circle cx="24" cy="16" r="2" fill="currentColor"/>
    </g>
    <g stroke="#311530" stroke-width="3" stroke-linecap="round" stroke-linejoin="round" transform="translate(1,1)">
    <path d="M8 28 L14 44 L34 44 L40 28 Z"/>
    <ellipse cx="24" cy="28" rx="16" ry="6"/>
    <circle cx="16" cy="20" r="4" fill="currentColor"/>
    <circle cx="32" cy="20" r="3" fill="currentColor"/>
    <circle cx="24" cy="16" r="2" fill="currentColor"/>
    </g>
    <g stroke="url(#g)" stroke-width="1.5" stroke-linecap="round" stroke-linejoin="round">
    <path d="M8 28 L14 44 L34 44 L40 28 Z"/>
    <ellipse cx="24" cy="28" rx="16" ry="6"/>
    <circle cx="16" cy="20" r="4" fill="currentColor"/>
    <circle cx="32" cy="20" r="3" fill="currentColor"/>
    <circle cx="24" cy="16" r="2" fill="currentColor"/>
    </g>
  </g>
</svg>