<svg xmlns="http://www.w3.org/2000/svg" viewBox="0 0 48 48">
  <defs>
    <linearGradient id="g" x1="0%" y1="0%" x2="100%" y2="100%">
      <stop offset="0%" stop-color="#c2dae0"/>
      <stop offset="100%" stop-color="#1e2b2f"/>
    </linearGradient>
    <filter id="shadow" x="-30%" y="-30%" width="160%" height="160%">
      <feDropShadow dx="2.5" dy="3.5" stdDeviation="3" flood-color="#1a1a2e" flood-opacity="0.45"/>
    </filter>
  </defs>
  <g filter="url(#shadow)" fill="none">
    <g stroke="#0f1517" stroke-width="4.5" stroke-linecap="round" stroke-linejoin="round" transform="translate(2,2)">
    <path d="M14 20 Q14 14 24 14 Q34 14 34 20 L34 30 L14 30 Z"/>
    <ellipse cx="24" cy="30" rx="12" ry="4"/>
    <path d="M14 20 Q10 18 10 24 Q10 28 14 30"/>
    <path d="M34 20 Q38 18 38 24 Q38 28 34 30"/>
    </g>
    <g stroke="#1e2b2f" stroke-width="3" stroke-linecap="round" stroke-linejoin="round" transform="translate(1,1)">
    <path d="M14 20 Q14 14 24 14 Q34 14 34 20 L34 30 L14 30 Z"/>
    <ellipse cx="24" cy="30" rx="12" ry="4"/>
    <path d="M14 20 Q10 18 10 24 Q10 28 14 30"/>
    <path d="M34 20 Q38 18 38 24 Q38 28 34 30"/>
    </g>
    <g stroke="url(#g)" stroke-width="1.5" stroke-linecap="round" stroke-linejoin="round">
    <path d="M14 20 Q14 14 24 14 Q34 14 34 20 L34 30 L14 30 Z"/>
    <ellipse cx="24" cy="30" rx="12" ry="4"/>
    <path d="M14 20 Q10 18 10 24 Q10 28 14 30"/>
    <path d="M34 20 Q38 18 38 24 Q38 28 34 30"/>
    </g>
  </g>
</svg>