<svg xmlns="http://www.w3.org/2000/svg" viewBox="0 0 48 48">
  <defs>
    <linearGradient id="g" x1="0%" y1="0%" x2="100%" y2="100%">
      <stop offset="0%" stop-color="#d2b5e4"/>
      <stop offset="100%" stop-color="#271731"/>
    </linearGradient>
    <filter id="shadow" x="-30%" y="-30%" width="160%" height="160%">
      <feDropShadow dx="2.5" dy="3.5" stdDeviation="3" flood-color="#1a1a2e" flood-opacity="0.45"/>
    </filter>
  </defs>
  <g filter="url(#shadow)" fill="none">
    <g stroke="#130b18" stroke-width="4.5" stroke-linecap="round" stroke-linejoin="round" transform="translate(2,2)">
    <ellipse cx="24" cy="18" rx="10" ry="7"/>
    <ellipse cx="24" cy="14" rx="6" ry="4"/>
    <circle cx="22" cy="12" r="1.5"/>
    <circle cx="26" cy="12" r="1.5"/>
    <path d="M14 22 Q8 28 6 32 M20 24 L18 36 M28 24 L30 36 M34 22 Q40 28 42 32"/>
    </g>
    <g stroke="#271731" stroke-width="3" stroke-linecap="round" stroke-linejoin="round" transform="translate(1,1)">
    <ellipse cx="24" cy="18" rx="10" ry="7"/>
    <ellipse cx="24" cy="14" rx="6" ry="4"/>
    <circle cx="22" cy="12" r="1.5"/>
    <circle cx="26" cy="12" r="1.5"/>
    <path d="M14 22 Q8 28 6 32 M20 24 L18 36 M28 24 L30 36 M34 22 Q40 28 42 32"/>
    </g>
    <g stroke="url(#g)" stroke-width="1.5" stroke-linecap="round" stroke-linejoin="round">
    <ellipse cx="24" cy="18" rx="10" ry="7"/>
    <ellipse cx="24" cy="14" rx="6" ry="4"/>
    <circle cx="22" cy="12" r="1.5"/>
    <circle cx="26" cy="12" r="1.5"/>
    <path d="M14 22 Q8 28 6 32 M20 24 L18 36 M28 24 L30 36 M34 22 Q40 28 42 32"/>
    </g>
  </g>
</svg>