<svg xmlns="http://www.w3.org/2000/svg" viewBox="0 0 48 48">
  <defs>
    <linearGradient id="g" x1="0%" y1="0%" x2="100%" y2="100%">
      <stop offset="0%" stop-color="#b2d7bf"/>
      <stop offset="100%" stop-color="#2e5c3e"/>
    </linearGradient>
    <filter id="sh" x="-30%" y="-30%" width="160%" height="160%">
      <feDropShadow dx="2.5" dy="3.5" stdDeviation="3" flood-color="#1a1a2e" flood-opacity="0.45"/>
    </filter>
  </defs>
  <g filter="url(#sh)" fill="none">
    <g stroke="#152a1c" stroke-width="4.5" stroke-linecap="round" stroke-linejoin="round" transform="translate(2,2)">
<ellipse cx="24" cy="22" rx="12" ry="8"/><path d="M12 22 Q12 8 24 8 Q36 8 36 22"/><circle cx="18" cy="20" r="2"/><circle cx="30" cy="20" r="2"/><path d="M14 28 L8 34"/><path d="M34 28 L40 34"/><path d="M18 28 L12 38"/><path d="M30 28 L36 38"/><path d="M24 30 L24 40"/>
    </g>
    <g stroke="#2e5c3e" stroke-width="3" stroke-linecap="round" stroke-linejoin="round" transform="translate(1,1)">
<ellipse cx="24" cy="22" rx="12" ry="8"/><path d="M12 22 Q12 8 24 8 Q36 8 36 22"/><circle cx="18" cy="20" r="2"/><circle cx="30" cy="20" r="2"/><path d="M14 28 L8 34"/><path d="M34 28 L40 34"/><path d="M18 28 L12 38"/><path d="M30 28 L36 38"/><path d="M24 30 L24 40"/>
    </g>
    <g stroke="url(#g)" stroke-width="1.5" stroke-linecap="round" stroke-linejoin="round">
<ellipse cx="24" cy="22" rx="12" ry="8"/><path d="M12 22 Q12 8 24 8 Q36 8 36 22"/><circle cx="18" cy="20" r="2"/><circle cx="30" cy="20" r="2"/><path d="M14 28 L8 34"/><path d="M34 28 L40 34"/><path d="M18 28 L12 38"/><path d="M30 28 L36 38"/><path d="M24 30 L24 40"/>
    </g>
  </g>
</svg>