<svg xmlns="http://www.w3.org/2000/svg" viewBox="0 0 48 48">
  <defs>
    <linearGradient id="g" x1="0%" y1="0%" x2="100%" y2="100%">
      <stop offset="0%" stop-color="#d3b8c4"/>
      <stop offset="100%" stop-color="#27181f"/>
    </linearGradient>
    <filter id="shadow" x="-30%" y="-30%" width="160%" height="160%">
      <feDropShadow dx="2.5" dy="3.5" stdDeviation="3" flood-color="#1a1a2e" flood-opacity="0.45"/>
    </filter>
  </defs>
  <g filter="url(#shadow)" fill="none">
    <g stroke="#130c0f" stroke-width="4.5" stroke-linecap="round" stroke-linejoin="round" transform="translate(2,2)">
    <circle cx="24" cy="24" r="14"/>
    <circle cx="24" cy="18" r="5" fill="currentColor"/>
    <circle cx="24" cy="18" r="2"/>
    <path d="M14 32 Q24 38 34 32"/>
    <line x1="10" y1="12" x2="18" y2="16 M38 12 L30 16"/>
    </g>
    <g stroke="#27181f" stroke-width="3" stroke-linecap="round" stroke-linejoin="round" transform="translate(1,1)">
    <circle cx="24" cy="24" r="14"/>
    <circle cx="24" cy="18" r="5" fill="currentColor"/>
    <circle cx="24" cy="18" r="2"/>
    <path d="M14 32 Q24 38 34 32"/>
    <line x1="10" y1="12" x2="18" y2="16 M38 12 L30 16"/>
    </g>
    <g stroke="url(#g)" stroke-width="1.5" stroke-linecap="round" stroke-linejoin="round">
    <circle cx="24" cy="24" r="14"/>
    <circle cx="24" cy="18" r="5" fill="currentColor"/>
    <circle cx="24" cy="18" r="2"/>
    <path d="M14 32 Q24 38 34 32"/>
    <line x1="10" y1="12" x2="18" y2="16 M38 12 L30 16"/>
    </g>
  </g>
</svg>