<svg xmlns="http://www.w3.org/2000/svg" viewBox="0 0 48 48">
  <defs>
    <linearGradient id="iconGrad" x1="0%" y1="0%" x2="100%" y2="100%">
      <stop offset="0%" stop-color="#A5D6A7"/>
      <stop offset="100%" stop-color="#466d48"/>
    </linearGradient>
    <filter id="shadow" x="-30%" y="-30%" width="160%" height="160%">
      <feDropShadow dx="2.5" dy="3.5" stdDeviation="3" flood-color="#1a1a2e" flood-opacity="0.45"/>
    </filter>
  </defs>
  <g filter="url(#shadow)" fill="none">
    <g stroke="#233624" stroke-width="4.5" stroke-linecap="round" stroke-linejoin="round" transform="translate(2,2)">
      <ellipse cx="24" cy="12" rx="14" ry="4"/>
    <path d="M10 12v24c0 2.2 6.3 4 14 4s14-1.8 14-4V12"/>
    <path d="M10 20c0 2.2 6.3 4 14 4s14-1.8 14-4"/>
    <path d="M10 28c0 2.2 6.3 4 14 4s14-1.8 14-4"/>
    </g>
    <g stroke="#466d48" stroke-width="3" stroke-linecap="round" stroke-linejoin="round" transform="translate(1,1)">
      <ellipse cx="24" cy="12" rx="14" ry="4"/>
    <path d="M10 12v24c0 2.2 6.3 4 14 4s14-1.8 14-4V12"/>
    <path d="M10 20c0 2.2 6.3 4 14 4s14-1.8 14-4"/>
    <path d="M10 28c0 2.2 6.3 4 14 4s14-1.8 14-4"/>
    </g>
    <g stroke="url(#iconGrad)" stroke-width="1.5" stroke-linecap="round" stroke-linejoin="round">
      <ellipse cx="24" cy="12" rx="14" ry="4"/>
    <path d="M10 12v24c0 2.2 6.3 4 14 4s14-1.8 14-4V12"/>
    <path d="M10 20c0 2.2 6.3 4 14 4s14-1.8 14-4"/>
    <path d="M10 28c0 2.2 6.3 4 14 4s14-1.8 14-4"/>
    </g>
  </g>
</svg>
