<svg xmlns="http://www.w3.org/2000/svg" viewBox="0 0 48 48">
  <defs>
    <linearGradient id="g" x1="0%" y1="0%" x2="100%" y2="100%">
      <stop offset="0%" stop-color="#a2c1bb"/>
      <stop offset="100%" stop-color="#0c1d1a"/>
    </linearGradient>
    <filter id="shadow" x="-30%" y="-30%" width="160%" height="160%">
      <feDropShadow dx="2.5" dy="3.5" stdDeviation="3" flood-color="#1a1a2e" flood-opacity="0.45"/>
    </filter>
  </defs>
  <g filter="url(#shadow)" fill="none">
    <g stroke="#060e0d" stroke-width="4.5" stroke-linecap="round" stroke-linejoin="round" transform="translate(2,2)">
    <path d="M16 8 L14 38 L34 38 L32 8 Z"/>
    <ellipse cx="24" cy="8" rx="8" ry="3"/>
    <rect x="8" y="38" width="32" height="6" rx="2"/>
    <line x1="24" y1="8" x2="24" y2="4"/>
    </g>
    <g stroke="#0c1d1a" stroke-width="3" stroke-linecap="round" stroke-linejoin="round" transform="translate(1,1)">
    <path d="M16 8 L14 38 L34 38 L32 8 Z"/>
    <ellipse cx="24" cy="8" rx="8" ry="3"/>
    <rect x="8" y="38" width="32" height="6" rx="2"/>
    <line x1="24" y1="8" x2="24" y2="4"/>
    </g>
    <g stroke="url(#g)" stroke-width="1.5" stroke-linecap="round" stroke-linejoin="round">
    <path d="M16 8 L14 38 L34 38 L32 8 Z"/>
    <ellipse cx="24" cy="8" rx="8" ry="3"/>
    <rect x="8" y="38" width="32" height="6" rx="2"/>
    <line x1="24" y1="8" x2="24" y2="4"/>
    </g>
  </g>
</svg>