<svg xmlns="http://www.w3.org/2000/svg" viewBox="0 0 48 48">
  <defs>
    <linearGradient id="g" x1="0%" y1="0%" x2="100%" y2="100%">
      <stop offset="0%" stop-color="#dbd6b7"/>
      <stop offset="100%" stop-color="#605a34"/>
    </linearGradient>
    <filter id="sh" x="-30%" y="-30%" width="160%" height="160%">
      <feDropShadow dx="2.5" dy="3.5" stdDeviation="3" flood-color="#1a1a2e" flood-opacity="0.45"/>
    </filter>
  </defs>
  <g filter="url(#sh)" fill="none">
    <g stroke="#2b2917" stroke-width="4.5" stroke-linecap="round" stroke-linejoin="round" transform="translate(2,2)">
<path d="M14 26 Q14 8 24 8 Q34 8 34 26 L34 38 L14 38 Z"/><path d="M34 18 L40 14 L40 22 Z"/><circle cx="24" cy="20" r="2.5"/>
    </g>
    <g stroke="#605a34" stroke-width="3" stroke-linecap="round" stroke-linejoin="round" transform="translate(1,1)">
<path d="M14 26 Q14 8 24 8 Q34 8 34 26 L34 38 L14 38 Z"/><path d="M34 18 L40 14 L40 22 Z"/><circle cx="24" cy="20" r="2.5"/>
    </g>
    <g stroke="url(#g)" stroke-width="1.5" stroke-linecap="round" stroke-linejoin="round">
<path d="M14 26 Q14 8 24 8 Q34 8 34 26 L34 38 L14 38 Z"/><path d="M34 18 L40 14 L40 22 Z"/><circle cx="24" cy="20" r="2.5"/>
    </g>
  </g>
</svg>