<svg xmlns="http://www.w3.org/2000/svg" viewBox="0 0 48 48">
  <defs>
    <linearGradient id="g" x1="0%" y1="0%" x2="100%" y2="100%">
      <stop offset="0%" stop-color="#ddb1ce"/>
      <stop offset="100%" stop-color="#2d1425"/>
    </linearGradient>
    <filter id="shadow" x="-30%" y="-30%" width="160%" height="160%">
      <feDropShadow dx="2.5" dy="3.5" stdDeviation="3" flood-color="#1a1a2e" flood-opacity="0.45"/>
    </filter>
  </defs>
  <g filter="url(#shadow)" fill="none">
    <g stroke="#160a12" stroke-width="4.5" stroke-linecap="round" stroke-linejoin="round" transform="translate(2,2)">
    <ellipse cx="24" cy="28" rx="10" ry="14"/>
    <ellipse cx="24" cy="18" rx="6" ry="4"/>
    <circle cx="22" cy="16" r="1.5"/>
    <path d="M18 10 L16 2 L20 8 M20 8 L22 2 M14 12 L12 4 L16 10"/>
    <line x1="18" y1="34" x2="14" y2="44"/>
    <line x1="30" y1="34" x2="34" y2="44"/>
    </g>
    <g stroke="#2d1425" stroke-width="3" stroke-linecap="round" stroke-linejoin="round" transform="translate(1,1)">
    <ellipse cx="24" cy="28" rx="10" ry="14"/>
    <ellipse cx="24" cy="18" rx="6" ry="4"/>
    <circle cx="22" cy="16" r="1.5"/>
    <path d="M18 10 L16 2 L20 8 M20 8 L22 2 M14 12 L12 4 L16 10"/>
    <line x1="18" y1="34" x2="14" y2="44"/>
    <line x1="30" y1="34" x2="34" y2="44"/>
    </g>
    <g stroke="url(#g)" stroke-width="1.5" stroke-linecap="round" stroke-linejoin="round">
    <ellipse cx="24" cy="28" rx="10" ry="14"/>
    <ellipse cx="24" cy="18" rx="6" ry="4"/>
    <circle cx="22" cy="16" r="1.5"/>
    <path d="M18 10 L16 2 L20 8 M20 8 L22 2 M14 12 L12 4 L16 10"/>
    <line x1="18" y1="34" x2="14" y2="44"/>
    <line x1="30" y1="34" x2="34" y2="44"/>
    </g>
  </g>
</svg>