<svg xmlns="http://www.w3.org/2000/svg" viewBox="0 0 48 48">
  <defs>
    <linearGradient id="g" x1="0%" y1="0%" x2="100%" y2="100%">
      <stop offset="0%" stop-color="#d1d2a5"/>
      <stop offset="100%" stop-color="#26260d"/>
    </linearGradient>
    <filter id="shadow" x="-30%" y="-30%" width="160%" height="160%">
      <feDropShadow dx="2.5" dy="3.5" stdDeviation="3" flood-color="#1a1a2e" flood-opacity="0.45"/>
    </filter>
  </defs>
  <g filter="url(#shadow)" fill="none">
    <g stroke="#131306" stroke-width="4.5" stroke-linecap="round" stroke-linejoin="round" transform="translate(2,2)">
    <rect x="4" y="28" width="40" height="4" rx="1"/>
    <line x1="8" y1="32" x2="8" y2="44 M40 32 L40 44"/>
    <rect x="4" y="38" width="12" height="6" rx="2"/>
    <rect x="32" y="38" width="12" height="6" rx="2"/>
    </g>
    <g stroke="#26260d" stroke-width="3" stroke-linecap="round" stroke-linejoin="round" transform="translate(1,1)">
    <rect x="4" y="28" width="40" height="4" rx="1"/>
    <line x1="8" y1="32" x2="8" y2="44 M40 32 L40 44"/>
    <rect x="4" y="38" width="12" height="6" rx="2"/>
    <rect x="32" y="38" width="12" height="6" rx="2"/>
    </g>
    <g stroke="url(#g)" stroke-width="1.5" stroke-linecap="round" stroke-linejoin="round">
    <rect x="4" y="28" width="40" height="4" rx="1"/>
    <line x1="8" y1="32" x2="8" y2="44 M40 32 L40 44"/>
    <rect x="4" y="38" width="12" height="6" rx="2"/>
    <rect x="32" y="38" width="12" height="6" rx="2"/>
    </g>
  </g>
</svg>