<svg xmlns="http://www.w3.org/2000/svg" viewBox="0 0 48 48">
  <defs>
    <linearGradient id="g" x1="0%" y1="0%" x2="100%" y2="100%">
      <stop offset="0%" stop-color="#a5a4c4"/>
      <stop offset="100%" stop-color="#0e0d1f"/>
    </linearGradient>
    <filter id="shadow" x="-30%" y="-30%" width="160%" height="160%">
      <feDropShadow dx="2.5" dy="3.5" stdDeviation="3" flood-color="#1a1a2e" flood-opacity="0.45"/>
    </filter>
  </defs>
  <g filter="url(#shadow)" fill="none">
    <g stroke="#07060f" stroke-width="4.5" stroke-linecap="round" stroke-linejoin="round" transform="translate(2,2)">
    <rect x="6" y="4" width="36" height="40" rx="2"/>
    <rect x="10" y="8" width="28" height="26" rx="1"/>
    <line x1="12" y1="14" x2="36" y2="14 M12 20 L36 20 M12 26 L36 26"/>
    <circle cx="24" cy="38" r="4"/>
    </g>
    <g stroke="#0e0d1f" stroke-width="3" stroke-linecap="round" stroke-linejoin="round" transform="translate(1,1)">
    <rect x="6" y="4" width="36" height="40" rx="2"/>
    <rect x="10" y="8" width="28" height="26" rx="1"/>
    <line x1="12" y1="14" x2="36" y2="14 M12 20 L36 20 M12 26 L36 26"/>
    <circle cx="24" cy="38" r="4"/>
    </g>
    <g stroke="url(#g)" stroke-width="1.5" stroke-linecap="round" stroke-linejoin="round">
    <rect x="6" y="4" width="36" height="40" rx="2"/>
    <rect x="10" y="8" width="28" height="26" rx="1"/>
    <line x1="12" y1="14" x2="36" y2="14 M12 20 L36 20 M12 26 L36 26"/>
    <circle cx="24" cy="38" r="4"/>
    </g>
  </g>
</svg>