<svg xmlns="http://www.w3.org/2000/svg" viewBox="0 0 48 48">
  <defs>
    <linearGradient id="g" x1="0%" y1="0%" x2="100%" y2="100%">
      <stop offset="0%" stop-color="#a4c9ab"/>
      <stop offset="100%" stop-color="#0d2211"/>
    </linearGradient>
    <filter id="shadow" x="-30%" y="-30%" width="160%" height="160%">
      <feDropShadow dx="2.5" dy="3.5" stdDeviation="3" flood-color="#1a1a2e" flood-opacity="0.45"/>
    </filter>
  </defs>
  <g filter="url(#shadow)" fill="none">
    <g stroke="#061108" stroke-width="4.5" stroke-linecap="round" stroke-linejoin="round" transform="translate(2,2)">
    <circle cx="24" cy="18" r="10"/>
    <line x1="24" y1="8" x2="24" y2="4"/>
    <rect x="20" y="4" width="8" height="4" rx="2"/>
    <circle cx="24" cy="18" r="2" fill="currentColor"/>
    <circle cx="18" cy="14" r="1.5" fill="currentColor"/>
    <circle cx="30" cy="14" r="1.5" fill="currentColor"/>
    <circle cx="18" cy="22" r="1.5" fill="currentColor"/>
    <circle cx="30" cy="22" r="1.5" fill="currentColor"/>
    </g>
    <g stroke="#0d2211" stroke-width="3" stroke-linecap="round" stroke-linejoin="round" transform="translate(1,1)">
    <circle cx="24" cy="18" r="10"/>
    <line x1="24" y1="8" x2="24" y2="4"/>
    <rect x="20" y="4" width="8" height="4" rx="2"/>
    <circle cx="24" cy="18" r="2" fill="currentColor"/>
    <circle cx="18" cy="14" r="1.5" fill="currentColor"/>
    <circle cx="30" cy="14" r="1.5" fill="currentColor"/>
    <circle cx="18" cy="22" r="1.5" fill="currentColor"/>
    <circle cx="30" cy="22" r="1.5" fill="currentColor"/>
    </g>
    <g stroke="url(#g)" stroke-width="1.5" stroke-linecap="round" stroke-linejoin="round">
    <circle cx="24" cy="18" r="10"/>
    <line x1="24" y1="8" x2="24" y2="4"/>
    <rect x="20" y="4" width="8" height="4" rx="2"/>
    <circle cx="24" cy="18" r="2" fill="currentColor"/>
    <circle cx="18" cy="14" r="1.5" fill="currentColor"/>
    <circle cx="30" cy="14" r="1.5" fill="currentColor"/>
    <circle cx="18" cy="22" r="1.5" fill="currentColor"/>
    <circle cx="30" cy="22" r="1.5" fill="currentColor"/>
    </g>
  </g>
</svg>