<svg xmlns="http://www.w3.org/2000/svg" viewBox="0 0 48 48">
  <defs>
    <linearGradient id="g" x1="0%" y1="0%" x2="100%" y2="100%">
      <stop offset="0%" stop-color="#cbdbbe"/>
      <stop offset="100%" stop-color="#232b1c"/>
    </linearGradient>
    <filter id="shadow" x="-30%" y="-30%" width="160%" height="160%">
      <feDropShadow dx="2.5" dy="3.5" stdDeviation="3" flood-color="#1a1a2e" flood-opacity="0.45"/>
    </filter>
  </defs>
  <g filter="url(#shadow)" fill="none">
    <g stroke="#11150e" stroke-width="4.5" stroke-linecap="round" stroke-linejoin="round" transform="translate(2,2)">
    <path d="M4 40 Q12 20 24 10 Q36 0 44 6"/>
    <circle cx="24" cy="10" r="4"/>
    <line x1="16" y1="44" x2="16" y2="28"/>
    <line x1="32" y1="44" x2="32" y2="28"/>
    <line x1="16" y1="34" x2="32" y2="34"/>
    </g>
    <g stroke="#232b1c" stroke-width="3" stroke-linecap="round" stroke-linejoin="round" transform="translate(1,1)">
    <path d="M4 40 Q12 20 24 10 Q36 0 44 6"/>
    <circle cx="24" cy="10" r="4"/>
    <line x1="16" y1="44" x2="16" y2="28"/>
    <line x1="32" y1="44" x2="32" y2="28"/>
    <line x1="16" y1="34" x2="32" y2="34"/>
    </g>
    <g stroke="url(#g)" stroke-width="1.5" stroke-linecap="round" stroke-linejoin="round">
    <path d="M4 40 Q12 20 24 10 Q36 0 44 6"/>
    <circle cx="24" cy="10" r="4"/>
    <line x1="16" y1="44" x2="16" y2="28"/>
    <line x1="32" y1="44" x2="32" y2="28"/>
    <line x1="16" y1="34" x2="32" y2="34"/>
    </g>
  </g>
</svg>