<svg xmlns="http://www.w3.org/2000/svg" viewBox="0 0 48 48">
  <defs>
    <linearGradient id="g" x1="0%" y1="0%" x2="100%" y2="100%">
      <stop offset="0%" stop-color="#c4dfa7"/>
      <stop offset="100%" stop-color="#1f2e0f"/>
    </linearGradient>
    <filter id="shadow" x="-30%" y="-30%" width="160%" height="160%">
      <feDropShadow dx="2.5" dy="3.5" stdDeviation="3" flood-color="#1a1a2e" flood-opacity="0.45"/>
    </filter>
  </defs>
  <g filter="url(#shadow)" fill="none">
    <g stroke="#0f1707" stroke-width="4.5" stroke-linecap="round" stroke-linejoin="round" transform="translate(2,2)">
    <path d="M24 4 Q8 10 10 24 Q12 36 24 44 Q36 36 38 24 Q40 10 24 4 Z"/>
    <line x1="24" y1="10" x2="24" y2="22 M20 16 L28 16 M18 26 L30 26"/>
    <circle cx="24" cy="14" r="3" fill="currentColor"/>
    </g>
    <g stroke="#1f2e0f" stroke-width="3" stroke-linecap="round" stroke-linejoin="round" transform="translate(1,1)">
    <path d="M24 4 Q8 10 10 24 Q12 36 24 44 Q36 36 38 24 Q40 10 24 4 Z"/>
    <line x1="24" y1="10" x2="24" y2="22 M20 16 L28 16 M18 26 L30 26"/>
    <circle cx="24" cy="14" r="3" fill="currentColor"/>
    </g>
    <g stroke="url(#g)" stroke-width="1.5" stroke-linecap="round" stroke-linejoin="round">
    <path d="M24 4 Q8 10 10 24 Q12 36 24 44 Q36 36 38 24 Q40 10 24 4 Z"/>
    <line x1="24" y1="10" x2="24" y2="22 M20 16 L28 16 M18 26 L30 26"/>
    <circle cx="24" cy="14" r="3" fill="currentColor"/>
    </g>
  </g>
</svg>