<svg xmlns="http://www.w3.org/2000/svg" viewBox="0 0 48 48">
  <defs>
    <linearGradient id="g" x1="0%" y1="0%" x2="100%" y2="100%">
      <stop offset="0%" stop-color="#b2dbd2"/>
      <stop offset="100%" stop-color="#152b27"/>
    </linearGradient>
    <filter id="shadow" x="-30%" y="-30%" width="160%" height="160%">
      <feDropShadow dx="2.5" dy="3.5" stdDeviation="3" flood-color="#1a1a2e" flood-opacity="0.45"/>
    </filter>
  </defs>
  <g filter="url(#shadow)" fill="none">
    <g stroke="#0a1513" stroke-width="4.5" stroke-linecap="round" stroke-linejoin="round" transform="translate(2,2)">
    <rect x="10" y="16" width="28" height="16" rx="4"/>
    <rect x="14" y="20" width="20" height="8" rx="2"/>
    <circle cx="20" cy="12" r="4"/>
    <line x1="20" y1="8" x2="20" y2="2"/>
    </g>
    <g stroke="#152b27" stroke-width="3" stroke-linecap="round" stroke-linejoin="round" transform="translate(1,1)">
    <rect x="10" y="16" width="28" height="16" rx="4"/>
    <rect x="14" y="20" width="20" height="8" rx="2"/>
    <circle cx="20" cy="12" r="4"/>
    <line x1="20" y1="8" x2="20" y2="2"/>
    </g>
    <g stroke="url(#g)" stroke-width="1.5" stroke-linecap="round" stroke-linejoin="round">
    <rect x="10" y="16" width="28" height="16" rx="4"/>
    <rect x="14" y="20" width="20" height="8" rx="2"/>
    <circle cx="20" cy="12" r="4"/>
    <line x1="20" y1="8" x2="20" y2="2"/>
    </g>
  </g>
</svg>