<svg xmlns="http://www.w3.org/2000/svg" viewBox="0 0 48 48">
  <defs>
    <linearGradient id="g" x1="0%" y1="0%" x2="100%" y2="100%">
      <stop offset="0%" stop-color="#ace2e4"/>
      <stop offset="100%" stop-color="#27696b"/>
    </linearGradient>
    <filter id="sh" x="-30%" y="-30%" width="160%" height="160%">
      <feDropShadow dx="2.5" dy="3.5" stdDeviation="3" flood-color="#1a1a2e" flood-opacity="0.45"/>
    </filter>
  </defs>
  <g filter="url(#sh)" fill="none">
    <g stroke="#122f31" stroke-width="4.5" stroke-linecap="round" stroke-linejoin="round" transform="translate(2,2)">
<ellipse cx="24" cy="24" rx="12" ry="8"/>
        <polygon points="10,28 24,10 38,28"/>
        <circle cx="18" cy="22" r="1.5"/>
        <circle cx="30" cy="22" r="1.5"/>
        <path d="M14 30 L24 34 L34 30"/>
    </g>
    <g stroke="#27696b" stroke-width="3" stroke-linecap="round" stroke-linejoin="round" transform="translate(1,1)">
<ellipse cx="24" cy="24" rx="12" ry="8"/>
        <polygon points="10,28 24,10 38,28"/>
        <circle cx="18" cy="22" r="1.5"/>
        <circle cx="30" cy="22" r="1.5"/>
        <path d="M14 30 L24 34 L34 30"/>
    </g>
    <g stroke="url(#g)" stroke-width="1.5" stroke-linecap="round" stroke-linejoin="round">
<ellipse cx="24" cy="24" rx="12" ry="8"/>
        <polygon points="10,28 24,10 38,28"/>
        <circle cx="18" cy="22" r="1.5"/>
        <circle cx="30" cy="22" r="1.5"/>
        <path d="M14 30 L24 34 L34 30"/>
    </g>
  </g>
</svg>