<svg xmlns="http://www.w3.org/2000/svg" viewBox="0 0 48 48">
  <defs>
    <linearGradient id="g" x1="0%" y1="0%" x2="100%" y2="100%">
      <stop offset="0%" stop-color="#a7d7d6"/>
      <stop offset="100%" stop-color="#0f2a29"/>
    </linearGradient>
    <filter id="shadow" x="-30%" y="-30%" width="160%" height="160%">
      <feDropShadow dx="2.5" dy="3.5" stdDeviation="3" flood-color="#1a1a2e" flood-opacity="0.45"/>
    </filter>
  </defs>
  <g filter="url(#shadow)" fill="none">
    <g stroke="#071514" stroke-width="4.5" stroke-linecap="round" stroke-linejoin="round" transform="translate(2,2)">
    <rect x="8" y="14" width="32" height="22" rx="3"/>
    <line x1="8" y1="25" x2="40" y2="25"/>
    <circle cx="16" cy="20" r="3" fill="currentColor"/>
    <circle cx="32" cy="30" r="3" fill="currentColor"/>
    <circle cx="32" cy="20" r="3" fill="currentColor"/>
    </g>
    <g stroke="#0f2a29" stroke-width="3" stroke-linecap="round" stroke-linejoin="round" transform="translate(1,1)">
    <rect x="8" y="14" width="32" height="22" rx="3"/>
    <line x1="8" y1="25" x2="40" y2="25"/>
    <circle cx="16" cy="20" r="3" fill="currentColor"/>
    <circle cx="32" cy="30" r="3" fill="currentColor"/>
    <circle cx="32" cy="20" r="3" fill="currentColor"/>
    </g>
    <g stroke="url(#g)" stroke-width="1.5" stroke-linecap="round" stroke-linejoin="round">
    <rect x="8" y="14" width="32" height="22" rx="3"/>
    <line x1="8" y1="25" x2="40" y2="25"/>
    <circle cx="16" cy="20" r="3" fill="currentColor"/>
    <circle cx="32" cy="30" r="3" fill="currentColor"/>
    <circle cx="32" cy="20" r="3" fill="currentColor"/>
    </g>
  </g>
</svg>