<svg xmlns="http://www.w3.org/2000/svg" viewBox="0 0 48 48">
  <defs>
    <linearGradient id="g" x1="0%" y1="0%" x2="100%" y2="100%">
      <stop offset="0%" stop-color="#c0cfba"/>
      <stop offset="100%" stop-color="#1d2519"/>
    </linearGradient>
    <filter id="shadow" x="-30%" y="-30%" width="160%" height="160%">
      <feDropShadow dx="2.5" dy="3.5" stdDeviation="3" flood-color="#1a1a2e" flood-opacity="0.45"/>
    </filter>
  </defs>
  <g filter="url(#shadow)" fill="none">
    <g stroke="#0e120c" stroke-width="4.5" stroke-linecap="round" stroke-linejoin="round" transform="translate(2,2)">
    <ellipse cx="24" cy="24" rx="8" ry="5"/>
    <circle cx="24" cy="16" r="4"/>
    <circle cx="22" cy="14" r="1.5"/>
    <path d="M18 22 Q8 14 6 18 Q8 24 18 24"/>
    <path d="M24 24 L24 44 M24 28 L20 28"/>
    <line x1="20" y1="22" x2="6" y2="20"/>
    </g>
    <g stroke="#1d2519" stroke-width="3" stroke-linecap="round" stroke-linejoin="round" transform="translate(1,1)">
    <ellipse cx="24" cy="24" rx="8" ry="5"/>
    <circle cx="24" cy="16" r="4"/>
    <circle cx="22" cy="14" r="1.5"/>
    <path d="M18 22 Q8 14 6 18 Q8 24 18 24"/>
    <path d="M24 24 L24 44 M24 28 L20 28"/>
    <line x1="20" y1="22" x2="6" y2="20"/>
    </g>
    <g stroke="url(#g)" stroke-width="1.5" stroke-linecap="round" stroke-linejoin="round">
    <ellipse cx="24" cy="24" rx="8" ry="5"/>
    <circle cx="24" cy="16" r="4"/>
    <circle cx="22" cy="14" r="1.5"/>
    <path d="M18 22 Q8 14 6 18 Q8 24 18 24"/>
    <path d="M24 24 L24 44 M24 28 L20 28"/>
    <line x1="20" y1="22" x2="6" y2="20"/>
    </g>
  </g>
</svg>