<svg xmlns="http://www.w3.org/2000/svg" viewBox="0 0 48 48">
  <defs>
    <linearGradient id="g" x1="0%" y1="0%" x2="100%" y2="100%">
      <stop offset="0%" stop-color="#c4aaad"/>
      <stop offset="100%" stop-color="#1f1012"/>
    </linearGradient>
    <filter id="shadow" x="-30%" y="-30%" width="160%" height="160%">
      <feDropShadow dx="2.5" dy="3.5" stdDeviation="3" flood-color="#1a1a2e" flood-opacity="0.45"/>
    </filter>
  </defs>
  <g filter="url(#shadow)" fill="none">
    <g stroke="#0f0809" stroke-width="4.5" stroke-linecap="round" stroke-linejoin="round" transform="translate(2,2)">
    <path d="M4 24 Q14 8 24 16 Q34 8 44 24 Q34 28 24 24 Q14 28 4 24"/>
    <circle cx="14" cy="16" r="3" fill="currentColor"/>
    <circle cx="34" cy="16" r="3" fill="currentColor"/>
    <path d="M24 24 L24 36 M18 28 L30 28"/>
    <path d="M24 36 L18 44 M24 36 L30 44"/>
    </g>
    <g stroke="#1f1012" stroke-width="3" stroke-linecap="round" stroke-linejoin="round" transform="translate(1,1)">
    <path d="M4 24 Q14 8 24 16 Q34 8 44 24 Q34 28 24 24 Q14 28 4 24"/>
    <circle cx="14" cy="16" r="3" fill="currentColor"/>
    <circle cx="34" cy="16" r="3" fill="currentColor"/>
    <path d="M24 24 L24 36 M18 28 L30 28"/>
    <path d="M24 36 L18 44 M24 36 L30 44"/>
    </g>
    <g stroke="url(#g)" stroke-width="1.5" stroke-linecap="round" stroke-linejoin="round">
    <path d="M4 24 Q14 8 24 16 Q34 8 44 24 Q34 28 24 24 Q14 28 4 24"/>
    <circle cx="14" cy="16" r="3" fill="currentColor"/>
    <circle cx="34" cy="16" r="3" fill="currentColor"/>
    <path d="M24 24 L24 36 M18 28 L30 28"/>
    <path d="M24 36 L18 44 M24 36 L30 44"/>
    </g>
  </g>
</svg>