<svg xmlns="http://www.w3.org/2000/svg" viewBox="0 0 48 48">
  <defs>
    <linearGradient id="g" x1="0%" y1="0%" x2="100%" y2="100%">
      <stop offset="0%" stop-color="#c4aac4"/>
      <stop offset="100%" stop-color="#442444"/>
    </linearGradient>
    <filter id="sh" x="-30%" y="-30%" width="160%" height="160%">
      <feDropShadow dx="2.5" dy="3.5" stdDeviation="3" flood-color="#1a1a2e" flood-opacity="0.45"/>
    </filter>
  </defs>
  <g filter="url(#sh)" fill="none">
    <g stroke="#1f101f" stroke-width="4.5" stroke-linecap="round" stroke-linejoin="round" transform="translate(2,2)">
<circle cx="24" cy="24" r="14"/>
        <path d="M12 12 L36 36 M20 10 L24 6 L28 10 M20 38 L24 42 L28 38
               M10 20 L6 24 L10 28 M38 20 L42 24 L38 28"/>
    </g>
    <g stroke="#442444" stroke-width="3" stroke-linecap="round" stroke-linejoin="round" transform="translate(1,1)">
<circle cx="24" cy="24" r="14"/>
        <path d="M12 12 L36 36 M20 10 L24 6 L28 10 M20 38 L24 42 L28 38
               M10 20 L6 24 L10 28 M38 20 L42 24 L38 28"/>
    </g>
    <g stroke="url(#g)" stroke-width="1.5" stroke-linecap="round" stroke-linejoin="round">
<circle cx="24" cy="24" r="14"/>
        <path d="M12 12 L36 36 M20 10 L24 6 L28 10 M20 38 L24 42 L28 38
               M10 20 L6 24 L10 28 M38 20 L42 24 L38 28"/>
    </g>
  </g>
</svg>