<svg xmlns="http://www.w3.org/2000/svg" viewBox="0 0 48 48">
  <defs>
    <linearGradient id="g" x1="0%" y1="0%" x2="100%" y2="100%">
      <stop offset="0%" stop-color="#e5d2ae"/>
      <stop offset="100%" stop-color="#312612"/>
    </linearGradient>
    <filter id="shadow" x="-30%" y="-30%" width="160%" height="160%">
      <feDropShadow dx="2.5" dy="3.5" stdDeviation="3" flood-color="#1a1a2e" flood-opacity="0.45"/>
    </filter>
  </defs>
  <g filter="url(#shadow)" fill="none">
    <g stroke="#181309" stroke-width="4.5" stroke-linecap="round" stroke-linejoin="round" transform="translate(2,2)">
    <ellipse cx="24" cy="26" rx="7" ry="12"/>
    <path d="M17 20 L6 18 M31 20 L42 18"/>
    <path d="M17 26 L6 26 M31 26 L42 26"/>
    <path d="M17 32 L6 34 M31 32 L42 34"/>
    </g>
    <g stroke="#312612" stroke-width="3" stroke-linecap="round" stroke-linejoin="round" transform="translate(1,1)">
    <ellipse cx="24" cy="26" rx="7" ry="12"/>
    <path d="M17 20 L6 18 M31 20 L42 18"/>
    <path d="M17 26 L6 26 M31 26 L42 26"/>
    <path d="M17 32 L6 34 M31 32 L42 34"/>
    </g>
    <g stroke="url(#g)" stroke-width="1.5" stroke-linecap="round" stroke-linejoin="round">
    <ellipse cx="24" cy="26" rx="7" ry="12"/>
    <path d="M17 20 L6 18 M31 20 L42 18"/>
    <path d="M17 26 L6 26 M31 26 L42 26"/>
    <path d="M17 32 L6 34 M31 32 L42 34"/>
    </g>
  </g>
</svg>