<svg xmlns="http://www.w3.org/2000/svg" viewBox="0 0 48 48">
  <defs>
    <linearGradient id="g" x1="0%" y1="0%" x2="100%" y2="100%">
      <stop offset="0%" stop-color="#c0e2b7"/>
      <stop offset="100%" stop-color="#1d2f17"/>
    </linearGradient>
    <filter id="shadow" x="-30%" y="-30%" width="160%" height="160%">
      <feDropShadow dx="2.5" dy="3.5" stdDeviation="3" flood-color="#1a1a2e" flood-opacity="0.45"/>
    </filter>
  </defs>
  <g filter="url(#shadow)" fill="none">
    <g stroke="#0e170b" stroke-width="4.5" stroke-linecap="round" stroke-linejoin="round" transform="translate(2,2)">
    <circle cx="24" cy="12" r="4"/>
    <line x1="24" y1="16" x2="24" y2="44"/>
    <line x1="24" y1="22" x2="10" y2="34 M24 28 L38 40"/>
    <path d="M10 34 L6 38 L10 42 L14 38 Z"/>
    </g>
    <g stroke="#1d2f17" stroke-width="3" stroke-linecap="round" stroke-linejoin="round" transform="translate(1,1)">
    <circle cx="24" cy="12" r="4"/>
    <line x1="24" y1="16" x2="24" y2="44"/>
    <line x1="24" y1="22" x2="10" y2="34 M24 28 L38 40"/>
    <path d="M10 34 L6 38 L10 42 L14 38 Z"/>
    </g>
    <g stroke="url(#g)" stroke-width="1.5" stroke-linecap="round" stroke-linejoin="round">
    <circle cx="24" cy="12" r="4"/>
    <line x1="24" y1="16" x2="24" y2="44"/>
    <line x1="24" y1="22" x2="10" y2="34 M24 28 L38 40"/>
    <path d="M10 34 L6 38 L10 42 L14 38 Z"/>
    </g>
  </g>
</svg>