<svg xmlns="http://www.w3.org/2000/svg" viewBox="0 0 48 48">
  <defs>
    <linearGradient id="g" x1="0%" y1="0%" x2="100%" y2="100%">
      <stop offset="0%" stop-color="#9faecb"/>
      <stop offset="100%" stop-color="#172a4d"/>
    </linearGradient>
    <filter id="sh" x="-30%" y="-30%" width="160%" height="160%">
      <feDropShadow dx="2.5" dy="3.5" stdDeviation="3" flood-color="#1a1a2e" flood-opacity="0.45"/>
    </filter>
  </defs>
  <g filter="url(#sh)" fill="none">
    <g stroke="#0a1323" stroke-width="4.5" stroke-linecap="round" stroke-linejoin="round" transform="translate(2,2)">
<line x1="20" y1="10" x2="20" y2="42"/>
        <path d="M32 6 L44 18 L36 20 L38 28 L28 18 L32 10 Z"/>
    </g>
    <g stroke="#172a4d" stroke-width="3" stroke-linecap="round" stroke-linejoin="round" transform="translate(1,1)">
<line x1="20" y1="10" x2="20" y2="42"/>
        <path d="M32 6 L44 18 L36 20 L38 28 L28 18 L32 10 Z"/>
    </g>
    <g stroke="url(#g)" stroke-width="1.5" stroke-linecap="round" stroke-linejoin="round">
<line x1="20" y1="10" x2="20" y2="42"/>
        <path d="M32 6 L44 18 L36 20 L38 28 L28 18 L32 10 Z"/>
    </g>
  </g>
</svg>