<svg xmlns="http://www.w3.org/2000/svg" viewBox="0 0 48 48">
  <defs>
    <linearGradient id="g" x1="0%" y1="0%" x2="100%" y2="100%">
      <stop offset="0%" stop-color="#c4c1af"/>
      <stop offset="100%" stop-color="#1f1d13"/>
    </linearGradient>
    <filter id="shadow" x="-30%" y="-30%" width="160%" height="160%">
      <feDropShadow dx="2.5" dy="3.5" stdDeviation="3" flood-color="#1a1a2e" flood-opacity="0.45"/>
    </filter>
  </defs>
  <g filter="url(#shadow)" fill="none">
    <g stroke="#0f0e09" stroke-width="4.5" stroke-linecap="round" stroke-linejoin="round" transform="translate(2,2)">
    <ellipse cx="24" cy="24" rx="12" ry="7"/>
    <ellipse cx="16" cy="20" rx="8" ry="5"/>
    <ellipse cx="30" cy="18" rx="6" ry="4"/>
    <line x1="12" y1="30" x2="10" y2="34 M18 32 L16 36 M24 30 L22 34 M30 32 L28 36 M36 30 L34 34"/>
    </g>
    <g stroke="#1f1d13" stroke-width="3" stroke-linecap="round" stroke-linejoin="round" transform="translate(1,1)">
    <ellipse cx="24" cy="24" rx="12" ry="7"/>
    <ellipse cx="16" cy="20" rx="8" ry="5"/>
    <ellipse cx="30" cy="18" rx="6" ry="4"/>
    <line x1="12" y1="30" x2="10" y2="34 M18 32 L16 36 M24 30 L22 34 M30 32 L28 36 M36 30 L34 34"/>
    </g>
    <g stroke="url(#g)" stroke-width="1.5" stroke-linecap="round" stroke-linejoin="round">
    <ellipse cx="24" cy="24" rx="12" ry="7"/>
    <ellipse cx="16" cy="20" rx="8" ry="5"/>
    <ellipse cx="30" cy="18" rx="6" ry="4"/>
    <line x1="12" y1="30" x2="10" y2="34 M18 32 L16 36 M24 30 L22 34 M30 32 L28 36 M36 30 L34 34"/>
    </g>
  </g>
</svg>