<svg xmlns="http://www.w3.org/2000/svg" viewBox="0 0 48 48">
  <defs>
    <linearGradient id="g" x1="0%" y1="0%" x2="100%" y2="100%">
      <stop offset="0%" stop-color="#cba6d6"/>
      <stop offset="100%" stop-color="#4d1f5a"/>
    </linearGradient>
    <filter id="sh" x="-30%" y="-30%" width="160%" height="160%">
      <feDropShadow dx="2.5" dy="3.5" stdDeviation="3" flood-color="#1a1a2e" flood-opacity="0.45"/>
    </filter>
  </defs>
  <g filter="url(#sh)" fill="none">
    <g stroke="#230e29" stroke-width="4.5" stroke-linecap="round" stroke-linejoin="round" transform="translate(2,2)">
<line x1="14" y1="40" x2="34" y2="40"/>
        <line x1="14" y1="40" x2="14" y2="6"/>
        <line x1="34" y1="40" x2="34" y2="6"/>
        <rect x="18" y="6" width="12" height="8" rx="2"/>
        <path d="M18 14 L24 20 L30 14"/><line x1="24" y1="20" x2="24" y2="28"/>
        <line x1="18" y1="34" x2="30" y2="34"/>
    </g>
    <g stroke="#4d1f5a" stroke-width="3" stroke-linecap="round" stroke-linejoin="round" transform="translate(1,1)">
<line x1="14" y1="40" x2="34" y2="40"/>
        <line x1="14" y1="40" x2="14" y2="6"/>
        <line x1="34" y1="40" x2="34" y2="6"/>
        <rect x="18" y="6" width="12" height="8" rx="2"/>
        <path d="M18 14 L24 20 L30 14"/><line x1="24" y1="20" x2="24" y2="28"/>
        <line x1="18" y1="34" x2="30" y2="34"/>
    </g>
    <g stroke="url(#g)" stroke-width="1.5" stroke-linecap="round" stroke-linejoin="round">
<line x1="14" y1="40" x2="34" y2="40"/>
        <line x1="14" y1="40" x2="14" y2="6"/>
        <line x1="34" y1="40" x2="34" y2="6"/>
        <rect x="18" y="6" width="12" height="8" rx="2"/>
        <path d="M18 14 L24 20 L30 14"/><line x1="24" y1="20" x2="24" y2="28"/>
        <line x1="18" y1="34" x2="30" y2="34"/>
    </g>
  </g>
</svg>