<svg xmlns="http://www.w3.org/2000/svg" viewBox="0 0 48 48">
  <defs>
    <linearGradient id="g" x1="0%" y1="0%" x2="100%" y2="100%">
      <stop offset="0%" stop-color="#c9b2e5"/>
      <stop offset="100%" stop-color="#211531"/>
    </linearGradient>
    <filter id="shadow" x="-30%" y="-30%" width="160%" height="160%">
      <feDropShadow dx="2.5" dy="3.5" stdDeviation="3" flood-color="#1a1a2e" flood-opacity="0.45"/>
    </filter>
  </defs>
  <g filter="url(#shadow)" fill="none">
    <g stroke="#100a18" stroke-width="4.5" stroke-linecap="round" stroke-linejoin="round" transform="translate(2,2)">
    <ellipse cx="24" cy="18" rx="5" ry="4"/>
    <line x1="24" y1="22" x2="24" y2="44"/>
    <ellipse cx="24" cy="44" rx="4" ry="2"/>
    <circle cx="21" cy="16" r="1.5"/>
    <circle cx="27" cy="16" r="1.5"/>
    </g>
    <g stroke="#211531" stroke-width="3" stroke-linecap="round" stroke-linejoin="round" transform="translate(1,1)">
    <ellipse cx="24" cy="18" rx="5" ry="4"/>
    <line x1="24" y1="22" x2="24" y2="44"/>
    <ellipse cx="24" cy="44" rx="4" ry="2"/>
    <circle cx="21" cy="16" r="1.5"/>
    <circle cx="27" cy="16" r="1.5"/>
    </g>
    <g stroke="url(#g)" stroke-width="1.5" stroke-linecap="round" stroke-linejoin="round">
    <ellipse cx="24" cy="18" rx="5" ry="4"/>
    <line x1="24" y1="22" x2="24" y2="44"/>
    <ellipse cx="24" cy="44" rx="4" ry="2"/>
    <circle cx="21" cy="16" r="1.5"/>
    <circle cx="27" cy="16" r="1.5"/>
    </g>
  </g>
</svg>