<svg xmlns="http://www.w3.org/2000/svg" viewBox="0 0 48 48">
  <defs>
    <linearGradient id="g" x1="0%" y1="0%" x2="100%" y2="100%">
      <stop offset="0%" stop-color="#c0b6ae"/>
      <stop offset="100%" stop-color="#1d1713"/>
    </linearGradient>
    <filter id="shadow" x="-30%" y="-30%" width="160%" height="160%">
      <feDropShadow dx="2.5" dy="3.5" stdDeviation="3" flood-color="#1a1a2e" flood-opacity="0.45"/>
    </filter>
  </defs>
  <g filter="url(#shadow)" fill="none">
    <g stroke="#0e0b09" stroke-width="4.5" stroke-linecap="round" stroke-linejoin="round" transform="translate(2,2)">
    <line x1="12" y1="8" x2="12" y2="44"/>
    <ellipse cx="12" cy="8" rx="6" ry="8"/>
    <line x1="12" y1="44" x2="8" y2="44 M12 44 L16 44"/>
    <circle cx="12" cy="8" r="2" fill="currentColor"/>
    </g>
    <g stroke="#1d1713" stroke-width="3" stroke-linecap="round" stroke-linejoin="round" transform="translate(1,1)">
    <line x1="12" y1="8" x2="12" y2="44"/>
    <ellipse cx="12" cy="8" rx="6" ry="8"/>
    <line x1="12" y1="44" x2="8" y2="44 M12 44 L16 44"/>
    <circle cx="12" cy="8" r="2" fill="currentColor"/>
    </g>
    <g stroke="url(#g)" stroke-width="1.5" stroke-linecap="round" stroke-linejoin="round">
    <line x1="12" y1="8" x2="12" y2="44"/>
    <ellipse cx="12" cy="8" rx="6" ry="8"/>
    <line x1="12" y1="44" x2="8" y2="44 M12 44 L16 44"/>
    <circle cx="12" cy="8" r="2" fill="currentColor"/>
    </g>
  </g>
</svg>