<svg xmlns="http://www.w3.org/2000/svg" viewBox="0 0 48 48">
  <defs>
    <linearGradient id="g" x1="0%" y1="0%" x2="100%" y2="100%">
      <stop offset="0%" stop-color="#cbdbbe"/>
      <stop offset="100%" stop-color="#4d603d"/>
    </linearGradient>
    <filter id="sh" x="-30%" y="-30%" width="160%" height="160%">
      <feDropShadow dx="2.5" dy="3.5" stdDeviation="3" flood-color="#1a1a2e" flood-opacity="0.45"/>
    </filter>
  </defs>
  <g filter="url(#sh)" fill="none">
    <g stroke="#232b1c" stroke-width="4.5" stroke-linecap="round" stroke-linejoin="round" transform="translate(2,2)">
<rect x="10" y="6" width="28" height="22" rx="3"/>
        <rect x="18" y="28" width="12" height="10" rx="2"/>
        <circle cx="24" cy="18" r="4"/>
        <circle cx="24" cy="18" r="2"/>
    </g>
    <g stroke="#4d603d" stroke-width="3" stroke-linecap="round" stroke-linejoin="round" transform="translate(1,1)">
<rect x="10" y="6" width="28" height="22" rx="3"/>
        <rect x="18" y="28" width="12" height="10" rx="2"/>
        <circle cx="24" cy="18" r="4"/>
        <circle cx="24" cy="18" r="2"/>
    </g>
    <g stroke="url(#g)" stroke-width="1.5" stroke-linecap="round" stroke-linejoin="round">
<rect x="10" y="6" width="28" height="22" rx="3"/>
        <rect x="18" y="28" width="12" height="10" rx="2"/>
        <circle cx="24" cy="18" r="4"/>
        <circle cx="24" cy="18" r="2"/>
    </g>
  </g>
</svg>