<svg xmlns="http://www.w3.org/2000/svg" viewBox="0 0 48 48">
  <defs>
    <linearGradient id="g" x1="0%" y1="0%" x2="100%" y2="100%">
      <stop offset="0%" stop-color="#a4adc4"/>
      <stop offset="100%" stop-color="#1d2844"/>
    </linearGradient>
    <filter id="sh" x="-30%" y="-30%" width="160%" height="160%">
      <feDropShadow dx="2.5" dy="3.5" stdDeviation="3" flood-color="#1a1a2e" flood-opacity="0.45"/>
    </filter>
  </defs>
  <g filter="url(#sh)" fill="none">
    <g stroke="#0d121f" stroke-width="4.5" stroke-linecap="round" stroke-linejoin="round" transform="translate(2,2)">
<ellipse cx="24" cy="30" rx="10" ry="14"/>
        <rect x="24" y="32" width="10" height="6" rx="3"/>
        <circle cx="24" cy="12" r="4"/>
        <line x1="24" y1="12" x2="30" y2="18"/>
        <line x1="24" y1="12" x2="18" y2="18"/>
    </g>
    <g stroke="#1d2844" stroke-width="3" stroke-linecap="round" stroke-linejoin="round" transform="translate(1,1)">
<ellipse cx="24" cy="30" rx="10" ry="14"/>
        <rect x="24" y="32" width="10" height="6" rx="3"/>
        <circle cx="24" cy="12" r="4"/>
        <line x1="24" y1="12" x2="30" y2="18"/>
        <line x1="24" y1="12" x2="18" y2="18"/>
    </g>
    <g stroke="url(#g)" stroke-width="1.5" stroke-linecap="round" stroke-linejoin="round">
<ellipse cx="24" cy="30" rx="10" ry="14"/>
        <rect x="24" y="32" width="10" height="6" rx="3"/>
        <circle cx="24" cy="12" r="4"/>
        <line x1="24" y1="12" x2="30" y2="18"/>
        <line x1="24" y1="12" x2="18" y2="18"/>
    </g>
  </g>
</svg>