<svg xmlns="http://www.w3.org/2000/svg" viewBox="0 0 48 48">
  <defs>
    <linearGradient id="g" x1="0%" y1="0%" x2="100%" y2="100%">
      <stop offset="0%" stop-color="#c2dfbc"/>
      <stop offset="100%" stop-color="#1e2e1a"/>
    </linearGradient>
    <filter id="shadow" x="-30%" y="-30%" width="160%" height="160%">
      <feDropShadow dx="2.5" dy="3.5" stdDeviation="3" flood-color="#1a1a2e" flood-opacity="0.45"/>
    </filter>
  </defs>
  <g filter="url(#shadow)" fill="none">
    <g stroke="#0f170d" stroke-width="4.5" stroke-linecap="round" stroke-linejoin="round" transform="translate(2,2)">
    <ellipse cx="24" cy="24" rx="12" ry="8"/>
    <path d="M14 18 L8 8 M16 18 L12 8 M18 18 L16 6 M20 18 L20 6 M22 18 L24 6 M24 18 L28 6 M26 18 L32 8 M28 18 L36 8"/>
    <circle cx="14" cy="24" r="2"/>
    <circle cx="22" cy="26" r="1.5"/>
    <circle cx="30" cy="24" r="2"/>
    </g>
    <g stroke="#1e2e1a" stroke-width="3" stroke-linecap="round" stroke-linejoin="round" transform="translate(1,1)">
    <ellipse cx="24" cy="24" rx="12" ry="8"/>
    <path d="M14 18 L8 8 M16 18 L12 8 M18 18 L16 6 M20 18 L20 6 M22 18 L24 6 M24 18 L28 6 M26 18 L32 8 M28 18 L36 8"/>
    <circle cx="14" cy="24" r="2"/>
    <circle cx="22" cy="26" r="1.5"/>
    <circle cx="30" cy="24" r="2"/>
    </g>
    <g stroke="url(#g)" stroke-width="1.5" stroke-linecap="round" stroke-linejoin="round">
    <ellipse cx="24" cy="24" rx="12" ry="8"/>
    <path d="M14 18 L8 8 M16 18 L12 8 M18 18 L16 6 M20 18 L20 6 M22 18 L24 6 M24 18 L28 6 M26 18 L32 8 M28 18 L36 8"/>
    <circle cx="14" cy="24" r="2"/>
    <circle cx="22" cy="26" r="1.5"/>
    <circle cx="30" cy="24" r="2"/>
    </g>
  </g>
</svg>