<svg xmlns="http://www.w3.org/2000/svg" viewBox="0 0 48 48">
  <defs>
    <linearGradient id="g" x1="0%" y1="0%" x2="100%" y2="100%">
      <stop offset="0%" stop-color="#c7d7b2"/>
      <stop offset="100%" stop-color="#202a15"/>
    </linearGradient>
    <filter id="shadow" x="-30%" y="-30%" width="160%" height="160%">
      <feDropShadow dx="2.5" dy="3.5" stdDeviation="3" flood-color="#1a1a2e" flood-opacity="0.45"/>
    </filter>
  </defs>
  <g filter="url(#shadow)" fill="none">
    <g stroke="#10150a" stroke-width="4.5" stroke-linecap="round" stroke-linejoin="round" transform="translate(2,2)">
    <path d="M6 30 Q10 10 24 20 Q38 30 42 8 Q44 18 40 32 Q34 42 20 36 Q10 30 6 30 Z"/>
    <circle cx="12" cy="26" r="2"/>
    <circle cx="10" cy="24" r="1"/>
    </g>
    <g stroke="#202a15" stroke-width="3" stroke-linecap="round" stroke-linejoin="round" transform="translate(1,1)">
    <path d="M6 30 Q10 10 24 20 Q38 30 42 8 Q44 18 40 32 Q34 42 20 36 Q10 30 6 30 Z"/>
    <circle cx="12" cy="26" r="2"/>
    <circle cx="10" cy="24" r="1"/>
    </g>
    <g stroke="url(#g)" stroke-width="1.5" stroke-linecap="round" stroke-linejoin="round">
    <path d="M6 30 Q10 10 24 20 Q38 30 42 8 Q44 18 40 32 Q34 42 20 36 Q10 30 6 30 Z"/>
    <circle cx="12" cy="26" r="2"/>
    <circle cx="10" cy="24" r="1"/>
    </g>
  </g>
</svg>