<svg xmlns="http://www.w3.org/2000/svg" viewBox="0 0 48 48">
  <defs>
    <linearGradient id="g" x1="0%" y1="0%" x2="100%" y2="100%">
      <stop offset="0%" stop-color="#b2d7bf"/>
      <stop offset="100%" stop-color="#2e5c3e"/>
    </linearGradient>
    <filter id="sh" x="-30%" y="-30%" width="160%" height="160%">
      <feDropShadow dx="2.5" dy="3.5" stdDeviation="3" flood-color="#1a1a2e" flood-opacity="0.45"/>
    </filter>
  </defs>
  <g filter="url(#sh)" fill="none">
    <g stroke="#152a1c" stroke-width="4.5" stroke-linecap="round" stroke-linejoin="round" transform="translate(2,2)">
<path d="M10 36 Q10 8 30 8 Q42 8 42 20"/><circle cx="26" cy="22" r="3"/><circle cx="32" cy="22" r="3"/><circle cx="26" cy="22" r="1.5"/><circle cx="32" cy="22" r="1.5"/><line x1="42" y1="20" x2="46" y2="14"/>
    </g>
    <g stroke="#2e5c3e" stroke-width="3" stroke-linecap="round" stroke-linejoin="round" transform="translate(1,1)">
<path d="M10 36 Q10 8 30 8 Q42 8 42 20"/><circle cx="26" cy="22" r="3"/><circle cx="32" cy="22" r="3"/><circle cx="26" cy="22" r="1.5"/><circle cx="32" cy="22" r="1.5"/><line x1="42" y1="20" x2="46" y2="14"/>
    </g>
    <g stroke="url(#g)" stroke-width="1.5" stroke-linecap="round" stroke-linejoin="round">
<path d="M10 36 Q10 8 30 8 Q42 8 42 20"/><circle cx="26" cy="22" r="3"/><circle cx="32" cy="22" r="3"/><circle cx="26" cy="22" r="1.5"/><circle cx="32" cy="22" r="1.5"/><line x1="42" y1="20" x2="46" y2="14"/>
    </g>
  </g>
</svg>