<svg xmlns="http://www.w3.org/2000/svg" viewBox="0 0 48 48">
  <defs>
    <linearGradient id="g" x1="0%" y1="0%" x2="100%" y2="100%">
      <stop offset="0%" stop-color="#b7acdc"/>
      <stop offset="100%" stop-color="#18112c"/>
    </linearGradient>
    <filter id="shadow" x="-30%" y="-30%" width="160%" height="160%">
      <feDropShadow dx="2.5" dy="3.5" stdDeviation="3" flood-color="#1a1a2e" flood-opacity="0.45"/>
    </filter>
  </defs>
  <g filter="url(#shadow)" fill="none">
    <g stroke="#0c0816" stroke-width="4.5" stroke-linecap="round" stroke-linejoin="round" transform="translate(2,2)">
    <ellipse cx="24" cy="26" rx="7" ry="14"/>
    <path d="M24 10 Q24 4 20 2 Q24 6 28 2 Q24 4 24 10"/>
    <line x1="24" y1="10" x2="24" y2="4"/>
    <ellipse cx="24" cy="26" rx="3" ry="5"/>
    </g>
    <g stroke="#18112c" stroke-width="3" stroke-linecap="round" stroke-linejoin="round" transform="translate(1,1)">
    <ellipse cx="24" cy="26" rx="7" ry="14"/>
    <path d="M24 10 Q24 4 20 2 Q24 6 28 2 Q24 4 24 10"/>
    <line x1="24" y1="10" x2="24" y2="4"/>
    <ellipse cx="24" cy="26" rx="3" ry="5"/>
    </g>
    <g stroke="url(#g)" stroke-width="1.5" stroke-linecap="round" stroke-linejoin="round">
    <ellipse cx="24" cy="26" rx="7" ry="14"/>
    <path d="M24 10 Q24 4 20 2 Q24 6 28 2 Q24 4 24 10"/>
    <line x1="24" y1="10" x2="24" y2="4"/>
    <ellipse cx="24" cy="26" rx="3" ry="5"/>
    </g>
  </g>
</svg>