<svg xmlns="http://www.w3.org/2000/svg" viewBox="0 0 48 48">
  <defs>
    <linearGradient id="g" x1="0%" y1="0%" x2="100%" y2="100%">
      <stop offset="0%" stop-color="#bcd1e3"/>
      <stop offset="100%" stop-color="#1b2630"/>
    </linearGradient>
    <filter id="shadow" x="-30%" y="-30%" width="160%" height="160%">
      <feDropShadow dx="2.5" dy="3.5" stdDeviation="3" flood-color="#1a1a2e" flood-opacity="0.45"/>
    </filter>
  </defs>
  <g filter="url(#shadow)" fill="none">
    <g stroke="#0d1318" stroke-width="4.5" stroke-linecap="round" stroke-linejoin="round" transform="translate(2,2)">
    <circle cx="20" cy="12" r="4"/>
    <circle cx="28" cy="12" r="4"/>
    <path d="M20 16 L20 22 Q20 28 24 28 Q28 28 28 22 L28 16"/>
    <line x1="16" y1="12" x2="14" y2="8 M32 12 L34 8"/>
    <line x1="20" y1="28" x2="16" y2="44 M28 28 L32 44"/>
    </g>
    <g stroke="#1b2630" stroke-width="3" stroke-linecap="round" stroke-linejoin="round" transform="translate(1,1)">
    <circle cx="20" cy="12" r="4"/>
    <circle cx="28" cy="12" r="4"/>
    <path d="M20 16 L20 22 Q20 28 24 28 Q28 28 28 22 L28 16"/>
    <line x1="16" y1="12" x2="14" y2="8 M32 12 L34 8"/>
    <line x1="20" y1="28" x2="16" y2="44 M28 28 L32 44"/>
    </g>
    <g stroke="url(#g)" stroke-width="1.5" stroke-linecap="round" stroke-linejoin="round">
    <circle cx="20" cy="12" r="4"/>
    <circle cx="28" cy="12" r="4"/>
    <path d="M20 16 L20 22 Q20 28 24 28 Q28 28 28 22 L28 16"/>
    <line x1="16" y1="12" x2="14" y2="8 M32 12 L34 8"/>
    <line x1="20" y1="28" x2="16" y2="44 M28 28 L32 44"/>
    </g>
  </g>
</svg>