<svg xmlns="http://www.w3.org/2000/svg" viewBox="0 0 48 48">
  <defs>
    <linearGradient id="g" x1="0%" y1="0%" x2="100%" y2="100%">
      <stop offset="0%" stop-color="#cbdeaa"/>
      <stop offset="100%" stop-color="#232d10"/>
    </linearGradient>
    <filter id="shadow" x="-30%" y="-30%" width="160%" height="160%">
      <feDropShadow dx="2.5" dy="3.5" stdDeviation="3" flood-color="#1a1a2e" flood-opacity="0.45"/>
    </filter>
  </defs>
  <g filter="url(#shadow)" fill="none">
    <g stroke="#111608" stroke-width="4.5" stroke-linecap="round" stroke-linejoin="round" transform="translate(2,2)">
    <ellipse cx="24" cy="22" rx="10" ry="8"/>
    <circle cx="24" cy="12" r="5"/>
    <circle cx="22" cy="10" r="2"/>
    <path d="M28 14 L38 12 L40 16 L38 20"/>
    <path d="M18 26 L12 44 M30 26 L36 44"/>
    <path d="M22 28 L26 28 M22 32 L26 32"/>
    </g>
    <g stroke="#232d10" stroke-width="3" stroke-linecap="round" stroke-linejoin="round" transform="translate(1,1)">
    <ellipse cx="24" cy="22" rx="10" ry="8"/>
    <circle cx="24" cy="12" r="5"/>
    <circle cx="22" cy="10" r="2"/>
    <path d="M28 14 L38 12 L40 16 L38 20"/>
    <path d="M18 26 L12 44 M30 26 L36 44"/>
    <path d="M22 28 L26 28 M22 32 L26 32"/>
    </g>
    <g stroke="url(#g)" stroke-width="1.5" stroke-linecap="round" stroke-linejoin="round">
    <ellipse cx="24" cy="22" rx="10" ry="8"/>
    <circle cx="24" cy="12" r="5"/>
    <circle cx="22" cy="10" r="2"/>
    <path d="M28 14 L38 12 L40 16 L38 20"/>
    <path d="M18 26 L12 44 M30 26 L36 44"/>
    <path d="M22 28 L26 28 M22 32 L26 32"/>
    </g>
  </g>
</svg>