<svg xmlns="http://www.w3.org/2000/svg" viewBox="0 0 48 48">
  <defs>
    <linearGradient id="iconGrad" x1="0%" y1="0%" x2="100%" y2="100%">
      <stop offset="0%" stop-color="#80CBC4"/>
      <stop offset="100%" stop-color="#2a645e"/>
    </linearGradient>
    <filter id="shadow" x="-30%" y="-30%" width="160%" height="160%">
      <feDropShadow dx="2.5" dy="3.5" stdDeviation="3" flood-color="#1a1a2e" flood-opacity="0.45"/>
    </filter>
  </defs>
  <g filter="url(#shadow)" fill="none">
    <g stroke="#15322f" stroke-width="4.5" stroke-linecap="round" stroke-linejoin="round" transform="translate(2,2)">
      <rect x="14" y="14" width="20" height="20" rx="3"/>
    <line x1="10" y1="18" x2="14" y2="18"/>
    <line x1="10" y1="24" x2="14" y2="24"/>
    <line x1="10" y1="30" x2="14" y2="30"/>
    <line x1="34" y1="18" x2="38" y2="18"/>
    <line x1="34" y1="24" x2="38" y2="24"/>
    <line x1="34" y1="30" x2="38" y2="30"/>
    <line x1="18" y1="10" x2="18" y2="14"/>
    <line x1="24" y1="10" x2="24" y2="14"/>
    <line x1="30" y1="10" x2="30" y2="14"/>
    <line x1="18" y1="34" x2="18" y2="38"/>
    <line x1="24" y1="34" x2="24" y2="38"/>
    <line x1="30" y1="34" x2="30" y2="38"/>
    </g>
    <g stroke="#2a645e" stroke-width="3" stroke-linecap="round" stroke-linejoin="round" transform="translate(1,1)">
      <rect x="14" y="14" width="20" height="20" rx="3"/>
    <line x1="10" y1="18" x2="14" y2="18"/>
    <line x1="10" y1="24" x2="14" y2="24"/>
    <line x1="10" y1="30" x2="14" y2="30"/>
    <line x1="34" y1="18" x2="38" y2="18"/>
    <line x1="34" y1="24" x2="38" y2="24"/>
    <line x1="34" y1="30" x2="38" y2="30"/>
    <line x1="18" y1="10" x2="18" y2="14"/>
    <line x1="24" y1="10" x2="24" y2="14"/>
    <line x1="30" y1="10" x2="30" y2="14"/>
    <line x1="18" y1="34" x2="18" y2="38"/>
    <line x1="24" y1="34" x2="24" y2="38"/>
    <line x1="30" y1="34" x2="30" y2="38"/>
    </g>
    <g stroke="url(#iconGrad)" stroke-width="1.5" stroke-linecap="round" stroke-linejoin="round">
      <rect x="14" y="14" width="20" height="20" rx="3"/>
    <line x1="10" y1="18" x2="14" y2="18"/>
    <line x1="10" y1="24" x2="14" y2="24"/>
    <line x1="10" y1="30" x2="14" y2="30"/>
    <line x1="34" y1="18" x2="38" y2="18"/>
    <line x1="34" y1="24" x2="38" y2="24"/>
    <line x1="34" y1="30" x2="38" y2="30"/>
    <line x1="18" y1="10" x2="18" y2="14"/>
    <line x1="24" y1="10" x2="24" y2="14"/>
    <line x1="30" y1="10" x2="30" y2="14"/>
    <line x1="18" y1="34" x2="18" y2="38"/>
    <line x1="24" y1="34" x2="24" y2="38"/>
    <line x1="30" y1="34" x2="30" y2="38"/>
    </g>
  </g>
</svg>
