<svg xmlns="http://www.w3.org/2000/svg" viewBox="0 0 48 48">
  <defs>
    <linearGradient id="g" x1="0%" y1="0%" x2="100%" y2="100%">
      <stop offset="0%" stop-color="#bcdce3"/>
      <stop offset="100%" stop-color="#1b2c30"/>
    </linearGradient>
    <filter id="shadow" x="-30%" y="-30%" width="160%" height="160%">
      <feDropShadow dx="2.5" dy="3.5" stdDeviation="3" flood-color="#1a1a2e" flood-opacity="0.45"/>
    </filter>
  </defs>
  <g filter="url(#shadow)" fill="none">
    <g stroke="#0d1618" stroke-width="4.5" stroke-linecap="round" stroke-linejoin="round" transform="translate(2,2)">
    <rect x="4" y="10" width="40" height="28" rx="2"/>
    <polygon points="4,10 24,26 44,10"/>
    <line x1="4" y1="38" x2="22" y2="22 M44 38 L26 22"/>
    </g>
    <g stroke="#1b2c30" stroke-width="3" stroke-linecap="round" stroke-linejoin="round" transform="translate(1,1)">
    <rect x="4" y="10" width="40" height="28" rx="2"/>
    <polygon points="4,10 24,26 44,10"/>
    <line x1="4" y1="38" x2="22" y2="22 M44 38 L26 22"/>
    </g>
    <g stroke="url(#g)" stroke-width="1.5" stroke-linecap="round" stroke-linejoin="round">
    <rect x="4" y="10" width="40" height="28" rx="2"/>
    <polygon points="4,10 24,26 44,10"/>
    <line x1="4" y1="38" x2="22" y2="22 M44 38 L26 22"/>
    </g>
  </g>
</svg>