<svg xmlns="http://www.w3.org/2000/svg" viewBox="0 0 48 48">
  <defs>
    <linearGradient id="g" x1="0%" y1="0%" x2="100%" y2="100%">
      <stop offset="0%" stop-color="#c1b9ce"/>
      <stop offset="100%" stop-color="#1d1924"/>
    </linearGradient>
    <filter id="shadow" x="-30%" y="-30%" width="160%" height="160%">
      <feDropShadow dx="2.5" dy="3.5" stdDeviation="3" flood-color="#1a1a2e" flood-opacity="0.45"/>
    </filter>
  </defs>
  <g filter="url(#shadow)" fill="none">
    <g stroke="#0e0c12" stroke-width="4.5" stroke-linecap="round" stroke-linejoin="round" transform="translate(2,2)">
    <circle cx="24" cy="10" r="4"/>
    <circle cx="22" cy="8" r="1.5"/>
    <path d="M24 14 L24 22 L20 26 L20 30"/>
    <path d="M24 22 L28 26 L28 30"/>
    <ellipse cx="24" cy="36" rx="10" ry="6"/>
    <line x1="14" y1="36" x2="8" y2="44"/>
    <line x1="34" y1="36" x2="40" y2="44"/>
    </g>
    <g stroke="#1d1924" stroke-width="3" stroke-linecap="round" stroke-linejoin="round" transform="translate(1,1)">
    <circle cx="24" cy="10" r="4"/>
    <circle cx="22" cy="8" r="1.5"/>
    <path d="M24 14 L24 22 L20 26 L20 30"/>
    <path d="M24 22 L28 26 L28 30"/>
    <ellipse cx="24" cy="36" rx="10" ry="6"/>
    <line x1="14" y1="36" x2="8" y2="44"/>
    <line x1="34" y1="36" x2="40" y2="44"/>
    </g>
    <g stroke="url(#g)" stroke-width="1.5" stroke-linecap="round" stroke-linejoin="round">
    <circle cx="24" cy="10" r="4"/>
    <circle cx="22" cy="8" r="1.5"/>
    <path d="M24 14 L24 22 L20 26 L20 30"/>
    <path d="M24 22 L28 26 L28 30"/>
    <ellipse cx="24" cy="36" rx="10" ry="6"/>
    <line x1="14" y1="36" x2="8" y2="44"/>
    <line x1="34" y1="36" x2="40" y2="44"/>
    </g>
  </g>
</svg>