<svg xmlns="http://www.w3.org/2000/svg" viewBox="0 0 48 48">
  <defs>
    <linearGradient id="g" x1="0%" y1="0%" x2="100%" y2="100%">
      <stop offset="0%" stop-color="#c7b4aa"/>
      <stop offset="100%" stop-color="#211611"/>
    </linearGradient>
    <filter id="shadow" x="-30%" y="-30%" width="160%" height="160%">
      <feDropShadow dx="2.5" dy="3.5" stdDeviation="3" flood-color="#1a1a2e" flood-opacity="0.45"/>
    </filter>
  </defs>
  <g filter="url(#shadow)" fill="none">
    <g stroke="#100b08" stroke-width="4.5" stroke-linecap="round" stroke-linejoin="round" transform="translate(2,2)">
    <rect x="6" y="14" width="36" height="20" rx="4"/>
    <rect x="14" y="34" width="20" height="8" rx="2"/>
    <line x1="10" y1="22" x2="34" y2="22 M10 28 L34 28"/>
    </g>
    <g stroke="#211611" stroke-width="3" stroke-linecap="round" stroke-linejoin="round" transform="translate(1,1)">
    <rect x="6" y="14" width="36" height="20" rx="4"/>
    <rect x="14" y="34" width="20" height="8" rx="2"/>
    <line x1="10" y1="22" x2="34" y2="22 M10 28 L34 28"/>
    </g>
    <g stroke="url(#g)" stroke-width="1.5" stroke-linecap="round" stroke-linejoin="round">
    <rect x="6" y="14" width="36" height="20" rx="4"/>
    <rect x="14" y="34" width="20" height="8" rx="2"/>
    <line x1="10" y1="22" x2="34" y2="22 M10 28 L34 28"/>
    </g>
  </g>
</svg>