<svg xmlns="http://www.w3.org/2000/svg" viewBox="0 0 48 48">
  <defs>
    <linearGradient id="g" x1="0%" y1="0%" x2="100%" y2="100%">
      <stop offset="0%" stop-color="#aaadcd"/>
      <stop offset="100%" stop-color="#25284f"/>
    </linearGradient>
    <filter id="sh" x="-30%" y="-30%" width="160%" height="160%">
      <feDropShadow dx="2.5" dy="3.5" stdDeviation="3" flood-color="#1a1a2e" flood-opacity="0.45"/>
    </filter>
  </defs>
  <g filter="url(#sh)" fill="none">
    <g stroke="#111224" stroke-width="4.5" stroke-linecap="round" stroke-linejoin="round" transform="translate(2,2)">
<rect x="10" y="6" width="28" height="36" rx="3"/>
        <rect x="16" y="30" width="16" height="4" rx="1"/>
        <circle cx="24" cy="14" r="4"/>
        <line x1="20" y1="20" x2="28" y2="20"/>
        <line x1="22" y1="24" x2="26" y2="24"/>
    </g>
    <g stroke="#25284f" stroke-width="3" stroke-linecap="round" stroke-linejoin="round" transform="translate(1,1)">
<rect x="10" y="6" width="28" height="36" rx="3"/>
        <rect x="16" y="30" width="16" height="4" rx="1"/>
        <circle cx="24" cy="14" r="4"/>
        <line x1="20" y1="20" x2="28" y2="20"/>
        <line x1="22" y1="24" x2="26" y2="24"/>
    </g>
    <g stroke="url(#g)" stroke-width="1.5" stroke-linecap="round" stroke-linejoin="round">
<rect x="10" y="6" width="28" height="36" rx="3"/>
        <rect x="16" y="30" width="16" height="4" rx="1"/>
        <circle cx="24" cy="14" r="4"/>
        <line x1="20" y1="20" x2="28" y2="20"/>
        <line x1="22" y1="24" x2="26" y2="24"/>
    </g>
  </g>
</svg>