<svg xmlns="http://www.w3.org/2000/svg" viewBox="0 0 48 48">
  <defs>
    <linearGradient id="g" x1="0%" y1="0%" x2="100%" y2="100%">
      <stop offset="0%" stop-color="#d2bac0"/>
      <stop offset="100%" stop-color="#26191d"/>
    </linearGradient>
    <filter id="shadow" x="-30%" y="-30%" width="160%" height="160%">
      <feDropShadow dx="2.5" dy="3.5" stdDeviation="3" flood-color="#1a1a2e" flood-opacity="0.45"/>
    </filter>
  </defs>
  <g filter="url(#shadow)" fill="none">
    <g stroke="#130c0e" stroke-width="4.5" stroke-linecap="round" stroke-linejoin="round" transform="translate(2,2)">
    <line x1="8" y1="24" x2="40" y2="24" stroke-width="4"/>
    <rect x="14" y="12" width="20" height="12" rx="3"/>
    <line x1="14" y1="8" x2="14" y2="12 M34 8 L34 12"/>
    </g>
    <g stroke="#26191d" stroke-width="3" stroke-linecap="round" stroke-linejoin="round" transform="translate(1,1)">
    <line x1="8" y1="24" x2="40" y2="24" stroke-width="4"/>
    <rect x="14" y="12" width="20" height="12" rx="3"/>
    <line x1="14" y1="8" x2="14" y2="12 M34 8 L34 12"/>
    </g>
    <g stroke="url(#g)" stroke-width="1.5" stroke-linecap="round" stroke-linejoin="round">
    <line x1="8" y1="24" x2="40" y2="24" stroke-width="4"/>
    <rect x="14" y="12" width="20" height="12" rx="3"/>
    <line x1="14" y1="8" x2="14" y2="12 M34 8 L34 12"/>
    </g>
  </g>
</svg>