<svg xmlns="http://www.w3.org/2000/svg" viewBox="0 0 48 48">
  <defs>
    <linearGradient id="g" x1="0%" y1="0%" x2="100%" y2="100%">
      <stop offset="0%" stop-color="#ccbab3"/>
      <stop offset="100%" stop-color="#231915"/>
    </linearGradient>
    <filter id="shadow" x="-30%" y="-30%" width="160%" height="160%">
      <feDropShadow dx="2.5" dy="3.5" stdDeviation="3" flood-color="#1a1a2e" flood-opacity="0.45"/>
    </filter>
  </defs>
  <g filter="url(#shadow)" fill="none">
    <g stroke="#110c0a" stroke-width="4.5" stroke-linecap="round" stroke-linejoin="round" transform="translate(2,2)">
    <rect x="8" y="16" width="16" height="18" rx="3"/>
    <rect x="24" y="16" width="16" height="18" rx="3"/>
    <circle cx="16" cy="24" r="4" fill="currentColor"/>
    <circle cx="32" cy="24" r="4" fill="currentColor"/>
    <line x1="8" y1="12" x2="40" y2="12"/>
    </g>
    <g stroke="#231915" stroke-width="3" stroke-linecap="round" stroke-linejoin="round" transform="translate(1,1)">
    <rect x="8" y="16" width="16" height="18" rx="3"/>
    <rect x="24" y="16" width="16" height="18" rx="3"/>
    <circle cx="16" cy="24" r="4" fill="currentColor"/>
    <circle cx="32" cy="24" r="4" fill="currentColor"/>
    <line x1="8" y1="12" x2="40" y2="12"/>
    </g>
    <g stroke="url(#g)" stroke-width="1.5" stroke-linecap="round" stroke-linejoin="round">
    <rect x="8" y="16" width="16" height="18" rx="3"/>
    <rect x="24" y="16" width="16" height="18" rx="3"/>
    <circle cx="16" cy="24" r="4" fill="currentColor"/>
    <circle cx="32" cy="24" r="4" fill="currentColor"/>
    <line x1="8" y1="12" x2="40" y2="12"/>
    </g>
  </g>
</svg>