<svg xmlns="http://www.w3.org/2000/svg" viewBox="0 0 48 48">
  <defs>
    <linearGradient id="g" x1="0%" y1="0%" x2="100%" y2="100%">
      <stop offset="0%" stop-color="#a9d8a4"/>
      <stop offset="100%" stop-color="#102a0d"/>
    </linearGradient>
    <filter id="shadow" x="-30%" y="-30%" width="160%" height="160%">
      <feDropShadow dx="2.5" dy="3.5" stdDeviation="3" flood-color="#1a1a2e" flood-opacity="0.45"/>
    </filter>
  </defs>
  <g filter="url(#shadow)" fill="none">
    <g stroke="#081506" stroke-width="4.5" stroke-linecap="round" stroke-linejoin="round" transform="translate(2,2)">
    <ellipse cx="24" cy="16" rx="7" ry="4"/>
    <circle cx="24" cy="10" r="3"/>
    <circle cx="22" cy="8" r="1.2"/>
    <path d="M18 12 L10 4 L14 10"/>
    <path d="M30 12 L38 4 L34 10"/>
    <path d="M16 16 L6 12 M32 16 L42 12"/>
    <path d="M24 16 L24 44 M24 20 L18 20 M24 24 L18 24"/>
    </g>
    <g stroke="#102a0d" stroke-width="3" stroke-linecap="round" stroke-linejoin="round" transform="translate(1,1)">
    <ellipse cx="24" cy="16" rx="7" ry="4"/>
    <circle cx="24" cy="10" r="3"/>
    <circle cx="22" cy="8" r="1.2"/>
    <path d="M18 12 L10 4 L14 10"/>
    <path d="M30 12 L38 4 L34 10"/>
    <path d="M16 16 L6 12 M32 16 L42 12"/>
    <path d="M24 16 L24 44 M24 20 L18 20 M24 24 L18 24"/>
    </g>
    <g stroke="url(#g)" stroke-width="1.5" stroke-linecap="round" stroke-linejoin="round">
    <ellipse cx="24" cy="16" rx="7" ry="4"/>
    <circle cx="24" cy="10" r="3"/>
    <circle cx="22" cy="8" r="1.2"/>
    <path d="M18 12 L10 4 L14 10"/>
    <path d="M30 12 L38 4 L34 10"/>
    <path d="M16 16 L6 12 M32 16 L42 12"/>
    <path d="M24 16 L24 44 M24 20 L18 20 M24 24 L18 24"/>
    </g>
  </g>
</svg>