<svg xmlns="http://www.w3.org/2000/svg" viewBox="0 0 48 48">
  <defs>
    <linearGradient id="g" x1="0%" y1="0%" x2="100%" y2="100%">
      <stop offset="0%" stop-color="#d8b3cb"/>
      <stop offset="100%" stop-color="#2a1623"/>
    </linearGradient>
    <filter id="shadow" x="-30%" y="-30%" width="160%" height="160%">
      <feDropShadow dx="2.5" dy="3.5" stdDeviation="3" flood-color="#1a1a2e" flood-opacity="0.45"/>
    </filter>
  </defs>
  <g filter="url(#shadow)" fill="none">
    <g stroke="#150b11" stroke-width="4.5" stroke-linecap="round" stroke-linejoin="round" transform="translate(2,2)">
    <circle cx="24" cy="24" r="16"/>
    <path d="M24 24 L38 10 Q44 16 38 22 Q30 28 24 24 Z"/>
    <path d="M24 24 L10 38 Q4 32 10 26 Q18 20 24 24 Z"/>
    <path d="M24 24 L38 38 Q44 32 38 26 Q30 20 24 24 Z"/>
    <path d="M24 24 L10 10 Q4 16 10 22 Q18 28 24 24 Z"/>
    <circle cx="24" cy="24" r="3" fill="currentColor"/>
    </g>
    <g stroke="#2a1623" stroke-width="3" stroke-linecap="round" stroke-linejoin="round" transform="translate(1,1)">
    <circle cx="24" cy="24" r="16"/>
    <path d="M24 24 L38 10 Q44 16 38 22 Q30 28 24 24 Z"/>
    <path d="M24 24 L10 38 Q4 32 10 26 Q18 20 24 24 Z"/>
    <path d="M24 24 L38 38 Q44 32 38 26 Q30 20 24 24 Z"/>
    <path d="M24 24 L10 10 Q4 16 10 22 Q18 28 24 24 Z"/>
    <circle cx="24" cy="24" r="3" fill="currentColor"/>
    </g>
    <g stroke="url(#g)" stroke-width="1.5" stroke-linecap="round" stroke-linejoin="round">
    <circle cx="24" cy="24" r="16"/>
    <path d="M24 24 L38 10 Q44 16 38 22 Q30 28 24 24 Z"/>
    <path d="M24 24 L10 38 Q4 32 10 26 Q18 20 24 24 Z"/>
    <path d="M24 24 L38 38 Q44 32 38 26 Q30 20 24 24 Z"/>
    <path d="M24 24 L10 10 Q4 16 10 22 Q18 28 24 24 Z"/>
    <circle cx="24" cy="24" r="3" fill="currentColor"/>
    </g>
  </g>
</svg>