<svg xmlns="http://www.w3.org/2000/svg" viewBox="0 0 48 48">
  <defs>
    <linearGradient id="g" x1="0%" y1="0%" x2="100%" y2="100%">
      <stop offset="0%" stop-color="#abb8c5"/>
      <stop offset="100%" stop-color="#263545"/>
    </linearGradient>
    <filter id="sh" x="-30%" y="-30%" width="160%" height="160%">
      <feDropShadow dx="2.5" dy="3.5" stdDeviation="3" flood-color="#1a1a2e" flood-opacity="0.45"/>
    </filter>
  </defs>
  <g filter="url(#sh)" fill="none">
    <g stroke="#11181f" stroke-width="4.5" stroke-linecap="round" stroke-linejoin="round" transform="translate(2,2)">
<path d="M10 40 Q10 20 24 8 Q38 20 38 40"/><line x1="24" y1="8" x2="24" y2="40"/><path d="M12 28 Q24 20 36 28"/><path d="M14 34 Q24 26 34 34"/><path d="M18 22 Q24 16 30 22"/>
    </g>
    <g stroke="#263545" stroke-width="3" stroke-linecap="round" stroke-linejoin="round" transform="translate(1,1)">
<path d="M10 40 Q10 20 24 8 Q38 20 38 40"/><line x1="24" y1="8" x2="24" y2="40"/><path d="M12 28 Q24 20 36 28"/><path d="M14 34 Q24 26 34 34"/><path d="M18 22 Q24 16 30 22"/>
    </g>
    <g stroke="url(#g)" stroke-width="1.5" stroke-linecap="round" stroke-linejoin="round">
<path d="M10 40 Q10 20 24 8 Q38 20 38 40"/><line x1="24" y1="8" x2="24" y2="40"/><path d="M12 28 Q24 20 36 28"/><path d="M14 34 Q24 26 34 34"/><path d="M18 22 Q24 16 30 22"/>
    </g>
  </g>
</svg>