<svg xmlns="http://www.w3.org/2000/svg" viewBox="0 0 48 48">
  <defs>
    <linearGradient id="g" x1="0%" y1="0%" x2="100%" y2="100%">
      <stop offset="0%" stop-color="#c4cca9"/>
      <stop offset="100%" stop-color="#454e23"/>
    </linearGradient>
    <filter id="sh" x="-30%" y="-30%" width="160%" height="160%">
      <feDropShadow dx="2.5" dy="3.5" stdDeviation="3" flood-color="#1a1a2e" flood-opacity="0.45"/>
    </filter>
  </defs>
  <g filter="url(#sh)" fill="none">
    <g stroke="#1f2310" stroke-width="4.5" stroke-linecap="round" stroke-linejoin="round" transform="translate(2,2)">
<line x1="24" y1="6" x2="24" y2="42"/><path d="M12 18 L24 12"/><path d="M36 18 L24 12"/><path d="M8 24 L24 18"/><path d="M40 24 L24 18"/><path d="M12 30 L24 24"/><path d="M36 30 L24 24"/><path d="M16 36 L24 30"/><path d="M32 36 L24 30"/><circle cx="24" cy="42" r="2"/>
    </g>
    <g stroke="#454e23" stroke-width="3" stroke-linecap="round" stroke-linejoin="round" transform="translate(1,1)">
<line x1="24" y1="6" x2="24" y2="42"/><path d="M12 18 L24 12"/><path d="M36 18 L24 12"/><path d="M8 24 L24 18"/><path d="M40 24 L24 18"/><path d="M12 30 L24 24"/><path d="M36 30 L24 24"/><path d="M16 36 L24 30"/><path d="M32 36 L24 30"/><circle cx="24" cy="42" r="2"/>
    </g>
    <g stroke="url(#g)" stroke-width="1.5" stroke-linecap="round" stroke-linejoin="round">
<line x1="24" y1="6" x2="24" y2="42"/><path d="M12 18 L24 12"/><path d="M36 18 L24 12"/><path d="M8 24 L24 18"/><path d="M40 24 L24 18"/><path d="M12 30 L24 24"/><path d="M36 30 L24 24"/><path d="M16 36 L24 30"/><path d="M32 36 L24 30"/><circle cx="24" cy="42" r="2"/>
    </g>
  </g>
</svg>