<svg xmlns="http://www.w3.org/2000/svg" viewBox="0 0 48 48">
  <defs>
    <linearGradient id="g" x1="0%" y1="0%" x2="100%" y2="100%">
      <stop offset="0%" stop-color="#a0c3b6"/>
      <stop offset="100%" stop-color="#0b1e17"/>
    </linearGradient>
    <filter id="shadow" x="-30%" y="-30%" width="160%" height="160%">
      <feDropShadow dx="2.5" dy="3.5" stdDeviation="3" flood-color="#1a1a2e" flood-opacity="0.45"/>
    </filter>
  </defs>
  <g filter="url(#shadow)" fill="none">
    <g stroke="#050f0b" stroke-width="4.5" stroke-linecap="round" stroke-linejoin="round" transform="translate(2,2)">
    <line x1="24" y1="44" x2="24" y2="6"/>
    <path d="M24 12 Q10 8 6 14 Q14 12 24 14"/>
    <path d="M24 18 Q8 16 4 22 Q12 20 24 22"/>
    <path d="M24 24 Q10 22 6 28 Q14 26 24 28"/>
    <path d="M24 30 Q12 28 8 34 Q14 32 24 34"/>
    <path d="M24 12 Q38 8 42 14 Q34 12 24 14"/>
    <path d="M24 18 Q40 16 44 22 Q36 20 24 22"/>
    <path d="M24 24 Q38 22 42 28 Q34 26 24 28"/>
    <path d="M24 30 Q36 28 40 34 Q34 32 24 34"/>
    </g>
    <g stroke="#0b1e17" stroke-width="3" stroke-linecap="round" stroke-linejoin="round" transform="translate(1,1)">
    <line x1="24" y1="44" x2="24" y2="6"/>
    <path d="M24 12 Q10 8 6 14 Q14 12 24 14"/>
    <path d="M24 18 Q8 16 4 22 Q12 20 24 22"/>
    <path d="M24 24 Q10 22 6 28 Q14 26 24 28"/>
    <path d="M24 30 Q12 28 8 34 Q14 32 24 34"/>
    <path d="M24 12 Q38 8 42 14 Q34 12 24 14"/>
    <path d="M24 18 Q40 16 44 22 Q36 20 24 22"/>
    <path d="M24 24 Q38 22 42 28 Q34 26 24 28"/>
    <path d="M24 30 Q36 28 40 34 Q34 32 24 34"/>
    </g>
    <g stroke="url(#g)" stroke-width="1.5" stroke-linecap="round" stroke-linejoin="round">
    <line x1="24" y1="44" x2="24" y2="6"/>
    <path d="M24 12 Q10 8 6 14 Q14 12 24 14"/>
    <path d="M24 18 Q8 16 4 22 Q12 20 24 22"/>
    <path d="M24 24 Q10 22 6 28 Q14 26 24 28"/>
    <path d="M24 30 Q12 28 8 34 Q14 32 24 34"/>
    <path d="M24 12 Q38 8 42 14 Q34 12 24 14"/>
    <path d="M24 18 Q40 16 44 22 Q36 20 24 22"/>
    <path d="M24 24 Q38 22 42 28 Q34 26 24 28"/>
    <path d="M24 30 Q36 28 40 34 Q34 32 24 34"/>
    </g>
  </g>
</svg>