<svg xmlns="http://www.w3.org/2000/svg" viewBox="0 0 48 48">
  <defs>
    <linearGradient id="g" x1="0%" y1="0%" x2="100%" y2="100%">
      <stop offset="0%" stop-color="#acd5ca"/>
      <stop offset="100%" stop-color="#27594c"/>
    </linearGradient>
    <filter id="sh" x="-30%" y="-30%" width="160%" height="160%">
      <feDropShadow dx="2.5" dy="3.5" stdDeviation="3" flood-color="#1a1a2e" flood-opacity="0.45"/>
    </filter>
  </defs>
  <g filter="url(#sh)" fill="none">
    <g stroke="#112822" stroke-width="4.5" stroke-linecap="round" stroke-linejoin="round" transform="translate(2,2)">
<path d="M6 26 Q10 14 24 14 Q38 14 42 26 L42 34 L6 34 Z"/>
        <circle cx="12" cy="36" r="5"/>
        <circle cx="36" cy="36" r="5"/>
        <rect x="22" y="6" width="4" height="8" rx="2"/>
    </g>
    <g stroke="#27594c" stroke-width="3" stroke-linecap="round" stroke-linejoin="round" transform="translate(1,1)">
<path d="M6 26 Q10 14 24 14 Q38 14 42 26 L42 34 L6 34 Z"/>
        <circle cx="12" cy="36" r="5"/>
        <circle cx="36" cy="36" r="5"/>
        <rect x="22" y="6" width="4" height="8" rx="2"/>
    </g>
    <g stroke="url(#g)" stroke-width="1.5" stroke-linecap="round" stroke-linejoin="round">
<path d="M6 26 Q10 14 24 14 Q38 14 42 26 L42 34 L6 34 Z"/>
        <circle cx="12" cy="36" r="5"/>
        <circle cx="36" cy="36" r="5"/>
        <rect x="22" y="6" width="4" height="8" rx="2"/>
    </g>
  </g>
</svg>