<svg xmlns="http://www.w3.org/2000/svg" viewBox="0 0 48 48">
  <defs>
    <linearGradient id="g" x1="0%" y1="0%" x2="100%" y2="100%">
      <stop offset="0%" stop-color="#a8c5a5"/>
      <stop offset="100%" stop-color="#22451f"/>
    </linearGradient>
    <filter id="sh" x="-30%" y="-30%" width="160%" height="160%">
      <feDropShadow dx="2.5" dy="3.5" stdDeviation="3" flood-color="#1a1a2e" flood-opacity="0.45"/>
    </filter>
  </defs>
  <g filter="url(#sh)" fill="none">
    <g stroke="#0f1f0e" stroke-width="4.5" stroke-linecap="round" stroke-linejoin="round" transform="translate(2,2)">
<ellipse cx="24" cy="24" rx="6" ry="12"/><circle cx="24" cy="8" r="5"/><circle cx="22" cy="6" r="1.5"/><path d="M18 24 L12 30 L14 34"/><path d="M30 24 L36 30 L34 34"/><path d="M18 34 L14 40"/><path d="M30 34 L34 40"/>
    </g>
    <g stroke="#22451f" stroke-width="3" stroke-linecap="round" stroke-linejoin="round" transform="translate(1,1)">
<ellipse cx="24" cy="24" rx="6" ry="12"/><circle cx="24" cy="8" r="5"/><circle cx="22" cy="6" r="1.5"/><path d="M18 24 L12 30 L14 34"/><path d="M30 24 L36 30 L34 34"/><path d="M18 34 L14 40"/><path d="M30 34 L34 40"/>
    </g>
    <g stroke="url(#g)" stroke-width="1.5" stroke-linecap="round" stroke-linejoin="round">
<ellipse cx="24" cy="24" rx="6" ry="12"/><circle cx="24" cy="8" r="5"/><circle cx="22" cy="6" r="1.5"/><path d="M18 24 L12 30 L14 34"/><path d="M30 24 L36 30 L34 34"/><path d="M18 34 L14 40"/><path d="M30 34 L34 40"/>
    </g>
  </g>
</svg>