<svg xmlns="http://www.w3.org/2000/svg" viewBox="0 0 48 48">
  <defs>
    <linearGradient id="iconGrad" x1="0%" y1="0%" x2="100%" y2="100%">
      <stop offset="0%" stop-color="#81C784"/>
      <stop offset="100%" stop-color="#38663a"/>
    </linearGradient>
    <filter id="shadow" x="-30%" y="-30%" width="160%" height="160%">
      <feDropShadow dx="2.5" dy="3.5" stdDeviation="3" flood-color="#1a1a2e" flood-opacity="0.45"/>
    </filter>
  </defs>
  <g filter="url(#shadow)" fill="none">
    <g stroke="#1c331d" stroke-width="4.5" stroke-linecap="round" stroke-linejoin="round" transform="translate(2,2)">
      <path d="M8 14a4 4 0 014-4h8l4 4h12a4 4 0 014 4v16a4 4 0 01-4 4H12a4 4 0 01-4-4V14z"/>
    </g>
    <g stroke="#38663a" stroke-width="3" stroke-linecap="round" stroke-linejoin="round" transform="translate(1,1)">
      <path d="M8 14a4 4 0 014-4h8l4 4h12a4 4 0 014 4v16a4 4 0 01-4 4H12a4 4 0 01-4-4V14z"/>
    </g>
    <g stroke="url(#iconGrad)" stroke-width="1.5" stroke-linecap="round" stroke-linejoin="round">
      <path d="M8 14a4 4 0 014-4h8l4 4h12a4 4 0 014 4v16a4 4 0 01-4 4H12a4 4 0 01-4-4V14z"/>
    </g>
  </g>
</svg>
