<svg xmlns="http://www.w3.org/2000/svg" viewBox="0 0 48 48">
  <defs>
    <linearGradient id="g" x1="0%" y1="0%" x2="100%" y2="100%">
      <stop offset="0%" stop-color="#c3b7cf"/>
      <stop offset="100%" stop-color="#1e1825"/>
    </linearGradient>
    <filter id="shadow" x="-30%" y="-30%" width="160%" height="160%">
      <feDropShadow dx="2.5" dy="3.5" stdDeviation="3" flood-color="#1a1a2e" flood-opacity="0.45"/>
    </filter>
  </defs>
  <g filter="url(#shadow)" fill="none">
    <g stroke="#0f0c12" stroke-width="4.5" stroke-linecap="round" stroke-linejoin="round" transform="translate(2,2)">
    <rect x="16" y="6" width="16" height="10" rx="2"/>
    <rect x="18" y="16" width="12" height="28" rx="4"/>
    <rect x="10" y="38" width="28" height="6" rx="2"/>
    <line x1="18" y1="16" x2="18" y2="6 M30 16 L30 6"/>
    </g>
    <g stroke="#1e1825" stroke-width="3" stroke-linecap="round" stroke-linejoin="round" transform="translate(1,1)">
    <rect x="16" y="6" width="16" height="10" rx="2"/>
    <rect x="18" y="16" width="12" height="28" rx="4"/>
    <rect x="10" y="38" width="28" height="6" rx="2"/>
    <line x1="18" y1="16" x2="18" y2="6 M30 16 L30 6"/>
    </g>
    <g stroke="url(#g)" stroke-width="1.5" stroke-linecap="round" stroke-linejoin="round">
    <rect x="16" y="6" width="16" height="10" rx="2"/>
    <rect x="18" y="16" width="12" height="28" rx="4"/>
    <rect x="10" y="38" width="28" height="6" rx="2"/>
    <line x1="18" y1="16" x2="18" y2="6 M30 16 L30 6"/>
    </g>
  </g>
</svg>