<svg xmlns="http://www.w3.org/2000/svg" viewBox="0 0 48 48">
  <defs>
    <linearGradient id="g" x1="0%" y1="0%" x2="100%" y2="100%">
      <stop offset="0%" stop-color="#b6d3b6"/>
      <stop offset="100%" stop-color="#335633"/>
    </linearGradient>
    <filter id="sh" x="-30%" y="-30%" width="160%" height="160%">
      <feDropShadow dx="2.5" dy="3.5" stdDeviation="3" flood-color="#1a1a2e" flood-opacity="0.45"/>
    </filter>
  </defs>
  <g filter="url(#sh)" fill="none">
    <g stroke="#172717" stroke-width="4.5" stroke-linecap="round" stroke-linejoin="round" transform="translate(2,2)">
<path d="M6 38 Q6 14 24 14 Q42 14 42 38"/>
        <path d="M12 38 Q12 20 24 20 Q36 20 36 38"/>
        <path d="M18 38 Q18 26 24 26 Q30 26 30 38"/>
    </g>
    <g stroke="#335633" stroke-width="3" stroke-linecap="round" stroke-linejoin="round" transform="translate(1,1)">
<path d="M6 38 Q6 14 24 14 Q42 14 42 38"/>
        <path d="M12 38 Q12 20 24 20 Q36 20 36 38"/>
        <path d="M18 38 Q18 26 24 26 Q30 26 30 38"/>
    </g>
    <g stroke="url(#g)" stroke-width="1.5" stroke-linecap="round" stroke-linejoin="round">
<path d="M6 38 Q6 14 24 14 Q42 14 42 38"/>
        <path d="M12 38 Q12 20 24 20 Q36 20 36 38"/>
        <path d="M18 38 Q18 26 24 26 Q30 26 30 38"/>
    </g>
  </g>
</svg>