<svg xmlns="http://www.w3.org/2000/svg" viewBox="0 0 48 48">
  <defs>
    <linearGradient id="g" x1="0%" y1="0%" x2="100%" y2="100%">
      <stop offset="0%" stop-color="#c0baa6"/>
      <stop offset="100%" stop-color="#1d190e"/>
    </linearGradient>
    <filter id="shadow" x="-30%" y="-30%" width="160%" height="160%">
      <feDropShadow dx="2.5" dy="3.5" stdDeviation="3" flood-color="#1a1a2e" flood-opacity="0.45"/>
    </filter>
  </defs>
  <g filter="url(#shadow)" fill="none">
    <g stroke="#0e0c07" stroke-width="4.5" stroke-linecap="round" stroke-linejoin="round" transform="translate(2,2)">
    <rect x="2" y="20" width="44" height="18" rx="4"/>
    <rect x="2" y="14" width="14" height="6" rx="2"/>
    <line x1="20" y1="16" x2="20" y2="38"/>
    <line x1="20" y1="20" x2="42" y2="20"/>
    <circle cx="14" cy="38" r="5"/>
    <circle cx="34" cy="38" r="5"/>
    <circle cx="40" cy="38" r="3"/>
    </g>
    <g stroke="#1d190e" stroke-width="3" stroke-linecap="round" stroke-linejoin="round" transform="translate(1,1)">
    <rect x="2" y="20" width="44" height="18" rx="4"/>
    <rect x="2" y="14" width="14" height="6" rx="2"/>
    <line x1="20" y1="16" x2="20" y2="38"/>
    <line x1="20" y1="20" x2="42" y2="20"/>
    <circle cx="14" cy="38" r="5"/>
    <circle cx="34" cy="38" r="5"/>
    <circle cx="40" cy="38" r="3"/>
    </g>
    <g stroke="url(#g)" stroke-width="1.5" stroke-linecap="round" stroke-linejoin="round">
    <rect x="2" y="20" width="44" height="18" rx="4"/>
    <rect x="2" y="14" width="14" height="6" rx="2"/>
    <line x1="20" y1="16" x2="20" y2="38"/>
    <line x1="20" y1="20" x2="42" y2="20"/>
    <circle cx="14" cy="38" r="5"/>
    <circle cx="34" cy="38" r="5"/>
    <circle cx="40" cy="38" r="3"/>
    </g>
  </g>
</svg>