<svg xmlns="http://www.w3.org/2000/svg" viewBox="0 0 48 48">
  <defs>
    <linearGradient id="g" x1="0%" y1="0%" x2="100%" y2="100%">
      <stop offset="0%" stop-color="#FFCDD2"/>
      <stop offset="100%" stop-color="#741A1A"/>
    </linearGradient>
    <filter id="sh" x="-30%" y="-30%" width="160%" height="160%">
      <feDropShadow dx="2.5" dy="3.5" stdDeviation="3" flood-color="#1a1a2e" flood-opacity="0.45"/>
    </filter>
  </defs>
  <g filter="url(#sh)" fill="none">
    <g stroke="#3A0D0D" stroke-width="4.5" stroke-linecap="round" stroke-linejoin="round" transform="translate(2,2)">
        <rect x="8" y="4" width="32" height="40" rx="2"/>
        <line x1="8" y1="17" x2="40" y2="17"/>
        <line x1="8" y1="30" x2="40" y2="30"/>
        <line x1="24" y1="4" x2="24" y2="17"/>
        <line x1="16" y1="17" x2="16" y2="30"/>
        <line x1="32" y1="17" x2="32" y2="30"/>
        <line x1="24" y1="30" x2="24" y2="44"/>
    </g>
    <g stroke="#741A1A" stroke-width="3" stroke-linecap="round" stroke-linejoin="round" transform="translate(1,1)">
        <rect x="8" y="4" width="32" height="40" rx="2"/>
        <line x1="8" y1="17" x2="40" y2="17"/>
        <line x1="8" y1="30" x2="40" y2="30"/>
        <line x1="24" y1="4" x2="24" y2="17"/>
        <line x1="16" y1="17" x2="16" y2="30"/>
        <line x1="32" y1="17" x2="32" y2="30"/>
        <line x1="24" y1="30" x2="24" y2="44"/>
    </g>
    <g stroke="url(#g)" stroke-width="1.5" stroke-linecap="round" stroke-linejoin="round">
        <rect x="8" y="4" width="32" height="40" rx="2"/>
        <line x1="8" y1="17" x2="40" y2="17"/>
        <line x1="8" y1="30" x2="40" y2="30"/>
        <line x1="24" y1="4" x2="24" y2="17"/>
        <line x1="16" y1="17" x2="16" y2="30"/>
        <line x1="32" y1="17" x2="32" y2="30"/>
        <line x1="24" y1="30" x2="24" y2="44"/>
    </g>
  </g>
</svg>