<svg xmlns="http://www.w3.org/2000/svg" viewBox="0 0 48 48">
  <defs>
    <linearGradient id="g" x1="0%" y1="0%" x2="100%" y2="100%">
      <stop offset="0%" stop-color="#d1d5af"/>
      <stop offset="100%" stop-color="#262813"/>
    </linearGradient>
    <filter id="shadow" x="-30%" y="-30%" width="160%" height="160%">
      <feDropShadow dx="2.5" dy="3.5" stdDeviation="3" flood-color="#1a1a2e" flood-opacity="0.45"/>
    </filter>
  </defs>
  <g filter="url(#shadow)" fill="none">
    <g stroke="#131409" stroke-width="4.5" stroke-linecap="round" stroke-linejoin="round" transform="translate(2,2)">
    <ellipse cx="24" cy="24" rx="6" ry="10"/>
    <ellipse cx="24" cy="18" rx="4" ry="3" fill="currentColor"/>
    <ellipse cx="24" cy="30" rx="4" ry="3"/>
    <line x1="24" y1="14" x2="24" y2="8 M24 34 L24 44"/>
    </g>
    <g stroke="#262813" stroke-width="3" stroke-linecap="round" stroke-linejoin="round" transform="translate(1,1)">
    <ellipse cx="24" cy="24" rx="6" ry="10"/>
    <ellipse cx="24" cy="18" rx="4" ry="3" fill="currentColor"/>
    <ellipse cx="24" cy="30" rx="4" ry="3"/>
    <line x1="24" y1="14" x2="24" y2="8 M24 34 L24 44"/>
    </g>
    <g stroke="url(#g)" stroke-width="1.5" stroke-linecap="round" stroke-linejoin="round">
    <ellipse cx="24" cy="24" rx="6" ry="10"/>
    <ellipse cx="24" cy="18" rx="4" ry="3" fill="currentColor"/>
    <ellipse cx="24" cy="30" rx="4" ry="3"/>
    <line x1="24" y1="14" x2="24" y2="8 M24 34 L24 44"/>
    </g>
  </g>
</svg>