<svg xmlns="http://www.w3.org/2000/svg" viewBox="0 0 48 48">
  <defs>
    <linearGradient id="g" x1="0%" y1="0%" x2="100%" y2="100%">
      <stop offset="0%" stop-color="#cda0c6"/>
      <stop offset="100%" stop-color="#240b20"/>
    </linearGradient>
    <filter id="shadow" x="-30%" y="-30%" width="160%" height="160%">
      <feDropShadow dx="2.5" dy="3.5" stdDeviation="3" flood-color="#1a1a2e" flood-opacity="0.45"/>
    </filter>
  </defs>
  <g filter="url(#shadow)" fill="none">
    <g stroke="#120510" stroke-width="4.5" stroke-linecap="round" stroke-linejoin="round" transform="translate(2,2)">
    <path d="M4 10 L4 42 L40 42 Z"/>
    <line x1="4" y1="18" x2="40" y2="42 M4 26 L40 42 M4 34 L40 42 M12 10 L4 42 M20 10 L4 42 M28 10 L4 42 M36 10 L4 42"/>
    </g>
    <g stroke="#240b20" stroke-width="3" stroke-linecap="round" stroke-linejoin="round" transform="translate(1,1)">
    <path d="M4 10 L4 42 L40 42 Z"/>
    <line x1="4" y1="18" x2="40" y2="42 M4 26 L40 42 M4 34 L40 42 M12 10 L4 42 M20 10 L4 42 M28 10 L4 42 M36 10 L4 42"/>
    </g>
    <g stroke="url(#g)" stroke-width="1.5" stroke-linecap="round" stroke-linejoin="round">
    <path d="M4 10 L4 42 L40 42 Z"/>
    <line x1="4" y1="18" x2="40" y2="42 M4 26 L40 42 M4 34 L40 42 M12 10 L4 42 M20 10 L4 42 M28 10 L4 42 M36 10 L4 42"/>
    </g>
  </g>
</svg>