<svg xmlns="http://www.w3.org/2000/svg" viewBox="0 0 48 48">
  <defs>
    <linearGradient id="g" x1="0%" y1="0%" x2="100%" y2="100%">
      <stop offset="0%" stop-color="#a5acbf"/>
      <stop offset="100%" stop-color="#0e121c"/>
    </linearGradient>
    <filter id="shadow" x="-30%" y="-30%" width="160%" height="160%">
      <feDropShadow dx="2.5" dy="3.5" stdDeviation="3" flood-color="#1a1a2e" flood-opacity="0.45"/>
    </filter>
  </defs>
  <g filter="url(#shadow)" fill="none">
    <g stroke="#07090e" stroke-width="4.5" stroke-linecap="round" stroke-linejoin="round" transform="translate(2,2)">
    <path d="M24 4 Q24 20 16 28 Q8 36 8 44" stroke-width="2" fill="none"/>
    <circle cx="24" cy="4" r="3" fill="currentColor"/>
    <circle cx="8" cy="44" r="2" fill="currentColor"/>
    </g>
    <g stroke="#0e121c" stroke-width="3" stroke-linecap="round" stroke-linejoin="round" transform="translate(1,1)">
    <path d="M24 4 Q24 20 16 28 Q8 36 8 44" stroke-width="2" fill="none"/>
    <circle cx="24" cy="4" r="3" fill="currentColor"/>
    <circle cx="8" cy="44" r="2" fill="currentColor"/>
    </g>
    <g stroke="url(#g)" stroke-width="1.5" stroke-linecap="round" stroke-linejoin="round">
    <path d="M24 4 Q24 20 16 28 Q8 36 8 44" stroke-width="2" fill="none"/>
    <circle cx="24" cy="4" r="3" fill="currentColor"/>
    <circle cx="8" cy="44" r="2" fill="currentColor"/>
    </g>
  </g>
</svg>