<svg xmlns="http://www.w3.org/2000/svg" viewBox="0 0 48 48">
  <defs>
    <linearGradient id="g" x1="0%" y1="0%" x2="100%" y2="100%">
      <stop offset="0%" stop-color="#dbcbb7"/>
      <stop offset="100%" stop-color="#2b2317"/>
    </linearGradient>
    <filter id="shadow" x="-30%" y="-30%" width="160%" height="160%">
      <feDropShadow dx="2.5" dy="3.5" stdDeviation="3" flood-color="#1a1a2e" flood-opacity="0.45"/>
    </filter>
  </defs>
  <g filter="url(#shadow)" fill="none">
    <g stroke="#15110b" stroke-width="4.5" stroke-linecap="round" stroke-linejoin="round" transform="translate(2,2)">
    <path d="M12 14 L12 38 Q12 42 20 42 L28 42 Q32 42 32 38 L32 24 Q32 14 24 14 Z"/>
    <line x1="12" y1="22" x2="32" y2="22 M12 30 L32 30"/>
    </g>
    <g stroke="#2b2317" stroke-width="3" stroke-linecap="round" stroke-linejoin="round" transform="translate(1,1)">
    <path d="M12 14 L12 38 Q12 42 20 42 L28 42 Q32 42 32 38 L32 24 Q32 14 24 14 Z"/>
    <line x1="12" y1="22" x2="32" y2="22 M12 30 L32 30"/>
    </g>
    <g stroke="url(#g)" stroke-width="1.5" stroke-linecap="round" stroke-linejoin="round">
    <path d="M12 14 L12 38 Q12 42 20 42 L28 42 Q32 42 32 38 L32 24 Q32 14 24 14 Z"/>
    <line x1="12" y1="22" x2="32" y2="22 M12 30 L32 30"/>
    </g>
  </g>
</svg>