<svg xmlns="http://www.w3.org/2000/svg" viewBox="0 0 48 48">
  <defs>
    <linearGradient id="g" x1="0%" y1="0%" x2="100%" y2="100%">
      <stop offset="0%" stop-color="#a7d7c8"/>
      <stop offset="100%" stop-color="#0f2a21"/>
    </linearGradient>
    <filter id="shadow" x="-30%" y="-30%" width="160%" height="160%">
      <feDropShadow dx="2.5" dy="3.5" stdDeviation="3" flood-color="#1a1a2e" flood-opacity="0.45"/>
    </filter>
  </defs>
  <g filter="url(#shadow)" fill="none">
    <g stroke="#071510" stroke-width="4.5" stroke-linecap="round" stroke-linejoin="round" transform="translate(2,2)">
    <rect x="6" y="14" width="36" height="20" rx="10"/>
    <rect x="10" y="18" width="28" height="12" rx="6"/>
    <circle cx="24" cy="24" r="4" fill="currentColor"/>
    <line x1="10" y1="14" x2="10" y2="4 M38 14 L38 4"/>
    </g>
    <g stroke="#0f2a21" stroke-width="3" stroke-linecap="round" stroke-linejoin="round" transform="translate(1,1)">
    <rect x="6" y="14" width="36" height="20" rx="10"/>
    <rect x="10" y="18" width="28" height="12" rx="6"/>
    <circle cx="24" cy="24" r="4" fill="currentColor"/>
    <line x1="10" y1="14" x2="10" y2="4 M38 14 L38 4"/>
    </g>
    <g stroke="url(#g)" stroke-width="1.5" stroke-linecap="round" stroke-linejoin="round">
    <rect x="6" y="14" width="36" height="20" rx="10"/>
    <rect x="10" y="18" width="28" height="12" rx="6"/>
    <circle cx="24" cy="24" r="4" fill="currentColor"/>
    <line x1="10" y1="14" x2="10" y2="4 M38 14 L38 4"/>
    </g>
  </g>
</svg>