<svg xmlns="http://www.w3.org/2000/svg" viewBox="0 0 48 48">
  <defs>
    <linearGradient id="g" x1="0%" y1="0%" x2="100%" y2="100%">
      <stop offset="0%" stop-color="#c7aab2"/>
      <stop offset="100%" stop-color="#211115"/>
    </linearGradient>
    <filter id="shadow" x="-30%" y="-30%" width="160%" height="160%">
      <feDropShadow dx="2.5" dy="3.5" stdDeviation="3" flood-color="#1a1a2e" flood-opacity="0.45"/>
    </filter>
  </defs>
  <g filter="url(#shadow)" fill="none">
    <g stroke="#10080a" stroke-width="4.5" stroke-linecap="round" stroke-linejoin="round" transform="translate(2,2)">
    <ellipse cx="24" cy="20" rx="9" ry="6"/>
    <circle cx="24" cy="12" r="4"/>
    <circle cx="22" cy="10" r="1.5"/>
    <path d="M16 20 Q10 16 8 12"/>
    <path d="M22 22 L22 44 M22 44 L18 44 M22 44 L26 44"/>
    <line x1="22" y1="28" x2="30" y2="28"/>
    </g>
    <g stroke="#211115" stroke-width="3" stroke-linecap="round" stroke-linejoin="round" transform="translate(1,1)">
    <ellipse cx="24" cy="20" rx="9" ry="6"/>
    <circle cx="24" cy="12" r="4"/>
    <circle cx="22" cy="10" r="1.5"/>
    <path d="M16 20 Q10 16 8 12"/>
    <path d="M22 22 L22 44 M22 44 L18 44 M22 44 L26 44"/>
    <line x1="22" y1="28" x2="30" y2="28"/>
    </g>
    <g stroke="url(#g)" stroke-width="1.5" stroke-linecap="round" stroke-linejoin="round">
    <ellipse cx="24" cy="20" rx="9" ry="6"/>
    <circle cx="24" cy="12" r="4"/>
    <circle cx="22" cy="10" r="1.5"/>
    <path d="M16 20 Q10 16 8 12"/>
    <path d="M22 22 L22 44 M22 44 L18 44 M22 44 L26 44"/>
    <line x1="22" y1="28" x2="30" y2="28"/>
    </g>
  </g>
</svg>