<svg xmlns="http://www.w3.org/2000/svg" viewBox="0 0 48 48">
  <defs>
    <linearGradient id="g" x1="0%" y1="0%" x2="100%" y2="100%">
      <stop offset="0%" stop-color="#bbcbd3"/>
      <stop offset="100%" stop-color="#394d56"/>
    </linearGradient>
    <filter id="sh" x="-30%" y="-30%" width="160%" height="160%">
      <feDropShadow dx="2.5" dy="3.5" stdDeviation="3" flood-color="#1a1a2e" flood-opacity="0.45"/>
    </filter>
  </defs>
  <g filter="url(#sh)" fill="none">
    <g stroke="#1a2327" stroke-width="4.5" stroke-linecap="round" stroke-linejoin="round" transform="translate(2,2)">
<ellipse cx="24" cy="24" rx="8" ry="12"/><path d="M28 14 L40 10"/><circle cx="32" cy="8" r="4"/><circle cx="32" cy="8" r="1.5"/><line x1="20" y1="34" x2="16" y2="42"/><line x1="24" y1="36" x2="22" y2="42"/>
    </g>
    <g stroke="#394d56" stroke-width="3" stroke-linecap="round" stroke-linejoin="round" transform="translate(1,1)">
<ellipse cx="24" cy="24" rx="8" ry="12"/><path d="M28 14 L40 10"/><circle cx="32" cy="8" r="4"/><circle cx="32" cy="8" r="1.5"/><line x1="20" y1="34" x2="16" y2="42"/><line x1="24" y1="36" x2="22" y2="42"/>
    </g>
    <g stroke="url(#g)" stroke-width="1.5" stroke-linecap="round" stroke-linejoin="round">
<ellipse cx="24" cy="24" rx="8" ry="12"/><path d="M28 14 L40 10"/><circle cx="32" cy="8" r="4"/><circle cx="32" cy="8" r="1.5"/><line x1="20" y1="34" x2="16" y2="42"/><line x1="24" y1="36" x2="22" y2="42"/>
    </g>
  </g>
</svg>