<svg xmlns="http://www.w3.org/2000/svg" viewBox="0 0 48 48">
  <defs>
    <linearGradient id="g" x1="0%" y1="0%" x2="100%" y2="100%">
      <stop offset="0%" stop-color="#a0c4c6"/>
      <stop offset="100%" stop-color="#0b1f20"/>
    </linearGradient>
    <filter id="shadow" x="-30%" y="-30%" width="160%" height="160%">
      <feDropShadow dx="2.5" dy="3.5" stdDeviation="3" flood-color="#1a1a2e" flood-opacity="0.45"/>
    </filter>
  </defs>
  <g filter="url(#shadow)" fill="none">
    <g stroke="#050f10" stroke-width="4.5" stroke-linecap="round" stroke-linejoin="round" transform="translate(2,2)">
    <ellipse cx="24" cy="20" rx="5" ry="3"/>
    <circle cx="24" cy="14" r="3"/>
    <circle cx="22" cy="12" r="1.2"/>
    <path d="M18 18 L12 14 L14 12 M30 18 L36 14 L34 12"/>
    <path d="M22 22 L20 44 M26 22 L28 44"/>
    </g>
    <g stroke="#0b1f20" stroke-width="3" stroke-linecap="round" stroke-linejoin="round" transform="translate(1,1)">
    <ellipse cx="24" cy="20" rx="5" ry="3"/>
    <circle cx="24" cy="14" r="3"/>
    <circle cx="22" cy="12" r="1.2"/>
    <path d="M18 18 L12 14 L14 12 M30 18 L36 14 L34 12"/>
    <path d="M22 22 L20 44 M26 22 L28 44"/>
    </g>
    <g stroke="url(#g)" stroke-width="1.5" stroke-linecap="round" stroke-linejoin="round">
    <ellipse cx="24" cy="20" rx="5" ry="3"/>
    <circle cx="24" cy="14" r="3"/>
    <circle cx="22" cy="12" r="1.2"/>
    <path d="M18 18 L12 14 L14 12 M30 18 L36 14 L34 12"/>
    <path d="M22 22 L20 44 M26 22 L28 44"/>
    </g>
  </g>
</svg>