<svg xmlns="http://www.w3.org/2000/svg" viewBox="0 0 48 48">
  <defs>
    <linearGradient id="g" x1="0%" y1="0%" x2="100%" y2="100%">
      <stop offset="0%" stop-color="#e2bbc0"/>
      <stop offset="100%" stop-color="#2f1a1d"/>
    </linearGradient>
    <filter id="shadow" x="-30%" y="-30%" width="160%" height="160%">
      <feDropShadow dx="2.5" dy="3.5" stdDeviation="3" flood-color="#1a1a2e" flood-opacity="0.45"/>
    </filter>
  </defs>
  <g filter="url(#shadow)" fill="none">
    <g stroke="#170d0e" stroke-width="4.5" stroke-linecap="round" stroke-linejoin="round" transform="translate(2,2)">
    <rect x="8" y="34" width="32" height="6" rx="3"/>
    <line x1="14" y1="34" x2="14" y2="14 M24 34 L24 12 M34 34 L34 14"/>
    <ellipse cx="14" cy="14" rx="4" ry="5"/>
    <ellipse cx="24" cy="12" rx="4" ry="5"/>
    <ellipse cx="34" cy="14" rx="4" ry="5"/>
    </g>
    <g stroke="#2f1a1d" stroke-width="3" stroke-linecap="round" stroke-linejoin="round" transform="translate(1,1)">
    <rect x="8" y="34" width="32" height="6" rx="3"/>
    <line x1="14" y1="34" x2="14" y2="14 M24 34 L24 12 M34 34 L34 14"/>
    <ellipse cx="14" cy="14" rx="4" ry="5"/>
    <ellipse cx="24" cy="12" rx="4" ry="5"/>
    <ellipse cx="34" cy="14" rx="4" ry="5"/>
    </g>
    <g stroke="url(#g)" stroke-width="1.5" stroke-linecap="round" stroke-linejoin="round">
    <rect x="8" y="34" width="32" height="6" rx="3"/>
    <line x1="14" y1="34" x2="14" y2="14 M24 34 L24 12 M34 34 L34 14"/>
    <ellipse cx="14" cy="14" rx="4" ry="5"/>
    <ellipse cx="24" cy="12" rx="4" ry="5"/>
    <ellipse cx="34" cy="14" rx="4" ry="5"/>
    </g>
  </g>
</svg>