<svg xmlns="http://www.w3.org/2000/svg" viewBox="0 0 48 48">
  <defs>
    <linearGradient id="g" x1="0%" y1="0%" x2="100%" y2="100%">
      <stop offset="0%" stop-color="#cdb1b7"/>
      <stop offset="100%" stop-color="#241417"/>
    </linearGradient>
    <filter id="shadow" x="-30%" y="-30%" width="160%" height="160%">
      <feDropShadow dx="2.5" dy="3.5" stdDeviation="3" flood-color="#1a1a2e" flood-opacity="0.45"/>
    </filter>
  </defs>
  <g filter="url(#shadow)" fill="none">
    <g stroke="#120a0b" stroke-width="4.5" stroke-linecap="round" stroke-linejoin="round" transform="translate(2,2)">
    <path d="M4 10 L4 38 Q4 42 8 42 L40 42 Q44 42 44 38 L44 16 Q44 12 40 12 L22 12 L18 8 L8 8 Q4 8 4 12 Z"/>
    <circle cx="32" cy="26" r="3" fill="currentColor"/>
    </g>
    <g stroke="#241417" stroke-width="3" stroke-linecap="round" stroke-linejoin="round" transform="translate(1,1)">
    <path d="M4 10 L4 38 Q4 42 8 42 L40 42 Q44 42 44 38 L44 16 Q44 12 40 12 L22 12 L18 8 L8 8 Q4 8 4 12 Z"/>
    <circle cx="32" cy="26" r="3" fill="currentColor"/>
    </g>
    <g stroke="url(#g)" stroke-width="1.5" stroke-linecap="round" stroke-linejoin="round">
    <path d="M4 10 L4 38 Q4 42 8 42 L40 42 Q44 42 44 38 L44 16 Q44 12 40 12 L22 12 L18 8 L8 8 Q4 8 4 12 Z"/>
    <circle cx="32" cy="26" r="3" fill="currentColor"/>
    </g>
  </g>
</svg>