<svg xmlns="http://www.w3.org/2000/svg" viewBox="0 0 48 48">
  <defs>
    <linearGradient id="g" x1="0%" y1="0%" x2="100%" y2="100%">
      <stop offset="0%" stop-color="#c4a6c6"/>
      <stop offset="100%" stop-color="#1f0e20"/>
    </linearGradient>
    <filter id="shadow" x="-30%" y="-30%" width="160%" height="160%">
      <feDropShadow dx="2.5" dy="3.5" stdDeviation="3" flood-color="#1a1a2e" flood-opacity="0.45"/>
    </filter>
  </defs>
  <g filter="url(#shadow)" fill="none">
    <g stroke="#0f0710" stroke-width="4.5" stroke-linecap="round" stroke-linejoin="round" transform="translate(2,2)">
    <line x1="8" y1="44" x2="8" y2="16"/>
    <line x1="24" y1="44" x2="24" y2="8"/>
    <line x1="40" y1="44" x2="40" y2="16"/>
    <polygon points="8,4 2,16 14,16"/>
    <polygon points="24,2 18,14 30,14"/>
    <polygon points="40,6 34,18 46,18"/>
    <line x1="8" y1="22" x2="8" y2="28 M24 14 L24 20 M40 22 L40 28"/>
    </g>
    <g stroke="#1f0e20" stroke-width="3" stroke-linecap="round" stroke-linejoin="round" transform="translate(1,1)">
    <line x1="8" y1="44" x2="8" y2="16"/>
    <line x1="24" y1="44" x2="24" y2="8"/>
    <line x1="40" y1="44" x2="40" y2="16"/>
    <polygon points="8,4 2,16 14,16"/>
    <polygon points="24,2 18,14 30,14"/>
    <polygon points="40,6 34,18 46,18"/>
    <line x1="8" y1="22" x2="8" y2="28 M24 14 L24 20 M40 22 L40 28"/>
    </g>
    <g stroke="url(#g)" stroke-width="1.5" stroke-linecap="round" stroke-linejoin="round">
    <line x1="8" y1="44" x2="8" y2="16"/>
    <line x1="24" y1="44" x2="24" y2="8"/>
    <line x1="40" y1="44" x2="40" y2="16"/>
    <polygon points="8,4 2,16 14,16"/>
    <polygon points="24,2 18,14 30,14"/>
    <polygon points="40,6 34,18 46,18"/>
    <line x1="8" y1="22" x2="8" y2="28 M24 14 L24 20 M40 22 L40 28"/>
    </g>
  </g>
</svg>