<svg xmlns="http://www.w3.org/2000/svg" viewBox="0 0 48 48">
  <defs>
    <linearGradient id="g" x1="0%" y1="0%" x2="100%" y2="100%">
      <stop offset="0%" stop-color="#aea4c4"/>
      <stop offset="100%" stop-color="#130d1f"/>
    </linearGradient>
    <filter id="shadow" x="-30%" y="-30%" width="160%" height="160%">
      <feDropShadow dx="2.5" dy="3.5" stdDeviation="3" flood-color="#1a1a2e" flood-opacity="0.45"/>
    </filter>
  </defs>
  <g filter="url(#shadow)" fill="none">
    <g stroke="#09060f" stroke-width="4.5" stroke-linecap="round" stroke-linejoin="round" transform="translate(2,2)">
    <rect x="8" y="14" width="32" height="24" rx="3"/>
    <rect x="12" y="10" width="24" height="6" rx="2"/>
    <rect x="12" y="10" width="12" height="6" rx="1" fill="currentColor"/>
    <line x1="12" y1="22" x2="36" y2="22 M12 30 L36 30"/>
    </g>
    <g stroke="#130d1f" stroke-width="3" stroke-linecap="round" stroke-linejoin="round" transform="translate(1,1)">
    <rect x="8" y="14" width="32" height="24" rx="3"/>
    <rect x="12" y="10" width="24" height="6" rx="2"/>
    <rect x="12" y="10" width="12" height="6" rx="1" fill="currentColor"/>
    <line x1="12" y1="22" x2="36" y2="22 M12 30 L36 30"/>
    </g>
    <g stroke="url(#g)" stroke-width="1.5" stroke-linecap="round" stroke-linejoin="round">
    <rect x="8" y="14" width="32" height="24" rx="3"/>
    <rect x="12" y="10" width="24" height="6" rx="2"/>
    <rect x="12" y="10" width="12" height="6" rx="1" fill="currentColor"/>
    <line x1="12" y1="22" x2="36" y2="22 M12 30 L36 30"/>
    </g>
  </g>
</svg>