<svg xmlns="http://www.w3.org/2000/svg" viewBox="0 0 48 48">
  <defs>
    <linearGradient id="g" x1="0%" y1="0%" x2="100%" y2="100%">
      <stop offset="0%" stop-color="#c7c6a2"/>
      <stop offset="100%" stop-color="#21200c"/>
    </linearGradient>
    <filter id="shadow" x="-30%" y="-30%" width="160%" height="160%">
      <feDropShadow dx="2.5" dy="3.5" stdDeviation="3" flood-color="#1a1a2e" flood-opacity="0.45"/>
    </filter>
  </defs>
  <g filter="url(#shadow)" fill="none">
    <g stroke="#101006" stroke-width="4.5" stroke-linecap="round" stroke-linejoin="round" transform="translate(2,2)">
    <ellipse cx="24" cy="36" rx="14" ry="6"/>
    <rect x="18" y="12" width="12" height="24" rx="4"/>
    <ellipse cx="24" cy="12" rx="8" ry="4"/>
    <path d="M24 8 Q18 4 20 2 M24 8 Q30 4 28 2 Q24 8 24 2"/>
    </g>
    <g stroke="#21200c" stroke-width="3" stroke-linecap="round" stroke-linejoin="round" transform="translate(1,1)">
    <ellipse cx="24" cy="36" rx="14" ry="6"/>
    <rect x="18" y="12" width="12" height="24" rx="4"/>
    <ellipse cx="24" cy="12" rx="8" ry="4"/>
    <path d="M24 8 Q18 4 20 2 M24 8 Q30 4 28 2 Q24 8 24 2"/>
    </g>
    <g stroke="url(#g)" stroke-width="1.5" stroke-linecap="round" stroke-linejoin="round">
    <ellipse cx="24" cy="36" rx="14" ry="6"/>
    <rect x="18" y="12" width="12" height="24" rx="4"/>
    <ellipse cx="24" cy="12" rx="8" ry="4"/>
    <path d="M24 8 Q18 4 20 2 M24 8 Q30 4 28 2 Q24 8 24 2"/>
    </g>
  </g>
</svg>