<svg xmlns="http://www.w3.org/2000/svg" viewBox="0 0 48 48">
  <defs>
    <linearGradient id="g" x1="0%" y1="0%" x2="100%" y2="100%">
      <stop offset="0%" stop-color="#b7b9cf"/>
      <stop offset="100%" stop-color="#181925"/>
    </linearGradient>
    <filter id="shadow" x="-30%" y="-30%" width="160%" height="160%">
      <feDropShadow dx="2.5" dy="3.5" stdDeviation="3" flood-color="#1a1a2e" flood-opacity="0.45"/>
    </filter>
  </defs>
  <g filter="url(#shadow)" fill="none">
    <g stroke="#0c0c12" stroke-width="4.5" stroke-linecap="round" stroke-linejoin="round" transform="translate(2,2)">
    <ellipse cx="24" cy="26" rx="12" ry="10"/>
    <polygon points="12,18 18,8 24,18"/>
    <polygon points="36,18 30,8 24,18"/>
    <circle cx="20" cy="22" r="2"/>
    <circle cx="28" cy="22" r="2"/>
    <path d="M20 28 Q24 32 28 28"/>
    </g>
    <g stroke="#181925" stroke-width="3" stroke-linecap="round" stroke-linejoin="round" transform="translate(1,1)">
    <ellipse cx="24" cy="26" rx="12" ry="10"/>
    <polygon points="12,18 18,8 24,18"/>
    <polygon points="36,18 30,8 24,18"/>
    <circle cx="20" cy="22" r="2"/>
    <circle cx="28" cy="22" r="2"/>
    <path d="M20 28 Q24 32 28 28"/>
    </g>
    <g stroke="url(#g)" stroke-width="1.5" stroke-linecap="round" stroke-linejoin="round">
    <ellipse cx="24" cy="26" rx="12" ry="10"/>
    <polygon points="12,18 18,8 24,18"/>
    <polygon points="36,18 30,8 24,18"/>
    <circle cx="20" cy="22" r="2"/>
    <circle cx="28" cy="22" r="2"/>
    <path d="M20 28 Q24 32 28 28"/>
    </g>
  </g>
</svg>