<svg xmlns="http://www.w3.org/2000/svg" viewBox="0 0 48 48">
  <defs>
    <linearGradient id="g" x1="0%" y1="0%" x2="100%" y2="100%">
      <stop offset="0%" stop-color="#bfaecb"/>
      <stop offset="100%" stop-color="#1c1323"/>
    </linearGradient>
    <filter id="shadow" x="-30%" y="-30%" width="160%" height="160%">
      <feDropShadow dx="2.5" dy="3.5" stdDeviation="3" flood-color="#1a1a2e" flood-opacity="0.45"/>
    </filter>
  </defs>
  <g filter="url(#shadow)" fill="none">
    <g stroke="#0e0911" stroke-width="4.5" stroke-linecap="round" stroke-linejoin="round" transform="translate(2,2)">
    <path d="M6 24 L42 24 M24 6 L24 42"/>
    <line x1="12" y1="12" x2="36" y2="36 M36 12 L12 36"/>
    <line x1="6" y1="10" x2="10" y2="6 M42 10 L38 6 M6 38 L10 42 M42 38 L38 42"/>
    </g>
    <g stroke="#1c1323" stroke-width="3" stroke-linecap="round" stroke-linejoin="round" transform="translate(1,1)">
    <path d="M6 24 L42 24 M24 6 L24 42"/>
    <line x1="12" y1="12" x2="36" y2="36 M36 12 L12 36"/>
    <line x1="6" y1="10" x2="10" y2="6 M42 10 L38 6 M6 38 L10 42 M42 38 L38 42"/>
    </g>
    <g stroke="url(#g)" stroke-width="1.5" stroke-linecap="round" stroke-linejoin="round">
    <path d="M6 24 L42 24 M24 6 L24 42"/>
    <line x1="12" y1="12" x2="36" y2="36 M36 12 L12 36"/>
    <line x1="6" y1="10" x2="10" y2="6 M42 10 L38 6 M6 38 L10 42 M42 38 L38 42"/>
    </g>
  </g>
</svg>