<svg xmlns="http://www.w3.org/2000/svg" viewBox="0 0 48 48">
  <defs>
    <linearGradient id="g" x1="0%" y1="0%" x2="100%" y2="100%">
      <stop offset="0%" stop-color="#e3c5e1"/>
      <stop offset="100%" stop-color="#6a4568"/>
    </linearGradient>
    <filter id="sh" x="-30%" y="-30%" width="160%" height="160%">
      <feDropShadow dx="2.5" dy="3.5" stdDeviation="3" flood-color="#1a1a2e" flood-opacity="0.45"/>
    </filter>
  </defs>
  <g filter="url(#sh)" fill="none">
    <g stroke="#301f2f" stroke-width="4.5" stroke-linecap="round" stroke-linejoin="round" transform="translate(2,2)">
<path d="M10 8 L38 8 L30 22 L30 40 L18 40 L18 22 Z"/><line x1="10" y1="8" x2="38" y2="8"/><circle cx="24" cy="16" r="3"/><circle cx="24" cy="16" r="1.5"/>
    </g>
    <g stroke="#6a4568" stroke-width="3" stroke-linecap="round" stroke-linejoin="round" transform="translate(1,1)">
<path d="M10 8 L38 8 L30 22 L30 40 L18 40 L18 22 Z"/><line x1="10" y1="8" x2="38" y2="8"/><circle cx="24" cy="16" r="3"/><circle cx="24" cy="16" r="1.5"/>
    </g>
    <g stroke="url(#g)" stroke-width="1.5" stroke-linecap="round" stroke-linejoin="round">
<path d="M10 8 L38 8 L30 22 L30 40 L18 40 L18 22 Z"/><line x1="10" y1="8" x2="38" y2="8"/><circle cx="24" cy="16" r="3"/><circle cx="24" cy="16" r="1.5"/>
    </g>
  </g>
</svg>