<svg xmlns="http://www.w3.org/2000/svg" viewBox="0 0 48 48">
  <defs>
    <linearGradient id="g" x1="0%" y1="0%" x2="100%" y2="100%">
      <stop offset="0%" stop-color="#d2b8d6"/>
      <stop offset="100%" stop-color="#56365a"/>
    </linearGradient>
    <filter id="sh" x="-30%" y="-30%" width="160%" height="160%">
      <feDropShadow dx="2.5" dy="3.5" stdDeviation="3" flood-color="#1a1a2e" flood-opacity="0.45"/>
    </filter>
  </defs>
  <g filter="url(#sh)" fill="none">
    <g stroke="#271829" stroke-width="4.5" stroke-linecap="round" stroke-linejoin="round" transform="translate(2,2)">
<circle cx="24" cy="24" r="17"/>
        <path d="M24 24 Q16 8 8 16 Q4 24 12 30 Q20 34 24 24"/>
        <path d="M24 24 Q32 40 40 32 Q44 24 36 18 Q28 14 24 24"/>
    </g>
    <g stroke="#56365a" stroke-width="3" stroke-linecap="round" stroke-linejoin="round" transform="translate(1,1)">
<circle cx="24" cy="24" r="17"/>
        <path d="M24 24 Q16 8 8 16 Q4 24 12 30 Q20 34 24 24"/>
        <path d="M24 24 Q32 40 40 32 Q44 24 36 18 Q28 14 24 24"/>
    </g>
    <g stroke="url(#g)" stroke-width="1.5" stroke-linecap="round" stroke-linejoin="round">
<circle cx="24" cy="24" r="17"/>
        <path d="M24 24 Q16 8 8 16 Q4 24 12 30 Q20 34 24 24"/>
        <path d="M24 24 Q32 40 40 32 Q44 24 36 18 Q28 14 24 24"/>
    </g>
  </g>
</svg>