<svg xmlns="http://www.w3.org/2000/svg" viewBox="0 0 48 48">
  <defs>
    <linearGradient id="g" x1="0%" y1="0%" x2="100%" y2="100%">
      <stop offset="0%" stop-color="#bcdfc0"/>
      <stop offset="100%" stop-color="#1a2e1d"/>
    </linearGradient>
    <filter id="shadow" x="-30%" y="-30%" width="160%" height="160%">
      <feDropShadow dx="2.5" dy="3.5" stdDeviation="3" flood-color="#1a1a2e" flood-opacity="0.45"/>
    </filter>
  </defs>
  <g filter="url(#shadow)" fill="none">
    <g stroke="#0d170e" stroke-width="4.5" stroke-linecap="round" stroke-linejoin="round" transform="translate(2,2)">
    <rect x="4" y="14" width="40" height="20" rx="6"/>
    <circle cx="14" cy="24" r="5"/>
    <circle cx="34" cy="24" r="5"/>
    <rect x="20" y="20" width="8" height="8" rx="2"/>
    </g>
    <g stroke="#1a2e1d" stroke-width="3" stroke-linecap="round" stroke-linejoin="round" transform="translate(1,1)">
    <rect x="4" y="14" width="40" height="20" rx="6"/>
    <circle cx="14" cy="24" r="5"/>
    <circle cx="34" cy="24" r="5"/>
    <rect x="20" y="20" width="8" height="8" rx="2"/>
    </g>
    <g stroke="url(#g)" stroke-width="1.5" stroke-linecap="round" stroke-linejoin="round">
    <rect x="4" y="14" width="40" height="20" rx="6"/>
    <circle cx="14" cy="24" r="5"/>
    <circle cx="34" cy="24" r="5"/>
    <rect x="20" y="20" width="8" height="8" rx="2"/>
    </g>
  </g>
</svg>