<svg xmlns="http://www.w3.org/2000/svg" viewBox="0 0 48 48">
  <defs>
    <linearGradient id="g" x1="0%" y1="0%" x2="100%" y2="100%">
      <stop offset="0%" stop-color="#c8b3d5"/>
      <stop offset="100%" stop-color="#211628"/>
    </linearGradient>
    <filter id="shadow" x="-30%" y="-30%" width="160%" height="160%">
      <feDropShadow dx="2.5" dy="3.5" stdDeviation="3" flood-color="#1a1a2e" flood-opacity="0.45"/>
    </filter>
  </defs>
  <g filter="url(#shadow)" fill="none">
    <g stroke="#100b14" stroke-width="4.5" stroke-linecap="round" stroke-linejoin="round" transform="translate(2,2)">
    <line x1="24" y1="4" x2="24" y2="44"/>
    <circle cx="24" cy="4" r="3"/>
    <line x1="24" y1="14" x2="10" y2="24 M24 14 L38 24"/>
    <line x1="10" y1="24" x2="6" y2="44 M38 24 L42 44"/>
    </g>
    <g stroke="#211628" stroke-width="3" stroke-linecap="round" stroke-linejoin="round" transform="translate(1,1)">
    <line x1="24" y1="4" x2="24" y2="44"/>
    <circle cx="24" cy="4" r="3"/>
    <line x1="24" y1="14" x2="10" y2="24 M24 14 L38 24"/>
    <line x1="10" y1="24" x2="6" y2="44 M38 24 L42 44"/>
    </g>
    <g stroke="url(#g)" stroke-width="1.5" stroke-linecap="round" stroke-linejoin="round">
    <line x1="24" y1="4" x2="24" y2="44"/>
    <circle cx="24" cy="4" r="3"/>
    <line x1="24" y1="14" x2="10" y2="24 M24 14 L38 24"/>
    <line x1="10" y1="24" x2="6" y2="44 M38 24 L42 44"/>
    </g>
  </g>
</svg>