<svg xmlns="http://www.w3.org/2000/svg" viewBox="0 0 48 48">
  <defs>
    <linearGradient id="g" x1="0%" y1="0%" x2="100%" y2="100%">
      <stop offset="0%" stop-color="#a5b4bf"/>
      <stop offset="100%" stop-color="#0e161c"/>
    </linearGradient>
    <filter id="shadow" x="-30%" y="-30%" width="160%" height="160%">
      <feDropShadow dx="2.5" dy="3.5" stdDeviation="3" flood-color="#1a1a2e" flood-opacity="0.45"/>
    </filter>
  </defs>
  <g filter="url(#shadow)" fill="none">
    <g stroke="#070b0e" stroke-width="4.5" stroke-linecap="round" stroke-linejoin="round" transform="translate(2,2)">
    <rect x="14" y="16" width="20" height="28" rx="4"/>
    <circle cx="24" cy="10" r="7"/>
    <circle cx="19" cy="8" r="2"/>
    <circle cx="29" cy="8" r="2"/>
    <path d="M14 22 L8 18 M34 22 L40 18"/>
    <path d="M14 34 L6 30 M34 34 L42 30"/>
    </g>
    <g stroke="#0e161c" stroke-width="3" stroke-linecap="round" stroke-linejoin="round" transform="translate(1,1)">
    <rect x="14" y="16" width="20" height="28" rx="4"/>
    <circle cx="24" cy="10" r="7"/>
    <circle cx="19" cy="8" r="2"/>
    <circle cx="29" cy="8" r="2"/>
    <path d="M14 22 L8 18 M34 22 L40 18"/>
    <path d="M14 34 L6 30 M34 34 L42 30"/>
    </g>
    <g stroke="url(#g)" stroke-width="1.5" stroke-linecap="round" stroke-linejoin="round">
    <rect x="14" y="16" width="20" height="28" rx="4"/>
    <circle cx="24" cy="10" r="7"/>
    <circle cx="19" cy="8" r="2"/>
    <circle cx="29" cy="8" r="2"/>
    <path d="M14 22 L8 18 M34 22 L40 18"/>
    <path d="M14 34 L6 30 M34 34 L42 30"/>
    </g>
  </g>
</svg>