<svg xmlns="http://www.w3.org/2000/svg" viewBox="0 0 48 48">
  <defs>
    <linearGradient id="g" x1="0%" y1="0%" x2="100%" y2="100%">
      <stop offset="0%" stop-color="#a5bbbf"/>
      <stop offset="100%" stop-color="#0e1a1c"/>
    </linearGradient>
    <filter id="shadow" x="-30%" y="-30%" width="160%" height="160%">
      <feDropShadow dx="2.5" dy="3.5" stdDeviation="3" flood-color="#1a1a2e" flood-opacity="0.45"/>
    </filter>
  </defs>
  <g filter="url(#shadow)" fill="none">
    <g stroke="#070d0e" stroke-width="4.5" stroke-linecap="round" stroke-linejoin="round" transform="translate(2,2)">
    <circle cx="24" cy="20" r="8"/>
    <path d="M24 12 Q24 4 20 2 Q24 6 28 2 Q24 4 24 12"/>
    <line x1="24" y1="12" x2="24" y2="4"/>
    <path d="M16 24 L14 28 M32 24 L34 28 M24 26 L24 30"/>
    </g>
    <g stroke="#0e1a1c" stroke-width="3" stroke-linecap="round" stroke-linejoin="round" transform="translate(1,1)">
    <circle cx="24" cy="20" r="8"/>
    <path d="M24 12 Q24 4 20 2 Q24 6 28 2 Q24 4 24 12"/>
    <line x1="24" y1="12" x2="24" y2="4"/>
    <path d="M16 24 L14 28 M32 24 L34 28 M24 26 L24 30"/>
    </g>
    <g stroke="url(#g)" stroke-width="1.5" stroke-linecap="round" stroke-linejoin="round">
    <circle cx="24" cy="20" r="8"/>
    <path d="M24 12 Q24 4 20 2 Q24 6 28 2 Q24 4 24 12"/>
    <line x1="24" y1="12" x2="24" y2="4"/>
    <path d="M16 24 L14 28 M32 24 L34 28 M24 26 L24 30"/>
    </g>
  </g>
</svg>