<svg xmlns="http://www.w3.org/2000/svg" viewBox="0 0 48 48">
  <defs>
    <linearGradient id="g" x1="0%" y1="0%" x2="100%" y2="100%">
      <stop offset="0%" stop-color="#a7c9a4"/>
      <stop offset="100%" stop-color="#0f220d"/>
    </linearGradient>
    <filter id="shadow" x="-30%" y="-30%" width="160%" height="160%">
      <feDropShadow dx="2.5" dy="3.5" stdDeviation="3" flood-color="#1a1a2e" flood-opacity="0.45"/>
    </filter>
  </defs>
  <g filter="url(#shadow)" fill="none">
    <g stroke="#071106" stroke-width="4.5" stroke-linecap="round" stroke-linejoin="round" transform="translate(2,2)">
    <path d="M6 8 Q16 14 24 8 Q32 14 42 8" fill="none"/>
    <path d="M6 14 Q16 20 24 14 Q32 20 42 14" fill="none"/>
    <path d="M6 20 Q16 26 24 20 Q32 26 42 20" fill="none"/>
    <circle cx="10" cy="8" r="3" fill="none"/>
    <circle cx="24" cy="8" r="3" fill="none"/>
    <circle cx="38" cy="8" r="3" fill="none"/>
    </g>
    <g stroke="#0f220d" stroke-width="3" stroke-linecap="round" stroke-linejoin="round" transform="translate(1,1)">
    <path d="M6 8 Q16 14 24 8 Q32 14 42 8" fill="none"/>
    <path d="M6 14 Q16 20 24 14 Q32 20 42 14" fill="none"/>
    <path d="M6 20 Q16 26 24 20 Q32 26 42 20" fill="none"/>
    <circle cx="10" cy="8" r="3" fill="none"/>
    <circle cx="24" cy="8" r="3" fill="none"/>
    <circle cx="38" cy="8" r="3" fill="none"/>
    </g>
    <g stroke="url(#g)" stroke-width="1.5" stroke-linecap="round" stroke-linejoin="round">
    <path d="M6 8 Q16 14 24 8 Q32 14 42 8" fill="none"/>
    <path d="M6 14 Q16 20 24 14 Q32 20 42 14" fill="none"/>
    <path d="M6 20 Q16 26 24 20 Q32 26 42 20" fill="none"/>
    <circle cx="10" cy="8" r="3" fill="none"/>
    <circle cx="24" cy="8" r="3" fill="none"/>
    <circle cx="38" cy="8" r="3" fill="none"/>
    </g>
  </g>
</svg>