<svg xmlns="http://www.w3.org/2000/svg" viewBox="0 0 48 48">
  <defs>
    <linearGradient id="g" x1="0%" y1="0%" x2="100%" y2="100%">
      <stop offset="0%" stop-color="#d6a9e0"/>
      <stop offset="100%" stop-color="#5a2367"/>
    </linearGradient>
    <filter id="sh" x="-30%" y="-30%" width="160%" height="160%">
      <feDropShadow dx="2.5" dy="3.5" stdDeviation="3" flood-color="#1a1a2e" flood-opacity="0.45"/>
    </filter>
  </defs>
  <g filter="url(#sh)" fill="none">
    <g stroke="#29102f" stroke-width="4.5" stroke-linecap="round" stroke-linejoin="round" transform="translate(2,2)">
<rect x="6" y="14" width="36" height="20" rx="4"/>
        <rect x="10" y="8" width="28" height="6" rx="3"/>
        <rect x="16" y="34" width="16" height="6" rx="2"/>
        <line x1="14" y1="18" x2="34" y2="18"/>
        <line x1="14" y1="26" x2="28" y2="26"/>
    </g>
    <g stroke="#5a2367" stroke-width="3" stroke-linecap="round" stroke-linejoin="round" transform="translate(1,1)">
<rect x="6" y="14" width="36" height="20" rx="4"/>
        <rect x="10" y="8" width="28" height="6" rx="3"/>
        <rect x="16" y="34" width="16" height="6" rx="2"/>
        <line x1="14" y1="18" x2="34" y2="18"/>
        <line x1="14" y1="26" x2="28" y2="26"/>
    </g>
    <g stroke="url(#g)" stroke-width="1.5" stroke-linecap="round" stroke-linejoin="round">
<rect x="6" y="14" width="36" height="20" rx="4"/>
        <rect x="10" y="8" width="28" height="6" rx="3"/>
        <rect x="16" y="34" width="16" height="6" rx="2"/>
        <line x1="14" y1="18" x2="34" y2="18"/>
        <line x1="14" y1="26" x2="28" y2="26"/>
    </g>
  </g>
</svg>