<svg xmlns="http://www.w3.org/2000/svg" viewBox="0 0 48 48">
  <defs>
    <linearGradient id="g" x1="0%" y1="0%" x2="100%" y2="100%">
      <stop offset="0%" stop-color="#a9c6be"/>
      <stop offset="100%" stop-color="#10201c"/>
    </linearGradient>
    <filter id="shadow" x="-30%" y="-30%" width="160%" height="160%">
      <feDropShadow dx="2.5" dy="3.5" stdDeviation="3" flood-color="#1a1a2e" flood-opacity="0.45"/>
    </filter>
  </defs>
  <g filter="url(#shadow)" fill="none">
    <g stroke="#08100e" stroke-width="4.5" stroke-linecap="round" stroke-linejoin="round" transform="translate(2,2)">
    <rect x="4" y="10" width="40" height="34" rx="2"/>
    <rect x="10" y="10" width="12" height="20" rx="2"/>
    <rect x="26" y="10" width="12" height="20" rx="2"/>
    <polygon points="24,4 2,12 46,12"/>
    <circle cx="16" cy="20" r="2"/>
    <circle cx="32" cy="20" r="2"/>
    </g>
    <g stroke="#10201c" stroke-width="3" stroke-linecap="round" stroke-linejoin="round" transform="translate(1,1)">
    <rect x="4" y="10" width="40" height="34" rx="2"/>
    <rect x="10" y="10" width="12" height="20" rx="2"/>
    <rect x="26" y="10" width="12" height="20" rx="2"/>
    <polygon points="24,4 2,12 46,12"/>
    <circle cx="16" cy="20" r="2"/>
    <circle cx="32" cy="20" r="2"/>
    </g>
    <g stroke="url(#g)" stroke-width="1.5" stroke-linecap="round" stroke-linejoin="round">
    <rect x="4" y="10" width="40" height="34" rx="2"/>
    <rect x="10" y="10" width="12" height="20" rx="2"/>
    <rect x="26" y="10" width="12" height="20" rx="2"/>
    <polygon points="24,4 2,12 46,12"/>
    <circle cx="16" cy="20" r="2"/>
    <circle cx="32" cy="20" r="2"/>
    </g>
  </g>
</svg>