<svg xmlns="http://www.w3.org/2000/svg" viewBox="0 0 48 48">
  <defs>
    <linearGradient id="iconGrad" x1="0%" y1="0%" x2="100%" y2="100%">
      <stop offset="0%" stop-color="#81D4FA"/>
      <stop offset="100%" stop-color="#2b6b87"/>
    </linearGradient>
    <filter id="shadow" x="-30%" y="-30%" width="160%" height="160%">
      <feDropShadow dx="2.5" dy="3.5" stdDeviation="3" flood-color="#1a1a2e" flood-opacity="0.45"/>
    </filter>
  </defs>
  <g filter="url(#shadow)" fill="none">
    <g stroke="#153543" stroke-width="4.5" stroke-linecap="round" stroke-linejoin="round" transform="translate(2,2)">
      <polygon points="24,8 29,14 38,16 35,24 38,32 29,34 24,40 19,34 10,32 13,24 10,16 19,14"/>
    <circle cx="24" cy="24" r="4"/>
    </g>
    <g stroke="#2b6b87" stroke-width="3" stroke-linecap="round" stroke-linejoin="round" transform="translate(1,1)">
      <polygon points="24,8 29,14 38,16 35,24 38,32 29,34 24,40 19,34 10,32 13,24 10,16 19,14"/>
    <circle cx="24" cy="24" r="4"/>
    </g>
    <g stroke="url(#iconGrad)" stroke-width="1.5" stroke-linecap="round" stroke-linejoin="round">
      <polygon points="24,8 29,14 38,16 35,24 38,32 29,34 24,40 19,34 10,32 13,24 10,16 19,14"/>
    <circle cx="24" cy="24" r="4"/>
    </g>
  </g>
</svg>
