<svg xmlns="http://www.w3.org/2000/svg" viewBox="0 0 48 48">
  <defs>
    <linearGradient id="g" x1="0%" y1="0%" x2="100%" y2="100%">
      <stop offset="0%" stop-color="#b8aec7"/>
      <stop offset="100%" stop-color="#362948"/>
    </linearGradient>
    <filter id="sh" x="-30%" y="-30%" width="160%" height="160%">
      <feDropShadow dx="2.5" dy="3.5" stdDeviation="3" flood-color="#1a1a2e" flood-opacity="0.45"/>
    </filter>
  </defs>
  <g filter="url(#sh)" fill="none">
    <g stroke="#181221" stroke-width="4.5" stroke-linecap="round" stroke-linejoin="round" transform="translate(2,2)">
<ellipse cx="24" cy="24" rx="10" ry="6"/><circle cx="14" cy="22" r="2.5"/><circle cx="34" cy="22" r="2.5"/><path d="M10 20 L4 16"/><path d="M38 20 L44 16"/><path d="M18 28 L14 36"/><path d="M30 28 L34 36"/><path d="M14 36 L10 38"/><path d="M34 36 L38 38"/>
    </g>
    <g stroke="#362948" stroke-width="3" stroke-linecap="round" stroke-linejoin="round" transform="translate(1,1)">
<ellipse cx="24" cy="24" rx="10" ry="6"/><circle cx="14" cy="22" r="2.5"/><circle cx="34" cy="22" r="2.5"/><path d="M10 20 L4 16"/><path d="M38 20 L44 16"/><path d="M18 28 L14 36"/><path d="M30 28 L34 36"/><path d="M14 36 L10 38"/><path d="M34 36 L38 38"/>
    </g>
    <g stroke="url(#g)" stroke-width="1.5" stroke-linecap="round" stroke-linejoin="round">
<ellipse cx="24" cy="24" rx="10" ry="6"/><circle cx="14" cy="22" r="2.5"/><circle cx="34" cy="22" r="2.5"/><path d="M10 20 L4 16"/><path d="M38 20 L44 16"/><path d="M18 28 L14 36"/><path d="M30 28 L34 36"/><path d="M14 36 L10 38"/><path d="M34 36 L38 38"/>
    </g>
  </g>
</svg>