<svg xmlns="http://www.w3.org/2000/svg" viewBox="0 0 48 48">
  <defs>
    <linearGradient id="g" x1="0%" y1="0%" x2="100%" y2="100%">
      <stop offset="0%" stop-color="#d4c9b2"/>
      <stop offset="100%" stop-color="#282215"/>
    </linearGradient>
    <filter id="shadow" x="-30%" y="-30%" width="160%" height="160%">
      <feDropShadow dx="2.5" dy="3.5" stdDeviation="3" flood-color="#1a1a2e" flood-opacity="0.45"/>
    </filter>
  </defs>
  <g filter="url(#shadow)" fill="none">
    <g stroke="#14110a" stroke-width="4.5" stroke-linecap="round" stroke-linejoin="round" transform="translate(2,2)">
    <ellipse cx="24" cy="24" rx="8" ry="4"/>
    <circle cx="24" cy="16" r="4"/>
    <circle cx="22" cy="14" r="1.5"/>
    <path d="M16 24 L10 20 L8 24 M16 24 L10 28 L8 24"/>
    <path d="M32 24 L38 20 L40 24 M32 24 L38 28 L40 24"/>
    <line x1="24" y1="24" x2="24" y2="44"/>
    </g>
    <g stroke="#282215" stroke-width="3" stroke-linecap="round" stroke-linejoin="round" transform="translate(1,1)">
    <ellipse cx="24" cy="24" rx="8" ry="4"/>
    <circle cx="24" cy="16" r="4"/>
    <circle cx="22" cy="14" r="1.5"/>
    <path d="M16 24 L10 20 L8 24 M16 24 L10 28 L8 24"/>
    <path d="M32 24 L38 20 L40 24 M32 24 L38 28 L40 24"/>
    <line x1="24" y1="24" x2="24" y2="44"/>
    </g>
    <g stroke="url(#g)" stroke-width="1.5" stroke-linecap="round" stroke-linejoin="round">
    <ellipse cx="24" cy="24" rx="8" ry="4"/>
    <circle cx="24" cy="16" r="4"/>
    <circle cx="22" cy="14" r="1.5"/>
    <path d="M16 24 L10 20 L8 24 M16 24 L10 28 L8 24"/>
    <path d="M32 24 L38 20 L40 24 M32 24 L38 28 L40 24"/>
    <line x1="24" y1="24" x2="24" y2="44"/>
    </g>
  </g>
</svg>