<svg xmlns="http://www.w3.org/2000/svg" viewBox="0 0 48 48">
  <defs>
    <linearGradient id="g" x1="0%" y1="0%" x2="100%" y2="100%">
      <stop offset="0%" stop-color="#c9c8b7"/>
      <stop offset="100%" stop-color="#4b4934"/>
    </linearGradient>
    <filter id="sh" x="-30%" y="-30%" width="160%" height="160%">
      <feDropShadow dx="2.5" dy="3.5" stdDeviation="3" flood-color="#1a1a2e" flood-opacity="0.45"/>
    </filter>
  </defs>
  <g filter="url(#sh)" fill="none">
    <g stroke="#222117" stroke-width="4.5" stroke-linecap="round" stroke-linejoin="round" transform="translate(2,2)">
<ellipse cx="24" cy="22" rx="8" ry="5"/><circle cx="14" cy="20" r="3"/><circle cx="34" cy="20" r="3"/><circle cx="14" cy="20" r="1.5"/><circle cx="34" cy="20" r="1.5"/><line x1="10" y1="18" x2="4" y2="14"/><line x1="38" y1="18" x2="44" y2="14"/><path d="M18 26 L14 34"/><path d="M30 26 L34 34"/><path d="M14 34 L10 36"/><path d="M34 34 L38 36"/>
    </g>
    <g stroke="#4b4934" stroke-width="3" stroke-linecap="round" stroke-linejoin="round" transform="translate(1,1)">
<ellipse cx="24" cy="22" rx="8" ry="5"/><circle cx="14" cy="20" r="3"/><circle cx="34" cy="20" r="3"/><circle cx="14" cy="20" r="1.5"/><circle cx="34" cy="20" r="1.5"/><line x1="10" y1="18" x2="4" y2="14"/><line x1="38" y1="18" x2="44" y2="14"/><path d="M18 26 L14 34"/><path d="M30 26 L34 34"/><path d="M14 34 L10 36"/><path d="M34 34 L38 36"/>
    </g>
    <g stroke="url(#g)" stroke-width="1.5" stroke-linecap="round" stroke-linejoin="round">
<ellipse cx="24" cy="22" rx="8" ry="5"/><circle cx="14" cy="20" r="3"/><circle cx="34" cy="20" r="3"/><circle cx="14" cy="20" r="1.5"/><circle cx="34" cy="20" r="1.5"/><line x1="10" y1="18" x2="4" y2="14"/><line x1="38" y1="18" x2="44" y2="14"/><path d="M18 26 L14 34"/><path d="M30 26 L34 34"/><path d="M14 34 L10 36"/><path d="M34 34 L38 36"/>
    </g>
  </g>
</svg>