<svg xmlns="http://www.w3.org/2000/svg" viewBox="0 0 48 48">
  <defs>
    <linearGradient id="g" x1="0%" y1="0%" x2="100%" y2="100%">
      <stop offset="0%" stop-color="#e6c5e0"/>
      <stop offset="100%" stop-color="#32202e"/>
    </linearGradient>
    <filter id="shadow" x="-30%" y="-30%" width="160%" height="160%">
      <feDropShadow dx="2.5" dy="3.5" stdDeviation="3" flood-color="#1a1a2e" flood-opacity="0.45"/>
    </filter>
  </defs>
  <g filter="url(#shadow)" fill="none">
    <g stroke="#191017" stroke-width="4.5" stroke-linecap="round" stroke-linejoin="round" transform="translate(2,2)">
    <path d="M24 6 Q10 14 10 28 Q10 36 24 44 Q38 36 38 28 Q38 14 24 6 Z"/>
    <line x1="24" y1="14" x2="24" y2="24 M18 18 L30 18 M18 28 L30 28"/>
    <circle cx="24" cy="20" r="2" fill="currentColor"/>
    </g>
    <g stroke="#32202e" stroke-width="3" stroke-linecap="round" stroke-linejoin="round" transform="translate(1,1)">
    <path d="M24 6 Q10 14 10 28 Q10 36 24 44 Q38 36 38 28 Q38 14 24 6 Z"/>
    <line x1="24" y1="14" x2="24" y2="24 M18 18 L30 18 M18 28 L30 28"/>
    <circle cx="24" cy="20" r="2" fill="currentColor"/>
    </g>
    <g stroke="url(#g)" stroke-width="1.5" stroke-linecap="round" stroke-linejoin="round">
    <path d="M24 6 Q10 14 10 28 Q10 36 24 44 Q38 36 38 28 Q38 14 24 6 Z"/>
    <line x1="24" y1="14" x2="24" y2="24 M18 18 L30 18 M18 28 L30 28"/>
    <circle cx="24" cy="20" r="2" fill="currentColor"/>
    </g>
  </g>
</svg>