<svg xmlns="http://www.w3.org/2000/svg" viewBox="0 0 48 48">
  <defs>
    <linearGradient id="g" x1="0%" y1="0%" x2="100%" y2="100%">
      <stop offset="0%" stop-color="#b7d8d3"/>
      <stop offset="100%" stop-color="#355d57"/>
    </linearGradient>
    <filter id="sh" x="-30%" y="-30%" width="160%" height="160%">
      <feDropShadow dx="2.5" dy="3.5" stdDeviation="3" flood-color="#1a1a2e" flood-opacity="0.45"/>
    </filter>
  </defs>
  <g filter="url(#sh)" fill="none">
    <g stroke="#182a27" stroke-width="4.5" stroke-linecap="round" stroke-linejoin="round" transform="translate(2,2)">
<path d="M14 8 Q14 4 24 4 Q34 4 34 8 L38 32 Q38 40 24 40 Q10 40 10 32 Z"/>
        <circle cx="20" cy="20" r="3"/><circle cx="28" cy="20" r="3"/>
        <path d="M18 30 Q24 34 30 30"/>
    </g>
    <g stroke="#355d57" stroke-width="3" stroke-linecap="round" stroke-linejoin="round" transform="translate(1,1)">
<path d="M14 8 Q14 4 24 4 Q34 4 34 8 L38 32 Q38 40 24 40 Q10 40 10 32 Z"/>
        <circle cx="20" cy="20" r="3"/><circle cx="28" cy="20" r="3"/>
        <path d="M18 30 Q24 34 30 30"/>
    </g>
    <g stroke="url(#g)" stroke-width="1.5" stroke-linecap="round" stroke-linejoin="round">
<path d="M14 8 Q14 4 24 4 Q34 4 34 8 L38 32 Q38 40 24 40 Q10 40 10 32 Z"/>
        <circle cx="20" cy="20" r="3"/><circle cx="28" cy="20" r="3"/>
        <path d="M18 30 Q24 34 30 30"/>
    </g>
  </g>
</svg>