<svg xmlns="http://www.w3.org/2000/svg" viewBox="0 0 48 48">
  <defs>
    <linearGradient id="g" x1="0%" y1="0%" x2="100%" y2="100%">
      <stop offset="0%" stop-color="#c3b0a3"/>
      <stop offset="100%" stop-color="#1e140d"/>
    </linearGradient>
    <filter id="shadow" x="-30%" y="-30%" width="160%" height="160%">
      <feDropShadow dx="2.5" dy="3.5" stdDeviation="3" flood-color="#1a1a2e" flood-opacity="0.45"/>
    </filter>
  </defs>
  <g filter="url(#shadow)" fill="none">
    <g stroke="#0f0a06" stroke-width="4.5" stroke-linecap="round" stroke-linejoin="round" transform="translate(2,2)">
    <circle cx="24" cy="10" r="7"/>
    <circle cx="20" cy="8" r="2"/>
    <circle cx="28" cy="8" r="2"/>
    <path d="M20 14 Q24 18 28 14"/>
    <line x1="24" y1="17" x2="24" y2="44"/>
    <line x1="10" y1="30" x2="4" y2="44 M38 30 L44 44"/>
    <line x1="18" y1="22" x2="10" y2="30 M30 22 L38 30"/>
    </g>
    <g stroke="#1e140d" stroke-width="3" stroke-linecap="round" stroke-linejoin="round" transform="translate(1,1)">
    <circle cx="24" cy="10" r="7"/>
    <circle cx="20" cy="8" r="2"/>
    <circle cx="28" cy="8" r="2"/>
    <path d="M20 14 Q24 18 28 14"/>
    <line x1="24" y1="17" x2="24" y2="44"/>
    <line x1="10" y1="30" x2="4" y2="44 M38 30 L44 44"/>
    <line x1="18" y1="22" x2="10" y2="30 M30 22 L38 30"/>
    </g>
    <g stroke="url(#g)" stroke-width="1.5" stroke-linecap="round" stroke-linejoin="round">
    <circle cx="24" cy="10" r="7"/>
    <circle cx="20" cy="8" r="2"/>
    <circle cx="28" cy="8" r="2"/>
    <path d="M20 14 Q24 18 28 14"/>
    <line x1="24" y1="17" x2="24" y2="44"/>
    <line x1="10" y1="30" x2="4" y2="44 M38 30 L44 44"/>
    <line x1="18" y1="22" x2="10" y2="30 M30 22 L38 30"/>
    </g>
  </g>
</svg>