<svg xmlns="http://www.w3.org/2000/svg" viewBox="0 0 48 48">
  <defs>
    <linearGradient id="g" x1="0%" y1="0%" x2="100%" y2="100%">
      <stop offset="0%" stop-color="#dfa7a5"/>
      <stop offset="100%" stop-color="#66211f"/>
    </linearGradient>
    <filter id="sh" x="-30%" y="-30%" width="160%" height="160%">
      <feDropShadow dx="2.5" dy="3.5" stdDeviation="3" flood-color="#1a1a2e" flood-opacity="0.45"/>
    </filter>
  </defs>
  <g filter="url(#sh)" fill="none">
    <g stroke="#2e0f0e" stroke-width="4.5" stroke-linecap="round" stroke-linejoin="round" transform="translate(2,2)">
<rect x="10" y="16" width="28" height="22" rx="4"/>
        <rect x="16" y="8" width="16" height="8" rx="2"/>
        <line x1="16" y1="4" x2="16" y2="8"/>
        <line x1="32" y1="4" x2="32" y2="8"/>
        <rect x="14" y="22" width="8" height="6" rx="1"/>
        <rect x="26" y="22" width="8" height="6" rx="1"/>
        <rect x="20" y="30" width="8" height="4" rx="1"/>
        <line x1="10" y1="38" x2="6" y2="42"/>
        <line x1="38" y1="38" x2="42" y2="42"/>
    </g>
    <g stroke="#66211f" stroke-width="3" stroke-linecap="round" stroke-linejoin="round" transform="translate(1,1)">
<rect x="10" y="16" width="28" height="22" rx="4"/>
        <rect x="16" y="8" width="16" height="8" rx="2"/>
        <line x1="16" y1="4" x2="16" y2="8"/>
        <line x1="32" y1="4" x2="32" y2="8"/>
        <rect x="14" y="22" width="8" height="6" rx="1"/>
        <rect x="26" y="22" width="8" height="6" rx="1"/>
        <rect x="20" y="30" width="8" height="4" rx="1"/>
        <line x1="10" y1="38" x2="6" y2="42"/>
        <line x1="38" y1="38" x2="42" y2="42"/>
    </g>
    <g stroke="url(#g)" stroke-width="1.5" stroke-linecap="round" stroke-linejoin="round">
<rect x="10" y="16" width="28" height="22" rx="4"/>
        <rect x="16" y="8" width="16" height="8" rx="2"/>
        <line x1="16" y1="4" x2="16" y2="8"/>
        <line x1="32" y1="4" x2="32" y2="8"/>
        <rect x="14" y="22" width="8" height="6" rx="1"/>
        <rect x="26" y="22" width="8" height="6" rx="1"/>
        <rect x="20" y="30" width="8" height="4" rx="1"/>
        <line x1="10" y1="38" x2="6" y2="42"/>
        <line x1="38" y1="38" x2="42" y2="42"/>
    </g>
  </g>
</svg>