<svg xmlns="http://www.w3.org/2000/svg" viewBox="0 0 48 48">
  <defs>
    <linearGradient id="g" x1="0%" y1="0%" x2="100%" y2="100%">
      <stop offset="0%" stop-color="#c1dbdd"/>
      <stop offset="100%" stop-color="#1d2c2d"/>
    </linearGradient>
    <filter id="shadow" x="-30%" y="-30%" width="160%" height="160%">
      <feDropShadow dx="2.5" dy="3.5" stdDeviation="3" flood-color="#1a1a2e" flood-opacity="0.45"/>
    </filter>
  </defs>
  <g filter="url(#shadow)" fill="none">
    <g stroke="#0e1616" stroke-width="4.5" stroke-linecap="round" stroke-linejoin="round" transform="translate(2,2)">
    <rect x="6" y="20" width="36" height="22" rx="3"/>
    <path d="M6 20 L24 12 L42 20"/>
    <line x1="24" y1="12" x2="24" y2="42"/>
    <line x1="6" y1="26" x2="42" y2="26"/>
    <circle cx="24" cy="16" r="3" fill="currentColor"/>
    </g>
    <g stroke="#1d2c2d" stroke-width="3" stroke-linecap="round" stroke-linejoin="round" transform="translate(1,1)">
    <rect x="6" y="20" width="36" height="22" rx="3"/>
    <path d="M6 20 L24 12 L42 20"/>
    <line x1="24" y1="12" x2="24" y2="42"/>
    <line x1="6" y1="26" x2="42" y2="26"/>
    <circle cx="24" cy="16" r="3" fill="currentColor"/>
    </g>
    <g stroke="url(#g)" stroke-width="1.5" stroke-linecap="round" stroke-linejoin="round">
    <rect x="6" y="20" width="36" height="22" rx="3"/>
    <path d="M6 20 L24 12 L42 20"/>
    <line x1="24" y1="12" x2="24" y2="42"/>
    <line x1="6" y1="26" x2="42" y2="26"/>
    <circle cx="24" cy="16" r="3" fill="currentColor"/>
    </g>
  </g>
</svg>