<svg xmlns="http://www.w3.org/2000/svg" viewBox="0 0 48 48">
  <defs>
    <linearGradient id="g" x1="0%" y1="0%" x2="100%" y2="100%">
      <stop offset="0%" stop-color="#a9d6d0"/>
      <stop offset="100%" stop-color="#102925"/>
    </linearGradient>
    <filter id="shadow" x="-30%" y="-30%" width="160%" height="160%">
      <feDropShadow dx="2.5" dy="3.5" stdDeviation="3" flood-color="#1a1a2e" flood-opacity="0.45"/>
    </filter>
  </defs>
  <g filter="url(#shadow)" fill="none">
    <g stroke="#081412" stroke-width="4.5" stroke-linecap="round" stroke-linejoin="round" transform="translate(2,2)">
    <circle cx="24" cy="12" r="5"/>
    <line x1="24" y1="17" x2="24" y2="32"/>
    <line x1="24" y1="22" x2="16" y2="28 M24 22 L32 28"/>
    <line x1="24" y1="32" x2="18" y2="44 M24 32 L30 44"/>
    <path d="M24 7 L24 4 M22 6 L26 6"/>
    </g>
    <g stroke="#102925" stroke-width="3" stroke-linecap="round" stroke-linejoin="round" transform="translate(1,1)">
    <circle cx="24" cy="12" r="5"/>
    <line x1="24" y1="17" x2="24" y2="32"/>
    <line x1="24" y1="22" x2="16" y2="28 M24 22 L32 28"/>
    <line x1="24" y1="32" x2="18" y2="44 M24 32 L30 44"/>
    <path d="M24 7 L24 4 M22 6 L26 6"/>
    </g>
    <g stroke="url(#g)" stroke-width="1.5" stroke-linecap="round" stroke-linejoin="round">
    <circle cx="24" cy="12" r="5"/>
    <line x1="24" y1="17" x2="24" y2="32"/>
    <line x1="24" y1="22" x2="16" y2="28 M24 22 L32 28"/>
    <line x1="24" y1="32" x2="18" y2="44 M24 32 L30 44"/>
    <path d="M24 7 L24 4 M22 6 L26 6"/>
    </g>
  </g>
</svg>