<svg xmlns="http://www.w3.org/2000/svg" viewBox="0 0 48 48">
  <defs>
    <linearGradient id="iconGrad" x1="0%" y1="0%" x2="100%" y2="100%">
      <stop offset="0%" stop-color="#FFCDD2"/>
      <stop offset="100%" stop-color="#835454"/>
    </linearGradient>
    <filter id="shadow" x="-30%" y="-30%" width="160%" height="160%">
      <feDropShadow dx="2.5" dy="3.5" stdDeviation="3" flood-color="#1a1a2e" flood-opacity="0.45"/>
    </filter>
  </defs>
  <g filter="url(#shadow)" fill="none">
    <g stroke="#412a2a" stroke-width="4.5" stroke-linecap="round" stroke-linejoin="round" transform="translate(2,2)">
      <circle cx="16" cy="24" r="4"/>
    <circle cx="34" cy="16" r="4"/>
    <circle cx="34" cy="32" r="4"/>
    <line x1="20" y1="24" x2="30" y2="16"/>
    <line x1="20" y1="24" x2="30" y2="32"/>
    </g>
    <g stroke="#835454" stroke-width="3" stroke-linecap="round" stroke-linejoin="round" transform="translate(1,1)">
      <circle cx="16" cy="24" r="4"/>
    <circle cx="34" cy="16" r="4"/>
    <circle cx="34" cy="32" r="4"/>
    <line x1="20" y1="24" x2="30" y2="16"/>
    <line x1="20" y1="24" x2="30" y2="32"/>
    </g>
    <g stroke="url(#iconGrad)" stroke-width="1.5" stroke-linecap="round" stroke-linejoin="round">
      <circle cx="16" cy="24" r="4"/>
    <circle cx="34" cy="16" r="4"/>
    <circle cx="34" cy="32" r="4"/>
    <line x1="20" y1="24" x2="30" y2="16"/>
    <line x1="20" y1="24" x2="30" y2="32"/>
    </g>
  </g>
</svg>
