<svg xmlns="http://www.w3.org/2000/svg" viewBox="0 0 48 48">
  <defs>
    <linearGradient id="g" x1="0%" y1="0%" x2="100%" y2="100%">
      <stop offset="0%" stop-color="#bcc0e6"/>
      <stop offset="100%" stop-color="#1b1d32"/>
    </linearGradient>
    <filter id="shadow" x="-30%" y="-30%" width="160%" height="160%">
      <feDropShadow dx="2.5" dy="3.5" stdDeviation="3" flood-color="#1a1a2e" flood-opacity="0.45"/>
    </filter>
  </defs>
  <g filter="url(#shadow)" fill="none">
    <g stroke="#0d0e19" stroke-width="4.5" stroke-linecap="round" stroke-linejoin="round" transform="translate(2,2)">
    <path d="M12 6 L16 44 L32 44 L36 6 Z"/>
    <ellipse cx="24" cy="6" rx="12" ry="4"/>
    <line x1="14" y1="18" x2="34" y2="18 M14 30 L34 30"/>
    </g>
    <g stroke="#1b1d32" stroke-width="3" stroke-linecap="round" stroke-linejoin="round" transform="translate(1,1)">
    <path d="M12 6 L16 44 L32 44 L36 6 Z"/>
    <ellipse cx="24" cy="6" rx="12" ry="4"/>
    <line x1="14" y1="18" x2="34" y2="18 M14 30 L34 30"/>
    </g>
    <g stroke="url(#g)" stroke-width="1.5" stroke-linecap="round" stroke-linejoin="round">
    <path d="M12 6 L16 44 L32 44 L36 6 Z"/>
    <ellipse cx="24" cy="6" rx="12" ry="4"/>
    <line x1="14" y1="18" x2="34" y2="18 M14 30 L34 30"/>
    </g>
  </g>
</svg>