<svg xmlns="http://www.w3.org/2000/svg" viewBox="0 0 48 48">
  <defs>
    <linearGradient id="g" x1="0%" y1="0%" x2="100%" y2="100%">
      <stop offset="0%" stop-color="#d5bbbe"/>
      <stop offset="100%" stop-color="#281a1b"/>
    </linearGradient>
    <filter id="shadow" x="-30%" y="-30%" width="160%" height="160%">
      <feDropShadow dx="2.5" dy="3.5" stdDeviation="3" flood-color="#1a1a2e" flood-opacity="0.45"/>
    </filter>
  </defs>
  <g filter="url(#shadow)" fill="none">
    <g stroke="#140d0d" stroke-width="4.5" stroke-linecap="round" stroke-linejoin="round" transform="translate(2,2)">
    <path d="M4 24 Q14 10 44 24 Q14 26 4 24 Z"/>
    <line x1="24" y1="18" x2="24" y2="44"/>
    <line x1="24" y1="18" x2="8" y2="24 M24 18 L40 24"/>
    </g>
    <g stroke="#281a1b" stroke-width="3" stroke-linecap="round" stroke-linejoin="round" transform="translate(1,1)">
    <path d="M4 24 Q14 10 44 24 Q14 26 4 24 Z"/>
    <line x1="24" y1="18" x2="24" y2="44"/>
    <line x1="24" y1="18" x2="8" y2="24 M24 18 L40 24"/>
    </g>
    <g stroke="url(#g)" stroke-width="1.5" stroke-linecap="round" stroke-linejoin="round">
    <path d="M4 24 Q14 10 44 24 Q14 26 4 24 Z"/>
    <line x1="24" y1="18" x2="24" y2="44"/>
    <line x1="24" y1="18" x2="8" y2="24 M24 18 L40 24"/>
    </g>
  </g>
</svg>