<svg xmlns="http://www.w3.org/2000/svg" viewBox="0 0 48 48">
  <defs>
    <linearGradient id="g" x1="0%" y1="0%" x2="100%" y2="100%">
      <stop offset="0%" stop-color="#b4cdcd"/>
      <stop offset="100%" stop-color="#314f4f"/>
    </linearGradient>
    <filter id="sh" x="-30%" y="-30%" width="160%" height="160%">
      <feDropShadow dx="2.5" dy="3.5" stdDeviation="3" flood-color="#1a1a2e" flood-opacity="0.45"/>
    </filter>
  </defs>
  <g filter="url(#sh)" fill="none">
    <g stroke="#162424" stroke-width="4.5" stroke-linecap="round" stroke-linejoin="round" transform="translate(2,2)">
<path d="M8 18 L16 6 L32 6 L40 18 Z"/>
        <rect x="12" y="18" width="24" height="26" rx="3"/>
        <line x1="12" y1="18" x2="12" y2="28"/>
        <line x1="36" y1="18" x2="36" y2="28"/>
    </g>
    <g stroke="#314f4f" stroke-width="3" stroke-linecap="round" stroke-linejoin="round" transform="translate(1,1)">
<path d="M8 18 L16 6 L32 6 L40 18 Z"/>
        <rect x="12" y="18" width="24" height="26" rx="3"/>
        <line x1="12" y1="18" x2="12" y2="28"/>
        <line x1="36" y1="18" x2="36" y2="28"/>
    </g>
    <g stroke="url(#g)" stroke-width="1.5" stroke-linecap="round" stroke-linejoin="round">
<path d="M8 18 L16 6 L32 6 L40 18 Z"/>
        <rect x="12" y="18" width="24" height="26" rx="3"/>
        <line x1="12" y1="18" x2="12" y2="28"/>
        <line x1="36" y1="18" x2="36" y2="28"/>
    </g>
  </g>
</svg>