<svg xmlns="http://www.w3.org/2000/svg" viewBox="0 0 48 48">
  <defs>
    <linearGradient id="g" x1="0%" y1="0%" x2="100%" y2="100%">
      <stop offset="0%" stop-color="#a6c9b3"/>
      <stop offset="100%" stop-color="#0e2115"/>
    </linearGradient>
    <filter id="shadow" x="-30%" y="-30%" width="160%" height="160%">
      <feDropShadow dx="2.5" dy="3.5" stdDeviation="3" flood-color="#1a1a2e" flood-opacity="0.45"/>
    </filter>
  </defs>
  <g filter="url(#shadow)" fill="none">
    <g stroke="#07100a" stroke-width="4.5" stroke-linecap="round" stroke-linejoin="round" transform="translate(2,2)">
    <path d="M30 8 Q22 8 18 18 L14 44 L30 44 L34 20 Q36 12 30 8 Z"/>
    <line x1="18" y1="24" x2="30" y2="24 M16 30 L30 30 M14 36 L30 36"/>
    <circle cx="30" cy="14" r="3"/>
    </g>
    <g stroke="#0e2115" stroke-width="3" stroke-linecap="round" stroke-linejoin="round" transform="translate(1,1)">
    <path d="M30 8 Q22 8 18 18 L14 44 L30 44 L34 20 Q36 12 30 8 Z"/>
    <line x1="18" y1="24" x2="30" y2="24 M16 30 L30 30 M14 36 L30 36"/>
    <circle cx="30" cy="14" r="3"/>
    </g>
    <g stroke="url(#g)" stroke-width="1.5" stroke-linecap="round" stroke-linejoin="round">
    <path d="M30 8 Q22 8 18 18 L14 44 L30 44 L34 20 Q36 12 30 8 Z"/>
    <line x1="18" y1="24" x2="30" y2="24 M16 30 L30 30 M14 36 L30 36"/>
    <circle cx="30" cy="14" r="3"/>
    </g>
  </g>
</svg>