<svg xmlns="http://www.w3.org/2000/svg" viewBox="0 0 48 48">
  <defs>
    <linearGradient id="g" x1="0%" y1="0%" x2="100%" y2="100%">
      <stop offset="0%" stop-color="#b0a6de"/>
      <stop offset="100%" stop-color="#140e2d"/>
    </linearGradient>
    <filter id="shadow" x="-30%" y="-30%" width="160%" height="160%">
      <feDropShadow dx="2.5" dy="3.5" stdDeviation="3" flood-color="#1a1a2e" flood-opacity="0.45"/>
    </filter>
  </defs>
  <g filter="url(#shadow)" fill="none">
    <g stroke="#0a0716" stroke-width="4.5" stroke-linecap="round" stroke-linejoin="round" transform="translate(2,2)">
    <path d="M8 44 L8 20 Q8 12 14 12 Q20 12 20 20 L20 44 Z"/>
    <path d="M28 44 L28 20 Q28 12 34 12 Q40 12 40 20 L40 44 Z"/>
    <rect x="8" y="36" width="12" height="8" rx="2"/>
    <rect x="28" y="36" width="12" height="8" rx="2"/>
    </g>
    <g stroke="#140e2d" stroke-width="3" stroke-linecap="round" stroke-linejoin="round" transform="translate(1,1)">
    <path d="M8 44 L8 20 Q8 12 14 12 Q20 12 20 20 L20 44 Z"/>
    <path d="M28 44 L28 20 Q28 12 34 12 Q40 12 40 20 L40 44 Z"/>
    <rect x="8" y="36" width="12" height="8" rx="2"/>
    <rect x="28" y="36" width="12" height="8" rx="2"/>
    </g>
    <g stroke="url(#g)" stroke-width="1.5" stroke-linecap="round" stroke-linejoin="round">
    <path d="M8 44 L8 20 Q8 12 14 12 Q20 12 20 20 L20 44 Z"/>
    <path d="M28 44 L28 20 Q28 12 34 12 Q40 12 40 20 L40 44 Z"/>
    <rect x="8" y="36" width="12" height="8" rx="2"/>
    <rect x="28" y="36" width="12" height="8" rx="2"/>
    </g>
  </g>
</svg>