<svg xmlns="http://www.w3.org/2000/svg" viewBox="0 0 48 48">
  <defs>
    <linearGradient id="g" x1="0%" y1="0%" x2="100%" y2="100%">
      <stop offset="0%" stop-color="#ddbddd"/>
      <stop offset="100%" stop-color="#2d1b2d"/>
    </linearGradient>
    <filter id="shadow" x="-30%" y="-30%" width="160%" height="160%">
      <feDropShadow dx="2.5" dy="3.5" stdDeviation="3" flood-color="#1a1a2e" flood-opacity="0.45"/>
    </filter>
  </defs>
  <g filter="url(#shadow)" fill="none">
    <g stroke="#160d16" stroke-width="4.5" stroke-linecap="round" stroke-linejoin="round" transform="translate(2,2)">
    <circle cx="24" cy="14" r="7"/>
    <circle cx="20" cy="12" r="2"/>
    <circle cx="28" cy="12" r="2"/>
    <polygon points="24,2 18,8 30,8"/>
    <ellipse cx="24" cy="18" rx="8" ry="5"/>
    <path d="M20 20 Q24 24 28 20"/>
    <line x1="24" y1="22" x2="24" y2="44"/>
    </g>
    <g stroke="#2d1b2d" stroke-width="3" stroke-linecap="round" stroke-linejoin="round" transform="translate(1,1)">
    <circle cx="24" cy="14" r="7"/>
    <circle cx="20" cy="12" r="2"/>
    <circle cx="28" cy="12" r="2"/>
    <polygon points="24,2 18,8 30,8"/>
    <ellipse cx="24" cy="18" rx="8" ry="5"/>
    <path d="M20 20 Q24 24 28 20"/>
    <line x1="24" y1="22" x2="24" y2="44"/>
    </g>
    <g stroke="url(#g)" stroke-width="1.5" stroke-linecap="round" stroke-linejoin="round">
    <circle cx="24" cy="14" r="7"/>
    <circle cx="20" cy="12" r="2"/>
    <circle cx="28" cy="12" r="2"/>
    <polygon points="24,2 18,8 30,8"/>
    <ellipse cx="24" cy="18" rx="8" ry="5"/>
    <path d="M20 20 Q24 24 28 20"/>
    <line x1="24" y1="22" x2="24" y2="44"/>
    </g>
  </g>
</svg>