<svg xmlns="http://www.w3.org/2000/svg" viewBox="0 0 48 48">
  <defs>
    <linearGradient id="g" x1="0%" y1="0%" x2="100%" y2="100%">
      <stop offset="0%" stop-color="#aed1b4"/>
      <stop offset="100%" stop-color="#132616"/>
    </linearGradient>
    <filter id="shadow" x="-30%" y="-30%" width="160%" height="160%">
      <feDropShadow dx="2.5" dy="3.5" stdDeviation="3" flood-color="#1a1a2e" flood-opacity="0.45"/>
    </filter>
  </defs>
  <g filter="url(#shadow)" fill="none">
    <g stroke="#09130b" stroke-width="4.5" stroke-linecap="round" stroke-linejoin="round" transform="translate(2,2)">
    <ellipse cx="24" cy="24" rx="9" ry="7"/>
    <ellipse cx="24" cy="16" rx="5" ry="4"/>
    <circle cx="22" cy="14" r="1.5"/>
    <path d="M18 10 L14 2 L18 6 M18 6 L16 0"/>
    <path d="M30 10 L34 2 L30 6 M30 6 L32 0"/>
    <path d="M30 24 L34 22 M34 22 L36 26 M36 26 L38 22"/>
    <line x1="18" y1="30" x2="14" y2="44"/>
    <line x1="30" y1="30" x2="34" y2="44"/>
    </g>
    <g stroke="#132616" stroke-width="3" stroke-linecap="round" stroke-linejoin="round" transform="translate(1,1)">
    <ellipse cx="24" cy="24" rx="9" ry="7"/>
    <ellipse cx="24" cy="16" rx="5" ry="4"/>
    <circle cx="22" cy="14" r="1.5"/>
    <path d="M18 10 L14 2 L18 6 M18 6 L16 0"/>
    <path d="M30 10 L34 2 L30 6 M30 6 L32 0"/>
    <path d="M30 24 L34 22 M34 22 L36 26 M36 26 L38 22"/>
    <line x1="18" y1="30" x2="14" y2="44"/>
    <line x1="30" y1="30" x2="34" y2="44"/>
    </g>
    <g stroke="url(#g)" stroke-width="1.5" stroke-linecap="round" stroke-linejoin="round">
    <ellipse cx="24" cy="24" rx="9" ry="7"/>
    <ellipse cx="24" cy="16" rx="5" ry="4"/>
    <circle cx="22" cy="14" r="1.5"/>
    <path d="M18 10 L14 2 L18 6 M18 6 L16 0"/>
    <path d="M30 10 L34 2 L30 6 M30 6 L32 0"/>
    <path d="M30 24 L34 22 M34 22 L36 26 M36 26 L38 22"/>
    <line x1="18" y1="30" x2="14" y2="44"/>
    <line x1="30" y1="30" x2="34" y2="44"/>
    </g>
  </g>
</svg>