<svg xmlns="http://www.w3.org/2000/svg" viewBox="0 0 48 48">
  <defs>
    <linearGradient id="g" x1="0%" y1="0%" x2="100%" y2="100%">
      <stop offset="0%" stop-color="#bebfd5"/>
      <stop offset="100%" stop-color="#1c1c28"/>
    </linearGradient>
    <filter id="shadow" x="-30%" y="-30%" width="160%" height="160%">
      <feDropShadow dx="2.5" dy="3.5" stdDeviation="3" flood-color="#1a1a2e" flood-opacity="0.45"/>
    </filter>
  </defs>
  <g filter="url(#shadow)" fill="none">
    <g stroke="#0e0e14" stroke-width="4.5" stroke-linecap="round" stroke-linejoin="round" transform="translate(2,2)">
    <rect x="8" y="16" width="14" height="10" rx="4"/>
    <rect x="26" y="16" width="14" height="10" rx="4"/>
    <line x1="22" y1="20" x2="26" y2="20"/>
    <line x1="14" y1="14" x2="14" y2="16 M34 14 L34 16"/>
    <line x1="14" y1="26" x2="14" y2="28 M34 26 L34 28"/>
    </g>
    <g stroke="#1c1c28" stroke-width="3" stroke-linecap="round" stroke-linejoin="round" transform="translate(1,1)">
    <rect x="8" y="16" width="14" height="10" rx="4"/>
    <rect x="26" y="16" width="14" height="10" rx="4"/>
    <line x1="22" y1="20" x2="26" y2="20"/>
    <line x1="14" y1="14" x2="14" y2="16 M34 14 L34 16"/>
    <line x1="14" y1="26" x2="14" y2="28 M34 26 L34 28"/>
    </g>
    <g stroke="url(#g)" stroke-width="1.5" stroke-linecap="round" stroke-linejoin="round">
    <rect x="8" y="16" width="14" height="10" rx="4"/>
    <rect x="26" y="16" width="14" height="10" rx="4"/>
    <line x1="22" y1="20" x2="26" y2="20"/>
    <line x1="14" y1="14" x2="14" y2="16 M34 14 L34 16"/>
    <line x1="14" y1="26" x2="14" y2="28 M34 26 L34 28"/>
    </g>
  </g>
</svg>