<svg xmlns="http://www.w3.org/2000/svg" viewBox="0 0 48 48">
  <defs>
    <linearGradient id="g" x1="0%" y1="0%" x2="100%" y2="100%">
      <stop offset="0%" stop-color="#b8aec7"/>
      <stop offset="100%" stop-color="#362948"/>
    </linearGradient>
    <filter id="sh" x="-30%" y="-30%" width="160%" height="160%">
      <feDropShadow dx="2.5" dy="3.5" stdDeviation="3" flood-color="#1a1a2e" flood-opacity="0.45"/>
    </filter>
  </defs>
  <g filter="url(#sh)" fill="none">
    <g stroke="#181221" stroke-width="4.5" stroke-linecap="round" stroke-linejoin="round" transform="translate(2,2)">
<ellipse cx="22" cy="26" rx="8" ry="12"/><circle cx="26" cy="10" r="6"/><path d="M30 6 L36 4 L32 14"/><circle cx="26" cy="10" r="2"/><path d="M18 26 Q24 34 28 26"/><line x1="20" y1="36" x2="18" y2="42"/><line x1="24" y1="38" x2="22" y2="42"/>
    </g>
    <g stroke="#362948" stroke-width="3" stroke-linecap="round" stroke-linejoin="round" transform="translate(1,1)">
<ellipse cx="22" cy="26" rx="8" ry="12"/><circle cx="26" cy="10" r="6"/><path d="M30 6 L36 4 L32 14"/><circle cx="26" cy="10" r="2"/><path d="M18 26 Q24 34 28 26"/><line x1="20" y1="36" x2="18" y2="42"/><line x1="24" y1="38" x2="22" y2="42"/>
    </g>
    <g stroke="url(#g)" stroke-width="1.5" stroke-linecap="round" stroke-linejoin="round">
<ellipse cx="22" cy="26" rx="8" ry="12"/><circle cx="26" cy="10" r="6"/><path d="M30 6 L36 4 L32 14"/><circle cx="26" cy="10" r="2"/><path d="M18 26 Q24 34 28 26"/><line x1="20" y1="36" x2="18" y2="42"/><line x1="24" y1="38" x2="22" y2="42"/>
    </g>
  </g>
</svg>