<svg xmlns="http://www.w3.org/2000/svg" viewBox="0 0 48 48">
  <defs>
    <linearGradient id="g" x1="0%" y1="0%" x2="100%" y2="100%">
      <stop offset="0%" stop-color="#c4c5a5"/>
      <stop offset="100%" stop-color="#1f1f0e"/>
    </linearGradient>
    <filter id="shadow" x="-30%" y="-30%" width="160%" height="160%">
      <feDropShadow dx="2.5" dy="3.5" stdDeviation="3" flood-color="#1a1a2e" flood-opacity="0.45"/>
    </filter>
  </defs>
  <g filter="url(#shadow)" fill="none">
    <g stroke="#0f0f07" stroke-width="4.5" stroke-linecap="round" stroke-linejoin="round" transform="translate(2,2)">
    <ellipse cx="24" cy="20" rx="8" ry="5"/>
    <circle cx="24" cy="12" r="4"/>
    <circle cx="22" cy="10" r="1.5"/>
    <path d="M28 14 Q36 10 38 16 Q36 20 28 18"/>
    <path d="M24 20 L24 44 M24 24 L20 24 M24 28 L20 28"/>
    </g>
    <g stroke="#1f1f0e" stroke-width="3" stroke-linecap="round" stroke-linejoin="round" transform="translate(1,1)">
    <ellipse cx="24" cy="20" rx="8" ry="5"/>
    <circle cx="24" cy="12" r="4"/>
    <circle cx="22" cy="10" r="1.5"/>
    <path d="M28 14 Q36 10 38 16 Q36 20 28 18"/>
    <path d="M24 20 L24 44 M24 24 L20 24 M24 28 L20 28"/>
    </g>
    <g stroke="url(#g)" stroke-width="1.5" stroke-linecap="round" stroke-linejoin="round">
    <ellipse cx="24" cy="20" rx="8" ry="5"/>
    <circle cx="24" cy="12" r="4"/>
    <circle cx="22" cy="10" r="1.5"/>
    <path d="M28 14 Q36 10 38 16 Q36 20 28 18"/>
    <path d="M24 20 L24 44 M24 24 L20 24 M24 28 L20 28"/>
    </g>
  </g>
</svg>