<svg xmlns="http://www.w3.org/2000/svg" viewBox="0 0 48 48">
  <defs>
    <linearGradient id="g" x1="0%" y1="0%" x2="100%" y2="100%">
      <stop offset="0%" stop-color="#bfb0b0"/>
      <stop offset="100%" stop-color="#1c1414"/>
    </linearGradient>
    <filter id="shadow" x="-30%" y="-30%" width="160%" height="160%">
      <feDropShadow dx="2.5" dy="3.5" stdDeviation="3" flood-color="#1a1a2e" flood-opacity="0.45"/>
    </filter>
  </defs>
  <g filter="url(#shadow)" fill="none">
    <g stroke="#0e0a0a" stroke-width="4.5" stroke-linecap="round" stroke-linejoin="round" transform="translate(2,2)">
    <ellipse cx="24" cy="26" rx="14" ry="16"/>
    <circle cx="18" cy="22" r="3"/>
    <circle cx="30" cy="22" r="3"/>
    <path d="M20 30 Q24 36 28 30"/>
    <rect x="20" y="6" width="8" height="12" rx="4"/>
    </g>
    <g stroke="#1c1414" stroke-width="3" stroke-linecap="round" stroke-linejoin="round" transform="translate(1,1)">
    <ellipse cx="24" cy="26" rx="14" ry="16"/>
    <circle cx="18" cy="22" r="3"/>
    <circle cx="30" cy="22" r="3"/>
    <path d="M20 30 Q24 36 28 30"/>
    <rect x="20" y="6" width="8" height="12" rx="4"/>
    </g>
    <g stroke="url(#g)" stroke-width="1.5" stroke-linecap="round" stroke-linejoin="round">
    <ellipse cx="24" cy="26" rx="14" ry="16"/>
    <circle cx="18" cy="22" r="3"/>
    <circle cx="30" cy="22" r="3"/>
    <path d="M20 30 Q24 36 28 30"/>
    <rect x="20" y="6" width="8" height="12" rx="4"/>
    </g>
  </g>
</svg>