<svg xmlns="http://www.w3.org/2000/svg" viewBox="0 0 48 48">
  <defs>
    <linearGradient id="g" x1="0%" y1="0%" x2="100%" y2="100%">
      <stop offset="0%" stop-color="#bfcbab"/>
      <stop offset="100%" stop-color="#3e4d26"/>
    </linearGradient>
    <filter id="sh" x="-30%" y="-30%" width="160%" height="160%">
      <feDropShadow dx="2.5" dy="3.5" stdDeviation="3" flood-color="#1a1a2e" flood-opacity="0.45"/>
    </filter>
  </defs>
  <g filter="url(#sh)" fill="none">
    <g stroke="#1c2311" stroke-width="4.5" stroke-linecap="round" stroke-linejoin="round" transform="translate(2,2)">
<ellipse cx="24" cy="26" rx="14" ry="16"/><circle cx="24" cy="10" r="9"/><circle cx="18" cy="24" r="3"/><circle cx="30" cy="24" r="3"/><path d="M16 36 Q24 42 32 36"/>
    </g>
    <g stroke="#3e4d26" stroke-width="3" stroke-linecap="round" stroke-linejoin="round" transform="translate(1,1)">
<ellipse cx="24" cy="26" rx="14" ry="16"/><circle cx="24" cy="10" r="9"/><circle cx="18" cy="24" r="3"/><circle cx="30" cy="24" r="3"/><path d="M16 36 Q24 42 32 36"/>
    </g>
    <g stroke="url(#g)" stroke-width="1.5" stroke-linecap="round" stroke-linejoin="round">
<ellipse cx="24" cy="26" rx="14" ry="16"/><circle cx="24" cy="10" r="9"/><circle cx="18" cy="24" r="3"/><circle cx="30" cy="24" r="3"/><path d="M16 36 Q24 42 32 36"/>
    </g>
  </g>
</svg>