<svg xmlns="http://www.w3.org/2000/svg" viewBox="0 0 48 48">
  <defs>
    <linearGradient id="g" x1="0%" y1="0%" x2="100%" y2="100%">
      <stop offset="0%" stop-color="#abd7ba"/>
      <stop offset="100%" stop-color="#265c38"/>
    </linearGradient>
    <filter id="sh" x="-30%" y="-30%" width="160%" height="160%">
      <feDropShadow dx="2.5" dy="3.5" stdDeviation="3" flood-color="#1a1a2e" flood-opacity="0.45"/>
    </filter>
  </defs>
  <g filter="url(#sh)" fill="none">
    <g stroke="#112a19" stroke-width="4.5" stroke-linecap="round" stroke-linejoin="round" transform="translate(2,2)">
<path d="M8 8 L30 8 L30 14 Q34 14 34 18 Q38 18 38 14 L42 14 L42 40 L8 40 Z"/>
        <path d="M30 8 Q30 4 26 4 Q22 4 22 8"/>
    </g>
    <g stroke="#265c38" stroke-width="3" stroke-linecap="round" stroke-linejoin="round" transform="translate(1,1)">
<path d="M8 8 L30 8 L30 14 Q34 14 34 18 Q38 18 38 14 L42 14 L42 40 L8 40 Z"/>
        <path d="M30 8 Q30 4 26 4 Q22 4 22 8"/>
    </g>
    <g stroke="url(#g)" stroke-width="1.5" stroke-linecap="round" stroke-linejoin="round">
<path d="M8 8 L30 8 L30 14 Q34 14 34 18 Q38 18 38 14 L42 14 L42 40 L8 40 Z"/>
        <path d="M30 8 Q30 4 26 4 Q22 4 22 8"/>
    </g>
  </g>
</svg>