<svg xmlns="http://www.w3.org/2000/svg" viewBox="0 0 48 48">
  <defs>
    <linearGradient id="iconGrad" x1="0%" y1="0%" x2="100%" y2="100%">
      <stop offset="0%" stop-color="#F48FB1"/>
      <stop offset="100%" stop-color="#843550"/>
    </linearGradient>
    <filter id="shadow" x="-30%" y="-30%" width="160%" height="160%">
      <feDropShadow dx="2.5" dy="3.5" stdDeviation="3" flood-color="#1a1a2e" flood-opacity="0.45"/>
    </filter>
  </defs>
  <g filter="url(#shadow)" fill="none">
    <g stroke="#421a28" stroke-width="4.5" stroke-linecap="round" stroke-linejoin="round" transform="translate(2,2)">
      <ellipse cx="24" cy="26" rx="16" ry="13"/>
    <circle cx="15" cy="20" r="3" fill="#607D8B"/>
    <circle cx="28" cy="16" r="2.5" fill="#607D8B"/>
    <circle cx="36" cy="26" r="2.5" fill="#607D8B"/>
    <circle cx="26" cy="35" r="2" fill="#607D8B"/>
    <circle cx="14" cy="30" r="2" fill="#607D8B"/>
    <circle cx="10" cy="26" r="2.5"/>
    </g>
    <g stroke="#843550" stroke-width="3" stroke-linecap="round" stroke-linejoin="round" transform="translate(1,1)">
      <ellipse cx="24" cy="26" rx="16" ry="13"/>
    <circle cx="15" cy="20" r="3" fill="#607D8B"/>
    <circle cx="28" cy="16" r="2.5" fill="#607D8B"/>
    <circle cx="36" cy="26" r="2.5" fill="#607D8B"/>
    <circle cx="26" cy="35" r="2" fill="#607D8B"/>
    <circle cx="14" cy="30" r="2" fill="#607D8B"/>
    <circle cx="10" cy="26" r="2.5"/>
    </g>
    <g stroke="url(#iconGrad)" stroke-width="1.5" stroke-linecap="round" stroke-linejoin="round">
      <ellipse cx="24" cy="26" rx="16" ry="13"/>
    <circle cx="15" cy="20" r="3" fill="#607D8B"/>
    <circle cx="28" cy="16" r="2.5" fill="#607D8B"/>
    <circle cx="36" cy="26" r="2.5" fill="#607D8B"/>
    <circle cx="26" cy="35" r="2" fill="#607D8B"/>
    <circle cx="14" cy="30" r="2" fill="#607D8B"/>
    <circle cx="10" cy="26" r="2.5"/>
    </g>
  </g>
</svg>
