<svg xmlns="http://www.w3.org/2000/svg" viewBox="0 0 48 48">
  <defs>
    <linearGradient id="g" x1="0%" y1="0%" x2="100%" y2="100%">
      <stop offset="0%" stop-color="#b9aed7"/>
      <stop offset="100%" stop-color="#19132a"/>
    </linearGradient>
    <filter id="shadow" x="-30%" y="-30%" width="160%" height="160%">
      <feDropShadow dx="2.5" dy="3.5" stdDeviation="3" flood-color="#1a1a2e" flood-opacity="0.45"/>
    </filter>
  </defs>
  <g filter="url(#shadow)" fill="none">
    <g stroke="#0c0915" stroke-width="4.5" stroke-linecap="round" stroke-linejoin="round" transform="translate(2,2)">
    <rect x="10" y="6" width="28" height="36" rx="3"/>
    <rect x="10" y="6" width="28" height="8" rx="2"/>
    <circle cx="24" cy="18" r="1.5" fill="currentColor"/>
    <circle cx="18" cy="24" r="1.5" fill="currentColor"/>
    <circle cx="30" cy="24" r="1.5" fill="currentColor"/>
    <circle cx="24" cy="30" r="1.5" fill="currentColor"/>
    </g>
    <g stroke="#19132a" stroke-width="3" stroke-linecap="round" stroke-linejoin="round" transform="translate(1,1)">
    <rect x="10" y="6" width="28" height="36" rx="3"/>
    <rect x="10" y="6" width="28" height="8" rx="2"/>
    <circle cx="24" cy="18" r="1.5" fill="currentColor"/>
    <circle cx="18" cy="24" r="1.5" fill="currentColor"/>
    <circle cx="30" cy="24" r="1.5" fill="currentColor"/>
    <circle cx="24" cy="30" r="1.5" fill="currentColor"/>
    </g>
    <g stroke="url(#g)" stroke-width="1.5" stroke-linecap="round" stroke-linejoin="round">
    <rect x="10" y="6" width="28" height="36" rx="3"/>
    <rect x="10" y="6" width="28" height="8" rx="2"/>
    <circle cx="24" cy="18" r="1.5" fill="currentColor"/>
    <circle cx="18" cy="24" r="1.5" fill="currentColor"/>
    <circle cx="30" cy="24" r="1.5" fill="currentColor"/>
    <circle cx="24" cy="30" r="1.5" fill="currentColor"/>
    </g>
  </g>
</svg>