<svg xmlns="http://www.w3.org/2000/svg" viewBox="0 0 48 48">
  <defs>
    <linearGradient id="g" x1="0%" y1="0%" x2="100%" y2="100%">
      <stop offset="0%" stop-color="#cadca8"/>
      <stop offset="100%" stop-color="#4c6122"/>
    </linearGradient>
    <filter id="sh" x="-30%" y="-30%" width="160%" height="160%">
      <feDropShadow dx="2.5" dy="3.5" stdDeviation="3" flood-color="#1a1a2e" flood-opacity="0.45"/>
    </filter>
  </defs>
  <g filter="url(#sh)" fill="none">
    <g stroke="#222c0f" stroke-width="4.5" stroke-linecap="round" stroke-linejoin="round" transform="translate(2,2)">
<rect x="10" y="6" width="28" height="32" rx="3"/><line x1="10" y1="12" x2="38" y2="12"/><line x1="10" y1="18" x2="38" y2="18"/><line x1="10" y1="24" x2="38" y2="24"/><circle cx="16" cy="14" r="1"/><circle cx="24" cy="14" r="1"/><circle cx="32" cy="14" r="1"/><circle cx="16" cy="20" r="1.5"/><circle cx="24" cy="20" r="1.5"/><circle cx="32" cy="20" r="1.5"/>
    </g>
    <g stroke="#4c6122" stroke-width="3" stroke-linecap="round" stroke-linejoin="round" transform="translate(1,1)">
<rect x="10" y="6" width="28" height="32" rx="3"/><line x1="10" y1="12" x2="38" y2="12"/><line x1="10" y1="18" x2="38" y2="18"/><line x1="10" y1="24" x2="38" y2="24"/><circle cx="16" cy="14" r="1"/><circle cx="24" cy="14" r="1"/><circle cx="32" cy="14" r="1"/><circle cx="16" cy="20" r="1.5"/><circle cx="24" cy="20" r="1.5"/><circle cx="32" cy="20" r="1.5"/>
    </g>
    <g stroke="url(#g)" stroke-width="1.5" stroke-linecap="round" stroke-linejoin="round">
<rect x="10" y="6" width="28" height="32" rx="3"/><line x1="10" y1="12" x2="38" y2="12"/><line x1="10" y1="18" x2="38" y2="18"/><line x1="10" y1="24" x2="38" y2="24"/><circle cx="16" cy="14" r="1"/><circle cx="24" cy="14" r="1"/><circle cx="32" cy="14" r="1"/><circle cx="16" cy="20" r="1.5"/><circle cx="24" cy="20" r="1.5"/><circle cx="32" cy="20" r="1.5"/>
    </g>
  </g>
</svg>