<svg xmlns="http://www.w3.org/2000/svg" viewBox="0 0 48 48">
  <defs>
    <linearGradient id="g" x1="0%" y1="0%" x2="100%" y2="100%">
      <stop offset="0%" stop-color="#daafda"/>
      <stop offset="100%" stop-color="#5f2b5f"/>
    </linearGradient>
    <filter id="sh" x="-30%" y="-30%" width="160%" height="160%">
      <feDropShadow dx="2.5" dy="3.5" stdDeviation="3" flood-color="#1a1a2e" flood-opacity="0.45"/>
    </filter>
  </defs>
  <g filter="url(#sh)" fill="none">
    <g stroke="#2b132b" stroke-width="4.5" stroke-linecap="round" stroke-linejoin="round" transform="translate(2,2)">
<ellipse cx="24" cy="10" rx="4" ry="6"/>
        <line x1="24" y1="16" x2="24" y2="32"/>
        <circle cx="24" cy="34" r="6"/>
        <line x1="24" y1="16" x2="28" y2="20"/>
        <line x1="28" y1="20" x2="24" y2="24"/>
    </g>
    <g stroke="#5f2b5f" stroke-width="3" stroke-linecap="round" stroke-linejoin="round" transform="translate(1,1)">
<ellipse cx="24" cy="10" rx="4" ry="6"/>
        <line x1="24" y1="16" x2="24" y2="32"/>
        <circle cx="24" cy="34" r="6"/>
        <line x1="24" y1="16" x2="28" y2="20"/>
        <line x1="28" y1="20" x2="24" y2="24"/>
    </g>
    <g stroke="url(#g)" stroke-width="1.5" stroke-linecap="round" stroke-linejoin="round">
<ellipse cx="24" cy="10" rx="4" ry="6"/>
        <line x1="24" y1="16" x2="24" y2="32"/>
        <circle cx="24" cy="34" r="6"/>
        <line x1="24" y1="16" x2="28" y2="20"/>
        <line x1="28" y1="20" x2="24" y2="24"/>
    </g>
  </g>
</svg>