<svg xmlns="http://www.w3.org/2000/svg" viewBox="0 0 48 48">
  <defs>
    <linearGradient id="g" x1="0%" y1="0%" x2="100%" y2="100%">
      <stop offset="0%" stop-color="#b5c9c3"/>
      <stop offset="100%" stop-color="#16211e"/>
    </linearGradient>
    <filter id="shadow" x="-30%" y="-30%" width="160%" height="160%">
      <feDropShadow dx="2.5" dy="3.5" stdDeviation="3" flood-color="#1a1a2e" flood-opacity="0.45"/>
    </filter>
  </defs>
  <g filter="url(#shadow)" fill="none">
    <g stroke="#0b100f" stroke-width="4.5" stroke-linecap="round" stroke-linejoin="round" transform="translate(2,2)">
    <ellipse cx="24" cy="20" rx="10" ry="5"/>
    <line x1="24" y1="14" x2="28" y2="4 M24 14 L20 4 M24 14 L28 10 M24 14 L20 10"/>
    <rect x="6" y="18" width="8" height="12" rx="3"/>
    <rect x="34" y="18" width="8" height="14" rx="3"/>
    <line x1="24" y1="24" x2="24" y2="44"/>
    </g>
    <g stroke="#16211e" stroke-width="3" stroke-linecap="round" stroke-linejoin="round" transform="translate(1,1)">
    <ellipse cx="24" cy="20" rx="10" ry="5"/>
    <line x1="24" y1="14" x2="28" y2="4 M24 14 L20 4 M24 14 L28 10 M24 14 L20 10"/>
    <rect x="6" y="18" width="8" height="12" rx="3"/>
    <rect x="34" y="18" width="8" height="14" rx="3"/>
    <line x1="24" y1="24" x2="24" y2="44"/>
    </g>
    <g stroke="url(#g)" stroke-width="1.5" stroke-linecap="round" stroke-linejoin="round">
    <ellipse cx="24" cy="20" rx="10" ry="5"/>
    <line x1="24" y1="14" x2="28" y2="4 M24 14 L20 4 M24 14 L28 10 M24 14 L20 10"/>
    <rect x="6" y="18" width="8" height="12" rx="3"/>
    <rect x="34" y="18" width="8" height="14" rx="3"/>
    <line x1="24" y1="24" x2="24" y2="44"/>
    </g>
  </g>
</svg>