<svg xmlns="http://www.w3.org/2000/svg" viewBox="0 0 48 48">
  <defs>
    <linearGradient id="g" x1="0%" y1="0%" x2="100%" y2="100%">
      <stop offset="0%" stop-color="#beb3d5"/>
      <stop offset="100%" stop-color="#3d3059"/>
    </linearGradient>
    <filter id="sh" x="-30%" y="-30%" width="160%" height="160%">
      <feDropShadow dx="2.5" dy="3.5" stdDeviation="3" flood-color="#1a1a2e" flood-opacity="0.45"/>
    </filter>
  </defs>
  <g filter="url(#sh)" fill="none">
    <g stroke="#1b1628" stroke-width="4.5" stroke-linecap="round" stroke-linejoin="round" transform="translate(2,2)">
<path d="M6 36 L24 8 L42 36 Z"/>
        <rect x="20" y="36" width="8" height="6" rx="1"/>
        <circle cx="14" cy="28" r="2"/>
        <circle cx="34" cy="28" r="2"/>
    </g>
    <g stroke="#3d3059" stroke-width="3" stroke-linecap="round" stroke-linejoin="round" transform="translate(1,1)">
<path d="M6 36 L24 8 L42 36 Z"/>
        <rect x="20" y="36" width="8" height="6" rx="1"/>
        <circle cx="14" cy="28" r="2"/>
        <circle cx="34" cy="28" r="2"/>
    </g>
    <g stroke="url(#g)" stroke-width="1.5" stroke-linecap="round" stroke-linejoin="round">
<path d="M6 36 L24 8 L42 36 Z"/>
        <rect x="20" y="36" width="8" height="6" rx="1"/>
        <circle cx="14" cy="28" r="2"/>
        <circle cx="34" cy="28" r="2"/>
    </g>
  </g>
</svg>