<svg xmlns="http://www.w3.org/2000/svg" viewBox="0 0 48 48">
  <defs>
    <linearGradient id="g" x1="0%" y1="0%" x2="100%" y2="100%">
      <stop offset="0%" stop-color="#e0a9ca"/>
      <stop offset="100%" stop-color="#2f1022"/>
    </linearGradient>
    <filter id="shadow" x="-30%" y="-30%" width="160%" height="160%">
      <feDropShadow dx="2.5" dy="3.5" stdDeviation="3" flood-color="#1a1a2e" flood-opacity="0.45"/>
    </filter>
  </defs>
  <g filter="url(#shadow)" fill="none">
    <g stroke="#170811" stroke-width="4.5" stroke-linecap="round" stroke-linejoin="round" transform="translate(2,2)">
    <rect x="6" y="16" width="18" height="16" rx="4"/>
    <rect x="24" y="14" width="16" height="20" rx="2"/>
    <rect x="24" y="14" width="16" height="6" rx="2"/>
    <line x1="40" y1="18" x2="44" y2="14 M40 28 L44 32"/>
    <circle cx="26" cy="20" r="2" fill="currentColor"/>
    </g>
    <g stroke="#2f1022" stroke-width="3" stroke-linecap="round" stroke-linejoin="round" transform="translate(1,1)">
    <rect x="6" y="16" width="18" height="16" rx="4"/>
    <rect x="24" y="14" width="16" height="20" rx="2"/>
    <rect x="24" y="14" width="16" height="6" rx="2"/>
    <line x1="40" y1="18" x2="44" y2="14 M40 28 L44 32"/>
    <circle cx="26" cy="20" r="2" fill="currentColor"/>
    </g>
    <g stroke="url(#g)" stroke-width="1.5" stroke-linecap="round" stroke-linejoin="round">
    <rect x="6" y="16" width="18" height="16" rx="4"/>
    <rect x="24" y="14" width="16" height="20" rx="2"/>
    <rect x="24" y="14" width="16" height="6" rx="2"/>
    <line x1="40" y1="18" x2="44" y2="14 M40 28 L44 32"/>
    <circle cx="26" cy="20" r="2" fill="currentColor"/>
    </g>
  </g>
</svg>