<svg xmlns="http://www.w3.org/2000/svg" viewBox="0 0 48 48">
  <defs>
    <linearGradient id="g" x1="0%" y1="0%" x2="100%" y2="100%">
      <stop offset="0%" stop-color="#ded3b7"/>
      <stop offset="100%" stop-color="#2d2717"/>
    </linearGradient>
    <filter id="shadow" x="-30%" y="-30%" width="160%" height="160%">
      <feDropShadow dx="2.5" dy="3.5" stdDeviation="3" flood-color="#1a1a2e" flood-opacity="0.45"/>
    </filter>
  </defs>
  <g filter="url(#shadow)" fill="none">
    <g stroke="#16130b" stroke-width="4.5" stroke-linecap="round" stroke-linejoin="round" transform="translate(2,2)">
    <ellipse cx="24" cy="26" rx="12" ry="8"/>
    <ellipse cx="24" cy="22" rx="8" ry="5"/>
    <path d="M12 26 Q10 22 12 20 M36 26 Q38 22 36 20"/>
    <line x1="24" y1="18" x2="24" y2="14"/>
    </g>
    <g stroke="#2d2717" stroke-width="3" stroke-linecap="round" stroke-linejoin="round" transform="translate(1,1)">
    <ellipse cx="24" cy="26" rx="12" ry="8"/>
    <ellipse cx="24" cy="22" rx="8" ry="5"/>
    <path d="M12 26 Q10 22 12 20 M36 26 Q38 22 36 20"/>
    <line x1="24" y1="18" x2="24" y2="14"/>
    </g>
    <g stroke="url(#g)" stroke-width="1.5" stroke-linecap="round" stroke-linejoin="round">
    <ellipse cx="24" cy="26" rx="12" ry="8"/>
    <ellipse cx="24" cy="22" rx="8" ry="5"/>
    <path d="M12 26 Q10 22 12 20 M36 26 Q38 22 36 20"/>
    <line x1="24" y1="18" x2="24" y2="14"/>
    </g>
  </g>
</svg>