<svg xmlns="http://www.w3.org/2000/svg" viewBox="0 0 48 48">
  <defs>
    <linearGradient id="iconGrad" x1="0%" y1="0%" x2="100%" y2="100%">
      <stop offset="0%" stop-color="#C8E6C9"/>
      <stop offset="100%" stop-color="#5a755b"/>
    </linearGradient>
    <filter id="shadow" x="-30%" y="-30%" width="160%" height="160%">
      <feDropShadow dx="2.5" dy="3.5" stdDeviation="3" flood-color="#1a1a2e" flood-opacity="0.45"/>
    </filter>
  </defs>
  <g filter="url(#shadow)" fill="none">
    <g stroke="#2d3a2d" stroke-width="4.5" stroke-linecap="round" stroke-linejoin="round" transform="translate(2,2)">
      <path d="M6 44 L12 44 L22 28 L16 28 Z"/>
      <path d="M16 28 L36 18 C40 16, 40 8, 36 8 L16 16 C10 16, 6 20, 6 24 L10 22 L12 26 L16 28 Z"/>
    </g>
    <g stroke="#5a755b" stroke-width="3" stroke-linecap="round" stroke-linejoin="round" transform="translate(1,1)">
      <path d="M6 44 L12 44 L22 28 L16 28 Z"/>
      <path d="M16 28 L36 18 C40 16, 40 8, 36 8 L16 16 C10 16, 6 20, 6 24 L10 22 L12 26 L16 28 Z"/>
    </g>
    <g stroke="url(#iconGrad)" stroke-width="1.5" stroke-linecap="round" stroke-linejoin="round">
      <path d="M6 44 L12 44 L22 28 L16 28 Z"/>
      <path d="M16 28 L36 18 C40 16, 40 8, 36 8 L16 16 C10 16, 6 20, 6 24 L10 22 L12 26 L16 28 Z"/>
    </g>
  </g>
</svg>