<svg xmlns="http://www.w3.org/2000/svg" viewBox="0 0 48 48">
  <defs>
    <linearGradient id="g" x1="0%" y1="0%" x2="100%" y2="100%">
      <stop offset="0%" stop-color="#b2bbce"/>
      <stop offset="100%" stop-color="#2e3950"/>
    </linearGradient>
    <filter id="sh" x="-30%" y="-30%" width="160%" height="160%">
      <feDropShadow dx="2.5" dy="3.5" stdDeviation="3" flood-color="#1a1a2e" flood-opacity="0.45"/>
    </filter>
  </defs>
  <g filter="url(#sh)" fill="none">
    <g stroke="#151a24" stroke-width="4.5" stroke-linecap="round" stroke-linejoin="round" transform="translate(2,2)">
<rect x="10" y="12" width="28" height="26" rx="3"/><rect x="6" y="10" width="36" height="4" rx="2"/><line x1="10" y1="20" x2="38" y2="20"/><line x1="10" y1="28" x2="38" y2="28"/><circle cx="24" cy="12" r="2"/>
    </g>
    <g stroke="#2e3950" stroke-width="3" stroke-linecap="round" stroke-linejoin="round" transform="translate(1,1)">
<rect x="10" y="12" width="28" height="26" rx="3"/><rect x="6" y="10" width="36" height="4" rx="2"/><line x1="10" y1="20" x2="38" y2="20"/><line x1="10" y1="28" x2="38" y2="28"/><circle cx="24" cy="12" r="2"/>
    </g>
    <g stroke="url(#g)" stroke-width="1.5" stroke-linecap="round" stroke-linejoin="round">
<rect x="10" y="12" width="28" height="26" rx="3"/><rect x="6" y="10" width="36" height="4" rx="2"/><line x1="10" y1="20" x2="38" y2="20"/><line x1="10" y1="28" x2="38" y2="28"/><circle cx="24" cy="12" r="2"/>
    </g>
  </g>
</svg>