<svg xmlns="http://www.w3.org/2000/svg" viewBox="0 0 48 48">
  <defs>
    <linearGradient id="g" x1="0%" y1="0%" x2="100%" y2="100%">
      <stop offset="0%" stop-color="#d8b6a8"/>
      <stop offset="100%" stop-color="#2a170f"/>
    </linearGradient>
    <filter id="shadow" x="-30%" y="-30%" width="160%" height="160%">
      <feDropShadow dx="2.5" dy="3.5" stdDeviation="3" flood-color="#1a1a2e" flood-opacity="0.45"/>
    </filter>
  </defs>
  <g filter="url(#shadow)" fill="none">
    <g stroke="#150b07" stroke-width="4.5" stroke-linecap="round" stroke-linejoin="round" transform="translate(2,2)">
    <rect x="6" y="18" width="36" height="12" rx="6"/>
    <rect x="12" y="8" width="24" height="32" rx="4"/>
    <line x1="12" y1="18" x2="12" y2="38 M36 18 L36 38"/>
    </g>
    <g stroke="#2a170f" stroke-width="3" stroke-linecap="round" stroke-linejoin="round" transform="translate(1,1)">
    <rect x="6" y="18" width="36" height="12" rx="6"/>
    <rect x="12" y="8" width="24" height="32" rx="4"/>
    <line x1="12" y1="18" x2="12" y2="38 M36 18 L36 38"/>
    </g>
    <g stroke="url(#g)" stroke-width="1.5" stroke-linecap="round" stroke-linejoin="round">
    <rect x="6" y="18" width="36" height="12" rx="6"/>
    <rect x="12" y="8" width="24" height="32" rx="4"/>
    <line x1="12" y1="18" x2="12" y2="38 M36 18 L36 38"/>
    </g>
  </g>
</svg>