<svg xmlns="http://www.w3.org/2000/svg" viewBox="0 0 48 48">
  <defs>
    <linearGradient id="g" x1="0%" y1="0%" x2="100%" y2="100%">
      <stop offset="0%" stop-color="#c8d2b6"/>
      <stop offset="100%" stop-color="#212617"/>
    </linearGradient>
    <filter id="shadow" x="-30%" y="-30%" width="160%" height="160%">
      <feDropShadow dx="2.5" dy="3.5" stdDeviation="3" flood-color="#1a1a2e" flood-opacity="0.45"/>
    </filter>
  </defs>
  <g filter="url(#shadow)" fill="none">
    <g stroke="#10130b" stroke-width="4.5" stroke-linecap="round" stroke-linejoin="round" transform="translate(2,2)">
    <path d="M10 16 L10 38 Q10 44 24 44 Q38 44 38 38 L38 16 Z"/>
    <path d="M10 16 Q24 8 38 16"/>
    <path d="M22 16 L22 10 L26 10 L26 16"/>
    </g>
    <g stroke="#212617" stroke-width="3" stroke-linecap="round" stroke-linejoin="round" transform="translate(1,1)">
    <path d="M10 16 L10 38 Q10 44 24 44 Q38 44 38 38 L38 16 Z"/>
    <path d="M10 16 Q24 8 38 16"/>
    <path d="M22 16 L22 10 L26 10 L26 16"/>
    </g>
    <g stroke="url(#g)" stroke-width="1.5" stroke-linecap="round" stroke-linejoin="round">
    <path d="M10 16 L10 38 Q10 44 24 44 Q38 44 38 38 L38 16 Z"/>
    <path d="M10 16 Q24 8 38 16"/>
    <path d="M22 16 L22 10 L26 10 L26 16"/>
    </g>
  </g>
</svg>