<svg xmlns="http://www.w3.org/2000/svg" viewBox="0 0 48 48">
  <defs>
    <linearGradient id="g" x1="0%" y1="0%" x2="100%" y2="100%">
      <stop offset="0%" stop-color="#c4d5df"/>
      <stop offset="100%" stop-color="#455966"/>
    </linearGradient>
    <filter id="sh" x="-30%" y="-30%" width="160%" height="160%">
      <feDropShadow dx="2.5" dy="3.5" stdDeviation="3" flood-color="#1a1a2e" flood-opacity="0.45"/>
    </filter>
  </defs>
  <g filter="url(#sh)" fill="none">
    <g stroke="#1f282e" stroke-width="4.5" stroke-linecap="round" stroke-linejoin="round" transform="translate(2,2)">
<path d="M6 24 L24 6 L42 24 L24 42 Z"/>
        <line x1="6" y1="24" x2="42" y2="24"/>
        <line x1="24" y1="6" x2="24" y2="42"/>
    </g>
    <g stroke="#455966" stroke-width="3" stroke-linecap="round" stroke-linejoin="round" transform="translate(1,1)">
<path d="M6 24 L24 6 L42 24 L24 42 Z"/>
        <line x1="6" y1="24" x2="42" y2="24"/>
        <line x1="24" y1="6" x2="24" y2="42"/>
    </g>
    <g stroke="url(#g)" stroke-width="1.5" stroke-linecap="round" stroke-linejoin="round">
<path d="M6 24 L24 6 L42 24 L24 42 Z"/>
        <line x1="6" y1="24" x2="42" y2="24"/>
        <line x1="24" y1="6" x2="24" y2="42"/>
    </g>
  </g>
</svg>