<svg xmlns="http://www.w3.org/2000/svg" viewBox="0 0 48 48">
  <defs>
    <linearGradient id="iconGrad" x1="0%" y1="0%" x2="100%" y2="100%">
      <stop offset="0%" stop-color="#BCAAA4"/>
      <stop offset="100%" stop-color="#4E3C36"/>
    </linearGradient>
    <filter id="shadow" x="-30%" y="-30%" width="160%" height="160%">
      <feDropShadow dx="2.5" dy="3.5" stdDeviation="3" flood-color="#1a1a2e" flood-opacity="0.45"/>
    </filter>
  </defs>
  <g filter="url(#shadow)" fill="none">
    <g stroke="#271E1B" stroke-width="4.5" stroke-linecap="round" stroke-linejoin="round" transform="translate(2,2)">
      <polygon points="24,8 36,14 36,30 24,36 12,30 12,14"/>
      <circle cx="24" cy="22" r="8"/>
      <line x1="17" y1="22" x2="31" y2="22"/>
      <line x1="24" y1="15" x2="24" y2="29"/>
    </g>
    <g stroke="#4E3C36" stroke-width="3" stroke-linecap="round" stroke-linejoin="round" transform="translate(1,1)">
      <polygon points="24,8 36,14 36,30 24,36 12,30 12,14"/>
      <circle cx="24" cy="22" r="8"/>
      <line x1="17" y1="22" x2="31" y2="22"/>
      <line x1="24" y1="15" x2="24" y2="29"/>
    </g>
    <g stroke="url(#iconGrad)" stroke-width="1.5" stroke-linecap="round" stroke-linejoin="round">
      <polygon points="24,8 36,14 36,30 24,36 12,30 12,14"/>
      <circle cx="24" cy="22" r="8"/>
      <line x1="17" y1="22" x2="31" y2="22"/>
      <line x1="24" y1="15" x2="24" y2="29"/>
    </g>
  </g>
</svg>