<svg xmlns="http://www.w3.org/2000/svg" viewBox="0 0 48 48">
  <defs>
    <linearGradient id="g" x1="0%" y1="0%" x2="100%" y2="100%">
      <stop offset="0%" stop-color="#a8c7b9"/>
      <stop offset="100%" stop-color="#0f2119"/>
    </linearGradient>
    <filter id="shadow" x="-30%" y="-30%" width="160%" height="160%">
      <feDropShadow dx="2.5" dy="3.5" stdDeviation="3" flood-color="#1a1a2e" flood-opacity="0.45"/>
    </filter>
  </defs>
  <g filter="url(#shadow)" fill="none">
    <g stroke="#07100c" stroke-width="4.5" stroke-linecap="round" stroke-linejoin="round" transform="translate(2,2)">
    <ellipse cx="24" cy="14" rx="14" ry="6"/>
    <rect x="12" y="14" width="24" height="6" rx="2"/>
    <rect x="16" y="20" width="16" height="24" rx="3"/>
    <line x1="16" y1="28" x2="32" y2="28"/>
    </g>
    <g stroke="#0f2119" stroke-width="3" stroke-linecap="round" stroke-linejoin="round" transform="translate(1,1)">
    <ellipse cx="24" cy="14" rx="14" ry="6"/>
    <rect x="12" y="14" width="24" height="6" rx="2"/>
    <rect x="16" y="20" width="16" height="24" rx="3"/>
    <line x1="16" y1="28" x2="32" y2="28"/>
    </g>
    <g stroke="url(#g)" stroke-width="1.5" stroke-linecap="round" stroke-linejoin="round">
    <ellipse cx="24" cy="14" rx="14" ry="6"/>
    <rect x="12" y="14" width="24" height="6" rx="2"/>
    <rect x="16" y="20" width="16" height="24" rx="3"/>
    <line x1="16" y1="28" x2="32" y2="28"/>
    </g>
  </g>
</svg>