<svg xmlns="http://www.w3.org/2000/svg" viewBox="0 0 48 48">
  <defs>
    <linearGradient id="g" x1="0%" y1="0%" x2="100%" y2="100%">
      <stop offset="0%" stop-color="#a4c0c0"/>
      <stop offset="100%" stop-color="#1d403f"/>
    </linearGradient>
    <filter id="sh" x="-30%" y="-30%" width="160%" height="160%">
      <feDropShadow dx="2.5" dy="3.5" stdDeviation="3" flood-color="#1a1a2e" flood-opacity="0.45"/>
    </filter>
  </defs>
  <g filter="url(#sh)" fill="none">
    <g stroke="#0d1d1c" stroke-width="4.5" stroke-linecap="round" stroke-linejoin="round" transform="translate(2,2)">
<rect x="6" y="10" width="36" height="28" rx="4"/>
        <rect x="10" y="14" width="6" height="20" rx="2"/>
        <rect x="18" y="14" width="6" height="20" rx="2"/>
        <rect x="26" y="14" width="6" height="20" rx="2"/>
        <rect x="34" y="18" width="4" height="16" rx="2"/>
    </g>
    <g stroke="#1d403f" stroke-width="3" stroke-linecap="round" stroke-linejoin="round" transform="translate(1,1)">
<rect x="6" y="10" width="36" height="28" rx="4"/>
        <rect x="10" y="14" width="6" height="20" rx="2"/>
        <rect x="18" y="14" width="6" height="20" rx="2"/>
        <rect x="26" y="14" width="6" height="20" rx="2"/>
        <rect x="34" y="18" width="4" height="16" rx="2"/>
    </g>
    <g stroke="url(#g)" stroke-width="1.5" stroke-linecap="round" stroke-linejoin="round">
<rect x="6" y="10" width="36" height="28" rx="4"/>
        <rect x="10" y="14" width="6" height="20" rx="2"/>
        <rect x="18" y="14" width="6" height="20" rx="2"/>
        <rect x="26" y="14" width="6" height="20" rx="2"/>
        <rect x="34" y="18" width="4" height="16" rx="2"/>
    </g>
  </g>
</svg>