<svg xmlns="http://www.w3.org/2000/svg" viewBox="0 0 48 48">
  <defs>
    <linearGradient id="g" x1="0%" y1="0%" x2="100%" y2="100%">
      <stop offset="0%" stop-color="#a2bfc1"/>
      <stop offset="100%" stop-color="#0c1c1d"/>
    </linearGradient>
    <filter id="shadow" x="-30%" y="-30%" width="160%" height="160%">
      <feDropShadow dx="2.5" dy="3.5" stdDeviation="3" flood-color="#1a1a2e" flood-opacity="0.45"/>
    </filter>
  </defs>
  <g filter="url(#shadow)" fill="none">
    <g stroke="#060e0e" stroke-width="4.5" stroke-linecap="round" stroke-linejoin="round" transform="translate(2,2)">
    <path d="M12 8 L24 4 L36 8 L36 24 Q36 36 24 42 Q12 36 12 24 Z"/>
    <line x1="12" y1="24" x2="36" y2="24 M18 8 L18 38 M30 8 L30 38"/>
    </g>
    <g stroke="#0c1c1d" stroke-width="3" stroke-linecap="round" stroke-linejoin="round" transform="translate(1,1)">
    <path d="M12 8 L24 4 L36 8 L36 24 Q36 36 24 42 Q12 36 12 24 Z"/>
    <line x1="12" y1="24" x2="36" y2="24 M18 8 L18 38 M30 8 L30 38"/>
    </g>
    <g stroke="url(#g)" stroke-width="1.5" stroke-linecap="round" stroke-linejoin="round">
    <path d="M12 8 L24 4 L36 8 L36 24 Q36 36 24 42 Q12 36 12 24 Z"/>
    <line x1="12" y1="24" x2="36" y2="24 M18 8 L18 38 M30 8 L30 38"/>
    </g>
  </g>
</svg>