<svg xmlns="http://www.w3.org/2000/svg" viewBox="0 0 48 48">
  <defs>
    <linearGradient id="g" x1="0%" y1="0%" x2="100%" y2="100%">
      <stop offset="0%" stop-color="#d7b6bb"/>
      <stop offset="100%" stop-color="#2a171a"/>
    </linearGradient>
    <filter id="shadow" x="-30%" y="-30%" width="160%" height="160%">
      <feDropShadow dx="2.5" dy="3.5" stdDeviation="3" flood-color="#1a1a2e" flood-opacity="0.45"/>
    </filter>
  </defs>
  <g filter="url(#shadow)" fill="none">
    <g stroke="#150b0d" stroke-width="4.5" stroke-linecap="round" stroke-linejoin="round" transform="translate(2,2)">
    <rect x="4" y="20" width="40" height="8" rx="2"/>
    <line x1="8" y1="28" x2="8" y2="44 M16 28 L16 44 M24 28 L24 44 M32 28 L32 44 M40 28 L40 44"/>
    <line x1="4" y1="20" x2="4" y2="14 M44 20 L44 14"/>
    </g>
    <g stroke="#2a171a" stroke-width="3" stroke-linecap="round" stroke-linejoin="round" transform="translate(1,1)">
    <rect x="4" y="20" width="40" height="8" rx="2"/>
    <line x1="8" y1="28" x2="8" y2="44 M16 28 L16 44 M24 28 L24 44 M32 28 L32 44 M40 28 L40 44"/>
    <line x1="4" y1="20" x2="4" y2="14 M44 20 L44 14"/>
    </g>
    <g stroke="url(#g)" stroke-width="1.5" stroke-linecap="round" stroke-linejoin="round">
    <rect x="4" y="20" width="40" height="8" rx="2"/>
    <line x1="8" y1="28" x2="8" y2="44 M16 28 L16 44 M24 28 L24 44 M32 28 L32 44 M40 28 L40 44"/>
    <line x1="4" y1="20" x2="4" y2="14 M44 20 L44 14"/>
    </g>
  </g>
</svg>