<svg xmlns="http://www.w3.org/2000/svg" viewBox="0 0 48 48">
  <defs>
    <linearGradient id="g" x1="0%" y1="0%" x2="100%" y2="100%">
      <stop offset="0%" stop-color="#bbd3c6"/>
      <stop offset="100%" stop-color="#395646"/>
    </linearGradient>
    <filter id="sh" x="-30%" y="-30%" width="160%" height="160%">
      <feDropShadow dx="2.5" dy="3.5" stdDeviation="3" flood-color="#1a1a2e" flood-opacity="0.45"/>
    </filter>
  </defs>
  <g filter="url(#sh)" fill="none">
    <g stroke="#1a2720" stroke-width="4.5" stroke-linecap="round" stroke-linejoin="round" transform="translate(2,2)">
<path d="M14 8 L14 44 L34 44 L34 8 Z"/>
        <path d="M14 8 L24 14 L34 8"/>
        <line x1="14" y1="28" x2="34" y2="28"/>
        <line x1="14" y1="36" x2="34" y2="36"/>
    </g>
    <g stroke="#395646" stroke-width="3" stroke-linecap="round" stroke-linejoin="round" transform="translate(1,1)">
<path d="M14 8 L14 44 L34 44 L34 8 Z"/>
        <path d="M14 8 L24 14 L34 8"/>
        <line x1="14" y1="28" x2="34" y2="28"/>
        <line x1="14" y1="36" x2="34" y2="36"/>
    </g>
    <g stroke="url(#g)" stroke-width="1.5" stroke-linecap="round" stroke-linejoin="round">
<path d="M14 8 L14 44 L34 44 L34 8 Z"/>
        <path d="M14 8 L24 14 L34 8"/>
        <line x1="14" y1="28" x2="34" y2="28"/>
        <line x1="14" y1="36" x2="34" y2="36"/>
    </g>
  </g>
</svg>