<svg xmlns="http://www.w3.org/2000/svg" viewBox="0 0 48 48">
  <defs>
    <linearGradient id="g" x1="0%" y1="0%" x2="100%" y2="100%">
      <stop offset="0%" stop-color="#ceafb2"/>
      <stop offset="100%" stop-color="#502a2e"/>
    </linearGradient>
    <filter id="sh" x="-30%" y="-30%" width="160%" height="160%">
      <feDropShadow dx="2.5" dy="3.5" stdDeviation="3" flood-color="#1a1a2e" flood-opacity="0.45"/>
    </filter>
  </defs>
  <g filter="url(#sh)" fill="none">
    <g stroke="#241315" stroke-width="4.5" stroke-linecap="round" stroke-linejoin="round" transform="translate(2,2)">
<line x1="24" y1="10" x2="24" y2="42"/><rect x="8" y="4" width="16" height="14" rx="2"/><path d="M8 4 L4 8 L8 12"/><rect x="18" y="10" width="10" height="4" rx="1"/>
    </g>
    <g stroke="#502a2e" stroke-width="3" stroke-linecap="round" stroke-linejoin="round" transform="translate(1,1)">
<line x1="24" y1="10" x2="24" y2="42"/><rect x="8" y="4" width="16" height="14" rx="2"/><path d="M8 4 L4 8 L8 12"/><rect x="18" y="10" width="10" height="4" rx="1"/>
    </g>
    <g stroke="url(#g)" stroke-width="1.5" stroke-linecap="round" stroke-linejoin="round">
<line x1="24" y1="10" x2="24" y2="42"/><rect x="8" y="4" width="16" height="14" rx="2"/><path d="M8 4 L4 8 L8 12"/><rect x="18" y="10" width="10" height="4" rx="1"/>
    </g>
  </g>
</svg>