<svg xmlns="http://www.w3.org/2000/svg" viewBox="0 0 48 48">
  <defs>
    <linearGradient id="g" x1="0%" y1="0%" x2="100%" y2="100%">
      <stop offset="0%" stop-color="#b5cddd"/>
      <stop offset="100%" stop-color="#17242d"/>
    </linearGradient>
    <filter id="shadow" x="-30%" y="-30%" width="160%" height="160%">
      <feDropShadow dx="2.5" dy="3.5" stdDeviation="3" flood-color="#1a1a2e" flood-opacity="0.45"/>
    </filter>
  </defs>
  <g filter="url(#shadow)" fill="none">
    <g stroke="#0b1216" stroke-width="4.5" stroke-linecap="round" stroke-linejoin="round" transform="translate(2,2)">
    <line x1="24" y1="14" x2="24" y2="44"/>
    <rect x="8" y="6" width="18" height="12" rx="2"/>
    <rect x="26" y="8" width="4" height="8"/>
    <line x1="24" y1="14" x2="18" y2="6"/>
    </g>
    <g stroke="#17242d" stroke-width="3" stroke-linecap="round" stroke-linejoin="round" transform="translate(1,1)">
    <line x1="24" y1="14" x2="24" y2="44"/>
    <rect x="8" y="6" width="18" height="12" rx="2"/>
    <rect x="26" y="8" width="4" height="8"/>
    <line x1="24" y1="14" x2="18" y2="6"/>
    </g>
    <g stroke="url(#g)" stroke-width="1.5" stroke-linecap="round" stroke-linejoin="round">
    <line x1="24" y1="14" x2="24" y2="44"/>
    <rect x="8" y="6" width="18" height="12" rx="2"/>
    <rect x="26" y="8" width="4" height="8"/>
    <line x1="24" y1="14" x2="18" y2="6"/>
    </g>
  </g>
</svg>