<svg xmlns="http://www.w3.org/2000/svg" viewBox="0 0 48 48">
  <defs>
    <linearGradient id="g" x1="0%" y1="0%" x2="100%" y2="100%">
      <stop offset="0%" stop-color="#b2a0c9"/>
      <stop offset="100%" stop-color="#150b22"/>
    </linearGradient>
    <filter id="shadow" x="-30%" y="-30%" width="160%" height="160%">
      <feDropShadow dx="2.5" dy="3.5" stdDeviation="3" flood-color="#1a1a2e" flood-opacity="0.45"/>
    </filter>
  </defs>
  <g filter="url(#shadow)" fill="none">
    <g stroke="#0a0511" stroke-width="4.5" stroke-linecap="round" stroke-linejoin="round" transform="translate(2,2)">
    <rect x="6" y="16" width="36" height="18" rx="8"/>
    <line x1="6" y1="16" x2="6" y2="34 M42 16 L42 34"/>
    <line x1="12" y1="18" x2="12" y2="32 M20 16 L20 34 M28 16 L28 34 M36 18 L36 32"/>
    </g>
    <g stroke="#150b22" stroke-width="3" stroke-linecap="round" stroke-linejoin="round" transform="translate(1,1)">
    <rect x="6" y="16" width="36" height="18" rx="8"/>
    <line x1="6" y1="16" x2="6" y2="34 M42 16 L42 34"/>
    <line x1="12" y1="18" x2="12" y2="32 M20 16 L20 34 M28 16 L28 34 M36 18 L36 32"/>
    </g>
    <g stroke="url(#g)" stroke-width="1.5" stroke-linecap="round" stroke-linejoin="round">
    <rect x="6" y="16" width="36" height="18" rx="8"/>
    <line x1="6" y1="16" x2="6" y2="34 M42 16 L42 34"/>
    <line x1="12" y1="18" x2="12" y2="32 M20 16 L20 34 M28 16 L28 34 M36 18 L36 32"/>
    </g>
  </g>
</svg>