<svg xmlns="http://www.w3.org/2000/svg" viewBox="0 0 48 48">
  <defs>
    <linearGradient id="g" x1="0%" y1="0%" x2="100%" y2="100%">
      <stop offset="0%" stop-color="#90A4AE"/>
      <stop offset="100%" stop-color="#151D20"/>
    </linearGradient>
    <filter id="sh" x="-30%" y="-30%" width="160%" height="160%">
      <feDropShadow dx="2.5" dy="3.5" stdDeviation="3" flood-color="#1a1a2e" flood-opacity="0.45"/>
    </filter>
  </defs>
  <g filter="url(#sh)" fill="none">
    <g stroke="#0A0E10" stroke-width="4.5" stroke-linecap="round" stroke-linejoin="round" transform="translate(2,2)">
    <path d="M10 24 Q10 6 38 6 Q38 24 38 24"/>
        <rect x="6" y="24" width="10" height="14" rx="4"/>
        <rect x="32" y="24" width="10" height="14" rx="4"/>
    </g>
    <g stroke="#151D20" stroke-width="3" stroke-linecap="round" stroke-linejoin="round" transform="translate(1,1)">
    <path d="M10 24 Q10 6 38 6 Q38 24 38 24"/>
        <rect x="6" y="24" width="10" height="14" rx="4"/>
        <rect x="32" y="24" width="10" height="14" rx="4"/>
    </g>
    <g stroke="url(#g)" stroke-width="1.5" stroke-linecap="round" stroke-linejoin="round">
    <path d="M10 24 Q10 6 38 6 Q38 24 38 24"/>
        <rect x="6" y="24" width="10" height="14" rx="4"/>
        <rect x="32" y="24" width="10" height="14" rx="4"/>
    </g>
  </g>
</svg>