<svg xmlns="http://www.w3.org/2000/svg" viewBox="0 0 48 48">
  <defs>
    <linearGradient id="g" x1="0%" y1="0%" x2="100%" y2="100%">
      <stop offset="0%" stop-color="#cea5b2"/>
      <stop offset="100%" stop-color="#240e15"/>
    </linearGradient>
    <filter id="shadow" x="-30%" y="-30%" width="160%" height="160%">
      <feDropShadow dx="2.5" dy="3.5" stdDeviation="3" flood-color="#1a1a2e" flood-opacity="0.45"/>
    </filter>
  </defs>
  <g filter="url(#shadow)" fill="none">
    <g stroke="#12070a" stroke-width="4.5" stroke-linecap="round" stroke-linejoin="round" transform="translate(2,2)">
    <ellipse cx="24" cy="24" rx="14" ry="8"/>
    <path d="M10 22 L10 10 M14 20 L14 8 M18 20 L18 6 M22 20 L22 6 M26 20 L26 6 M30 20 L30 8 M34 22 L34 10"/>
    <circle cx="12" cy="24" r="2"/>
    <path d="M19 24 Q22 28 24 30 Q26 28 29 24"/>
    </g>
    <g stroke="#240e15" stroke-width="3" stroke-linecap="round" stroke-linejoin="round" transform="translate(1,1)">
    <ellipse cx="24" cy="24" rx="14" ry="8"/>
    <path d="M10 22 L10 10 M14 20 L14 8 M18 20 L18 6 M22 20 L22 6 M26 20 L26 6 M30 20 L30 8 M34 22 L34 10"/>
    <circle cx="12" cy="24" r="2"/>
    <path d="M19 24 Q22 28 24 30 Q26 28 29 24"/>
    </g>
    <g stroke="url(#g)" stroke-width="1.5" stroke-linecap="round" stroke-linejoin="round">
    <ellipse cx="24" cy="24" rx="14" ry="8"/>
    <path d="M10 22 L10 10 M14 20 L14 8 M18 20 L18 6 M22 20 L22 6 M26 20 L26 6 M30 20 L30 8 M34 22 L34 10"/>
    <circle cx="12" cy="24" r="2"/>
    <path d="M19 24 Q22 28 24 30 Q26 28 29 24"/>
    </g>
  </g>
</svg>