<svg xmlns="http://www.w3.org/2000/svg" viewBox="0 0 48 48">
  <defs>
    <linearGradient id="g" x1="0%" y1="0%" x2="100%" y2="100%">
      <stop offset="0%" stop-color="#b8dcbe"/>
      <stop offset="100%" stop-color="#35613d"/>
    </linearGradient>
    <filter id="sh" x="-30%" y="-30%" width="160%" height="160%">
      <feDropShadow dx="2.5" dy="3.5" stdDeviation="3" flood-color="#1a1a2e" flood-opacity="0.45"/>
    </filter>
  </defs>
  <g filter="url(#sh)" fill="none">
    <g stroke="#182c1b" stroke-width="4.5" stroke-linecap="round" stroke-linejoin="round" transform="translate(2,2)">
<ellipse cx="24" cy="22" rx="16" ry="6"/>
        <line x1="24" y1="6" x2="24" y2="16"/>
        <line x1="10" y1="6" x2="38" y2="6"/>
        <rect x="14" y="28" width="20" height="10" rx="2"/>
        <line x1="24" y1="28" x2="24" y2="38"/>
    </g>
    <g stroke="#35613d" stroke-width="3" stroke-linecap="round" stroke-linejoin="round" transform="translate(1,1)">
<ellipse cx="24" cy="22" rx="16" ry="6"/>
        <line x1="24" y1="6" x2="24" y2="16"/>
        <line x1="10" y1="6" x2="38" y2="6"/>
        <rect x="14" y="28" width="20" height="10" rx="2"/>
        <line x1="24" y1="28" x2="24" y2="38"/>
    </g>
    <g stroke="url(#g)" stroke-width="1.5" stroke-linecap="round" stroke-linejoin="round">
<ellipse cx="24" cy="22" rx="16" ry="6"/>
        <line x1="24" y1="6" x2="24" y2="16"/>
        <line x1="10" y1="6" x2="38" y2="6"/>
        <rect x="14" y="28" width="20" height="10" rx="2"/>
        <line x1="24" y1="28" x2="24" y2="38"/>
    </g>
  </g>
</svg>