<svg xmlns="http://www.w3.org/2000/svg" viewBox="0 0 48 48">
  <defs>
    <linearGradient id="g" x1="0%" y1="0%" x2="100%" y2="100%">
      <stop offset="0%" stop-color="#c0bbae"/>
      <stop offset="100%" stop-color="#40392a"/>
    </linearGradient>
    <filter id="sh" x="-30%" y="-30%" width="160%" height="160%">
      <feDropShadow dx="2.5" dy="3.5" stdDeviation="3" flood-color="#1a1a2e" flood-opacity="0.45"/>
    </filter>
  </defs>
  <g filter="url(#sh)" fill="none">
    <g stroke="#1d1a13" stroke-width="4.5" stroke-linecap="round" stroke-linejoin="round" transform="translate(2,2)">
<ellipse cx="22" cy="24" rx="6" ry="14"/><circle cx="24" cy="8" r="5"/><path d="M28 4 L34 2 L30 10"/><circle cx="24" cy="8" r="2"/><line x1="18" y1="36" x2="14" y2="42"/><line x1="22" y1="38" x2="20" y2="42"/><circle cx="20" cy="22" r="1.5"/><circle cx="26" cy="22" r="1.5"/>
    </g>
    <g stroke="#40392a" stroke-width="3" stroke-linecap="round" stroke-linejoin="round" transform="translate(1,1)">
<ellipse cx="22" cy="24" rx="6" ry="14"/><circle cx="24" cy="8" r="5"/><path d="M28 4 L34 2 L30 10"/><circle cx="24" cy="8" r="2"/><line x1="18" y1="36" x2="14" y2="42"/><line x1="22" y1="38" x2="20" y2="42"/><circle cx="20" cy="22" r="1.5"/><circle cx="26" cy="22" r="1.5"/>
    </g>
    <g stroke="url(#g)" stroke-width="1.5" stroke-linecap="round" stroke-linejoin="round">
<ellipse cx="22" cy="24" rx="6" ry="14"/><circle cx="24" cy="8" r="5"/><path d="M28 4 L34 2 L30 10"/><circle cx="24" cy="8" r="2"/><line x1="18" y1="36" x2="14" y2="42"/><line x1="22" y1="38" x2="20" y2="42"/><circle cx="20" cy="22" r="1.5"/><circle cx="26" cy="22" r="1.5"/>
    </g>
  </g>
</svg>