<svg xmlns="http://www.w3.org/2000/svg" viewBox="0 0 48 48">
  <defs>
    <linearGradient id="g" x1="0%" y1="0%" x2="100%" y2="100%">
      <stop offset="0%" stop-color="#cfcfb3"/>
      <stop offset="100%" stop-color="#252516"/>
    </linearGradient>
    <filter id="shadow" x="-30%" y="-30%" width="160%" height="160%">
      <feDropShadow dx="2.5" dy="3.5" stdDeviation="3" flood-color="#1a1a2e" flood-opacity="0.45"/>
    </filter>
  </defs>
  <g filter="url(#shadow)" fill="none">
    <g stroke="#12120b" stroke-width="4.5" stroke-linecap="round" stroke-linejoin="round" transform="translate(2,2)">
    <rect x="10" y="6" width="28" height="32" rx="4"/>
    <rect x="10" y="6" width="28" height="8" rx="2"/>
    <polygon points="10,38 14,44 34,44 38,38"/>
    <line x1="14" y1="20" x2="34" y2="20 M14 28 L34 28"/>
    </g>
    <g stroke="#252516" stroke-width="3" stroke-linecap="round" stroke-linejoin="round" transform="translate(1,1)">
    <rect x="10" y="6" width="28" height="32" rx="4"/>
    <rect x="10" y="6" width="28" height="8" rx="2"/>
    <polygon points="10,38 14,44 34,44 38,38"/>
    <line x1="14" y1="20" x2="34" y2="20 M14 28 L34 28"/>
    </g>
    <g stroke="url(#g)" stroke-width="1.5" stroke-linecap="round" stroke-linejoin="round">
    <rect x="10" y="6" width="28" height="32" rx="4"/>
    <rect x="10" y="6" width="28" height="8" rx="2"/>
    <polygon points="10,38 14,44 34,44 38,38"/>
    <line x1="14" y1="20" x2="34" y2="20 M14 28 L34 28"/>
    </g>
  </g>
</svg>