<svg xmlns="http://www.w3.org/2000/svg" viewBox="0 0 48 48">
  <defs>
    <linearGradient id="g" x1="0%" y1="0%" x2="100%" y2="100%">
      <stop offset="0%" stop-color="#dcc4b4"/>
      <stop offset="100%" stop-color="#2c1f16"/>
    </linearGradient>
    <filter id="shadow" x="-30%" y="-30%" width="160%" height="160%">
      <feDropShadow dx="2.5" dy="3.5" stdDeviation="3" flood-color="#1a1a2e" flood-opacity="0.45"/>
    </filter>
  </defs>
  <g filter="url(#shadow)" fill="none">
    <g stroke="#160f0b" stroke-width="4.5" stroke-linecap="round" stroke-linejoin="round" transform="translate(2,2)">
    <path d="M6 14 L8 40 Q8 44 14 44 L34 44 Q38 44 38 40 L38 22 Q38 14 30 14 Z"/>
    <line x1="6" y1="22" x2="38" y2="22 M6 30 L38 30"/>
    <line x1="8" y1="14" x2="10" y2="10 M30 14 L32 10"/>
    </g>
    <g stroke="#2c1f16" stroke-width="3" stroke-linecap="round" stroke-linejoin="round" transform="translate(1,1)">
    <path d="M6 14 L8 40 Q8 44 14 44 L34 44 Q38 44 38 40 L38 22 Q38 14 30 14 Z"/>
    <line x1="6" y1="22" x2="38" y2="22 M6 30 L38 30"/>
    <line x1="8" y1="14" x2="10" y2="10 M30 14 L32 10"/>
    </g>
    <g stroke="url(#g)" stroke-width="1.5" stroke-linecap="round" stroke-linejoin="round">
    <path d="M6 14 L8 40 Q8 44 14 44 L34 44 Q38 44 38 40 L38 22 Q38 14 30 14 Z"/>
    <line x1="6" y1="22" x2="38" y2="22 M6 30 L38 30"/>
    <line x1="8" y1="14" x2="10" y2="10 M30 14 L32 10"/>
    </g>
  </g>
</svg>