<svg xmlns="http://www.w3.org/2000/svg" viewBox="0 0 48 48">
  <defs>
    <linearGradient id="g" x1="0%" y1="0%" x2="100%" y2="100%">
      <stop offset="0%" stop-color="#ccc9a9"/>
      <stop offset="100%" stop-color="#232110"/>
    </linearGradient>
    <filter id="shadow" x="-30%" y="-30%" width="160%" height="160%">
      <feDropShadow dx="2.5" dy="3.5" stdDeviation="3" flood-color="#1a1a2e" flood-opacity="0.45"/>
    </filter>
  </defs>
  <g filter="url(#shadow)" fill="none">
    <g stroke="#111008" stroke-width="4.5" stroke-linecap="round" stroke-linejoin="round" transform="translate(2,2)">
    <line x1="12" y1="8" x2="12" y2="44"/>
    <rect x="6" y="4" width="12" height="8" rx="2" transform="rotate(-30 12 8)"/>
    <rect x="4" y="38" width="16" height="6" rx="2"/>
    </g>
    <g stroke="#232110" stroke-width="3" stroke-linecap="round" stroke-linejoin="round" transform="translate(1,1)">
    <line x1="12" y1="8" x2="12" y2="44"/>
    <rect x="6" y="4" width="12" height="8" rx="2" transform="rotate(-30 12 8)"/>
    <rect x="4" y="38" width="16" height="6" rx="2"/>
    </g>
    <g stroke="url(#g)" stroke-width="1.5" stroke-linecap="round" stroke-linejoin="round">
    <line x1="12" y1="8" x2="12" y2="44"/>
    <rect x="6" y="4" width="12" height="8" rx="2" transform="rotate(-30 12 8)"/>
    <rect x="4" y="38" width="16" height="6" rx="2"/>
    </g>
  </g>
</svg>