<svg xmlns="http://www.w3.org/2000/svg" viewBox="0 0 48 48">
  <defs>
    <linearGradient id="g" x1="0%" y1="0%" x2="100%" y2="100%">
      <stop offset="0%" stop-color="#e3abba"/>
      <stop offset="100%" stop-color="#301119"/>
    </linearGradient>
    <filter id="shadow" x="-30%" y="-30%" width="160%" height="160%">
      <feDropShadow dx="2.5" dy="3.5" stdDeviation="3" flood-color="#1a1a2e" flood-opacity="0.45"/>
    </filter>
  </defs>
  <g filter="url(#shadow)" fill="none">
    <g stroke="#18080c" stroke-width="4.5" stroke-linecap="round" stroke-linejoin="round" transform="translate(2,2)">
    <path d="M10 20 L10 42 L38 42 L38 20 Z"/>
    <path d="M10 20 Q24 8 38 20"/>
    <polygon points="24,8 18,16 30,16"/>
    <polygon points="16,42 16,20 20,20 20,42"/>
    <polygon points="28,42 28,20 32,20 32,42"/>
    </g>
    <g stroke="#301119" stroke-width="3" stroke-linecap="round" stroke-linejoin="round" transform="translate(1,1)">
    <path d="M10 20 L10 42 L38 42 L38 20 Z"/>
    <path d="M10 20 Q24 8 38 20"/>
    <polygon points="24,8 18,16 30,16"/>
    <polygon points="16,42 16,20 20,20 20,42"/>
    <polygon points="28,42 28,20 32,20 32,42"/>
    </g>
    <g stroke="url(#g)" stroke-width="1.5" stroke-linecap="round" stroke-linejoin="round">
    <path d="M10 20 L10 42 L38 42 L38 20 Z"/>
    <path d="M10 20 Q24 8 38 20"/>
    <polygon points="24,8 18,16 30,16"/>
    <polygon points="16,42 16,20 20,20 20,42"/>
    <polygon points="28,42 28,20 32,20 32,42"/>
    </g>
  </g>
</svg>