<svg xmlns="http://www.w3.org/2000/svg" viewBox="0 0 48 48">
  <defs>
    <linearGradient id="g" x1="0%" y1="0%" x2="100%" y2="100%">
      <stop offset="0%" stop-color="#a4d8af"/>
      <stop offset="100%" stop-color="#0d2a13"/>
    </linearGradient>
    <filter id="shadow" x="-30%" y="-30%" width="160%" height="160%">
      <feDropShadow dx="2.5" dy="3.5" stdDeviation="3" flood-color="#1a1a2e" flood-opacity="0.45"/>
    </filter>
  </defs>
  <g filter="url(#shadow)" fill="none">
    <g stroke="#061509" stroke-width="4.5" stroke-linecap="round" stroke-linejoin="round" transform="translate(2,2)">
    <ellipse cx="12" cy="32" rx="6" ry="10"/>
    <path d="M18 28 Q24 20 30 24 Q36 28 42 20"/>
    <circle cx="42" cy="20" r="3"/>
    <line x1="24" y1="20" x2="30" y2="14"/>
    </g>
    <g stroke="#0d2a13" stroke-width="3" stroke-linecap="round" stroke-linejoin="round" transform="translate(1,1)">
    <ellipse cx="12" cy="32" rx="6" ry="10"/>
    <path d="M18 28 Q24 20 30 24 Q36 28 42 20"/>
    <circle cx="42" cy="20" r="3"/>
    <line x1="24" y1="20" x2="30" y2="14"/>
    </g>
    <g stroke="url(#g)" stroke-width="1.5" stroke-linecap="round" stroke-linejoin="round">
    <ellipse cx="12" cy="32" rx="6" ry="10"/>
    <path d="M18 28 Q24 20 30 24 Q36 28 42 20"/>
    <circle cx="42" cy="20" r="3"/>
    <line x1="24" y1="20" x2="30" y2="14"/>
    </g>
  </g>
</svg>