<svg xmlns="http://www.w3.org/2000/svg" viewBox="0 0 48 48">
  <defs>
    <linearGradient id="g" x1="0%" y1="0%" x2="100%" y2="100%">
      <stop offset="0%" stop-color="#d6d5a2"/>
      <stop offset="100%" stop-color="#5a591a"/>
    </linearGradient>
    <filter id="sh" x="-30%" y="-30%" width="160%" height="160%">
      <feDropShadow dx="2.5" dy="3.5" stdDeviation="3" flood-color="#1a1a2e" flood-opacity="0.45"/>
    </filter>
  </defs>
  <g filter="url(#sh)" fill="none">
    <g stroke="#29280c" stroke-width="4.5" stroke-linecap="round" stroke-linejoin="round" transform="translate(2,2)">
<rect x="8" y="18" width="32" height="26"/>
        <polygon points="4,18 24,4 44,18"/>
        <rect x="14" y="28" width="10" height="10" rx="1"/>
        <rect x="28" y="28" width="6" height="6" rx="1"/>
    </g>
    <g stroke="#5a591a" stroke-width="3" stroke-linecap="round" stroke-linejoin="round" transform="translate(1,1)">
<rect x="8" y="18" width="32" height="26"/>
        <polygon points="4,18 24,4 44,18"/>
        <rect x="14" y="28" width="10" height="10" rx="1"/>
        <rect x="28" y="28" width="6" height="6" rx="1"/>
    </g>
    <g stroke="url(#g)" stroke-width="1.5" stroke-linecap="round" stroke-linejoin="round">
<rect x="8" y="18" width="32" height="26"/>
        <polygon points="4,18 24,4 44,18"/>
        <rect x="14" y="28" width="10" height="10" rx="1"/>
        <rect x="28" y="28" width="6" height="6" rx="1"/>
    </g>
  </g>
</svg>