<svg xmlns="http://www.w3.org/2000/svg" viewBox="0 0 48 48">
  <defs>
    <linearGradient id="g" x1="0%" y1="0%" x2="100%" y2="100%">
      <stop offset="0%" stop-color="#c5acdc"/>
      <stop offset="100%" stop-color="#1f112c"/>
    </linearGradient>
    <filter id="shadow" x="-30%" y="-30%" width="160%" height="160%">
      <feDropShadow dx="2.5" dy="3.5" stdDeviation="3" flood-color="#1a1a2e" flood-opacity="0.45"/>
    </filter>
  </defs>
  <g filter="url(#shadow)" fill="none">
    <g stroke="#0f0816" stroke-width="4.5" stroke-linecap="round" stroke-linejoin="round" transform="translate(2,2)">
    <circle cx="24" cy="24" r="16"/>
    <circle cx="18" cy="20" r="3" fill="currentColor"/>
    <circle cx="30" cy="20" r="3" fill="currentColor"/>
    <path d="M12 28 Q8 24 8 30 Q12 34 16 30 M36 28 Q40 24 40 30 Q36 34 32 30"/>
    </g>
    <g stroke="#1f112c" stroke-width="3" stroke-linecap="round" stroke-linejoin="round" transform="translate(1,1)">
    <circle cx="24" cy="24" r="16"/>
    <circle cx="18" cy="20" r="3" fill="currentColor"/>
    <circle cx="30" cy="20" r="3" fill="currentColor"/>
    <path d="M12 28 Q8 24 8 30 Q12 34 16 30 M36 28 Q40 24 40 30 Q36 34 32 30"/>
    </g>
    <g stroke="url(#g)" stroke-width="1.5" stroke-linecap="round" stroke-linejoin="round">
    <circle cx="24" cy="24" r="16"/>
    <circle cx="18" cy="20" r="3" fill="currentColor"/>
    <circle cx="30" cy="20" r="3" fill="currentColor"/>
    <path d="M12 28 Q8 24 8 30 Q12 34 16 30 M36 28 Q40 24 40 30 Q36 34 32 30"/>
    </g>
  </g>
</svg>