<svg xmlns="http://www.w3.org/2000/svg" viewBox="0 0 48 48">
  <defs>
    <linearGradient id="g" x1="0%" y1="0%" x2="100%" y2="100%">
      <stop offset="0%" stop-color="#bcc6b2"/>
      <stop offset="100%" stop-color="#1b2015"/>
    </linearGradient>
    <filter id="shadow" x="-30%" y="-30%" width="160%" height="160%">
      <feDropShadow dx="2.5" dy="3.5" stdDeviation="3" flood-color="#1a1a2e" flood-opacity="0.45"/>
    </filter>
  </defs>
  <g filter="url(#shadow)" fill="none">
    <g stroke="#0d100a" stroke-width="4.5" stroke-linecap="round" stroke-linejoin="round" transform="translate(2,2)">
    <ellipse cx="24" cy="24" rx="13" ry="9"/>
    <ellipse cx="24" cy="16" rx="7" ry="5"/>
    <circle cx="19" cy="14" r="2"/>
    <circle cx="29" cy="14" r="2"/>
    <path d="M16 24 L12 22 M32 24 L36 22"/>
    <path d="M20 28 Q24 32 28 28"/>
    </g>
    <g stroke="#1b2015" stroke-width="3" stroke-linecap="round" stroke-linejoin="round" transform="translate(1,1)">
    <ellipse cx="24" cy="24" rx="13" ry="9"/>
    <ellipse cx="24" cy="16" rx="7" ry="5"/>
    <circle cx="19" cy="14" r="2"/>
    <circle cx="29" cy="14" r="2"/>
    <path d="M16 24 L12 22 M32 24 L36 22"/>
    <path d="M20 28 Q24 32 28 28"/>
    </g>
    <g stroke="url(#g)" stroke-width="1.5" stroke-linecap="round" stroke-linejoin="round">
    <ellipse cx="24" cy="24" rx="13" ry="9"/>
    <ellipse cx="24" cy="16" rx="7" ry="5"/>
    <circle cx="19" cy="14" r="2"/>
    <circle cx="29" cy="14" r="2"/>
    <path d="M16 24 L12 22 M32 24 L36 22"/>
    <path d="M20 28 Q24 32 28 28"/>
    </g>
  </g>
</svg>