<svg xmlns="http://www.w3.org/2000/svg" viewBox="0 0 48 48">
  <defs>
    <linearGradient id="g" x1="0%" y1="0%" x2="100%" y2="100%">
      <stop offset="0%" stop-color="#cccaa0"/>
      <stop offset="100%" stop-color="#23220b"/>
    </linearGradient>
    <filter id="shadow" x="-30%" y="-30%" width="160%" height="160%">
      <feDropShadow dx="2.5" dy="3.5" stdDeviation="3" flood-color="#1a1a2e" flood-opacity="0.45"/>
    </filter>
  </defs>
  <g filter="url(#shadow)" fill="none">
    <g stroke="#111105" stroke-width="4.5" stroke-linecap="round" stroke-linejoin="round" transform="translate(2,2)">
    <ellipse cx="24" cy="24" rx="9" ry="7"/>
    <ellipse cx="24" cy="16" rx="5" ry="4"/>
    <circle cx="22" cy="14" r="1.5"/>
    <path d="M18 10 Q14 2 18 6 M18 6 Q12 0 16 4"/>
    <path d="M30 10 Q34 2 30 6 M30 6 Q36 0 32 4"/>
    <line x1="16" y1="28" x2="10" y2="44"/>
    <line x1="32" y1="28" x2="38" y2="44"/>
    </g>
    <g stroke="#23220b" stroke-width="3" stroke-linecap="round" stroke-linejoin="round" transform="translate(1,1)">
    <ellipse cx="24" cy="24" rx="9" ry="7"/>
    <ellipse cx="24" cy="16" rx="5" ry="4"/>
    <circle cx="22" cy="14" r="1.5"/>
    <path d="M18 10 Q14 2 18 6 M18 6 Q12 0 16 4"/>
    <path d="M30 10 Q34 2 30 6 M30 6 Q36 0 32 4"/>
    <line x1="16" y1="28" x2="10" y2="44"/>
    <line x1="32" y1="28" x2="38" y2="44"/>
    </g>
    <g stroke="url(#g)" stroke-width="1.5" stroke-linecap="round" stroke-linejoin="round">
    <ellipse cx="24" cy="24" rx="9" ry="7"/>
    <ellipse cx="24" cy="16" rx="5" ry="4"/>
    <circle cx="22" cy="14" r="1.5"/>
    <path d="M18 10 Q14 2 18 6 M18 6 Q12 0 16 4"/>
    <path d="M30 10 Q34 2 30 6 M30 6 Q36 0 32 4"/>
    <line x1="16" y1="28" x2="10" y2="44"/>
    <line x1="32" y1="28" x2="38" y2="44"/>
    </g>
  </g>
</svg>