<svg xmlns="http://www.w3.org/2000/svg" viewBox="0 0 48 48">
  <defs>
    <linearGradient id="g" x1="0%" y1="0%" x2="100%" y2="100%">
      <stop offset="0%" stop-color="#c0a9bd"/>
      <stop offset="100%" stop-color="#1d101b"/>
    </linearGradient>
    <filter id="shadow" x="-30%" y="-30%" width="160%" height="160%">
      <feDropShadow dx="2.5" dy="3.5" stdDeviation="3" flood-color="#1a1a2e" flood-opacity="0.45"/>
    </filter>
  </defs>
  <g filter="url(#shadow)" fill="none">
    <g stroke="#0e080d" stroke-width="4.5" stroke-linecap="round" stroke-linejoin="round" transform="translate(2,2)">
    <polygon points="12,4 20,44 24,44 24,20 28,4"/>
    <polygon points="24,20 24,44 28,44 36,8 28,8"/>
    <polygon points="16,8 12,4 28,4 24,8"/>
    </g>
    <g stroke="#1d101b" stroke-width="3" stroke-linecap="round" stroke-linejoin="round" transform="translate(1,1)">
    <polygon points="12,4 20,44 24,44 24,20 28,4"/>
    <polygon points="24,20 24,44 28,44 36,8 28,8"/>
    <polygon points="16,8 12,4 28,4 24,8"/>
    </g>
    <g stroke="url(#g)" stroke-width="1.5" stroke-linecap="round" stroke-linejoin="round">
    <polygon points="12,4 20,44 24,44 24,20 28,4"/>
    <polygon points="24,20 24,44 28,44 36,8 28,8"/>
    <polygon points="16,8 12,4 28,4 24,8"/>
    </g>
  </g>
</svg>