<svg xmlns="http://www.w3.org/2000/svg" viewBox="0 0 48 48">
  <defs>
    <linearGradient id="g" x1="0%" y1="0%" x2="100%" y2="100%">
      <stop offset="0%" stop-color="#b7cdae"/>
      <stop offset="100%" stop-color="#172412"/>
    </linearGradient>
    <filter id="shadow" x="-30%" y="-30%" width="160%" height="160%">
      <feDropShadow dx="2.5" dy="3.5" stdDeviation="3" flood-color="#1a1a2e" flood-opacity="0.45"/>
    </filter>
  </defs>
  <g filter="url(#shadow)" fill="none">
    <g stroke="#0b1209" stroke-width="4.5" stroke-linecap="round" stroke-linejoin="round" transform="translate(2,2)">
    <path d="M6 44 Q6 14 24 14 Q42 14 42 44 Z"/>
    <path d="M12 44 Q12 24 24 24 Q36 24 36 44"/>
    <path d="M24 14 L24 44"/>
    <rect x="18" y="34" width="12" height="10" rx="4"/>
    </g>
    <g stroke="#172412" stroke-width="3" stroke-linecap="round" stroke-linejoin="round" transform="translate(1,1)">
    <path d="M6 44 Q6 14 24 14 Q42 14 42 44 Z"/>
    <path d="M12 44 Q12 24 24 24 Q36 24 36 44"/>
    <path d="M24 14 L24 44"/>
    <rect x="18" y="34" width="12" height="10" rx="4"/>
    </g>
    <g stroke="url(#g)" stroke-width="1.5" stroke-linecap="round" stroke-linejoin="round">
    <path d="M6 44 Q6 14 24 14 Q42 14 42 44 Z"/>
    <path d="M12 44 Q12 24 24 24 Q36 24 36 44"/>
    <path d="M24 14 L24 44"/>
    <rect x="18" y="34" width="12" height="10" rx="4"/>
    </g>
  </g>
</svg>