<svg xmlns="http://www.w3.org/2000/svg" viewBox="0 0 48 48">
  <defs>
    <linearGradient id="g" x1="0%" y1="0%" x2="100%" y2="100%">
      <stop offset="0%" stop-color="#c6b5d1"/>
      <stop offset="100%" stop-color="#473254"/>
    </linearGradient>
    <filter id="sh" x="-30%" y="-30%" width="160%" height="160%">
      <feDropShadow dx="2.5" dy="3.5" stdDeviation="3" flood-color="#1a1a2e" flood-opacity="0.45"/>
    </filter>
  </defs>
  <g filter="url(#sh)" fill="none">
    <g stroke="#201626" stroke-width="4.5" stroke-linecap="round" stroke-linejoin="round" transform="translate(2,2)">
<ellipse cx="24" cy="24" rx="8" ry="12"/><path d="M16 14 Q24 6 32 14"/><circle cx="20" cy="22" r="2"/><circle cx="28" cy="22" r="2"/><path d="M16 28 L10 38"/><path d="M32 28 L38 38"/><line x1="10" y1="38" x2="14" y2="40"/><line x1="38" y1="38" x2="34" y2="40"/>
    </g>
    <g stroke="#473254" stroke-width="3" stroke-linecap="round" stroke-linejoin="round" transform="translate(1,1)">
<ellipse cx="24" cy="24" rx="8" ry="12"/><path d="M16 14 Q24 6 32 14"/><circle cx="20" cy="22" r="2"/><circle cx="28" cy="22" r="2"/><path d="M16 28 L10 38"/><path d="M32 28 L38 38"/><line x1="10" y1="38" x2="14" y2="40"/><line x1="38" y1="38" x2="34" y2="40"/>
    </g>
    <g stroke="url(#g)" stroke-width="1.5" stroke-linecap="round" stroke-linejoin="round">
<ellipse cx="24" cy="24" rx="8" ry="12"/><path d="M16 14 Q24 6 32 14"/><circle cx="20" cy="22" r="2"/><circle cx="28" cy="22" r="2"/><path d="M16 28 L10 38"/><path d="M32 28 L38 38"/><line x1="10" y1="38" x2="14" y2="40"/><line x1="38" y1="38" x2="34" y2="40"/>
    </g>
  </g>
</svg>