<svg xmlns="http://www.w3.org/2000/svg" viewBox="0 0 48 48">
  <defs>
    <linearGradient id="g" x1="0%" y1="0%" x2="100%" y2="100%">
      <stop offset="0%" stop-color="#a0c3c0"/>
      <stop offset="100%" stop-color="#0b1e1d"/>
    </linearGradient>
    <filter id="shadow" x="-30%" y="-30%" width="160%" height="160%">
      <feDropShadow dx="2.5" dy="3.5" stdDeviation="3" flood-color="#1a1a2e" flood-opacity="0.45"/>
    </filter>
  </defs>
  <g filter="url(#shadow)" fill="none">
    <g stroke="#050f0e" stroke-width="4.5" stroke-linecap="round" stroke-linejoin="round" transform="translate(2,2)">
    <path d="M6 34 L10 22 Q12 16 20 16 L36 16 Q42 16 42 22 L38 34 Z"/>
    <rect x="6" y="34" width="36" height="6" rx="2"/>
    <ellipse cx="24" cy="16" rx="4" ry="2"/>
    <line x1="14" y1="18" x2="22" y2="18 M26 18 L34 18"/>
    </g>
    <g stroke="#0b1e1d" stroke-width="3" stroke-linecap="round" stroke-linejoin="round" transform="translate(1,1)">
    <path d="M6 34 L10 22 Q12 16 20 16 L36 16 Q42 16 42 22 L38 34 Z"/>
    <rect x="6" y="34" width="36" height="6" rx="2"/>
    <ellipse cx="24" cy="16" rx="4" ry="2"/>
    <line x1="14" y1="18" x2="22" y2="18 M26 18 L34 18"/>
    </g>
    <g stroke="url(#g)" stroke-width="1.5" stroke-linecap="round" stroke-linejoin="round">
    <path d="M6 34 L10 22 Q12 16 20 16 L36 16 Q42 16 42 22 L38 34 Z"/>
    <rect x="6" y="34" width="36" height="6" rx="2"/>
    <ellipse cx="24" cy="16" rx="4" ry="2"/>
    <line x1="14" y1="18" x2="22" y2="18 M26 18 L34 18"/>
    </g>
  </g>
</svg>