<svg xmlns="http://www.w3.org/2000/svg" viewBox="0 0 48 48">
  <defs>
    <linearGradient id="g" x1="0%" y1="0%" x2="100%" y2="100%">
      <stop offset="0%" stop-color="#bddcbc"/>
      <stop offset="100%" stop-color="#1b2c1a"/>
    </linearGradient>
    <filter id="shadow" x="-30%" y="-30%" width="160%" height="160%">
      <feDropShadow dx="2.5" dy="3.5" stdDeviation="3" flood-color="#1a1a2e" flood-opacity="0.45"/>
    </filter>
  </defs>
  <g filter="url(#shadow)" fill="none">
    <g stroke="#0d160d" stroke-width="4.5" stroke-linecap="round" stroke-linejoin="round" transform="translate(2,2)">
    <rect x="16" y="6" width="16" height="28" rx="4"/>
    <rect x="10" y="34" width="28" height="8" rx="3"/>
    <line x1="10" y1="34" x2="10" y2="4 M38 34 L38 4"/>
    <line x1="10" y1="10" x2="38" y2="10 M10 18 L38 18 M10 26 L38 26"/>
    </g>
    <g stroke="#1b2c1a" stroke-width="3" stroke-linecap="round" stroke-linejoin="round" transform="translate(1,1)">
    <rect x="16" y="6" width="16" height="28" rx="4"/>
    <rect x="10" y="34" width="28" height="8" rx="3"/>
    <line x1="10" y1="34" x2="10" y2="4 M38 34 L38 4"/>
    <line x1="10" y1="10" x2="38" y2="10 M10 18 L38 18 M10 26 L38 26"/>
    </g>
    <g stroke="url(#g)" stroke-width="1.5" stroke-linecap="round" stroke-linejoin="round">
    <rect x="16" y="6" width="16" height="28" rx="4"/>
    <rect x="10" y="34" width="28" height="8" rx="3"/>
    <line x1="10" y1="34" x2="10" y2="4 M38 34 L38 4"/>
    <line x1="10" y1="10" x2="38" y2="10 M10 18 L38 18 M10 26 L38 26"/>
    </g>
  </g>
</svg>