<svg xmlns="http://www.w3.org/2000/svg" viewBox="0 0 48 48">
  <defs>
    <linearGradient id="iconGrad" x1="0%" y1="0%" x2="100%" y2="100%">
      <stop offset="0%" stop-color="#78909C"/>
      <stop offset="100%" stop-color="#1E272B"/>
    </linearGradient>
    <filter id="shadow" x="-30%" y="-30%" width="160%" height="160%">
      <feDropShadow dx="2.5" dy="3.5" stdDeviation="3" flood-color="#1a1a2e" flood-opacity="0.45"/>
    </filter>
  </defs>
  <g filter="url(#shadow)" fill="none">
    <g stroke="#0F1315" stroke-width="4.5" stroke-linecap="round" stroke-linejoin="round" transform="translate(2,2)">
      <path d="M24 12 C16 12 10 16 10 24 C10 30 14 34 16 38 L16 40 L32 40 L32 38 C34 34 38 30 38 24 C38 16 32 12 24 12 Z"/>
      <circle cx="18" cy="22" r="3" fill="#607D8B"/>
      <circle cx="30" cy="22" r="3" fill="#607D8B"/>
      <path d="M22 26 L26 26 L24 30 Z"/>
      <line x1="14" y1="32" x2="34" y2="32"/>
      <line x1="10" y1="36" x2="38" y2="42"/>
      <line x1="38" y1="36" x2="10" y2="42"/>
    </g>
    <g stroke="#1E272B" stroke-width="3" stroke-linecap="round" stroke-linejoin="round" transform="translate(1,1)">
      <path d="M24 12 C16 12 10 16 10 24 C10 30 14 34 16 38 L16 40 L32 40 L32 38 C34 34 38 30 38 24 C38 16 32 12 24 12 Z"/>
      <circle cx="18" cy="22" r="3" fill="#607D8B"/>
      <circle cx="30" cy="22" r="3" fill="#607D8B"/>
      <path d="M22 26 L26 26 L24 30 Z"/>
      <line x1="14" y1="32" x2="34" y2="32"/>
      <line x1="10" y1="36" x2="38" y2="42"/>
      <line x1="38" y1="36" x2="10" y2="42"/>
    </g>
    <g stroke="url(#iconGrad)" stroke-width="1.5" stroke-linecap="round" stroke-linejoin="round">
      <path d="M24 12 C16 12 10 16 10 24 C10 30 14 34 16 38 L16 40 L32 40 L32 38 C34 34 38 30 38 24 C38 16 32 12 24 12 Z"/>
      <circle cx="18" cy="22" r="3" fill="#607D8B"/>
      <circle cx="30" cy="22" r="3" fill="#607D8B"/>
      <path d="M22 26 L26 26 L24 30 Z"/>
      <line x1="14" y1="32" x2="34" y2="32"/>
      <line x1="10" y1="36" x2="38" y2="42"/>
      <line x1="38" y1="36" x2="10" y2="42"/>
    </g>
  </g>
</svg>