<svg xmlns="http://www.w3.org/2000/svg" viewBox="0 0 48 48">
  <defs>
    <linearGradient id="iconGrad" x1="0%" y1="0%" x2="100%" y2="100%">
      <stop offset="0%" stop-color="#EF9A9A"/>
      <stop offset="100%" stop-color="#7d3f3f"/>
    </linearGradient>
    <filter id="shadow" x="-30%" y="-30%" width="160%" height="160%">
      <feDropShadow dx="2.5" dy="3.5" stdDeviation="3" flood-color="#1a1a2e" flood-opacity="0.45"/>
    </filter>
  </defs>
  <g filter="url(#shadow)" fill="none">
    <g stroke="#3e1f1f" stroke-width="4.5" stroke-linecap="round" stroke-linejoin="round" transform="translate(2,2)">
      <rect x="12" y="32" width="24" height="10" rx="4"/>
      <line x1="24" y1="32" x2="24" y2="14"/>
      <circle cx="24" cy="12" r="5"/>
      <circle cx="17" cy="39" r="1.5" fill="#607D8B"/>
      <circle cx="24" cy="39" r="1.5" fill="#607D8B"/>
    </g>
    <g stroke="#7d3f3f" stroke-width="3" stroke-linecap="round" stroke-linejoin="round" transform="translate(1,1)">
      <rect x="12" y="32" width="24" height="10" rx="4"/>
      <line x1="24" y1="32" x2="24" y2="14"/>
      <circle cx="24" cy="12" r="5"/>
      <circle cx="17" cy="39" r="1.5" fill="#607D8B"/>
      <circle cx="24" cy="39" r="1.5" fill="#607D8B"/>
    </g>
    <g stroke="url(#iconGrad)" stroke-width="1.5" stroke-linecap="round" stroke-linejoin="round">
      <rect x="12" y="32" width="24" height="10" rx="4"/>
      <line x1="24" y1="32" x2="24" y2="14"/>
      <circle cx="24" cy="12" r="5"/>
      <circle cx="17" cy="39" r="1.5" fill="#607D8B"/>
      <circle cx="24" cy="39" r="1.5" fill="#607D8B"/>
    </g>
  </g>
</svg>