<svg xmlns="http://www.w3.org/2000/svg" viewBox="0 0 48 48">
  <defs>
    <linearGradient id="g" x1="0%" y1="0%" x2="100%" y2="100%">
      <stop offset="0%" stop-color="#d0dcbc"/>
      <stop offset="100%" stop-color="#252c1a"/>
    </linearGradient>
    <filter id="shadow" x="-30%" y="-30%" width="160%" height="160%">
      <feDropShadow dx="2.5" dy="3.5" stdDeviation="3" flood-color="#1a1a2e" flood-opacity="0.45"/>
    </filter>
  </defs>
  <g filter="url(#shadow)" fill="none">
    <g stroke="#12160d" stroke-width="4.5" stroke-linecap="round" stroke-linejoin="round" transform="translate(2,2)">
    <ellipse cx="24" cy="18" rx="8" ry="6"/>
    <path d="M16 18 L14 40 L34 40 L32 18"/>
    <path d="M32 20 L38 18 L40 24 L32 26"/>
    </g>
    <g stroke="#252c1a" stroke-width="3" stroke-linecap="round" stroke-linejoin="round" transform="translate(1,1)">
    <ellipse cx="24" cy="18" rx="8" ry="6"/>
    <path d="M16 18 L14 40 L34 40 L32 18"/>
    <path d="M32 20 L38 18 L40 24 L32 26"/>
    </g>
    <g stroke="url(#g)" stroke-width="1.5" stroke-linecap="round" stroke-linejoin="round">
    <ellipse cx="24" cy="18" rx="8" ry="6"/>
    <path d="M16 18 L14 40 L34 40 L32 18"/>
    <path d="M32 20 L38 18 L40 24 L32 26"/>
    </g>
  </g>
</svg>