<svg xmlns="http://www.w3.org/2000/svg" viewBox="0 0 48 48">
  <defs>
    <linearGradient id="g" x1="0%" y1="0%" x2="100%" y2="100%">
      <stop offset="0%" stop-color="#d1b2b3"/>
      <stop offset="100%" stop-color="#542e2f"/>
    </linearGradient>
    <filter id="sh" x="-30%" y="-30%" width="160%" height="160%">
      <feDropShadow dx="2.5" dy="3.5" stdDeviation="3" flood-color="#1a1a2e" flood-opacity="0.45"/>
    </filter>
  </defs>
  <g filter="url(#sh)" fill="none">
    <g stroke="#261515" stroke-width="4.5" stroke-linecap="round" stroke-linejoin="round" transform="translate(2,2)">
<rect x="8" y="6" width="32" height="32" rx="4"/>
        <line x1="8" y1="20" x2="40" y2="20"/>
        <rect x="10" y="22" width="10" height="14" rx="1"/>
        <rect x="28" y="22" width="10" height="14" rx="1"/>
        <circle cx="24" cy="10" r="3"/>
    </g>
    <g stroke="#542e2f" stroke-width="3" stroke-linecap="round" stroke-linejoin="round" transform="translate(1,1)">
<rect x="8" y="6" width="32" height="32" rx="4"/>
        <line x1="8" y1="20" x2="40" y2="20"/>
        <rect x="10" y="22" width="10" height="14" rx="1"/>
        <rect x="28" y="22" width="10" height="14" rx="1"/>
        <circle cx="24" cy="10" r="3"/>
    </g>
    <g stroke="url(#g)" stroke-width="1.5" stroke-linecap="round" stroke-linejoin="round">
<rect x="8" y="6" width="32" height="32" rx="4"/>
        <line x1="8" y1="20" x2="40" y2="20"/>
        <rect x="10" y="22" width="10" height="14" rx="1"/>
        <rect x="28" y="22" width="10" height="14" rx="1"/>
        <circle cx="24" cy="10" r="3"/>
    </g>
  </g>
</svg>