<svg xmlns="http://www.w3.org/2000/svg" viewBox="0 0 48 48">
  <defs>
    <linearGradient id="g" x1="0%" y1="0%" x2="100%" y2="100%">
      <stop offset="0%" stop-color="#babfa8"/>
      <stop offset="100%" stop-color="#191c0f"/>
    </linearGradient>
    <filter id="shadow" x="-30%" y="-30%" width="160%" height="160%">
      <feDropShadow dx="2.5" dy="3.5" stdDeviation="3" flood-color="#1a1a2e" flood-opacity="0.45"/>
    </filter>
  </defs>
  <g filter="url(#shadow)" fill="none">
    <g stroke="#0c0e07" stroke-width="4.5" stroke-linecap="round" stroke-linejoin="round" transform="translate(2,2)">
    <path d="M4 24 L4 44 M14 14 L14 44 M24 8 L24 44 M34 16 L34 44 M44 22 L44 44"/>
    <ellipse cx="14" cy="10" rx="6" ry="4"/>
    <ellipse cx="24" cy="6" rx="7" ry="4"/>
    <ellipse cx="34" cy="12" rx="5" ry="4"/>
    <ellipse cx="44" cy="18" rx="4" ry="3"/>
    </g>
    <g stroke="#191c0f" stroke-width="3" stroke-linecap="round" stroke-linejoin="round" transform="translate(1,1)">
    <path d="M4 24 L4 44 M14 14 L14 44 M24 8 L24 44 M34 16 L34 44 M44 22 L44 44"/>
    <ellipse cx="14" cy="10" rx="6" ry="4"/>
    <ellipse cx="24" cy="6" rx="7" ry="4"/>
    <ellipse cx="34" cy="12" rx="5" ry="4"/>
    <ellipse cx="44" cy="18" rx="4" ry="3"/>
    </g>
    <g stroke="url(#g)" stroke-width="1.5" stroke-linecap="round" stroke-linejoin="round">
    <path d="M4 24 L4 44 M14 14 L14 44 M24 8 L24 44 M34 16 L34 44 M44 22 L44 44"/>
    <ellipse cx="14" cy="10" rx="6" ry="4"/>
    <ellipse cx="24" cy="6" rx="7" ry="4"/>
    <ellipse cx="34" cy="12" rx="5" ry="4"/>
    <ellipse cx="44" cy="18" rx="4" ry="3"/>
    </g>
  </g>
</svg>