<svg xmlns="http://www.w3.org/2000/svg" viewBox="0 0 48 48">
  <defs>
    <linearGradient id="g" x1="0%" y1="0%" x2="100%" y2="100%">
      <stop offset="0%" stop-color="#bfcdb7"/>
      <stop offset="100%" stop-color="#3e4f35"/>
    </linearGradient>
    <filter id="sh" x="-30%" y="-30%" width="160%" height="160%">
      <feDropShadow dx="2.5" dy="3.5" stdDeviation="3" flood-color="#1a1a2e" flood-opacity="0.45"/>
    </filter>
  </defs>
  <g filter="url(#sh)" fill="none">
    <g stroke="#1c2418" stroke-width="4.5" stroke-linecap="round" stroke-linejoin="round" transform="translate(2,2)">
<path d="M24 12 L8 24 M24 12 L40 24 M24 12 L24 40"/><path d="M14 20 L8 16 M34 20 L40 16"/><path d="M18 18 L12 12 M30 18 L36 12"/><path d="M20 24 L14 28 M28 24 L34 28"/><path d="M20 30 L16 36 M28 30 L32 36"/><circle cx="24" cy="12" r="2"/>
    </g>
    <g stroke="#3e4f35" stroke-width="3" stroke-linecap="round" stroke-linejoin="round" transform="translate(1,1)">
<path d="M24 12 L8 24 M24 12 L40 24 M24 12 L24 40"/><path d="M14 20 L8 16 M34 20 L40 16"/><path d="M18 18 L12 12 M30 18 L36 12"/><path d="M20 24 L14 28 M28 24 L34 28"/><path d="M20 30 L16 36 M28 30 L32 36"/><circle cx="24" cy="12" r="2"/>
    </g>
    <g stroke="url(#g)" stroke-width="1.5" stroke-linecap="round" stroke-linejoin="round">
<path d="M24 12 L8 24 M24 12 L40 24 M24 12 L24 40"/><path d="M14 20 L8 16 M34 20 L40 16"/><path d="M18 18 L12 12 M30 18 L36 12"/><path d="M20 24 L14 28 M28 24 L34 28"/><path d="M20 30 L16 36 M28 30 L32 36"/><circle cx="24" cy="12" r="2"/>
    </g>
  </g>
</svg>