<svg xmlns="http://www.w3.org/2000/svg" viewBox="0 0 48 48">
  <defs>
    <linearGradient id="g" x1="0%" y1="0%" x2="100%" y2="100%">
      <stop offset="0%" stop-color="#a6dbd2"/>
      <stop offset="100%" stop-color="#206055"/>
    </linearGradient>
    <filter id="sh" x="-30%" y="-30%" width="160%" height="160%">
      <feDropShadow dx="2.5" dy="3.5" stdDeviation="3" flood-color="#1a1a2e" flood-opacity="0.45"/>
    </filter>
  </defs>
  <g filter="url(#sh)" fill="none">
    <g stroke="#0e2b27" stroke-width="4.5" stroke-linecap="round" stroke-linejoin="round" transform="translate(2,2)">
<ellipse cx="24" cy="30" rx="10" ry="14"/>
        <ellipse cx="12" cy="18" rx="8" ry="6"/>
        <ellipse cx="36" cy="18" rx="8" ry="6"/>
        <circle cx="18" cy="28" r="2"/>
        <circle cx="30" cy="28" r="2"/>
        <path d="M14 38 Q24 44 34 38"/>
        <circle cx="24" cy="24" r="2"/>
    </g>
    <g stroke="#206055" stroke-width="3" stroke-linecap="round" stroke-linejoin="round" transform="translate(1,1)">
<ellipse cx="24" cy="30" rx="10" ry="14"/>
        <ellipse cx="12" cy="18" rx="8" ry="6"/>
        <ellipse cx="36" cy="18" rx="8" ry="6"/>
        <circle cx="18" cy="28" r="2"/>
        <circle cx="30" cy="28" r="2"/>
        <path d="M14 38 Q24 44 34 38"/>
        <circle cx="24" cy="24" r="2"/>
    </g>
    <g stroke="url(#g)" stroke-width="1.5" stroke-linecap="round" stroke-linejoin="round">
<ellipse cx="24" cy="30" rx="10" ry="14"/>
        <ellipse cx="12" cy="18" rx="8" ry="6"/>
        <ellipse cx="36" cy="18" rx="8" ry="6"/>
        <circle cx="18" cy="28" r="2"/>
        <circle cx="30" cy="28" r="2"/>
        <path d="M14 38 Q24 44 34 38"/>
        <circle cx="24" cy="24" r="2"/>
    </g>
  </g>
</svg>