<svg xmlns="http://www.w3.org/2000/svg" viewBox="0 0 48 48">
  <defs>
    <linearGradient id="g" x1="0%" y1="0%" x2="100%" y2="100%">
      <stop offset="0%" stop-color="#acd2ac"/>
      <stop offset="100%" stop-color="#275527"/>
    </linearGradient>
    <filter id="sh" x="-30%" y="-30%" width="160%" height="160%">
      <feDropShadow dx="2.5" dy="3.5" stdDeviation="3" flood-color="#1a1a2e" flood-opacity="0.45"/>
    </filter>
  </defs>
  <g filter="url(#sh)" fill="none">
    <g stroke="#122611" stroke-width="4.5" stroke-linecap="round" stroke-linejoin="round" transform="translate(2,2)">
<path d="M8 34 Q8 6 24 6 Q40 6 40 34"/>
        <line x1="14" y1="28" x2="14" y2="38"/>
        <line x1="34" y1="28" x2="34" y2="38"/>
        <line x1="14" y1="38" x2="34" y2="38"/>
    </g>
    <g stroke="#275527" stroke-width="3" stroke-linecap="round" stroke-linejoin="round" transform="translate(1,1)">
<path d="M8 34 Q8 6 24 6 Q40 6 40 34"/>
        <line x1="14" y1="28" x2="14" y2="38"/>
        <line x1="34" y1="28" x2="34" y2="38"/>
        <line x1="14" y1="38" x2="34" y2="38"/>
    </g>
    <g stroke="url(#g)" stroke-width="1.5" stroke-linecap="round" stroke-linejoin="round">
<path d="M8 34 Q8 6 24 6 Q40 6 40 34"/>
        <line x1="14" y1="28" x2="14" y2="38"/>
        <line x1="34" y1="28" x2="34" y2="38"/>
        <line x1="14" y1="38" x2="34" y2="38"/>
    </g>
  </g>
</svg>