<svg xmlns="http://www.w3.org/2000/svg" viewBox="0 0 48 48">
  <defs>
    <linearGradient id="g" x1="0%" y1="0%" x2="100%" y2="100%">
      <stop offset="0%" stop-color="#bcdfcb"/>
      <stop offset="100%" stop-color="#1a2e23"/>
    </linearGradient>
    <filter id="shadow" x="-30%" y="-30%" width="160%" height="160%">
      <feDropShadow dx="2.5" dy="3.5" stdDeviation="3" flood-color="#1a1a2e" flood-opacity="0.45"/>
    </filter>
  </defs>
  <g filter="url(#shadow)" fill="none">
    <g stroke="#0d1711" stroke-width="4.5" stroke-linecap="round" stroke-linejoin="round" transform="translate(2,2)">
    <rect x="4" y="32" width="40" height="12" rx="2"/>
    <line x1="4" y1="36" x2="44" y2="36 M4 40 L44 40"/>
    <rect x="10" y="32" width="6" height="4" rx="1"/>
    <rect x="18" y="32" width="6" height="4" rx="1"/>
    <rect x="26" y="32" width="6" height="4" rx="1"/>
    <rect x="34" y="32" width="6" height="4" rx="1"/>
    </g>
    <g stroke="#1a2e23" stroke-width="3" stroke-linecap="round" stroke-linejoin="round" transform="translate(1,1)">
    <rect x="4" y="32" width="40" height="12" rx="2"/>
    <line x1="4" y1="36" x2="44" y2="36 M4 40 L44 40"/>
    <rect x="10" y="32" width="6" height="4" rx="1"/>
    <rect x="18" y="32" width="6" height="4" rx="1"/>
    <rect x="26" y="32" width="6" height="4" rx="1"/>
    <rect x="34" y="32" width="6" height="4" rx="1"/>
    </g>
    <g stroke="url(#g)" stroke-width="1.5" stroke-linecap="round" stroke-linejoin="round">
    <rect x="4" y="32" width="40" height="12" rx="2"/>
    <line x1="4" y1="36" x2="44" y2="36 M4 40 L44 40"/>
    <rect x="10" y="32" width="6" height="4" rx="1"/>
    <rect x="18" y="32" width="6" height="4" rx="1"/>
    <rect x="26" y="32" width="6" height="4" rx="1"/>
    <rect x="34" y="32" width="6" height="4" rx="1"/>
    </g>
  </g>
</svg>