<svg xmlns="http://www.w3.org/2000/svg" viewBox="0 0 48 48">
  <defs>
    <linearGradient id="g" x1="0%" y1="0%" x2="100%" y2="100%">
      <stop offset="0%" stop-color="#b5bbe0"/>
      <stop offset="100%" stop-color="#171a2f"/>
    </linearGradient>
    <filter id="shadow" x="-30%" y="-30%" width="160%" height="160%">
      <feDropShadow dx="2.5" dy="3.5" stdDeviation="3" flood-color="#1a1a2e" flood-opacity="0.45"/>
    </filter>
  </defs>
  <g filter="url(#shadow)" fill="none">
    <g stroke="#0b0d17" stroke-width="4.5" stroke-linecap="round" stroke-linejoin="round" transform="translate(2,2)">
    <ellipse cx="24" cy="18" rx="5" ry="4"/>
    <circle cx="24" cy="12" r="3"/>
    <circle cx="22" cy="10" r="1.2"/>
    <path d="M28 14 Q34 10 36 14 Q34 18 28 16"/>
    <path d="M24 18 L24 44 M24 22 L18 22 M20 30 L28 30"/>
    </g>
    <g stroke="#171a2f" stroke-width="3" stroke-linecap="round" stroke-linejoin="round" transform="translate(1,1)">
    <ellipse cx="24" cy="18" rx="5" ry="4"/>
    <circle cx="24" cy="12" r="3"/>
    <circle cx="22" cy="10" r="1.2"/>
    <path d="M28 14 Q34 10 36 14 Q34 18 28 16"/>
    <path d="M24 18 L24 44 M24 22 L18 22 M20 30 L28 30"/>
    </g>
    <g stroke="url(#g)" stroke-width="1.5" stroke-linecap="round" stroke-linejoin="round">
    <ellipse cx="24" cy="18" rx="5" ry="4"/>
    <circle cx="24" cy="12" r="3"/>
    <circle cx="22" cy="10" r="1.2"/>
    <path d="M28 14 Q34 10 36 14 Q34 18 28 16"/>
    <path d="M24 18 L24 44 M24 22 L18 22 M20 30 L28 30"/>
    </g>
  </g>
</svg>