<svg xmlns="http://www.w3.org/2000/svg" viewBox="0 0 48 48">
  <defs>
    <linearGradient id="g" x1="0%" y1="0%" x2="100%" y2="100%">
      <stop offset="0%" stop-color="#bacfc0"/>
      <stop offset="100%" stop-color="#19251d"/>
    </linearGradient>
    <filter id="shadow" x="-30%" y="-30%" width="160%" height="160%">
      <feDropShadow dx="2.5" dy="3.5" stdDeviation="3" flood-color="#1a1a2e" flood-opacity="0.45"/>
    </filter>
  </defs>
  <g filter="url(#shadow)" fill="none">
    <g stroke="#0c120e" stroke-width="4.5" stroke-linecap="round" stroke-linejoin="round" transform="translate(2,2)">
    <path d="M6 40 Q6 6 20 6 Q24 6 24 10 L24 30 Q24 34 20 40 Z"/>
    <line x1="10" y1="40" x2="22" y2="40"/>
    <rect x="24" y="20" width="12" height="24" rx="2"/>
    </g>
    <g stroke="#19251d" stroke-width="3" stroke-linecap="round" stroke-linejoin="round" transform="translate(1,1)">
    <path d="M6 40 Q6 6 20 6 Q24 6 24 10 L24 30 Q24 34 20 40 Z"/>
    <line x1="10" y1="40" x2="22" y2="40"/>
    <rect x="24" y="20" width="12" height="24" rx="2"/>
    </g>
    <g stroke="url(#g)" stroke-width="1.5" stroke-linecap="round" stroke-linejoin="round">
    <path d="M6 40 Q6 6 20 6 Q24 6 24 10 L24 30 Q24 34 20 40 Z"/>
    <line x1="10" y1="40" x2="22" y2="40"/>
    <rect x="24" y="20" width="12" height="24" rx="2"/>
    </g>
  </g>
</svg>