<svg xmlns="http://www.w3.org/2000/svg" viewBox="0 0 48 48">
  <defs>
    <linearGradient id="g" x1="0%" y1="0%" x2="100%" y2="100%">
      <stop offset="0%" stop-color="#e3acab"/>
      <stop offset="100%" stop-color="#301211"/>
    </linearGradient>
    <filter id="shadow" x="-30%" y="-30%" width="160%" height="160%">
      <feDropShadow dx="2.5" dy="3.5" stdDeviation="3" flood-color="#1a1a2e" flood-opacity="0.45"/>
    </filter>
  </defs>
  <g filter="url(#shadow)" fill="none">
    <g stroke="#180908" stroke-width="4.5" stroke-linecap="round" stroke-linejoin="round" transform="translate(2,2)">
    <circle cx="24" cy="12" r="4"/>
    <circle cx="22" cy="10" r="1.5"/>
    <line x1="24" y1="16" x2="24" y2="44"/>
    <path d="M10 20 L24 24 L38 20 M10 28 L24 32 L38 28 M10 36 L24 40 L38 36"/>
    <line x1="10" y1="20" x2="6" y2="44 M38 20 L42 44"/>
    </g>
    <g stroke="#301211" stroke-width="3" stroke-linecap="round" stroke-linejoin="round" transform="translate(1,1)">
    <circle cx="24" cy="12" r="4"/>
    <circle cx="22" cy="10" r="1.5"/>
    <line x1="24" y1="16" x2="24" y2="44"/>
    <path d="M10 20 L24 24 L38 20 M10 28 L24 32 L38 28 M10 36 L24 40 L38 36"/>
    <line x1="10" y1="20" x2="6" y2="44 M38 20 L42 44"/>
    </g>
    <g stroke="url(#g)" stroke-width="1.5" stroke-linecap="round" stroke-linejoin="round">
    <circle cx="24" cy="12" r="4"/>
    <circle cx="22" cy="10" r="1.5"/>
    <line x1="24" y1="16" x2="24" y2="44"/>
    <path d="M10 20 L24 24 L38 20 M10 28 L24 32 L38 28 M10 36 L24 40 L38 36"/>
    <line x1="10" y1="20" x2="6" y2="44 M38 20 L42 44"/>
    </g>
  </g>
</svg>