<svg xmlns="http://www.w3.org/2000/svg" viewBox="0 0 48 48">
  <defs>
    <linearGradient id="g" x1="0%" y1="0%" x2="100%" y2="100%">
      <stop offset="0%" stop-color="#b7e5c1"/>
      <stop offset="100%" stop-color="#346c40"/>
    </linearGradient>
    <filter id="sh" x="-30%" y="-30%" width="160%" height="160%">
      <feDropShadow dx="2.5" dy="3.5" stdDeviation="3" flood-color="#1a1a2e" flood-opacity="0.45"/>
    </filter>
  </defs>
  <g filter="url(#sh)" fill="none">
    <g stroke="#17311d" stroke-width="4.5" stroke-linecap="round" stroke-linejoin="round" transform="translate(2,2)">
<path d="M6 30 Q6 6 24 6 Q42 6 42 30 Q42 40 30 42 L24 38 L18 42 Q6 40 6 30 Z"/>
        <circle cx="16" cy="22" r="3"/><circle cx="32" cy="22" r="3"/>
        <path d="M16 30 Q24 36 32 30"/>
    </g>
    <g stroke="#346c40" stroke-width="3" stroke-linecap="round" stroke-linejoin="round" transform="translate(1,1)">
<path d="M6 30 Q6 6 24 6 Q42 6 42 30 Q42 40 30 42 L24 38 L18 42 Q6 40 6 30 Z"/>
        <circle cx="16" cy="22" r="3"/><circle cx="32" cy="22" r="3"/>
        <path d="M16 30 Q24 36 32 30"/>
    </g>
    <g stroke="url(#g)" stroke-width="1.5" stroke-linecap="round" stroke-linejoin="round">
<path d="M6 30 Q6 6 24 6 Q42 6 42 30 Q42 40 30 42 L24 38 L18 42 Q6 40 6 30 Z"/>
        <circle cx="16" cy="22" r="3"/><circle cx="32" cy="22" r="3"/>
        <path d="M16 30 Q24 36 32 30"/>
    </g>
  </g>
</svg>