<svg xmlns="http://www.w3.org/2000/svg" viewBox="0 0 48 48">
  <defs>
    <linearGradient id="g" x1="0%" y1="0%" x2="100%" y2="100%">
      <stop offset="0%" stop-color="#b3c9c6"/>
      <stop offset="100%" stop-color="#162220"/>
    </linearGradient>
    <filter id="shadow" x="-30%" y="-30%" width="160%" height="160%">
      <feDropShadow dx="2.5" dy="3.5" stdDeviation="3" flood-color="#1a1a2e" flood-opacity="0.45"/>
    </filter>
  </defs>
  <g filter="url(#shadow)" fill="none">
    <g stroke="#0b1110" stroke-width="4.5" stroke-linecap="round" stroke-linejoin="round" transform="translate(2,2)">
    <path d="M14 42 L30 24 Q36 18 32 12 Q28 6 20 10 Q14 14 18 20 L14 42 Z"/>
    <line x1="14" y1="42" x2="10" y2="44 M14 42 L12 44"/>
    </g>
    <g stroke="#162220" stroke-width="3" stroke-linecap="round" stroke-linejoin="round" transform="translate(1,1)">
    <path d="M14 42 L30 24 Q36 18 32 12 Q28 6 20 10 Q14 14 18 20 L14 42 Z"/>
    <line x1="14" y1="42" x2="10" y2="44 M14 42 L12 44"/>
    </g>
    <g stroke="url(#g)" stroke-width="1.5" stroke-linecap="round" stroke-linejoin="round">
    <path d="M14 42 L30 24 Q36 18 32 12 Q28 6 20 10 Q14 14 18 20 L14 42 Z"/>
    <line x1="14" y1="42" x2="10" y2="44 M14 42 L12 44"/>
    </g>
  </g>
</svg>