<svg xmlns="http://www.w3.org/2000/svg" viewBox="0 0 48 48">
  <defs>
    <linearGradient id="g" x1="0%" y1="0%" x2="100%" y2="100%">
      <stop offset="0%" stop-color="#cce6c1"/>
      <stop offset="100%" stop-color="#23321d"/>
    </linearGradient>
    <filter id="shadow" x="-30%" y="-30%" width="160%" height="160%">
      <feDropShadow dx="2.5" dy="3.5" stdDeviation="3" flood-color="#1a1a2e" flood-opacity="0.45"/>
    </filter>
  </defs>
  <g filter="url(#shadow)" fill="none">
    <g stroke="#11190e" stroke-width="4.5" stroke-linecap="round" stroke-linejoin="round" transform="translate(2,2)">
    <rect x="4" y="16" width="28" height="8" rx="3"/>
    <rect x="32" y="14" width="10" height="16" rx="2"/>
    <circle cx="37" cy="22" r="3" fill="currentColor"/>
    <circle cx="12" cy="20" r="2" fill="currentColor"/>
    </g>
    <g stroke="#23321d" stroke-width="3" stroke-linecap="round" stroke-linejoin="round" transform="translate(1,1)">
    <rect x="4" y="16" width="28" height="8" rx="3"/>
    <rect x="32" y="14" width="10" height="16" rx="2"/>
    <circle cx="37" cy="22" r="3" fill="currentColor"/>
    <circle cx="12" cy="20" r="2" fill="currentColor"/>
    </g>
    <g stroke="url(#g)" stroke-width="1.5" stroke-linecap="round" stroke-linejoin="round">
    <rect x="4" y="16" width="28" height="8" rx="3"/>
    <rect x="32" y="14" width="10" height="16" rx="2"/>
    <circle cx="37" cy="22" r="3" fill="currentColor"/>
    <circle cx="12" cy="20" r="2" fill="currentColor"/>
    </g>
  </g>
</svg>