<svg xmlns="http://www.w3.org/2000/svg" viewBox="0 0 48 48">
  <defs>
    <linearGradient id="g" x1="0%" y1="0%" x2="100%" y2="100%">
      <stop offset="0%" stop-color="#baa0cd"/>
      <stop offset="100%" stop-color="#38194f"/>
    </linearGradient>
    <filter id="sh" x="-30%" y="-30%" width="160%" height="160%">
      <feDropShadow dx="2.5" dy="3.5" stdDeviation="3" flood-color="#1a1a2e" flood-opacity="0.45"/>
    </filter>
  </defs>
  <g filter="url(#sh)" fill="none">
    <g stroke="#190b24" stroke-width="4.5" stroke-linecap="round" stroke-linejoin="round" transform="translate(2,2)">
<circle cx="24" cy="24" r="18"/>
        <circle cx="14" cy="18" r="3"/>
        <circle cx="34" cy="18" r="3"/>
        <path d="M16 28 Q20 32 24 28 Q28 32 32 28"/>
        <circle cx="24" cy="34" r="2"/>
    </g>
    <g stroke="#38194f" stroke-width="3" stroke-linecap="round" stroke-linejoin="round" transform="translate(1,1)">
<circle cx="24" cy="24" r="18"/>
        <circle cx="14" cy="18" r="3"/>
        <circle cx="34" cy="18" r="3"/>
        <path d="M16 28 Q20 32 24 28 Q28 32 32 28"/>
        <circle cx="24" cy="34" r="2"/>
    </g>
    <g stroke="url(#g)" stroke-width="1.5" stroke-linecap="round" stroke-linejoin="round">
<circle cx="24" cy="24" r="18"/>
        <circle cx="14" cy="18" r="3"/>
        <circle cx="34" cy="18" r="3"/>
        <path d="M16 28 Q20 32 24 28 Q28 32 32 28"/>
        <circle cx="24" cy="34" r="2"/>
    </g>
  </g>
</svg>