<svg xmlns="http://www.w3.org/2000/svg" viewBox="0 0 48 48">
  <defs>
    <linearGradient id="g" x1="0%" y1="0%" x2="100%" y2="100%">
      <stop offset="0%" stop-color="#e4b5da"/>
      <stop offset="100%" stop-color="#31172b"/>
    </linearGradient>
    <filter id="shadow" x="-30%" y="-30%" width="160%" height="160%">
      <feDropShadow dx="2.5" dy="3.5" stdDeviation="3" flood-color="#1a1a2e" flood-opacity="0.45"/>
    </filter>
  </defs>
  <g filter="url(#shadow)" fill="none">
    <g stroke="#180b15" stroke-width="4.5" stroke-linecap="round" stroke-linejoin="round" transform="translate(2,2)">
    <path d="M8 14 L12 42 Q12 44 24 44 Q36 44 36 42 L40 14 Z"/>
    <ellipse cx="24" cy="14" rx="16" ry="6"/>
    <line x1="8" y1="22" x2="40" y2="22 M8 30 L40 30"/>
    </g>
    <g stroke="#31172b" stroke-width="3" stroke-linecap="round" stroke-linejoin="round" transform="translate(1,1)">
    <path d="M8 14 L12 42 Q12 44 24 44 Q36 44 36 42 L40 14 Z"/>
    <ellipse cx="24" cy="14" rx="16" ry="6"/>
    <line x1="8" y1="22" x2="40" y2="22 M8 30 L40 30"/>
    </g>
    <g stroke="url(#g)" stroke-width="1.5" stroke-linecap="round" stroke-linejoin="round">
    <path d="M8 14 L12 42 Q12 44 24 44 Q36 44 36 42 L40 14 Z"/>
    <ellipse cx="24" cy="14" rx="16" ry="6"/>
    <line x1="8" y1="22" x2="40" y2="22 M8 30 L40 30"/>
    </g>
  </g>
</svg>