<svg xmlns="http://www.w3.org/2000/svg" viewBox="0 0 48 48">
  <defs>
    <linearGradient id="g" x1="0%" y1="0%" x2="100%" y2="100%">
      <stop offset="0%" stop-color="#c4a1a4"/>
      <stop offset="100%" stop-color="#1f0c0d"/>
    </linearGradient>
    <filter id="shadow" x="-30%" y="-30%" width="160%" height="160%">
      <feDropShadow dx="2.5" dy="3.5" stdDeviation="3" flood-color="#1a1a2e" flood-opacity="0.45"/>
    </filter>
  </defs>
  <g filter="url(#shadow)" fill="none">
    <g stroke="#0f0606" stroke-width="4.5" stroke-linecap="round" stroke-linejoin="round" transform="translate(2,2)">
    <path d="M10 20 Q24 10 38 20 L38 36 Q24 44 10 36 Z"/>
    <path d="M10 28 L38 28"/>
    <path d="M24 14 L24 40"/>
    </g>
    <g stroke="#1f0c0d" stroke-width="3" stroke-linecap="round" stroke-linejoin="round" transform="translate(1,1)">
    <path d="M10 20 Q24 10 38 20 L38 36 Q24 44 10 36 Z"/>
    <path d="M10 28 L38 28"/>
    <path d="M24 14 L24 40"/>
    </g>
    <g stroke="url(#g)" stroke-width="1.5" stroke-linecap="round" stroke-linejoin="round">
    <path d="M10 20 Q24 10 38 20 L38 36 Q24 44 10 36 Z"/>
    <path d="M10 28 L38 28"/>
    <path d="M24 14 L24 40"/>
    </g>
  </g>
</svg>