<svg xmlns="http://www.w3.org/2000/svg" viewBox="0 0 48 48">
  <defs>
    <linearGradient id="g" x1="0%" y1="0%" x2="100%" y2="100%">
      <stop offset="0%" stop-color="#b0dfd4"/>
      <stop offset="100%" stop-color="#2c6658"/>
    </linearGradient>
    <filter id="sh" x="-30%" y="-30%" width="160%" height="160%">
      <feDropShadow dx="2.5" dy="3.5" stdDeviation="3" flood-color="#1a1a2e" flood-opacity="0.45"/>
    </filter>
  </defs>
  <g filter="url(#sh)" fill="none">
    <g stroke="#142e28" stroke-width="4.5" stroke-linecap="round" stroke-linejoin="round" transform="translate(2,2)">
<rect x="6" y="22" width="36" height="10" rx="2"/>
        <rect x="14" y="10" width="20" height="12" rx="2"/>
        <line x1="14" y1="14" x2="34" y2="14"/>
        <circle cx="14" cy="14" r="2"/>
        <circle cx="34" cy="14" r="2"/>
    </g>
    <g stroke="#2c6658" stroke-width="3" stroke-linecap="round" stroke-linejoin="round" transform="translate(1,1)">
<rect x="6" y="22" width="36" height="10" rx="2"/>
        <rect x="14" y="10" width="20" height="12" rx="2"/>
        <line x1="14" y1="14" x2="34" y2="14"/>
        <circle cx="14" cy="14" r="2"/>
        <circle cx="34" cy="14" r="2"/>
    </g>
    <g stroke="url(#g)" stroke-width="1.5" stroke-linecap="round" stroke-linejoin="round">
<rect x="6" y="22" width="36" height="10" rx="2"/>
        <rect x="14" y="10" width="20" height="12" rx="2"/>
        <line x1="14" y1="14" x2="34" y2="14"/>
        <circle cx="14" cy="14" r="2"/>
        <circle cx="34" cy="14" r="2"/>
    </g>
  </g>
</svg>