<svg xmlns="http://www.w3.org/2000/svg" viewBox="0 0 48 48">
  <defs>
    <linearGradient id="g" x1="0%" y1="0%" x2="100%" y2="100%">
      <stop offset="0%" stop-color="#bad6d7"/>
      <stop offset="100%" stop-color="#385b5c"/>
    </linearGradient>
    <filter id="sh" x="-30%" y="-30%" width="160%" height="160%">
      <feDropShadow dx="2.5" dy="3.5" stdDeviation="3" flood-color="#1a1a2e" flood-opacity="0.45"/>
    </filter>
  </defs>
  <g filter="url(#sh)" fill="none">
    <g stroke="#19292a" stroke-width="4.5" stroke-linecap="round" stroke-linejoin="round" transform="translate(2,2)">
<circle cx="24" cy="12" r="8"/>
        <line x1="24" y1="20" x2="24" y2="36"/>
        <line x1="16" y1="28" x2="32" y2="28"/>
        <rect x="16" y="36" width="16" height="6" rx="2"/>
    </g>
    <g stroke="#385b5c" stroke-width="3" stroke-linecap="round" stroke-linejoin="round" transform="translate(1,1)">
<circle cx="24" cy="12" r="8"/>
        <line x1="24" y1="20" x2="24" y2="36"/>
        <line x1="16" y1="28" x2="32" y2="28"/>
        <rect x="16" y="36" width="16" height="6" rx="2"/>
    </g>
    <g stroke="url(#g)" stroke-width="1.5" stroke-linecap="round" stroke-linejoin="round">
<circle cx="24" cy="12" r="8"/>
        <line x1="24" y1="20" x2="24" y2="36"/>
        <line x1="16" y1="28" x2="32" y2="28"/>
        <rect x="16" y="36" width="16" height="6" rx="2"/>
    </g>
  </g>
</svg>