<svg xmlns="http://www.w3.org/2000/svg" viewBox="0 0 48 48">
  <defs>
    <linearGradient id="g" x1="0%" y1="0%" x2="100%" y2="100%">
      <stop offset="0%" stop-color="#c4c9a0"/>
      <stop offset="100%" stop-color="#1f210b"/>
    </linearGradient>
    <filter id="shadow" x="-30%" y="-30%" width="160%" height="160%">
      <feDropShadow dx="2.5" dy="3.5" stdDeviation="3" flood-color="#1a1a2e" flood-opacity="0.45"/>
    </filter>
  </defs>
  <g filter="url(#shadow)" fill="none">
    <g stroke="#0f1005" stroke-width="4.5" stroke-linecap="round" stroke-linejoin="round" transform="translate(2,2)">
    <rect x="4" y="18" width="40" height="12" rx="3"/>
    <rect x="4" y="18" width="40" height="4" rx="1" fill="currentColor"/>
    <circle cx="24" cy="24" r="4"/>
    <line x1="24" y1="24" x2="24" y2="20"/>
    <line x1="20" y1="24" x2="28" y2="24"/>
    </g>
    <g stroke="#1f210b" stroke-width="3" stroke-linecap="round" stroke-linejoin="round" transform="translate(1,1)">
    <rect x="4" y="18" width="40" height="12" rx="3"/>
    <rect x="4" y="18" width="40" height="4" rx="1" fill="currentColor"/>
    <circle cx="24" cy="24" r="4"/>
    <line x1="24" y1="24" x2="24" y2="20"/>
    <line x1="20" y1="24" x2="28" y2="24"/>
    </g>
    <g stroke="url(#g)" stroke-width="1.5" stroke-linecap="round" stroke-linejoin="round">
    <rect x="4" y="18" width="40" height="12" rx="3"/>
    <rect x="4" y="18" width="40" height="4" rx="1" fill="currentColor"/>
    <circle cx="24" cy="24" r="4"/>
    <line x1="24" y1="24" x2="24" y2="20"/>
    <line x1="20" y1="24" x2="28" y2="24"/>
    </g>
  </g>
</svg>