<svg xmlns="http://www.w3.org/2000/svg" viewBox="0 0 48 48">
  <defs>
    <linearGradient id="g" x1="0%" y1="0%" x2="100%" y2="100%">
      <stop offset="0%" stop-color="#d2b2af"/>
      <stop offset="100%" stop-color="#261513"/>
    </linearGradient>
    <filter id="shadow" x="-30%" y="-30%" width="160%" height="160%">
      <feDropShadow dx="2.5" dy="3.5" stdDeviation="3" flood-color="#1a1a2e" flood-opacity="0.45"/>
    </filter>
  </defs>
  <g filter="url(#shadow)" fill="none">
    <g stroke="#130a09" stroke-width="4.5" stroke-linecap="round" stroke-linejoin="round" transform="translate(2,2)">
    <path d="M4 28 Q12 8 24 16 Q36 24 44 12 Q46 24 40 32 Q34 40 24 36 Q14 32 6 38 Q2 34 4 28 Z"/>
    <circle cx="10" cy="22" r="2.5"/>
    <line x1="38" y1="22" x2="44" y2="18 M34 30 L40 34"/>
    </g>
    <g stroke="#261513" stroke-width="3" stroke-linecap="round" stroke-linejoin="round" transform="translate(1,1)">
    <path d="M4 28 Q12 8 24 16 Q36 24 44 12 Q46 24 40 32 Q34 40 24 36 Q14 32 6 38 Q2 34 4 28 Z"/>
    <circle cx="10" cy="22" r="2.5"/>
    <line x1="38" y1="22" x2="44" y2="18 M34 30 L40 34"/>
    </g>
    <g stroke="url(#g)" stroke-width="1.5" stroke-linecap="round" stroke-linejoin="round">
    <path d="M4 28 Q12 8 24 16 Q36 24 44 12 Q46 24 40 32 Q34 40 24 36 Q14 32 6 38 Q2 34 4 28 Z"/>
    <circle cx="10" cy="22" r="2.5"/>
    <line x1="38" y1="22" x2="44" y2="18 M34 30 L40 34"/>
    </g>
  </g>
</svg>