<svg xmlns="http://www.w3.org/2000/svg" viewBox="0 0 48 48">
  <defs>
    <linearGradient id="g" x1="0%" y1="0%" x2="100%" y2="100%">
      <stop offset="0%" stop-color="#aaadcd"/>
      <stop offset="100%" stop-color="#111224"/>
    </linearGradient>
    <filter id="shadow" x="-30%" y="-30%" width="160%" height="160%">
      <feDropShadow dx="2.5" dy="3.5" stdDeviation="3" flood-color="#1a1a2e" flood-opacity="0.45"/>
    </filter>
  </defs>
  <g filter="url(#shadow)" fill="none">
    <g stroke="#080912" stroke-width="4.5" stroke-linecap="round" stroke-linejoin="round" transform="translate(2,2)">
    <rect x="2" y="16" width="44" height="20" rx="4"/>
    <path d="M6 16 L14 6 L38 6 L42 16"/>
    <rect x="12" y="10" width="6" height="6" rx="2"/>
    <rect x="22" y="10" width="6" height="6" rx="2"/>
    <rect x="32" y="10" width="6" height="6" rx="2"/>
    <circle cx="12" cy="36" r="5"/>
    <circle cx="36" cy="36" r="5"/>
    </g>
    <g stroke="#111224" stroke-width="3" stroke-linecap="round" stroke-linejoin="round" transform="translate(1,1)">
    <rect x="2" y="16" width="44" height="20" rx="4"/>
    <path d="M6 16 L14 6 L38 6 L42 16"/>
    <rect x="12" y="10" width="6" height="6" rx="2"/>
    <rect x="22" y="10" width="6" height="6" rx="2"/>
    <rect x="32" y="10" width="6" height="6" rx="2"/>
    <circle cx="12" cy="36" r="5"/>
    <circle cx="36" cy="36" r="5"/>
    </g>
    <g stroke="url(#g)" stroke-width="1.5" stroke-linecap="round" stroke-linejoin="round">
    <rect x="2" y="16" width="44" height="20" rx="4"/>
    <path d="M6 16 L14 6 L38 6 L42 16"/>
    <rect x="12" y="10" width="6" height="6" rx="2"/>
    <rect x="22" y="10" width="6" height="6" rx="2"/>
    <rect x="32" y="10" width="6" height="6" rx="2"/>
    <circle cx="12" cy="36" r="5"/>
    <circle cx="36" cy="36" r="5"/>
    </g>
  </g>
</svg>