<svg xmlns="http://www.w3.org/2000/svg" viewBox="0 0 48 48">
  <defs>
    <linearGradient id="g" x1="0%" y1="0%" x2="100%" y2="100%">
      <stop offset="0%" stop-color="#bfa9d2"/>
      <stop offset="100%" stop-color="#3e2355"/>
    </linearGradient>
    <filter id="sh" x="-30%" y="-30%" width="160%" height="160%">
      <feDropShadow dx="2.5" dy="3.5" stdDeviation="3" flood-color="#1a1a2e" flood-opacity="0.45"/>
    </filter>
  </defs>
  <g filter="url(#sh)" fill="none">
    <g stroke="#1c1026" stroke-width="4.5" stroke-linecap="round" stroke-linejoin="round" transform="translate(2,2)">
<circle cx="24" cy="26" r="14"/>
        <path d="M10 16 Q6 8 14 14 M22 12 Q24 4 26 12 M38 16 Q42 8 34 14"/>
        <circle cx="18" cy="24" r="3"/>
        <circle cx="30" cy="24" r="3"/>
        <path d="M18 34 Q24 38 30 34"/>
    </g>
    <g stroke="#3e2355" stroke-width="3" stroke-linecap="round" stroke-linejoin="round" transform="translate(1,1)">
<circle cx="24" cy="26" r="14"/>
        <path d="M10 16 Q6 8 14 14 M22 12 Q24 4 26 12 M38 16 Q42 8 34 14"/>
        <circle cx="18" cy="24" r="3"/>
        <circle cx="30" cy="24" r="3"/>
        <path d="M18 34 Q24 38 30 34"/>
    </g>
    <g stroke="url(#g)" stroke-width="1.5" stroke-linecap="round" stroke-linejoin="round">
<circle cx="24" cy="26" r="14"/>
        <path d="M10 16 Q6 8 14 14 M22 12 Q24 4 26 12 M38 16 Q42 8 34 14"/>
        <circle cx="18" cy="24" r="3"/>
        <circle cx="30" cy="24" r="3"/>
        <path d="M18 34 Q24 38 30 34"/>
    </g>
  </g>
</svg>