<svg xmlns="http://www.w3.org/2000/svg" viewBox="0 0 48 48">
  <defs>
    <linearGradient id="g" x1="0%" y1="0%" x2="100%" y2="100%">
      <stop offset="0%" stop-color="#e5d5bb"/>
      <stop offset="100%" stop-color="#31281a"/>
    </linearGradient>
    <filter id="shadow" x="-30%" y="-30%" width="160%" height="160%">
      <feDropShadow dx="2.5" dy="3.5" stdDeviation="3" flood-color="#1a1a2e" flood-opacity="0.45"/>
    </filter>
  </defs>
  <g filter="url(#shadow)" fill="none">
    <g stroke="#18140d" stroke-width="4.5" stroke-linecap="round" stroke-linejoin="round" transform="translate(2,2)">
    <rect x="14" y="6" width="20" height="12" rx="4"/>
    <rect x="16" y="18" width="16" height="22" rx="3"/>
    <line x1="16" y1="24" x2="32" y2="24 M16 30 L32 30 M16 36 L32 36"/>
    </g>
    <g stroke="#31281a" stroke-width="3" stroke-linecap="round" stroke-linejoin="round" transform="translate(1,1)">
    <rect x="14" y="6" width="20" height="12" rx="4"/>
    <rect x="16" y="18" width="16" height="22" rx="3"/>
    <line x1="16" y1="24" x2="32" y2="24 M16 30 L32 30 M16 36 L32 36"/>
    </g>
    <g stroke="url(#g)" stroke-width="1.5" stroke-linecap="round" stroke-linejoin="round">
    <rect x="14" y="6" width="20" height="12" rx="4"/>
    <rect x="16" y="18" width="16" height="22" rx="3"/>
    <line x1="16" y1="24" x2="32" y2="24 M16 30 L32 30 M16 36 L32 36"/>
    </g>
  </g>
</svg>