<svg xmlns="http://www.w3.org/2000/svg" viewBox="0 0 48 48">
  <defs>
    <linearGradient id="g" x1="0%" y1="0%" x2="100%" y2="100%">
      <stop offset="0%" stop-color="#a0bbc3"/>
      <stop offset="100%" stop-color="#193a43"/>
    </linearGradient>
    <filter id="sh" x="-30%" y="-30%" width="160%" height="160%">
      <feDropShadow dx="2.5" dy="3.5" stdDeviation="3" flood-color="#1a1a2e" flood-opacity="0.45"/>
    </filter>
  </defs>
  <g filter="url(#sh)" fill="none">
    <g stroke="#0b1a1e" stroke-width="4.5" stroke-linecap="round" stroke-linejoin="round" transform="translate(2,2)">
<ellipse cx="24" cy="24" rx="12" ry="6"/><path d="M36 24 Q44 24 44 16"/><circle cx="14" cy="22" r="2"/><circle cx="22" cy="22" r="2"/><path d="M10 24 L6 32 L4 28"/><path d="M6 32 L8 36"/><path d="M12 28 L8 34"/>
    </g>
    <g stroke="#193a43" stroke-width="3" stroke-linecap="round" stroke-linejoin="round" transform="translate(1,1)">
<ellipse cx="24" cy="24" rx="12" ry="6"/><path d="M36 24 Q44 24 44 16"/><circle cx="14" cy="22" r="2"/><circle cx="22" cy="22" r="2"/><path d="M10 24 L6 32 L4 28"/><path d="M6 32 L8 36"/><path d="M12 28 L8 34"/>
    </g>
    <g stroke="url(#g)" stroke-width="1.5" stroke-linecap="round" stroke-linejoin="round">
<ellipse cx="24" cy="24" rx="12" ry="6"/><path d="M36 24 Q44 24 44 16"/><circle cx="14" cy="22" r="2"/><circle cx="22" cy="22" r="2"/><path d="M10 24 L6 32 L4 28"/><path d="M6 32 L8 36"/><path d="M12 28 L8 34"/>
    </g>
  </g>
</svg>