<svg xmlns="http://www.w3.org/2000/svg" viewBox="0 0 48 48">
  <defs>
    <linearGradient id="g" x1="0%" y1="0%" x2="100%" y2="100%">
      <stop offset="0%" stop-color="#b4cdcd"/>
      <stop offset="100%" stop-color="#162424"/>
    </linearGradient>
    <filter id="shadow" x="-30%" y="-30%" width="160%" height="160%">
      <feDropShadow dx="2.5" dy="3.5" stdDeviation="3" flood-color="#1a1a2e" flood-opacity="0.45"/>
    </filter>
  </defs>
  <g filter="url(#shadow)" fill="none">
    <g stroke="#0b1212" stroke-width="4.5" stroke-linecap="round" stroke-linejoin="round" transform="translate(2,2)">
    <ellipse cx="24" cy="24" rx="10" ry="4"/>
    <circle cx="24" cy="18" r="4"/>
    <circle cx="22" cy="16" r="1.5"/>
    <path d="M12 24 L4 28 M36 24 L44 28"/>
    <path d="M12 24 L6 20 M36 24 L42 20"/>
    </g>
    <g stroke="#162424" stroke-width="3" stroke-linecap="round" stroke-linejoin="round" transform="translate(1,1)">
    <ellipse cx="24" cy="24" rx="10" ry="4"/>
    <circle cx="24" cy="18" r="4"/>
    <circle cx="22" cy="16" r="1.5"/>
    <path d="M12 24 L4 28 M36 24 L44 28"/>
    <path d="M12 24 L6 20 M36 24 L42 20"/>
    </g>
    <g stroke="url(#g)" stroke-width="1.5" stroke-linecap="round" stroke-linejoin="round">
    <ellipse cx="24" cy="24" rx="10" ry="4"/>
    <circle cx="24" cy="18" r="4"/>
    <circle cx="22" cy="16" r="1.5"/>
    <path d="M12 24 L4 28 M36 24 L44 28"/>
    <path d="M12 24 L6 20 M36 24 L42 20"/>
    </g>
  </g>
</svg>