<svg xmlns="http://www.w3.org/2000/svg" viewBox="0 0 48 48">
  <defs>
    <linearGradient id="g" x1="0%" y1="0%" x2="100%" y2="100%">
      <stop offset="0%" stop-color="#c0bbae"/>
      <stop offset="100%" stop-color="#40392a"/>
    </linearGradient>
    <filter id="sh" x="-30%" y="-30%" width="160%" height="160%">
      <feDropShadow dx="2.5" dy="3.5" stdDeviation="3" flood-color="#1a1a2e" flood-opacity="0.45"/>
    </filter>
  </defs>
  <g filter="url(#sh)" fill="none">
    <g stroke="#1d1a13" stroke-width="4.5" stroke-linecap="round" stroke-linejoin="round" transform="translate(2,2)">
<ellipse cx="24" cy="26" rx="12" ry="6"/><path d="M36 26 Q44 26 44 18"/><circle cx="14" cy="24" r="2"/><circle cx="22" cy="24" r="2"/><path d="M12 26 L8 34 L6 32"/><circle cx="24" cy="8" r="1.5"/>
    </g>
    <g stroke="#40392a" stroke-width="3" stroke-linecap="round" stroke-linejoin="round" transform="translate(1,1)">
<ellipse cx="24" cy="26" rx="12" ry="6"/><path d="M36 26 Q44 26 44 18"/><circle cx="14" cy="24" r="2"/><circle cx="22" cy="24" r="2"/><path d="M12 26 L8 34 L6 32"/><circle cx="24" cy="8" r="1.5"/>
    </g>
    <g stroke="url(#g)" stroke-width="1.5" stroke-linecap="round" stroke-linejoin="round">
<ellipse cx="24" cy="26" rx="12" ry="6"/><path d="M36 26 Q44 26 44 18"/><circle cx="14" cy="24" r="2"/><circle cx="22" cy="24" r="2"/><path d="M12 26 L8 34 L6 32"/><circle cx="24" cy="8" r="1.5"/>
    </g>
  </g>
</svg>