<svg xmlns="http://www.w3.org/2000/svg" viewBox="0 0 48 48">
  <defs>
    <linearGradient id="g" x1="0%" y1="0%" x2="100%" y2="100%">
      <stop offset="0%" stop-color="#d7abb0"/>
      <stop offset="100%" stop-color="#2a1114"/>
    </linearGradient>
    <filter id="shadow" x="-30%" y="-30%" width="160%" height="160%">
      <feDropShadow dx="2.5" dy="3.5" stdDeviation="3" flood-color="#1a1a2e" flood-opacity="0.45"/>
    </filter>
  </defs>
  <g filter="url(#shadow)" fill="none">
    <g stroke="#15080a" stroke-width="4.5" stroke-linecap="round" stroke-linejoin="round" transform="translate(2,2)">
    <ellipse cx="24" cy="24" rx="8" ry="6"/>
    <ellipse cx="24" cy="14" rx="6" ry="5"/>
    <circle cx="22" cy="12" r="1.5"/>
    <path d="M24 14 L24 6 L28 8 M24 6 L20 8"/>
    <path d="M16 24 L10 44 M32 24 L38 44"/>
    <path d="M20 30 L28 30 M20 34 L28 34 M22 38 L26 38"/>
    </g>
    <g stroke="#2a1114" stroke-width="3" stroke-linecap="round" stroke-linejoin="round" transform="translate(1,1)">
    <ellipse cx="24" cy="24" rx="8" ry="6"/>
    <ellipse cx="24" cy="14" rx="6" ry="5"/>
    <circle cx="22" cy="12" r="1.5"/>
    <path d="M24 14 L24 6 L28 8 M24 6 L20 8"/>
    <path d="M16 24 L10 44 M32 24 L38 44"/>
    <path d="M20 30 L28 30 M20 34 L28 34 M22 38 L26 38"/>
    </g>
    <g stroke="url(#g)" stroke-width="1.5" stroke-linecap="round" stroke-linejoin="round">
    <ellipse cx="24" cy="24" rx="8" ry="6"/>
    <ellipse cx="24" cy="14" rx="6" ry="5"/>
    <circle cx="22" cy="12" r="1.5"/>
    <path d="M24 14 L24 6 L28 8 M24 6 L20 8"/>
    <path d="M16 24 L10 44 M32 24 L38 44"/>
    <path d="M20 30 L28 30 M20 34 L28 34 M22 38 L26 38"/>
    </g>
  </g>
</svg>