<svg xmlns="http://www.w3.org/2000/svg" viewBox="0 0 48 48">
  <defs>
    <linearGradient id="g" x1="0%" y1="0%" x2="100%" y2="100%">
      <stop offset="0%" stop-color="#c5bce6"/>
      <stop offset="100%" stop-color="#463b6e"/>
    </linearGradient>
    <filter id="sh" x="-30%" y="-30%" width="160%" height="160%">
      <feDropShadow dx="2.5" dy="3.5" stdDeviation="3" flood-color="#1a1a2e" flood-opacity="0.45"/>
    </filter>
  </defs>
  <g filter="url(#sh)" fill="none">
    <g stroke="#201b32" stroke-width="4.5" stroke-linecap="round" stroke-linejoin="round" transform="translate(2,2)">
<ellipse cx="24" cy="26" rx="8" ry="14"/><circle cx="24" cy="8" r="6"/><path d="M22 4 L18 0"/><path d="M26 4 L30 0"/><circle cx="20" cy="24" r="2"/><circle cx="28" cy="24" r="2"/><path d="M18 36 L30 38"/>
    </g>
    <g stroke="#463b6e" stroke-width="3" stroke-linecap="round" stroke-linejoin="round" transform="translate(1,1)">
<ellipse cx="24" cy="26" rx="8" ry="14"/><circle cx="24" cy="8" r="6"/><path d="M22 4 L18 0"/><path d="M26 4 L30 0"/><circle cx="20" cy="24" r="2"/><circle cx="28" cy="24" r="2"/><path d="M18 36 L30 38"/>
    </g>
    <g stroke="url(#g)" stroke-width="1.5" stroke-linecap="round" stroke-linejoin="round">
<ellipse cx="24" cy="26" rx="8" ry="14"/><circle cx="24" cy="8" r="6"/><path d="M22 4 L18 0"/><path d="M26 4 L30 0"/><circle cx="20" cy="24" r="2"/><circle cx="28" cy="24" r="2"/><path d="M18 36 L30 38"/>
    </g>
  </g>
</svg>