<svg xmlns="http://www.w3.org/2000/svg" viewBox="0 0 48 48">
  <defs>
    <linearGradient id="g" x1="0%" y1="0%" x2="100%" y2="100%">
      <stop offset="0%" stop-color="#bedbc3"/>
      <stop offset="100%" stop-color="#1c2b1e"/>
    </linearGradient>
    <filter id="shadow" x="-30%" y="-30%" width="160%" height="160%">
      <feDropShadow dx="2.5" dy="3.5" stdDeviation="3" flood-color="#1a1a2e" flood-opacity="0.45"/>
    </filter>
  </defs>
  <g filter="url(#shadow)" fill="none">
    <g stroke="#0e150f" stroke-width="4.5" stroke-linecap="round" stroke-linejoin="round" transform="translate(2,2)">
    <path d="M6 28 L8 42 Q8 44 14 44 L34 44 Q36 44 38 42 L40 28 Z"/>
    <line x1="8" y1="28" x2="40" y2="28"/>
    <ellipse cx="24" cy="36" rx="6" ry="3"/>
    <line x1="10" y1="36" x2="38" y2="36"/>
    </g>
    <g stroke="#1c2b1e" stroke-width="3" stroke-linecap="round" stroke-linejoin="round" transform="translate(1,1)">
    <path d="M6 28 L8 42 Q8 44 14 44 L34 44 Q36 44 38 42 L40 28 Z"/>
    <line x1="8" y1="28" x2="40" y2="28"/>
    <ellipse cx="24" cy="36" rx="6" ry="3"/>
    <line x1="10" y1="36" x2="38" y2="36"/>
    </g>
    <g stroke="url(#g)" stroke-width="1.5" stroke-linecap="round" stroke-linejoin="round">
    <path d="M6 28 L8 42 Q8 44 14 44 L34 44 Q36 44 38 42 L40 28 Z"/>
    <line x1="8" y1="28" x2="40" y2="28"/>
    <ellipse cx="24" cy="36" rx="6" ry="3"/>
    <line x1="10" y1="36" x2="38" y2="36"/>
    </g>
  </g>
</svg>