<svg xmlns="http://www.w3.org/2000/svg" viewBox="0 0 48 48">
  <defs>
    <linearGradient id="g" x1="0%" y1="0%" x2="100%" y2="100%">
      <stop offset="0%" stop-color="#deaed7"/>
      <stop offset="100%" stop-color="#2d1329"/>
    </linearGradient>
    <filter id="shadow" x="-30%" y="-30%" width="160%" height="160%">
      <feDropShadow dx="2.5" dy="3.5" stdDeviation="3" flood-color="#1a1a2e" flood-opacity="0.45"/>
    </filter>
  </defs>
  <g filter="url(#shadow)" fill="none">
    <g stroke="#160914" stroke-width="4.5" stroke-linecap="round" stroke-linejoin="round" transform="translate(2,2)">
    <ellipse cx="24" cy="20" rx="8" ry="5"/>
    <path d="M16 18 L6 8 L10 8 L16 14"/>
    <path d="M32 18 L42 8 L38 8 L32 14"/>
    <path d="M12 20 L4 22 L6 26 L14 22"/>
    <path d="M36 20 L44 22 L42 26 L34 22"/>
    <line x1="24" y1="20" x2="24" y2="44"/>
    <circle cx="24" cy="14" r="3"/>
    </g>
    <g stroke="#2d1329" stroke-width="3" stroke-linecap="round" stroke-linejoin="round" transform="translate(1,1)">
    <ellipse cx="24" cy="20" rx="8" ry="5"/>
    <path d="M16 18 L6 8 L10 8 L16 14"/>
    <path d="M32 18 L42 8 L38 8 L32 14"/>
    <path d="M12 20 L4 22 L6 26 L14 22"/>
    <path d="M36 20 L44 22 L42 26 L34 22"/>
    <line x1="24" y1="20" x2="24" y2="44"/>
    <circle cx="24" cy="14" r="3"/>
    </g>
    <g stroke="url(#g)" stroke-width="1.5" stroke-linecap="round" stroke-linejoin="round">
    <ellipse cx="24" cy="20" rx="8" ry="5"/>
    <path d="M16 18 L6 8 L10 8 L16 14"/>
    <path d="M32 18 L42 8 L38 8 L32 14"/>
    <path d="M12 20 L4 22 L6 26 L14 22"/>
    <path d="M36 20 L44 22 L42 26 L34 22"/>
    <line x1="24" y1="20" x2="24" y2="44"/>
    <circle cx="24" cy="14" r="3"/>
    </g>
  </g>
</svg>