<svg xmlns="http://www.w3.org/2000/svg" viewBox="0 0 48 48">
  <defs>
    <linearGradient id="iconGrad" x1="0%" y1="0%" x2="100%" y2="100%">
      <stop offset="0%" stop-color="#BCAAA4"/>
      <stop offset="100%" stop-color="#584a45"/>
    </linearGradient>
    <filter id="shadow" x="-30%" y="-30%" width="160%" height="160%">
      <feDropShadow dx="2.5" dy="3.5" stdDeviation="3" flood-color="#1a1a2e" flood-opacity="0.45"/>
    </filter>
  </defs>
  <g filter="url(#shadow)" fill="none">
    <g stroke="#2c2522" stroke-width="4.5" stroke-linecap="round" stroke-linejoin="round" transform="translate(2,2)">
      <rect x="14" y="22" width="20" height="16" rx="3"/>
    <path d="M16 22v-6a8 8 0 0116 0v6"/>
    <circle cx="24" cy="30" r="2.5"/>
    <line x1="24" y1="30" x2="24" y2="33"/>
    </g>
    <g stroke="#584a45" stroke-width="3" stroke-linecap="round" stroke-linejoin="round" transform="translate(1,1)">
      <rect x="14" y="22" width="20" height="16" rx="3"/>
    <path d="M16 22v-6a8 8 0 0116 0v6"/>
    <circle cx="24" cy="30" r="2.5"/>
    <line x1="24" y1="30" x2="24" y2="33"/>
    </g>
    <g stroke="url(#iconGrad)" stroke-width="1.5" stroke-linecap="round" stroke-linejoin="round">
      <rect x="14" y="22" width="20" height="16" rx="3"/>
    <path d="M16 22v-6a8 8 0 0116 0v6"/>
    <circle cx="24" cy="30" r="2.5"/>
    <line x1="24" y1="30" x2="24" y2="33"/>
    </g>
  </g>
</svg>
