<svg xmlns="http://www.w3.org/2000/svg" viewBox="0 0 48 48">
  <defs>
    <linearGradient id="g" x1="0%" y1="0%" x2="100%" y2="100%">
      <stop offset="0%" stop-color="#c0c7e5"/>
      <stop offset="100%" stop-color="#1c2131"/>
    </linearGradient>
    <filter id="shadow" x="-30%" y="-30%" width="160%" height="160%">
      <feDropShadow dx="2.5" dy="3.5" stdDeviation="3" flood-color="#1a1a2e" flood-opacity="0.45"/>
    </filter>
  </defs>
  <g filter="url(#shadow)" fill="none">
    <g stroke="#0e1018" stroke-width="4.5" stroke-linecap="round" stroke-linejoin="round" transform="translate(2,2)">
    <rect x="4" y="16" width="36" height="20" rx="4"/>
    <rect x="4" y="10" width="14" height="10" rx="3"/>
    <circle cx="24" cy="14" r="5"/>
    <circle cx="14" cy="36" r="5"/>
    <circle cx="34" cy="36" r="5"/>
    <line x1="40" y1="22" x2="44" y2="22"/>
    <line x1="40" y1="26" x2="44" y2="26"/>
    </g>
    <g stroke="#1c2131" stroke-width="3" stroke-linecap="round" stroke-linejoin="round" transform="translate(1,1)">
    <rect x="4" y="16" width="36" height="20" rx="4"/>
    <rect x="4" y="10" width="14" height="10" rx="3"/>
    <circle cx="24" cy="14" r="5"/>
    <circle cx="14" cy="36" r="5"/>
    <circle cx="34" cy="36" r="5"/>
    <line x1="40" y1="22" x2="44" y2="22"/>
    <line x1="40" y1="26" x2="44" y2="26"/>
    </g>
    <g stroke="url(#g)" stroke-width="1.5" stroke-linecap="round" stroke-linejoin="round">
    <rect x="4" y="16" width="36" height="20" rx="4"/>
    <rect x="4" y="10" width="14" height="10" rx="3"/>
    <circle cx="24" cy="14" r="5"/>
    <circle cx="14" cy="36" r="5"/>
    <circle cx="34" cy="36" r="5"/>
    <line x1="40" y1="22" x2="44" y2="22"/>
    <line x1="40" y1="26" x2="44" y2="26"/>
    </g>
  </g>
</svg>