<svg xmlns="http://www.w3.org/2000/svg" viewBox="0 0 48 48">
  <defs>
    <linearGradient id="g" x1="0%" y1="0%" x2="100%" y2="100%">
      <stop offset="0%" stop-color="#ceafcd"/>
      <stop offset="100%" stop-color="#241324"/>
    </linearGradient>
    <filter id="shadow" x="-30%" y="-30%" width="160%" height="160%">
      <feDropShadow dx="2.5" dy="3.5" stdDeviation="3" flood-color="#1a1a2e" flood-opacity="0.45"/>
    </filter>
  </defs>
  <g filter="url(#shadow)" fill="none">
    <g stroke="#120912" stroke-width="4.5" stroke-linecap="round" stroke-linejoin="round" transform="translate(2,2)">
    <ellipse cx="24" cy="18" rx="9" ry="4"/>
    <circle cx="24" cy="10" r="3.5"/>
    <circle cx="22" cy="8" r="1.5"/>
    <path d="M14 16 L4 10 M34 16 L44 10"/>
    <path d="M16 20 L6 24 M32 20 L42 24"/>
    <path d="M24 18 L24 44 M22 22 L26 22"/>
    </g>
    <g stroke="#241324" stroke-width="3" stroke-linecap="round" stroke-linejoin="round" transform="translate(1,1)">
    <ellipse cx="24" cy="18" rx="9" ry="4"/>
    <circle cx="24" cy="10" r="3.5"/>
    <circle cx="22" cy="8" r="1.5"/>
    <path d="M14 16 L4 10 M34 16 L44 10"/>
    <path d="M16 20 L6 24 M32 20 L42 24"/>
    <path d="M24 18 L24 44 M22 22 L26 22"/>
    </g>
    <g stroke="url(#g)" stroke-width="1.5" stroke-linecap="round" stroke-linejoin="round">
    <ellipse cx="24" cy="18" rx="9" ry="4"/>
    <circle cx="24" cy="10" r="3.5"/>
    <circle cx="22" cy="8" r="1.5"/>
    <path d="M14 16 L4 10 M34 16 L44 10"/>
    <path d="M16 20 L6 24 M32 20 L42 24"/>
    <path d="M24 18 L24 44 M22 22 L26 22"/>
    </g>
  </g>
</svg>