<svg xmlns="http://www.w3.org/2000/svg" viewBox="0 0 48 48">
  <defs>
    <linearGradient id="g" x1="0%" y1="0%" x2="100%" y2="100%">
      <stop offset="0%" stop-color="#9E9E9E"/>
      <stop offset="100%" stop-color="#252525"/>
    </linearGradient>
    <filter id="sh" x="-30%" y="-30%" width="160%" height="160%">
      <feDropShadow dx="2.5" dy="3.5" stdDeviation="3" flood-color="#1a1a2e" flood-opacity="0.45"/>
    </filter>
  </defs>
  <g filter="url(#sh)" fill="none">
    <g stroke="#121212" stroke-width="4.5" stroke-linecap="round" stroke-linejoin="round" transform="translate(2,2)">
    <path d="M28 4 L28 14 L40 14 L40 34 L28 34 L28 44"/>
        <line x1="4" y1="24" x2="34" y2="24"/>
        <polyline points="14,14 4,24 14,34"/>
    </g>
    <g stroke="#252525" stroke-width="3" stroke-linecap="round" stroke-linejoin="round" transform="translate(1,1)">
    <path d="M28 4 L28 14 L40 14 L40 34 L28 34 L28 44"/>
        <line x1="4" y1="24" x2="34" y2="24"/>
        <polyline points="14,14 4,24 14,34"/>
    </g>
    <g stroke="url(#g)" stroke-width="1.5" stroke-linecap="round" stroke-linejoin="round">
    <path d="M28 4 L28 14 L40 14 L40 34 L28 34 L28 44"/>
        <line x1="4" y1="24" x2="34" y2="24"/>
        <polyline points="14,14 4,24 14,34"/>
    </g>
  </g>
</svg>