<svg xmlns="http://www.w3.org/2000/svg" viewBox="0 0 48 48">
  <defs>
    <linearGradient id="g" x1="0%" y1="0%" x2="100%" y2="100%">
      <stop offset="0%" stop-color="#cfa3ac"/>
      <stop offset="100%" stop-color="#250c12"/>
    </linearGradient>
    <filter id="shadow" x="-30%" y="-30%" width="160%" height="160%">
      <feDropShadow dx="2.5" dy="3.5" stdDeviation="3" flood-color="#1a1a2e" flood-opacity="0.45"/>
    </filter>
  </defs>
  <g filter="url(#shadow)" fill="none">
    <g stroke="#120609" stroke-width="4.5" stroke-linecap="round" stroke-linejoin="round" transform="translate(2,2)">
    <path d="M24 10 Q12 14 8 24 Q12 20 24 18 Q36 20 40 24 Q36 14 24 10 Z"/>
    <path d="M24 18 Q14 22 10 34 Q14 28 24 24 Q34 28 38 34 Q34 22 24 18 Z"/>
    <path d="M24 24 L24 44"/>
    <ellipse cx="24" cy="44" rx="4" ry="2"/>
    </g>
    <g stroke="#250c12" stroke-width="3" stroke-linecap="round" stroke-linejoin="round" transform="translate(1,1)">
    <path d="M24 10 Q12 14 8 24 Q12 20 24 18 Q36 20 40 24 Q36 14 24 10 Z"/>
    <path d="M24 18 Q14 22 10 34 Q14 28 24 24 Q34 28 38 34 Q34 22 24 18 Z"/>
    <path d="M24 24 L24 44"/>
    <ellipse cx="24" cy="44" rx="4" ry="2"/>
    </g>
    <g stroke="url(#g)" stroke-width="1.5" stroke-linecap="round" stroke-linejoin="round">
    <path d="M24 10 Q12 14 8 24 Q12 20 24 18 Q36 20 40 24 Q36 14 24 10 Z"/>
    <path d="M24 18 Q14 22 10 34 Q14 28 24 24 Q34 28 38 34 Q34 22 24 18 Z"/>
    <path d="M24 24 L24 44"/>
    <ellipse cx="24" cy="44" rx="4" ry="2"/>
    </g>
  </g>
</svg>