<svg xmlns="http://www.w3.org/2000/svg" viewBox="0 0 48 48">
  <defs>
    <linearGradient id="g" x1="0%" y1="0%" x2="100%" y2="100%">
      <stop offset="0%" stop-color="#ddbdca"/>
      <stop offset="100%" stop-color="#633c4c"/>
    </linearGradient>
    <filter id="sh" x="-30%" y="-30%" width="160%" height="160%">
      <feDropShadow dx="2.5" dy="3.5" stdDeviation="3" flood-color="#1a1a2e" flood-opacity="0.45"/>
    </filter>
  </defs>
  <g filter="url(#sh)" fill="none">
    <g stroke="#2d1b22" stroke-width="4.5" stroke-linecap="round" stroke-linejoin="round" transform="translate(2,2)">
<rect x="8" y="16" width="32" height="14" rx="4"/><rect x="6" y="26" width="36" height="12" rx="3"/><line x1="24" y1="16" x2="24" y2="26"/><rect x="12" y="12" width="12" height="6" rx="3"/><rect x="24" y="12" width="12" height="6" rx="3"/>
    </g>
    <g stroke="#633c4c" stroke-width="3" stroke-linecap="round" stroke-linejoin="round" transform="translate(1,1)">
<rect x="8" y="16" width="32" height="14" rx="4"/><rect x="6" y="26" width="36" height="12" rx="3"/><line x1="24" y1="16" x2="24" y2="26"/><rect x="12" y="12" width="12" height="6" rx="3"/><rect x="24" y="12" width="12" height="6" rx="3"/>
    </g>
    <g stroke="url(#g)" stroke-width="1.5" stroke-linecap="round" stroke-linejoin="round">
<rect x="8" y="16" width="32" height="14" rx="4"/><rect x="6" y="26" width="36" height="12" rx="3"/><line x1="24" y1="16" x2="24" y2="26"/><rect x="12" y="12" width="12" height="6" rx="3"/><rect x="24" y="12" width="12" height="6" rx="3"/>
    </g>
  </g>
</svg>