<svg xmlns="http://www.w3.org/2000/svg" viewBox="0 0 48 48">
  <defs>
    <linearGradient id="g" x1="0%" y1="0%" x2="100%" y2="100%">
      <stop offset="0%" stop-color="#aecdb7"/>
      <stop offset="100%" stop-color="#122418"/>
    </linearGradient>
    <filter id="shadow" x="-30%" y="-30%" width="160%" height="160%">
      <feDropShadow dx="2.5" dy="3.5" stdDeviation="3" flood-color="#1a1a2e" flood-opacity="0.45"/>
    </filter>
  </defs>
  <g filter="url(#shadow)" fill="none">
    <g stroke="#09120c" stroke-width="4.5" stroke-linecap="round" stroke-linejoin="round" transform="translate(2,2)">
    <rect x="4" y="24" width="40" height="8" rx="4"/>
    <path d="M4 24 Q4 12 24 12 Q44 12 44 24"/>
    <line x1="4" y1="32" x2="44" y2="32"/>
    <rect x="18" y="28" width="12" height="12" rx="3"/>
    </g>
    <g stroke="#122418" stroke-width="3" stroke-linecap="round" stroke-linejoin="round" transform="translate(1,1)">
    <rect x="4" y="24" width="40" height="8" rx="4"/>
    <path d="M4 24 Q4 12 24 12 Q44 12 44 24"/>
    <line x1="4" y1="32" x2="44" y2="32"/>
    <rect x="18" y="28" width="12" height="12" rx="3"/>
    </g>
    <g stroke="url(#g)" stroke-width="1.5" stroke-linecap="round" stroke-linejoin="round">
    <rect x="4" y="24" width="40" height="8" rx="4"/>
    <path d="M4 24 Q4 12 24 12 Q44 12 44 24"/>
    <line x1="4" y1="32" x2="44" y2="32"/>
    <rect x="18" y="28" width="12" height="12" rx="3"/>
    </g>
  </g>
</svg>