<svg xmlns="http://www.w3.org/2000/svg" viewBox="0 0 48 48">
  <defs>
    <linearGradient id="g" x1="0%" y1="0%" x2="100%" y2="100%">
      <stop offset="0%" stop-color="#b2dedb"/>
      <stop offset="100%" stop-color="#152d2c"/>
    </linearGradient>
    <filter id="shadow" x="-30%" y="-30%" width="160%" height="160%">
      <feDropShadow dx="2.5" dy="3.5" stdDeviation="3" flood-color="#1a1a2e" flood-opacity="0.45"/>
    </filter>
  </defs>
  <g filter="url(#shadow)" fill="none">
    <g stroke="#0a1616" stroke-width="4.5" stroke-linecap="round" stroke-linejoin="round" transform="translate(2,2)">
    <ellipse cx="24" cy="26" rx="8" ry="10"/>
    <path d="M22 16 L20 4 M26 16 L28 4"/>
    <path d="M16 22 L14 26 M32 22 L34 26"/>
    <path d="M16 30 L14 34 M32 30 L34 34"/>
    </g>
    <g stroke="#152d2c" stroke-width="3" stroke-linecap="round" stroke-linejoin="round" transform="translate(1,1)">
    <ellipse cx="24" cy="26" rx="8" ry="10"/>
    <path d="M22 16 L20 4 M26 16 L28 4"/>
    <path d="M16 22 L14 26 M32 22 L34 26"/>
    <path d="M16 30 L14 34 M32 30 L34 34"/>
    </g>
    <g stroke="url(#g)" stroke-width="1.5" stroke-linecap="round" stroke-linejoin="round">
    <ellipse cx="24" cy="26" rx="8" ry="10"/>
    <path d="M22 16 L20 4 M26 16 L28 4"/>
    <path d="M16 22 L14 26 M32 22 L34 26"/>
    <path d="M16 30 L14 34 M32 30 L34 34"/>
    </g>
  </g>
</svg>