<svg xmlns="http://www.w3.org/2000/svg" viewBox="0 0 48 48">
  <defs>
    <linearGradient id="g" x1="0%" y1="0%" x2="100%" y2="100%">
      <stop offset="0%" stop-color="#b3e6b6"/>
      <stop offset="100%" stop-color="#163217"/>
    </linearGradient>
    <filter id="shadow" x="-30%" y="-30%" width="160%" height="160%">
      <feDropShadow dx="2.5" dy="3.5" stdDeviation="3" flood-color="#1a1a2e" flood-opacity="0.45"/>
    </filter>
  </defs>
  <g filter="url(#shadow)" fill="none">
    <g stroke="#0b190b" stroke-width="4.5" stroke-linecap="round" stroke-linejoin="round" transform="translate(2,2)">
    <rect x="2" y="18" width="44" height="16" rx="6"/>
    <path d="M6 14 L42 14"/>
    <rect x="12" y="22" width="10" height="8" rx="2"/>
    <rect x="26" y="22" width="10" height="8" rx="2"/>
    <line x1="6" y1="36" x2="8" y2="44 L40 44 L42 36"/>
    </g>
    <g stroke="#163217" stroke-width="3" stroke-linecap="round" stroke-linejoin="round" transform="translate(1,1)">
    <rect x="2" y="18" width="44" height="16" rx="6"/>
    <path d="M6 14 L42 14"/>
    <rect x="12" y="22" width="10" height="8" rx="2"/>
    <rect x="26" y="22" width="10" height="8" rx="2"/>
    <line x1="6" y1="36" x2="8" y2="44 L40 44 L42 36"/>
    </g>
    <g stroke="url(#g)" stroke-width="1.5" stroke-linecap="round" stroke-linejoin="round">
    <rect x="2" y="18" width="44" height="16" rx="6"/>
    <path d="M6 14 L42 14"/>
    <rect x="12" y="22" width="10" height="8" rx="2"/>
    <rect x="26" y="22" width="10" height="8" rx="2"/>
    <line x1="6" y1="36" x2="8" y2="44 L40 44 L42 36"/>
    </g>
  </g>
</svg>