<svg xmlns="http://www.w3.org/2000/svg" viewBox="0 0 48 48">
  <defs>
    <linearGradient id="g" x1="0%" y1="0%" x2="100%" y2="100%">
      <stop offset="0%" stop-color="#aeb2c7"/>
      <stop offset="100%" stop-color="#121521"/>
    </linearGradient>
    <filter id="shadow" x="-30%" y="-30%" width="160%" height="160%">
      <feDropShadow dx="2.5" dy="3.5" stdDeviation="3" flood-color="#1a1a2e" flood-opacity="0.45"/>
    </filter>
  </defs>
  <g filter="url(#shadow)" fill="none">
    <g stroke="#090a10" stroke-width="4.5" stroke-linecap="round" stroke-linejoin="round" transform="translate(2,2)">
    <rect x="8" y="6" width="10" height="28" rx="3"/>
    <rect x="30" y="6" width="10" height="28" rx="3"/>
    <path d="M8 28 Q8 42 24 42 Q40 42 40 28"/>
    <line x1="24" y1="34" x2="24" y2="42"/>
    </g>
    <g stroke="#121521" stroke-width="3" stroke-linecap="round" stroke-linejoin="round" transform="translate(1,1)">
    <rect x="8" y="6" width="10" height="28" rx="3"/>
    <rect x="30" y="6" width="10" height="28" rx="3"/>
    <path d="M8 28 Q8 42 24 42 Q40 42 40 28"/>
    <line x1="24" y1="34" x2="24" y2="42"/>
    </g>
    <g stroke="url(#g)" stroke-width="1.5" stroke-linecap="round" stroke-linejoin="round">
    <rect x="8" y="6" width="10" height="28" rx="3"/>
    <rect x="30" y="6" width="10" height="28" rx="3"/>
    <path d="M8 28 Q8 42 24 42 Q40 42 40 28"/>
    <line x1="24" y1="34" x2="24" y2="42"/>
    </g>
  </g>
</svg>