<svg xmlns="http://www.w3.org/2000/svg" viewBox="0 0 48 48">
  <defs>
    <linearGradient id="g" x1="0%" y1="0%" x2="100%" y2="100%">
      <stop offset="0%" stop-color="#e4dbb1"/>
      <stop offset="100%" stop-color="#312c14"/>
    </linearGradient>
    <filter id="shadow" x="-30%" y="-30%" width="160%" height="160%">
      <feDropShadow dx="2.5" dy="3.5" stdDeviation="3" flood-color="#1a1a2e" flood-opacity="0.45"/>
    </filter>
  </defs>
  <g filter="url(#shadow)" fill="none">
    <g stroke="#18160a" stroke-width="4.5" stroke-linecap="round" stroke-linejoin="round" transform="translate(2,2)">
    <ellipse cx="24" cy="22" rx="7" ry="5"/>
    <circle cx="24" cy="14" r="4"/>
    <circle cx="22" cy="12" r="1.5"/>
    <path d="M30 20 Q38 18 42 22 Q38 26 30 24"/>
    <path d="M20 22 L14 44 M28 22 L34 44"/>
    <line x1="18" y1="16" x2="30" y2="16"/>
    </g>
    <g stroke="#312c14" stroke-width="3" stroke-linecap="round" stroke-linejoin="round" transform="translate(1,1)">
    <ellipse cx="24" cy="22" rx="7" ry="5"/>
    <circle cx="24" cy="14" r="4"/>
    <circle cx="22" cy="12" r="1.5"/>
    <path d="M30 20 Q38 18 42 22 Q38 26 30 24"/>
    <path d="M20 22 L14 44 M28 22 L34 44"/>
    <line x1="18" y1="16" x2="30" y2="16"/>
    </g>
    <g stroke="url(#g)" stroke-width="1.5" stroke-linecap="round" stroke-linejoin="round">
    <ellipse cx="24" cy="22" rx="7" ry="5"/>
    <circle cx="24" cy="14" r="4"/>
    <circle cx="22" cy="12" r="1.5"/>
    <path d="M30 20 Q38 18 42 22 Q38 26 30 24"/>
    <path d="M20 22 L14 44 M28 22 L34 44"/>
    <line x1="18" y1="16" x2="30" y2="16"/>
    </g>
  </g>
</svg>