<svg xmlns="http://www.w3.org/2000/svg" viewBox="0 0 48 48">
  <defs>
    <linearGradient id="g" x1="0%" y1="0%" x2="100%" y2="100%">
      <stop offset="0%" stop-color="#cfa3b9"/>
      <stop offset="100%" stop-color="#250c19"/>
    </linearGradient>
    <filter id="shadow" x="-30%" y="-30%" width="160%" height="160%">
      <feDropShadow dx="2.5" dy="3.5" stdDeviation="3" flood-color="#1a1a2e" flood-opacity="0.45"/>
    </filter>
  </defs>
  <g filter="url(#shadow)" fill="none">
    <g stroke="#12060c" stroke-width="4.5" stroke-linecap="round" stroke-linejoin="round" transform="translate(2,2)">
    <path d="M6 24 Q6 8 24 8 Q42 8 42 24 Q42 36 34 38 Q28 40 28 34 Q28 28 34 26 Q38 24 38 20"/>
    <circle cx="10" cy="18" r="2"/>
    <ellipse cx="32" cy="26" rx="2" ry="1"/>
    </g>
    <g stroke="#250c19" stroke-width="3" stroke-linecap="round" stroke-linejoin="round" transform="translate(1,1)">
    <path d="M6 24 Q6 8 24 8 Q42 8 42 24 Q42 36 34 38 Q28 40 28 34 Q28 28 34 26 Q38 24 38 20"/>
    <circle cx="10" cy="18" r="2"/>
    <ellipse cx="32" cy="26" rx="2" ry="1"/>
    </g>
    <g stroke="url(#g)" stroke-width="1.5" stroke-linecap="round" stroke-linejoin="round">
    <path d="M6 24 Q6 8 24 8 Q42 8 42 24 Q42 36 34 38 Q28 40 28 34 Q28 28 34 26 Q38 24 38 20"/>
    <circle cx="10" cy="18" r="2"/>
    <ellipse cx="32" cy="26" rx="2" ry="1"/>
    </g>
  </g>
</svg>