<svg xmlns="http://www.w3.org/2000/svg" viewBox="0 0 48 48">
  <defs>
    <linearGradient id="g" x1="0%" y1="0%" x2="100%" y2="100%">
      <stop offset="0%" stop-color="#b0b4c1"/>
      <stop offset="100%" stop-color="#14161d"/>
    </linearGradient>
    <filter id="shadow" x="-30%" y="-30%" width="160%" height="160%">
      <feDropShadow dx="2.5" dy="3.5" stdDeviation="3" flood-color="#1a1a2e" flood-opacity="0.45"/>
    </filter>
  </defs>
  <g filter="url(#shadow)" fill="none">
    <g stroke="#0a0b0e" stroke-width="4.5" stroke-linecap="round" stroke-linejoin="round" transform="translate(2,2)">
    <circle cx="24" cy="10" r="6"/>
    <line x1="24" y1="16" x2="24" y2="34"/>
    <line x1="24" y1="22" x2="14" y2="30 M24 22 L34 30"/>
    <line x1="24" y1="34" x2="16" y2="44 M24 34 L32 44"/>
    </g>
    <g stroke="#14161d" stroke-width="3" stroke-linecap="round" stroke-linejoin="round" transform="translate(1,1)">
    <circle cx="24" cy="10" r="6"/>
    <line x1="24" y1="16" x2="24" y2="34"/>
    <line x1="24" y1="22" x2="14" y2="30 M24 22 L34 30"/>
    <line x1="24" y1="34" x2="16" y2="44 M24 34 L32 44"/>
    </g>
    <g stroke="url(#g)" stroke-width="1.5" stroke-linecap="round" stroke-linejoin="round">
    <circle cx="24" cy="10" r="6"/>
    <line x1="24" y1="16" x2="24" y2="34"/>
    <line x1="24" y1="22" x2="14" y2="30 M24 22 L34 30"/>
    <line x1="24" y1="34" x2="16" y2="44 M24 34 L32 44"/>
    </g>
  </g>
</svg>