<svg xmlns="http://www.w3.org/2000/svg" viewBox="0 0 48 48">
  <defs>
    <linearGradient id="g" x1="0%" y1="0%" x2="100%" y2="100%">
      <stop offset="0%" stop-color="#dbd7aa"/>
      <stop offset="100%" stop-color="#2b2911"/>
    </linearGradient>
    <filter id="shadow" x="-30%" y="-30%" width="160%" height="160%">
      <feDropShadow dx="2.5" dy="3.5" stdDeviation="3" flood-color="#1a1a2e" flood-opacity="0.45"/>
    </filter>
  </defs>
  <g filter="url(#shadow)" fill="none">
    <g stroke="#151408" stroke-width="4.5" stroke-linecap="round" stroke-linejoin="round" transform="translate(2,2)">
    <ellipse cx="24" cy="30" rx="9" ry="12"/>
    <rect x="10" y="6" width="28" height="8" rx="4"/>
    <line x1="14" y1="14" x2="18" y2="24 M34 14 L30 24"/>
    </g>
    <g stroke="#2b2911" stroke-width="3" stroke-linecap="round" stroke-linejoin="round" transform="translate(1,1)">
    <ellipse cx="24" cy="30" rx="9" ry="12"/>
    <rect x="10" y="6" width="28" height="8" rx="4"/>
    <line x1="14" y1="14" x2="18" y2="24 M34 14 L30 24"/>
    </g>
    <g stroke="url(#g)" stroke-width="1.5" stroke-linecap="round" stroke-linejoin="round">
    <ellipse cx="24" cy="30" rx="9" ry="12"/>
    <rect x="10" y="6" width="28" height="8" rx="4"/>
    <line x1="14" y1="14" x2="18" y2="24 M34 14 L30 24"/>
    </g>
  </g>
</svg>