<svg xmlns="http://www.w3.org/2000/svg" viewBox="0 0 48 48">
  <defs>
    <linearGradient id="g" x1="0%" y1="0%" x2="100%" y2="100%">
      <stop offset="0%" stop-color="#a9b8e5"/>
      <stop offset="100%" stop-color="#23356c"/>
    </linearGradient>
    <filter id="sh" x="-30%" y="-30%" width="160%" height="160%">
      <feDropShadow dx="2.5" dy="3.5" stdDeviation="3" flood-color="#1a1a2e" flood-opacity="0.45"/>
    </filter>
  </defs>
  <g filter="url(#sh)" fill="none">
    <g stroke="#101831" stroke-width="4.5" stroke-linecap="round" stroke-linejoin="round" transform="translate(2,2)">
<path d="M4 24 Q24 6 44 24 Q24 34 4 24 Z"/><path d="M24 14 L24 34"/><line x1="4" y1="24" x2="2" y2="18"/><line x1="4" y1="24" x2="2" y2="30"/><line x1="44" y1="24" x2="46" y2="18"/><line x1="44" y1="24" x2="46" y2="30"/><circle cx="20" cy="20" r="1.5"/><circle cx="28" cy="20" r="1.5"/>
    </g>
    <g stroke="#23356c" stroke-width="3" stroke-linecap="round" stroke-linejoin="round" transform="translate(1,1)">
<path d="M4 24 Q24 6 44 24 Q24 34 4 24 Z"/><path d="M24 14 L24 34"/><line x1="4" y1="24" x2="2" y2="18"/><line x1="4" y1="24" x2="2" y2="30"/><line x1="44" y1="24" x2="46" y2="18"/><line x1="44" y1="24" x2="46" y2="30"/><circle cx="20" cy="20" r="1.5"/><circle cx="28" cy="20" r="1.5"/>
    </g>
    <g stroke="url(#g)" stroke-width="1.5" stroke-linecap="round" stroke-linejoin="round">
<path d="M4 24 Q24 6 44 24 Q24 34 4 24 Z"/><path d="M24 14 L24 34"/><line x1="4" y1="24" x2="2" y2="18"/><line x1="4" y1="24" x2="2" y2="30"/><line x1="44" y1="24" x2="46" y2="18"/><line x1="44" y1="24" x2="46" y2="30"/><circle cx="20" cy="20" r="1.5"/><circle cx="28" cy="20" r="1.5"/>
    </g>
  </g>
</svg>