<svg xmlns="http://www.w3.org/2000/svg" viewBox="0 0 48 48">
  <defs>
    <linearGradient id="g" x1="0%" y1="0%" x2="100%" y2="100%">
      <stop offset="0%" stop-color="#a1ceb7"/>
      <stop offset="100%" stop-color="#0c2417"/>
    </linearGradient>
    <filter id="shadow" x="-30%" y="-30%" width="160%" height="160%">
      <feDropShadow dx="2.5" dy="3.5" stdDeviation="3" flood-color="#1a1a2e" flood-opacity="0.45"/>
    </filter>
  </defs>
  <g filter="url(#shadow)" fill="none">
    <g stroke="#06120b" stroke-width="4.5" stroke-linecap="round" stroke-linejoin="round" transform="translate(2,2)">
    <rect x="4" y="6" width="40" height="36" rx="2"/>
    <path d="M4 12 L44 12 M4 18 L44 18 M4 24 L44 24 M4 30 L44 30 M4 36 L44 36"/>
    <circle cx="14" cy="16" r="2" fill="currentColor"/>
    <path d="M14 16 Q18 14 24 16 Q28 18 34 16" stroke-dasharray="2 2"/>
    </g>
    <g stroke="#0c2417" stroke-width="3" stroke-linecap="round" stroke-linejoin="round" transform="translate(1,1)">
    <rect x="4" y="6" width="40" height="36" rx="2"/>
    <path d="M4 12 L44 12 M4 18 L44 18 M4 24 L44 24 M4 30 L44 30 M4 36 L44 36"/>
    <circle cx="14" cy="16" r="2" fill="currentColor"/>
    <path d="M14 16 Q18 14 24 16 Q28 18 34 16" stroke-dasharray="2 2"/>
    </g>
    <g stroke="url(#g)" stroke-width="1.5" stroke-linecap="round" stroke-linejoin="round">
    <rect x="4" y="6" width="40" height="36" rx="2"/>
    <path d="M4 12 L44 12 M4 18 L44 18 M4 24 L44 24 M4 30 L44 30 M4 36 L44 36"/>
    <circle cx="14" cy="16" r="2" fill="currentColor"/>
    <path d="M14 16 Q18 14 24 16 Q28 18 34 16" stroke-dasharray="2 2"/>
    </g>
  </g>
</svg>