<svg xmlns="http://www.w3.org/2000/svg" viewBox="0 0 48 48">
  <defs>
    <linearGradient id="g" x1="0%" y1="0%" x2="100%" y2="100%">
      <stop offset="0%" stop-color="#dadca8"/>
      <stop offset="100%" stop-color="#2b2c0f"/>
    </linearGradient>
    <filter id="shadow" x="-30%" y="-30%" width="160%" height="160%">
      <feDropShadow dx="2.5" dy="3.5" stdDeviation="3" flood-color="#1a1a2e" flood-opacity="0.45"/>
    </filter>
  </defs>
  <g filter="url(#shadow)" fill="none">
    <g stroke="#151607" stroke-width="4.5" stroke-linecap="round" stroke-linejoin="round" transform="translate(2,2)">
    <ellipse cx="24" cy="30" rx="8" ry="12"/>
    <circle cx="24" cy="14" r="6"/>
    <line x1="24" y1="26" x2="14" y2="38 M24 26 L34 38"/>
    <line x1="18" y1="40" x2="14" y2="44 M30 40 L34 44"/>
    </g>
    <g stroke="#2b2c0f" stroke-width="3" stroke-linecap="round" stroke-linejoin="round" transform="translate(1,1)">
    <ellipse cx="24" cy="30" rx="8" ry="12"/>
    <circle cx="24" cy="14" r="6"/>
    <line x1="24" y1="26" x2="14" y2="38 M24 26 L34 38"/>
    <line x1="18" y1="40" x2="14" y2="44 M30 40 L34 44"/>
    </g>
    <g stroke="url(#g)" stroke-width="1.5" stroke-linecap="round" stroke-linejoin="round">
    <ellipse cx="24" cy="30" rx="8" ry="12"/>
    <circle cx="24" cy="14" r="6"/>
    <line x1="24" y1="26" x2="14" y2="38 M24 26 L34 38"/>
    <line x1="18" y1="40" x2="14" y2="44 M30 40 L34 44"/>
    </g>
  </g>
</svg>