<svg xmlns="http://www.w3.org/2000/svg" viewBox="0 0 48 48">
  <defs>
    <linearGradient id="g" x1="0%" y1="0%" x2="100%" y2="100%">
      <stop offset="0%" stop-color="#FFCDD2"/>
      <stop offset="100%" stop-color="#6D1616"/>
    </linearGradient>
    <filter id="sh" x="-30%" y="-30%" width="160%" height="160%">
      <feDropShadow dx="2.5" dy="3.5" stdDeviation="3" flood-color="#1a1a2e" flood-opacity="0.45"/>
    </filter>
  </defs>
  <g filter="url(#sh)" fill="none">
    <g stroke="#370B0B" stroke-width="4.5" stroke-linecap="round" stroke-linejoin="round" transform="translate(2,2)">
        <path d="M12 20 C12 6 36 6 36 20 L36 24 L12 24 Z"/>
        <line x1="8" y1="24" x2="40" y2="24"/>
        <path d="M18 12 L18 18 L24 12 L24 18 L30 12 L30 18"/>
        <path d="M12 24 C12 38 36 38 36 24"/>
        <path d="M14 30 Q20 38 24 30 Q28 38 34 30"/>
        <circle cx="18" cy="27" r="2" fill="#607D8B"/>
        <circle cx="30" cy="27" r="2" fill="#607D8B"/>
    </g>
    <g stroke="#6D1616" stroke-width="3" stroke-linecap="round" stroke-linejoin="round" transform="translate(1,1)">
        <path d="M12 20 C12 6 36 6 36 20 L36 24 L12 24 Z"/>
        <line x1="8" y1="24" x2="40" y2="24"/>
        <path d="M18 12 L18 18 L24 12 L24 18 L30 12 L30 18"/>
        <path d="M12 24 C12 38 36 38 36 24"/>
        <path d="M14 30 Q20 38 24 30 Q28 38 34 30"/>
        <circle cx="18" cy="27" r="2" fill="#607D8B"/>
        <circle cx="30" cy="27" r="2" fill="#607D8B"/>
    </g>
    <g stroke="url(#g)" stroke-width="1.5" stroke-linecap="round" stroke-linejoin="round">
        <path d="M12 20 C12 6 36 6 36 20 L36 24 L12 24 Z"/>
        <line x1="8" y1="24" x2="40" y2="24"/>
        <path d="M18 12 L18 18 L24 12 L24 18 L30 12 L30 18"/>
        <path d="M12 24 C12 38 36 38 36 24"/>
        <path d="M14 30 Q20 38 24 30 Q28 38 34 30"/>
        <circle cx="18" cy="27" r="2" fill="#607D8B"/>
        <circle cx="30" cy="27" r="2" fill="#607D8B"/>
    </g>
  </g>
</svg>