<svg xmlns="http://www.w3.org/2000/svg" viewBox="0 0 48 48">
  <defs>
    <linearGradient id="g" x1="0%" y1="0%" x2="100%" y2="100%">
      <stop offset="0%" stop-color="#dda5e2"/>
      <stop offset="100%" stop-color="#2d0e2f"/>
    </linearGradient>
    <filter id="shadow" x="-30%" y="-30%" width="160%" height="160%">
      <feDropShadow dx="2.5" dy="3.5" stdDeviation="3" flood-color="#1a1a2e" flood-opacity="0.45"/>
    </filter>
  </defs>
  <g filter="url(#shadow)" fill="none">
    <g stroke="#160717" stroke-width="4.5" stroke-linecap="round" stroke-linejoin="round" transform="translate(2,2)">
    <rect x="12" y="6" width="24" height="32" rx="4"/>
    <rect x="12" y="6" width="24" height="8" rx="2"/>
    <circle cx="24" cy="38" r="4" fill="currentColor"/>
    <line x1="16" y1="22" x2="32" y2="22 M16 28 L32 28"/>
    </g>
    <g stroke="#2d0e2f" stroke-width="3" stroke-linecap="round" stroke-linejoin="round" transform="translate(1,1)">
    <rect x="12" y="6" width="24" height="32" rx="4"/>
    <rect x="12" y="6" width="24" height="8" rx="2"/>
    <circle cx="24" cy="38" r="4" fill="currentColor"/>
    <line x1="16" y1="22" x2="32" y2="22 M16 28 L32 28"/>
    </g>
    <g stroke="url(#g)" stroke-width="1.5" stroke-linecap="round" stroke-linejoin="round">
    <rect x="12" y="6" width="24" height="32" rx="4"/>
    <rect x="12" y="6" width="24" height="8" rx="2"/>
    <circle cx="24" cy="38" r="4" fill="currentColor"/>
    <line x1="16" y1="22" x2="32" y2="22 M16 28 L32 28"/>
    </g>
  </g>
</svg>