<svg xmlns="http://www.w3.org/2000/svg" viewBox="0 0 48 48">
  <defs>
    <linearGradient id="g" x1="0%" y1="0%" x2="100%" y2="100%">
      <stop offset="0%" stop-color="#a2b5c1"/>
      <stop offset="100%" stop-color="#0c171d"/>
    </linearGradient>
    <filter id="shadow" x="-30%" y="-30%" width="160%" height="160%">
      <feDropShadow dx="2.5" dy="3.5" stdDeviation="3" flood-color="#1a1a2e" flood-opacity="0.45"/>
    </filter>
  </defs>
  <g filter="url(#shadow)" fill="none">
    <g stroke="#060b0e" stroke-width="4.5" stroke-linecap="round" stroke-linejoin="round" transform="translate(2,2)">
    <circle cx="24" cy="24" r="12"/>
    <circle cx="24" cy="24" r="6"/>
    <rect x="22" y="8" width="4" height="6" rx="1"/>
    <line x1="14" y1="18" x2="34" y2="30 M16 30 L32 18"/>
    <circle cx="24" cy="24" r="2" fill="currentColor"/>
    </g>
    <g stroke="#0c171d" stroke-width="3" stroke-linecap="round" stroke-linejoin="round" transform="translate(1,1)">
    <circle cx="24" cy="24" r="12"/>
    <circle cx="24" cy="24" r="6"/>
    <rect x="22" y="8" width="4" height="6" rx="1"/>
    <line x1="14" y1="18" x2="34" y2="30 M16 30 L32 18"/>
    <circle cx="24" cy="24" r="2" fill="currentColor"/>
    </g>
    <g stroke="url(#g)" stroke-width="1.5" stroke-linecap="round" stroke-linejoin="round">
    <circle cx="24" cy="24" r="12"/>
    <circle cx="24" cy="24" r="6"/>
    <rect x="22" y="8" width="4" height="6" rx="1"/>
    <line x1="14" y1="18" x2="34" y2="30 M16 30 L32 18"/>
    <circle cx="24" cy="24" r="2" fill="currentColor"/>
    </g>
  </g>
</svg>