<svg xmlns="http://www.w3.org/2000/svg" viewBox="0 0 48 48">
  <defs>
    <linearGradient id="g" x1="0%" y1="0%" x2="100%" y2="100%">
      <stop offset="0%" stop-color="#c9d0a7"/>
      <stop offset="100%" stop-color="#22260f"/>
    </linearGradient>
    <filter id="shadow" x="-30%" y="-30%" width="160%" height="160%">
      <feDropShadow dx="2.5" dy="3.5" stdDeviation="3" flood-color="#1a1a2e" flood-opacity="0.45"/>
    </filter>
  </defs>
  <g filter="url(#shadow)" fill="none">
    <g stroke="#111307" stroke-width="4.5" stroke-linecap="round" stroke-linejoin="round" transform="translate(2,2)">
    <circle cx="16" cy="16" r="8"/>
    <circle cx="16" cy="16" r="5"/>
    <polygon points="16,2 14,10 18,10"/>
    <line x1="24" y1="18" x2="40" y2="44"/>
    <line x1="28" y1="22" x2="44" y2="44"/>
    <line x1="24" y1="26" x2="40" y2="44"/>
    </g>
    <g stroke="#22260f" stroke-width="3" stroke-linecap="round" stroke-linejoin="round" transform="translate(1,1)">
    <circle cx="16" cy="16" r="8"/>
    <circle cx="16" cy="16" r="5"/>
    <polygon points="16,2 14,10 18,10"/>
    <line x1="24" y1="18" x2="40" y2="44"/>
    <line x1="28" y1="22" x2="44" y2="44"/>
    <line x1="24" y1="26" x2="40" y2="44"/>
    </g>
    <g stroke="url(#g)" stroke-width="1.5" stroke-linecap="round" stroke-linejoin="round">
    <circle cx="16" cy="16" r="8"/>
    <circle cx="16" cy="16" r="5"/>
    <polygon points="16,2 14,10 18,10"/>
    <line x1="24" y1="18" x2="40" y2="44"/>
    <line x1="28" y1="22" x2="44" y2="44"/>
    <line x1="24" y1="26" x2="40" y2="44"/>
    </g>
  </g>
</svg>