<svg xmlns="http://www.w3.org/2000/svg" viewBox="0 0 48 48">
  <defs>
    <linearGradient id="g" x1="0%" y1="0%" x2="100%" y2="100%">
      <stop offset="0%" stop-color="#c9a7bc"/>
      <stop offset="100%" stop-color="#4b213a"/>
    </linearGradient>
    <filter id="sh" x="-30%" y="-30%" width="160%" height="160%">
      <feDropShadow dx="2.5" dy="3.5" stdDeviation="3" flood-color="#1a1a2e" flood-opacity="0.45"/>
    </filter>
  </defs>
  <g filter="url(#sh)" fill="none">
    <g stroke="#220f1a" stroke-width="4.5" stroke-linecap="round" stroke-linejoin="round" transform="translate(2,2)">
<path d="M12 24 Q12 6 24 6 Q36 6 36 24 L36 40 L24 44 L12 40 Z"/>
        <circle cx="18" cy="20" r="2"/><circle cx="30" cy="20" r="2"/>
        <path d="M18 28 Q24 34 30 28"/>
    </g>
    <g stroke="#4b213a" stroke-width="3" stroke-linecap="round" stroke-linejoin="round" transform="translate(1,1)">
<path d="M12 24 Q12 6 24 6 Q36 6 36 24 L36 40 L24 44 L12 40 Z"/>
        <circle cx="18" cy="20" r="2"/><circle cx="30" cy="20" r="2"/>
        <path d="M18 28 Q24 34 30 28"/>
    </g>
    <g stroke="url(#g)" stroke-width="1.5" stroke-linecap="round" stroke-linejoin="round">
<path d="M12 24 Q12 6 24 6 Q36 6 36 24 L36 40 L24 44 L12 40 Z"/>
        <circle cx="18" cy="20" r="2"/><circle cx="30" cy="20" r="2"/>
        <path d="M18 28 Q24 34 30 28"/>
    </g>
  </g>
</svg>