<svg xmlns="http://www.w3.org/2000/svg" viewBox="0 0 48 48">
  <defs>
    <linearGradient id="g" x1="0%" y1="0%" x2="100%" y2="100%">
      <stop offset="0%" stop-color="#c4b6d4"/>
      <stop offset="100%" stop-color="#1f1728"/>
    </linearGradient>
    <filter id="shadow" x="-30%" y="-30%" width="160%" height="160%">
      <feDropShadow dx="2.5" dy="3.5" stdDeviation="3" flood-color="#1a1a2e" flood-opacity="0.45"/>
    </filter>
  </defs>
  <g filter="url(#shadow)" fill="none">
    <g stroke="#0f0b14" stroke-width="4.5" stroke-linecap="round" stroke-linejoin="round" transform="translate(2,2)">
    <ellipse cx="24" cy="14" rx="16" ry="3"/>
    <circle cx="10" cy="14" r="4"/>
    <circle cx="8" cy="12" r="1.5"/>
    <line x1="8" y1="16" x2="4" y2="22 M14" y1="16" x2="14" y2="22 M20" y1="16" x2="20" y2="22"/>
    <line x1="26" y1="16" x2="26" y2="22 M32" y1="16" x2="32" y2="22 M38" y1="16" x2="38" y2="22"/>
    </g>
    <g stroke="#1f1728" stroke-width="3" stroke-linecap="round" stroke-linejoin="round" transform="translate(1,1)">
    <ellipse cx="24" cy="14" rx="16" ry="3"/>
    <circle cx="10" cy="14" r="4"/>
    <circle cx="8" cy="12" r="1.5"/>
    <line x1="8" y1="16" x2="4" y2="22 M14" y1="16" x2="14" y2="22 M20" y1="16" x2="20" y2="22"/>
    <line x1="26" y1="16" x2="26" y2="22 M32" y1="16" x2="32" y2="22 M38" y1="16" x2="38" y2="22"/>
    </g>
    <g stroke="url(#g)" stroke-width="1.5" stroke-linecap="round" stroke-linejoin="round">
    <ellipse cx="24" cy="14" rx="16" ry="3"/>
    <circle cx="10" cy="14" r="4"/>
    <circle cx="8" cy="12" r="1.5"/>
    <line x1="8" y1="16" x2="4" y2="22 M14" y1="16" x2="14" y2="22 M20" y1="16" x2="20" y2="22"/>
    <line x1="26" y1="16" x2="26" y2="22 M32" y1="16" x2="32" y2="22 M38" y1="16" x2="38" y2="22"/>
    </g>
  </g>
</svg>