<svg xmlns="http://www.w3.org/2000/svg" viewBox="0 0 48 48">
  <defs>
    <linearGradient id="g" x1="0%" y1="0%" x2="100%" y2="100%">
      <stop offset="0%" stop-color="#b7d5cc"/>
      <stop offset="100%" stop-color="#182823"/>
    </linearGradient>
    <filter id="shadow" x="-30%" y="-30%" width="160%" height="160%">
      <feDropShadow dx="2.5" dy="3.5" stdDeviation="3" flood-color="#1a1a2e" flood-opacity="0.45"/>
    </filter>
  </defs>
  <g filter="url(#shadow)" fill="none">
    <g stroke="#0c1411" stroke-width="4.5" stroke-linecap="round" stroke-linejoin="round" transform="translate(2,2)">
    <path d="M6 28 L8 42 Q8 44 14 44 L34 44 Q36 44 38 42 L40 28 Z"/>
    <path d="M6 28 Q6 18 24 18 Q42 18 40 28"/>
    <line x1="14" y1="36" x2="34" y2="36"/>
    <circle cx="24" cy="18" r="2" fill="currentColor"/>
    </g>
    <g stroke="#182823" stroke-width="3" stroke-linecap="round" stroke-linejoin="round" transform="translate(1,1)">
    <path d="M6 28 L8 42 Q8 44 14 44 L34 44 Q36 44 38 42 L40 28 Z"/>
    <path d="M6 28 Q6 18 24 18 Q42 18 40 28"/>
    <line x1="14" y1="36" x2="34" y2="36"/>
    <circle cx="24" cy="18" r="2" fill="currentColor"/>
    </g>
    <g stroke="url(#g)" stroke-width="1.5" stroke-linecap="round" stroke-linejoin="round">
    <path d="M6 28 L8 42 Q8 44 14 44 L34 44 Q36 44 38 42 L40 28 Z"/>
    <path d="M6 28 Q6 18 24 18 Q42 18 40 28"/>
    <line x1="14" y1="36" x2="34" y2="36"/>
    <circle cx="24" cy="18" r="2" fill="currentColor"/>
    </g>
  </g>
</svg>