<svg xmlns="http://www.w3.org/2000/svg" viewBox="0 0 48 48">
  <defs>
    <linearGradient id="g" x1="0%" y1="0%" x2="100%" y2="100%">
      <stop offset="0%" stop-color="#d8dab9"/>
      <stop offset="100%" stop-color="#5c5f37"/>
    </linearGradient>
    <filter id="sh" x="-30%" y="-30%" width="160%" height="160%">
      <feDropShadow dx="2.5" dy="3.5" stdDeviation="3" flood-color="#1a1a2e" flood-opacity="0.45"/>
    </filter>
  </defs>
  <g filter="url(#sh)" fill="none">
    <g stroke="#2a2b19" stroke-width="4.5" stroke-linecap="round" stroke-linejoin="round" transform="translate(2,2)">
<ellipse cx="24" cy="26" rx="12" ry="10"/><circle cx="24" cy="12" r="6"/><circle cx="20" cy="10" r="1.5"/><circle cx="28" cy="10" r="1.5"/><path d="M8 22 L4 18 M40 22 L44 18"/><circle cx="18" cy="24" r="2"/><circle cx="30" cy="24" r="2"/>
    </g>
    <g stroke="#5c5f37" stroke-width="3" stroke-linecap="round" stroke-linejoin="round" transform="translate(1,1)">
<ellipse cx="24" cy="26" rx="12" ry="10"/><circle cx="24" cy="12" r="6"/><circle cx="20" cy="10" r="1.5"/><circle cx="28" cy="10" r="1.5"/><path d="M8 22 L4 18 M40 22 L44 18"/><circle cx="18" cy="24" r="2"/><circle cx="30" cy="24" r="2"/>
    </g>
    <g stroke="url(#g)" stroke-width="1.5" stroke-linecap="round" stroke-linejoin="round">
<ellipse cx="24" cy="26" rx="12" ry="10"/><circle cx="24" cy="12" r="6"/><circle cx="20" cy="10" r="1.5"/><circle cx="28" cy="10" r="1.5"/><path d="M8 22 L4 18 M40 22 L44 18"/><circle cx="18" cy="24" r="2"/><circle cx="30" cy="24" r="2"/>
    </g>
  </g>
</svg>