<svg xmlns="http://www.w3.org/2000/svg" viewBox="0 0 48 48">
  <defs>
    <linearGradient id="g" x1="0%" y1="0%" x2="100%" y2="100%">
      <stop offset="0%" stop-color="#d2b7a5"/>
      <stop offset="100%" stop-color="#26180d"/>
    </linearGradient>
    <filter id="shadow" x="-30%" y="-30%" width="160%" height="160%">
      <feDropShadow dx="2.5" dy="3.5" stdDeviation="3" flood-color="#1a1a2e" flood-opacity="0.45"/>
    </filter>
  </defs>
  <g filter="url(#shadow)" fill="none">
    <g stroke="#130c06" stroke-width="4.5" stroke-linecap="round" stroke-linejoin="round" transform="translate(2,2)">
    <ellipse cx="24" cy="26" rx="12" ry="10"/>
    <circle cx="24" cy="18" r="6"/>
    <circle cx="19" cy="16" r="1"/>
    <circle cx="29" cy="16" r="1"/>
    <path d="M14 14 L10 10 M34 14 L38 10"/>
    <ellipse cx="24" cy="30" rx="6" ry="3"/>
    </g>
    <g stroke="#26180d" stroke-width="3" stroke-linecap="round" stroke-linejoin="round" transform="translate(1,1)">
    <ellipse cx="24" cy="26" rx="12" ry="10"/>
    <circle cx="24" cy="18" r="6"/>
    <circle cx="19" cy="16" r="1"/>
    <circle cx="29" cy="16" r="1"/>
    <path d="M14 14 L10 10 M34 14 L38 10"/>
    <ellipse cx="24" cy="30" rx="6" ry="3"/>
    </g>
    <g stroke="url(#g)" stroke-width="1.5" stroke-linecap="round" stroke-linejoin="round">
    <ellipse cx="24" cy="26" rx="12" ry="10"/>
    <circle cx="24" cy="18" r="6"/>
    <circle cx="19" cy="16" r="1"/>
    <circle cx="29" cy="16" r="1"/>
    <path d="M14 14 L10 10 M34 14 L38 10"/>
    <ellipse cx="24" cy="30" rx="6" ry="3"/>
    </g>
  </g>
</svg>