<svg xmlns="http://www.w3.org/2000/svg" viewBox="0 0 48 48">
  <defs>
    <linearGradient id="iconGrad" x1="0%" y1="0%" x2="100%" y2="100%">
      <stop offset="0%" stop-color="#FFECB3"/>
      <stop offset="100%" stop-color="#8C6200"/>
    </linearGradient>
    <filter id="shadow" x="-30%" y="-30%" width="160%" height="160%">
      <feDropShadow dx="2.5" dy="3.5" stdDeviation="3" flood-color="#1a1a2e" flood-opacity="0.45"/>
    </filter>
  </defs>
  <g filter="url(#shadow)" fill="none">
    <g stroke="#463100" stroke-width="4.5" stroke-linecap="round" stroke-linejoin="round" transform="translate(2,2)">
      <circle cx="24" cy="24" r="18"/>
      <circle cx="24" cy="24" r="14"/>
      <path d="M16 12 Q24 8 24 16 Q24 20 16 22 Q24 24 24 32 Q24 36 16 34"/>
      <line x1="20" y1="8" x2="20" y2="38"/>
    </g>
    <g stroke="#8C6200" stroke-width="3" stroke-linecap="round" stroke-linejoin="round" transform="translate(1,1)">
      <circle cx="24" cy="24" r="18"/>
      <circle cx="24" cy="24" r="14"/>
      <path d="M16 12 Q24 8 24 16 Q24 20 16 22 Q24 24 24 32 Q24 36 16 34"/>
      <line x1="20" y1="8" x2="20" y2="38"/>
    </g>
    <g stroke="url(#iconGrad)" stroke-width="1.5" stroke-linecap="round" stroke-linejoin="round">
      <circle cx="24" cy="24" r="18"/>
      <circle cx="24" cy="24" r="14"/>
      <path d="M16 12 Q24 8 24 16 Q24 20 16 22 Q24 24 24 32 Q24 36 16 34"/>
      <line x1="20" y1="8" x2="20" y2="38"/>
    </g>
  </g>
</svg>