<svg xmlns="http://www.w3.org/2000/svg" viewBox="0 0 48 48">
  <defs>
    <linearGradient id="g" x1="0%" y1="0%" x2="100%" y2="100%">
      <stop offset="0%" stop-color="#ace2e4"/>
      <stop offset="100%" stop-color="#122f31"/>
    </linearGradient>
    <filter id="shadow" x="-30%" y="-30%" width="160%" height="160%">
      <feDropShadow dx="2.5" dy="3.5" stdDeviation="3" flood-color="#1a1a2e" flood-opacity="0.45"/>
    </filter>
  </defs>
  <g filter="url(#shadow)" fill="none">
    <g stroke="#091718" stroke-width="4.5" stroke-linecap="round" stroke-linejoin="round" transform="translate(2,2)">
    <ellipse cx="24" cy="28" rx="12" ry="14"/>
    <ellipse cx="24" cy="16" rx="8" ry="5"/>
    <circle cx="20" cy="14" r="2"/>
    <path d="M14 8 L8 2 L10 10 M10 10 L4 6 M10 10 L6 14"/>
    <path d="M34 8 L40 2 L38 10 M38 10 L44 6 M38 10 L42 14"/>
    <line x1="16" y1="34" x2="10" y2="44"/>
    <line x1="32" y1="34" x2="38" y2="44"/>
    </g>
    <g stroke="#122f31" stroke-width="3" stroke-linecap="round" stroke-linejoin="round" transform="translate(1,1)">
    <ellipse cx="24" cy="28" rx="12" ry="14"/>
    <ellipse cx="24" cy="16" rx="8" ry="5"/>
    <circle cx="20" cy="14" r="2"/>
    <path d="M14 8 L8 2 L10 10 M10 10 L4 6 M10 10 L6 14"/>
    <path d="M34 8 L40 2 L38 10 M38 10 L44 6 M38 10 L42 14"/>
    <line x1="16" y1="34" x2="10" y2="44"/>
    <line x1="32" y1="34" x2="38" y2="44"/>
    </g>
    <g stroke="url(#g)" stroke-width="1.5" stroke-linecap="round" stroke-linejoin="round">
    <ellipse cx="24" cy="28" rx="12" ry="14"/>
    <ellipse cx="24" cy="16" rx="8" ry="5"/>
    <circle cx="20" cy="14" r="2"/>
    <path d="M14 8 L8 2 L10 10 M10 10 L4 6 M10 10 L6 14"/>
    <path d="M34 8 L40 2 L38 10 M38 10 L44 6 M38 10 L42 14"/>
    <line x1="16" y1="34" x2="10" y2="44"/>
    <line x1="32" y1="34" x2="38" y2="44"/>
    </g>
  </g>
</svg>