<svg xmlns="http://www.w3.org/2000/svg" viewBox="0 0 48 48">
  <defs>
    <linearGradient id="g" x1="0%" y1="0%" x2="100%" y2="100%">
      <stop offset="0%" stop-color="#cdaca7"/>
      <stop offset="100%" stop-color="#4f2721"/>
    </linearGradient>
    <filter id="sh" x="-30%" y="-30%" width="160%" height="160%">
      <feDropShadow dx="2.5" dy="3.5" stdDeviation="3" flood-color="#1a1a2e" flood-opacity="0.45"/>
    </filter>
  </defs>
  <g filter="url(#sh)" fill="none">
    <g stroke="#24120f" stroke-width="4.5" stroke-linecap="round" stroke-linejoin="round" transform="translate(2,2)">
<rect x="6" y="20" width="36" height="16" rx="3"/>
        <line x1="24" y1="8" x2="24" y2="20"/>
        <rect x="20" y="4" width="8" height="6" rx="2"/>
        <line x1="24" y1="8" x2="28" y2="12"/>
    </g>
    <g stroke="#4f2721" stroke-width="3" stroke-linecap="round" stroke-linejoin="round" transform="translate(1,1)">
<rect x="6" y="20" width="36" height="16" rx="3"/>
        <line x1="24" y1="8" x2="24" y2="20"/>
        <rect x="20" y="4" width="8" height="6" rx="2"/>
        <line x1="24" y1="8" x2="28" y2="12"/>
    </g>
    <g stroke="url(#g)" stroke-width="1.5" stroke-linecap="round" stroke-linejoin="round">
<rect x="6" y="20" width="36" height="16" rx="3"/>
        <line x1="24" y1="8" x2="24" y2="20"/>
        <rect x="20" y="4" width="8" height="6" rx="2"/>
        <line x1="24" y1="8" x2="28" y2="12"/>
    </g>
  </g>
</svg>