<svg xmlns="http://www.w3.org/2000/svg" viewBox="0 0 48 48">
  <defs>
    <linearGradient id="g" x1="0%" y1="0%" x2="100%" y2="100%">
      <stop offset="0%" stop-color="#c9b7a9"/>
      <stop offset="100%" stop-color="#4a3523"/>
    </linearGradient>
    <filter id="sh" x="-30%" y="-30%" width="160%" height="160%">
      <feDropShadow dx="2.5" dy="3.5" stdDeviation="3" flood-color="#1a1a2e" flood-opacity="0.45"/>
    </filter>
  </defs>
  <g filter="url(#sh)" fill="none">
    <g stroke="#211810" stroke-width="4.5" stroke-linecap="round" stroke-linejoin="round" transform="translate(2,2)">
<ellipse cx="24" cy="18" rx="14" ry="6"/><path d="M10 18 L12 36 Q12 42 24 42 Q36 42 36 36 L38 18"/><circle cx="24" cy="24" r="5"/><circle cx="24" cy="24" r="2.5"/><line x1="18" y1="24" x2="30" y2="24"/>
    </g>
    <g stroke="#4a3523" stroke-width="3" stroke-linecap="round" stroke-linejoin="round" transform="translate(1,1)">
<ellipse cx="24" cy="18" rx="14" ry="6"/><path d="M10 18 L12 36 Q12 42 24 42 Q36 42 36 36 L38 18"/><circle cx="24" cy="24" r="5"/><circle cx="24" cy="24" r="2.5"/><line x1="18" y1="24" x2="30" y2="24"/>
    </g>
    <g stroke="url(#g)" stroke-width="1.5" stroke-linecap="round" stroke-linejoin="round">
<ellipse cx="24" cy="18" rx="14" ry="6"/><path d="M10 18 L12 36 Q12 42 24 42 Q36 42 36 36 L38 18"/><circle cx="24" cy="24" r="5"/><circle cx="24" cy="24" r="2.5"/><line x1="18" y1="24" x2="30" y2="24"/>
    </g>
  </g>
</svg>