<svg xmlns="http://www.w3.org/2000/svg" viewBox="0 0 48 48">
  <defs>
    <linearGradient id="g" x1="0%" y1="0%" x2="100%" y2="100%">
      <stop offset="0%" stop-color="#c2bfd8"/>
      <stop offset="100%" stop-color="#423e5d"/>
    </linearGradient>
    <filter id="sh" x="-30%" y="-30%" width="160%" height="160%">
      <feDropShadow dx="2.5" dy="3.5" stdDeviation="3" flood-color="#1a1a2e" flood-opacity="0.45"/>
    </filter>
  </defs>
  <g filter="url(#sh)" fill="none">
    <g stroke="#1e1c2a" stroke-width="4.5" stroke-linecap="round" stroke-linejoin="round" transform="translate(2,2)">
<ellipse cx="24" cy="24" rx="7" ry="12"/>
        <path d="M12 8 L36 8 L36 16 L12 16 Z"/>
        <path d="M12 32 L36 32 L36 40 L12 40 Z"/>
        <circle cx="24" cy="24" r="2"/>
        <line x1="12" y1="14" x2="12" y2="18"/>
        <line x1="36" y1="14" x2="36" y2="18"/>
        <line x1="12" y1="30" x2="12" y2="34"/>
        <line x1="36" y1="30" x2="36" y2="34"/>
    </g>
    <g stroke="#423e5d" stroke-width="3" stroke-linecap="round" stroke-linejoin="round" transform="translate(1,1)">
<ellipse cx="24" cy="24" rx="7" ry="12"/>
        <path d="M12 8 L36 8 L36 16 L12 16 Z"/>
        <path d="M12 32 L36 32 L36 40 L12 40 Z"/>
        <circle cx="24" cy="24" r="2"/>
        <line x1="12" y1="14" x2="12" y2="18"/>
        <line x1="36" y1="14" x2="36" y2="18"/>
        <line x1="12" y1="30" x2="12" y2="34"/>
        <line x1="36" y1="30" x2="36" y2="34"/>
    </g>
    <g stroke="url(#g)" stroke-width="1.5" stroke-linecap="round" stroke-linejoin="round">
<ellipse cx="24" cy="24" rx="7" ry="12"/>
        <path d="M12 8 L36 8 L36 16 L12 16 Z"/>
        <path d="M12 32 L36 32 L36 40 L12 40 Z"/>
        <circle cx="24" cy="24" r="2"/>
        <line x1="12" y1="14" x2="12" y2="18"/>
        <line x1="36" y1="14" x2="36" y2="18"/>
        <line x1="12" y1="30" x2="12" y2="34"/>
        <line x1="36" y1="30" x2="36" y2="34"/>
    </g>
  </g>
</svg>