<svg xmlns="http://www.w3.org/2000/svg" viewBox="0 0 48 48">
  <defs>
    <linearGradient id="g" x1="0%" y1="0%" x2="100%" y2="100%">
      <stop offset="0%" stop-color="#b9a2d4"/>
      <stop offset="100%" stop-color="#371a58"/>
    </linearGradient>
    <filter id="sh" x="-30%" y="-30%" width="160%" height="160%">
      <feDropShadow dx="2.5" dy="3.5" stdDeviation="3" flood-color="#1a1a2e" flood-opacity="0.45"/>
    </filter>
  </defs>
  <g filter="url(#sh)" fill="none">
    <g stroke="#190c28" stroke-width="4.5" stroke-linecap="round" stroke-linejoin="round" transform="translate(2,2)">
<circle cx="16" cy="34" r="8"/>
        <circle cx="36" cy="34" r="7"/>
        <path d="M16 34 L28 14 L36 34"/>
        <path d="M28 14 L22 20"/>
        <line x1="22" y1="20" x2="36" y2="34"/>
    </g>
    <g stroke="#371a58" stroke-width="3" stroke-linecap="round" stroke-linejoin="round" transform="translate(1,1)">
<circle cx="16" cy="34" r="8"/>
        <circle cx="36" cy="34" r="7"/>
        <path d="M16 34 L28 14 L36 34"/>
        <path d="M28 14 L22 20"/>
        <line x1="22" y1="20" x2="36" y2="34"/>
    </g>
    <g stroke="url(#g)" stroke-width="1.5" stroke-linecap="round" stroke-linejoin="round">
<circle cx="16" cy="34" r="8"/>
        <circle cx="36" cy="34" r="7"/>
        <path d="M16 34 L28 14 L36 34"/>
        <path d="M28 14 L22 20"/>
        <line x1="22" y1="20" x2="36" y2="34"/>
    </g>
  </g>
</svg>