<svg xmlns="http://www.w3.org/2000/svg" viewBox="0 0 48 48">
  <defs>
    <linearGradient id="iconGrad" x1="0%" y1="0%" x2="100%" y2="100%">
      <stop offset="0%" stop-color="#E1BEE7"/>
      <stop offset="100%" stop-color="#5E2767"/>
    </linearGradient>
    <filter id="shadow" x="-30%" y="-30%" width="160%" height="160%">
      <feDropShadow dx="2.5" dy="3.5" stdDeviation="3" flood-color="#1a1a2e" flood-opacity="0.45"/>
    </filter>
  </defs>
  <g filter="url(#shadow)" fill="none">
    <g stroke="#2F1434" stroke-width="4.5" stroke-linecap="round" stroke-linejoin="round" transform="translate(2,2)">
      <rect x="10" y="18" width="28" height="20" rx="2"/>
      <rect x="10" y="14" width="28" height="6" rx="1"/>
      <line x1="16" y1="26" x2="34" y2="20"/>
      <line x1="16" y1="32" x2="34" y2="26"/>
      <line x1="16" y1="38" x2="34" y2="32"/>
    </g>
    <g stroke="#5E2767" stroke-width="3" stroke-linecap="round" stroke-linejoin="round" transform="translate(1,1)">
      <rect x="10" y="18" width="28" height="20" rx="2"/>
      <rect x="10" y="14" width="28" height="6" rx="1"/>
      <line x1="16" y1="26" x2="34" y2="20"/>
      <line x1="16" y1="32" x2="34" y2="26"/>
      <line x1="16" y1="38" x2="34" y2="32"/>
    </g>
    <g stroke="url(#iconGrad)" stroke-width="1.5" stroke-linecap="round" stroke-linejoin="round">
      <rect x="10" y="18" width="28" height="20" rx="2"/>
      <rect x="10" y="14" width="28" height="6" rx="1"/>
      <line x1="16" y1="26" x2="34" y2="20"/>
      <line x1="16" y1="32" x2="34" y2="26"/>
      <line x1="16" y1="38" x2="34" y2="32"/>
    </g>
  </g>
</svg>