<svg xmlns="http://www.w3.org/2000/svg" viewBox="0 0 48 48">
  <defs>
    <linearGradient id="g" x1="0%" y1="0%" x2="100%" y2="100%">
      <stop offset="0%" stop-color="#dfc7c0"/>
      <stop offset="100%" stop-color="#2e201d"/>
    </linearGradient>
    <filter id="shadow" x="-30%" y="-30%" width="160%" height="160%">
      <feDropShadow dx="2.5" dy="3.5" stdDeviation="3" flood-color="#1a1a2e" flood-opacity="0.45"/>
    </filter>
  </defs>
  <g filter="url(#shadow)" fill="none">
    <g stroke="#17100e" stroke-width="4.5" stroke-linecap="round" stroke-linejoin="round" transform="translate(2,2)">
    <rect x="8" y="10" width="24" height="30" rx="4"/>
    <path d="M32 16 Q38 16 38 22 Q38 28 32 28"/>
    <ellipse cx="20" cy="10" rx="12" ry="4"/>
    <line x1="8" y1="20" x2="32" y2="20 M8 30 L32 30"/>
    </g>
    <g stroke="#2e201d" stroke-width="3" stroke-linecap="round" stroke-linejoin="round" transform="translate(1,1)">
    <rect x="8" y="10" width="24" height="30" rx="4"/>
    <path d="M32 16 Q38 16 38 22 Q38 28 32 28"/>
    <ellipse cx="20" cy="10" rx="12" ry="4"/>
    <line x1="8" y1="20" x2="32" y2="20 M8 30 L32 30"/>
    </g>
    <g stroke="url(#g)" stroke-width="1.5" stroke-linecap="round" stroke-linejoin="round">
    <rect x="8" y="10" width="24" height="30" rx="4"/>
    <path d="M32 16 Q38 16 38 22 Q38 28 32 28"/>
    <ellipse cx="20" cy="10" rx="12" ry="4"/>
    <line x1="8" y1="20" x2="32" y2="20 M8 30 L32 30"/>
    </g>
  </g>
</svg>