<svg xmlns="http://www.w3.org/2000/svg" viewBox="0 0 48 48">
  <defs>
    <linearGradient id="g" x1="0%" y1="0%" x2="100%" y2="100%">
      <stop offset="0%" stop-color="#b1c7b5"/>
      <stop offset="100%" stop-color="#2d4832"/>
    </linearGradient>
    <filter id="sh" x="-30%" y="-30%" width="160%" height="160%">
      <feDropShadow dx="2.5" dy="3.5" stdDeviation="3" flood-color="#1a1a2e" flood-opacity="0.45"/>
    </filter>
  </defs>
  <g filter="url(#sh)" fill="none">
    <g stroke="#142117" stroke-width="4.5" stroke-linecap="round" stroke-linejoin="round" transform="translate(2,2)">
<rect x="8" y="8" width="32" height="28" rx="4"/><circle cx="24" cy="18" r="8"/><line x1="24" y1="14" x2="24" y2="22"/><line x1="20" y1="18" x2="28" y2="18"/><line x1="24" y1="8" x2="24" y2="4"/><rect x="12" y="28" width="24" height="4" rx="1"/><line x1="16" y1="36" x2="16" y2="42"/><line x1="32" y1="36" x2="32" y2="42"/>
    </g>
    <g stroke="#2d4832" stroke-width="3" stroke-linecap="round" stroke-linejoin="round" transform="translate(1,1)">
<rect x="8" y="8" width="32" height="28" rx="4"/><circle cx="24" cy="18" r="8"/><line x1="24" y1="14" x2="24" y2="22"/><line x1="20" y1="18" x2="28" y2="18"/><line x1="24" y1="8" x2="24" y2="4"/><rect x="12" y="28" width="24" height="4" rx="1"/><line x1="16" y1="36" x2="16" y2="42"/><line x1="32" y1="36" x2="32" y2="42"/>
    </g>
    <g stroke="url(#g)" stroke-width="1.5" stroke-linecap="round" stroke-linejoin="round">
<rect x="8" y="8" width="32" height="28" rx="4"/><circle cx="24" cy="18" r="8"/><line x1="24" y1="14" x2="24" y2="22"/><line x1="20" y1="18" x2="28" y2="18"/><line x1="24" y1="8" x2="24" y2="4"/><rect x="12" y="28" width="24" height="4" rx="1"/><line x1="16" y1="36" x2="16" y2="42"/><line x1="32" y1="36" x2="32" y2="42"/>
    </g>
  </g>
</svg>