<svg xmlns="http://www.w3.org/2000/svg" viewBox="0 0 48 48">
  <defs>
    <linearGradient id="g" x1="0%" y1="0%" x2="100%" y2="100%">
      <stop offset="0%" stop-color="#c7e5ae"/>
      <stop offset="100%" stop-color="#486c29"/>
    </linearGradient>
    <filter id="sh" x="-30%" y="-30%" width="160%" height="160%">
      <feDropShadow dx="2.5" dy="3.5" stdDeviation="3" flood-color="#1a1a2e" flood-opacity="0.45"/>
    </filter>
  </defs>
  <g filter="url(#sh)" fill="none">
    <g stroke="#213112" stroke-width="4.5" stroke-linecap="round" stroke-linejoin="round" transform="translate(2,2)">
<ellipse cx="24" cy="16" rx="14" ry="10"/><rect x="16" y="16" width="16" height="18" rx="6"/><circle cx="18" cy="14" r="2"/><circle cx="30" cy="14" r="2"/><circle cx="24" cy="10" r="2.5"/><line x1="24" y1="34" x2="24" y2="40"/>
    </g>
    <g stroke="#486c29" stroke-width="3" stroke-linecap="round" stroke-linejoin="round" transform="translate(1,1)">
<ellipse cx="24" cy="16" rx="14" ry="10"/><rect x="16" y="16" width="16" height="18" rx="6"/><circle cx="18" cy="14" r="2"/><circle cx="30" cy="14" r="2"/><circle cx="24" cy="10" r="2.5"/><line x1="24" y1="34" x2="24" y2="40"/>
    </g>
    <g stroke="url(#g)" stroke-width="1.5" stroke-linecap="round" stroke-linejoin="round">
<ellipse cx="24" cy="16" rx="14" ry="10"/><rect x="16" y="16" width="16" height="18" rx="6"/><circle cx="18" cy="14" r="2"/><circle cx="30" cy="14" r="2"/><circle cx="24" cy="10" r="2.5"/><line x1="24" y1="34" x2="24" y2="40"/>
    </g>
  </g>
</svg>