<svg xmlns="http://www.w3.org/2000/svg" viewBox="0 0 48 48">
  <defs>
    <linearGradient id="g" x1="0%" y1="0%" x2="100%" y2="100%">
      <stop offset="0%" stop-color="#d9dfb4"/>
      <stop offset="100%" stop-color="#2a2e16"/>
    </linearGradient>
    <filter id="shadow" x="-30%" y="-30%" width="160%" height="160%">
      <feDropShadow dx="2.5" dy="3.5" stdDeviation="3" flood-color="#1a1a2e" flood-opacity="0.45"/>
    </filter>
  </defs>
  <g filter="url(#shadow)" fill="none">
    <g stroke="#15170b" stroke-width="4.5" stroke-linecap="round" stroke-linejoin="round" transform="translate(2,2)">
    <rect x="14" y="6" width="20" height="24" rx="4"/>
    <line x1="14" y1="6" x2="34" y2="6 M14 12 L34 12"/>
    <rect x="18" y="30" width="12" height="8" rx="2"/>
    <line x1="18" y1="38" x2="18" y2="44 M30 38 L30 44"/>
    </g>
    <g stroke="#2a2e16" stroke-width="3" stroke-linecap="round" stroke-linejoin="round" transform="translate(1,1)">
    <rect x="14" y="6" width="20" height="24" rx="4"/>
    <line x1="14" y1="6" x2="34" y2="6 M14 12 L34 12"/>
    <rect x="18" y="30" width="12" height="8" rx="2"/>
    <line x1="18" y1="38" x2="18" y2="44 M30 38 L30 44"/>
    </g>
    <g stroke="url(#g)" stroke-width="1.5" stroke-linecap="round" stroke-linejoin="round">
    <rect x="14" y="6" width="20" height="24" rx="4"/>
    <line x1="14" y1="6" x2="34" y2="6 M14 12 L34 12"/>
    <rect x="18" y="30" width="12" height="8" rx="2"/>
    <line x1="18" y1="38" x2="18" y2="44 M30 38 L30 44"/>
    </g>
  </g>
</svg>