<svg xmlns="http://www.w3.org/2000/svg" viewBox="0 0 48 48">
  <defs>
    <linearGradient id="g" x1="0%" y1="0%" x2="100%" y2="100%">
      <stop offset="0%" stop-color="#bbd2d3"/>
      <stop offset="100%" stop-color="#1a2627"/>
    </linearGradient>
    <filter id="shadow" x="-30%" y="-30%" width="160%" height="160%">
      <feDropShadow dx="2.5" dy="3.5" stdDeviation="3" flood-color="#1a1a2e" flood-opacity="0.45"/>
    </filter>
  </defs>
  <g filter="url(#shadow)" fill="none">
    <g stroke="#0d1313" stroke-width="4.5" stroke-linecap="round" stroke-linejoin="round" transform="translate(2,2)">
    <rect x="6" y="14" width="36" height="22" rx="4"/>
    <line x1="6" y1="14" x2="24" y2="36 M42 14 L24 36"/>
    <rect x="6" y="14" width="36" height="4" rx="2"/>
    </g>
    <g stroke="#1a2627" stroke-width="3" stroke-linecap="round" stroke-linejoin="round" transform="translate(1,1)">
    <rect x="6" y="14" width="36" height="22" rx="4"/>
    <line x1="6" y1="14" x2="24" y2="36 M42 14 L24 36"/>
    <rect x="6" y="14" width="36" height="4" rx="2"/>
    </g>
    <g stroke="url(#g)" stroke-width="1.5" stroke-linecap="round" stroke-linejoin="round">
    <rect x="6" y="14" width="36" height="22" rx="4"/>
    <line x1="6" y1="14" x2="24" y2="36 M42 14 L24 36"/>
    <rect x="6" y="14" width="36" height="4" rx="2"/>
    </g>
  </g>
</svg>