<svg xmlns="http://www.w3.org/2000/svg" viewBox="0 0 48 48">
  <defs>
    <linearGradient id="g" x1="0%" y1="0%" x2="100%" y2="100%">
      <stop offset="0%" stop-color="#deb1ae"/>
      <stop offset="100%" stop-color="#642d2a"/>
    </linearGradient>
    <filter id="sh" x="-30%" y="-30%" width="160%" height="160%">
      <feDropShadow dx="2.5" dy="3.5" stdDeviation="3" flood-color="#1a1a2e" flood-opacity="0.45"/>
    </filter>
  </defs>
  <g filter="url(#sh)" fill="none">
    <g stroke="#2d1413" stroke-width="4.5" stroke-linecap="round" stroke-linejoin="round" transform="translate(2,2)">
<circle cx="22" cy="24" r="14"/><path d="M22 24 L8 24 Q8 12 22 12"/><path d="M22 24 L22 14"/><circle cx="18" cy="22" r="2"/><circle cx="26" cy="22" r="2"/><line x1="22" y1="24" x2="22" y2="38"/>
    </g>
    <g stroke="#642d2a" stroke-width="3" stroke-linecap="round" stroke-linejoin="round" transform="translate(1,1)">
<circle cx="22" cy="24" r="14"/><path d="M22 24 L8 24 Q8 12 22 12"/><path d="M22 24 L22 14"/><circle cx="18" cy="22" r="2"/><circle cx="26" cy="22" r="2"/><line x1="22" y1="24" x2="22" y2="38"/>
    </g>
    <g stroke="url(#g)" stroke-width="1.5" stroke-linecap="round" stroke-linejoin="round">
<circle cx="22" cy="24" r="14"/><path d="M22 24 L8 24 Q8 12 22 12"/><path d="M22 24 L22 14"/><circle cx="18" cy="22" r="2"/><circle cx="26" cy="22" r="2"/><line x1="22" y1="24" x2="22" y2="38"/>
    </g>
  </g>
</svg>