<svg xmlns="http://www.w3.org/2000/svg" viewBox="0 0 48 48">
  <defs>
    <linearGradient id="g" x1="0%" y1="0%" x2="100%" y2="100%">
      <stop offset="0%" stop-color="#a0c3ab"/>
      <stop offset="100%" stop-color="#0b1e11"/>
    </linearGradient>
    <filter id="shadow" x="-30%" y="-30%" width="160%" height="160%">
      <feDropShadow dx="2.5" dy="3.5" stdDeviation="3" flood-color="#1a1a2e" flood-opacity="0.45"/>
    </filter>
  </defs>
  <g filter="url(#shadow)" fill="none">
    <g stroke="#050f08" stroke-width="4.5" stroke-linecap="round" stroke-linejoin="round" transform="translate(2,2)">
    <path d="M24 24 Q24 8 36 12 Q44 16 38 24 Q32 30 24 24 Q20 20 18 24 Q16 28 20 30 Q24 32 28 28"/>
    <circle cx="24" cy="24" r="3"/>
    <circle cx="24" cy="24" r="1.5" fill="currentColor"/>
    </g>
    <g stroke="#0b1e11" stroke-width="3" stroke-linecap="round" stroke-linejoin="round" transform="translate(1,1)">
    <path d="M24 24 Q24 8 36 12 Q44 16 38 24 Q32 30 24 24 Q20 20 18 24 Q16 28 20 30 Q24 32 28 28"/>
    <circle cx="24" cy="24" r="3"/>
    <circle cx="24" cy="24" r="1.5" fill="currentColor"/>
    </g>
    <g stroke="url(#g)" stroke-width="1.5" stroke-linecap="round" stroke-linejoin="round">
    <path d="M24 24 Q24 8 36 12 Q44 16 38 24 Q32 30 24 24 Q20 20 18 24 Q16 28 20 30 Q24 32 28 28"/>
    <circle cx="24" cy="24" r="3"/>
    <circle cx="24" cy="24" r="1.5" fill="currentColor"/>
    </g>
  </g>
</svg>