<svg xmlns="http://www.w3.org/2000/svg" viewBox="0 0 48 48">
  <defs>
    <linearGradient id="g" x1="0%" y1="0%" x2="100%" y2="100%">
      <stop offset="0%" stop-color="#fac596"/>
      <stop offset="100%" stop-color="#86450c"/>
    </linearGradient>
    <filter id="sh" x="-30%" y="-30%" width="160%" height="160%">
      <feDropShadow dx="2.5" dy="3.5" stdDeviation="3" flood-color="#1a1a2e" flood-opacity="0.45"/>
    </filter>
  </defs>
  <g filter="url(#sh)" fill="none">
    <g stroke="#3d1f05" stroke-width="4.5" stroke-linecap="round" stroke-linejoin="round" transform="translate(2,2)">
<path d="M8 8 L40 8 L40 28 L24 42 L8 28 Z"/>
        <line x1="24" y1="8" x2="24" y2="30"/>
        <line x1="8" y1="20" x2="40" y2="20"/>
    </g>
    <g stroke="#86450c" stroke-width="3" stroke-linecap="round" stroke-linejoin="round" transform="translate(1,1)">
<path d="M8 8 L40 8 L40 28 L24 42 L8 28 Z"/>
        <line x1="24" y1="8" x2="24" y2="30"/>
        <line x1="8" y1="20" x2="40" y2="20"/>
    </g>
    <g stroke="url(#g)" stroke-width="1.5" stroke-linecap="round" stroke-linejoin="round">
<path d="M8 8 L40 8 L40 28 L24 42 L8 28 Z"/>
        <line x1="24" y1="8" x2="24" y2="30"/>
        <line x1="8" y1="20" x2="40" y2="20"/>
    </g>
  </g>
</svg>