<svg xmlns="http://www.w3.org/2000/svg" viewBox="0 0 48 48">
  <defs>
    <linearGradient id="g" x1="0%" y1="0%" x2="100%" y2="100%">
      <stop offset="0%" stop-color="#a9e2b0"/>
      <stop offset="100%" stop-color="#102f14"/>
    </linearGradient>
    <filter id="shadow" x="-30%" y="-30%" width="160%" height="160%">
      <feDropShadow dx="2.5" dy="3.5" stdDeviation="3" flood-color="#1a1a2e" flood-opacity="0.45"/>
    </filter>
  </defs>
  <g filter="url(#shadow)" fill="none">
    <g stroke="#08170a" stroke-width="4.5" stroke-linecap="round" stroke-linejoin="round" transform="translate(2,2)">
    <ellipse cx="24" cy="22" rx="7" ry="4"/>
    <circle cx="24" cy="14" r="3.5"/>
    <circle cx="22" cy="12" r="1.2"/>
    <path d="M16 20 L8 16 M32 20 L40 16"/>
    <path d="M16 20 L8 26 M32 20 L40 26"/>
    <line x1="24" y1="22" x2="24" y2="44"/>
    </g>
    <g stroke="#102f14" stroke-width="3" stroke-linecap="round" stroke-linejoin="round" transform="translate(1,1)">
    <ellipse cx="24" cy="22" rx="7" ry="4"/>
    <circle cx="24" cy="14" r="3.5"/>
    <circle cx="22" cy="12" r="1.2"/>
    <path d="M16 20 L8 16 M32 20 L40 16"/>
    <path d="M16 20 L8 26 M32 20 L40 26"/>
    <line x1="24" y1="22" x2="24" y2="44"/>
    </g>
    <g stroke="url(#g)" stroke-width="1.5" stroke-linecap="round" stroke-linejoin="round">
    <ellipse cx="24" cy="22" rx="7" ry="4"/>
    <circle cx="24" cy="14" r="3.5"/>
    <circle cx="22" cy="12" r="1.2"/>
    <path d="M16 20 L8 16 M32 20 L40 16"/>
    <path d="M16 20 L8 26 M32 20 L40 26"/>
    <line x1="24" y1="22" x2="24" y2="44"/>
    </g>
  </g>
</svg>