<svg xmlns="http://www.w3.org/2000/svg" viewBox="0 0 48 48">
  <defs>
    <linearGradient id="g" x1="0%" y1="0%" x2="100%" y2="100%">
      <stop offset="0%" stop-color="#cae6dd"/>
      <stop offset="100%" stop-color="#22322d"/>
    </linearGradient>
    <filter id="shadow" x="-30%" y="-30%" width="160%" height="160%">
      <feDropShadow dx="2.5" dy="3.5" stdDeviation="3" flood-color="#1a1a2e" flood-opacity="0.45"/>
    </filter>
  </defs>
  <g filter="url(#shadow)" fill="none">
    <g stroke="#111916" stroke-width="4.5" stroke-linecap="round" stroke-linejoin="round" transform="translate(2,2)">
    <path d="M8 16 Q16 8 24 16 Q32 24 40 16 Q32 8 24 16 Q16 24 8 16"/>
    <path d="M4 24 Q12 16 20 24 Q28 32 36 24 Q44 16 44 24"/>
    <path d="M8 32 Q16 24 24 32 Q32 40 40 32"/>
    </g>
    <g stroke="#22322d" stroke-width="3" stroke-linecap="round" stroke-linejoin="round" transform="translate(1,1)">
    <path d="M8 16 Q16 8 24 16 Q32 24 40 16 Q32 8 24 16 Q16 24 8 16"/>
    <path d="M4 24 Q12 16 20 24 Q28 32 36 24 Q44 16 44 24"/>
    <path d="M8 32 Q16 24 24 32 Q32 40 40 32"/>
    </g>
    <g stroke="url(#g)" stroke-width="1.5" stroke-linecap="round" stroke-linejoin="round">
    <path d="M8 16 Q16 8 24 16 Q32 24 40 16 Q32 8 24 16 Q16 24 8 16"/>
    <path d="M4 24 Q12 16 20 24 Q28 32 36 24 Q44 16 44 24"/>
    <path d="M8 32 Q16 24 24 32 Q32 40 40 32"/>
    </g>
  </g>
</svg>