<svg xmlns="http://www.w3.org/2000/svg" viewBox="0 0 48 48">
  <defs>
    <linearGradient id="g" x1="0%" y1="0%" x2="100%" y2="100%">
      <stop offset="0%" stop-color="#b5c2c9"/>
      <stop offset="100%" stop-color="#161e21"/>
    </linearGradient>
    <filter id="shadow" x="-30%" y="-30%" width="160%" height="160%">
      <feDropShadow dx="2.5" dy="3.5" stdDeviation="3" flood-color="#1a1a2e" flood-opacity="0.45"/>
    </filter>
  </defs>
  <g filter="url(#shadow)" fill="none">
    <g stroke="#0b0f10" stroke-width="4.5" stroke-linecap="round" stroke-linejoin="round" transform="translate(2,2)">
    <rect x="6" y="4" width="36" height="40" rx="2"/>
    <rect x="6" y="4" width="36" height="8" rx="2"/>
    <circle cx="10" cy="8" r="1.5" fill="currentColor"/>
    <line x1="14" y1="18" x2="38" y2="18 M14 24 L38 24 M14 30 L38 30 M14 36 L38 36"/>
    </g>
    <g stroke="#161e21" stroke-width="3" stroke-linecap="round" stroke-linejoin="round" transform="translate(1,1)">
    <rect x="6" y="4" width="36" height="40" rx="2"/>
    <rect x="6" y="4" width="36" height="8" rx="2"/>
    <circle cx="10" cy="8" r="1.5" fill="currentColor"/>
    <line x1="14" y1="18" x2="38" y2="18 M14 24 L38 24 M14 30 L38 30 M14 36 L38 36"/>
    </g>
    <g stroke="url(#g)" stroke-width="1.5" stroke-linecap="round" stroke-linejoin="round">
    <rect x="6" y="4" width="36" height="40" rx="2"/>
    <rect x="6" y="4" width="36" height="8" rx="2"/>
    <circle cx="10" cy="8" r="1.5" fill="currentColor"/>
    <line x1="14" y1="18" x2="38" y2="18 M14 24 L38 24 M14 30 L38 30 M14 36 L38 36"/>
    </g>
  </g>
</svg>