<svg xmlns="http://www.w3.org/2000/svg" viewBox="0 0 48 48">
  <defs>
    <linearGradient id="g" x1="0%" y1="0%" x2="100%" y2="100%">
      <stop offset="0%" stop-color="#bcaacd"/>
      <stop offset="100%" stop-color="#1b1124"/>
    </linearGradient>
    <filter id="shadow" x="-30%" y="-30%" width="160%" height="160%">
      <feDropShadow dx="2.5" dy="3.5" stdDeviation="3" flood-color="#1a1a2e" flood-opacity="0.45"/>
    </filter>
  </defs>
  <g filter="url(#shadow)" fill="none">
    <g stroke="#0d0812" stroke-width="4.5" stroke-linecap="round" stroke-linejoin="round" transform="translate(2,2)">
    <rect x="6" y="4" width="36" height="40" rx="2"/>
    <line x1="10" y1="14" x2="38" y2="14 M10 20 L38 20 M10 26 L38 26 M10 32 L38 32"/>
    <circle cx="36" cy="8" r="2" fill="currentColor"/>
    <circle cx="36" cy="10" r="2" fill="currentColor"/>
    </g>
    <g stroke="#1b1124" stroke-width="3" stroke-linecap="round" stroke-linejoin="round" transform="translate(1,1)">
    <rect x="6" y="4" width="36" height="40" rx="2"/>
    <line x1="10" y1="14" x2="38" y2="14 M10 20 L38 20 M10 26 L38 26 M10 32 L38 32"/>
    <circle cx="36" cy="8" r="2" fill="currentColor"/>
    <circle cx="36" cy="10" r="2" fill="currentColor"/>
    </g>
    <g stroke="url(#g)" stroke-width="1.5" stroke-linecap="round" stroke-linejoin="round">
    <rect x="6" y="4" width="36" height="40" rx="2"/>
    <line x1="10" y1="14" x2="38" y2="14 M10 20 L38 20 M10 26 L38 26 M10 32 L38 32"/>
    <circle cx="36" cy="8" r="2" fill="currentColor"/>
    <circle cx="36" cy="10" r="2" fill="currentColor"/>
    </g>
  </g>
</svg>