<svg xmlns="http://www.w3.org/2000/svg" viewBox="0 0 48 48">
  <defs>
    <linearGradient id="g" x1="0%" y1="0%" x2="100%" y2="100%">
      <stop offset="0%" stop-color="#F8BBD0"/>
      <stop offset="100%" stop-color="#801037"/>
    </linearGradient>
    <filter id="sh" x="-30%" y="-30%" width="160%" height="160%">
      <feDropShadow dx="2.5" dy="3.5" stdDeviation="3" flood-color="#1a1a2e" flood-opacity="0.45"/>
    </filter>
  </defs>
  <g filter="url(#sh)" fill="none">
    <g stroke="#40081B" stroke-width="4.5" stroke-linecap="round" stroke-linejoin="round" transform="translate(2,2)">
        <ellipse cx="16" cy="28" rx="8" ry="5.5" transform="rotate(-15 16 28)"/>
        <line x1="22" y1="26" x2="22" y2="6"/>
        <path d="M22 6 Q34 6 30 16"/>
    </g>
    <g stroke="#801037" stroke-width="3" stroke-linecap="round" stroke-linejoin="round" transform="translate(1,1)">
        <ellipse cx="16" cy="28" rx="8" ry="5.5" transform="rotate(-15 16 28)"/>
        <line x1="22" y1="26" x2="22" y2="6"/>
        <path d="M22 6 Q34 6 30 16"/>
    </g>
    <g stroke="url(#g)" stroke-width="1.5" stroke-linecap="round" stroke-linejoin="round">
        <ellipse cx="16" cy="28" rx="8" ry="5.5" transform="rotate(-15 16 28)"/>
        <line x1="22" y1="26" x2="22" y2="6"/>
        <path d="M22 6 Q34 6 30 16"/>
    </g>
  </g>
</svg>