<svg xmlns="http://www.w3.org/2000/svg" viewBox="0 0 48 48">
  <defs>
    <linearGradient id="g" x1="0%" y1="0%" x2="100%" y2="100%">
      <stop offset="0%" stop-color="#baced7"/>
      <stop offset="100%" stop-color="#19242a"/>
    </linearGradient>
    <filter id="shadow" x="-30%" y="-30%" width="160%" height="160%">
      <feDropShadow dx="2.5" dy="3.5" stdDeviation="3" flood-color="#1a1a2e" flood-opacity="0.45"/>
    </filter>
  </defs>
  <g filter="url(#shadow)" fill="none">
    <g stroke="#0c1215" stroke-width="4.5" stroke-linecap="round" stroke-linejoin="round" transform="translate(2,2)">
    <rect x="16" y="8" width="16" height="14" rx="3"/>
    <circle cx="24" cy="10" r="3"/>
    <rect x="18" y="22" width="12" height="10" rx="2"/>
    <rect x="20" y="32" width="8" height="12" rx="2"/>
    <path d="M18 22 L12 18 M30 22 L36 18"/>
    </g>
    <g stroke="#19242a" stroke-width="3" stroke-linecap="round" stroke-linejoin="round" transform="translate(1,1)">
    <rect x="16" y="8" width="16" height="14" rx="3"/>
    <circle cx="24" cy="10" r="3"/>
    <rect x="18" y="22" width="12" height="10" rx="2"/>
    <rect x="20" y="32" width="8" height="12" rx="2"/>
    <path d="M18 22 L12 18 M30 22 L36 18"/>
    </g>
    <g stroke="url(#g)" stroke-width="1.5" stroke-linecap="round" stroke-linejoin="round">
    <rect x="16" y="8" width="16" height="14" rx="3"/>
    <circle cx="24" cy="10" r="3"/>
    <rect x="18" y="22" width="12" height="10" rx="2"/>
    <rect x="20" y="32" width="8" height="12" rx="2"/>
    <path d="M18 22 L12 18 M30 22 L36 18"/>
    </g>
  </g>
</svg>