<svg xmlns="http://www.w3.org/2000/svg" viewBox="0 0 48 48">
  <defs>
    <linearGradient id="g" x1="0%" y1="0%" x2="100%" y2="100%">
      <stop offset="0%" stop-color="#abc5c3"/>
      <stop offset="100%" stop-color="#111f1e"/>
    </linearGradient>
    <filter id="shadow" x="-30%" y="-30%" width="160%" height="160%">
      <feDropShadow dx="2.5" dy="3.5" stdDeviation="3" flood-color="#1a1a2e" flood-opacity="0.45"/>
    </filter>
  </defs>
  <g filter="url(#shadow)" fill="none">
    <g stroke="#080f0f" stroke-width="4.5" stroke-linecap="round" stroke-linejoin="round" transform="translate(2,2)">
    <circle cx="24" cy="10" r="5"/>
    <circle cx="22" cy="8" r="1.5"/>
    <circle cx="26" cy="8" r="1.5"/>
    <line x1="24" y1="15" x2="24" y2="44"/>
    <line x1="24" y1="18" x2="14" y2="26 M24 22 L34 30"/>
    <path d="M14 36 L8 44 M34 36 L40 44"/>
    </g>
    <g stroke="#111f1e" stroke-width="3" stroke-linecap="round" stroke-linejoin="round" transform="translate(1,1)">
    <circle cx="24" cy="10" r="5"/>
    <circle cx="22" cy="8" r="1.5"/>
    <circle cx="26" cy="8" r="1.5"/>
    <line x1="24" y1="15" x2="24" y2="44"/>
    <line x1="24" y1="18" x2="14" y2="26 M24 22 L34 30"/>
    <path d="M14 36 L8 44 M34 36 L40 44"/>
    </g>
    <g stroke="url(#g)" stroke-width="1.5" stroke-linecap="round" stroke-linejoin="round">
    <circle cx="24" cy="10" r="5"/>
    <circle cx="22" cy="8" r="1.5"/>
    <circle cx="26" cy="8" r="1.5"/>
    <line x1="24" y1="15" x2="24" y2="44"/>
    <line x1="24" y1="18" x2="14" y2="26 M24 22 L34 30"/>
    <path d="M14 36 L8 44 M34 36 L40 44"/>
    </g>
  </g>
</svg>