<svg xmlns="http://www.w3.org/2000/svg" viewBox="0 0 48 48">
  <defs>
    <linearGradient id="g" x1="0%" y1="0%" x2="100%" y2="100%">
      <stop offset="0%" stop-color="#c2d1e0"/>
      <stop offset="100%" stop-color="#1e262f"/>
    </linearGradient>
    <filter id="shadow" x="-30%" y="-30%" width="160%" height="160%">
      <feDropShadow dx="2.5" dy="3.5" stdDeviation="3" flood-color="#1a1a2e" flood-opacity="0.45"/>
    </filter>
  </defs>
  <g filter="url(#shadow)" fill="none">
    <g stroke="#0f1317" stroke-width="4.5" stroke-linecap="round" stroke-linejoin="round" transform="translate(2,2)">
    <ellipse cx="24" cy="28" rx="14" ry="6"/>
    <path d="M18 28 Q24 16 30 28"/>
    <path d="M12 34 Q8 40 4 44 M36 34 Q40 40 44 44"/>
    <circle cx="24" cy="18" r="3" fill="currentColor"/>
    </g>
    <g stroke="#1e262f" stroke-width="3" stroke-linecap="round" stroke-linejoin="round" transform="translate(1,1)">
    <ellipse cx="24" cy="28" rx="14" ry="6"/>
    <path d="M18 28 Q24 16 30 28"/>
    <path d="M12 34 Q8 40 4 44 M36 34 Q40 40 44 44"/>
    <circle cx="24" cy="18" r="3" fill="currentColor"/>
    </g>
    <g stroke="url(#g)" stroke-width="1.5" stroke-linecap="round" stroke-linejoin="round">
    <ellipse cx="24" cy="28" rx="14" ry="6"/>
    <path d="M18 28 Q24 16 30 28"/>
    <path d="M12 34 Q8 40 4 44 M36 34 Q40 40 44 44"/>
    <circle cx="24" cy="18" r="3" fill="currentColor"/>
    </g>
  </g>
</svg>