<svg xmlns="http://www.w3.org/2000/svg" viewBox="0 0 48 48">
  <defs>
    <linearGradient id="g" x1="0%" y1="0%" x2="100%" y2="100%">
      <stop offset="0%" stop-color="#acd4d5"/>
      <stop offset="100%" stop-color="#112828"/>
    </linearGradient>
    <filter id="shadow" x="-30%" y="-30%" width="160%" height="160%">
      <feDropShadow dx="2.5" dy="3.5" stdDeviation="3" flood-color="#1a1a2e" flood-opacity="0.45"/>
    </filter>
  </defs>
  <g filter="url(#shadow)" fill="none">
    <g stroke="#081414" stroke-width="4.5" stroke-linecap="round" stroke-linejoin="round" transform="translate(2,2)">
    <rect x="10" y="30" width="28" height="14" rx="2"/>
    <path d="M14 30 L16 14 L20 12 L24 30 Z"/>
    <path d="M34 30 L32 14 L28 12 L24 30 Z"/>
    <line x1="24" y1="12" x2="24" y2="4"/>
    <circle cx="24" cy="4" r="2" fill="currentColor"/>
    </g>
    <g stroke="#112828" stroke-width="3" stroke-linecap="round" stroke-linejoin="round" transform="translate(1,1)">
    <rect x="10" y="30" width="28" height="14" rx="2"/>
    <path d="M14 30 L16 14 L20 12 L24 30 Z"/>
    <path d="M34 30 L32 14 L28 12 L24 30 Z"/>
    <line x1="24" y1="12" x2="24" y2="4"/>
    <circle cx="24" cy="4" r="2" fill="currentColor"/>
    </g>
    <g stroke="url(#g)" stroke-width="1.5" stroke-linecap="round" stroke-linejoin="round">
    <rect x="10" y="30" width="28" height="14" rx="2"/>
    <path d="M14 30 L16 14 L20 12 L24 30 Z"/>
    <path d="M34 30 L32 14 L28 12 L24 30 Z"/>
    <line x1="24" y1="12" x2="24" y2="4"/>
    <circle cx="24" cy="4" r="2" fill="currentColor"/>
    </g>
  </g>
</svg>