<svg xmlns="http://www.w3.org/2000/svg" viewBox="0 0 48 48">
  <defs>
    <linearGradient id="g" x1="0%" y1="0%" x2="100%" y2="100%">
      <stop offset="0%" stop-color="#bebcd6"/>
      <stop offset="100%" stop-color="#3d3a5a"/>
    </linearGradient>
    <filter id="sh" x="-30%" y="-30%" width="160%" height="160%">
      <feDropShadow dx="2.5" dy="3.5" stdDeviation="3" flood-color="#1a1a2e" flood-opacity="0.45"/>
    </filter>
  </defs>
  <g filter="url(#sh)" fill="none">
    <g stroke="#1c1a29" stroke-width="4.5" stroke-linecap="round" stroke-linejoin="round" transform="translate(2,2)">
<circle cx="24" cy="24" r="10"/><circle cx="20" cy="22" r="2"/><circle cx="28" cy="22" r="2"/><path d="M14 24 L8 30 L10 34"/><path d="M34 24 L40 30 L38 34"/><path d="M16 30 L10 38 L14 40"/><path d="M32 30 L38 38 L34 40"/><path d="M20 34 L16 42"/><path d="M28 34 L32 42"/>
    </g>
    <g stroke="#3d3a5a" stroke-width="3" stroke-linecap="round" stroke-linejoin="round" transform="translate(1,1)">
<circle cx="24" cy="24" r="10"/><circle cx="20" cy="22" r="2"/><circle cx="28" cy="22" r="2"/><path d="M14 24 L8 30 L10 34"/><path d="M34 24 L40 30 L38 34"/><path d="M16 30 L10 38 L14 40"/><path d="M32 30 L38 38 L34 40"/><path d="M20 34 L16 42"/><path d="M28 34 L32 42"/>
    </g>
    <g stroke="url(#g)" stroke-width="1.5" stroke-linecap="round" stroke-linejoin="round">
<circle cx="24" cy="24" r="10"/><circle cx="20" cy="22" r="2"/><circle cx="28" cy="22" r="2"/><path d="M14 24 L8 30 L10 34"/><path d="M34 24 L40 30 L38 34"/><path d="M16 30 L10 38 L14 40"/><path d="M32 30 L38 38 L34 40"/><path d="M20 34 L16 42"/><path d="M28 34 L32 42"/>
    </g>
  </g>
</svg>