<svg xmlns="http://www.w3.org/2000/svg" viewBox="0 0 48 48">
  <defs>
    <linearGradient id="g" x1="0%" y1="0%" x2="100%" y2="100%">
      <stop offset="0%" stop-color="#bcd1d6"/>
      <stop offset="100%" stop-color="#1a2629"/>
    </linearGradient>
    <filter id="shadow" x="-30%" y="-30%" width="160%" height="160%">
      <feDropShadow dx="2.5" dy="3.5" stdDeviation="3" flood-color="#1a1a2e" flood-opacity="0.45"/>
    </filter>
  </defs>
  <g filter="url(#shadow)" fill="none">
    <g stroke="#0d1314" stroke-width="4.5" stroke-linecap="round" stroke-linejoin="round" transform="translate(2,2)">
    <ellipse cx="24" cy="18" rx="10" ry="8"/>
    <circle cx="24" cy="16" r="5"/>
    <circle cx="20" cy="14" r="1.5"/>
    <circle cx="28" cy="14" r="1.5"/>
    <path d="M14 22 Q10 30 6 28 M16 24 Q14 34 10 36 M24 24 L24 38 M32 24 Q34 34 38 36 M34 22 Q38 30 42 28"/>
    <path d="M14 22 Q10 18 14 20 M34 22 Q38 18 34 20"/>
    </g>
    <g stroke="#1a2629" stroke-width="3" stroke-linecap="round" stroke-linejoin="round" transform="translate(1,1)">
    <ellipse cx="24" cy="18" rx="10" ry="8"/>
    <circle cx="24" cy="16" r="5"/>
    <circle cx="20" cy="14" r="1.5"/>
    <circle cx="28" cy="14" r="1.5"/>
    <path d="M14 22 Q10 30 6 28 M16 24 Q14 34 10 36 M24 24 L24 38 M32 24 Q34 34 38 36 M34 22 Q38 30 42 28"/>
    <path d="M14 22 Q10 18 14 20 M34 22 Q38 18 34 20"/>
    </g>
    <g stroke="url(#g)" stroke-width="1.5" stroke-linecap="round" stroke-linejoin="round">
    <ellipse cx="24" cy="18" rx="10" ry="8"/>
    <circle cx="24" cy="16" r="5"/>
    <circle cx="20" cy="14" r="1.5"/>
    <circle cx="28" cy="14" r="1.5"/>
    <path d="M14 22 Q10 30 6 28 M16 24 Q14 34 10 36 M24 24 L24 38 M32 24 Q34 34 38 36 M34 22 Q38 30 42 28"/>
    <path d="M14 22 Q10 18 14 20 M34 22 Q38 18 34 20"/>
    </g>
  </g>
</svg>