<svg xmlns="http://www.w3.org/2000/svg" viewBox="0 0 48 48">
  <defs>
    <linearGradient id="g" x1="0%" y1="0%" x2="100%" y2="100%">
      <stop offset="0%" stop-color="#a8c0cb"/>
      <stop offset="100%" stop-color="#0f1d23"/>
    </linearGradient>
    <filter id="shadow" x="-30%" y="-30%" width="160%" height="160%">
      <feDropShadow dx="2.5" dy="3.5" stdDeviation="3" flood-color="#1a1a2e" flood-opacity="0.45"/>
    </filter>
  </defs>
  <g filter="url(#shadow)" fill="none">
    <g stroke="#070e11" stroke-width="4.5" stroke-linecap="round" stroke-linejoin="round" transform="translate(2,2)">
    <rect x="16" y="4" width="16" height="14" rx="3"/>
    <line x1="24" y1="18" x2="24" y2="34"/>
    <ellipse cx="24" cy="34" rx="10" ry="4"/>
    <line x1="12" y1="30" x2="18" y2="34 M36 30 L30 34"/>
    </g>
    <g stroke="#0f1d23" stroke-width="3" stroke-linecap="round" stroke-linejoin="round" transform="translate(1,1)">
    <rect x="16" y="4" width="16" height="14" rx="3"/>
    <line x1="24" y1="18" x2="24" y2="34"/>
    <ellipse cx="24" cy="34" rx="10" ry="4"/>
    <line x1="12" y1="30" x2="18" y2="34 M36 30 L30 34"/>
    </g>
    <g stroke="url(#g)" stroke-width="1.5" stroke-linecap="round" stroke-linejoin="round">
    <rect x="16" y="4" width="16" height="14" rx="3"/>
    <line x1="24" y1="18" x2="24" y2="34"/>
    <ellipse cx="24" cy="34" rx="10" ry="4"/>
    <line x1="12" y1="30" x2="18" y2="34 M36 30 L30 34"/>
    </g>
  </g>
</svg>