<svg xmlns="http://www.w3.org/2000/svg" viewBox="0 0 48 48">
  <defs>
    <linearGradient id="g" x1="0%" y1="0%" x2="100%" y2="100%">
      <stop offset="0%" stop-color="#bae4d7"/>
      <stop offset="100%" stop-color="#193129"/>
    </linearGradient>
    <filter id="shadow" x="-30%" y="-30%" width="160%" height="160%">
      <feDropShadow dx="2.5" dy="3.5" stdDeviation="3" flood-color="#1a1a2e" flood-opacity="0.45"/>
    </filter>
  </defs>
  <g filter="url(#shadow)" fill="none">
    <g stroke="#0c1814" stroke-width="4.5" stroke-linecap="round" stroke-linejoin="round" transform="translate(2,2)">
    <ellipse cx="24" cy="22" rx="13" ry="11"/>
    <circle cx="24" cy="12" r="8"/>
    <circle cx="18" cy="10" r="2.5"/>
    <circle cx="30" cy="10" r="2.5"/>
    <path d="M18 14 L12 8 M30 14 L36 8"/>
    <path d="M20 18 Q24 22 28 18"/>
    <line x1="24" y1="22" x2="24" y2="44"/>
    </g>
    <g stroke="#193129" stroke-width="3" stroke-linecap="round" stroke-linejoin="round" transform="translate(1,1)">
    <ellipse cx="24" cy="22" rx="13" ry="11"/>
    <circle cx="24" cy="12" r="8"/>
    <circle cx="18" cy="10" r="2.5"/>
    <circle cx="30" cy="10" r="2.5"/>
    <path d="M18 14 L12 8 M30 14 L36 8"/>
    <path d="M20 18 Q24 22 28 18"/>
    <line x1="24" y1="22" x2="24" y2="44"/>
    </g>
    <g stroke="url(#g)" stroke-width="1.5" stroke-linecap="round" stroke-linejoin="round">
    <ellipse cx="24" cy="22" rx="13" ry="11"/>
    <circle cx="24" cy="12" r="8"/>
    <circle cx="18" cy="10" r="2.5"/>
    <circle cx="30" cy="10" r="2.5"/>
    <path d="M18 14 L12 8 M30 14 L36 8"/>
    <path d="M20 18 Q24 22 28 18"/>
    <line x1="24" y1="22" x2="24" y2="44"/>
    </g>
  </g>
</svg>