<svg xmlns="http://www.w3.org/2000/svg" viewBox="0 0 48 48">
  <defs>
    <linearGradient id="g" x1="0%" y1="0%" x2="100%" y2="100%">
      <stop offset="0%" stop-color="#aae3a7"/>
      <stop offset="100%" stop-color="#11300f"/>
    </linearGradient>
    <filter id="shadow" x="-30%" y="-30%" width="160%" height="160%">
      <feDropShadow dx="2.5" dy="3.5" stdDeviation="3" flood-color="#1a1a2e" flood-opacity="0.45"/>
    </filter>
  </defs>
  <g filter="url(#shadow)" fill="none">
    <g stroke="#081807" stroke-width="4.5" stroke-linecap="round" stroke-linejoin="round" transform="translate(2,2)">
    <path d="M12 44 L12 14 Q12 8 18 6 Q24 4 24 12 L24 24"/>
    <path d="M24 44 L24 14 Q24 6 30 4 Q36 6 36 14 L36 24"/>
    <line x1="18" y1="44" x2="18" y2="16 M30" y1="44" x2="30" y2="16"/>
    </g>
    <g stroke="#11300f" stroke-width="3" stroke-linecap="round" stroke-linejoin="round" transform="translate(1,1)">
    <path d="M12 44 L12 14 Q12 8 18 6 Q24 4 24 12 L24 24"/>
    <path d="M24 44 L24 14 Q24 6 30 4 Q36 6 36 14 L36 24"/>
    <line x1="18" y1="44" x2="18" y2="16 M30" y1="44" x2="30" y2="16"/>
    </g>
    <g stroke="url(#g)" stroke-width="1.5" stroke-linecap="round" stroke-linejoin="round">
    <path d="M12 44 L12 14 Q12 8 18 6 Q24 4 24 12 L24 24"/>
    <path d="M24 44 L24 14 Q24 6 30 4 Q36 6 36 14 L36 24"/>
    <line x1="18" y1="44" x2="18" y2="16 M30" y1="44" x2="30" y2="16"/>
    </g>
  </g>
</svg>