<svg xmlns="http://www.w3.org/2000/svg" viewBox="0 0 48 48">
  <defs>
    <linearGradient id="g" x1="0%" y1="0%" x2="100%" y2="100%">
      <stop offset="0%" stop-color="#a0a2c6"/>
      <stop offset="100%" stop-color="#191b47"/>
    </linearGradient>
    <filter id="sh" x="-30%" y="-30%" width="160%" height="160%">
      <feDropShadow dx="2.5" dy="3.5" stdDeviation="3" flood-color="#1a1a2e" flood-opacity="0.45"/>
    </filter>
  </defs>
  <g filter="url(#sh)" fill="none">
    <g stroke="#0b0c20" stroke-width="4.5" stroke-linecap="round" stroke-linejoin="round" transform="translate(2,2)">
<circle cx="24" cy="24" r="10"/><path d="M24 14 L24 8"/><circle cx="18" cy="22" r="2"/><circle cx="30" cy="22" r="2"/><path d="M18 30 Q24 34 30 30"/>
    </g>
    <g stroke="#191b47" stroke-width="3" stroke-linecap="round" stroke-linejoin="round" transform="translate(1,1)">
<circle cx="24" cy="24" r="10"/><path d="M24 14 L24 8"/><circle cx="18" cy="22" r="2"/><circle cx="30" cy="22" r="2"/><path d="M18 30 Q24 34 30 30"/>
    </g>
    <g stroke="url(#g)" stroke-width="1.5" stroke-linecap="round" stroke-linejoin="round">
<circle cx="24" cy="24" r="10"/><path d="M24 14 L24 8"/><circle cx="18" cy="22" r="2"/><circle cx="30" cy="22" r="2"/><path d="M18 30 Q24 34 30 30"/>
    </g>
  </g>
</svg>