<svg xmlns="http://www.w3.org/2000/svg" viewBox="0 0 48 48">
  <defs>
    <linearGradient id="g" x1="0%" y1="0%" x2="100%" y2="100%">
      <stop offset="0%" stop-color="#c9a9ad"/>
      <stop offset="100%" stop-color="#211012"/>
    </linearGradient>
    <filter id="shadow" x="-30%" y="-30%" width="160%" height="160%">
      <feDropShadow dx="2.5" dy="3.5" stdDeviation="3" flood-color="#1a1a2e" flood-opacity="0.45"/>
    </filter>
  </defs>
  <g filter="url(#shadow)" fill="none">
    <g stroke="#100809" stroke-width="4.5" stroke-linecap="round" stroke-linejoin="round" transform="translate(2,2)">
    <ellipse cx="24" cy="20" rx="12" ry="10"/>
    <circle cx="24" cy="12" r="7"/>
    <circle cx="19" cy="10" r="2"/>
    <circle cx="29" cy="10" r="2"/>
    <path d="M18 14 L12 8 M30 14 L36 8"/>
    <path d="M20 16 Q24 20 28 16"/>
    <line x1="24" y1="22" x2="24" y2="44"/>
    <line x1="14" y1="30" x2="8" y2="44 M34 30 L40 44"/>
    </g>
    <g stroke="#211012" stroke-width="3" stroke-linecap="round" stroke-linejoin="round" transform="translate(1,1)">
    <ellipse cx="24" cy="20" rx="12" ry="10"/>
    <circle cx="24" cy="12" r="7"/>
    <circle cx="19" cy="10" r="2"/>
    <circle cx="29" cy="10" r="2"/>
    <path d="M18 14 L12 8 M30 14 L36 8"/>
    <path d="M20 16 Q24 20 28 16"/>
    <line x1="24" y1="22" x2="24" y2="44"/>
    <line x1="14" y1="30" x2="8" y2="44 M34 30 L40 44"/>
    </g>
    <g stroke="url(#g)" stroke-width="1.5" stroke-linecap="round" stroke-linejoin="round">
    <ellipse cx="24" cy="20" rx="12" ry="10"/>
    <circle cx="24" cy="12" r="7"/>
    <circle cx="19" cy="10" r="2"/>
    <circle cx="29" cy="10" r="2"/>
    <path d="M18 14 L12 8 M30 14 L36 8"/>
    <path d="M20 16 Q24 20 28 16"/>
    <line x1="24" y1="22" x2="24" y2="44"/>
    <line x1="14" y1="30" x2="8" y2="44 M34 30 L40 44"/>
    </g>
  </g>
</svg>