<svg xmlns="http://www.w3.org/2000/svg" viewBox="0 0 48 48">
  <defs>
    <linearGradient id="g" x1="0%" y1="0%" x2="100%" y2="100%">
      <stop offset="0%" stop-color="#dfabc2"/>
      <stop offset="100%" stop-color="#2e111e"/>
    </linearGradient>
    <filter id="shadow" x="-30%" y="-30%" width="160%" height="160%">
      <feDropShadow dx="2.5" dy="3.5" stdDeviation="3" flood-color="#1a1a2e" flood-opacity="0.45"/>
    </filter>
  </defs>
  <g filter="url(#shadow)" fill="none">
    <g stroke="#17080f" stroke-width="4.5" stroke-linecap="round" stroke-linejoin="round" transform="translate(2,2)">
    <path d="M24 44 L24 24 Q20 18 12 16 Q6 14 10 10 Q14 6 20 12 Q22 14 24 12 Q24 8 28 6 Q34 8 30 14 Q26 18 24 24"/>
    <line x1="24" y1="44" x2="24" y2="24"/>
    </g>
    <g stroke="#2e111e" stroke-width="3" stroke-linecap="round" stroke-linejoin="round" transform="translate(1,1)">
    <path d="M24 44 L24 24 Q20 18 12 16 Q6 14 10 10 Q14 6 20 12 Q22 14 24 12 Q24 8 28 6 Q34 8 30 14 Q26 18 24 24"/>
    <line x1="24" y1="44" x2="24" y2="24"/>
    </g>
    <g stroke="url(#g)" stroke-width="1.5" stroke-linecap="round" stroke-linejoin="round">
    <path d="M24 44 L24 24 Q20 18 12 16 Q6 14 10 10 Q14 6 20 12 Q22 14 24 12 Q24 8 28 6 Q34 8 30 14 Q26 18 24 24"/>
    <line x1="24" y1="44" x2="24" y2="24"/>
    </g>
  </g>
</svg>