<svg xmlns="http://www.w3.org/2000/svg" viewBox="0 0 48 48">
  <defs>
    <linearGradient id="g" x1="0%" y1="0%" x2="100%" y2="100%">
      <stop offset="0%" stop-color="#aebcd7"/>
      <stop offset="100%" stop-color="#131b2a"/>
    </linearGradient>
    <filter id="shadow" x="-30%" y="-30%" width="160%" height="160%">
      <feDropShadow dx="2.5" dy="3.5" stdDeviation="3" flood-color="#1a1a2e" flood-opacity="0.45"/>
    </filter>
  </defs>
  <g filter="url(#shadow)" fill="none">
    <g stroke="#090d15" stroke-width="4.5" stroke-linecap="round" stroke-linejoin="round" transform="translate(2,2)">
    <ellipse cx="24" cy="22" rx="9" ry="7"/>
    <circle cx="24" cy="12" r="5"/>
    <circle cx="22" cy="10" r="2"/>
    <path d="M28 14 L36 10 L38 14"/>
    <path d="M18 24 L10 44 M30 24 L38 44"/>
    <path d="M20 30 L28 30 M20 34 L28 34"/>
    </g>
    <g stroke="#131b2a" stroke-width="3" stroke-linecap="round" stroke-linejoin="round" transform="translate(1,1)">
    <ellipse cx="24" cy="22" rx="9" ry="7"/>
    <circle cx="24" cy="12" r="5"/>
    <circle cx="22" cy="10" r="2"/>
    <path d="M28 14 L36 10 L38 14"/>
    <path d="M18 24 L10 44 M30 24 L38 44"/>
    <path d="M20 30 L28 30 M20 34 L28 34"/>
    </g>
    <g stroke="url(#g)" stroke-width="1.5" stroke-linecap="round" stroke-linejoin="round">
    <ellipse cx="24" cy="22" rx="9" ry="7"/>
    <circle cx="24" cy="12" r="5"/>
    <circle cx="22" cy="10" r="2"/>
    <path d="M28 14 L36 10 L38 14"/>
    <path d="M18 24 L10 44 M30 24 L38 44"/>
    <path d="M20 30 L28 30 M20 34 L28 34"/>
    </g>
  </g>
</svg>