<svg xmlns="http://www.w3.org/2000/svg" viewBox="0 0 48 48">
  <defs>
    <linearGradient id="g" x1="0%" y1="0%" x2="100%" y2="100%">
      <stop offset="0%" stop-color="#bfcfa2"/>
      <stop offset="100%" stop-color="#3e521a"/>
    </linearGradient>
    <filter id="sh" x="-30%" y="-30%" width="160%" height="160%">
      <feDropShadow dx="2.5" dy="3.5" stdDeviation="3" flood-color="#1a1a2e" flood-opacity="0.45"/>
    </filter>
  </defs>
  <g filter="url(#sh)" fill="none">
    <g stroke="#1c250c" stroke-width="4.5" stroke-linecap="round" stroke-linejoin="round" transform="translate(2,2)">
<ellipse cx="24" cy="30" rx="14" ry="12"/>
        <circle cx="16" cy="24" r="8"/>
        <circle cx="32" cy="24" r="8"/>
        <circle cx="16" cy="24" r="3"/>
        <circle cx="32" cy="24" r="3"/>
        <polygon points="22,34 24,38 26,34"/>
        <path d="M10 18 L6 12 M38 18 L42 12"/>
    </g>
    <g stroke="#3e521a" stroke-width="3" stroke-linecap="round" stroke-linejoin="round" transform="translate(1,1)">
<ellipse cx="24" cy="30" rx="14" ry="12"/>
        <circle cx="16" cy="24" r="8"/>
        <circle cx="32" cy="24" r="8"/>
        <circle cx="16" cy="24" r="3"/>
        <circle cx="32" cy="24" r="3"/>
        <polygon points="22,34 24,38 26,34"/>
        <path d="M10 18 L6 12 M38 18 L42 12"/>
    </g>
    <g stroke="url(#g)" stroke-width="1.5" stroke-linecap="round" stroke-linejoin="round">
<ellipse cx="24" cy="30" rx="14" ry="12"/>
        <circle cx="16" cy="24" r="8"/>
        <circle cx="32" cy="24" r="8"/>
        <circle cx="16" cy="24" r="3"/>
        <circle cx="32" cy="24" r="3"/>
        <polygon points="22,34 24,38 26,34"/>
        <path d="M10 18 L6 12 M38 18 L42 12"/>
    </g>
  </g>
</svg>