<svg xmlns="http://www.w3.org/2000/svg" viewBox="0 0 48 48">
  <defs>
    <linearGradient id="g" x1="0%" y1="0%" x2="100%" y2="100%">
      <stop offset="0%" stop-color="#bdc3b1"/>
      <stop offset="100%" stop-color="#1b1e14"/>
    </linearGradient>
    <filter id="shadow" x="-30%" y="-30%" width="160%" height="160%">
      <feDropShadow dx="2.5" dy="3.5" stdDeviation="3" flood-color="#1a1a2e" flood-opacity="0.45"/>
    </filter>
  </defs>
  <g filter="url(#shadow)" fill="none">
    <g stroke="#0d0f0a" stroke-width="4.5" stroke-linecap="round" stroke-linejoin="round" transform="translate(2,2)">
    <rect x="14" y="22" width="20" height="18" rx="3"/>
    <path d="M14 22 L14 16 Q14 8 24 8 Q34 8 34 16 L34 22"/>
    <rect x="20" y="28" width="8" height="6" rx="2"/>
    <circle cx="24" cy="34" r="2" fill="currentColor"/>
    </g>
    <g stroke="#1b1e14" stroke-width="3" stroke-linecap="round" stroke-linejoin="round" transform="translate(1,1)">
    <rect x="14" y="22" width="20" height="18" rx="3"/>
    <path d="M14 22 L14 16 Q14 8 24 8 Q34 8 34 16 L34 22"/>
    <rect x="20" y="28" width="8" height="6" rx="2"/>
    <circle cx="24" cy="34" r="2" fill="currentColor"/>
    </g>
    <g stroke="url(#g)" stroke-width="1.5" stroke-linecap="round" stroke-linejoin="round">
    <rect x="14" y="22" width="20" height="18" rx="3"/>
    <path d="M14 22 L14 16 Q14 8 24 8 Q34 8 34 16 L34 22"/>
    <rect x="20" y="28" width="8" height="6" rx="2"/>
    <circle cx="24" cy="34" r="2" fill="currentColor"/>
    </g>
  </g>
</svg>