<svg xmlns="http://www.w3.org/2000/svg" viewBox="0 0 48 48">
  <defs>
    <linearGradient id="g" x1="0%" y1="0%" x2="100%" y2="100%">
      <stop offset="0%" stop-color="#c0a1b1"/>
      <stop offset="100%" stop-color="#1d0c14"/>
    </linearGradient>
    <filter id="shadow" x="-30%" y="-30%" width="160%" height="160%">
      <feDropShadow dx="2.5" dy="3.5" stdDeviation="3" flood-color="#1a1a2e" flood-opacity="0.45"/>
    </filter>
  </defs>
  <g filter="url(#shadow)" fill="none">
    <g stroke="#0e060a" stroke-width="4.5" stroke-linecap="round" stroke-linejoin="round" transform="translate(2,2)">
    <rect x="6" y="8" width="36" height="30" rx="2"/>
    <rect x="10" y="12" width="28" height="22" rx="1"/>
    <circle cx="20" cy="20" r="4" fill="currentColor"/>
    <circle cx="24" cy="28" r="3" fill="currentColor"/>
    <circle cx="32" cy="22" r="2" fill="currentColor"/>
    <rect x="6" y="38" width="36" height="4" rx="2"/>
    </g>
    <g stroke="#1d0c14" stroke-width="3" stroke-linecap="round" stroke-linejoin="round" transform="translate(1,1)">
    <rect x="6" y="8" width="36" height="30" rx="2"/>
    <rect x="10" y="12" width="28" height="22" rx="1"/>
    <circle cx="20" cy="20" r="4" fill="currentColor"/>
    <circle cx="24" cy="28" r="3" fill="currentColor"/>
    <circle cx="32" cy="22" r="2" fill="currentColor"/>
    <rect x="6" y="38" width="36" height="4" rx="2"/>
    </g>
    <g stroke="url(#g)" stroke-width="1.5" stroke-linecap="round" stroke-linejoin="round">
    <rect x="6" y="8" width="36" height="30" rx="2"/>
    <rect x="10" y="12" width="28" height="22" rx="1"/>
    <circle cx="20" cy="20" r="4" fill="currentColor"/>
    <circle cx="24" cy="28" r="3" fill="currentColor"/>
    <circle cx="32" cy="22" r="2" fill="currentColor"/>
    <rect x="6" y="38" width="36" height="4" rx="2"/>
    </g>
  </g>
</svg>