<svg xmlns="http://www.w3.org/2000/svg" viewBox="0 0 48 48">
  <defs>
    <linearGradient id="g" x1="0%" y1="0%" x2="100%" y2="100%">
      <stop offset="0%" stop-color="#d7d2be"/>
      <stop offset="100%" stop-color="#2a271b"/>
    </linearGradient>
    <filter id="shadow" x="-30%" y="-30%" width="160%" height="160%">
      <feDropShadow dx="2.5" dy="3.5" stdDeviation="3" flood-color="#1a1a2e" flood-opacity="0.45"/>
    </filter>
  </defs>
  <g filter="url(#shadow)" fill="none">
    <g stroke="#15130d" stroke-width="4.5" stroke-linecap="round" stroke-linejoin="round" transform="translate(2,2)">
    <path d="M10 14 L10 44 L38 44 L38 14 Z"/>
    <path d="M10 14 Q24 4 38 14"/>
    <path d="M24 6 L24 44"/>
    <path d="M10 22 L38 22"/>
    <circle cx="18" cy="28" r="2"/>
    <circle cx="30" cy="28" r="2"/>
    </g>
    <g stroke="#2a271b" stroke-width="3" stroke-linecap="round" stroke-linejoin="round" transform="translate(1,1)">
    <path d="M10 14 L10 44 L38 44 L38 14 Z"/>
    <path d="M10 14 Q24 4 38 14"/>
    <path d="M24 6 L24 44"/>
    <path d="M10 22 L38 22"/>
    <circle cx="18" cy="28" r="2"/>
    <circle cx="30" cy="28" r="2"/>
    </g>
    <g stroke="url(#g)" stroke-width="1.5" stroke-linecap="round" stroke-linejoin="round">
    <path d="M10 14 L10 44 L38 44 L38 14 Z"/>
    <path d="M10 14 Q24 4 38 14"/>
    <path d="M24 6 L24 44"/>
    <path d="M10 22 L38 22"/>
    <circle cx="18" cy="28" r="2"/>
    <circle cx="30" cy="28" r="2"/>
    </g>
  </g>
</svg>