<svg xmlns="http://www.w3.org/2000/svg" viewBox="0 0 48 48">
  <defs>
    <linearGradient id="g" x1="0%" y1="0%" x2="100%" y2="100%">
      <stop offset="0%" stop-color="#4DB6AC"/>
      <stop offset="100%" stop-color="#004539"/>
    </linearGradient>
    <filter id="sh" x="-30%" y="-30%" width="160%" height="160%">
      <feDropShadow dx="2.5" dy="3.5" stdDeviation="3" flood-color="#1a1a2e" flood-opacity="0.45"/>
    </filter>
  </defs>
  <g filter="url(#sh)" fill="none">
    <g stroke="#00221C" stroke-width="4.5" stroke-linecap="round" stroke-linejoin="round" transform="translate(2,2)">
    <ellipse cx="24" cy="28" rx="18" ry="14"/>
        <circle cx="24" cy="4" r="6" fill="#607D8B"/>
        <circle cx="14" cy="24" r="3" fill="#607D8B"/>
        <circle cx="22" cy="18" r="3" fill="#607D8B"/>
        <circle cx="34" cy="22" r="3" fill="#607D8B"/>
        <circle cx="30" cy="34" r="3" fill="#607D8B"/>
    </g>
    <g stroke="#004539" stroke-width="3" stroke-linecap="round" stroke-linejoin="round" transform="translate(1,1)">
    <ellipse cx="24" cy="28" rx="18" ry="14"/>
        <circle cx="24" cy="4" r="6" fill="#607D8B"/>
        <circle cx="14" cy="24" r="3" fill="#607D8B"/>
        <circle cx="22" cy="18" r="3" fill="#607D8B"/>
        <circle cx="34" cy="22" r="3" fill="#607D8B"/>
        <circle cx="30" cy="34" r="3" fill="#607D8B"/>
    </g>
    <g stroke="url(#g)" stroke-width="1.5" stroke-linecap="round" stroke-linejoin="round">
    <ellipse cx="24" cy="28" rx="18" ry="14"/>
        <circle cx="24" cy="4" r="6" fill="#607D8B"/>
        <circle cx="14" cy="24" r="3" fill="#607D8B"/>
        <circle cx="22" cy="18" r="3" fill="#607D8B"/>
        <circle cx="34" cy="22" r="3" fill="#607D8B"/>
        <circle cx="30" cy="34" r="3" fill="#607D8B"/>
    </g>
  </g>
</svg>