<svg xmlns="http://www.w3.org/2000/svg" viewBox="0 0 48 48">
  <defs>
    <linearGradient id="g" x1="0%" y1="0%" x2="100%" y2="100%">
      <stop offset="0%" stop-color="#b2cbc9"/>
      <stop offset="100%" stop-color="#2e4d4b"/>
    </linearGradient>
    <filter id="sh" x="-30%" y="-30%" width="160%" height="160%">
      <feDropShadow dx="2.5" dy="3.5" stdDeviation="3" flood-color="#1a1a2e" flood-opacity="0.45"/>
    </filter>
  </defs>
  <g filter="url(#sh)" fill="none">
    <g stroke="#152322" stroke-width="4.5" stroke-linecap="round" stroke-linejoin="round" transform="translate(2,2)">
<line x1="24" y1="10" x2="24" y2="42"/><path d="M24 10 Q14 6 8 12"/><path d="M24 10 Q34 6 40 12"/><path d="M24 14 Q12 12 6 18"/><path d="M24 14 Q36 12 42 18"/><path d="M24 18 Q14 18 8 24"/><path d="M24 18 Q34 18 40 24"/><circle cx="24" cy="10" r="2"/>
    </g>
    <g stroke="#2e4d4b" stroke-width="3" stroke-linecap="round" stroke-linejoin="round" transform="translate(1,1)">
<line x1="24" y1="10" x2="24" y2="42"/><path d="M24 10 Q14 6 8 12"/><path d="M24 10 Q34 6 40 12"/><path d="M24 14 Q12 12 6 18"/><path d="M24 14 Q36 12 42 18"/><path d="M24 18 Q14 18 8 24"/><path d="M24 18 Q34 18 40 24"/><circle cx="24" cy="10" r="2"/>
    </g>
    <g stroke="url(#g)" stroke-width="1.5" stroke-linecap="round" stroke-linejoin="round">
<line x1="24" y1="10" x2="24" y2="42"/><path d="M24 10 Q14 6 8 12"/><path d="M24 10 Q34 6 40 12"/><path d="M24 14 Q12 12 6 18"/><path d="M24 14 Q36 12 42 18"/><path d="M24 18 Q14 18 8 24"/><path d="M24 18 Q34 18 40 24"/><circle cx="24" cy="10" r="2"/>
    </g>
  </g>
</svg>