<svg xmlns="http://www.w3.org/2000/svg" viewBox="0 0 48 48">
  <defs>
    <linearGradient id="g" x1="0%" y1="0%" x2="100%" y2="100%">
      <stop offset="0%" stop-color="#adbbc4"/>
      <stop offset="100%" stop-color="#121a1f"/>
    </linearGradient>
    <filter id="shadow" x="-30%" y="-30%" width="160%" height="160%">
      <feDropShadow dx="2.5" dy="3.5" stdDeviation="3" flood-color="#1a1a2e" flood-opacity="0.45"/>
    </filter>
  </defs>
  <g filter="url(#shadow)" fill="none">
    <g stroke="#090d0f" stroke-width="4.5" stroke-linecap="round" stroke-linejoin="round" transform="translate(2,2)">
    <ellipse cx="24" cy="30" rx="16" ry="6"/>
    <path d="M8 30 Q8 18 24 18 Q40 18 40 30"/>
    <line x1="40" y1="28" x2="44" y2="16"/>
    <rect x="42" y="14" width="4" height="6" rx="1"/>
    </g>
    <g stroke="#121a1f" stroke-width="3" stroke-linecap="round" stroke-linejoin="round" transform="translate(1,1)">
    <ellipse cx="24" cy="30" rx="16" ry="6"/>
    <path d="M8 30 Q8 18 24 18 Q40 18 40 30"/>
    <line x1="40" y1="28" x2="44" y2="16"/>
    <rect x="42" y="14" width="4" height="6" rx="1"/>
    </g>
    <g stroke="url(#g)" stroke-width="1.5" stroke-linecap="round" stroke-linejoin="round">
    <ellipse cx="24" cy="30" rx="16" ry="6"/>
    <path d="M8 30 Q8 18 24 18 Q40 18 40 30"/>
    <line x1="40" y1="28" x2="44" y2="16"/>
    <rect x="42" y="14" width="4" height="6" rx="1"/>
    </g>
  </g>
</svg>