<svg xmlns="http://www.w3.org/2000/svg" viewBox="0 0 48 48">
  <defs>
    <linearGradient id="g" x1="0%" y1="0%" x2="100%" y2="100%">
      <stop offset="0%" stop-color="#e4dbb1"/>
      <stop offset="100%" stop-color="#6b602d"/>
    </linearGradient>
    <filter id="sh" x="-30%" y="-30%" width="160%" height="160%">
      <feDropShadow dx="2.5" dy="3.5" stdDeviation="3" flood-color="#1a1a2e" flood-opacity="0.45"/>
    </filter>
  </defs>
  <g filter="url(#sh)" fill="none">
    <g stroke="#312c14" stroke-width="4.5" stroke-linecap="round" stroke-linejoin="round" transform="translate(2,2)">
<path d="M12 36 Q12 6 24 6 Q36 6 36 36 Z"/>
        <path d="M10 28 Q24 22 38 28"/>
        <circle cx="18" cy="20" r="2"/>
        <circle cx="30" cy="20" r="2"/>
    </g>
    <g stroke="#6b602d" stroke-width="3" stroke-linecap="round" stroke-linejoin="round" transform="translate(1,1)">
<path d="M12 36 Q12 6 24 6 Q36 6 36 36 Z"/>
        <path d="M10 28 Q24 22 38 28"/>
        <circle cx="18" cy="20" r="2"/>
        <circle cx="30" cy="20" r="2"/>
    </g>
    <g stroke="url(#g)" stroke-width="1.5" stroke-linecap="round" stroke-linejoin="round">
<path d="M12 36 Q12 6 24 6 Q36 6 36 36 Z"/>
        <path d="M10 28 Q24 22 38 28"/>
        <circle cx="18" cy="20" r="2"/>
        <circle cx="30" cy="20" r="2"/>
    </g>
  </g>
</svg>