<svg xmlns="http://www.w3.org/2000/svg" viewBox="0 0 48 48">
  <defs>
    <linearGradient id="g" x1="0%" y1="0%" x2="100%" y2="100%">
      <stop offset="0%" stop-color="#c0cdae"/>
      <stop offset="100%" stop-color="#3f4f29"/>
    </linearGradient>
    <filter id="sh" x="-30%" y="-30%" width="160%" height="160%">
      <feDropShadow dx="2.5" dy="3.5" stdDeviation="3" flood-color="#1a1a2e" flood-opacity="0.45"/>
    </filter>
  </defs>
  <g filter="url(#sh)" fill="none">
    <g stroke="#1d2412" stroke-width="4.5" stroke-linecap="round" stroke-linejoin="round" transform="translate(2,2)">
<circle cx="24" cy="30" r="14"/>
        <circle cx="18" cy="18" r="7"/>
        <circle cx="30" cy="18" r="7"/>
        <circle cx="18" cy="30" r="3"/>
        <circle cx="30" cy="30" r="3"/>
        <circle cx="24" cy="36" r="2"/>
    </g>
    <g stroke="#3f4f29" stroke-width="3" stroke-linecap="round" stroke-linejoin="round" transform="translate(1,1)">
<circle cx="24" cy="30" r="14"/>
        <circle cx="18" cy="18" r="7"/>
        <circle cx="30" cy="18" r="7"/>
        <circle cx="18" cy="30" r="3"/>
        <circle cx="30" cy="30" r="3"/>
        <circle cx="24" cy="36" r="2"/>
    </g>
    <g stroke="url(#g)" stroke-width="1.5" stroke-linecap="round" stroke-linejoin="round">
<circle cx="24" cy="30" r="14"/>
        <circle cx="18" cy="18" r="7"/>
        <circle cx="30" cy="18" r="7"/>
        <circle cx="18" cy="30" r="3"/>
        <circle cx="30" cy="30" r="3"/>
        <circle cx="24" cy="36" r="2"/>
    </g>
  </g>
</svg>