<svg xmlns="http://www.w3.org/2000/svg" viewBox="0 0 48 48">
  <defs>
    <linearGradient id="g" x1="0%" y1="0%" x2="100%" y2="100%">
      <stop offset="0%" stop-color="#c2ace7"/>
      <stop offset="100%" stop-color="#1e1132"/>
    </linearGradient>
    <filter id="shadow" x="-30%" y="-30%" width="160%" height="160%">
      <feDropShadow dx="2.5" dy="3.5" stdDeviation="3" flood-color="#1a1a2e" flood-opacity="0.45"/>
    </filter>
  </defs>
  <g filter="url(#shadow)" fill="none">
    <g stroke="#0f0819" stroke-width="4.5" stroke-linecap="round" stroke-linejoin="round" transform="translate(2,2)">
    <path d="M10 24 L10 38 Q10 44 16 44 Q22 44 22 38 L22 14 Q22 8 28 8 Q34 8 34 14 L34 34 Q34 38 30 38 Q26 38 26 34 L26 20" stroke-width="2.5" fill="none"/>
    </g>
    <g stroke="#1e1132" stroke-width="3" stroke-linecap="round" stroke-linejoin="round" transform="translate(1,1)">
    <path d="M10 24 L10 38 Q10 44 16 44 Q22 44 22 38 L22 14 Q22 8 28 8 Q34 8 34 14 L34 34 Q34 38 30 38 Q26 38 26 34 L26 20" stroke-width="2.5" fill="none"/>
    </g>
    <g stroke="url(#g)" stroke-width="1.5" stroke-linecap="round" stroke-linejoin="round">
    <path d="M10 24 L10 38 Q10 44 16 44 Q22 44 22 38 L22 14 Q22 8 28 8 Q34 8 34 14 L34 34 Q34 38 30 38 Q26 38 26 34 L26 20" stroke-width="2.5" fill="none"/>
    </g>
  </g>
</svg>