<svg xmlns="http://www.w3.org/2000/svg" viewBox="0 0 48 48">
  <defs>
    <linearGradient id="g" x1="0%" y1="0%" x2="100%" y2="100%">
      <stop offset="0%" stop-color="#a1cec4"/>
      <stop offset="100%" stop-color="#0c241f"/>
    </linearGradient>
    <filter id="shadow" x="-30%" y="-30%" width="160%" height="160%">
      <feDropShadow dx="2.5" dy="3.5" stdDeviation="3" flood-color="#1a1a2e" flood-opacity="0.45"/>
    </filter>
  </defs>
  <g filter="url(#shadow)" fill="none">
    <g stroke="#06120f" stroke-width="4.5" stroke-linecap="round" stroke-linejoin="round" transform="translate(2,2)">
    <path d="M14 10 L14 36 Q14 42 20 42 Q26 42 26 36 L26 16 Q26 10 32 10 Q38 10 38 16 L38 30" stroke-width="2.5" fill="none"/>
    </g>
    <g stroke="#0c241f" stroke-width="3" stroke-linecap="round" stroke-linejoin="round" transform="translate(1,1)">
    <path d="M14 10 L14 36 Q14 42 20 42 Q26 42 26 36 L26 16 Q26 10 32 10 Q38 10 38 16 L38 30" stroke-width="2.5" fill="none"/>
    </g>
    <g stroke="url(#g)" stroke-width="1.5" stroke-linecap="round" stroke-linejoin="round">
    <path d="M14 10 L14 36 Q14 42 20 42 Q26 42 26 36 L26 16 Q26 10 32 10 Q38 10 38 16 L38 30" stroke-width="2.5" fill="none"/>
    </g>
  </g>
</svg>