<svg xmlns="http://www.w3.org/2000/svg" viewBox="0 0 48 48">
  <defs>
    <linearGradient id="g" x1="0%" y1="0%" x2="100%" y2="100%">
      <stop offset="0%" stop-color="#d8a8b7"/>
      <stop offset="100%" stop-color="#5d2234"/>
    </linearGradient>
    <filter id="sh" x="-30%" y="-30%" width="160%" height="160%">
      <feDropShadow dx="2.5" dy="3.5" stdDeviation="3" flood-color="#1a1a2e" flood-opacity="0.45"/>
    </filter>
  </defs>
  <g filter="url(#sh)" fill="none">
    <g stroke="#2a0f17" stroke-width="4.5" stroke-linecap="round" stroke-linejoin="round" transform="translate(2,2)">
<path d="M6 36 Q6 8 24 8 Q42 8 42 36"/>
        <line x1="14" y1="36" x2="14" y2="44"/>
        <line x1="34" y1="36" x2="34" y2="44"/>
        <line x1="14" y1="44" x2="34" y2="44"/>
        <line x1="18" y1="36" x2="18" y2="18"/>
        <line x1="30" y1="36" x2="30" y2="18"/>
    </g>
    <g stroke="#5d2234" stroke-width="3" stroke-linecap="round" stroke-linejoin="round" transform="translate(1,1)">
<path d="M6 36 Q6 8 24 8 Q42 8 42 36"/>
        <line x1="14" y1="36" x2="14" y2="44"/>
        <line x1="34" y1="36" x2="34" y2="44"/>
        <line x1="14" y1="44" x2="34" y2="44"/>
        <line x1="18" y1="36" x2="18" y2="18"/>
        <line x1="30" y1="36" x2="30" y2="18"/>
    </g>
    <g stroke="url(#g)" stroke-width="1.5" stroke-linecap="round" stroke-linejoin="round">
<path d="M6 36 Q6 8 24 8 Q42 8 42 36"/>
        <line x1="14" y1="36" x2="14" y2="44"/>
        <line x1="34" y1="36" x2="34" y2="44"/>
        <line x1="14" y1="44" x2="34" y2="44"/>
        <line x1="18" y1="36" x2="18" y2="18"/>
        <line x1="30" y1="36" x2="30" y2="18"/>
    </g>
  </g>
</svg>