<svg xmlns="http://www.w3.org/2000/svg" viewBox="0 0 48 48">
  <defs>
    <linearGradient id="g" x1="0%" y1="0%" x2="100%" y2="100%">
      <stop offset="0%" stop-color="#c2c3e4"/>
      <stop offset="100%" stop-color="#1e1e31"/>
    </linearGradient>
    <filter id="shadow" x="-30%" y="-30%" width="160%" height="160%">
      <feDropShadow dx="2.5" dy="3.5" stdDeviation="3" flood-color="#1a1a2e" flood-opacity="0.45"/>
    </filter>
  </defs>
  <g filter="url(#shadow)" fill="none">
    <g stroke="#0f0f18" stroke-width="4.5" stroke-linecap="round" stroke-linejoin="round" transform="translate(2,2)">
    <path d="M8 18 L8 44 L40 44 L40 18 Z"/>
    <path d="M8 18 Q24 4 40 18"/>
    <path d="M24 6 L24 44"/>
    <rect x="14" y="8" width="20" height="6" rx="3"/>
    </g>
    <g stroke="#1e1e31" stroke-width="3" stroke-linecap="round" stroke-linejoin="round" transform="translate(1,1)">
    <path d="M8 18 L8 44 L40 44 L40 18 Z"/>
    <path d="M8 18 Q24 4 40 18"/>
    <path d="M24 6 L24 44"/>
    <rect x="14" y="8" width="20" height="6" rx="3"/>
    </g>
    <g stroke="url(#g)" stroke-width="1.5" stroke-linecap="round" stroke-linejoin="round">
    <path d="M8 18 L8 44 L40 44 L40 18 Z"/>
    <path d="M8 18 Q24 4 40 18"/>
    <path d="M24 6 L24 44"/>
    <rect x="14" y="8" width="20" height="6" rx="3"/>
    </g>
  </g>
</svg>