<svg xmlns="http://www.w3.org/2000/svg" viewBox="0 0 48 48">
  <defs>
    <linearGradient id="g" x1="0%" y1="0%" x2="100%" y2="100%">
      <stop offset="0%" stop-color="#a8c5a5"/>
      <stop offset="100%" stop-color="#22451f"/>
    </linearGradient>
    <filter id="sh" x="-30%" y="-30%" width="160%" height="160%">
      <feDropShadow dx="2.5" dy="3.5" stdDeviation="3" flood-color="#1a1a2e" flood-opacity="0.45"/>
    </filter>
  </defs>
  <g filter="url(#sh)" fill="none">
    <g stroke="#0f1f0e" stroke-width="4.5" stroke-linecap="round" stroke-linejoin="round" transform="translate(2,2)">
<ellipse cx="24" cy="26" rx="8" ry="12"/><circle cx="28" cy="10" r="7"/><path d="M34 6 L42 4 L36 14"/><circle cx="28" cy="10" r="2.5"/><path d="M12 30 Q6 34 8 38"/><circle cx="22" cy="24" r="2"/><circle cx="28" cy="24" r="2"/>
    </g>
    <g stroke="#22451f" stroke-width="3" stroke-linecap="round" stroke-linejoin="round" transform="translate(1,1)">
<ellipse cx="24" cy="26" rx="8" ry="12"/><circle cx="28" cy="10" r="7"/><path d="M34 6 L42 4 L36 14"/><circle cx="28" cy="10" r="2.5"/><path d="M12 30 Q6 34 8 38"/><circle cx="22" cy="24" r="2"/><circle cx="28" cy="24" r="2"/>
    </g>
    <g stroke="url(#g)" stroke-width="1.5" stroke-linecap="round" stroke-linejoin="round">
<ellipse cx="24" cy="26" rx="8" ry="12"/><circle cx="28" cy="10" r="7"/><path d="M34 6 L42 4 L36 14"/><circle cx="28" cy="10" r="2.5"/><path d="M12 30 Q6 34 8 38"/><circle cx="22" cy="24" r="2"/><circle cx="28" cy="24" r="2"/>
    </g>
  </g>
</svg>