<svg xmlns="http://www.w3.org/2000/svg" viewBox="0 0 48 48">
  <defs>
    <linearGradient id="g" x1="0%" y1="0%" x2="100%" y2="100%">
      <stop offset="0%" stop-color="#b9a5e2"/>
      <stop offset="100%" stop-color="#190e2f"/>
    </linearGradient>
    <filter id="shadow" x="-30%" y="-30%" width="160%" height="160%">
      <feDropShadow dx="2.5" dy="3.5" stdDeviation="3" flood-color="#1a1a2e" flood-opacity="0.45"/>
    </filter>
  </defs>
  <g filter="url(#shadow)" fill="none">
    <g stroke="#0c0717" stroke-width="4.5" stroke-linecap="round" stroke-linejoin="round" transform="translate(2,2)">
    <ellipse cx="24" cy="24" rx="8" ry="6"/>
    <circle cx="24" cy="16" r="5"/>
    <circle cx="22" cy="14" r="1.5"/>
    <path d="M28 16 Q34 12 36 16"/>
    <path d="M24 24 L24 28 M20 28 L28 28"/>
    <path d="M16 30 Q10 36 8 42 M16 30 Q8 38 6 42"/>
    <line x1="24" y1="28" x2="24" y2="44"/>
    </g>
    <g stroke="#190e2f" stroke-width="3" stroke-linecap="round" stroke-linejoin="round" transform="translate(1,1)">
    <ellipse cx="24" cy="24" rx="8" ry="6"/>
    <circle cx="24" cy="16" r="5"/>
    <circle cx="22" cy="14" r="1.5"/>
    <path d="M28 16 Q34 12 36 16"/>
    <path d="M24 24 L24 28 M20 28 L28 28"/>
    <path d="M16 30 Q10 36 8 42 M16 30 Q8 38 6 42"/>
    <line x1="24" y1="28" x2="24" y2="44"/>
    </g>
    <g stroke="url(#g)" stroke-width="1.5" stroke-linecap="round" stroke-linejoin="round">
    <ellipse cx="24" cy="24" rx="8" ry="6"/>
    <circle cx="24" cy="16" r="5"/>
    <circle cx="22" cy="14" r="1.5"/>
    <path d="M28 16 Q34 12 36 16"/>
    <path d="M24 24 L24 28 M20 28 L28 28"/>
    <path d="M16 30 Q10 36 8 42 M16 30 Q8 38 6 42"/>
    <line x1="24" y1="28" x2="24" y2="44"/>
    </g>
  </g>
</svg>