<svg xmlns="http://www.w3.org/2000/svg" viewBox="0 0 48 48">
  <defs>
    <linearGradient id="g" x1="0%" y1="0%" x2="100%" y2="100%">
      <stop offset="0%" stop-color="#b2c1e2"/>
      <stop offset="100%" stop-color="#151d2f"/>
    </linearGradient>
    <filter id="shadow" x="-30%" y="-30%" width="160%" height="160%">
      <feDropShadow dx="2.5" dy="3.5" stdDeviation="3" flood-color="#1a1a2e" flood-opacity="0.45"/>
    </filter>
  </defs>
  <g filter="url(#shadow)" fill="none">
    <g stroke="#0a0e17" stroke-width="4.5" stroke-linecap="round" stroke-linejoin="round" transform="translate(2,2)">
    <polygon points="24,4 20,16 16,20 16,36 20,40 28,40 32,36 32,20 28,16"/>
    <line x1="24" y1="4" x2="24" y2="2"/>
    <path d="M18 24 L30 24 M16 30 L32 30"/>
    </g>
    <g stroke="#151d2f" stroke-width="3" stroke-linecap="round" stroke-linejoin="round" transform="translate(1,1)">
    <polygon points="24,4 20,16 16,20 16,36 20,40 28,40 32,36 32,20 28,16"/>
    <line x1="24" y1="4" x2="24" y2="2"/>
    <path d="M18 24 L30 24 M16 30 L32 30"/>
    </g>
    <g stroke="url(#g)" stroke-width="1.5" stroke-linecap="round" stroke-linejoin="round">
    <polygon points="24,4 20,16 16,20 16,36 20,40 28,40 32,36 32,20 28,16"/>
    <line x1="24" y1="4" x2="24" y2="2"/>
    <path d="M18 24 L30 24 M16 30 L32 30"/>
    </g>
  </g>
</svg>