<svg xmlns="http://www.w3.org/2000/svg" viewBox="0 0 48 48">
  <defs>
    <linearGradient id="g" x1="0%" y1="0%" x2="100%" y2="100%">
      <stop offset="0%" stop-color="#bbd7b2"/>
      <stop offset="100%" stop-color="#1a2a15"/>
    </linearGradient>
    <filter id="shadow" x="-30%" y="-30%" width="160%" height="160%">
      <feDropShadow dx="2.5" dy="3.5" stdDeviation="3" flood-color="#1a1a2e" flood-opacity="0.45"/>
    </filter>
  </defs>
  <g filter="url(#shadow)" fill="none">
    <g stroke="#0d150a" stroke-width="4.5" stroke-linecap="round" stroke-linejoin="round" transform="translate(2,2)">
    <circle cx="28" cy="14" r="7"/>
    <line x1="28" y1="2" x2="28" y2="6 M16 14 L12 14 M28 24 L28 26 M20 6 L17 3 M36 6 L39 3"/>
    <ellipse cx="24" cy="28" rx="14" ry="7"/>
    <ellipse cx="16" cy="24" rx="8" ry="5"/>
    <ellipse cx="30" cy="22" rx="7" ry="5"/>
    </g>
    <g stroke="#1a2a15" stroke-width="3" stroke-linecap="round" stroke-linejoin="round" transform="translate(1,1)">
    <circle cx="28" cy="14" r="7"/>
    <line x1="28" y1="2" x2="28" y2="6 M16 14 L12 14 M28 24 L28 26 M20 6 L17 3 M36 6 L39 3"/>
    <ellipse cx="24" cy="28" rx="14" ry="7"/>
    <ellipse cx="16" cy="24" rx="8" ry="5"/>
    <ellipse cx="30" cy="22" rx="7" ry="5"/>
    </g>
    <g stroke="url(#g)" stroke-width="1.5" stroke-linecap="round" stroke-linejoin="round">
    <circle cx="28" cy="14" r="7"/>
    <line x1="28" y1="2" x2="28" y2="6 M16 14 L12 14 M28 24 L28 26 M20 6 L17 3 M36 6 L39 3"/>
    <ellipse cx="24" cy="28" rx="14" ry="7"/>
    <ellipse cx="16" cy="24" rx="8" ry="5"/>
    <ellipse cx="30" cy="22" rx="7" ry="5"/>
    </g>
  </g>
</svg>