<svg xmlns="http://www.w3.org/2000/svg" viewBox="0 0 48 48">
  <defs>
    <linearGradient id="g" x1="0%" y1="0%" x2="100%" y2="100%">
      <stop offset="0%" stop-color="#b9b2c4"/>
      <stop offset="100%" stop-color="#19151f"/>
    </linearGradient>
    <filter id="shadow" x="-30%" y="-30%" width="160%" height="160%">
      <feDropShadow dx="2.5" dy="3.5" stdDeviation="3" flood-color="#1a1a2e" flood-opacity="0.45"/>
    </filter>
  </defs>
  <g filter="url(#shadow)" fill="none">
    <g stroke="#0c0a0f" stroke-width="4.5" stroke-linecap="round" stroke-linejoin="round" transform="translate(2,2)">
    <ellipse cx="24" cy="26" rx="10" ry="12"/>
    <circle cx="24" cy="26" r="7"/>
    <path d="M24 20 L24 32 M18 26 L30 26 M20 22 L28 30 M20 30 L28 22"/>
    </g>
    <g stroke="#19151f" stroke-width="3" stroke-linecap="round" stroke-linejoin="round" transform="translate(1,1)">
    <ellipse cx="24" cy="26" rx="10" ry="12"/>
    <circle cx="24" cy="26" r="7"/>
    <path d="M24 20 L24 32 M18 26 L30 26 M20 22 L28 30 M20 30 L28 22"/>
    </g>
    <g stroke="url(#g)" stroke-width="1.5" stroke-linecap="round" stroke-linejoin="round">
    <ellipse cx="24" cy="26" rx="10" ry="12"/>
    <circle cx="24" cy="26" r="7"/>
    <path d="M24 20 L24 32 M18 26 L30 26 M20 22 L28 30 M20 30 L28 22"/>
    </g>
  </g>
</svg>