<svg xmlns="http://www.w3.org/2000/svg" viewBox="0 0 48 48">
  <defs>
    <linearGradient id="g" x1="0%" y1="0%" x2="100%" y2="100%">
      <stop offset="0%" stop-color="#aaa4d4"/>
      <stop offset="100%" stop-color="#110d28"/>
    </linearGradient>
    <filter id="shadow" x="-30%" y="-30%" width="160%" height="160%">
      <feDropShadow dx="2.5" dy="3.5" stdDeviation="3" flood-color="#1a1a2e" flood-opacity="0.45"/>
    </filter>
  </defs>
  <g filter="url(#shadow)" fill="none">
    <g stroke="#080614" stroke-width="4.5" stroke-linecap="round" stroke-linejoin="round" transform="translate(2,2)">
    <path d="M4 12 Q14 8 24 14 Q34 20 44 16 V44 H4 Z"/>
    <line x1="8" y1="20" x2="40" y2="20 M12 28 L36 28 M16 36 L32 36"/>
    </g>
    <g stroke="#110d28" stroke-width="3" stroke-linecap="round" stroke-linejoin="round" transform="translate(1,1)">
    <path d="M4 12 Q14 8 24 14 Q34 20 44 16 V44 H4 Z"/>
    <line x1="8" y1="20" x2="40" y2="20 M12 28 L36 28 M16 36 L32 36"/>
    </g>
    <g stroke="url(#g)" stroke-width="1.5" stroke-linecap="round" stroke-linejoin="round">
    <path d="M4 12 Q14 8 24 14 Q34 20 44 16 V44 H4 Z"/>
    <line x1="8" y1="20" x2="40" y2="20 M12 28 L36 28 M16 36 L32 36"/>
    </g>
  </g>
</svg>