<svg xmlns="http://www.w3.org/2000/svg" viewBox="0 0 48 48">
  <defs>
    <linearGradient id="g" x1="0%" y1="0%" x2="100%" y2="100%">
      <stop offset="0%" stop-color="#cdbbde"/>
      <stop offset="100%" stop-color="#4f3964"/>
    </linearGradient>
    <filter id="sh" x="-30%" y="-30%" width="160%" height="160%">
      <feDropShadow dx="2.5" dy="3.5" stdDeviation="3" flood-color="#1a1a2e" flood-opacity="0.45"/>
    </filter>
  </defs>
  <g filter="url(#sh)" fill="none">
    <g stroke="#241a2d" stroke-width="4.5" stroke-linecap="round" stroke-linejoin="round" transform="translate(2,2)">
<ellipse cx="24" cy="24" rx="18" ry="10"/>
        <path d="M10 12 Q24 4 38 12"/>
        <line x1="10" y1="18" x2="38" y2="18"/>
        <circle cx="18" cy="24" r="2"/><circle cx="30" cy="24" r="2"/>
    </g>
    <g stroke="#4f3964" stroke-width="3" stroke-linecap="round" stroke-linejoin="round" transform="translate(1,1)">
<ellipse cx="24" cy="24" rx="18" ry="10"/>
        <path d="M10 12 Q24 4 38 12"/>
        <line x1="10" y1="18" x2="38" y2="18"/>
        <circle cx="18" cy="24" r="2"/><circle cx="30" cy="24" r="2"/>
    </g>
    <g stroke="url(#g)" stroke-width="1.5" stroke-linecap="round" stroke-linejoin="round">
<ellipse cx="24" cy="24" rx="18" ry="10"/>
        <path d="M10 12 Q24 4 38 12"/>
        <line x1="10" y1="18" x2="38" y2="18"/>
        <circle cx="18" cy="24" r="2"/><circle cx="30" cy="24" r="2"/>
    </g>
  </g>
</svg>