<svg xmlns="http://www.w3.org/2000/svg" viewBox="0 0 48 48">
  <defs>
    <linearGradient id="g" x1="0%" y1="0%" x2="100%" y2="100%">
      <stop offset="0%" stop-color="#abceb0"/>
      <stop offset="100%" stop-color="#26502c"/>
    </linearGradient>
    <filter id="sh" x="-30%" y="-30%" width="160%" height="160%">
      <feDropShadow dx="2.5" dy="3.5" stdDeviation="3" flood-color="#1a1a2e" flood-opacity="0.45"/>
    </filter>
  </defs>
  <g filter="url(#sh)" fill="none">
    <g stroke="#112414" stroke-width="4.5" stroke-linecap="round" stroke-linejoin="round" transform="translate(2,2)">
<ellipse cx="24" cy="28" rx="12" ry="12"/><circle cx="28" cy="12" r="7"/><path d="M34 8 L40 6 L36 16"/><circle cx="28" cy="12" r="2.5"/><path d="M12 30 L8 34 L14 36 L8 38"/><circle cx="22" cy="26" r="2"/><circle cx="30" cy="26" r="2"/>
    </g>
    <g stroke="#26502c" stroke-width="3" stroke-linecap="round" stroke-linejoin="round" transform="translate(1,1)">
<ellipse cx="24" cy="28" rx="12" ry="12"/><circle cx="28" cy="12" r="7"/><path d="M34 8 L40 6 L36 16"/><circle cx="28" cy="12" r="2.5"/><path d="M12 30 L8 34 L14 36 L8 38"/><circle cx="22" cy="26" r="2"/><circle cx="30" cy="26" r="2"/>
    </g>
    <g stroke="url(#g)" stroke-width="1.5" stroke-linecap="round" stroke-linejoin="round">
<ellipse cx="24" cy="28" rx="12" ry="12"/><circle cx="28" cy="12" r="7"/><path d="M34 8 L40 6 L36 16"/><circle cx="28" cy="12" r="2.5"/><path d="M12 30 L8 34 L14 36 L8 38"/><circle cx="22" cy="26" r="2"/><circle cx="30" cy="26" r="2"/>
    </g>
  </g>
</svg>