<svg xmlns="http://www.w3.org/2000/svg" viewBox="0 0 48 48">
  <defs>
    <linearGradient id="g" x1="0%" y1="0%" x2="100%" y2="100%">
      <stop offset="0%" stop-color="#adc4bf"/>
      <stop offset="100%" stop-color="#121f1c"/>
    </linearGradient>
    <filter id="shadow" x="-30%" y="-30%" width="160%" height="160%">
      <feDropShadow dx="2.5" dy="3.5" stdDeviation="3" flood-color="#1a1a2e" flood-opacity="0.45"/>
    </filter>
  </defs>
  <g filter="url(#shadow)" fill="none">
    <g stroke="#090f0e" stroke-width="4.5" stroke-linecap="round" stroke-linejoin="round" transform="translate(2,2)">
    <ellipse cx="24" cy="22" rx="10" ry="6"/>
    <circle cx="24" cy="14" r="4"/>
    <circle cx="22" cy="12" r="1.5"/>
    <path d="M32 18 Q42 14 44 22 Q42 24 32 22"/>
    <path d="M16 22 Q10 18 8 22 Q10 26 16 24"/>
    <path d="M24 22 L24 44 M24 26 L20 26 M24 30 L20 30"/>
    </g>
    <g stroke="#121f1c" stroke-width="3" stroke-linecap="round" stroke-linejoin="round" transform="translate(1,1)">
    <ellipse cx="24" cy="22" rx="10" ry="6"/>
    <circle cx="24" cy="14" r="4"/>
    <circle cx="22" cy="12" r="1.5"/>
    <path d="M32 18 Q42 14 44 22 Q42 24 32 22"/>
    <path d="M16 22 Q10 18 8 22 Q10 26 16 24"/>
    <path d="M24 22 L24 44 M24 26 L20 26 M24 30 L20 30"/>
    </g>
    <g stroke="url(#g)" stroke-width="1.5" stroke-linecap="round" stroke-linejoin="round">
    <ellipse cx="24" cy="22" rx="10" ry="6"/>
    <circle cx="24" cy="14" r="4"/>
    <circle cx="22" cy="12" r="1.5"/>
    <path d="M32 18 Q42 14 44 22 Q42 24 32 22"/>
    <path d="M16 22 Q10 18 8 22 Q10 26 16 24"/>
    <path d="M24 22 L24 44 M24 26 L20 26 M24 30 L20 30"/>
    </g>
  </g>
</svg>