<svg xmlns="http://www.w3.org/2000/svg" viewBox="0 0 48 48">
  <defs>
    <linearGradient id="g" x1="0%" y1="0%" x2="100%" y2="100%">
      <stop offset="0%" stop-color="#bfb0b0"/>
      <stop offset="100%" stop-color="#3e2c2c"/>
    </linearGradient>
    <filter id="sh" x="-30%" y="-30%" width="160%" height="160%">
      <feDropShadow dx="2.5" dy="3.5" stdDeviation="3" flood-color="#1a1a2e" flood-opacity="0.45"/>
    </filter>
  </defs>
  <g filter="url(#sh)" fill="none">
    <g stroke="#1c1414" stroke-width="4.5" stroke-linecap="round" stroke-linejoin="round" transform="translate(2,2)">
<ellipse cx="24" cy="28" rx="10" ry="14"/>
        <ellipse cx="24" cy="12" rx="7" ry="6"/>
        <path d="M17 12 Q12 8 14 4 Q17 6 18 10"/>
        <path d="M31 12 Q36 8 34 4 Q31 6 30 10"/>
        <circle cx="19" cy="26" r="2"/>
        <circle cx="29" cy="26" r="2"/>
        <path d="M20 36 Q24 40 28 36"/>
        <line x1="24" y1="12" x2="24" y2="18"/>
    </g>
    <g stroke="#3e2c2c" stroke-width="3" stroke-linecap="round" stroke-linejoin="round" transform="translate(1,1)">
<ellipse cx="24" cy="28" rx="10" ry="14"/>
        <ellipse cx="24" cy="12" rx="7" ry="6"/>
        <path d="M17 12 Q12 8 14 4 Q17 6 18 10"/>
        <path d="M31 12 Q36 8 34 4 Q31 6 30 10"/>
        <circle cx="19" cy="26" r="2"/>
        <circle cx="29" cy="26" r="2"/>
        <path d="M20 36 Q24 40 28 36"/>
        <line x1="24" y1="12" x2="24" y2="18"/>
    </g>
    <g stroke="url(#g)" stroke-width="1.5" stroke-linecap="round" stroke-linejoin="round">
<ellipse cx="24" cy="28" rx="10" ry="14"/>
        <ellipse cx="24" cy="12" rx="7" ry="6"/>
        <path d="M17 12 Q12 8 14 4 Q17 6 18 10"/>
        <path d="M31 12 Q36 8 34 4 Q31 6 30 10"/>
        <circle cx="19" cy="26" r="2"/>
        <circle cx="29" cy="26" r="2"/>
        <path d="M20 36 Q24 40 28 36"/>
        <line x1="24" y1="12" x2="24" y2="18"/>
    </g>
  </g>
</svg>