<svg xmlns="http://www.w3.org/2000/svg" viewBox="0 0 48 48">
  <defs>
    <linearGradient id="g" x1="0%" y1="0%" x2="100%" y2="100%">
      <stop offset="0%" stop-color="#cadee6"/>
      <stop offset="100%" stop-color="#222d32"/>
    </linearGradient>
    <filter id="shadow" x="-30%" y="-30%" width="160%" height="160%">
      <feDropShadow dx="2.5" dy="3.5" stdDeviation="3" flood-color="#1a1a2e" flood-opacity="0.45"/>
    </filter>
  </defs>
  <g filter="url(#shadow)" fill="none">
    <g stroke="#111619" stroke-width="4.5" stroke-linecap="round" stroke-linejoin="round" transform="translate(2,2)">
    <rect x="16" y="6" width="16" height="32" rx="5"/>
    <ellipse cx="24" cy="6" rx="8" ry="3"/>
    <circle cx="24" cy="38" r="4"/>
    <line x1="16" y1="16" x2="32" y2="16 M16 24 L32 24"/>
    </g>
    <g stroke="#222d32" stroke-width="3" stroke-linecap="round" stroke-linejoin="round" transform="translate(1,1)">
    <rect x="16" y="6" width="16" height="32" rx="5"/>
    <ellipse cx="24" cy="6" rx="8" ry="3"/>
    <circle cx="24" cy="38" r="4"/>
    <line x1="16" y1="16" x2="32" y2="16 M16 24 L32 24"/>
    </g>
    <g stroke="url(#g)" stroke-width="1.5" stroke-linecap="round" stroke-linejoin="round">
    <rect x="16" y="6" width="16" height="32" rx="5"/>
    <ellipse cx="24" cy="6" rx="8" ry="3"/>
    <circle cx="24" cy="38" r="4"/>
    <line x1="16" y1="16" x2="32" y2="16 M16 24 L32 24"/>
    </g>
  </g>
</svg>