<svg xmlns="http://www.w3.org/2000/svg" viewBox="0 0 48 48">
  <defs>
    <linearGradient id="g" x1="0%" y1="0%" x2="100%" y2="100%">
      <stop offset="0%" stop-color="#deafe6"/>
      <stop offset="100%" stop-color="#2d1332"/>
    </linearGradient>
    <filter id="shadow" x="-30%" y="-30%" width="160%" height="160%">
      <feDropShadow dx="2.5" dy="3.5" stdDeviation="3" flood-color="#1a1a2e" flood-opacity="0.45"/>
    </filter>
  </defs>
  <g filter="url(#shadow)" fill="none">
    <g stroke="#160919" stroke-width="4.5" stroke-linecap="round" stroke-linejoin="round" transform="translate(2,2)">
    <rect x="14" y="6" width="20" height="24" rx="6"/>
    <rect x="16" y="4" width="16" height="6" rx="2"/>
    <line x1="16" y1="10" x2="32" y2="10"/>
    <ellipse cx="24" cy="20" rx="4" ry="6"/>
    <circle cx="24" cy="20" r="2" fill="currentColor"/>
    </g>
    <g stroke="#2d1332" stroke-width="3" stroke-linecap="round" stroke-linejoin="round" transform="translate(1,1)">
    <rect x="14" y="6" width="20" height="24" rx="6"/>
    <rect x="16" y="4" width="16" height="6" rx="2"/>
    <line x1="16" y1="10" x2="32" y2="10"/>
    <ellipse cx="24" cy="20" rx="4" ry="6"/>
    <circle cx="24" cy="20" r="2" fill="currentColor"/>
    </g>
    <g stroke="url(#g)" stroke-width="1.5" stroke-linecap="round" stroke-linejoin="round">
    <rect x="14" y="6" width="20" height="24" rx="6"/>
    <rect x="16" y="4" width="16" height="6" rx="2"/>
    <line x1="16" y1="10" x2="32" y2="10"/>
    <ellipse cx="24" cy="20" rx="4" ry="6"/>
    <circle cx="24" cy="20" r="2" fill="currentColor"/>
    </g>
  </g>
</svg>