<svg xmlns="http://www.w3.org/2000/svg" viewBox="0 0 48 48">
  <defs>
    <linearGradient id="g" x1="0%" y1="0%" x2="100%" y2="100%">
      <stop offset="0%" stop-color="#b6a9c0"/>
      <stop offset="100%" stop-color="#17101d"/>
    </linearGradient>
    <filter id="shadow" x="-30%" y="-30%" width="160%" height="160%">
      <feDropShadow dx="2.5" dy="3.5" stdDeviation="3" flood-color="#1a1a2e" flood-opacity="0.45"/>
    </filter>
  </defs>
  <g filter="url(#shadow)" fill="none">
    <g stroke="#0b080e" stroke-width="4.5" stroke-linecap="round" stroke-linejoin="round" transform="translate(2,2)">
    <rect x="6" y="20" width="36" height="24" rx="2"/>
    <rect x="8" y="28" width="10" height="10" rx="2"/>
    <rect x="30" y="28" width="10" height="10" rx="2"/>
    <circle cx="24" cy="14" r="6"/>
    <line x1="24" y1="10" x2="24" y2="18 M21 14 L27 14"/>
    </g>
    <g stroke="#17101d" stroke-width="3" stroke-linecap="round" stroke-linejoin="round" transform="translate(1,1)">
    <rect x="6" y="20" width="36" height="24" rx="2"/>
    <rect x="8" y="28" width="10" height="10" rx="2"/>
    <rect x="30" y="28" width="10" height="10" rx="2"/>
    <circle cx="24" cy="14" r="6"/>
    <line x1="24" y1="10" x2="24" y2="18 M21 14 L27 14"/>
    </g>
    <g stroke="url(#g)" stroke-width="1.5" stroke-linecap="round" stroke-linejoin="round">
    <rect x="6" y="20" width="36" height="24" rx="2"/>
    <rect x="8" y="28" width="10" height="10" rx="2"/>
    <rect x="30" y="28" width="10" height="10" rx="2"/>
    <circle cx="24" cy="14" r="6"/>
    <line x1="24" y1="10" x2="24" y2="18 M21 14 L27 14"/>
    </g>
  </g>
</svg>