<svg xmlns="http://www.w3.org/2000/svg" viewBox="0 0 48 48">
  <defs>
    <linearGradient id="g" x1="0%" y1="0%" x2="100%" y2="100%">
      <stop offset="0%" stop-color="#7986CB"/>
      <stop offset="100%" stop-color="#161E52"/>
    </linearGradient>
    <filter id="sh" x="-30%" y="-30%" width="160%" height="160%">
      <feDropShadow dx="2.5" dy="3.5" stdDeviation="3" flood-color="#1a1a2e" flood-opacity="0.45"/>
    </filter>
  </defs>
  <g filter="url(#sh)" fill="none">
    <g stroke="#0B0F29" stroke-width="4.5" stroke-linecap="round" stroke-linejoin="round" transform="translate(2,2)">
                <rect x="14" y="4" width="20" height="40" rx="3"/>
                <rect x="16" y="12" width="16" height="22" rx="1"/>
                <circle cx="24" cy="38" r="3"/>
                <circle cx="24" cy="8" r="2" fill="#607D8B"/>
    </g>
    <g stroke="#161E52" stroke-width="3" stroke-linecap="round" stroke-linejoin="round" transform="translate(1,1)">
                <rect x="14" y="4" width="20" height="40" rx="3"/>
                <rect x="16" y="12" width="16" height="22" rx="1"/>
                <circle cx="24" cy="38" r="3"/>
                <circle cx="24" cy="8" r="2" fill="#607D8B"/>
    </g>
    <g stroke="url(#g)" stroke-width="1.5" stroke-linecap="round" stroke-linejoin="round">
                <rect x="14" y="4" width="20" height="40" rx="3"/>
                <rect x="16" y="12" width="16" height="22" rx="1"/>
                <circle cx="24" cy="38" r="3"/>
                <circle cx="24" cy="8" r="2" fill="#607D8B"/>
    </g>
  </g>
</svg>