<svg xmlns="http://www.w3.org/2000/svg" viewBox="0 0 48 48">
  <defs>
    <linearGradient id="iconGrad" x1="0%" y1="0%" x2="100%" y2="100%">
      <stop offset="0%" stop-color="#FFE082"/>
      <stop offset="100%" stop-color="#8C6F16"/>
    </linearGradient>
    <filter id="shadow" x="-30%" y="-30%" width="160%" height="160%">
      <feDropShadow dx="2.5" dy="3.5" stdDeviation="3" flood-color="#1a1a2e" flood-opacity="0.45"/>
    </filter>
  </defs>
  <g filter="url(#shadow)" fill="none">
    <g stroke="#46380B" stroke-width="4.5" stroke-linecap="round" stroke-linejoin="round" transform="translate(2,2)">
      <rect x="8" y="16" width="32" height="22" rx="4"/>
      <rect x="18" y="12" width="12" height="6" rx="2"/>
      <circle cx="24" cy="27" r="9"/>
      <circle cx="24" cy="27" r="5"/>
      <rect x="12" y="18" width="4" height="2" rx="1"/>
    </g>
    <g stroke="#8C6F16" stroke-width="3" stroke-linecap="round" stroke-linejoin="round" transform="translate(1,1)">
      <rect x="8" y="16" width="32" height="22" rx="4"/>
      <rect x="18" y="12" width="12" height="6" rx="2"/>
      <circle cx="24" cy="27" r="9"/>
      <circle cx="24" cy="27" r="5"/>
      <rect x="12" y="18" width="4" height="2" rx="1"/>
    </g>
    <g stroke="url(#iconGrad)" stroke-width="1.5" stroke-linecap="round" stroke-linejoin="round">
      <rect x="8" y="16" width="32" height="22" rx="4"/>
      <rect x="18" y="12" width="12" height="6" rx="2"/>
      <circle cx="24" cy="27" r="9"/>
      <circle cx="24" cy="27" r="5"/>
      <rect x="12" y="18" width="4" height="2" rx="1"/>
    </g>
  </g>
</svg>