<svg xmlns="http://www.w3.org/2000/svg" viewBox="0 0 48 48">
  <defs>
    <linearGradient id="g" x1="0%" y1="0%" x2="100%" y2="100%">
      <stop offset="0%" stop-color="#a9e2d1"/>
      <stop offset="100%" stop-color="#246954"/>
    </linearGradient>
    <filter id="sh" x="-30%" y="-30%" width="160%" height="160%">
      <feDropShadow dx="2.5" dy="3.5" stdDeviation="3" flood-color="#1a1a2e" flood-opacity="0.45"/>
    </filter>
  </defs>
  <g filter="url(#sh)" fill="none">
    <g stroke="#102f26" stroke-width="4.5" stroke-linecap="round" stroke-linejoin="round" transform="translate(2,2)">
<rect x="4" y="8" width="40" height="32" rx="2"/>
        <line x1="4" y1="20" x2="44" y2="20"/>
        <line x1="10" y1="8" x2="10" y2="20"/>
        <line x1="16" y1="8" x2="16" y2="20"/>
        <line x1="22" y1="8" x2="22" y2="20"/>
        <line x1="28" y1="8" x2="28" y2="20"/>
        <line x1="34" y1="8" x2="34" y2="20"/>
        <line x1="40" y1="8" x2="40" y2="20"/>
    </g>
    <g stroke="#246954" stroke-width="3" stroke-linecap="round" stroke-linejoin="round" transform="translate(1,1)">
<rect x="4" y="8" width="40" height="32" rx="2"/>
        <line x1="4" y1="20" x2="44" y2="20"/>
        <line x1="10" y1="8" x2="10" y2="20"/>
        <line x1="16" y1="8" x2="16" y2="20"/>
        <line x1="22" y1="8" x2="22" y2="20"/>
        <line x1="28" y1="8" x2="28" y2="20"/>
        <line x1="34" y1="8" x2="34" y2="20"/>
        <line x1="40" y1="8" x2="40" y2="20"/>
    </g>
    <g stroke="url(#g)" stroke-width="1.5" stroke-linecap="round" stroke-linejoin="round">
<rect x="4" y="8" width="40" height="32" rx="2"/>
        <line x1="4" y1="20" x2="44" y2="20"/>
        <line x1="10" y1="8" x2="10" y2="20"/>
        <line x1="16" y1="8" x2="16" y2="20"/>
        <line x1="22" y1="8" x2="22" y2="20"/>
        <line x1="28" y1="8" x2="28" y2="20"/>
        <line x1="34" y1="8" x2="34" y2="20"/>
        <line x1="40" y1="8" x2="40" y2="20"/>
    </g>
  </g>
</svg>