<svg xmlns="http://www.w3.org/2000/svg" viewBox="0 0 48 48">
  <defs>
    <linearGradient id="g" x1="0%" y1="0%" x2="100%" y2="100%">
      <stop offset="0%" stop-color="#cadca8"/>
      <stop offset="100%" stop-color="#4c6122"/>
    </linearGradient>
    <filter id="sh" x="-30%" y="-30%" width="160%" height="160%">
      <feDropShadow dx="2.5" dy="3.5" stdDeviation="3" flood-color="#1a1a2e" flood-opacity="0.45"/>
    </filter>
  </defs>
  <g filter="url(#sh)" fill="none">
    <g stroke="#222c0f" stroke-width="4.5" stroke-linecap="round" stroke-linejoin="round" transform="translate(2,2)">
<line x1="24" y1="10" x2="24" y2="42"/><path d="M6 16 L24 6 L42 16"/><line x1="6" y1="16" x2="42" y2="16"/><path d="M6 16 L2 12 M42 16 L46 12"/>
    </g>
    <g stroke="#4c6122" stroke-width="3" stroke-linecap="round" stroke-linejoin="round" transform="translate(1,1)">
<line x1="24" y1="10" x2="24" y2="42"/><path d="M6 16 L24 6 L42 16"/><line x1="6" y1="16" x2="42" y2="16"/><path d="M6 16 L2 12 M42 16 L46 12"/>
    </g>
    <g stroke="url(#g)" stroke-width="1.5" stroke-linecap="round" stroke-linejoin="round">
<line x1="24" y1="10" x2="24" y2="42"/><path d="M6 16 L24 6 L42 16"/><line x1="6" y1="16" x2="42" y2="16"/><path d="M6 16 L2 12 M42 16 L46 12"/>
    </g>
  </g>
</svg>