<svg xmlns="http://www.w3.org/2000/svg" viewBox="0 0 48 48">
  <defs>
    <linearGradient id="g" x1="0%" y1="0%" x2="100%" y2="100%">
      <stop offset="0%" stop-color="#d4bebd"/>
      <stop offset="100%" stop-color="#281c1b"/>
    </linearGradient>
    <filter id="shadow" x="-30%" y="-30%" width="160%" height="160%">
      <feDropShadow dx="2.5" dy="3.5" stdDeviation="3" flood-color="#1a1a2e" flood-opacity="0.45"/>
    </filter>
  </defs>
  <g filter="url(#shadow)" fill="none">
    <g stroke="#140e0d" stroke-width="4.5" stroke-linecap="round" stroke-linejoin="round" transform="translate(2,2)">
    <path d="M10 16 L10 34 Q10 40 24 40 Q38 40 38 34 L38 16"/>
    <path d="M10 16 L24 6 L38 16"/>
    <line x1="10" y1="16" x2="38" y2="16"/>
    </g>
    <g stroke="#281c1b" stroke-width="3" stroke-linecap="round" stroke-linejoin="round" transform="translate(1,1)">
    <path d="M10 16 L10 34 Q10 40 24 40 Q38 40 38 34 L38 16"/>
    <path d="M10 16 L24 6 L38 16"/>
    <line x1="10" y1="16" x2="38" y2="16"/>
    </g>
    <g stroke="url(#g)" stroke-width="1.5" stroke-linecap="round" stroke-linejoin="round">
    <path d="M10 16 L10 34 Q10 40 24 40 Q38 40 38 34 L38 16"/>
    <path d="M10 16 L24 6 L38 16"/>
    <line x1="10" y1="16" x2="38" y2="16"/>
    </g>
  </g>
</svg>