<svg xmlns="http://www.w3.org/2000/svg" viewBox="0 0 48 48">
  <defs>
    <linearGradient id="g" x1="0%" y1="0%" x2="100%" y2="100%">
      <stop offset="0%" stop-color="#dab8e3"/>
      <stop offset="100%" stop-color="#5f356a"/>
    </linearGradient>
    <filter id="sh" x="-30%" y="-30%" width="160%" height="160%">
      <feDropShadow dx="2.5" dy="3.5" stdDeviation="3" flood-color="#1a1a2e" flood-opacity="0.45"/>
    </filter>
  </defs>
  <g filter="url(#sh)" fill="none">
    <g stroke="#2b1830" stroke-width="4.5" stroke-linecap="round" stroke-linejoin="round" transform="translate(2,2)">
<ellipse cx="24" cy="24" rx="12" ry="8"/>
        <path d="M12 24 Q24 10 36 24"/>
        <path d="M12 18 Q24 4 36 18"/>
        <circle cx="18" cy="22" r="2"/>
        <circle cx="30" cy="22" r="2"/>
    </g>
    <g stroke="#5f356a" stroke-width="3" stroke-linecap="round" stroke-linejoin="round" transform="translate(1,1)">
<ellipse cx="24" cy="24" rx="12" ry="8"/>
        <path d="M12 24 Q24 10 36 24"/>
        <path d="M12 18 Q24 4 36 18"/>
        <circle cx="18" cy="22" r="2"/>
        <circle cx="30" cy="22" r="2"/>
    </g>
    <g stroke="url(#g)" stroke-width="1.5" stroke-linecap="round" stroke-linejoin="round">
<ellipse cx="24" cy="24" rx="12" ry="8"/>
        <path d="M12 24 Q24 10 36 24"/>
        <path d="M12 18 Q24 4 36 18"/>
        <circle cx="18" cy="22" r="2"/>
        <circle cx="30" cy="22" r="2"/>
    </g>
  </g>
</svg>