<svg xmlns="http://www.w3.org/2000/svg" viewBox="0 0 48 48">
  <defs>
    <linearGradient id="g" x1="0%" y1="0%" x2="100%" y2="100%">
      <stop offset="0%" stop-color="#a3a3c9"/>
      <stop offset="100%" stop-color="#0c0c21"/>
    </linearGradient>
    <filter id="shadow" x="-30%" y="-30%" width="160%" height="160%">
      <feDropShadow dx="2.5" dy="3.5" stdDeviation="3" flood-color="#1a1a2e" flood-opacity="0.45"/>
    </filter>
  </defs>
  <g filter="url(#shadow)" fill="none">
    <g stroke="#060610" stroke-width="4.5" stroke-linecap="round" stroke-linejoin="round" transform="translate(2,2)">
    <ellipse cx="24" cy="22" rx="8" ry="6"/>
    <circle cx="24" cy="14" r="4.5"/>
    <circle cx="22" cy="12" r="1.5"/>
    <path d="M18 20 Q12 14 8 18 Q12 22 18 22"/>
    <path d="M24 22 L24 44 M24 30 L20 30 M24 34 L20 34"/>
    </g>
    <g stroke="#0c0c21" stroke-width="3" stroke-linecap="round" stroke-linejoin="round" transform="translate(1,1)">
    <ellipse cx="24" cy="22" rx="8" ry="6"/>
    <circle cx="24" cy="14" r="4.5"/>
    <circle cx="22" cy="12" r="1.5"/>
    <path d="M18 20 Q12 14 8 18 Q12 22 18 22"/>
    <path d="M24 22 L24 44 M24 30 L20 30 M24 34 L20 34"/>
    </g>
    <g stroke="url(#g)" stroke-width="1.5" stroke-linecap="round" stroke-linejoin="round">
    <ellipse cx="24" cy="22" rx="8" ry="6"/>
    <circle cx="24" cy="14" r="4.5"/>
    <circle cx="22" cy="12" r="1.5"/>
    <path d="M18 20 Q12 14 8 18 Q12 22 18 22"/>
    <path d="M24 22 L24 44 M24 30 L20 30 M24 34 L20 34"/>
    </g>
  </g>
</svg>