<svg xmlns="http://www.w3.org/2000/svg" viewBox="0 0 48 48">
  <defs>
    <linearGradient id="g" x1="0%" y1="0%" x2="100%" y2="100%">
      <stop offset="0%" stop-color="#a1c7d2"/>
      <stop offset="100%" stop-color="#0c2026"/>
    </linearGradient>
    <filter id="shadow" x="-30%" y="-30%" width="160%" height="160%">
      <feDropShadow dx="2.5" dy="3.5" stdDeviation="3" flood-color="#1a1a2e" flood-opacity="0.45"/>
    </filter>
  </defs>
  <g filter="url(#shadow)" fill="none">
    <g stroke="#061013" stroke-width="4.5" stroke-linecap="round" stroke-linejoin="round" transform="translate(2,2)">
    <ellipse cx="24" cy="26" rx="12" ry="9"/>
    <ellipse cx="24" cy="18" rx="6" ry="5"/>
    <circle cx="20" cy="16" r="2"/>
    <circle cx="28" cy="16" r="2"/>
    <ellipse cx="36" cy="28" rx="4" ry="3"/>
    <path d="M14 38 L14 44 L34 44 L34 38"/>
    <circle cx="24" cy="26" r="3" fill="currentColor"/>
    </g>
    <g stroke="#0c2026" stroke-width="3" stroke-linecap="round" stroke-linejoin="round" transform="translate(1,1)">
    <ellipse cx="24" cy="26" rx="12" ry="9"/>
    <ellipse cx="24" cy="18" rx="6" ry="5"/>
    <circle cx="20" cy="16" r="2"/>
    <circle cx="28" cy="16" r="2"/>
    <ellipse cx="36" cy="28" rx="4" ry="3"/>
    <path d="M14 38 L14 44 L34 44 L34 38"/>
    <circle cx="24" cy="26" r="3" fill="currentColor"/>
    </g>
    <g stroke="url(#g)" stroke-width="1.5" stroke-linecap="round" stroke-linejoin="round">
    <ellipse cx="24" cy="26" rx="12" ry="9"/>
    <ellipse cx="24" cy="18" rx="6" ry="5"/>
    <circle cx="20" cy="16" r="2"/>
    <circle cx="28" cy="16" r="2"/>
    <ellipse cx="36" cy="28" rx="4" ry="3"/>
    <path d="M14 38 L14 44 L34 44 L34 38"/>
    <circle cx="24" cy="26" r="3" fill="currentColor"/>
    </g>
  </g>
</svg>