<svg xmlns="http://www.w3.org/2000/svg" viewBox="0 0 48 48">
  <defs>
    <linearGradient id="g" x1="0%" y1="0%" x2="100%" y2="100%">
      <stop offset="0%" stop-color="#b7e5cf"/>
      <stop offset="100%" stop-color="#173125"/>
    </linearGradient>
    <filter id="shadow" x="-30%" y="-30%" width="160%" height="160%">
      <feDropShadow dx="2.5" dy="3.5" stdDeviation="3" flood-color="#1a1a2e" flood-opacity="0.45"/>
    </filter>
  </defs>
  <g filter="url(#shadow)" fill="none">
    <g stroke="#0b1812" stroke-width="4.5" stroke-linecap="round" stroke-linejoin="round" transform="translate(2,2)">
    <rect x="8" y="14" width="32" height="20" rx="8"/>
    <rect x="12" y="18" width="24" height="12" rx="4"/>
    <line x1="20" y1="18" x2="20" y2="30 M28 18 L28 30"/>
    </g>
    <g stroke="#173125" stroke-width="3" stroke-linecap="round" stroke-linejoin="round" transform="translate(1,1)">
    <rect x="8" y="14" width="32" height="20" rx="8"/>
    <rect x="12" y="18" width="24" height="12" rx="4"/>
    <line x1="20" y1="18" x2="20" y2="30 M28 18 L28 30"/>
    </g>
    <g stroke="url(#g)" stroke-width="1.5" stroke-linecap="round" stroke-linejoin="round">
    <rect x="8" y="14" width="32" height="20" rx="8"/>
    <rect x="12" y="18" width="24" height="12" rx="4"/>
    <line x1="20" y1="18" x2="20" y2="30 M28 18 L28 30"/>
    </g>
  </g>
</svg>