<svg xmlns="http://www.w3.org/2000/svg" viewBox="0 0 48 48">
  <defs>
    <linearGradient id="g" x1="0%" y1="0%" x2="100%" y2="100%">
      <stop offset="0%" stop-color="#b4a6c3"/>
      <stop offset="100%" stop-color="#160e1e"/>
    </linearGradient>
    <filter id="shadow" x="-30%" y="-30%" width="160%" height="160%">
      <feDropShadow dx="2.5" dy="3.5" stdDeviation="3" flood-color="#1a1a2e" flood-opacity="0.45"/>
    </filter>
  </defs>
  <g filter="url(#shadow)" fill="none">
    <g stroke="#0b070f" stroke-width="4.5" stroke-linecap="round" stroke-linejoin="round" transform="translate(2,2)">
    <ellipse cx="24" cy="24" rx="12" ry="16"/>
    <rect x="20" y="4" width="8" height="6" rx="2"/>
    <line x1="24" y1="10" x2="24" y2="12"/>
    <line x1="12" y1="22" x2="36" y2="22 M12 30 L36 30"/>
    <circle cx="18" cy="24" r="2" fill="currentColor"/>
    <circle cx="30" cy="24" r="2" fill="currentColor"/>
    </g>
    <g stroke="#160e1e" stroke-width="3" stroke-linecap="round" stroke-linejoin="round" transform="translate(1,1)">
    <ellipse cx="24" cy="24" rx="12" ry="16"/>
    <rect x="20" y="4" width="8" height="6" rx="2"/>
    <line x1="24" y1="10" x2="24" y2="12"/>
    <line x1="12" y1="22" x2="36" y2="22 M12 30 L36 30"/>
    <circle cx="18" cy="24" r="2" fill="currentColor"/>
    <circle cx="30" cy="24" r="2" fill="currentColor"/>
    </g>
    <g stroke="url(#g)" stroke-width="1.5" stroke-linecap="round" stroke-linejoin="round">
    <ellipse cx="24" cy="24" rx="12" ry="16"/>
    <rect x="20" y="4" width="8" height="6" rx="2"/>
    <line x1="24" y1="10" x2="24" y2="12"/>
    <line x1="12" y1="22" x2="36" y2="22 M12 30 L36 30"/>
    <circle cx="18" cy="24" r="2" fill="currentColor"/>
    <circle cx="30" cy="24" r="2" fill="currentColor"/>
    </g>
  </g>
</svg>