<svg xmlns="http://www.w3.org/2000/svg" viewBox="0 0 48 48">
  <defs>
    <linearGradient id="g" x1="0%" y1="0%" x2="100%" y2="100%">
      <stop offset="0%" stop-color="#9fc4a4"/>
      <stop offset="100%" stop-color="#17441d"/>
    </linearGradient>
    <filter id="sh" x="-30%" y="-30%" width="160%" height="160%">
      <feDropShadow dx="2.5" dy="3.5" stdDeviation="3" flood-color="#1a1a2e" flood-opacity="0.45"/>
    </filter>
  </defs>
  <g filter="url(#sh)" fill="none">
    <g stroke="#0a1f0d" stroke-width="4.5" stroke-linecap="round" stroke-linejoin="round" transform="translate(2,2)">
<rect x="8" y="6" width="32" height="36" rx="3"/>
        <rect x="12" y="10" width="24" height="4" rx="1"/>
        <rect x="20" y="22" width="8" height="14" rx="2"/>
        <circle cx="18" cy="20" r="2"/>
        <circle cx="30" cy="20" r="2"/>
    </g>
    <g stroke="#17441d" stroke-width="3" stroke-linecap="round" stroke-linejoin="round" transform="translate(1,1)">
<rect x="8" y="6" width="32" height="36" rx="3"/>
        <rect x="12" y="10" width="24" height="4" rx="1"/>
        <rect x="20" y="22" width="8" height="14" rx="2"/>
        <circle cx="18" cy="20" r="2"/>
        <circle cx="30" cy="20" r="2"/>
    </g>
    <g stroke="url(#g)" stroke-width="1.5" stroke-linecap="round" stroke-linejoin="round">
<rect x="8" y="6" width="32" height="36" rx="3"/>
        <rect x="12" y="10" width="24" height="4" rx="1"/>
        <rect x="20" y="22" width="8" height="14" rx="2"/>
        <circle cx="18" cy="20" r="2"/>
        <circle cx="30" cy="20" r="2"/>
    </g>
  </g>
</svg>