<svg xmlns="http://www.w3.org/2000/svg" viewBox="0 0 48 48">
  <defs>
    <linearGradient id="g" x1="0%" y1="0%" x2="100%" y2="100%">
      <stop offset="0%" stop-color="#bec6d5"/>
      <stop offset="100%" stop-color="#1c2028"/>
    </linearGradient>
    <filter id="shadow" x="-30%" y="-30%" width="160%" height="160%">
      <feDropShadow dx="2.5" dy="3.5" stdDeviation="3" flood-color="#1a1a2e" flood-opacity="0.45"/>
    </filter>
  </defs>
  <g filter="url(#shadow)" fill="none">
    <g stroke="#0e1014" stroke-width="4.5" stroke-linecap="round" stroke-linejoin="round" transform="translate(2,2)">
    <path d="M14 16 L12 40 L36 40 L34 16 Z"/>
    <ellipse cx="24" cy="16" rx="10" ry="4"/>
    <path d="M34 20 L40 18 L42 24 L34 26"/>
    <ellipse cx="24" cy="40" rx="12" ry="3"/>
    </g>
    <g stroke="#1c2028" stroke-width="3" stroke-linecap="round" stroke-linejoin="round" transform="translate(1,1)">
    <path d="M14 16 L12 40 L36 40 L34 16 Z"/>
    <ellipse cx="24" cy="16" rx="10" ry="4"/>
    <path d="M34 20 L40 18 L42 24 L34 26"/>
    <ellipse cx="24" cy="40" rx="12" ry="3"/>
    </g>
    <g stroke="url(#g)" stroke-width="1.5" stroke-linecap="round" stroke-linejoin="round">
    <path d="M14 16 L12 40 L36 40 L34 16 Z"/>
    <ellipse cx="24" cy="16" rx="10" ry="4"/>
    <path d="M34 20 L40 18 L42 24 L34 26"/>
    <ellipse cx="24" cy="40" rx="12" ry="3"/>
    </g>
  </g>
</svg>