<svg xmlns="http://www.w3.org/2000/svg" viewBox="0 0 48 48">
  <defs>
    <linearGradient id="g" x1="0%" y1="0%" x2="100%" y2="100%">
      <stop offset="0%" stop-color="#b9cfd4"/>
      <stop offset="100%" stop-color="#375258"/>
    </linearGradient>
    <filter id="sh" x="-30%" y="-30%" width="160%" height="160%">
      <feDropShadow dx="2.5" dy="3.5" stdDeviation="3" flood-color="#1a1a2e" flood-opacity="0.45"/>
    </filter>
  </defs>
  <g filter="url(#sh)" fill="none">
    <g stroke="#192528" stroke-width="4.5" stroke-linecap="round" stroke-linejoin="round" transform="translate(2,2)">
<path d="M12 30 Q12 10 24 10 Q36 10 36 30 L36 38 L12 38 Z"/><path d="M36 18 L42 14 L42 22 Z"/><circle cx="24" cy="22" r="4"/><circle cx="24" cy="22" r="2"/>
    </g>
    <g stroke="#375258" stroke-width="3" stroke-linecap="round" stroke-linejoin="round" transform="translate(1,1)">
<path d="M12 30 Q12 10 24 10 Q36 10 36 30 L36 38 L12 38 Z"/><path d="M36 18 L42 14 L42 22 Z"/><circle cx="24" cy="22" r="4"/><circle cx="24" cy="22" r="2"/>
    </g>
    <g stroke="url(#g)" stroke-width="1.5" stroke-linecap="round" stroke-linejoin="round">
<path d="M12 30 Q12 10 24 10 Q36 10 36 30 L36 38 L12 38 Z"/><path d="M36 18 L42 14 L42 22 Z"/><circle cx="24" cy="22" r="4"/><circle cx="24" cy="22" r="2"/>
    </g>
  </g>
</svg>