<svg xmlns="http://www.w3.org/2000/svg" viewBox="0 0 48 48">
  <defs>
    <linearGradient id="g" x1="0%" y1="0%" x2="100%" y2="100%">
      <stop offset="0%" stop-color="#a5a9c9"/>
      <stop offset="100%" stop-color="#1e244a"/>
    </linearGradient>
    <filter id="sh" x="-30%" y="-30%" width="160%" height="160%">
      <feDropShadow dx="2.5" dy="3.5" stdDeviation="3" flood-color="#1a1a2e" flood-opacity="0.45"/>
    </filter>
  </defs>
  <g filter="url(#sh)" fill="none">
    <g stroke="#0d1021" stroke-width="4.5" stroke-linecap="round" stroke-linejoin="round" transform="translate(2,2)">
<polygon points="8,36 24,6 40,36"/>
        <line x1="14" y1="30" x2="24" y2="12"/>
        <line x1="24" y1="12" x2="32" y2="30"/>
        <line x1="14" y1="30" x2="32" y2="30"/>
        <circle cx="18" cy="28" r="2"/>
        <circle cx="26" cy="24" r="2"/>
        <circle cx="22" cy="20" r="2"/>
    </g>
    <g stroke="#1e244a" stroke-width="3" stroke-linecap="round" stroke-linejoin="round" transform="translate(1,1)">
<polygon points="8,36 24,6 40,36"/>
        <line x1="14" y1="30" x2="24" y2="12"/>
        <line x1="24" y1="12" x2="32" y2="30"/>
        <line x1="14" y1="30" x2="32" y2="30"/>
        <circle cx="18" cy="28" r="2"/>
        <circle cx="26" cy="24" r="2"/>
        <circle cx="22" cy="20" r="2"/>
    </g>
    <g stroke="url(#g)" stroke-width="1.5" stroke-linecap="round" stroke-linejoin="round">
<polygon points="8,36 24,6 40,36"/>
        <line x1="14" y1="30" x2="24" y2="12"/>
        <line x1="24" y1="12" x2="32" y2="30"/>
        <line x1="14" y1="30" x2="32" y2="30"/>
        <circle cx="18" cy="28" r="2"/>
        <circle cx="26" cy="24" r="2"/>
        <circle cx="22" cy="20" r="2"/>
    </g>
  </g>
</svg>