<svg xmlns="http://www.w3.org/2000/svg" viewBox="0 0 48 48">
  <defs>
    <linearGradient id="g" x1="0%" y1="0%" x2="100%" y2="100%">
      <stop offset="0%" stop-color="#dad2b9"/>
      <stop offset="100%" stop-color="#2b2619"/>
    </linearGradient>
    <filter id="shadow" x="-30%" y="-30%" width="160%" height="160%">
      <feDropShadow dx="2.5" dy="3.5" stdDeviation="3" flood-color="#1a1a2e" flood-opacity="0.45"/>
    </filter>
  </defs>
  <g filter="url(#shadow)" fill="none">
    <g stroke="#15130c" stroke-width="4.5" stroke-linecap="round" stroke-linejoin="round" transform="translate(2,2)">
    <rect x="4" y="8" width="40" height="34" rx="3"/>
    <rect x="8" y="12" width="32" height="26" rx="2"/>
    <line x1="12" y1="18" x2="36" y2="18 M12 26 L36 26 M12 34 L36 34"/>
    </g>
    <g stroke="#2b2619" stroke-width="3" stroke-linecap="round" stroke-linejoin="round" transform="translate(1,1)">
    <rect x="4" y="8" width="40" height="34" rx="3"/>
    <rect x="8" y="12" width="32" height="26" rx="2"/>
    <line x1="12" y1="18" x2="36" y2="18 M12 26 L36 26 M12 34 L36 34"/>
    </g>
    <g stroke="url(#g)" stroke-width="1.5" stroke-linecap="round" stroke-linejoin="round">
    <rect x="4" y="8" width="40" height="34" rx="3"/>
    <rect x="8" y="12" width="32" height="26" rx="2"/>
    <line x1="12" y1="18" x2="36" y2="18 M12 26 L36 26 M12 34 L36 34"/>
    </g>
  </g>
</svg>