<svg xmlns="http://www.w3.org/2000/svg" viewBox="0 0 48 48">
  <defs>
    <linearGradient id="g" x1="0%" y1="0%" x2="100%" y2="100%">
      <stop offset="0%" stop-color="#ae9cc0"/>
      <stop offset="100%" stop-color="#291340"/>
    </linearGradient>
    <filter id="sh" x="-30%" y="-30%" width="160%" height="160%">
      <feDropShadow dx="2.5" dy="3.5" stdDeviation="3" flood-color="#1a1a2e" flood-opacity="0.45"/>
    </filter>
  </defs>
  <g filter="url(#sh)" fill="none">
    <g stroke="#13091d" stroke-width="4.5" stroke-linecap="round" stroke-linejoin="round" transform="translate(2,2)">
<path d="M14 10 L24 24 L34 10"/><circle cx="24" cy="24" r="3"/><line x1="14" y1="10" x2="10" y2="4"/><line x1="34" y1="10" x2="38" y2="4"/><line x1="10" y1="4" x2="12" y2="0"/><line x1="38" y1="4" x2="36" y2="0"/>
    </g>
    <g stroke="#291340" stroke-width="3" stroke-linecap="round" stroke-linejoin="round" transform="translate(1,1)">
<path d="M14 10 L24 24 L34 10"/><circle cx="24" cy="24" r="3"/><line x1="14" y1="10" x2="10" y2="4"/><line x1="34" y1="10" x2="38" y2="4"/><line x1="10" y1="4" x2="12" y2="0"/><line x1="38" y1="4" x2="36" y2="0"/>
    </g>
    <g stroke="url(#g)" stroke-width="1.5" stroke-linecap="round" stroke-linejoin="round">
<path d="M14 10 L24 24 L34 10"/><circle cx="24" cy="24" r="3"/><line x1="14" y1="10" x2="10" y2="4"/><line x1="34" y1="10" x2="38" y2="4"/><line x1="10" y1="4" x2="12" y2="0"/><line x1="38" y1="4" x2="36" y2="0"/>
    </g>
  </g>
</svg>