<svg xmlns="http://www.w3.org/2000/svg" viewBox="0 0 48 48">
  <defs>
    <linearGradient id="g" x1="0%" y1="0%" x2="100%" y2="100%">
      <stop offset="0%" stop-color="#c1b6a5"/>
      <stop offset="100%" stop-color="#1d170e"/>
    </linearGradient>
    <filter id="shadow" x="-30%" y="-30%" width="160%" height="160%">
      <feDropShadow dx="2.5" dy="3.5" stdDeviation="3" flood-color="#1a1a2e" flood-opacity="0.45"/>
    </filter>
  </defs>
  <g filter="url(#shadow)" fill="none">
    <g stroke="#0e0b07" stroke-width="4.5" stroke-linecap="round" stroke-linejoin="round" transform="translate(2,2)">
    <rect x="14" y="6" width="8" height="20" rx="3"/>
    <rect x="26" y="6" width="8" height="20" rx="3"/>
    <circle cx="20" cy="18" r="2" fill="currentColor"/>
    <circle cx="28" cy="18" r="2" fill="currentColor"/>
    <line x1="18" y1="6" x2="18" y2="2 M30 6 L30 2"/>
    <path d="M14 26 L12 44 M34 26 L36 44"/>
    </g>
    <g stroke="#1d170e" stroke-width="3" stroke-linecap="round" stroke-linejoin="round" transform="translate(1,1)">
    <rect x="14" y="6" width="8" height="20" rx="3"/>
    <rect x="26" y="6" width="8" height="20" rx="3"/>
    <circle cx="20" cy="18" r="2" fill="currentColor"/>
    <circle cx="28" cy="18" r="2" fill="currentColor"/>
    <line x1="18" y1="6" x2="18" y2="2 M30 6 L30 2"/>
    <path d="M14 26 L12 44 M34 26 L36 44"/>
    </g>
    <g stroke="url(#g)" stroke-width="1.5" stroke-linecap="round" stroke-linejoin="round">
    <rect x="14" y="6" width="8" height="20" rx="3"/>
    <rect x="26" y="6" width="8" height="20" rx="3"/>
    <circle cx="20" cy="18" r="2" fill="currentColor"/>
    <circle cx="28" cy="18" r="2" fill="currentColor"/>
    <line x1="18" y1="6" x2="18" y2="2 M30 6 L30 2"/>
    <path d="M14 26 L12 44 M34 26 L36 44"/>
    </g>
  </g>
</svg>