<svg xmlns="http://www.w3.org/2000/svg" viewBox="0 0 48 48">
  <defs>
    <linearGradient id="g" x1="0%" y1="0%" x2="100%" y2="100%">
      <stop offset="0%" stop-color="#b8d1bb"/>
      <stop offset="100%" stop-color="#18261a"/>
    </linearGradient>
    <filter id="shadow" x="-30%" y="-30%" width="160%" height="160%">
      <feDropShadow dx="2.5" dy="3.5" stdDeviation="3" flood-color="#1a1a2e" flood-opacity="0.45"/>
    </filter>
  </defs>
  <g filter="url(#shadow)" fill="none">
    <g stroke="#0c130d" stroke-width="4.5" stroke-linecap="round" stroke-linejoin="round" transform="translate(2,2)">
    <rect x="4" y="28" width="20" height="10" rx="3"/>
    <line x1="24" y1="33" x2="44" y2="33"/>
    <circle cx="40" cy="33" r="4"/>
    <polygon points="4,28 4,14 10,22"/>
    </g>
    <g stroke="#18261a" stroke-width="3" stroke-linecap="round" stroke-linejoin="round" transform="translate(1,1)">
    <rect x="4" y="28" width="20" height="10" rx="3"/>
    <line x1="24" y1="33" x2="44" y2="33"/>
    <circle cx="40" cy="33" r="4"/>
    <polygon points="4,28 4,14 10,22"/>
    </g>
    <g stroke="url(#g)" stroke-width="1.5" stroke-linecap="round" stroke-linejoin="round">
    <rect x="4" y="28" width="20" height="10" rx="3"/>
    <line x1="24" y1="33" x2="44" y2="33"/>
    <circle cx="40" cy="33" r="4"/>
    <polygon points="4,28 4,14 10,22"/>
    </g>
  </g>
</svg>