<svg xmlns="http://www.w3.org/2000/svg" viewBox="0 0 48 48">
  <defs>
    <linearGradient id="g" x1="0%" y1="0%" x2="100%" y2="100%">
      <stop offset="0%" stop-color="#d6d5a2"/>
      <stop offset="100%" stop-color="#29280c"/>
    </linearGradient>
    <filter id="shadow" x="-30%" y="-30%" width="160%" height="160%">
      <feDropShadow dx="2.5" dy="3.5" stdDeviation="3" flood-color="#1a1a2e" flood-opacity="0.45"/>
    </filter>
  </defs>
  <g filter="url(#shadow)" fill="none">
    <g stroke="#141406" stroke-width="4.5" stroke-linecap="round" stroke-linejoin="round" transform="translate(2,2)">
    <ellipse cx="24" cy="26" rx="9" ry="11"/>
    <path d="M24 16 Q24 8 22 4 Q24 8 26 4 Q24 8 24 16"/>
    <line x1="24" y1="16" x2="24" y2="8"/>
    </g>
    <g stroke="#29280c" stroke-width="3" stroke-linecap="round" stroke-linejoin="round" transform="translate(1,1)">
    <ellipse cx="24" cy="26" rx="9" ry="11"/>
    <path d="M24 16 Q24 8 22 4 Q24 8 26 4 Q24 8 24 16"/>
    <line x1="24" y1="16" x2="24" y2="8"/>
    </g>
    <g stroke="url(#g)" stroke-width="1.5" stroke-linecap="round" stroke-linejoin="round">
    <ellipse cx="24" cy="26" rx="9" ry="11"/>
    <path d="M24 16 Q24 8 22 4 Q24 8 26 4 Q24 8 24 16"/>
    <line x1="24" y1="16" x2="24" y2="8"/>
    </g>
  </g>
</svg>