<svg xmlns="http://www.w3.org/2000/svg" viewBox="0 0 48 48">
  <defs>
    <linearGradient id="g" x1="0%" y1="0%" x2="100%" y2="100%">
      <stop offset="0%" stop-color="#c4ccaa"/>
      <stop offset="100%" stop-color="#444e24"/>
    </linearGradient>
    <filter id="sh" x="-30%" y="-30%" width="160%" height="160%">
      <feDropShadow dx="2.5" dy="3.5" stdDeviation="3" flood-color="#1a1a2e" flood-opacity="0.45"/>
    </filter>
  </defs>
  <g filter="url(#sh)" fill="none">
    <g stroke="#1f2310" stroke-width="4.5" stroke-linecap="round" stroke-linejoin="round" transform="translate(2,2)">
<path d="M8 30 L14 42 L34 42 L40 30 Z"/>
        <circle cx="18" cy="16" r="5"/>
        <circle cx="26" cy="10" r="6"/>
        <circle cx="34" cy="16" r="5"/>
        <circle cx="22" cy="22" r="4"/>
        <circle cx="30" cy="22" r="4"/>
    </g>
    <g stroke="#444e24" stroke-width="3" stroke-linecap="round" stroke-linejoin="round" transform="translate(1,1)">
<path d="M8 30 L14 42 L34 42 L40 30 Z"/>
        <circle cx="18" cy="16" r="5"/>
        <circle cx="26" cy="10" r="6"/>
        <circle cx="34" cy="16" r="5"/>
        <circle cx="22" cy="22" r="4"/>
        <circle cx="30" cy="22" r="4"/>
    </g>
    <g stroke="url(#g)" stroke-width="1.5" stroke-linecap="round" stroke-linejoin="round">
<path d="M8 30 L14 42 L34 42 L40 30 Z"/>
        <circle cx="18" cy="16" r="5"/>
        <circle cx="26" cy="10" r="6"/>
        <circle cx="34" cy="16" r="5"/>
        <circle cx="22" cy="22" r="4"/>
        <circle cx="30" cy="22" r="4"/>
    </g>
  </g>
</svg>