<svg xmlns="http://www.w3.org/2000/svg" viewBox="0 0 48 48">
  <defs>
    <linearGradient id="g" x1="0%" y1="0%" x2="100%" y2="100%">
      <stop offset="0%" stop-color="#bac5d7"/>
      <stop offset="100%" stop-color="#191f2a"/>
    </linearGradient>
    <filter id="shadow" x="-30%" y="-30%" width="160%" height="160%">
      <feDropShadow dx="2.5" dy="3.5" stdDeviation="3" flood-color="#1a1a2e" flood-opacity="0.45"/>
    </filter>
  </defs>
  <g filter="url(#shadow)" fill="none">
    <g stroke="#0c0f15" stroke-width="4.5" stroke-linecap="round" stroke-linejoin="round" transform="translate(2,2)">
    <rect x="8" y="6" width="32" height="22" rx="4"/>
    <path d="M8 28 L16 38 L40 38 L32 28 Z"/>
    <line x1="8" y1="6" x2="8" y2="28 M40 6 L40 28"/>
    <line x1="12" y1="14" x2="36" y2="14 M12 20 L36 20"/>
    </g>
    <g stroke="#191f2a" stroke-width="3" stroke-linecap="round" stroke-linejoin="round" transform="translate(1,1)">
    <rect x="8" y="6" width="32" height="22" rx="4"/>
    <path d="M8 28 L16 38 L40 38 L32 28 Z"/>
    <line x1="8" y1="6" x2="8" y2="28 M40 6 L40 28"/>
    <line x1="12" y1="14" x2="36" y2="14 M12 20 L36 20"/>
    </g>
    <g stroke="url(#g)" stroke-width="1.5" stroke-linecap="round" stroke-linejoin="round">
    <rect x="8" y="6" width="32" height="22" rx="4"/>
    <path d="M8 28 L16 38 L40 38 L32 28 Z"/>
    <line x1="8" y1="6" x2="8" y2="28 M40 6 L40 28"/>
    <line x1="12" y1="14" x2="36" y2="14 M12 20 L36 20"/>
    </g>
  </g>
</svg>