<svg xmlns="http://www.w3.org/2000/svg" viewBox="0 0 48 48">
  <defs>
    <linearGradient id="g" x1="0%" y1="0%" x2="100%" y2="100%">
      <stop offset="0%" stop-color="#becdd5"/>
      <stop offset="100%" stop-color="#1c2428"/>
    </linearGradient>
    <filter id="shadow" x="-30%" y="-30%" width="160%" height="160%">
      <feDropShadow dx="2.5" dy="3.5" stdDeviation="3" flood-color="#1a1a2e" flood-opacity="0.45"/>
    </filter>
  </defs>
  <g filter="url(#shadow)" fill="none">
    <g stroke="#0e1214" stroke-width="4.5" stroke-linecap="round" stroke-linejoin="round" transform="translate(2,2)">
    <ellipse cx="24" cy="24" rx="12" ry="9"/>
    <path d="M12 22 L8 4 M16 20 L12 2 M20 20 L18 2 M24 20 L24 2 M28 20 L30 2 M32 20 L36 4"/>
    <circle cx="14" cy="26" r="2"/>
    <circle cx="22" cy="28" r="1.5"/>
    <circle cx="30" cy="26" r="2"/>
    </g>
    <g stroke="#1c2428" stroke-width="3" stroke-linecap="round" stroke-linejoin="round" transform="translate(1,1)">
    <ellipse cx="24" cy="24" rx="12" ry="9"/>
    <path d="M12 22 L8 4 M16 20 L12 2 M20 20 L18 2 M24 20 L24 2 M28 20 L30 2 M32 20 L36 4"/>
    <circle cx="14" cy="26" r="2"/>
    <circle cx="22" cy="28" r="1.5"/>
    <circle cx="30" cy="26" r="2"/>
    </g>
    <g stroke="url(#g)" stroke-width="1.5" stroke-linecap="round" stroke-linejoin="round">
    <ellipse cx="24" cy="24" rx="12" ry="9"/>
    <path d="M12 22 L8 4 M16 20 L12 2 M20 20 L18 2 M24 20 L24 2 M28 20 L30 2 M32 20 L36 4"/>
    <circle cx="14" cy="26" r="2"/>
    <circle cx="22" cy="28" r="1.5"/>
    <circle cx="30" cy="26" r="2"/>
    </g>
  </g>
</svg>