<svg xmlns="http://www.w3.org/2000/svg" viewBox="0 0 48 48">
  <defs>
    <linearGradient id="g" x1="0%" y1="0%" x2="100%" y2="100%">
      <stop offset="0%" stop-color="#e5c9d2"/>
      <stop offset="100%" stop-color="#312127"/>
    </linearGradient>
    <filter id="shadow" x="-30%" y="-30%" width="160%" height="160%">
      <feDropShadow dx="2.5" dy="3.5" stdDeviation="3" flood-color="#1a1a2e" flood-opacity="0.45"/>
    </filter>
  </defs>
  <g filter="url(#shadow)" fill="none">
    <g stroke="#181013" stroke-width="4.5" stroke-linecap="round" stroke-linejoin="round" transform="translate(2,2)">
    <rect x="8" y="18" width="32" height="24" rx="4"/>
    <rect x="14" y="14" width="20" height="6" rx="2"/>
    <path d="M14 18 Q14 4 24 4 Q34 4 34 18"/>
    <line x1="8" y1="26" x2="40" y2="26 M8 34 L40 34"/>
    </g>
    <g stroke="#312127" stroke-width="3" stroke-linecap="round" stroke-linejoin="round" transform="translate(1,1)">
    <rect x="8" y="18" width="32" height="24" rx="4"/>
    <rect x="14" y="14" width="20" height="6" rx="2"/>
    <path d="M14 18 Q14 4 24 4 Q34 4 34 18"/>
    <line x1="8" y1="26" x2="40" y2="26 M8 34 L40 34"/>
    </g>
    <g stroke="url(#g)" stroke-width="1.5" stroke-linecap="round" stroke-linejoin="round">
    <rect x="8" y="18" width="32" height="24" rx="4"/>
    <rect x="14" y="14" width="20" height="6" rx="2"/>
    <path d="M14 18 Q14 4 24 4 Q34 4 34 18"/>
    <line x1="8" y1="26" x2="40" y2="26 M8 34 L40 34"/>
    </g>
  </g>
</svg>