<svg xmlns="http://www.w3.org/2000/svg" viewBox="0 0 48 48">
  <defs>
    <linearGradient id="g" x1="0%" y1="0%" x2="100%" y2="100%">
      <stop offset="0%" stop-color="#9dc5b3"/>
      <stop offset="100%" stop-color="#091f16"/>
    </linearGradient>
    <filter id="shadow" x="-30%" y="-30%" width="160%" height="160%">
      <feDropShadow dx="2.5" dy="3.5" stdDeviation="3" flood-color="#1a1a2e" flood-opacity="0.45"/>
    </filter>
  </defs>
  <g filter="url(#shadow)" fill="none">
    <g stroke="#040f0b" stroke-width="4.5" stroke-linecap="round" stroke-linejoin="round" transform="translate(2,2)">
    <ellipse cx="24" cy="22" rx="10" ry="8"/>
    <rect x="16" y="28" width="16" height="12" rx="4"/>
    <line x1="16" y1="34" x2="32" y2="34"/>
    <ellipse cx="24" cy="20" rx="4" ry="2" fill="currentColor"/>
    </g>
    <g stroke="#091f16" stroke-width="3" stroke-linecap="round" stroke-linejoin="round" transform="translate(1,1)">
    <ellipse cx="24" cy="22" rx="10" ry="8"/>
    <rect x="16" y="28" width="16" height="12" rx="4"/>
    <line x1="16" y1="34" x2="32" y2="34"/>
    <ellipse cx="24" cy="20" rx="4" ry="2" fill="currentColor"/>
    </g>
    <g stroke="url(#g)" stroke-width="1.5" stroke-linecap="round" stroke-linejoin="round">
    <ellipse cx="24" cy="22" rx="10" ry="8"/>
    <rect x="16" y="28" width="16" height="12" rx="4"/>
    <line x1="16" y1="34" x2="32" y2="34"/>
    <ellipse cx="24" cy="20" rx="4" ry="2" fill="currentColor"/>
    </g>
  </g>
</svg>