<svg xmlns="http://www.w3.org/2000/svg" viewBox="0 0 48 48">
  <defs>
    <linearGradient id="g" x1="0%" y1="0%" x2="100%" y2="100%">
      <stop offset="0%" stop-color="#aec19d"/>
      <stop offset="100%" stop-color="#131d09"/>
    </linearGradient>
    <filter id="shadow" x="-30%" y="-30%" width="160%" height="160%">
      <feDropShadow dx="2.5" dy="3.5" stdDeviation="3" flood-color="#1a1a2e" flood-opacity="0.45"/>
    </filter>
  </defs>
  <g filter="url(#shadow)" fill="none">
    <g stroke="#090e04" stroke-width="4.5" stroke-linecap="round" stroke-linejoin="round" transform="translate(2,2)">
    <rect x="12" y="6" width="24" height="36" rx="6"/>
    <circle cx="24" cy="12" r="3" fill="currentColor"/>
    <circle cx="24" cy="24" r="8"/>
    <rect x="18" y="34" width="12" height="4" rx="2"/>
    <rect x="18" y="34" width="4" height="4" rx="1" fill="currentColor"/>
    </g>
    <g stroke="#131d09" stroke-width="3" stroke-linecap="round" stroke-linejoin="round" transform="translate(1,1)">
    <rect x="12" y="6" width="24" height="36" rx="6"/>
    <circle cx="24" cy="12" r="3" fill="currentColor"/>
    <circle cx="24" cy="24" r="8"/>
    <rect x="18" y="34" width="12" height="4" rx="2"/>
    <rect x="18" y="34" width="4" height="4" rx="1" fill="currentColor"/>
    </g>
    <g stroke="url(#g)" stroke-width="1.5" stroke-linecap="round" stroke-linejoin="round">
    <rect x="12" y="6" width="24" height="36" rx="6"/>
    <circle cx="24" cy="12" r="3" fill="currentColor"/>
    <circle cx="24" cy="24" r="8"/>
    <rect x="18" y="34" width="12" height="4" rx="2"/>
    <rect x="18" y="34" width="4" height="4" rx="1" fill="currentColor"/>
    </g>
  </g>
</svg>