<svg xmlns="http://www.w3.org/2000/svg" viewBox="0 0 48 48">
  <defs>
    <linearGradient id="g" x1="0%" y1="0%" x2="100%" y2="100%">
      <stop offset="0%" stop-color="#ddd5a5"/>
      <stop offset="100%" stop-color="#2d280e"/>
    </linearGradient>
    <filter id="shadow" x="-30%" y="-30%" width="160%" height="160%">
      <feDropShadow dx="2.5" dy="3.5" stdDeviation="3" flood-color="#1a1a2e" flood-opacity="0.45"/>
    </filter>
  </defs>
  <g filter="url(#shadow)" fill="none">
    <g stroke="#161407" stroke-width="4.5" stroke-linecap="round" stroke-linejoin="round" transform="translate(2,2)">
    <path d="M12 32 Q6 20 12 12 Q18 4 24 10 Q30 16 22 22 Q14 28 20 34 Q26 40 30 34 Q34 28 28 22" stroke-width="4" fill="none"/>
    <circle cx="24" cy="24" r="2" fill="currentColor"/>
    </g>
    <g stroke="#2d280e" stroke-width="3" stroke-linecap="round" stroke-linejoin="round" transform="translate(1,1)">
    <path d="M12 32 Q6 20 12 12 Q18 4 24 10 Q30 16 22 22 Q14 28 20 34 Q26 40 30 34 Q34 28 28 22" stroke-width="4" fill="none"/>
    <circle cx="24" cy="24" r="2" fill="currentColor"/>
    </g>
    <g stroke="url(#g)" stroke-width="1.5" stroke-linecap="round" stroke-linejoin="round">
    <path d="M12 32 Q6 20 12 12 Q18 4 24 10 Q30 16 22 22 Q14 28 20 34 Q26 40 30 34 Q34 28 28 22" stroke-width="4" fill="none"/>
    <circle cx="24" cy="24" r="2" fill="currentColor"/>
    </g>
  </g>
</svg>