<svg xmlns="http://www.w3.org/2000/svg" viewBox="0 0 48 48">
  <defs>
    <linearGradient id="g" x1="0%" y1="0%" x2="100%" y2="100%">
      <stop offset="0%" stop-color="#A1887F"/>
      <stop offset="100%" stop-color="#34231E"/>
    </linearGradient>
    <filter id="sh" x="-30%" y="-30%" width="160%" height="160%">
      <feDropShadow dx="2.5" dy="3.5" stdDeviation="3" flood-color="#1a1a2e" flood-opacity="0.45"/>
    </filter>
  </defs>
  <g filter="url(#sh)" fill="none">
    <g stroke="#1A1110" stroke-width="4.5" stroke-linecap="round" stroke-linejoin="round" transform="translate(2,2)">
    <rect x="12" y="22" width="24" height="16" rx="2"/>
        <path d="M14 22 L14 10 L34 10 L34 22"/>
        <rect x="16" y="26" width="16" height="4" rx="1"/>
    </g>
    <g stroke="#34231E" stroke-width="3" stroke-linecap="round" stroke-linejoin="round" transform="translate(1,1)">
    <rect x="12" y="22" width="24" height="16" rx="2"/>
        <path d="M14 22 L14 10 L34 10 L34 22"/>
        <rect x="16" y="26" width="16" height="4" rx="1"/>
    </g>
    <g stroke="url(#g)" stroke-width="1.5" stroke-linecap="round" stroke-linejoin="round">
    <rect x="12" y="22" width="24" height="16" rx="2"/>
        <path d="M14 22 L14 10 L34 10 L34 22"/>
        <rect x="16" y="26" width="16" height="4" rx="1"/>
    </g>
  </g>
</svg>