<svg xmlns="http://www.w3.org/2000/svg" viewBox="0 0 48 48">
  <defs>
    <linearGradient id="g" x1="0%" y1="0%" x2="100%" y2="100%">
      <stop offset="0%" stop-color="#a9e2c1"/>
      <stop offset="100%" stop-color="#102f1d"/>
    </linearGradient>
    <filter id="shadow" x="-30%" y="-30%" width="160%" height="160%">
      <feDropShadow dx="2.5" dy="3.5" stdDeviation="3" flood-color="#1a1a2e" flood-opacity="0.45"/>
    </filter>
  </defs>
  <g filter="url(#shadow)" fill="none">
    <g stroke="#08170e" stroke-width="4.5" stroke-linecap="round" stroke-linejoin="round" transform="translate(2,2)">
    <polygon points="24,4 4,40 44,40"/>
    <polygon points="24,4 24,40 44,40"/>
    <line x1="4" y1="40" x2="24" y2="40"/>
    <line x1="24" y1="20" x2="16" y2="40 M24 20 L32 40"/>
    </g>
    <g stroke="#102f1d" stroke-width="3" stroke-linecap="round" stroke-linejoin="round" transform="translate(1,1)">
    <polygon points="24,4 4,40 44,40"/>
    <polygon points="24,4 24,40 44,40"/>
    <line x1="4" y1="40" x2="24" y2="40"/>
    <line x1="24" y1="20" x2="16" y2="40 M24 20 L32 40"/>
    </g>
    <g stroke="url(#g)" stroke-width="1.5" stroke-linecap="round" stroke-linejoin="round">
    <polygon points="24,4 4,40 44,40"/>
    <polygon points="24,4 24,40 44,40"/>
    <line x1="4" y1="40" x2="24" y2="40"/>
    <line x1="24" y1="20" x2="16" y2="40 M24 20 L32 40"/>
    </g>
  </g>
</svg>