<svg xmlns="http://www.w3.org/2000/svg" viewBox="0 0 48 48">
  <defs>
    <linearGradient id="iconGrad" x1="0%" y1="0%" x2="100%" y2="100%">
      <stop offset="0%" stop-color="#C5E1A5"/>
      <stop offset="100%" stop-color="#5f7546"/>
    </linearGradient>
    <filter id="shadow" x="-30%" y="-30%" width="160%" height="160%">
      <feDropShadow dx="2.5" dy="3.5" stdDeviation="3" flood-color="#1a1a2e" flood-opacity="0.45"/>
    </filter>
  </defs>
  <g filter="url(#shadow)" fill="none">
    <g stroke="#2f3a23" stroke-width="4.5" stroke-linecap="round" stroke-linejoin="round" transform="translate(2,2)">
      <path d="M24 8l-14 6v8c0 8.4 5.6 16.2 14 19 8.4-2.8 14-10.6 14-19v-8l-14-6z"/>
    <rect x="20" y="22" width="8" height="6" rx="1.5" fill="#607D8B"/>
    <path d="M20 22v-3a4 4 0 018 0v3"/>
    </g>
    <g stroke="#5f7546" stroke-width="3" stroke-linecap="round" stroke-linejoin="round" transform="translate(1,1)">
      <path d="M24 8l-14 6v8c0 8.4 5.6 16.2 14 19 8.4-2.8 14-10.6 14-19v-8l-14-6z"/>
    <rect x="20" y="22" width="8" height="6" rx="1.5" fill="#607D8B"/>
    <path d="M20 22v-3a4 4 0 018 0v3"/>
    </g>
    <g stroke="url(#iconGrad)" stroke-width="1.5" stroke-linecap="round" stroke-linejoin="round">
      <path d="M24 8l-14 6v8c0 8.4 5.6 16.2 14 19 8.4-2.8 14-10.6 14-19v-8l-14-6z"/>
    <rect x="20" y="22" width="8" height="6" rx="1.5" fill="#607D8B"/>
    <path d="M20 22v-3a4 4 0 018 0v3"/>
    </g>
  </g>
</svg>
