<svg xmlns="http://www.w3.org/2000/svg" viewBox="0 0 48 48">
  <defs>
    <linearGradient id="g" x1="0%" y1="0%" x2="100%" y2="100%">
      <stop offset="0%" stop-color="#d7bab6"/>
      <stop offset="100%" stop-color="#5c3833"/>
    </linearGradient>
    <filter id="sh" x="-30%" y="-30%" width="160%" height="160%">
      <feDropShadow dx="2.5" dy="3.5" stdDeviation="3" flood-color="#1a1a2e" flood-opacity="0.45"/>
    </filter>
  </defs>
  <g filter="url(#sh)" fill="none">
    <g stroke="#2a1917" stroke-width="4.5" stroke-linecap="round" stroke-linejoin="round" transform="translate(2,2)">
<rect x="10" y="10" width="28" height="28" rx="4"/><rect x="14" y="14" width="20" height="20" rx="3"/><line x1="24" y1="10" x2="24" y2="6"/><line x1="24" y1="38" x2="24" y2="42"/><line x1="10" y1="24" x2="6" y2="24"/><line x1="38" y1="24" x2="42" y2="24"/><circle cx="24" cy="24" r="4"/>
    </g>
    <g stroke="#5c3833" stroke-width="3" stroke-linecap="round" stroke-linejoin="round" transform="translate(1,1)">
<rect x="10" y="10" width="28" height="28" rx="4"/><rect x="14" y="14" width="20" height="20" rx="3"/><line x1="24" y1="10" x2="24" y2="6"/><line x1="24" y1="38" x2="24" y2="42"/><line x1="10" y1="24" x2="6" y2="24"/><line x1="38" y1="24" x2="42" y2="24"/><circle cx="24" cy="24" r="4"/>
    </g>
    <g stroke="url(#g)" stroke-width="1.5" stroke-linecap="round" stroke-linejoin="round">
<rect x="10" y="10" width="28" height="28" rx="4"/><rect x="14" y="14" width="20" height="20" rx="3"/><line x1="24" y1="10" x2="24" y2="6"/><line x1="24" y1="38" x2="24" y2="42"/><line x1="10" y1="24" x2="6" y2="24"/><line x1="38" y1="24" x2="42" y2="24"/><circle cx="24" cy="24" r="4"/>
    </g>
  </g>
</svg>