<svg xmlns="http://www.w3.org/2000/svg" viewBox="0 0 48 48">
  <defs>
    <linearGradient id="g" x1="0%" y1="0%" x2="100%" y2="100%">
      <stop offset="0%" stop-color="#a3b2c5"/>
      <stop offset="100%" stop-color="#0c151f"/>
    </linearGradient>
    <filter id="shadow" x="-30%" y="-30%" width="160%" height="160%">
      <feDropShadow dx="2.5" dy="3.5" stdDeviation="3" flood-color="#1a1a2e" flood-opacity="0.45"/>
    </filter>
  </defs>
  <g filter="url(#shadow)" fill="none">
    <g stroke="#060a0f" stroke-width="4.5" stroke-linecap="round" stroke-linejoin="round" transform="translate(2,2)">
    <rect x="8" y="8" width="32" height="32" rx="4"/>
    <rect x="14" y="14" width="20" height="20" rx="4"/>
    <line x1="4" y1="24" x2="8" y2="24 M40 24 L44 24 M24 4 L24 8 M24 40 L24 44"/>
    </g>
    <g stroke="#0c151f" stroke-width="3" stroke-linecap="round" stroke-linejoin="round" transform="translate(1,1)">
    <rect x="8" y="8" width="32" height="32" rx="4"/>
    <rect x="14" y="14" width="20" height="20" rx="4"/>
    <line x1="4" y1="24" x2="8" y2="24 M40 24 L44 24 M24 4 L24 8 M24 40 L24 44"/>
    </g>
    <g stroke="url(#g)" stroke-width="1.5" stroke-linecap="round" stroke-linejoin="round">
    <rect x="8" y="8" width="32" height="32" rx="4"/>
    <rect x="14" y="14" width="20" height="20" rx="4"/>
    <line x1="4" y1="24" x2="8" y2="24 M40 24 L44 24 M24 4 L24 8 M24 40 L24 44"/>
    </g>
  </g>
</svg>