<svg xmlns="http://www.w3.org/2000/svg" viewBox="0 0 48 48">
  <defs>
    <linearGradient id="g" x1="0%" y1="0%" x2="100%" y2="100%">
      <stop offset="0%" stop-color="#a4bfd1"/>
      <stop offset="100%" stop-color="#0d1c26"/>
    </linearGradient>
    <filter id="shadow" x="-30%" y="-30%" width="160%" height="160%">
      <feDropShadow dx="2.5" dy="3.5" stdDeviation="3" flood-color="#1a1a2e" flood-opacity="0.45"/>
    </filter>
  </defs>
  <g filter="url(#shadow)" fill="none">
    <g stroke="#060e13" stroke-width="4.5" stroke-linecap="round" stroke-linejoin="round" transform="translate(2,2)">
    <circle cx="24" cy="16" r="8"/>
    <line x1="24" y1="24" x2="24" y2="44"/>
    <line x1="24" y1="24" x2="14" y2="30 M24 24 L34 30 M24 34 L18 44 M24 34 L30 44"/>
    </g>
    <g stroke="#0d1c26" stroke-width="3" stroke-linecap="round" stroke-linejoin="round" transform="translate(1,1)">
    <circle cx="24" cy="16" r="8"/>
    <line x1="24" y1="24" x2="24" y2="44"/>
    <line x1="24" y1="24" x2="14" y2="30 M24 24 L34 30 M24 34 L18 44 M24 34 L30 44"/>
    </g>
    <g stroke="url(#g)" stroke-width="1.5" stroke-linecap="round" stroke-linejoin="round">
    <circle cx="24" cy="16" r="8"/>
    <line x1="24" y1="24" x2="24" y2="44"/>
    <line x1="24" y1="24" x2="14" y2="30 M24 24 L34 30 M24 34 L18 44 M24 34 L30 44"/>
    </g>
  </g>
</svg>