<svg xmlns="http://www.w3.org/2000/svg" viewBox="0 0 48 48">
  <defs>
    <linearGradient id="g" x1="0%" y1="0%" x2="100%" y2="100%">
      <stop offset="0%" stop-color="#ada6cf"/>
      <stop offset="100%" stop-color="#281f52"/>
    </linearGradient>
    <filter id="sh" x="-30%" y="-30%" width="160%" height="160%">
      <feDropShadow dx="2.5" dy="3.5" stdDeviation="3" flood-color="#1a1a2e" flood-opacity="0.45"/>
    </filter>
  </defs>
  <g filter="url(#sh)" fill="none">
    <g stroke="#120e25" stroke-width="4.5" stroke-linecap="round" stroke-linejoin="round" transform="translate(2,2)">
<path d="M12 16 L24 28 M36 16 L24 28"/><circle cx="24" cy="28" r="3"/><path d="M12 16 L8 10 M36 16 L40 10"/><line x1="8" y1="10" x2="10" y2="6"/><line x1="40" y1="10" x2="38" y2="6"/><line x1="18" y1="28" x2="24" y2="42"/><line x1="30" y1="28" x2="24" y2="42"/>
    </g>
    <g stroke="#281f52" stroke-width="3" stroke-linecap="round" stroke-linejoin="round" transform="translate(1,1)">
<path d="M12 16 L24 28 M36 16 L24 28"/><circle cx="24" cy="28" r="3"/><path d="M12 16 L8 10 M36 16 L40 10"/><line x1="8" y1="10" x2="10" y2="6"/><line x1="40" y1="10" x2="38" y2="6"/><line x1="18" y1="28" x2="24" y2="42"/><line x1="30" y1="28" x2="24" y2="42"/>
    </g>
    <g stroke="url(#g)" stroke-width="1.5" stroke-linecap="round" stroke-linejoin="round">
<path d="M12 16 L24 28 M36 16 L24 28"/><circle cx="24" cy="28" r="3"/><path d="M12 16 L8 10 M36 16 L40 10"/><line x1="8" y1="10" x2="10" y2="6"/><line x1="40" y1="10" x2="38" y2="6"/><line x1="18" y1="28" x2="24" y2="42"/><line x1="30" y1="28" x2="24" y2="42"/>
    </g>
  </g>
</svg>