<svg xmlns="http://www.w3.org/2000/svg" viewBox="0 0 48 48">
  <defs>
    <linearGradient id="g" x1="0%" y1="0%" x2="100%" y2="100%">
      <stop offset="0%" stop-color="#cbc4ab"/>
      <stop offset="100%" stop-color="#231f11"/>
    </linearGradient>
    <filter id="shadow" x="-30%" y="-30%" width="160%" height="160%">
      <feDropShadow dx="2.5" dy="3.5" stdDeviation="3" flood-color="#1a1a2e" flood-opacity="0.45"/>
    </filter>
  </defs>
  <g filter="url(#shadow)" fill="none">
    <g stroke="#110f08" stroke-width="4.5" stroke-linecap="round" stroke-linejoin="round" transform="translate(2,2)">
    <path d="M8 8 Q16 4 18 12 L18 24 L22 28 L26 24 L26 12 Q28 4 36 8"/>
    <line x1="22" y1="28" x2="22" y2="44"/>
    <line x1="22" y1="16" x2="26" y2="16 M22 20 L26 20"/>
    </g>
    <g stroke="#231f11" stroke-width="3" stroke-linecap="round" stroke-linejoin="round" transform="translate(1,1)">
    <path d="M8 8 Q16 4 18 12 L18 24 L22 28 L26 24 L26 12 Q28 4 36 8"/>
    <line x1="22" y1="28" x2="22" y2="44"/>
    <line x1="22" y1="16" x2="26" y2="16 M22 20 L26 20"/>
    </g>
    <g stroke="url(#g)" stroke-width="1.5" stroke-linecap="round" stroke-linejoin="round">
    <path d="M8 8 Q16 4 18 12 L18 24 L22 28 L26 24 L26 12 Q28 4 36 8"/>
    <line x1="22" y1="28" x2="22" y2="44"/>
    <line x1="22" y1="16" x2="26" y2="16 M22 20 L26 20"/>
    </g>
  </g>
</svg>