<svg xmlns="http://www.w3.org/2000/svg" viewBox="0 0 48 48">
  <defs>
    <linearGradient id="g" x1="0%" y1="0%" x2="100%" y2="100%">
      <stop offset="0%" stop-color="#c4b2c0"/>
      <stop offset="100%" stop-color="#442f3f"/>
    </linearGradient>
    <filter id="sh" x="-30%" y="-30%" width="160%" height="160%">
      <feDropShadow dx="2.5" dy="3.5" stdDeviation="3" flood-color="#1a1a2e" flood-opacity="0.45"/>
    </filter>
  </defs>
  <g filter="url(#sh)" fill="none">
    <g stroke="#1f151c" stroke-width="4.5" stroke-linecap="round" stroke-linejoin="round" transform="translate(2,2)">
<rect x="8" y="10" width="32" height="24" rx="4"/><line x1="8" y1="20" x2="40" y2="20"/><circle cx="24" cy="14" r="3"/><circle cx="24" cy="14" r="1.5"/><rect x="16" y="22" width="16" height="8" rx="2"/><circle cx="20" cy="26" r="1.5"/><circle cx="28" cy="26" r="1.5"/>
    </g>
    <g stroke="#442f3f" stroke-width="3" stroke-linecap="round" stroke-linejoin="round" transform="translate(1,1)">
<rect x="8" y="10" width="32" height="24" rx="4"/><line x1="8" y1="20" x2="40" y2="20"/><circle cx="24" cy="14" r="3"/><circle cx="24" cy="14" r="1.5"/><rect x="16" y="22" width="16" height="8" rx="2"/><circle cx="20" cy="26" r="1.5"/><circle cx="28" cy="26" r="1.5"/>
    </g>
    <g stroke="url(#g)" stroke-width="1.5" stroke-linecap="round" stroke-linejoin="round">
<rect x="8" y="10" width="32" height="24" rx="4"/><line x1="8" y1="20" x2="40" y2="20"/><circle cx="24" cy="14" r="3"/><circle cx="24" cy="14" r="1.5"/><rect x="16" y="22" width="16" height="8" rx="2"/><circle cx="20" cy="26" r="1.5"/><circle cx="28" cy="26" r="1.5"/>
    </g>
  </g>
</svg>