<svg xmlns="http://www.w3.org/2000/svg" viewBox="0 0 48 48">
  <defs>
    <linearGradient id="g" x1="0%" y1="0%" x2="100%" y2="100%">
      <stop offset="0%" stop-color="#9faecb"/>
      <stop offset="100%" stop-color="#0a1323"/>
    </linearGradient>
    <filter id="shadow" x="-30%" y="-30%" width="160%" height="160%">
      <feDropShadow dx="2.5" dy="3.5" stdDeviation="3" flood-color="#1a1a2e" flood-opacity="0.45"/>
    </filter>
  </defs>
  <g filter="url(#shadow)" fill="none">
    <g stroke="#050911" stroke-width="4.5" stroke-linecap="round" stroke-linejoin="round" transform="translate(2,2)">
    <path d="M12 18 L12 36 Q12 42 24 42 Q36 42 36 36 L36 18 Z"/>
    <path d="M12 18 Q24 12 36 18"/>
    <path d="M22 18 L22 14 L26 14 L26 18"/>
    <ellipse cx="24" cy="30" rx="4" ry="2"/>
    </g>
    <g stroke="#0a1323" stroke-width="3" stroke-linecap="round" stroke-linejoin="round" transform="translate(1,1)">
    <path d="M12 18 L12 36 Q12 42 24 42 Q36 42 36 36 L36 18 Z"/>
    <path d="M12 18 Q24 12 36 18"/>
    <path d="M22 18 L22 14 L26 14 L26 18"/>
    <ellipse cx="24" cy="30" rx="4" ry="2"/>
    </g>
    <g stroke="url(#g)" stroke-width="1.5" stroke-linecap="round" stroke-linejoin="round">
    <path d="M12 18 L12 36 Q12 42 24 42 Q36 42 36 36 L36 18 Z"/>
    <path d="M12 18 Q24 12 36 18"/>
    <path d="M22 18 L22 14 L26 14 L26 18"/>
    <ellipse cx="24" cy="30" rx="4" ry="2"/>
    </g>
  </g>
</svg>