<svg xmlns="http://www.w3.org/2000/svg" viewBox="0 0 48 48">
  <defs>
    <linearGradient id="g" x1="0%" y1="0%" x2="100%" y2="100%">
      <stop offset="0%" stop-color="#abb2c5"/>
      <stop offset="100%" stop-color="#262e45"/>
    </linearGradient>
    <filter id="sh" x="-30%" y="-30%" width="160%" height="160%">
      <feDropShadow dx="2.5" dy="3.5" stdDeviation="3" flood-color="#1a1a2e" flood-opacity="0.45"/>
    </filter>
  </defs>
  <g filter="url(#sh)" fill="none">
    <g stroke="#11151f" stroke-width="4.5" stroke-linecap="round" stroke-linejoin="round" transform="translate(2,2)">
<path d="M12 8 Q12 4 24 4 Q36 4 36 8 L36 34 Q36 40 30 38 L26 34 L22 38 L18 34 L14 38 Q12 40 12 34 Z"/>
        <circle cx="18" cy="20" r="3"/>
        <circle cx="30" cy="20" r="3"/>
    </g>
    <g stroke="#262e45" stroke-width="3" stroke-linecap="round" stroke-linejoin="round" transform="translate(1,1)">
<path d="M12 8 Q12 4 24 4 Q36 4 36 8 L36 34 Q36 40 30 38 L26 34 L22 38 L18 34 L14 38 Q12 40 12 34 Z"/>
        <circle cx="18" cy="20" r="3"/>
        <circle cx="30" cy="20" r="3"/>
    </g>
    <g stroke="url(#g)" stroke-width="1.5" stroke-linecap="round" stroke-linejoin="round">
<path d="M12 8 Q12 4 24 4 Q36 4 36 8 L36 34 Q36 40 30 38 L26 34 L22 38 L18 34 L14 38 Q12 40 12 34 Z"/>
        <circle cx="18" cy="20" r="3"/>
        <circle cx="30" cy="20" r="3"/>
    </g>
  </g>
</svg>