<svg xmlns="http://www.w3.org/2000/svg" viewBox="0 0 48 48">
  <defs>
    <linearGradient id="g" x1="0%" y1="0%" x2="100%" y2="100%">
      <stop offset="0%" stop-color="#ded6c3"/>
      <stop offset="100%" stop-color="#2d291e"/>
    </linearGradient>
    <filter id="shadow" x="-30%" y="-30%" width="160%" height="160%">
      <feDropShadow dx="2.5" dy="3.5" stdDeviation="3" flood-color="#1a1a2e" flood-opacity="0.45"/>
    </filter>
  </defs>
  <g filter="url(#shadow)" fill="none">
    <g stroke="#16140f" stroke-width="4.5" stroke-linecap="round" stroke-linejoin="round" transform="translate(2,2)">
    <rect x="6" y="14" width="36" height="30" rx="4"/>
    <circle cx="24" cy="10" r="6"/>
    <path d="M18 10 L18 14 M30 10 L30 14"/>
    <line x1="10" y1="24" x2="38" y2="24 M10 32 L38 32"/>
    </g>
    <g stroke="#2d291e" stroke-width="3" stroke-linecap="round" stroke-linejoin="round" transform="translate(1,1)">
    <rect x="6" y="14" width="36" height="30" rx="4"/>
    <circle cx="24" cy="10" r="6"/>
    <path d="M18 10 L18 14 M30 10 L30 14"/>
    <line x1="10" y1="24" x2="38" y2="24 M10 32 L38 32"/>
    </g>
    <g stroke="url(#g)" stroke-width="1.5" stroke-linecap="round" stroke-linejoin="round">
    <rect x="6" y="14" width="36" height="30" rx="4"/>
    <circle cx="24" cy="10" r="6"/>
    <path d="M18 10 L18 14 M30 10 L30 14"/>
    <line x1="10" y1="24" x2="38" y2="24 M10 32 L38 32"/>
    </g>
  </g>
</svg>