<svg xmlns="http://www.w3.org/2000/svg" viewBox="0 0 48 48">
  <defs>
    <linearGradient id="g" x1="0%" y1="0%" x2="100%" y2="100%">
      <stop offset="0%" stop-color="#a4dcc9"/>
      <stop offset="100%" stop-color="#0d2c21"/>
    </linearGradient>
    <filter id="shadow" x="-30%" y="-30%" width="160%" height="160%">
      <feDropShadow dx="2.5" dy="3.5" stdDeviation="3" flood-color="#1a1a2e" flood-opacity="0.45"/>
    </filter>
  </defs>
  <g filter="url(#shadow)" fill="none">
    <g stroke="#061610" stroke-width="4.5" stroke-linecap="round" stroke-linejoin="round" transform="translate(2,2)">
    <path d="M8 24 Q8 8 24 8 Q40 8 40 24 Q40 40 24 40 Q16 40 14 34 Q12 28 20 26 Q28 24 30 30 Q32 36 24 38"/>
    <circle cx="14" cy="34" r="2"/>
    <ellipse cx="30" cy="30" rx="2" ry="1"/>
    </g>
    <g stroke="#0d2c21" stroke-width="3" stroke-linecap="round" stroke-linejoin="round" transform="translate(1,1)">
    <path d="M8 24 Q8 8 24 8 Q40 8 40 24 Q40 40 24 40 Q16 40 14 34 Q12 28 20 26 Q28 24 30 30 Q32 36 24 38"/>
    <circle cx="14" cy="34" r="2"/>
    <ellipse cx="30" cy="30" rx="2" ry="1"/>
    </g>
    <g stroke="url(#g)" stroke-width="1.5" stroke-linecap="round" stroke-linejoin="round">
    <path d="M8 24 Q8 8 24 8 Q40 8 40 24 Q40 40 24 40 Q16 40 14 34 Q12 28 20 26 Q28 24 30 30 Q32 36 24 38"/>
    <circle cx="14" cy="34" r="2"/>
    <ellipse cx="30" cy="30" rx="2" ry="1"/>
    </g>
  </g>
</svg>