<svg xmlns="http://www.w3.org/2000/svg" viewBox="0 0 48 48">
  <defs>
    <linearGradient id="g" x1="0%" y1="0%" x2="100%" y2="100%">
      <stop offset="0%" stop-color="#c4b6d4"/>
      <stop offset="100%" stop-color="#443358"/>
    </linearGradient>
    <filter id="sh" x="-30%" y="-30%" width="160%" height="160%">
      <feDropShadow dx="2.5" dy="3.5" stdDeviation="3" flood-color="#1a1a2e" flood-opacity="0.45"/>
    </filter>
  </defs>
  <g filter="url(#sh)" fill="none">
    <g stroke="#1f1728" stroke-width="4.5" stroke-linecap="round" stroke-linejoin="round" transform="translate(2,2)">
<path d="M6 26 Q6 14 18 14 L30 14 Q42 14 42 26 L42 34 L6 34 Z"/>
        <circle cx="14" cy="36" r="5"/>
        <circle cx="34" cy="36" r="5"/>
        <rect x="24" y="8" width="6" height="6" rx="2"/>
    </g>
    <g stroke="#443358" stroke-width="3" stroke-linecap="round" stroke-linejoin="round" transform="translate(1,1)">
<path d="M6 26 Q6 14 18 14 L30 14 Q42 14 42 26 L42 34 L6 34 Z"/>
        <circle cx="14" cy="36" r="5"/>
        <circle cx="34" cy="36" r="5"/>
        <rect x="24" y="8" width="6" height="6" rx="2"/>
    </g>
    <g stroke="url(#g)" stroke-width="1.5" stroke-linecap="round" stroke-linejoin="round">
<path d="M6 26 Q6 14 18 14 L30 14 Q42 14 42 26 L42 34 L6 34 Z"/>
        <circle cx="14" cy="36" r="5"/>
        <circle cx="34" cy="36" r="5"/>
        <rect x="24" y="8" width="6" height="6" rx="2"/>
    </g>
  </g>
</svg>