<svg xmlns="http://www.w3.org/2000/svg" viewBox="0 0 48 48">
  <defs>
    <linearGradient id="iconGrad" x1="0%" y1="0%" x2="100%" y2="100%">
      <stop offset="0%" stop-color="#80DEEA"/>
      <stop offset="100%" stop-color="#14636E"/>
    </linearGradient>
    <filter id="shadow" x="-30%" y="-30%" width="160%" height="160%">
      <feDropShadow dx="2.5" dy="3.5" stdDeviation="3" flood-color="#1a1a2e" flood-opacity="0.45"/>
    </filter>
  </defs>
  <g filter="url(#shadow)" fill="none">
    <g stroke="#0A3237" stroke-width="4.5" stroke-linecap="round" stroke-linejoin="round" transform="translate(2,2)">
      <path d="M6 24 A18 18 0 0 1 42 24"/>
      <path d="M12 24 A12 12 0 0 1 36 24"/>
      <path d="M18 24 A6 6 0 0 1 30 24"/>
      <line x1="24" y1="24" x2="40" y2="15"/>
      <circle cx="24" cy="24" r="1.5" fill="#607D8B"/>
      <circle cx="35" cy="16" r="2.5" fill="#607D8B"/>
    </g>
    <g stroke="#14636E" stroke-width="3" stroke-linecap="round" stroke-linejoin="round" transform="translate(1,1)">
      <path d="M6 24 A18 18 0 0 1 42 24"/>
      <path d="M12 24 A12 12 0 0 1 36 24"/>
      <path d="M18 24 A6 6 0 0 1 30 24"/>
      <line x1="24" y1="24" x2="40" y2="15"/>
      <circle cx="24" cy="24" r="1.5" fill="#607D8B"/>
      <circle cx="35" cy="16" r="2.5" fill="#607D8B"/>
    </g>
    <g stroke="url(#iconGrad)" stroke-width="1.5" stroke-linecap="round" stroke-linejoin="round">
      <path d="M6 24 A18 18 0 0 1 42 24"/>
      <path d="M12 24 A12 12 0 0 1 36 24"/>
      <path d="M18 24 A6 6 0 0 1 30 24"/>
      <line x1="24" y1="24" x2="40" y2="15"/>
      <circle cx="24" cy="24" r="1.5" fill="#607D8B"/>
      <circle cx="35" cy="16" r="2.5" fill="#607D8B"/>
    </g>
  </g>
</svg>