<svg xmlns="http://www.w3.org/2000/svg" viewBox="0 0 48 48">
  <defs>
    <linearGradient id="g" x1="0%" y1="0%" x2="100%" y2="100%">
      <stop offset="0%" stop-color="#dcbfa8"/>
      <stop offset="100%" stop-color="#613e22"/>
    </linearGradient>
    <filter id="sh" x="-30%" y="-30%" width="160%" height="160%">
      <feDropShadow dx="2.5" dy="3.5" stdDeviation="3" flood-color="#1a1a2e" flood-opacity="0.45"/>
    </filter>
  </defs>
  <g filter="url(#sh)" fill="none">
    <g stroke="#2c1c0f" stroke-width="4.5" stroke-linecap="round" stroke-linejoin="round" transform="translate(2,2)">
<path d="M6 30 Q6 14 24 14 Q42 14 42 30 Z"/>
        <circle cx="14" cy="32" r="4"/>
        <circle cx="34" cy="32" r="4"/>
        <line x1="24" y1="14" x2="24" y2="30"/>
        <polygon points="24,6 28,14 20,14"/>
    </g>
    <g stroke="#613e22" stroke-width="3" stroke-linecap="round" stroke-linejoin="round" transform="translate(1,1)">
<path d="M6 30 Q6 14 24 14 Q42 14 42 30 Z"/>
        <circle cx="14" cy="32" r="4"/>
        <circle cx="34" cy="32" r="4"/>
        <line x1="24" y1="14" x2="24" y2="30"/>
        <polygon points="24,6 28,14 20,14"/>
    </g>
    <g stroke="url(#g)" stroke-width="1.5" stroke-linecap="round" stroke-linejoin="round">
<path d="M6 30 Q6 14 24 14 Q42 14 42 30 Z"/>
        <circle cx="14" cy="32" r="4"/>
        <circle cx="34" cy="32" r="4"/>
        <line x1="24" y1="14" x2="24" y2="30"/>
        <polygon points="24,6 28,14 20,14"/>
    </g>
  </g>
</svg>