<svg xmlns="http://www.w3.org/2000/svg" viewBox="0 0 48 48">
  <defs>
    <linearGradient id="g" x1="0%" y1="0%" x2="100%" y2="100%">
      <stop offset="0%" stop-color="#b1aec7"/>
      <stop offset="100%" stop-color="#141221"/>
    </linearGradient>
    <filter id="shadow" x="-30%" y="-30%" width="160%" height="160%">
      <feDropShadow dx="2.5" dy="3.5" stdDeviation="3" flood-color="#1a1a2e" flood-opacity="0.45"/>
    </filter>
  </defs>
  <g filter="url(#shadow)" fill="none">
    <g stroke="#0a0910" stroke-width="4.5" stroke-linecap="round" stroke-linejoin="round" transform="translate(2,2)">
    <path d="M6 12 Q4 8 8 6 Q12 4 16 8 L36 28 Q38 32 34 36 Q30 40 26 36 L6 16 Q4 12 6 12"/>
    <line x1="10" y1="10" x2="30" y2="30 M14 8 L34 28"/>
    </g>
    <g stroke="#141221" stroke-width="3" stroke-linecap="round" stroke-linejoin="round" transform="translate(1,1)">
    <path d="M6 12 Q4 8 8 6 Q12 4 16 8 L36 28 Q38 32 34 36 Q30 40 26 36 L6 16 Q4 12 6 12"/>
    <line x1="10" y1="10" x2="30" y2="30 M14 8 L34 28"/>
    </g>
    <g stroke="url(#g)" stroke-width="1.5" stroke-linecap="round" stroke-linejoin="round">
    <path d="M6 12 Q4 8 8 6 Q12 4 16 8 L36 28 Q38 32 34 36 Q30 40 26 36 L6 16 Q4 12 6 12"/>
    <line x1="10" y1="10" x2="30" y2="30 M14 8 L34 28"/>
    </g>
  </g>
</svg>