<svg xmlns="http://www.w3.org/2000/svg" viewBox="0 0 48 48">
  <defs>
    <linearGradient id="g" x1="0%" y1="0%" x2="100%" y2="100%">
      <stop offset="0%" stop-color="#aac1bc"/>
      <stop offset="100%" stop-color="#25413a"/>
    </linearGradient>
    <filter id="sh" x="-30%" y="-30%" width="160%" height="160%">
      <feDropShadow dx="2.5" dy="3.5" stdDeviation="3" flood-color="#1a1a2e" flood-opacity="0.45"/>
    </filter>
  </defs>
  <g filter="url(#sh)" fill="none">
    <g stroke="#111d1a" stroke-width="4.5" stroke-linecap="round" stroke-linejoin="round" transform="translate(2,2)">
<line x1="24" y1="14" x2="24" y2="42"/><line x1="8" y1="8" x2="40" y2="8"/><line x1="8" y1="8" x2="8" y2="14"/><line x1="16" y1="8" x2="16" y2="14"/><line x1="24" y1="8" x2="24" y2="14"/><line x1="32" y1="8" x2="32" y2="14"/><line x1="40" y1="8" x2="40" y2="14"/>
    </g>
    <g stroke="#25413a" stroke-width="3" stroke-linecap="round" stroke-linejoin="round" transform="translate(1,1)">
<line x1="24" y1="14" x2="24" y2="42"/><line x1="8" y1="8" x2="40" y2="8"/><line x1="8" y1="8" x2="8" y2="14"/><line x1="16" y1="8" x2="16" y2="14"/><line x1="24" y1="8" x2="24" y2="14"/><line x1="32" y1="8" x2="32" y2="14"/><line x1="40" y1="8" x2="40" y2="14"/>
    </g>
    <g stroke="url(#g)" stroke-width="1.5" stroke-linecap="round" stroke-linejoin="round">
<line x1="24" y1="14" x2="24" y2="42"/><line x1="8" y1="8" x2="40" y2="8"/><line x1="8" y1="8" x2="8" y2="14"/><line x1="16" y1="8" x2="16" y2="14"/><line x1="24" y1="8" x2="24" y2="14"/><line x1="32" y1="8" x2="32" y2="14"/><line x1="40" y1="8" x2="40" y2="14"/>
    </g>
  </g>
</svg>