<svg xmlns="http://www.w3.org/2000/svg" viewBox="0 0 48 48">
  <defs>
    <linearGradient id="g" x1="0%" y1="0%" x2="100%" y2="100%">
      <stop offset="0%" stop-color="#c1b1d6"/>
      <stop offset="100%" stop-color="#1d1429"/>
    </linearGradient>
    <filter id="shadow" x="-30%" y="-30%" width="160%" height="160%">
      <feDropShadow dx="2.5" dy="3.5" stdDeviation="3" flood-color="#1a1a2e" flood-opacity="0.45"/>
    </filter>
  </defs>
  <g filter="url(#shadow)" fill="none">
    <g stroke="#0e0a14" stroke-width="4.5" stroke-linecap="round" stroke-linejoin="round" transform="translate(2,2)">
    <ellipse cx="24" cy="30" rx="10" ry="8"/>
    <circle cx="24" cy="12" r="8"/>
    <circle cx="22" cy="10" r="1.5"/>
    <circle cx="26" cy="10" r="1.5"/>
    <line x1="24" y1="20" x2="24" y2="24"/>
    </g>
    <g stroke="#1d1429" stroke-width="3" stroke-linecap="round" stroke-linejoin="round" transform="translate(1,1)">
    <ellipse cx="24" cy="30" rx="10" ry="8"/>
    <circle cx="24" cy="12" r="8"/>
    <circle cx="22" cy="10" r="1.5"/>
    <circle cx="26" cy="10" r="1.5"/>
    <line x1="24" y1="20" x2="24" y2="24"/>
    </g>
    <g stroke="url(#g)" stroke-width="1.5" stroke-linecap="round" stroke-linejoin="round">
    <ellipse cx="24" cy="30" rx="10" ry="8"/>
    <circle cx="24" cy="12" r="8"/>
    <circle cx="22" cy="10" r="1.5"/>
    <circle cx="26" cy="10" r="1.5"/>
    <line x1="24" y1="20" x2="24" y2="24"/>
    </g>
  </g>
</svg>