<svg xmlns="http://www.w3.org/2000/svg" viewBox="0 0 48 48">
  <defs>
    <linearGradient id="g" x1="0%" y1="0%" x2="100%" y2="100%">
      <stop offset="0%" stop-color="#adbfb7"/>
      <stop offset="100%" stop-color="#283e34"/>
    </linearGradient>
    <filter id="sh" x="-30%" y="-30%" width="160%" height="160%">
      <feDropShadow dx="2.5" dy="3.5" stdDeviation="3" flood-color="#1a1a2e" flood-opacity="0.45"/>
    </filter>
  </defs>
  <g filter="url(#sh)" fill="none">
    <g stroke="#121c17" stroke-width="4.5" stroke-linecap="round" stroke-linejoin="round" transform="translate(2,2)">
<rect x="8" y="10" width="32" height="28" rx="4"/>
        <rect x="12" y="18" width="24" height="12" rx="2"/>
        <circle cx="24" cy="12" r="3"/>
        <circle cx="16" cy="24" r="4"/>
        <circle cx="32" cy="24" r="4"/>
    </g>
    <g stroke="#283e34" stroke-width="3" stroke-linecap="round" stroke-linejoin="round" transform="translate(1,1)">
<rect x="8" y="10" width="32" height="28" rx="4"/>
        <rect x="12" y="18" width="24" height="12" rx="2"/>
        <circle cx="24" cy="12" r="3"/>
        <circle cx="16" cy="24" r="4"/>
        <circle cx="32" cy="24" r="4"/>
    </g>
    <g stroke="url(#g)" stroke-width="1.5" stroke-linecap="round" stroke-linejoin="round">
<rect x="8" y="10" width="32" height="28" rx="4"/>
        <rect x="12" y="18" width="24" height="12" rx="2"/>
        <circle cx="24" cy="12" r="3"/>
        <circle cx="16" cy="24" r="4"/>
        <circle cx="32" cy="24" r="4"/>
    </g>
  </g>
</svg>