<svg xmlns="http://www.w3.org/2000/svg" viewBox="0 0 48 48">
  <defs>
    <linearGradient id="iconGrad" x1="0%" y1="0%" x2="100%" y2="100%">
      <stop offset="0%" stop-color="#FFE0B2"/>
      <stop offset="100%" stop-color="#806640"/>
    </linearGradient>
    <filter id="shadow" x="-30%" y="-30%" width="160%" height="160%">
      <feDropShadow dx="2.5" dy="3.5" stdDeviation="3" flood-color="#1a1a2e" flood-opacity="0.45"/>
    </filter>
  </defs>
  <g filter="url(#shadow)" fill="none">
    <g stroke="#403320" stroke-width="4.5" stroke-linecap="round" stroke-linejoin="round" transform="translate(2,2)">
      <path d="M24 4 L34 18 L34 32 Q34 38 24 38 Q14 38 14 32 L14 18 Z"/>
      <circle cx="24" cy="18" r="4"/>
      <path d="M14 28 L8 38 L14 34"/>
      <path d="M34 28 L40 38 L34 34"/>
      <path d="M20 38 Q24 46 28 38"/>
    </g>
    <g stroke="#806640" stroke-width="3" stroke-linecap="round" stroke-linejoin="round" transform="translate(1,1)">
      <path d="M24 4 L34 18 L34 32 Q34 38 24 38 Q14 38 14 32 L14 18 Z"/>
      <circle cx="24" cy="18" r="4"/>
      <path d="M14 28 L8 38 L14 34"/>
      <path d="M34 28 L40 38 L34 34"/>
      <path d="M20 38 Q24 46 28 38"/>
    </g>
    <g stroke="url(#iconGrad)" stroke-width="1.5" stroke-linecap="round" stroke-linejoin="round">
      <path d="M24 4 L34 18 L34 32 Q34 38 24 38 Q14 38 14 32 L14 18 Z"/>
      <circle cx="24" cy="18" r="4"/>
      <path d="M14 28 L8 38 L14 34"/>
      <path d="M34 28 L40 38 L34 34"/>
      <path d="M20 38 Q24 46 28 38"/>
    </g>
  </g>
</svg>