<svg xmlns="http://www.w3.org/2000/svg" viewBox="0 0 48 48">
  <defs>
    <linearGradient id="iconGrad" x1="0%" y1="0%" x2="100%" y2="100%">
      <stop offset="0%" stop-color="#E1BEE7"/>
      <stop offset="100%" stop-color="#6B4C71"/>
    </linearGradient>
    <filter id="shadow" x="-30%" y="-30%" width="160%" height="160%">
      <feDropShadow dx="2.5" dy="3.5" stdDeviation="3" flood-color="#1a1a2e" flood-opacity="0.45"/>
    </filter>
  </defs>
  <g filter="url(#shadow)" fill="none">
    <g stroke="#35263A" stroke-width="4.5" stroke-linecap="round" stroke-linejoin="round" transform="translate(2,2)">
      <line x1="24" y1="8" x2="24" y2="40"/>
      <path d="M24 8 C18 10, 18 14, 24 14 C30 14, 30 20, 24 20 C18 20, 18 26, 24 26 C30 26, 30 32, 24 32 C18 32, 18 38, 24 40"/>
    </g>
    <g stroke="#6B4C71" stroke-width="3" stroke-linecap="round" stroke-linejoin="round" transform="translate(1,1)">
      <line x1="24" y1="8" x2="24" y2="40"/>
      <path d="M24 8 C18 10, 18 14, 24 14 C30 14, 30 20, 24 20 C18 20, 18 26, 24 26 C30 26, 30 32, 24 32 C18 32, 18 38, 24 40"/>
    </g>
    <g stroke="url(#iconGrad)" stroke-width="1.5" stroke-linecap="round" stroke-linejoin="round">
      <line x1="24" y1="8" x2="24" y2="40"/>
      <path d="M24 8 C18 10, 18 14, 24 14 C30 14, 30 20, 24 20 C18 20, 18 26, 24 26 C30 26, 30 32, 24 32 C18 32, 18 38, 24 40"/>
    </g>
  </g>
</svg>