<svg xmlns="http://www.w3.org/2000/svg" viewBox="0 0 48 48">
  <defs>
    <linearGradient id="g" x1="0%" y1="0%" x2="100%" y2="100%">
      <stop offset="0%" stop-color="#b5c0dd"/>
      <stop offset="100%" stop-color="#171d2d"/>
    </linearGradient>
    <filter id="shadow" x="-30%" y="-30%" width="160%" height="160%">
      <feDropShadow dx="2.5" dy="3.5" stdDeviation="3" flood-color="#1a1a2e" flood-opacity="0.45"/>
    </filter>
  </defs>
  <g filter="url(#shadow)" fill="none">
    <g stroke="#0b0e16" stroke-width="4.5" stroke-linecap="round" stroke-linejoin="round" transform="translate(2,2)">
    <line x1="6" y1="24" x2="42" y2="24" stroke-width="6"/>
    <line x1="6" y1="24" x2="4" y2="24 M42 24 L44 24" stroke-width="3"/>
    <line x1="4" y1="22" x2="4" y2="26 M44 22 L44 26" stroke-width="2"/>
    </g>
    <g stroke="#171d2d" stroke-width="3" stroke-linecap="round" stroke-linejoin="round" transform="translate(1,1)">
    <line x1="6" y1="24" x2="42" y2="24" stroke-width="6"/>
    <line x1="6" y1="24" x2="4" y2="24 M42 24 L44 24" stroke-width="3"/>
    <line x1="4" y1="22" x2="4" y2="26 M44 22 L44 26" stroke-width="2"/>
    </g>
    <g stroke="url(#g)" stroke-width="1.5" stroke-linecap="round" stroke-linejoin="round">
    <line x1="6" y1="24" x2="42" y2="24" stroke-width="6"/>
    <line x1="6" y1="24" x2="4" y2="24 M42 24 L44 24" stroke-width="3"/>
    <line x1="4" y1="22" x2="4" y2="26 M44 22 L44 26" stroke-width="2"/>
    </g>
  </g>
</svg>