<svg xmlns="http://www.w3.org/2000/svg" viewBox="0 0 48 48">
  <defs>
    <linearGradient id="g" x1="0%" y1="0%" x2="100%" y2="100%">
      <stop offset="0%" stop-color="#a6c7cc"/>
      <stop offset="100%" stop-color="#0e2123"/>
    </linearGradient>
    <filter id="shadow" x="-30%" y="-30%" width="160%" height="160%">
      <feDropShadow dx="2.5" dy="3.5" stdDeviation="3" flood-color="#1a1a2e" flood-opacity="0.45"/>
    </filter>
  </defs>
  <g filter="url(#shadow)" fill="none">
    <g stroke="#071011" stroke-width="4.5" stroke-linecap="round" stroke-linejoin="round" transform="translate(2,2)">
    <path d="M6 20 Q12 8 24 20 Q36 8 42 20" stroke-width="4" fill="none"/>
    <path d="M6 28 Q12 40 24 28 Q36 40 42 28" stroke-width="4" fill="none"/>
    <path d="M24 6 L24 44" stroke-width="2"/>
    </g>
    <g stroke="#0e2123" stroke-width="3" stroke-linecap="round" stroke-linejoin="round" transform="translate(1,1)">
    <path d="M6 20 Q12 8 24 20 Q36 8 42 20" stroke-width="4" fill="none"/>
    <path d="M6 28 Q12 40 24 28 Q36 40 42 28" stroke-width="4" fill="none"/>
    <path d="M24 6 L24 44" stroke-width="2"/>
    </g>
    <g stroke="url(#g)" stroke-width="1.5" stroke-linecap="round" stroke-linejoin="round">
    <path d="M6 20 Q12 8 24 20 Q36 8 42 20" stroke-width="4" fill="none"/>
    <path d="M6 28 Q12 40 24 28 Q36 40 42 28" stroke-width="4" fill="none"/>
    <path d="M24 6 L24 44" stroke-width="2"/>
    </g>
  </g>
</svg>