<svg xmlns="http://www.w3.org/2000/svg" viewBox="0 0 48 48">
  <defs>
    <linearGradient id="g" x1="0%" y1="0%" x2="100%" y2="100%">
      <stop offset="0%" stop-color="#b7e2ba"/>
      <stop offset="100%" stop-color="#172f19"/>
    </linearGradient>
    <filter id="shadow" x="-30%" y="-30%" width="160%" height="160%">
      <feDropShadow dx="2.5" dy="3.5" stdDeviation="3" flood-color="#1a1a2e" flood-opacity="0.45"/>
    </filter>
  </defs>
  <g filter="url(#shadow)" fill="none">
    <g stroke="#0b170c" stroke-width="4.5" stroke-linecap="round" stroke-linejoin="round" transform="translate(2,2)">
    <line x1="24" y1="44" x2="24" y2="16"/>
    <path d="M24 16 Q18 10 12 12 Q8 14 10 8 Q14 6 18 12 Q22 14 24 16"/>
    <path d="M24 16 Q30 10 36 12 Q40 14 38 8 Q34 6 30 12 Q26 14 24 16"/>
    <path d="M24 24 L14 20 M24 24 L34 20 M24 30 L16 26 M24 30 L32 26"/>
    </g>
    <g stroke="#172f19" stroke-width="3" stroke-linecap="round" stroke-linejoin="round" transform="translate(1,1)">
    <line x1="24" y1="44" x2="24" y2="16"/>
    <path d="M24 16 Q18 10 12 12 Q8 14 10 8 Q14 6 18 12 Q22 14 24 16"/>
    <path d="M24 16 Q30 10 36 12 Q40 14 38 8 Q34 6 30 12 Q26 14 24 16"/>
    <path d="M24 24 L14 20 M24 24 L34 20 M24 30 L16 26 M24 30 L32 26"/>
    </g>
    <g stroke="url(#g)" stroke-width="1.5" stroke-linecap="round" stroke-linejoin="round">
    <line x1="24" y1="44" x2="24" y2="16"/>
    <path d="M24 16 Q18 10 12 12 Q8 14 10 8 Q14 6 18 12 Q22 14 24 16"/>
    <path d="M24 16 Q30 10 36 12 Q40 14 38 8 Q34 6 30 12 Q26 14 24 16"/>
    <path d="M24 24 L14 20 M24 24 L34 20 M24 30 L16 26 M24 30 L32 26"/>
    </g>
  </g>
</svg>