<svg xmlns="http://www.w3.org/2000/svg" viewBox="0 0 48 48">
  <defs>
    <linearGradient id="g" x1="0%" y1="0%" x2="100%" y2="100%">
      <stop offset="0%" stop-color="#dccea8"/>
      <stop offset="100%" stop-color="#2c250f"/>
    </linearGradient>
    <filter id="shadow" x="-30%" y="-30%" width="160%" height="160%">
      <feDropShadow dx="2.5" dy="3.5" stdDeviation="3" flood-color="#1a1a2e" flood-opacity="0.45"/>
    </filter>
  </defs>
  <g filter="url(#shadow)" fill="none">
    <g stroke="#161207" stroke-width="4.5" stroke-linecap="round" stroke-linejoin="round" transform="translate(2,2)">
    <rect x="6" y="18" width="36" height="12" rx="3"/>
    <rect x="14" y="8" width="20" height="10" rx="2"/>
    <circle cx="24" cy="8" r="3"/>
    <circle cx="12" cy="30" r="4"/>
    <circle cx="36" cy="30" r="4"/>
    <line x1="12" y1="34" x2="6" y2="44 M36 34 L42 44"/>
    </g>
    <g stroke="#2c250f" stroke-width="3" stroke-linecap="round" stroke-linejoin="round" transform="translate(1,1)">
    <rect x="6" y="18" width="36" height="12" rx="3"/>
    <rect x="14" y="8" width="20" height="10" rx="2"/>
    <circle cx="24" cy="8" r="3"/>
    <circle cx="12" cy="30" r="4"/>
    <circle cx="36" cy="30" r="4"/>
    <line x1="12" y1="34" x2="6" y2="44 M36 34 L42 44"/>
    </g>
    <g stroke="url(#g)" stroke-width="1.5" stroke-linecap="round" stroke-linejoin="round">
    <rect x="6" y="18" width="36" height="12" rx="3"/>
    <rect x="14" y="8" width="20" height="10" rx="2"/>
    <circle cx="24" cy="8" r="3"/>
    <circle cx="12" cy="30" r="4"/>
    <circle cx="36" cy="30" r="4"/>
    <line x1="12" y1="34" x2="6" y2="44 M36 34 L42 44"/>
    </g>
  </g>
</svg>