<svg xmlns="http://www.w3.org/2000/svg" viewBox="0 0 48 48">
  <defs>
    <linearGradient id="g" x1="0%" y1="0%" x2="100%" y2="100%">
      <stop offset="0%" stop-color="#aebdc3"/>
      <stop offset="100%" stop-color="#131b1e"/>
    </linearGradient>
    <filter id="shadow" x="-30%" y="-30%" width="160%" height="160%">
      <feDropShadow dx="2.5" dy="3.5" stdDeviation="3" flood-color="#1a1a2e" flood-opacity="0.45"/>
    </filter>
  </defs>
  <g filter="url(#shadow)" fill="none">
    <g stroke="#090d0f" stroke-width="4.5" stroke-linecap="round" stroke-linejoin="round" transform="translate(2,2)">
    <path d="M4 30 Q24 18 44 30 L38 44 L10 44 Z"/>
    <rect x="8" y="30" width="32" height="4" rx="2"/>
    <line x1="24" y1="26" x2="24" y2="44"/>
    <line x1="10" y1="28" x2="38" y2="28"/>
    </g>
    <g stroke="#131b1e" stroke-width="3" stroke-linecap="round" stroke-linejoin="round" transform="translate(1,1)">
    <path d="M4 30 Q24 18 44 30 L38 44 L10 44 Z"/>
    <rect x="8" y="30" width="32" height="4" rx="2"/>
    <line x1="24" y1="26" x2="24" y2="44"/>
    <line x1="10" y1="28" x2="38" y2="28"/>
    </g>
    <g stroke="url(#g)" stroke-width="1.5" stroke-linecap="round" stroke-linejoin="round">
    <path d="M4 30 Q24 18 44 30 L38 44 L10 44 Z"/>
    <rect x="8" y="30" width="32" height="4" rx="2"/>
    <line x1="24" y1="26" x2="24" y2="44"/>
    <line x1="10" y1="28" x2="38" y2="28"/>
    </g>
  </g>
</svg>