<svg xmlns="http://www.w3.org/2000/svg" viewBox="0 0 48 48">
  <defs>
    <linearGradient id="g" x1="0%" y1="0%" x2="100%" y2="100%">
      <stop offset="0%" stop-color="#b3acc9"/>
      <stop offset="100%" stop-color="#2f274a"/>
    </linearGradient>
    <filter id="sh" x="-30%" y="-30%" width="160%" height="160%">
      <feDropShadow dx="2.5" dy="3.5" stdDeviation="3" flood-color="#1a1a2e" flood-opacity="0.45"/>
    </filter>
  </defs>
  <g filter="url(#sh)" fill="none">
    <g stroke="#151121" stroke-width="4.5" stroke-linecap="round" stroke-linejoin="round" transform="translate(2,2)">
<rect x="6" y="18" width="36" height="14" rx="3"/><rect x="10" y="22" width="28" height="6" rx="2"/><line x1="6" y1="25" x2="10" y2="25"/><line x1="38" y1="25" x2="42" y2="25"/><line x1="16" y1="22" x2="16" y2="28"/><line x1="32" y1="22" x2="32" y2="28"/>
    </g>
    <g stroke="#2f274a" stroke-width="3" stroke-linecap="round" stroke-linejoin="round" transform="translate(1,1)">
<rect x="6" y="18" width="36" height="14" rx="3"/><rect x="10" y="22" width="28" height="6" rx="2"/><line x1="6" y1="25" x2="10" y2="25"/><line x1="38" y1="25" x2="42" y2="25"/><line x1="16" y1="22" x2="16" y2="28"/><line x1="32" y1="22" x2="32" y2="28"/>
    </g>
    <g stroke="url(#g)" stroke-width="1.5" stroke-linecap="round" stroke-linejoin="round">
<rect x="6" y="18" width="36" height="14" rx="3"/><rect x="10" y="22" width="28" height="6" rx="2"/><line x1="6" y1="25" x2="10" y2="25"/><line x1="38" y1="25" x2="42" y2="25"/><line x1="16" y1="22" x2="16" y2="28"/><line x1="32" y1="22" x2="32" y2="28"/>
    </g>
  </g>
</svg>