<svg xmlns="http://www.w3.org/2000/svg" viewBox="0 0 48 48">
  <defs>
    <linearGradient id="g" x1="0%" y1="0%" x2="100%" y2="100%">
      <stop offset="0%" stop-color="#acc0b9"/>
      <stop offset="100%" stop-color="#111d19"/>
    </linearGradient>
    <filter id="shadow" x="-30%" y="-30%" width="160%" height="160%">
      <feDropShadow dx="2.5" dy="3.5" stdDeviation="3" flood-color="#1a1a2e" flood-opacity="0.45"/>
    </filter>
  </defs>
  <g filter="url(#shadow)" fill="none">
    <g stroke="#080e0c" stroke-width="4.5" stroke-linecap="round" stroke-linejoin="round" transform="translate(2,2)">
    <rect x="4" y="6" width="40" height="10" rx="2"/>
    <line x1="8" y1="6" x2="8" y2="16 M14 6 L14 16 M20 6 L20 16 M26 6 L26 16 M32 6 L32 16 M38 6 L38 16"/>
    </g>
    <g stroke="#111d19" stroke-width="3" stroke-linecap="round" stroke-linejoin="round" transform="translate(1,1)">
    <rect x="4" y="6" width="40" height="10" rx="2"/>
    <line x1="8" y1="6" x2="8" y2="16 M14 6 L14 16 M20 6 L20 16 M26 6 L26 16 M32 6 L32 16 M38 6 L38 16"/>
    </g>
    <g stroke="url(#g)" stroke-width="1.5" stroke-linecap="round" stroke-linejoin="round">
    <rect x="4" y="6" width="40" height="10" rx="2"/>
    <line x1="8" y1="6" x2="8" y2="16 M14 6 L14 16 M20 6 L20 16 M26 6 L26 16 M32 6 L32 16 M38 6 L38 16"/>
    </g>
  </g>
</svg>