<svg xmlns="http://www.w3.org/2000/svg" viewBox="0 0 48 48">
  <defs>
    <linearGradient id="g" x1="0%" y1="0%" x2="100%" y2="100%">
      <stop offset="0%" stop-color="#c2dae5"/>
      <stop offset="100%" stop-color="#425f6c"/>
    </linearGradient>
    <filter id="sh" x="-30%" y="-30%" width="160%" height="160%">
      <feDropShadow dx="2.5" dy="3.5" stdDeviation="3" flood-color="#1a1a2e" flood-opacity="0.45"/>
    </filter>
  </defs>
  <g filter="url(#sh)" fill="none">
    <g stroke="#1e2b31" stroke-width="4.5" stroke-linecap="round" stroke-linejoin="round" transform="translate(2,2)">
<circle cx="24" cy="10" r="5"/>
        <path d="M24 15 L24 28 L20 40"/>
        <path d="M24 20 L30 28 L28 40"/>
        <path d="M20 22 L14 18"/>
        <path d="M28 16 L34 14"/>
    </g>
    <g stroke="#425f6c" stroke-width="3" stroke-linecap="round" stroke-linejoin="round" transform="translate(1,1)">
<circle cx="24" cy="10" r="5"/>
        <path d="M24 15 L24 28 L20 40"/>
        <path d="M24 20 L30 28 L28 40"/>
        <path d="M20 22 L14 18"/>
        <path d="M28 16 L34 14"/>
    </g>
    <g stroke="url(#g)" stroke-width="1.5" stroke-linecap="round" stroke-linejoin="round">
<circle cx="24" cy="10" r="5"/>
        <path d="M24 15 L24 28 L20 40"/>
        <path d="M24 20 L30 28 L28 40"/>
        <path d="M20 22 L14 18"/>
        <path d="M28 16 L34 14"/>
    </g>
  </g>
</svg>