<svg xmlns="http://www.w3.org/2000/svg" viewBox="0 0 48 48">
  <defs>
    <linearGradient id="g" x1="0%" y1="0%" x2="100%" y2="100%">
      <stop offset="0%" stop-color="#d8d6bb"/>
      <stop offset="100%" stop-color="#2a291a"/>
    </linearGradient>
    <filter id="shadow" x="-30%" y="-30%" width="160%" height="160%">
      <feDropShadow dx="2.5" dy="3.5" stdDeviation="3" flood-color="#1a1a2e" flood-opacity="0.45"/>
    </filter>
  </defs>
  <g filter="url(#shadow)" fill="none">
    <g stroke="#15140d" stroke-width="4.5" stroke-linecap="round" stroke-linejoin="round" transform="translate(2,2)">
    <rect x="6" y="8" width="36" height="34" rx="3"/>
    <rect x="10" y="12" width="28" height="26" rx="2"/>
    <circle cx="30" cy="25" r="5"/>
    <circle cx="30" cy="25" r="2" fill="currentColor"/>
    <line x1="10" y1="20" x2="10" y2="30 M38 20 L38 30"/>
    </g>
    <g stroke="#2a291a" stroke-width="3" stroke-linecap="round" stroke-linejoin="round" transform="translate(1,1)">
    <rect x="6" y="8" width="36" height="34" rx="3"/>
    <rect x="10" y="12" width="28" height="26" rx="2"/>
    <circle cx="30" cy="25" r="5"/>
    <circle cx="30" cy="25" r="2" fill="currentColor"/>
    <line x1="10" y1="20" x2="10" y2="30 M38 20 L38 30"/>
    </g>
    <g stroke="url(#g)" stroke-width="1.5" stroke-linecap="round" stroke-linejoin="round">
    <rect x="6" y="8" width="36" height="34" rx="3"/>
    <rect x="10" y="12" width="28" height="26" rx="2"/>
    <circle cx="30" cy="25" r="5"/>
    <circle cx="30" cy="25" r="2" fill="currentColor"/>
    <line x1="10" y1="20" x2="10" y2="30 M38 20 L38 30"/>
    </g>
  </g>
</svg>