<svg xmlns="http://www.w3.org/2000/svg" viewBox="0 0 48 48">
  <defs>
    <linearGradient id="g" x1="0%" y1="0%" x2="100%" y2="100%">
      <stop offset="0%" stop-color="#ceb0a5"/>
      <stop offset="100%" stop-color="#24140e"/>
    </linearGradient>
    <filter id="shadow" x="-30%" y="-30%" width="160%" height="160%">
      <feDropShadow dx="2.5" dy="3.5" stdDeviation="3" flood-color="#1a1a2e" flood-opacity="0.45"/>
    </filter>
  </defs>
  <g filter="url(#shadow)" fill="none">
    <g stroke="#120a07" stroke-width="4.5" stroke-linecap="round" stroke-linejoin="round" transform="translate(2,2)">
    <path d="M16 4 L12 12 L12 44 L36 44 L36 12 L32 4 Z"/>
    <line x1="12" y1="20" x2="36" y2="20 M12 30 L36 30"/>
    <rect x="20" y="36" width="8" height="8" rx="2"/>
    </g>
    <g stroke="#24140e" stroke-width="3" stroke-linecap="round" stroke-linejoin="round" transform="translate(1,1)">
    <path d="M16 4 L12 12 L12 44 L36 44 L36 12 L32 4 Z"/>
    <line x1="12" y1="20" x2="36" y2="20 M12 30 L36 30"/>
    <rect x="20" y="36" width="8" height="8" rx="2"/>
    </g>
    <g stroke="url(#g)" stroke-width="1.5" stroke-linecap="round" stroke-linejoin="round">
    <path d="M16 4 L12 12 L12 44 L36 44 L36 12 L32 4 Z"/>
    <line x1="12" y1="20" x2="36" y2="20 M12 30 L36 30"/>
    <rect x="20" y="36" width="8" height="8" rx="2"/>
    </g>
  </g>
</svg>