<svg xmlns="http://www.w3.org/2000/svg" viewBox="0 0 48 48">
  <defs>
    <linearGradient id="g" x1="0%" y1="0%" x2="100%" y2="100%">
      <stop offset="0%" stop-color="#bcdcd1"/>
      <stop offset="100%" stop-color="#3a6154"/>
    </linearGradient>
    <filter id="sh" x="-30%" y="-30%" width="160%" height="160%">
      <feDropShadow dx="2.5" dy="3.5" stdDeviation="3" flood-color="#1a1a2e" flood-opacity="0.45"/>
    </filter>
  </defs>
  <g filter="url(#sh)" fill="none">
    <g stroke="#1a2c26" stroke-width="4.5" stroke-linecap="round" stroke-linejoin="round" transform="translate(2,2)">
<rect x="8" y="4" width="32" height="40" rx="2"/>
        <line x1="8" y1="4" x2="8" y2="44"/>
        <line x1="12" y1="12" x2="36" y2="12"/>
        <line x1="12" y1="18" x2="36" y2="18"/>
        <line x1="12" y1="24" x2="30" y2="24"/>
    </g>
    <g stroke="#3a6154" stroke-width="3" stroke-linecap="round" stroke-linejoin="round" transform="translate(1,1)">
<rect x="8" y="4" width="32" height="40" rx="2"/>
        <line x1="8" y1="4" x2="8" y2="44"/>
        <line x1="12" y1="12" x2="36" y2="12"/>
        <line x1="12" y1="18" x2="36" y2="18"/>
        <line x1="12" y1="24" x2="30" y2="24"/>
    </g>
    <g stroke="url(#g)" stroke-width="1.5" stroke-linecap="round" stroke-linejoin="round">
<rect x="8" y="4" width="32" height="40" rx="2"/>
        <line x1="8" y1="4" x2="8" y2="44"/>
        <line x1="12" y1="12" x2="36" y2="12"/>
        <line x1="12" y1="18" x2="36" y2="18"/>
        <line x1="12" y1="24" x2="30" y2="24"/>
    </g>
  </g>
</svg>