<svg xmlns="http://www.w3.org/2000/svg" viewBox="0 0 48 48">
  <defs>
    <linearGradient id="g" x1="0%" y1="0%" x2="100%" y2="100%">
      <stop offset="0%" stop-color="#e6c7aa"/>
      <stop offset="100%" stop-color="#322011"/>
    </linearGradient>
    <filter id="shadow" x="-30%" y="-30%" width="160%" height="160%">
      <feDropShadow dx="2.5" dy="3.5" stdDeviation="3" flood-color="#1a1a2e" flood-opacity="0.45"/>
    </filter>
  </defs>
  <g filter="url(#shadow)" fill="none">
    <g stroke="#191008" stroke-width="4.5" stroke-linecap="round" stroke-linejoin="round" transform="translate(2,2)">
    <path d="M8 18 L8 36 Q8 44 24 44 Q40 44 40 36 L40 18 Z"/>
    <path d="M8 18 Q24 10 40 18"/>
    <rect x="20" y="10" width="8" height="8" rx="2"/>
    <path d="M14 28 L34 28"/>
    </g>
    <g stroke="#322011" stroke-width="3" stroke-linecap="round" stroke-linejoin="round" transform="translate(1,1)">
    <path d="M8 18 L8 36 Q8 44 24 44 Q40 44 40 36 L40 18 Z"/>
    <path d="M8 18 Q24 10 40 18"/>
    <rect x="20" y="10" width="8" height="8" rx="2"/>
    <path d="M14 28 L34 28"/>
    </g>
    <g stroke="url(#g)" stroke-width="1.5" stroke-linecap="round" stroke-linejoin="round">
    <path d="M8 18 L8 36 Q8 44 24 44 Q40 44 40 36 L40 18 Z"/>
    <path d="M8 18 Q24 10 40 18"/>
    <rect x="20" y="10" width="8" height="8" rx="2"/>
    <path d="M14 28 L34 28"/>
    </g>
  </g>
</svg>