<svg xmlns="http://www.w3.org/2000/svg" viewBox="0 0 48 48">
  <defs>
    <linearGradient id="iconGrad" x1="0%" y1="0%" x2="100%" y2="100%">
      <stop offset="0%" stop-color="#B0BEC5"/>
      <stop offset="100%" stop-color="#3C484F"/>
    </linearGradient>
    <filter id="shadow" x="-30%" y="-30%" width="160%" height="160%">
      <feDropShadow dx="2.5" dy="3.5" stdDeviation="3" flood-color="#1a1a2e" flood-opacity="0.45"/>
    </filter>
  </defs>
  <g filter="url(#shadow)" fill="none">
    <g stroke="#1E2428" stroke-width="4.5" stroke-linecap="round" stroke-linejoin="round" transform="translate(2,2)">
      <rect x="20" y="16" width="8" height="22" rx="2"/>
      <rect x="8" y="20" width="12" height="14" rx="1"/>
      <rect x="28" y="20" width="12" height="14" rx="1"/>
      <line x1="14" y1="20" x2="14" y2="34"/>
      <line x1="34" y1="20" x2="34" y2="34"/>
      <line x1="24" y1="16" x2="24" y2="6"/>
      <circle cx="24" cy="6" r="2"/>
    </g>
    <g stroke="#3C484F" stroke-width="3" stroke-linecap="round" stroke-linejoin="round" transform="translate(1,1)">
      <rect x="20" y="16" width="8" height="22" rx="2"/>
      <rect x="8" y="20" width="12" height="14" rx="1"/>
      <rect x="28" y="20" width="12" height="14" rx="1"/>
      <line x1="14" y1="20" x2="14" y2="34"/>
      <line x1="34" y1="20" x2="34" y2="34"/>
      <line x1="24" y1="16" x2="24" y2="6"/>
      <circle cx="24" cy="6" r="2"/>
    </g>
    <g stroke="url(#iconGrad)" stroke-width="1.5" stroke-linecap="round" stroke-linejoin="round">
      <rect x="20" y="16" width="8" height="22" rx="2"/>
      <rect x="8" y="20" width="12" height="14" rx="1"/>
      <rect x="28" y="20" width="12" height="14" rx="1"/>
      <line x1="14" y1="20" x2="14" y2="34"/>
      <line x1="34" y1="20" x2="34" y2="34"/>
      <line x1="24" y1="16" x2="24" y2="6"/>
      <circle cx="24" cy="6" r="2"/>
    </g>
  </g>
</svg>