<svg xmlns="http://www.w3.org/2000/svg" viewBox="0 0 48 48">
  <defs>
    <linearGradient id="g" x1="0%" y1="0%" x2="100%" y2="100%">
      <stop offset="0%" stop-color="#c4bdda"/>
      <stop offset="100%" stop-color="#1f1b2b"/>
    </linearGradient>
    <filter id="shadow" x="-30%" y="-30%" width="160%" height="160%">
      <feDropShadow dx="2.5" dy="3.5" stdDeviation="3" flood-color="#1a1a2e" flood-opacity="0.45"/>
    </filter>
  </defs>
  <g filter="url(#shadow)" fill="none">
    <g stroke="#0f0d15" stroke-width="4.5" stroke-linecap="round" stroke-linejoin="round" transform="translate(2,2)">
    <ellipse cx="24" cy="24" rx="10" ry="8"/>
    <ellipse cx="24" cy="24" rx="20" ry="5" transform="rotate(-20 24 24)"/>
    <ellipse cx="24" cy="24" rx="18" ry="3" transform="rotate(-20 24 24)"/>
    </g>
    <g stroke="#1f1b2b" stroke-width="3" stroke-linecap="round" stroke-linejoin="round" transform="translate(1,1)">
    <ellipse cx="24" cy="24" rx="10" ry="8"/>
    <ellipse cx="24" cy="24" rx="20" ry="5" transform="rotate(-20 24 24)"/>
    <ellipse cx="24" cy="24" rx="18" ry="3" transform="rotate(-20 24 24)"/>
    </g>
    <g stroke="url(#g)" stroke-width="1.5" stroke-linecap="round" stroke-linejoin="round">
    <ellipse cx="24" cy="24" rx="10" ry="8"/>
    <ellipse cx="24" cy="24" rx="20" ry="5" transform="rotate(-20 24 24)"/>
    <ellipse cx="24" cy="24" rx="18" ry="3" transform="rotate(-20 24 24)"/>
    </g>
  </g>
</svg>