<svg xmlns="http://www.w3.org/2000/svg" viewBox="0 0 48 48">
  <defs>
    <linearGradient id="g" x1="0%" y1="0%" x2="100%" y2="100%">
      <stop offset="0%" stop-color="#d7b6c5"/>
      <stop offset="100%" stop-color="#2a1720"/>
    </linearGradient>
    <filter id="shadow" x="-30%" y="-30%" width="160%" height="160%">
      <feDropShadow dx="2.5" dy="3.5" stdDeviation="3" flood-color="#1a1a2e" flood-opacity="0.45"/>
    </filter>
  </defs>
  <g filter="url(#shadow)" fill="none">
    <g stroke="#150b10" stroke-width="4.5" stroke-linecap="round" stroke-linejoin="round" transform="translate(2,2)">
    <circle cx="24" cy="10" r="6"/>
    <circle cx="21" cy="8" r="1.5"/>
    <circle cx="27" cy="8" r="1.5"/>
    <path d="M20 14 L24 18 L28 14"/>
    <path d="M16 6 L12 2 L14 8 M32 6 L36 2 L34 8"/>
    <line x1="24" y1="18" x2="24" y2="44"/>
    <line x1="16" y1="28" x2="8" y2="44 M32 28 L40 44"/>
    </g>
    <g stroke="#2a1720" stroke-width="3" stroke-linecap="round" stroke-linejoin="round" transform="translate(1,1)">
    <circle cx="24" cy="10" r="6"/>
    <circle cx="21" cy="8" r="1.5"/>
    <circle cx="27" cy="8" r="1.5"/>
    <path d="M20 14 L24 18 L28 14"/>
    <path d="M16 6 L12 2 L14 8 M32 6 L36 2 L34 8"/>
    <line x1="24" y1="18" x2="24" y2="44"/>
    <line x1="16" y1="28" x2="8" y2="44 M32 28 L40 44"/>
    </g>
    <g stroke="url(#g)" stroke-width="1.5" stroke-linecap="round" stroke-linejoin="round">
    <circle cx="24" cy="10" r="6"/>
    <circle cx="21" cy="8" r="1.5"/>
    <circle cx="27" cy="8" r="1.5"/>
    <path d="M20 14 L24 18 L28 14"/>
    <path d="M16 6 L12 2 L14 8 M32 6 L36 2 L34 8"/>
    <line x1="24" y1="18" x2="24" y2="44"/>
    <line x1="16" y1="28" x2="8" y2="44 M32 28 L40 44"/>
    </g>
  </g>
</svg>