<svg xmlns="http://www.w3.org/2000/svg" viewBox="0 0 48 48">
  <defs>
    <linearGradient id="g" x1="0%" y1="0%" x2="100%" y2="100%">
      <stop offset="0%" stop-color="#bad6d7"/>
      <stop offset="100%" stop-color="#19292a"/>
    </linearGradient>
    <filter id="shadow" x="-30%" y="-30%" width="160%" height="160%">
      <feDropShadow dx="2.5" dy="3.5" stdDeviation="3" flood-color="#1a1a2e" flood-opacity="0.45"/>
    </filter>
  </defs>
  <g filter="url(#shadow)" fill="none">
    <g stroke="#0c1415" stroke-width="4.5" stroke-linecap="round" stroke-linejoin="round" transform="translate(2,2)">
    <ellipse cx="24" cy="24" rx="14" ry="6"/>
    <ellipse cx="24" cy="20" rx="12" ry="4"/>
    <line x1="10" y1="20" x2="38" y2="20 M10" y1="24" x2="38" y2="24"/>
    </g>
    <g stroke="#19292a" stroke-width="3" stroke-linecap="round" stroke-linejoin="round" transform="translate(1,1)">
    <ellipse cx="24" cy="24" rx="14" ry="6"/>
    <ellipse cx="24" cy="20" rx="12" ry="4"/>
    <line x1="10" y1="20" x2="38" y2="20 M10" y1="24" x2="38" y2="24"/>
    </g>
    <g stroke="url(#g)" stroke-width="1.5" stroke-linecap="round" stroke-linejoin="round">
    <ellipse cx="24" cy="24" rx="14" ry="6"/>
    <ellipse cx="24" cy="20" rx="12" ry="4"/>
    <line x1="10" y1="20" x2="38" y2="20 M10" y1="24" x2="38" y2="24"/>
    </g>
  </g>
</svg>