<svg xmlns="http://www.w3.org/2000/svg" viewBox="0 0 48 48">
  <defs>
    <linearGradient id="g" x1="0%" y1="0%" x2="100%" y2="100%">
      <stop offset="0%" stop-color="#ddbbb1"/>
      <stop offset="100%" stop-color="#2d1a14"/>
    </linearGradient>
    <filter id="shadow" x="-30%" y="-30%" width="160%" height="160%">
      <feDropShadow dx="2.5" dy="3.5" stdDeviation="3" flood-color="#1a1a2e" flood-opacity="0.45"/>
    </filter>
  </defs>
  <g filter="url(#shadow)" fill="none">
    <g stroke="#160d0a" stroke-width="4.5" stroke-linecap="round" stroke-linejoin="round" transform="translate(2,2)">
    <line x1="6" y1="8" x2="6" y2="44 M42 8 L42 44"/>
    <line x1="6" y1="16" x2="42" y2="16 M6 28 L42 28 M6 40 L42 40"/>
    <line x1="6" y1="8" x2="42" y2="8"/>
    <line x1="24" y1="8" x2="24" y2="44"/>
    </g>
    <g stroke="#2d1a14" stroke-width="3" stroke-linecap="round" stroke-linejoin="round" transform="translate(1,1)">
    <line x1="6" y1="8" x2="6" y2="44 M42 8 L42 44"/>
    <line x1="6" y1="16" x2="42" y2="16 M6 28 L42 28 M6 40 L42 40"/>
    <line x1="6" y1="8" x2="42" y2="8"/>
    <line x1="24" y1="8" x2="24" y2="44"/>
    </g>
    <g stroke="url(#g)" stroke-width="1.5" stroke-linecap="round" stroke-linejoin="round">
    <line x1="6" y1="8" x2="6" y2="44 M42 8 L42 44"/>
    <line x1="6" y1="16" x2="42" y2="16 M6 28 L42 28 M6 40 L42 40"/>
    <line x1="6" y1="8" x2="42" y2="8"/>
    <line x1="24" y1="8" x2="24" y2="44"/>
    </g>
  </g>
</svg>