<svg xmlns="http://www.w3.org/2000/svg" viewBox="0 0 48 48">
  <defs>
    <linearGradient id="g" x1="0%" y1="0%" x2="100%" y2="100%">
      <stop offset="0%" stop-color="#d8a8b7"/>
      <stop offset="100%" stop-color="#2a0f17"/>
    </linearGradient>
    <filter id="shadow" x="-30%" y="-30%" width="160%" height="160%">
      <feDropShadow dx="2.5" dy="3.5" stdDeviation="3" flood-color="#1a1a2e" flood-opacity="0.45"/>
    </filter>
  </defs>
  <g filter="url(#shadow)" fill="none">
    <g stroke="#15070b" stroke-width="4.5" stroke-linecap="round" stroke-linejoin="round" transform="translate(2,2)">
    <path d="M24 8 L20 18 L10 14 L16 24 L6 28 L18 30 L14 40 L24 32 L34 40 L30 30 L42 28 L32 24 L38 14 L28 18 Z"/>
    <line x1="24" y1="8" x2="24" y2="4"/>
    </g>
    <g stroke="#2a0f17" stroke-width="3" stroke-linecap="round" stroke-linejoin="round" transform="translate(1,1)">
    <path d="M24 8 L20 18 L10 14 L16 24 L6 28 L18 30 L14 40 L24 32 L34 40 L30 30 L42 28 L32 24 L38 14 L28 18 Z"/>
    <line x1="24" y1="8" x2="24" y2="4"/>
    </g>
    <g stroke="url(#g)" stroke-width="1.5" stroke-linecap="round" stroke-linejoin="round">
    <path d="M24 8 L20 18 L10 14 L16 24 L6 28 L18 30 L14 40 L24 32 L34 40 L30 30 L42 28 L32 24 L38 14 L28 18 Z"/>
    <line x1="24" y1="8" x2="24" y2="4"/>
    </g>
  </g>
</svg>