<svg xmlns="http://www.w3.org/2000/svg" viewBox="0 0 48 48">
  <defs>
    <linearGradient id="g" x1="0%" y1="0%" x2="100%" y2="100%">
      <stop offset="0%" stop-color="#b4c6cd"/>
      <stop offset="100%" stop-color="#162024"/>
    </linearGradient>
    <filter id="shadow" x="-30%" y="-30%" width="160%" height="160%">
      <feDropShadow dx="2.5" dy="3.5" stdDeviation="3" flood-color="#1a1a2e" flood-opacity="0.45"/>
    </filter>
  </defs>
  <g filter="url(#shadow)" fill="none">
    <g stroke="#0b1012" stroke-width="4.5" stroke-linecap="round" stroke-linejoin="round" transform="translate(2,2)">
    <path d="M6 38 Q16 28 24 14 Q30 4 36 8 Q32 14 28 20 Q20 30 14 40 Z"/>
    <line x1="14" y1="40" x2="10" y2="44"/>
    <line x1="24" y1="24" x2="28" y2="20"/>
    </g>
    <g stroke="#162024" stroke-width="3" stroke-linecap="round" stroke-linejoin="round" transform="translate(1,1)">
    <path d="M6 38 Q16 28 24 14 Q30 4 36 8 Q32 14 28 20 Q20 30 14 40 Z"/>
    <line x1="14" y1="40" x2="10" y2="44"/>
    <line x1="24" y1="24" x2="28" y2="20"/>
    </g>
    <g stroke="url(#g)" stroke-width="1.5" stroke-linecap="round" stroke-linejoin="round">
    <path d="M6 38 Q16 28 24 14 Q30 4 36 8 Q32 14 28 20 Q20 30 14 40 Z"/>
    <line x1="14" y1="40" x2="10" y2="44"/>
    <line x1="24" y1="24" x2="28" y2="20"/>
    </g>
  </g>
</svg>