<svg xmlns="http://www.w3.org/2000/svg" viewBox="0 0 48 48">
  <defs>
    <linearGradient id="g" x1="0%" y1="0%" x2="100%" y2="100%">
      <stop offset="0%" stop-color="#d1a0c1"/>
      <stop offset="100%" stop-color="#541841"/>
    </linearGradient>
    <filter id="sh" x="-30%" y="-30%" width="160%" height="160%">
      <feDropShadow dx="2.5" dy="3.5" stdDeviation="3" flood-color="#1a1a2e" flood-opacity="0.45"/>
    </filter>
  </defs>
  <g filter="url(#sh)" fill="none">
    <g stroke="#260b1d" stroke-width="4.5" stroke-linecap="round" stroke-linejoin="round" transform="translate(2,2)">
<rect x="6" y="4" width="36" height="28" rx="2"/>
        <rect x="12" y="10" width="12" height="8" rx="1"/>
        <rect x="12" y="22" width="12" height="4" rx="1"/>
        <circle cx="32" cy="14" r="4"/>
        <circle cx="32" cy="14" r="2"/>
    </g>
    <g stroke="#541841" stroke-width="3" stroke-linecap="round" stroke-linejoin="round" transform="translate(1,1)">
<rect x="6" y="4" width="36" height="28" rx="2"/>
        <rect x="12" y="10" width="12" height="8" rx="1"/>
        <rect x="12" y="22" width="12" height="4" rx="1"/>
        <circle cx="32" cy="14" r="4"/>
        <circle cx="32" cy="14" r="2"/>
    </g>
    <g stroke="url(#g)" stroke-width="1.5" stroke-linecap="round" stroke-linejoin="round">
<rect x="6" y="4" width="36" height="28" rx="2"/>
        <rect x="12" y="10" width="12" height="8" rx="1"/>
        <rect x="12" y="22" width="12" height="4" rx="1"/>
        <circle cx="32" cy="14" r="4"/>
        <circle cx="32" cy="14" r="2"/>
    </g>
  </g>
</svg>