<svg xmlns="http://www.w3.org/2000/svg" viewBox="0 0 48 48">
  <defs>
    <linearGradient id="g" x1="0%" y1="0%" x2="100%" y2="100%">
      <stop offset="0%" stop-color="#90A4AE"/>
      <stop offset="100%" stop-color="#1F282D"/>
    </linearGradient>
    <filter id="sh" x="-30%" y="-30%" width="160%" height="160%">
      <feDropShadow dx="2.5" dy="3.5" stdDeviation="3" flood-color="#1a1a2e" flood-opacity="0.45"/>
    </filter>
  </defs>
  <g filter="url(#sh)" fill="none">
    <g stroke="#0F1416" stroke-width="4.5" stroke-linecap="round" stroke-linejoin="round" transform="translate(2,2)">
    <rect x="6" y="6" width="36" height="8" rx="2"/>
        <rect x="6" y="34" width="36" height="8" rx="2"/>
        <rect x="8" y="14" width="32" height="20" rx="1"/>
        <line x1="24" y1="14" x2="24" y2="34"/>
    </g>
    <g stroke="#1F282D" stroke-width="3" stroke-linecap="round" stroke-linejoin="round" transform="translate(1,1)">
    <rect x="6" y="6" width="36" height="8" rx="2"/>
        <rect x="6" y="34" width="36" height="8" rx="2"/>
        <rect x="8" y="14" width="32" height="20" rx="1"/>
        <line x1="24" y1="14" x2="24" y2="34"/>
    </g>
    <g stroke="url(#g)" stroke-width="1.5" stroke-linecap="round" stroke-linejoin="round">
    <rect x="6" y="6" width="36" height="8" rx="2"/>
        <rect x="6" y="34" width="36" height="8" rx="2"/>
        <rect x="8" y="14" width="32" height="20" rx="1"/>
        <line x1="24" y1="14" x2="24" y2="34"/>
    </g>
  </g>
</svg>