<svg xmlns="http://www.w3.org/2000/svg" viewBox="0 0 48 48">
  <defs>
    <linearGradient id="iconGrad" x1="0%" y1="0%" x2="100%" y2="100%">
      <stop offset="0%" stop-color="#E6EE9C"/>
      <stop offset="100%" stop-color="#797f40"/>
    </linearGradient>
    <filter id="shadow" x="-30%" y="-30%" width="160%" height="160%">
      <feDropShadow dx="2.5" dy="3.5" stdDeviation="3" flood-color="#1a1a2e" flood-opacity="0.45"/>
    </filter>
  </defs>
  <g filter="url(#shadow)" fill="none">
    <g stroke="#3c3f20" stroke-width="4.5" stroke-linecap="round" stroke-linejoin="round" transform="translate(2,2)">
      <path d="M20 12h8v10l8 12a4 4 0 01-3.2 6H15.2a4 4 0 01-3.2-6l8-12V12z"/>
    <line x1="16" y1="32" x2="32" y2="32"/>
    <line x1="18" y1="12" x2="18" y2="8"/>
    <line x1="22" y1="12" x2="22" y2="8"/>
    <line x1="26" y1="12" x2="26" y2="8"/>
    <line x1="30" y1="12" x2="30" y2="8"/>
    <line x1="20" y1="37" x2="28" y2="37"/>
    </g>
    <g stroke="#797f40" stroke-width="3" stroke-linecap="round" stroke-linejoin="round" transform="translate(1,1)">
      <path d="M20 12h8v10l8 12a4 4 0 01-3.2 6H15.2a4 4 0 01-3.2-6l8-12V12z"/>
    <line x1="16" y1="32" x2="32" y2="32"/>
    <line x1="18" y1="12" x2="18" y2="8"/>
    <line x1="22" y1="12" x2="22" y2="8"/>
    <line x1="26" y1="12" x2="26" y2="8"/>
    <line x1="30" y1="12" x2="30" y2="8"/>
    <line x1="20" y1="37" x2="28" y2="37"/>
    </g>
    <g stroke="url(#iconGrad)" stroke-width="1.5" stroke-linecap="round" stroke-linejoin="round">
      <path d="M20 12h8v10l8 12a4 4 0 01-3.2 6H15.2a4 4 0 01-3.2-6l8-12V12z"/>
    <line x1="16" y1="32" x2="32" y2="32"/>
    <line x1="18" y1="12" x2="18" y2="8"/>
    <line x1="22" y1="12" x2="22" y2="8"/>
    <line x1="26" y1="12" x2="26" y2="8"/>
    <line x1="30" y1="12" x2="30" y2="8"/>
    <line x1="20" y1="37" x2="28" y2="37"/>
    </g>
  </g>
</svg>
