<svg xmlns="http://www.w3.org/2000/svg" viewBox="0 0 48 48">
  <defs>
    <linearGradient id="g" x1="0%" y1="0%" x2="100%" y2="100%">
      <stop offset="0%" stop-color="#b2dbba"/>
      <stop offset="100%" stop-color="#2f6038"/>
    </linearGradient>
    <filter id="sh" x="-30%" y="-30%" width="160%" height="160%">
      <feDropShadow dx="2.5" dy="3.5" stdDeviation="3" flood-color="#1a1a2e" flood-opacity="0.45"/>
    </filter>
  </defs>
  <g filter="url(#sh)" fill="none">
    <g stroke="#152b19" stroke-width="4.5" stroke-linecap="round" stroke-linejoin="round" transform="translate(2,2)">
<line x1="10" y1="26" x2="38" y2="26"/>
        <line x1="10" y1="26" x2="10" y2="36"/>
        <line x1="38" y1="26" x2="38" y2="36"/>
        <line x1="10" y1="36" x2="38" y2="36"/>
        <line x1="24" y1="10" x2="24" y2="20"/>
        <line x1="18" y1="10" x2="30" y2="10"/>
        <circle cx="16" cy="38" r="3"/>
        <circle cx="32" cy="38" r="3"/>
    </g>
    <g stroke="#2f6038" stroke-width="3" stroke-linecap="round" stroke-linejoin="round" transform="translate(1,1)">
<line x1="10" y1="26" x2="38" y2="26"/>
        <line x1="10" y1="26" x2="10" y2="36"/>
        <line x1="38" y1="26" x2="38" y2="36"/>
        <line x1="10" y1="36" x2="38" y2="36"/>
        <line x1="24" y1="10" x2="24" y2="20"/>
        <line x1="18" y1="10" x2="30" y2="10"/>
        <circle cx="16" cy="38" r="3"/>
        <circle cx="32" cy="38" r="3"/>
    </g>
    <g stroke="url(#g)" stroke-width="1.5" stroke-linecap="round" stroke-linejoin="round">
<line x1="10" y1="26" x2="38" y2="26"/>
        <line x1="10" y1="26" x2="10" y2="36"/>
        <line x1="38" y1="26" x2="38" y2="36"/>
        <line x1="10" y1="36" x2="38" y2="36"/>
        <line x1="24" y1="10" x2="24" y2="20"/>
        <line x1="18" y1="10" x2="30" y2="10"/>
        <circle cx="16" cy="38" r="3"/>
        <circle cx="32" cy="38" r="3"/>
    </g>
  </g>
</svg>