<svg xmlns="http://www.w3.org/2000/svg" viewBox="0 0 48 48">
  <defs>
    <linearGradient id="g" x1="0%" y1="0%" x2="100%" y2="100%">
      <stop offset="0%" stop-color="#c9c2b7"/>
      <stop offset="100%" stop-color="#221e17"/>
    </linearGradient>
    <filter id="shadow" x="-30%" y="-30%" width="160%" height="160%">
      <feDropShadow dx="2.5" dy="3.5" stdDeviation="3" flood-color="#1a1a2e" flood-opacity="0.45"/>
    </filter>
  </defs>
  <g filter="url(#shadow)" fill="none">
    <g stroke="#110f0b" stroke-width="4.5" stroke-linecap="round" stroke-linejoin="round" transform="translate(2,2)">
    <line x1="24" y1="4" x2="24" y2="44"/>
    <rect x="18" y="10" width="12" height="30" rx="3"/>
    <line x1="18" y1="18" x2="30" y2="18 M18 28 L30 28 M18 38 L30 38"/>
    <path d="M18 10 L24 4 L30 10"/>
    </g>
    <g stroke="#221e17" stroke-width="3" stroke-linecap="round" stroke-linejoin="round" transform="translate(1,1)">
    <line x1="24" y1="4" x2="24" y2="44"/>
    <rect x="18" y="10" width="12" height="30" rx="3"/>
    <line x1="18" y1="18" x2="30" y2="18 M18 28 L30 28 M18 38 L30 38"/>
    <path d="M18 10 L24 4 L30 10"/>
    </g>
    <g stroke="url(#g)" stroke-width="1.5" stroke-linecap="round" stroke-linejoin="round">
    <line x1="24" y1="4" x2="24" y2="44"/>
    <rect x="18" y="10" width="12" height="30" rx="3"/>
    <line x1="18" y1="18" x2="30" y2="18 M18 28 L30 28 M18 38 L30 38"/>
    <path d="M18 10 L24 4 L30 10"/>
    </g>
  </g>
</svg>