<svg xmlns="http://www.w3.org/2000/svg" viewBox="0 0 48 48">
  <defs>
    <linearGradient id="g" x1="0%" y1="0%" x2="100%" y2="100%">
      <stop offset="0%" stop-color="#a0adc6"/>
      <stop offset="100%" stop-color="#0b1220"/>
    </linearGradient>
    <filter id="shadow" x="-30%" y="-30%" width="160%" height="160%">
      <feDropShadow dx="2.5" dy="3.5" stdDeviation="3" flood-color="#1a1a2e" flood-opacity="0.45"/>
    </filter>
  </defs>
  <g filter="url(#shadow)" fill="none">
    <g stroke="#050910" stroke-width="4.5" stroke-linecap="round" stroke-linejoin="round" transform="translate(2,2)">
    <line x1="12" y1="8" x2="36" y2="40"/>
    <rect x="8" y="4" width="8" height="10" rx="3" transform="rotate(-45 12 9)"/>
    <rect x="32" y="36" width="8" height="10" rx="2" transform="rotate(-45 36 41)"/>
    </g>
    <g stroke="#0b1220" stroke-width="3" stroke-linecap="round" stroke-linejoin="round" transform="translate(1,1)">
    <line x1="12" y1="8" x2="36" y2="40"/>
    <rect x="8" y="4" width="8" height="10" rx="3" transform="rotate(-45 12 9)"/>
    <rect x="32" y="36" width="8" height="10" rx="2" transform="rotate(-45 36 41)"/>
    </g>
    <g stroke="url(#g)" stroke-width="1.5" stroke-linecap="round" stroke-linejoin="round">
    <line x1="12" y1="8" x2="36" y2="40"/>
    <rect x="8" y="4" width="8" height="10" rx="3" transform="rotate(-45 12 9)"/>
    <rect x="32" y="36" width="8" height="10" rx="2" transform="rotate(-45 36 41)"/>
    </g>
  </g>
</svg>