<svg xmlns="http://www.w3.org/2000/svg" viewBox="0 0 48 48">
  <defs>
    <linearGradient id="g" x1="0%" y1="0%" x2="100%" y2="100%">
      <stop offset="0%" stop-color="#b2c7de"/>
      <stop offset="100%" stop-color="#15202d"/>
    </linearGradient>
    <filter id="shadow" x="-30%" y="-30%" width="160%" height="160%">
      <feDropShadow dx="2.5" dy="3.5" stdDeviation="3" flood-color="#1a1a2e" flood-opacity="0.45"/>
    </filter>
  </defs>
  <g filter="url(#shadow)" fill="none">
    <g stroke="#0a1016" stroke-width="4.5" stroke-linecap="round" stroke-linejoin="round" transform="translate(2,2)">
    <path d="M36 6 Q10 12 10 28 Q10 32 14 32 Q18 32 18 28 Q18 16 36 6 Z"/>
    <line x1="10" y1="32" x2="10" y2="44"/>
    <line x1="10" y1="38" x2="6" y2="44 M10 38 L14 44"/>
    </g>
    <g stroke="#15202d" stroke-width="3" stroke-linecap="round" stroke-linejoin="round" transform="translate(1,1)">
    <path d="M36 6 Q10 12 10 28 Q10 32 14 32 Q18 32 18 28 Q18 16 36 6 Z"/>
    <line x1="10" y1="32" x2="10" y2="44"/>
    <line x1="10" y1="38" x2="6" y2="44 M10 38 L14 44"/>
    </g>
    <g stroke="url(#g)" stroke-width="1.5" stroke-linecap="round" stroke-linejoin="round">
    <path d="M36 6 Q10 12 10 28 Q10 32 14 32 Q18 32 18 28 Q18 16 36 6 Z"/>
    <line x1="10" y1="32" x2="10" y2="44"/>
    <line x1="10" y1="38" x2="6" y2="44 M10 38 L14 44"/>
    </g>
  </g>
</svg>