<svg xmlns="http://www.w3.org/2000/svg" viewBox="0 0 48 48">
  <defs>
    <linearGradient id="g" x1="0%" y1="0%" x2="100%" y2="100%">
      <stop offset="0%" stop-color="#d3aea2"/>
      <stop offset="100%" stop-color="#27130c"/>
    </linearGradient>
    <filter id="shadow" x="-30%" y="-30%" width="160%" height="160%">
      <feDropShadow dx="2.5" dy="3.5" stdDeviation="3" flood-color="#1a1a2e" flood-opacity="0.45"/>
    </filter>
  </defs>
  <g filter="url(#shadow)" fill="none">
    <g stroke="#130906" stroke-width="4.5" stroke-linecap="round" stroke-linejoin="round" transform="translate(2,2)">
    <ellipse cx="24" cy="26" rx="13" ry="9"/>
    <circle cx="24" cy="16" r="6"/>
    <circle cx="19" cy="14" r="2"/>
    <circle cx="29" cy="14" r="2"/>
    <path d="M26 18 Q34 12 36 18 Q34 22 28 20"/>
    <path d="M22 24 L22 34 M26 24 L26 34"/>
    <path d="M14 32 Q10 36 6 42 M34 32 Q38 36 42 42"/>
    </g>
    <g stroke="#27130c" stroke-width="3" stroke-linecap="round" stroke-linejoin="round" transform="translate(1,1)">
    <ellipse cx="24" cy="26" rx="13" ry="9"/>
    <circle cx="24" cy="16" r="6"/>
    <circle cx="19" cy="14" r="2"/>
    <circle cx="29" cy="14" r="2"/>
    <path d="M26 18 Q34 12 36 18 Q34 22 28 20"/>
    <path d="M22 24 L22 34 M26 24 L26 34"/>
    <path d="M14 32 Q10 36 6 42 M34 32 Q38 36 42 42"/>
    </g>
    <g stroke="url(#g)" stroke-width="1.5" stroke-linecap="round" stroke-linejoin="round">
    <ellipse cx="24" cy="26" rx="13" ry="9"/>
    <circle cx="24" cy="16" r="6"/>
    <circle cx="19" cy="14" r="2"/>
    <circle cx="29" cy="14" r="2"/>
    <path d="M26 18 Q34 12 36 18 Q34 22 28 20"/>
    <path d="M22 24 L22 34 M26 24 L26 34"/>
    <path d="M14 32 Q10 36 6 42 M34 32 Q38 36 42 42"/>
    </g>
  </g>
</svg>