<svg xmlns="http://www.w3.org/2000/svg" viewBox="0 0 48 48">
  <defs>
    <linearGradient id="g" x1="0%" y1="0%" x2="100%" y2="100%">
      <stop offset="0%" stop-color="#bbc4af"/>
      <stop offset="100%" stop-color="#39442b"/>
    </linearGradient>
    <filter id="sh" x="-30%" y="-30%" width="160%" height="160%">
      <feDropShadow dx="2.5" dy="3.5" stdDeviation="3" flood-color="#1a1a2e" flood-opacity="0.45"/>
    </filter>
  </defs>
  <g filter="url(#sh)" fill="none">
    <g stroke="#1a1f13" stroke-width="4.5" stroke-linecap="round" stroke-linejoin="round" transform="translate(2,2)">
<ellipse cx="24" cy="26" rx="14" ry="10"/><circle cx="24" cy="10" r="8"/><circle cx="22" cy="8" r="2"/><path d="M10 26 L6 34 L10 32"/><path d="M38 26 L42 34 L38 32"/><circle cx="20" cy="24" r="2"/><circle cx="28" cy="24" r="2"/>
    </g>
    <g stroke="#39442b" stroke-width="3" stroke-linecap="round" stroke-linejoin="round" transform="translate(1,1)">
<ellipse cx="24" cy="26" rx="14" ry="10"/><circle cx="24" cy="10" r="8"/><circle cx="22" cy="8" r="2"/><path d="M10 26 L6 34 L10 32"/><path d="M38 26 L42 34 L38 32"/><circle cx="20" cy="24" r="2"/><circle cx="28" cy="24" r="2"/>
    </g>
    <g stroke="url(#g)" stroke-width="1.5" stroke-linecap="round" stroke-linejoin="round">
<ellipse cx="24" cy="26" rx="14" ry="10"/><circle cx="24" cy="10" r="8"/><circle cx="22" cy="8" r="2"/><path d="M10 26 L6 34 L10 32"/><path d="M38 26 L42 34 L38 32"/><circle cx="20" cy="24" r="2"/><circle cx="28" cy="24" r="2"/>
    </g>
  </g>
</svg>