<svg xmlns="http://www.w3.org/2000/svg" viewBox="0 0 48 48">
  <defs>
    <linearGradient id="g" x1="0%" y1="0%" x2="100%" y2="100%">
      <stop offset="0%" stop-color="#cdc4df"/>
      <stop offset="100%" stop-color="#4f4566"/>
    </linearGradient>
    <filter id="sh" x="-30%" y="-30%" width="160%" height="160%">
      <feDropShadow dx="2.5" dy="3.5" stdDeviation="3" flood-color="#1a1a2e" flood-opacity="0.45"/>
    </filter>
  </defs>
  <g filter="url(#sh)" fill="none">
    <g stroke="#241f2e" stroke-width="4.5" stroke-linecap="round" stroke-linejoin="round" transform="translate(2,2)">
<ellipse cx="24" cy="28" rx="16" ry="10"/><circle cx="24" cy="10" r="8"/><circle cx="22" cy="8" r="2"/><path d="M8 28 L4 36 L8 34"/><path d="M40 28 L44 36 L40 34"/><circle cx="18" cy="26" r="2"/><circle cx="30" cy="26" r="2"/><line x1="24" y1="28" x2="24" y2="36"/>
    </g>
    <g stroke="#4f4566" stroke-width="3" stroke-linecap="round" stroke-linejoin="round" transform="translate(1,1)">
<ellipse cx="24" cy="28" rx="16" ry="10"/><circle cx="24" cy="10" r="8"/><circle cx="22" cy="8" r="2"/><path d="M8 28 L4 36 L8 34"/><path d="M40 28 L44 36 L40 34"/><circle cx="18" cy="26" r="2"/><circle cx="30" cy="26" r="2"/><line x1="24" y1="28" x2="24" y2="36"/>
    </g>
    <g stroke="url(#g)" stroke-width="1.5" stroke-linecap="round" stroke-linejoin="round">
<ellipse cx="24" cy="28" rx="16" ry="10"/><circle cx="24" cy="10" r="8"/><circle cx="22" cy="8" r="2"/><path d="M8 28 L4 36 L8 34"/><path d="M40 28 L44 36 L40 34"/><circle cx="18" cy="26" r="2"/><circle cx="30" cy="26" r="2"/><line x1="24" y1="28" x2="24" y2="36"/>
    </g>
  </g>
</svg>