<svg xmlns="http://www.w3.org/2000/svg" viewBox="0 0 48 48">
  <defs>
    <linearGradient id="g" x1="0%" y1="0%" x2="100%" y2="100%">
      <stop offset="0%" stop-color="#b2dfd6"/>
      <stop offset="100%" stop-color="#2e665a"/>
    </linearGradient>
    <filter id="sh" x="-30%" y="-30%" width="160%" height="160%">
      <feDropShadow dx="2.5" dy="3.5" stdDeviation="3" flood-color="#1a1a2e" flood-opacity="0.45"/>
    </filter>
  </defs>
  <g filter="url(#sh)" fill="none">
    <g stroke="#152e29" stroke-width="4.5" stroke-linecap="round" stroke-linejoin="round" transform="translate(2,2)">
<path d="M4 28 Q4 16 24 16 Q38 16 44 28 L38 34 L32 28 L26 34 L20 28 L14 34 Z"/>
        <circle cx="14" cy="24" r="2.5"/>
        <polygon points="40,18 46,12 44,22"/>
    </g>
    <g stroke="#2e665a" stroke-width="3" stroke-linecap="round" stroke-linejoin="round" transform="translate(1,1)">
<path d="M4 28 Q4 16 24 16 Q38 16 44 28 L38 34 L32 28 L26 34 L20 28 L14 34 Z"/>
        <circle cx="14" cy="24" r="2.5"/>
        <polygon points="40,18 46,12 44,22"/>
    </g>
    <g stroke="url(#g)" stroke-width="1.5" stroke-linecap="round" stroke-linejoin="round">
<path d="M4 28 Q4 16 24 16 Q38 16 44 28 L38 34 L32 28 L26 34 L20 28 L14 34 Z"/>
        <circle cx="14" cy="24" r="2.5"/>
        <polygon points="40,18 46,12 44,22"/>
    </g>
  </g>
</svg>