<svg xmlns="http://www.w3.org/2000/svg" viewBox="0 0 48 48">
  <defs>
    <linearGradient id="g" x1="0%" y1="0%" x2="100%" y2="100%">
      <stop offset="0%" stop-color="#CE93D8"/>
      <stop offset="100%" stop-color="#3C0F56"/>
    </linearGradient>
    <filter id="sh" x="-30%" y="-30%" width="160%" height="160%">
      <feDropShadow dx="2.5" dy="3.5" stdDeviation="3" flood-color="#1a1a2e" flood-opacity="0.45"/>
    </filter>
  </defs>
  <g filter="url(#sh)" fill="none">
    <g stroke="#1E072B" stroke-width="4.5" stroke-linecap="round" stroke-linejoin="round" transform="translate(2,2)">
    <circle cx="34" cy="12" r="5"/>
        <circle cx="12" cy="24" r="5"/>
        <circle cx="34" cy="36" r="5"/>
        <line x1="17" y1="22" x2="29" y2="14"/>
        <line x1="17" y1="26" x2="29" y2="34"/>
    </g>
    <g stroke="#3C0F56" stroke-width="3" stroke-linecap="round" stroke-linejoin="round" transform="translate(1,1)">
    <circle cx="34" cy="12" r="5"/>
        <circle cx="12" cy="24" r="5"/>
        <circle cx="34" cy="36" r="5"/>
        <line x1="17" y1="22" x2="29" y2="14"/>
        <line x1="17" y1="26" x2="29" y2="34"/>
    </g>
    <g stroke="url(#g)" stroke-width="1.5" stroke-linecap="round" stroke-linejoin="round">
    <circle cx="34" cy="12" r="5"/>
        <circle cx="12" cy="24" r="5"/>
        <circle cx="34" cy="36" r="5"/>
        <line x1="17" y1="22" x2="29" y2="14"/>
        <line x1="17" y1="26" x2="29" y2="34"/>
    </g>
  </g>
</svg>