<svg xmlns="http://www.w3.org/2000/svg" viewBox="0 0 48 48">
  <defs>
    <linearGradient id="g" x1="0%" y1="0%" x2="100%" y2="100%">
      <stop offset="0%" stop-color="#adc2c4"/>
      <stop offset="100%" stop-color="#121e1f"/>
    </linearGradient>
    <filter id="shadow" x="-30%" y="-30%" width="160%" height="160%">
      <feDropShadow dx="2.5" dy="3.5" stdDeviation="3" flood-color="#1a1a2e" flood-opacity="0.45"/>
    </filter>
  </defs>
  <g filter="url(#shadow)" fill="none">
    <g stroke="#090f0f" stroke-width="4.5" stroke-linecap="round" stroke-linejoin="round" transform="translate(2,2)">
    <path d="M8 8 L24 22 L40 8"/>
    <path d="M8 8 Q12 18 8 26 M40 8 Q36 18 40 26"/>
    <circle cx="16" cy="6" r="3"/>
    <circle cx="32" cy="6" r="3"/>
    </g>
    <g stroke="#121e1f" stroke-width="3" stroke-linecap="round" stroke-linejoin="round" transform="translate(1,1)">
    <path d="M8 8 L24 22 L40 8"/>
    <path d="M8 8 Q12 18 8 26 M40 8 Q36 18 40 26"/>
    <circle cx="16" cy="6" r="3"/>
    <circle cx="32" cy="6" r="3"/>
    </g>
    <g stroke="url(#g)" stroke-width="1.5" stroke-linecap="round" stroke-linejoin="round">
    <path d="M8 8 L24 22 L40 8"/>
    <path d="M8 8 Q12 18 8 26 M40 8 Q36 18 40 26"/>
    <circle cx="16" cy="6" r="3"/>
    <circle cx="32" cy="6" r="3"/>
    </g>
  </g>
</svg>