<svg xmlns="http://www.w3.org/2000/svg" viewBox="0 0 48 48">
  <defs>
    <linearGradient id="g" x1="0%" y1="0%" x2="100%" y2="100%">
      <stop offset="0%" stop-color="#dabeb9"/>
      <stop offset="100%" stop-color="#5f3d37"/>
    </linearGradient>
    <filter id="sh" x="-30%" y="-30%" width="160%" height="160%">
      <feDropShadow dx="2.5" dy="3.5" stdDeviation="3" flood-color="#1a1a2e" flood-opacity="0.45"/>
    </filter>
  </defs>
  <g filter="url(#sh)" fill="none">
    <g stroke="#2b1c19" stroke-width="4.5" stroke-linecap="round" stroke-linejoin="round" transform="translate(2,2)">
<rect x="6" y="22" width="36" height="14" rx="4"/>
        <rect x="12" y="18" width="24" height="4" rx="2"/>
        <path d="M12 18 L8 8 L16 12 Z"/>
        <path d="M36 18 L40 8 L32 12 Z"/>
    </g>
    <g stroke="#5f3d37" stroke-width="3" stroke-linecap="round" stroke-linejoin="round" transform="translate(1,1)">
<rect x="6" y="22" width="36" height="14" rx="4"/>
        <rect x="12" y="18" width="24" height="4" rx="2"/>
        <path d="M12 18 L8 8 L16 12 Z"/>
        <path d="M36 18 L40 8 L32 12 Z"/>
    </g>
    <g stroke="url(#g)" stroke-width="1.5" stroke-linecap="round" stroke-linejoin="round">
<rect x="6" y="22" width="36" height="14" rx="4"/>
        <rect x="12" y="18" width="24" height="4" rx="2"/>
        <path d="M12 18 L8 8 L16 12 Z"/>
        <path d="M36 18 L40 8 L32 12 Z"/>
    </g>
  </g>
</svg>