<svg xmlns="http://www.w3.org/2000/svg" viewBox="0 0 48 48">
  <defs>
    <linearGradient id="g" x1="0%" y1="0%" x2="100%" y2="100%">
      <stop offset="0%" stop-color="#bcd1a7"/>
      <stop offset="100%" stop-color="#1b260f"/>
    </linearGradient>
    <filter id="shadow" x="-30%" y="-30%" width="160%" height="160%">
      <feDropShadow dx="2.5" dy="3.5" stdDeviation="3" flood-color="#1a1a2e" flood-opacity="0.45"/>
    </filter>
  </defs>
  <g filter="url(#shadow)" fill="none">
    <g stroke="#0d1307" stroke-width="4.5" stroke-linecap="round" stroke-linejoin="round" transform="translate(2,2)">
    <path d="M8 14 L10 42 Q10 44 14 44 L34 44 Q38 44 38 42 L40 14 Z"/>
    <path d="M8 14 Q8 8 16 8 Q24 8 24 14 Q24 8 32 8 Q40 8 40 14"/>
    <line x1="14" y1="22" x2="34" y2="22 M14 30 L34 30 M14 38 L34 38"/>
    </g>
    <g stroke="#1b260f" stroke-width="3" stroke-linecap="round" stroke-linejoin="round" transform="translate(1,1)">
    <path d="M8 14 L10 42 Q10 44 14 44 L34 44 Q38 44 38 42 L40 14 Z"/>
    <path d="M8 14 Q8 8 16 8 Q24 8 24 14 Q24 8 32 8 Q40 8 40 14"/>
    <line x1="14" y1="22" x2="34" y2="22 M14 30 L34 30 M14 38 L34 38"/>
    </g>
    <g stroke="url(#g)" stroke-width="1.5" stroke-linecap="round" stroke-linejoin="round">
    <path d="M8 14 L10 42 Q10 44 14 44 L34 44 Q38 44 38 42 L40 14 Z"/>
    <path d="M8 14 Q8 8 16 8 Q24 8 24 14 Q24 8 32 8 Q40 8 40 14"/>
    <line x1="14" y1="22" x2="34" y2="22 M14 30 L34 30 M14 38 L34 38"/>
    </g>
  </g>
</svg>