<svg xmlns="http://www.w3.org/2000/svg" viewBox="0 0 48 48">
  <defs>
    <linearGradient id="g" x1="0%" y1="0%" x2="100%" y2="100%">
      <stop offset="0%" stop-color="#dfc0cc"/>
      <stop offset="100%" stop-color="#66404e"/>
    </linearGradient>
    <filter id="sh" x="-30%" y="-30%" width="160%" height="160%">
      <feDropShadow dx="2.5" dy="3.5" stdDeviation="3" flood-color="#1a1a2e" flood-opacity="0.45"/>
    </filter>
  </defs>
  <g filter="url(#sh)" fill="none">
    <g stroke="#2e1d23" stroke-width="4.5" stroke-linecap="round" stroke-linejoin="round" transform="translate(2,2)">
<path d="M8 12 L20 8 L20 44 L8 40 Z"/>
        <path d="M40 12 L28 8 L28 44 L40 40 Z"/>
    </g>
    <g stroke="#66404e" stroke-width="3" stroke-linecap="round" stroke-linejoin="round" transform="translate(1,1)">
<path d="M8 12 L20 8 L20 44 L8 40 Z"/>
        <path d="M40 12 L28 8 L28 44 L40 40 Z"/>
    </g>
    <g stroke="url(#g)" stroke-width="1.5" stroke-linecap="round" stroke-linejoin="round">
<path d="M8 12 L20 8 L20 44 L8 40 Z"/>
        <path d="M40 12 L28 8 L28 44 L40 40 Z"/>
    </g>
  </g>
</svg>