<svg xmlns="http://www.w3.org/2000/svg" viewBox="0 0 48 48">
  <defs>
    <linearGradient id="g" x1="0%" y1="0%" x2="100%" y2="100%">
      <stop offset="0%" stop-color="#ced1b5"/>
      <stop offset="100%" stop-color="#505432"/>
    </linearGradient>
    <filter id="sh" x="-30%" y="-30%" width="160%" height="160%">
      <feDropShadow dx="2.5" dy="3.5" stdDeviation="3" flood-color="#1a1a2e" flood-opacity="0.45"/>
    </filter>
  </defs>
  <g filter="url(#sh)" fill="none">
    <g stroke="#242616" stroke-width="4.5" stroke-linecap="round" stroke-linejoin="round" transform="translate(2,2)">
<rect x="8" y="18" width="32" height="16" rx="4"/>
        <ellipse cx="24" cy="26" rx="8" ry="6"/>
        <line x1="24" y1="34" x2="24" y2="40"/>
        <rect x="18" y="12" width="12" height="6" rx="2"/>
    </g>
    <g stroke="#505432" stroke-width="3" stroke-linecap="round" stroke-linejoin="round" transform="translate(1,1)">
<rect x="8" y="18" width="32" height="16" rx="4"/>
        <ellipse cx="24" cy="26" rx="8" ry="6"/>
        <line x1="24" y1="34" x2="24" y2="40"/>
        <rect x="18" y="12" width="12" height="6" rx="2"/>
    </g>
    <g stroke="url(#g)" stroke-width="1.5" stroke-linecap="round" stroke-linejoin="round">
<rect x="8" y="18" width="32" height="16" rx="4"/>
        <ellipse cx="24" cy="26" rx="8" ry="6"/>
        <line x1="24" y1="34" x2="24" y2="40"/>
        <rect x="18" y="12" width="12" height="6" rx="2"/>
    </g>
  </g>
</svg>