<svg xmlns="http://www.w3.org/2000/svg" viewBox="0 0 48 48">
  <defs>
    <linearGradient id="g" x1="0%" y1="0%" x2="100%" y2="100%">
      <stop offset="0%" stop-color="#deaed7"/>
      <stop offset="100%" stop-color="#642a5b"/>
    </linearGradient>
    <filter id="sh" x="-30%" y="-30%" width="160%" height="160%">
      <feDropShadow dx="2.5" dy="3.5" stdDeviation="3" flood-color="#1a1a2e" flood-opacity="0.45"/>
    </filter>
  </defs>
  <g filter="url(#sh)" fill="none">
    <g stroke="#2d1329" stroke-width="4.5" stroke-linecap="round" stroke-linejoin="round" transform="translate(2,2)">
<path d="M24 4 L42 16 L24 28 L6 16 Z"/>
        <line x1="24" y1="28" x2="24" y2="44"/>
        <rect x="16" y="40" width="16" height="4" rx="2"/>
    </g>
    <g stroke="#642a5b" stroke-width="3" stroke-linecap="round" stroke-linejoin="round" transform="translate(1,1)">
<path d="M24 4 L42 16 L24 28 L6 16 Z"/>
        <line x1="24" y1="28" x2="24" y2="44"/>
        <rect x="16" y="40" width="16" height="4" rx="2"/>
    </g>
    <g stroke="url(#g)" stroke-width="1.5" stroke-linecap="round" stroke-linejoin="round">
<path d="M24 4 L42 16 L24 28 L6 16 Z"/>
        <line x1="24" y1="28" x2="24" y2="44"/>
        <rect x="16" y="40" width="16" height="4" rx="2"/>
    </g>
  </g>
</svg>