<svg xmlns="http://www.w3.org/2000/svg" viewBox="0 0 48 48">
  <defs>
    <linearGradient id="g" x1="0%" y1="0%" x2="100%" y2="100%">
      <stop offset="0%" stop-color="#dddab9"/>
      <stop offset="100%" stop-color="#635f37"/>
    </linearGradient>
    <filter id="sh" x="-30%" y="-30%" width="160%" height="160%">
      <feDropShadow dx="2.5" dy="3.5" stdDeviation="3" flood-color="#1a1a2e" flood-opacity="0.45"/>
    </filter>
  </defs>
  <g filter="url(#sh)" fill="none">
    <g stroke="#2d2b19" stroke-width="4.5" stroke-linecap="round" stroke-linejoin="round" transform="translate(2,2)">
<line x1="10" y1="4" x2="10" y2="40"/>
        <line x1="10" y1="4" x2="24" y2="4"/>
        <line x1="10" y1="40" x2="24" y2="40"/>
        <path d="M32 8 L40 4 L40 44 L32 40"/>
    </g>
    <g stroke="#635f37" stroke-width="3" stroke-linecap="round" stroke-linejoin="round" transform="translate(1,1)">
<line x1="10" y1="4" x2="10" y2="40"/>
        <line x1="10" y1="4" x2="24" y2="4"/>
        <line x1="10" y1="40" x2="24" y2="40"/>
        <path d="M32 8 L40 4 L40 44 L32 40"/>
    </g>
    <g stroke="url(#g)" stroke-width="1.5" stroke-linecap="round" stroke-linejoin="round">
<line x1="10" y1="4" x2="10" y2="40"/>
        <line x1="10" y1="4" x2="24" y2="4"/>
        <line x1="10" y1="40" x2="24" y2="40"/>
        <path d="M32 8 L40 4 L40 44 L32 40"/>
    </g>
  </g>
</svg>