<svg xmlns="http://www.w3.org/2000/svg" viewBox="0 0 48 48">
  <defs>
    <linearGradient id="g" x1="0%" y1="0%" x2="100%" y2="100%">
      <stop offset="0%" stop-color="#c5ada0"/>
      <stop offset="100%" stop-color="#1f120b"/>
    </linearGradient>
    <filter id="shadow" x="-30%" y="-30%" width="160%" height="160%">
      <feDropShadow dx="2.5" dy="3.5" stdDeviation="3" flood-color="#1a1a2e" flood-opacity="0.45"/>
    </filter>
  </defs>
  <g filter="url(#shadow)" fill="none">
    <g stroke="#0f0905" stroke-width="4.5" stroke-linecap="round" stroke-linejoin="round" transform="translate(2,2)">
    <line x1="6" y1="16" x2="42" y2="16" stroke-width="4"/>
    <line x1="8" y1="16" x2="8" y2="38 M40 16 L40 38"/>
    <line x1="8" y1="38" x2="42" y2="38"/>
    <rect x="20" y="12" width="8" height="6" rx="2"/>
    <rect x="20" y="12" width="4" height="6" rx="1" fill="currentColor"/>
    </g>
    <g stroke="#1f120b" stroke-width="3" stroke-linecap="round" stroke-linejoin="round" transform="translate(1,1)">
    <line x1="6" y1="16" x2="42" y2="16" stroke-width="4"/>
    <line x1="8" y1="16" x2="8" y2="38 M40 16 L40 38"/>
    <line x1="8" y1="38" x2="42" y2="38"/>
    <rect x="20" y="12" width="8" height="6" rx="2"/>
    <rect x="20" y="12" width="4" height="6" rx="1" fill="currentColor"/>
    </g>
    <g stroke="url(#g)" stroke-width="1.5" stroke-linecap="round" stroke-linejoin="round">
    <line x1="6" y1="16" x2="42" y2="16" stroke-width="4"/>
    <line x1="8" y1="16" x2="8" y2="38 M40 16 L40 38"/>
    <line x1="8" y1="38" x2="42" y2="38"/>
    <rect x="20" y="12" width="8" height="6" rx="2"/>
    <rect x="20" y="12" width="4" height="6" rx="1" fill="currentColor"/>
    </g>
  </g>
</svg>