<svg xmlns="http://www.w3.org/2000/svg" viewBox="0 0 48 48">
  <defs>
    <linearGradient id="g" x1="0%" y1="0%" x2="100%" y2="100%">
      <stop offset="0%" stop-color="#d5c0bb"/>
      <stop offset="100%" stop-color="#281c1a"/>
    </linearGradient>
    <filter id="shadow" x="-30%" y="-30%" width="160%" height="160%">
      <feDropShadow dx="2.5" dy="3.5" stdDeviation="3" flood-color="#1a1a2e" flood-opacity="0.45"/>
    </filter>
  </defs>
  <g filter="url(#shadow)" fill="none">
    <g stroke="#140e0d" stroke-width="4.5" stroke-linecap="round" stroke-linejoin="round" transform="translate(2,2)">
    <ellipse cx="24" cy="24" rx="10" ry="12"/>
    <circle cx="19" cy="22" r="3" fill="currentColor"/>
    <circle cx="29" cy="22" r="3" fill="currentColor"/>
    <path d="M20 30 L24 34 L28 30"/>
    <rect x="20" y="12" width="8" height="4" rx="2"/>
    </g>
    <g stroke="#281c1a" stroke-width="3" stroke-linecap="round" stroke-linejoin="round" transform="translate(1,1)">
    <ellipse cx="24" cy="24" rx="10" ry="12"/>
    <circle cx="19" cy="22" r="3" fill="currentColor"/>
    <circle cx="29" cy="22" r="3" fill="currentColor"/>
    <path d="M20 30 L24 34 L28 30"/>
    <rect x="20" y="12" width="8" height="4" rx="2"/>
    </g>
    <g stroke="url(#g)" stroke-width="1.5" stroke-linecap="round" stroke-linejoin="round">
    <ellipse cx="24" cy="24" rx="10" ry="12"/>
    <circle cx="19" cy="22" r="3" fill="currentColor"/>
    <circle cx="29" cy="22" r="3" fill="currentColor"/>
    <path d="M20 30 L24 34 L28 30"/>
    <rect x="20" y="12" width="8" height="4" rx="2"/>
    </g>
  </g>
</svg>