<svg xmlns="http://www.w3.org/2000/svg" viewBox="0 0 48 48">
  <defs>
    <linearGradient id="g" x1="0%" y1="0%" x2="100%" y2="100%">
      <stop offset="0%" stop-color="#b9b2c4"/>
      <stop offset="100%" stop-color="#372f44"/>
    </linearGradient>
    <filter id="sh" x="-30%" y="-30%" width="160%" height="160%">
      <feDropShadow dx="2.5" dy="3.5" stdDeviation="3" flood-color="#1a1a2e" flood-opacity="0.45"/>
    </filter>
  </defs>
  <g filter="url(#sh)" fill="none">
    <g stroke="#19151f" stroke-width="4.5" stroke-linecap="round" stroke-linejoin="round" transform="translate(2,2)">
<rect x="6" y="12" width="8" height="32"/>
        <rect x="34" y="12" width="8" height="32"/>
        <rect x="14" y="8" width="20" height="36" rx="2"/>
        <line x1="14" y1="8" x2="34" y2="8"/>
        <ellipse cx="24" cy="26" rx="6" ry="8"/>
    </g>
    <g stroke="#372f44" stroke-width="3" stroke-linecap="round" stroke-linejoin="round" transform="translate(1,1)">
<rect x="6" y="12" width="8" height="32"/>
        <rect x="34" y="12" width="8" height="32"/>
        <rect x="14" y="8" width="20" height="36" rx="2"/>
        <line x1="14" y1="8" x2="34" y2="8"/>
        <ellipse cx="24" cy="26" rx="6" ry="8"/>
    </g>
    <g stroke="url(#g)" stroke-width="1.5" stroke-linecap="round" stroke-linejoin="round">
<rect x="6" y="12" width="8" height="32"/>
        <rect x="34" y="12" width="8" height="32"/>
        <rect x="14" y="8" width="20" height="36" rx="2"/>
        <line x1="14" y1="8" x2="34" y2="8"/>
        <ellipse cx="24" cy="26" rx="6" ry="8"/>
    </g>
  </g>
</svg>