<svg xmlns="http://www.w3.org/2000/svg" viewBox="0 0 48 48">
  <defs>
    <linearGradient id="g" x1="0%" y1="0%" x2="100%" y2="100%">
      <stop offset="0%" stop-color="#c9b7b7"/>
      <stop offset="100%" stop-color="#4b3434"/>
    </linearGradient>
    <filter id="sh" x="-30%" y="-30%" width="160%" height="160%">
      <feDropShadow dx="2.5" dy="3.5" stdDeviation="3" flood-color="#1a1a2e" flood-opacity="0.45"/>
    </filter>
  </defs>
  <g filter="url(#sh)" fill="none">
    <g stroke="#221817" stroke-width="4.5" stroke-linecap="round" stroke-linejoin="round" transform="translate(2,2)">
<rect x="8" y="8" width="32" height="20" rx="4"/>
        <line x1="8" y1="28" x2="16" y2="42"/>
        <line x1="40" y1="28" x2="32" y2="42"/>
        <line x1="16" y1="42" x2="32" y2="42"/>
    </g>
    <g stroke="#4b3434" stroke-width="3" stroke-linecap="round" stroke-linejoin="round" transform="translate(1,1)">
<rect x="8" y="8" width="32" height="20" rx="4"/>
        <line x1="8" y1="28" x2="16" y2="42"/>
        <line x1="40" y1="28" x2="32" y2="42"/>
        <line x1="16" y1="42" x2="32" y2="42"/>
    </g>
    <g stroke="url(#g)" stroke-width="1.5" stroke-linecap="round" stroke-linejoin="round">
<rect x="8" y="8" width="32" height="20" rx="4"/>
        <line x1="8" y1="28" x2="16" y2="42"/>
        <line x1="40" y1="28" x2="32" y2="42"/>
        <line x1="16" y1="42" x2="32" y2="42"/>
    </g>
  </g>
</svg>