<svg xmlns="http://www.w3.org/2000/svg" viewBox="0 0 48 48">
  <defs>
    <linearGradient id="g" x1="0%" y1="0%" x2="100%" y2="100%">
      <stop offset="0%" stop-color="#c7b3bf"/>
      <stop offset="100%" stop-color="#21161c"/>
    </linearGradient>
    <filter id="shadow" x="-30%" y="-30%" width="160%" height="160%">
      <feDropShadow dx="2.5" dy="3.5" stdDeviation="3" flood-color="#1a1a2e" flood-opacity="0.45"/>
    </filter>
  </defs>
  <g filter="url(#shadow)" fill="none">
    <g stroke="#100b0e" stroke-width="4.5" stroke-linecap="round" stroke-linejoin="round" transform="translate(2,2)">
    <circle cx="24" cy="24" r="16"/>
    <path d="M16 18 L22 22 M32 18 L26 22"/>
    <path d="M16 32 Q24 36 32 32"/>
    <line x1="14" y1="12" x2="18" y2="10 M34 12 L30 10"/>
    </g>
    <g stroke="#21161c" stroke-width="3" stroke-linecap="round" stroke-linejoin="round" transform="translate(1,1)">
    <circle cx="24" cy="24" r="16"/>
    <path d="M16 18 L22 22 M32 18 L26 22"/>
    <path d="M16 32 Q24 36 32 32"/>
    <line x1="14" y1="12" x2="18" y2="10 M34 12 L30 10"/>
    </g>
    <g stroke="url(#g)" stroke-width="1.5" stroke-linecap="round" stroke-linejoin="round">
    <circle cx="24" cy="24" r="16"/>
    <path d="M16 18 L22 22 M32 18 L26 22"/>
    <path d="M16 32 Q24 36 32 32"/>
    <line x1="14" y1="12" x2="18" y2="10 M34 12 L30 10"/>
    </g>
  </g>
</svg>