<svg xmlns="http://www.w3.org/2000/svg" viewBox="0 0 48 48">
  <defs>
    <linearGradient id="g" x1="0%" y1="0%" x2="100%" y2="100%">
      <stop offset="0%" stop-color="#dbb7b7"/>
      <stop offset="100%" stop-color="#603434"/>
    </linearGradient>
    <filter id="sh" x="-30%" y="-30%" width="160%" height="160%">
      <feDropShadow dx="2.5" dy="3.5" stdDeviation="3" flood-color="#1a1a2e" flood-opacity="0.45"/>
    </filter>
  </defs>
  <g filter="url(#sh)" fill="none">
    <g stroke="#2b1718" stroke-width="4.5" stroke-linecap="round" stroke-linejoin="round" transform="translate(2,2)">
<circle cx="24" cy="24" r="18"/>
        <path d="M12 18 Q16 14 20 18 Q24 14 28 18 Q32 14 36 18"/>
        <path d="M14 32 Q24 38 34 32"/>
    </g>
    <g stroke="#603434" stroke-width="3" stroke-linecap="round" stroke-linejoin="round" transform="translate(1,1)">
<circle cx="24" cy="24" r="18"/>
        <path d="M12 18 Q16 14 20 18 Q24 14 28 18 Q32 14 36 18"/>
        <path d="M14 32 Q24 38 34 32"/>
    </g>
    <g stroke="url(#g)" stroke-width="1.5" stroke-linecap="round" stroke-linejoin="round">
<circle cx="24" cy="24" r="18"/>
        <path d="M12 18 Q16 14 20 18 Q24 14 28 18 Q32 14 36 18"/>
        <path d="M14 32 Q24 38 34 32"/>
    </g>
  </g>
</svg>