<svg xmlns="http://www.w3.org/2000/svg" viewBox="0 0 48 48">
  <defs>
    <linearGradient id="g" x1="0%" y1="0%" x2="100%" y2="100%">
      <stop offset="0%" stop-color="#aeb7c3"/>
      <stop offset="100%" stop-color="#13181e"/>
    </linearGradient>
    <filter id="shadow" x="-30%" y="-30%" width="160%" height="160%">
      <feDropShadow dx="2.5" dy="3.5" stdDeviation="3" flood-color="#1a1a2e" flood-opacity="0.45"/>
    </filter>
  </defs>
  <g filter="url(#shadow)" fill="none">
    <g stroke="#090c0f" stroke-width="4.5" stroke-linecap="round" stroke-linejoin="round" transform="translate(2,2)">
    <line x1="8" y1="6" x2="40" y2="6"/>
    <polygon points="30,6 10,44 20,44 36,10"/>
    <line x1="10" y1="44" x2="20" y2="44"/>
    <rect x="18" y="24" width="12" height="4" rx="2"/>
    </g>
    <g stroke="#13181e" stroke-width="3" stroke-linecap="round" stroke-linejoin="round" transform="translate(1,1)">
    <line x1="8" y1="6" x2="40" y2="6"/>
    <polygon points="30,6 10,44 20,44 36,10"/>
    <line x1="10" y1="44" x2="20" y2="44"/>
    <rect x="18" y="24" width="12" height="4" rx="2"/>
    </g>
    <g stroke="url(#g)" stroke-width="1.5" stroke-linecap="round" stroke-linejoin="round">
    <line x1="8" y1="6" x2="40" y2="6"/>
    <polygon points="30,6 10,44 20,44 36,10"/>
    <line x1="10" y1="44" x2="20" y2="44"/>
    <rect x="18" y="24" width="12" height="4" rx="2"/>
    </g>
  </g>
</svg>