<svg xmlns="http://www.w3.org/2000/svg" viewBox="0 0 48 48">
  <defs>
    <linearGradient id="g" x1="0%" y1="0%" x2="100%" y2="100%">
      <stop offset="0%" stop-color="#cdc3a7"/>
      <stop offset="100%" stop-color="#241e0f"/>
    </linearGradient>
    <filter id="shadow" x="-30%" y="-30%" width="160%" height="160%">
      <feDropShadow dx="2.5" dy="3.5" stdDeviation="3" flood-color="#1a1a2e" flood-opacity="0.45"/>
    </filter>
  </defs>
  <g filter="url(#shadow)" fill="none">
    <g stroke="#120f07" stroke-width="4.5" stroke-linecap="round" stroke-linejoin="round" transform="translate(2,2)">
    <ellipse cx="20" cy="34" rx="14" ry="6"/>
    <ellipse cx="36" cy="32" rx="8" ry="5"/>
    <path d="M6 34 Q6 24 20 24 Q32 24 36 28"/>
    <ellipse cx="20" cy="24" rx="8" ry="3"/>
    </g>
    <g stroke="#241e0f" stroke-width="3" stroke-linecap="round" stroke-linejoin="round" transform="translate(1,1)">
    <ellipse cx="20" cy="34" rx="14" ry="6"/>
    <ellipse cx="36" cy="32" rx="8" ry="5"/>
    <path d="M6 34 Q6 24 20 24 Q32 24 36 28"/>
    <ellipse cx="20" cy="24" rx="8" ry="3"/>
    </g>
    <g stroke="url(#g)" stroke-width="1.5" stroke-linecap="round" stroke-linejoin="round">
    <ellipse cx="20" cy="34" rx="14" ry="6"/>
    <ellipse cx="36" cy="32" rx="8" ry="5"/>
    <path d="M6 34 Q6 24 20 24 Q32 24 36 28"/>
    <ellipse cx="20" cy="24" rx="8" ry="3"/>
    </g>
  </g>
</svg>