<svg xmlns="http://www.w3.org/2000/svg" viewBox="0 0 48 48">
  <defs>
    <linearGradient id="g" x1="0%" y1="0%" x2="100%" y2="100%">
      <stop offset="0%" stop-color="#d2e5c4"/>
      <stop offset="100%" stop-color="#26311f"/>
    </linearGradient>
    <filter id="shadow" x="-30%" y="-30%" width="160%" height="160%">
      <feDropShadow dx="2.5" dy="3.5" stdDeviation="3" flood-color="#1a1a2e" flood-opacity="0.45"/>
    </filter>
  </defs>
  <g filter="url(#shadow)" fill="none">
    <g stroke="#13180f" stroke-width="4.5" stroke-linecap="round" stroke-linejoin="round" transform="translate(2,2)">
    <rect x="12" y="2" width="24" height="44" rx="4"/>
    <rect x="16" y="8" width="16" height="28" rx="2"/>
    <circle cx="24" cy="40" r="2" fill="currentColor"/>
    <ellipse cx="24" cy="6" rx="3" ry="1.5"/>
    </g>
    <g stroke="#26311f" stroke-width="3" stroke-linecap="round" stroke-linejoin="round" transform="translate(1,1)">
    <rect x="12" y="2" width="24" height="44" rx="4"/>
    <rect x="16" y="8" width="16" height="28" rx="2"/>
    <circle cx="24" cy="40" r="2" fill="currentColor"/>
    <ellipse cx="24" cy="6" rx="3" ry="1.5"/>
    </g>
    <g stroke="url(#g)" stroke-width="1.5" stroke-linecap="round" stroke-linejoin="round">
    <rect x="12" y="2" width="24" height="44" rx="4"/>
    <rect x="16" y="8" width="16" height="28" rx="2"/>
    <circle cx="24" cy="40" r="2" fill="currentColor"/>
    <ellipse cx="24" cy="6" rx="3" ry="1.5"/>
    </g>
  </g>
</svg>