<svg xmlns="http://www.w3.org/2000/svg" viewBox="0 0 48 48">
  <defs>
    <linearGradient id="g" x1="0%" y1="0%" x2="100%" y2="100%">
      <stop offset="0%" stop-color="#c0a1bb"/>
      <stop offset="100%" stop-color="#1d0c1a"/>
    </linearGradient>
    <filter id="shadow" x="-30%" y="-30%" width="160%" height="160%">
      <feDropShadow dx="2.5" dy="3.5" stdDeviation="3" flood-color="#1a1a2e" flood-opacity="0.45"/>
    </filter>
  </defs>
  <g filter="url(#shadow)" fill="none">
    <g stroke="#0e060d" stroke-width="4.5" stroke-linecap="round" stroke-linejoin="round" transform="translate(2,2)">
    <path d="M12 30 L16 10 Q16 6 24 6 Q32 6 32 10 L36 30 Z"/>
    <ellipse cx="24" cy="30" rx="12" ry="3"/>
    <line x1="24" y1="6" x2="24" y2="2"/>
    <circle cx="20" cy="18" r="2"/>
    <circle cx="28" cy="22" r="2"/>
    </g>
    <g stroke="#1d0c1a" stroke-width="3" stroke-linecap="round" stroke-linejoin="round" transform="translate(1,1)">
    <path d="M12 30 L16 10 Q16 6 24 6 Q32 6 32 10 L36 30 Z"/>
    <ellipse cx="24" cy="30" rx="12" ry="3"/>
    <line x1="24" y1="6" x2="24" y2="2"/>
    <circle cx="20" cy="18" r="2"/>
    <circle cx="28" cy="22" r="2"/>
    </g>
    <g stroke="url(#g)" stroke-width="1.5" stroke-linecap="round" stroke-linejoin="round">
    <path d="M12 30 L16 10 Q16 6 24 6 Q32 6 32 10 L36 30 Z"/>
    <ellipse cx="24" cy="30" rx="12" ry="3"/>
    <line x1="24" y1="6" x2="24" y2="2"/>
    <circle cx="20" cy="18" r="2"/>
    <circle cx="28" cy="22" r="2"/>
    </g>
  </g>
</svg>