<svg xmlns="http://www.w3.org/2000/svg" viewBox="0 0 48 48">
  <defs>
    <linearGradient id="g" x1="0%" y1="0%" x2="100%" y2="100%">
      <stop offset="0%" stop-color="#d1e0c6"/>
      <stop offset="100%" stop-color="#262f20"/>
    </linearGradient>
    <filter id="shadow" x="-30%" y="-30%" width="160%" height="160%">
      <feDropShadow dx="2.5" dy="3.5" stdDeviation="3" flood-color="#1a1a2e" flood-opacity="0.45"/>
    </filter>
  </defs>
  <g filter="url(#shadow)" fill="none">
    <g stroke="#131710" stroke-width="4.5" stroke-linecap="round" stroke-linejoin="round" transform="translate(2,2)">
    <path d="M6 26 L8 40 Q8 44 14 44 L34 44 Q38 44 38 40 L40 26 Z"/>
    <line x1="6" y1="34" x2="40" y2="34"/>
    <line x1="6" y1="26" x2="6" y2="34 M40 26 L40 34"/>
    <line x1="12" y1="44" x2="30" y2="44"/>
    </g>
    <g stroke="#262f20" stroke-width="3" stroke-linecap="round" stroke-linejoin="round" transform="translate(1,1)">
    <path d="M6 26 L8 40 Q8 44 14 44 L34 44 Q38 44 38 40 L40 26 Z"/>
    <line x1="6" y1="34" x2="40" y2="34"/>
    <line x1="6" y1="26" x2="6" y2="34 M40 26 L40 34"/>
    <line x1="12" y1="44" x2="30" y2="44"/>
    </g>
    <g stroke="url(#g)" stroke-width="1.5" stroke-linecap="round" stroke-linejoin="round">
    <path d="M6 26 L8 40 Q8 44 14 44 L34 44 Q38 44 38 40 L40 26 Z"/>
    <line x1="6" y1="34" x2="40" y2="34"/>
    <line x1="6" y1="26" x2="6" y2="34 M40 26 L40 34"/>
    <line x1="12" y1="44" x2="30" y2="44"/>
    </g>
  </g>
</svg>