<svg xmlns="http://www.w3.org/2000/svg" viewBox="0 0 48 48">
  <defs>
    <linearGradient id="g" x1="0%" y1="0%" x2="100%" y2="100%">
      <stop offset="0%" stop-color="#a4cdb2"/>
      <stop offset="100%" stop-color="#1d4f2f"/>
    </linearGradient>
    <filter id="sh" x="-30%" y="-30%" width="160%" height="160%">
      <feDropShadow dx="2.5" dy="3.5" stdDeviation="3" flood-color="#1a1a2e" flood-opacity="0.45"/>
    </filter>
  </defs>
  <g filter="url(#sh)" fill="none">
    <g stroke="#0d2415" stroke-width="4.5" stroke-linecap="round" stroke-linejoin="round" transform="translate(2,2)">
<path d="M4 20 Q24 4 44 20"/>
        <path d="M4 28 Q24 12 44 28"/>
        <path d="M4 36 Q24 20 44 36"/>
    </g>
    <g stroke="#1d4f2f" stroke-width="3" stroke-linecap="round" stroke-linejoin="round" transform="translate(1,1)">
<path d="M4 20 Q24 4 44 20"/>
        <path d="M4 28 Q24 12 44 28"/>
        <path d="M4 36 Q24 20 44 36"/>
    </g>
    <g stroke="url(#g)" stroke-width="1.5" stroke-linecap="round" stroke-linejoin="round">
<path d="M4 20 Q24 4 44 20"/>
        <path d="M4 28 Q24 12 44 28"/>
        <path d="M4 36 Q24 20 44 36"/>
    </g>
  </g>
</svg>