<svg xmlns="http://www.w3.org/2000/svg" viewBox="0 0 48 48">
  <defs>
    <linearGradient id="g" x1="0%" y1="0%" x2="100%" y2="100%">
      <stop offset="0%" stop-color="#ada2cb"/>
      <stop offset="100%" stop-color="#281a4d"/>
    </linearGradient>
    <filter id="sh" x="-30%" y="-30%" width="160%" height="160%">
      <feDropShadow dx="2.5" dy="3.5" stdDeviation="3" flood-color="#1a1a2e" flood-opacity="0.45"/>
    </filter>
  </defs>
  <g filter="url(#sh)" fill="none">
    <g stroke="#120c23" stroke-width="4.5" stroke-linecap="round" stroke-linejoin="round" transform="translate(2,2)">
<polygon points="6,40 24,6 42,40"/>
        <line x1="24" y1="6" x2="30" y2="20"/>
        <line x1="30" y1="20" x2="36" y2="28"/>
        <line x1="24" y1="6" x2="18" y2="18"/>
    </g>
    <g stroke="#281a4d" stroke-width="3" stroke-linecap="round" stroke-linejoin="round" transform="translate(1,1)">
<polygon points="6,40 24,6 42,40"/>
        <line x1="24" y1="6" x2="30" y2="20"/>
        <line x1="30" y1="20" x2="36" y2="28"/>
        <line x1="24" y1="6" x2="18" y2="18"/>
    </g>
    <g stroke="url(#g)" stroke-width="1.5" stroke-linecap="round" stroke-linejoin="round">
<polygon points="6,40 24,6 42,40"/>
        <line x1="24" y1="6" x2="30" y2="20"/>
        <line x1="30" y1="20" x2="36" y2="28"/>
        <line x1="24" y1="6" x2="18" y2="18"/>
    </g>
  </g>
</svg>