<svg xmlns="http://www.w3.org/2000/svg" viewBox="0 0 48 48">
  <defs>
    <linearGradient id="g" x1="0%" y1="0%" x2="100%" y2="100%">
      <stop offset="0%" stop-color="#aebcd7"/>
      <stop offset="100%" stop-color="#2a3b5c"/>
    </linearGradient>
    <filter id="sh" x="-30%" y="-30%" width="160%" height="160%">
      <feDropShadow dx="2.5" dy="3.5" stdDeviation="3" flood-color="#1a1a2e" flood-opacity="0.45"/>
    </filter>
  </defs>
  <g filter="url(#sh)" fill="none">
    <g stroke="#131b2a" stroke-width="4.5" stroke-linecap="round" stroke-linejoin="round" transform="translate(2,2)">
<rect x="8" y="8" width="32" height="20" rx="4"/>
        <path d="M8 28 L14 40 L34 40 L40 28 Z"/>
        <path d="M12 18 L20 18 L24 14 L28 18 L36 18"/>
    </g>
    <g stroke="#2a3b5c" stroke-width="3" stroke-linecap="round" stroke-linejoin="round" transform="translate(1,1)">
<rect x="8" y="8" width="32" height="20" rx="4"/>
        <path d="M8 28 L14 40 L34 40 L40 28 Z"/>
        <path d="M12 18 L20 18 L24 14 L28 18 L36 18"/>
    </g>
    <g stroke="url(#g)" stroke-width="1.5" stroke-linecap="round" stroke-linejoin="round">
<rect x="8" y="8" width="32" height="20" rx="4"/>
        <path d="M8 28 L14 40 L34 40 L40 28 Z"/>
        <path d="M12 18 L20 18 L24 14 L28 18 L36 18"/>
    </g>
  </g>
</svg>