<svg xmlns="http://www.w3.org/2000/svg" viewBox="0 0 48 48">
  <defs>
    <linearGradient id="g" x1="0%" y1="0%" x2="100%" y2="100%">
      <stop offset="0%" stop-color="#ceafc4"/>
      <stop offset="100%" stop-color="#24131f"/>
    </linearGradient>
    <filter id="shadow" x="-30%" y="-30%" width="160%" height="160%">
      <feDropShadow dx="2.5" dy="3.5" stdDeviation="3" flood-color="#1a1a2e" flood-opacity="0.45"/>
    </filter>
  </defs>
  <g filter="url(#shadow)" fill="none">
    <g stroke="#12090f" stroke-width="4.5" stroke-linecap="round" stroke-linejoin="round" transform="translate(2,2)">
    <rect x="8" y="20" width="32" height="8" rx="4"/>
    <rect x="20" y="8" width="8" height="32" rx="4"/>
    <rect x="4" y="22" width="4" height="4" rx="1"/>
    <rect x="40" y="22" width="4" height="4" rx="1"/>
    <rect x="22" y="4" width="4" height="4" rx="1"/>
    <rect x="22" y="40" width="4" height="4" rx="1"/>
    </g>
    <g stroke="#24131f" stroke-width="3" stroke-linecap="round" stroke-linejoin="round" transform="translate(1,1)">
    <rect x="8" y="20" width="32" height="8" rx="4"/>
    <rect x="20" y="8" width="8" height="32" rx="4"/>
    <rect x="4" y="22" width="4" height="4" rx="1"/>
    <rect x="40" y="22" width="4" height="4" rx="1"/>
    <rect x="22" y="4" width="4" height="4" rx="1"/>
    <rect x="22" y="40" width="4" height="4" rx="1"/>
    </g>
    <g stroke="url(#g)" stroke-width="1.5" stroke-linecap="round" stroke-linejoin="round">
    <rect x="8" y="20" width="32" height="8" rx="4"/>
    <rect x="20" y="8" width="8" height="32" rx="4"/>
    <rect x="4" y="22" width="4" height="4" rx="1"/>
    <rect x="40" y="22" width="4" height="4" rx="1"/>
    <rect x="22" y="4" width="4" height="4" rx="1"/>
    <rect x="22" y="40" width="4" height="4" rx="1"/>
    </g>
  </g>
</svg>