<svg xmlns="http://www.w3.org/2000/svg" viewBox="0 0 48 48">
  <defs>
    <linearGradient id="g" x1="0%" y1="0%" x2="100%" y2="100%">
      <stop offset="0%" stop-color="#c5b7ae"/>
      <stop offset="100%" stop-color="#1f1813"/>
    </linearGradient>
    <filter id="shadow" x="-30%" y="-30%" width="160%" height="160%">
      <feDropShadow dx="2.5" dy="3.5" stdDeviation="3" flood-color="#1a1a2e" flood-opacity="0.45"/>
    </filter>
  </defs>
  <g filter="url(#shadow)" fill="none">
    <g stroke="#0f0c09" stroke-width="4.5" stroke-linecap="round" stroke-linejoin="round" transform="translate(2,2)">
    <path d="M8 20 Q16 10 28 14 Q36 18 40 12"/>
    <path d="M6 28 Q14 18 26 22 Q34 26 42 20"/>
    <path d="M10 36 Q20 26 30 30 Q38 34 44 28"/>
    <ellipse cx="22" cy="40" rx="10" ry="4"/>
    <ellipse cx="22" cy="40" rx="6" ry="2"/>
    </g>
    <g stroke="#1f1813" stroke-width="3" stroke-linecap="round" stroke-linejoin="round" transform="translate(1,1)">
    <path d="M8 20 Q16 10 28 14 Q36 18 40 12"/>
    <path d="M6 28 Q14 18 26 22 Q34 26 42 20"/>
    <path d="M10 36 Q20 26 30 30 Q38 34 44 28"/>
    <ellipse cx="22" cy="40" rx="10" ry="4"/>
    <ellipse cx="22" cy="40" rx="6" ry="2"/>
    </g>
    <g stroke="url(#g)" stroke-width="1.5" stroke-linecap="round" stroke-linejoin="round">
    <path d="M8 20 Q16 10 28 14 Q36 18 40 12"/>
    <path d="M6 28 Q14 18 26 22 Q34 26 42 20"/>
    <path d="M10 36 Q20 26 30 30 Q38 34 44 28"/>
    <ellipse cx="22" cy="40" rx="10" ry="4"/>
    <ellipse cx="22" cy="40" rx="6" ry="2"/>
    </g>
  </g>
</svg>