<svg xmlns="http://www.w3.org/2000/svg" viewBox="0 0 48 48">
  <defs>
    <linearGradient id="g" x1="0%" y1="0%" x2="100%" y2="100%">
      <stop offset="0%" stop-color="#c0a8c1"/>
      <stop offset="100%" stop-color="#402241"/>
    </linearGradient>
    <filter id="sh" x="-30%" y="-30%" width="160%" height="160%">
      <feDropShadow dx="2.5" dy="3.5" stdDeviation="3" flood-color="#1a1a2e" flood-opacity="0.45"/>
    </filter>
  </defs>
  <g filter="url(#sh)" fill="none">
    <g stroke="#1d0f1d" stroke-width="4.5" stroke-linecap="round" stroke-linejoin="round" transform="translate(2,2)">
<ellipse cx="24" cy="28" rx="8" ry="10"/><circle cx="24" cy="12" r="6"/><path d="M28 8 L34 6 L30 14"/><circle cx="22" cy="10" r="2"/><path d="M20 26 Q24 32 28 26"/>
    </g>
    <g stroke="#402241" stroke-width="3" stroke-linecap="round" stroke-linejoin="round" transform="translate(1,1)">
<ellipse cx="24" cy="28" rx="8" ry="10"/><circle cx="24" cy="12" r="6"/><path d="M28 8 L34 6 L30 14"/><circle cx="22" cy="10" r="2"/><path d="M20 26 Q24 32 28 26"/>
    </g>
    <g stroke="url(#g)" stroke-width="1.5" stroke-linecap="round" stroke-linejoin="round">
<ellipse cx="24" cy="28" rx="8" ry="10"/><circle cx="24" cy="12" r="6"/><path d="M28 8 L34 6 L30 14"/><circle cx="22" cy="10" r="2"/><path d="M20 26 Q24 32 28 26"/>
    </g>
  </g>
</svg>