<svg xmlns="http://www.w3.org/2000/svg" viewBox="0 0 48 48">
  <defs>
    <linearGradient id="g" x1="0%" y1="0%" x2="100%" y2="100%">
      <stop offset="0%" stop-color="#AED581"/>
      <stop offset="100%" stop-color="#1D3B11"/>
    </linearGradient>
    <filter id="sh" x="-30%" y="-30%" width="160%" height="160%">
      <feDropShadow dx="2.5" dy="3.5" stdDeviation="3" flood-color="#1a1a2e" flood-opacity="0.45"/>
    </filter>
  </defs>
  <g filter="url(#sh)" fill="none">
    <g stroke="#0E1D08" stroke-width="4.5" stroke-linecap="round" stroke-linejoin="round" transform="translate(2,2)">
    <rect x="10" y="12" width="12" height="24" rx="2"/>
        <path d="M22 14 L30 8 L30 40 L22 34"/>
        <path d="M28 18 Q36 24 28 30"/>
        <path d="M32 12 Q44 24 32 36"/>
    </g>
    <g stroke="#1D3B11" stroke-width="3" stroke-linecap="round" stroke-linejoin="round" transform="translate(1,1)">
    <rect x="10" y="12" width="12" height="24" rx="2"/>
        <path d="M22 14 L30 8 L30 40 L22 34"/>
        <path d="M28 18 Q36 24 28 30"/>
        <path d="M32 12 Q44 24 32 36"/>
    </g>
    <g stroke="url(#g)" stroke-width="1.5" stroke-linecap="round" stroke-linejoin="round">
    <rect x="10" y="12" width="12" height="24" rx="2"/>
        <path d="M22 14 L30 8 L30 40 L22 34"/>
        <path d="M28 18 Q36 24 28 30"/>
        <path d="M32 12 Q44 24 32 36"/>
    </g>
  </g>
</svg>