<svg xmlns="http://www.w3.org/2000/svg" viewBox="0 0 48 48">
  <defs>
    <linearGradient id="g" x1="0%" y1="0%" x2="100%" y2="100%">
      <stop offset="0%" stop-color="#d4abab"/>
      <stop offset="100%" stop-color="#281111"/>
    </linearGradient>
    <filter id="shadow" x="-30%" y="-30%" width="160%" height="160%">
      <feDropShadow dx="2.5" dy="3.5" stdDeviation="3" flood-color="#1a1a2e" flood-opacity="0.45"/>
    </filter>
  </defs>
  <g filter="url(#shadow)" fill="none">
    <g stroke="#140808" stroke-width="4.5" stroke-linecap="round" stroke-linejoin="round" transform="translate(2,2)">
    <path d="M10 26 L10 40 Q10 44 24 44 Q38 44 38 40 L38 18" stroke-width="3"/>
    <line x1="4" y1="44" x2="44" y2="44" stroke-width="3"/>
    <line x1="10" y1="26" x2="10" y2="18 M10 18 L18 18"/>
    <line x1="38" y1="18" x2="42" y2="18"/>
    </g>
    <g stroke="#281111" stroke-width="3" stroke-linecap="round" stroke-linejoin="round" transform="translate(1,1)">
    <path d="M10 26 L10 40 Q10 44 24 44 Q38 44 38 40 L38 18" stroke-width="3"/>
    <line x1="4" y1="44" x2="44" y2="44" stroke-width="3"/>
    <line x1="10" y1="26" x2="10" y2="18 M10 18 L18 18"/>
    <line x1="38" y1="18" x2="42" y2="18"/>
    </g>
    <g stroke="url(#g)" stroke-width="1.5" stroke-linecap="round" stroke-linejoin="round">
    <path d="M10 26 L10 40 Q10 44 24 44 Q38 44 38 40 L38 18" stroke-width="3"/>
    <line x1="4" y1="44" x2="44" y2="44" stroke-width="3"/>
    <line x1="10" y1="26" x2="10" y2="18 M10 18 L18 18"/>
    <line x1="38" y1="18" x2="42" y2="18"/>
    </g>
  </g>
</svg>