<svg xmlns="http://www.w3.org/2000/svg" viewBox="0 0 48 48">
  <defs>
    <linearGradient id="g" x1="0%" y1="0%" x2="100%" y2="100%">
      <stop offset="0%" stop-color="#aeb6d4"/>
      <stop offset="100%" stop-color="#131728"/>
    </linearGradient>
    <filter id="shadow" x="-30%" y="-30%" width="160%" height="160%">
      <feDropShadow dx="2.5" dy="3.5" stdDeviation="3" flood-color="#1a1a2e" flood-opacity="0.45"/>
    </filter>
  </defs>
  <g filter="url(#shadow)" fill="none">
    <g stroke="#090b14" stroke-width="4.5" stroke-linecap="round" stroke-linejoin="round" transform="translate(2,2)">
    <path d="M6 8 L6 40 Q6 42 12 42 L24 42 L24 8 Z"/>
    <path d="M42 8 L42 40 Q42 42 36 42 L24 42 L24 8 Z"/>
    <line x1="24" y1="8" x2="24" y2="42"/>
    <circle cx="14" cy="18" r="2" fill="currentColor"/>
    <circle cx="14" cy="24" r="2" fill="currentColor"/>
    <circle cx="34" cy="18" r="2" fill="currentColor"/>
    <circle cx="34" cy="24" r="2" fill="currentColor"/>
    </g>
    <g stroke="#131728" stroke-width="3" stroke-linecap="round" stroke-linejoin="round" transform="translate(1,1)">
    <path d="M6 8 L6 40 Q6 42 12 42 L24 42 L24 8 Z"/>
    <path d="M42 8 L42 40 Q42 42 36 42 L24 42 L24 8 Z"/>
    <line x1="24" y1="8" x2="24" y2="42"/>
    <circle cx="14" cy="18" r="2" fill="currentColor"/>
    <circle cx="14" cy="24" r="2" fill="currentColor"/>
    <circle cx="34" cy="18" r="2" fill="currentColor"/>
    <circle cx="34" cy="24" r="2" fill="currentColor"/>
    </g>
    <g stroke="url(#g)" stroke-width="1.5" stroke-linecap="round" stroke-linejoin="round">
    <path d="M6 8 L6 40 Q6 42 12 42 L24 42 L24 8 Z"/>
    <path d="M42 8 L42 40 Q42 42 36 42 L24 42 L24 8 Z"/>
    <line x1="24" y1="8" x2="24" y2="42"/>
    <circle cx="14" cy="18" r="2" fill="currentColor"/>
    <circle cx="14" cy="24" r="2" fill="currentColor"/>
    <circle cx="34" cy="18" r="2" fill="currentColor"/>
    <circle cx="34" cy="24" r="2" fill="currentColor"/>
    </g>
  </g>
</svg>