<svg xmlns="http://www.w3.org/2000/svg" viewBox="0 0 48 48">
  <defs>
    <linearGradient id="g" x1="0%" y1="0%" x2="100%" y2="100%">
      <stop offset="0%" stop-color="#c4a1a4"/>
      <stop offset="100%" stop-color="#441a1d"/>
    </linearGradient>
    <filter id="sh" x="-30%" y="-30%" width="160%" height="160%">
      <feDropShadow dx="2.5" dy="3.5" stdDeviation="3" flood-color="#1a1a2e" flood-opacity="0.45"/>
    </filter>
  </defs>
  <g filter="url(#sh)" fill="none">
    <g stroke="#1f0c0d" stroke-width="4.5" stroke-linecap="round" stroke-linejoin="round" transform="translate(2,2)">
<circle cx="24" cy="24" r="16"/>
        <circle cx="16" cy="16" r="3"/><circle cx="32" cy="16" r="3"/>
        <line x1="16" y1="28" x2="32" y2="28"/>
        <line x1="8" y1="28" x2="12" y2="34"/>
        <line x1="40" y1="28" x2="36" y2="34"/>
    </g>
    <g stroke="#441a1d" stroke-width="3" stroke-linecap="round" stroke-linejoin="round" transform="translate(1,1)">
<circle cx="24" cy="24" r="16"/>
        <circle cx="16" cy="16" r="3"/><circle cx="32" cy="16" r="3"/>
        <line x1="16" y1="28" x2="32" y2="28"/>
        <line x1="8" y1="28" x2="12" y2="34"/>
        <line x1="40" y1="28" x2="36" y2="34"/>
    </g>
    <g stroke="url(#g)" stroke-width="1.5" stroke-linecap="round" stroke-linejoin="round">
<circle cx="24" cy="24" r="16"/>
        <circle cx="16" cy="16" r="3"/><circle cx="32" cy="16" r="3"/>
        <line x1="16" y1="28" x2="32" y2="28"/>
        <line x1="8" y1="28" x2="12" y2="34"/>
        <line x1="40" y1="28" x2="36" y2="34"/>
    </g>
  </g>
</svg>