<svg xmlns="http://www.w3.org/2000/svg" viewBox="0 0 48 48">
  <defs>
    <linearGradient id="g" x1="0%" y1="0%" x2="100%" y2="100%">
      <stop offset="0%" stop-color="#b2d5af"/>
      <stop offset="100%" stop-color="#2f592a"/>
    </linearGradient>
    <filter id="sh" x="-30%" y="-30%" width="160%" height="160%">
      <feDropShadow dx="2.5" dy="3.5" stdDeviation="3" flood-color="#1a1a2e" flood-opacity="0.45"/>
    </filter>
  </defs>
  <g filter="url(#sh)" fill="none">
    <g stroke="#152813" stroke-width="4.5" stroke-linecap="round" stroke-linejoin="round" transform="translate(2,2)">
<ellipse cx="24" cy="26" rx="7" ry="9"/>
        <circle cx="24" cy="16" r="5"/>
        <line x1="10" y1="18" x2="4" y2="10"/>
        <line x1="16" y1="14" x2="12" y2="6"/>
        <line x1="32" y1="14" x2="36" y2="6"/>
        <line x1="38" y1="18" x2="44" y2="10"/>
        <line x1="10" y1="26" x2="4" y2="28"/>
        <line x1="38" y1="26" x2="44" y2="28"/>
        <line x1="12" y1="32" x2="6" y2="40"/>
        <line x1="36" y1="32" x2="42" y2="40"/>
    </g>
    <g stroke="#2f592a" stroke-width="3" stroke-linecap="round" stroke-linejoin="round" transform="translate(1,1)">
<ellipse cx="24" cy="26" rx="7" ry="9"/>
        <circle cx="24" cy="16" r="5"/>
        <line x1="10" y1="18" x2="4" y2="10"/>
        <line x1="16" y1="14" x2="12" y2="6"/>
        <line x1="32" y1="14" x2="36" y2="6"/>
        <line x1="38" y1="18" x2="44" y2="10"/>
        <line x1="10" y1="26" x2="4" y2="28"/>
        <line x1="38" y1="26" x2="44" y2="28"/>
        <line x1="12" y1="32" x2="6" y2="40"/>
        <line x1="36" y1="32" x2="42" y2="40"/>
    </g>
    <g stroke="url(#g)" stroke-width="1.5" stroke-linecap="round" stroke-linejoin="round">
<ellipse cx="24" cy="26" rx="7" ry="9"/>
        <circle cx="24" cy="16" r="5"/>
        <line x1="10" y1="18" x2="4" y2="10"/>
        <line x1="16" y1="14" x2="12" y2="6"/>
        <line x1="32" y1="14" x2="36" y2="6"/>
        <line x1="38" y1="18" x2="44" y2="10"/>
        <line x1="10" y1="26" x2="4" y2="28"/>
        <line x1="38" y1="26" x2="44" y2="28"/>
        <line x1="12" y1="32" x2="6" y2="40"/>
        <line x1="36" y1="32" x2="42" y2="40"/>
    </g>
  </g>
</svg>