<svg xmlns="http://www.w3.org/2000/svg" viewBox="0 0 48 48">
  <defs>
    <linearGradient id="g" x1="0%" y1="0%" x2="100%" y2="100%">
      <stop offset="0%" stop-color="#cba5ac"/>
      <stop offset="100%" stop-color="#230e12"/>
    </linearGradient>
    <filter id="shadow" x="-30%" y="-30%" width="160%" height="160%">
      <feDropShadow dx="2.5" dy="3.5" stdDeviation="3" flood-color="#1a1a2e" flood-opacity="0.45"/>
    </filter>
  </defs>
  <g filter="url(#shadow)" fill="none">
    <g stroke="#110709" stroke-width="4.5" stroke-linecap="round" stroke-linejoin="round" transform="translate(2,2)">
    <circle cx="24" cy="24" r="14"/>
    <circle cx="24" cy="24" r="4" fill="currentColor"/>
    <polygon points="24,4 18,10 30,10"/>
    <polygon points="24,44 18,38 30,38"/>
    <polygon points="4,24 10,18 10,30"/>
    <polygon points="44,24 38,18 38,30"/>
    </g>
    <g stroke="#230e12" stroke-width="3" stroke-linecap="round" stroke-linejoin="round" transform="translate(1,1)">
    <circle cx="24" cy="24" r="14"/>
    <circle cx="24" cy="24" r="4" fill="currentColor"/>
    <polygon points="24,4 18,10 30,10"/>
    <polygon points="24,44 18,38 30,38"/>
    <polygon points="4,24 10,18 10,30"/>
    <polygon points="44,24 38,18 38,30"/>
    </g>
    <g stroke="url(#g)" stroke-width="1.5" stroke-linecap="round" stroke-linejoin="round">
    <circle cx="24" cy="24" r="14"/>
    <circle cx="24" cy="24" r="4" fill="currentColor"/>
    <polygon points="24,4 18,10 30,10"/>
    <polygon points="24,44 18,38 30,38"/>
    <polygon points="4,24 10,18 10,30"/>
    <polygon points="44,24 38,18 38,30"/>
    </g>
  </g>
</svg>