<svg xmlns="http://www.w3.org/2000/svg" viewBox="0 0 48 48">
  <defs>
    <linearGradient id="g" x1="0%" y1="0%" x2="100%" y2="100%">
      <stop offset="0%" stop-color="#cdcfa9"/>
      <stop offset="100%" stop-color="#242510"/>
    </linearGradient>
    <filter id="shadow" x="-30%" y="-30%" width="160%" height="160%">
      <feDropShadow dx="2.5" dy="3.5" stdDeviation="3" flood-color="#1a1a2e" flood-opacity="0.45"/>
    </filter>
  </defs>
  <g filter="url(#shadow)" fill="none">
    <g stroke="#121208" stroke-width="4.5" stroke-linecap="round" stroke-linejoin="round" transform="translate(2,2)">
    <path d="M24 44 L24 20 Q24 8 10 6 Q18 10 20 16 Q24 6 28 16 Q30 10 38 6 Q24 8 24 20"/>
    <path d="M14 16 L10 12 M34 16 L38 12"/>
    </g>
    <g stroke="#242510" stroke-width="3" stroke-linecap="round" stroke-linejoin="round" transform="translate(1,1)">
    <path d="M24 44 L24 20 Q24 8 10 6 Q18 10 20 16 Q24 6 28 16 Q30 10 38 6 Q24 8 24 20"/>
    <path d="M14 16 L10 12 M34 16 L38 12"/>
    </g>
    <g stroke="url(#g)" stroke-width="1.5" stroke-linecap="round" stroke-linejoin="round">
    <path d="M24 44 L24 20 Q24 8 10 6 Q18 10 20 16 Q24 6 28 16 Q30 10 38 6 Q24 8 24 20"/>
    <path d="M14 16 L10 12 M34 16 L38 12"/>
    </g>
  </g>
</svg>