<svg xmlns="http://www.w3.org/2000/svg" viewBox="0 0 48 48">
  <defs>
    <linearGradient id="g" x1="0%" y1="0%" x2="100%" y2="100%">
      <stop offset="0%" stop-color="#b9a8c1"/>
      <stop offset="100%" stop-color="#190f1d"/>
    </linearGradient>
    <filter id="shadow" x="-30%" y="-30%" width="160%" height="160%">
      <feDropShadow dx="2.5" dy="3.5" stdDeviation="3" flood-color="#1a1a2e" flood-opacity="0.45"/>
    </filter>
  </defs>
  <g filter="url(#shadow)" fill="none">
    <g stroke="#0c070e" stroke-width="4.5" stroke-linecap="round" stroke-linejoin="round" transform="translate(2,2)">
    <rect x="16" y="6" width="16" height="12" rx="3"/>
    <rect x="14" y="18" width="20" height="26" rx="4"/>
    <line x1="20" y1="6" x2="20" y2="4 M28 6 L28 4" stroke-width="2"/>
    <line x1="24" y1="18" x2="24" y2="38 M18 28 L30 28"/>
    </g>
    <g stroke="#190f1d" stroke-width="3" stroke-linecap="round" stroke-linejoin="round" transform="translate(1,1)">
    <rect x="16" y="6" width="16" height="12" rx="3"/>
    <rect x="14" y="18" width="20" height="26" rx="4"/>
    <line x1="20" y1="6" x2="20" y2="4 M28 6 L28 4" stroke-width="2"/>
    <line x1="24" y1="18" x2="24" y2="38 M18 28 L30 28"/>
    </g>
    <g stroke="url(#g)" stroke-width="1.5" stroke-linecap="round" stroke-linejoin="round">
    <rect x="16" y="6" width="16" height="12" rx="3"/>
    <rect x="14" y="18" width="20" height="26" rx="4"/>
    <line x1="20" y1="6" x2="20" y2="4 M28 6 L28 4" stroke-width="2"/>
    <line x1="24" y1="18" x2="24" y2="38 M18 28 L30 28"/>
    </g>
  </g>
</svg>