<svg xmlns="http://www.w3.org/2000/svg" viewBox="0 0 48 48">
  <defs>
    <linearGradient id="iconGrad" x1="0%" y1="0%" x2="100%" y2="100%">
      <stop offset="0%" stop-color="#A5D6A7"/>
      <stop offset="100%" stop-color="#38673A"/>
    </linearGradient>
    <filter id="shadow" x="-30%" y="-30%" width="160%" height="160%">
      <feDropShadow dx="2.5" dy="3.5" stdDeviation="3" flood-color="#1a1a2e" flood-opacity="0.45"/>
    </filter>
  </defs>
  <g filter="url(#shadow)" fill="none">
    <g stroke="#1C341D" stroke-width="4.5" stroke-linecap="round" stroke-linejoin="round" transform="translate(2,2)">
      <path d="M10 6 L30 6 L38 14 L38 42 L10 42 Z"/>
      <path d="M30 6 L30 14 L38 14"/>
      <line x1="16" y1="20" x2="34" y2="20"/>
      <line x1="16" y1="28" x2="34" y2="28"/>
      <line x1="16" y1="36" x2="34" y2="36"/>
      <line x1="27" y1="20" x2="27" y2="36"/>
    </g>
    <g stroke="#38673A" stroke-width="3" stroke-linecap="round" stroke-linejoin="round" transform="translate(1,1)">
      <path d="M10 6 L30 6 L38 14 L38 42 L10 42 Z"/>
      <path d="M30 6 L30 14 L38 14"/>
      <line x1="16" y1="20" x2="34" y2="20"/>
      <line x1="16" y1="28" x2="34" y2="28"/>
      <line x1="16" y1="36" x2="34" y2="36"/>
      <line x1="27" y1="20" x2="27" y2="36"/>
    </g>
    <g stroke="url(#iconGrad)" stroke-width="1.5" stroke-linecap="round" stroke-linejoin="round">
      <path d="M10 6 L30 6 L38 14 L38 42 L10 42 Z"/>
      <path d="M30 6 L30 14 L38 14"/>
      <line x1="16" y1="20" x2="34" y2="20"/>
      <line x1="16" y1="28" x2="34" y2="28"/>
      <line x1="16" y1="36" x2="34" y2="36"/>
      <line x1="27" y1="20" x2="27" y2="36"/>
    </g>
  </g>
</svg>