<svg xmlns="http://www.w3.org/2000/svg" viewBox="0 0 48 48">
  <defs>
    <linearGradient id="g" x1="0%" y1="0%" x2="100%" y2="100%">
      <stop offset="0%" stop-color="#bda8d2"/>
      <stop offset="100%" stop-color="#1b0f26"/>
    </linearGradient>
    <filter id="shadow" x="-30%" y="-30%" width="160%" height="160%">
      <feDropShadow dx="2.5" dy="3.5" stdDeviation="3" flood-color="#1a1a2e" flood-opacity="0.45"/>
    </filter>
  </defs>
  <g filter="url(#shadow)" fill="none">
    <g stroke="#0d0713" stroke-width="4.5" stroke-linecap="round" stroke-linejoin="round" transform="translate(2,2)">
    <rect x="16" y="22" width="16" height="14" rx="2"/>
    <line x1="24" y1="36" x2="24" y2="44"/>
    <line x1="12" y1="20" x2="16" y2="20 M36 20 L32 20"/>
    <path d="M6 14 L12 18 M42 14 L36 18"/>
    <line x1="6" y1="14" x2="6" y2="8 M42 14 L42 8"/>
    </g>
    <g stroke="#1b0f26" stroke-width="3" stroke-linecap="round" stroke-linejoin="round" transform="translate(1,1)">
    <rect x="16" y="22" width="16" height="14" rx="2"/>
    <line x1="24" y1="36" x2="24" y2="44"/>
    <line x1="12" y1="20" x2="16" y2="20 M36 20 L32 20"/>
    <path d="M6 14 L12 18 M42 14 L36 18"/>
    <line x1="6" y1="14" x2="6" y2="8 M42 14 L42 8"/>
    </g>
    <g stroke="url(#g)" stroke-width="1.5" stroke-linecap="round" stroke-linejoin="round">
    <rect x="16" y="22" width="16" height="14" rx="2"/>
    <line x1="24" y1="36" x2="24" y2="44"/>
    <line x1="12" y1="20" x2="16" y2="20 M36 20 L32 20"/>
    <path d="M6 14 L12 18 M42 14 L36 18"/>
    <line x1="6" y1="14" x2="6" y2="8 M42 14 L42 8"/>
    </g>
  </g>
</svg>