<svg xmlns="http://www.w3.org/2000/svg" viewBox="0 0 48 48">
  <defs>
    <linearGradient id="g" x1="0%" y1="0%" x2="100%" y2="100%">
      <stop offset="0%" stop-color="#a9d6a2"/>
      <stop offset="100%" stop-color="#235a1a"/>
    </linearGradient>
    <filter id="sh" x="-30%" y="-30%" width="160%" height="160%">
      <feDropShadow dx="2.5" dy="3.5" stdDeviation="3" flood-color="#1a1a2e" flood-opacity="0.45"/>
    </filter>
  </defs>
  <g filter="url(#sh)" fill="none">
    <g stroke="#10290c" stroke-width="4.5" stroke-linecap="round" stroke-linejoin="round" transform="translate(2,2)">
<circle cx="24" cy="24" r="10"/><circle cx="24" cy="24" r="4"/><line x1="24" y1="14" x2="24" y2="6"/><line x1="14" y1="24" x2="6" y2="24"/><line x1="34" y1="24" x2="42" y2="24"/><path d="M10 14 L6 10 M38 14 L42 10"/><line x1="24" y1="34" x2="24" y2="42"/>
    </g>
    <g stroke="#235a1a" stroke-width="3" stroke-linecap="round" stroke-linejoin="round" transform="translate(1,1)">
<circle cx="24" cy="24" r="10"/><circle cx="24" cy="24" r="4"/><line x1="24" y1="14" x2="24" y2="6"/><line x1="14" y1="24" x2="6" y2="24"/><line x1="34" y1="24" x2="42" y2="24"/><path d="M10 14 L6 10 M38 14 L42 10"/><line x1="24" y1="34" x2="24" y2="42"/>
    </g>
    <g stroke="url(#g)" stroke-width="1.5" stroke-linecap="round" stroke-linejoin="round">
<circle cx="24" cy="24" r="10"/><circle cx="24" cy="24" r="4"/><line x1="24" y1="14" x2="24" y2="6"/><line x1="14" y1="24" x2="6" y2="24"/><line x1="34" y1="24" x2="42" y2="24"/><path d="M10 14 L6 10 M38 14 L42 10"/><line x1="24" y1="34" x2="24" y2="42"/>
    </g>
  </g>
</svg>