<svg xmlns="http://www.w3.org/2000/svg" viewBox="0 0 48 48">
  <defs>
    <linearGradient id="g" x1="0%" y1="0%" x2="100%" y2="100%">
      <stop offset="0%" stop-color="#c9b2e5"/>
      <stop offset="100%" stop-color="#4a2e6c"/>
    </linearGradient>
    <filter id="sh" x="-30%" y="-30%" width="160%" height="160%">
      <feDropShadow dx="2.5" dy="3.5" stdDeviation="3" flood-color="#1a1a2e" flood-opacity="0.45"/>
    </filter>
  </defs>
  <g filter="url(#sh)" fill="none">
    <g stroke="#211531" stroke-width="4.5" stroke-linecap="round" stroke-linejoin="round" transform="translate(2,2)">
<rect x="6" y="6" width="36" height="36" rx="4"/>
        <line x1="6" y1="18" x2="42" y2="18"/>
        <line x1="18" y1="6" x2="18" y2="42"/>
        <circle cx="12" cy="12" r="2"/>
        <circle cx="36" cy="36" r="2"/>
        <circle cx="36" cy="12" r="2"/>
        <circle cx="12" cy="36" r="2"/>
    </g>
    <g stroke="#4a2e6c" stroke-width="3" stroke-linecap="round" stroke-linejoin="round" transform="translate(1,1)">
<rect x="6" y="6" width="36" height="36" rx="4"/>
        <line x1="6" y1="18" x2="42" y2="18"/>
        <line x1="18" y1="6" x2="18" y2="42"/>
        <circle cx="12" cy="12" r="2"/>
        <circle cx="36" cy="36" r="2"/>
        <circle cx="36" cy="12" r="2"/>
        <circle cx="12" cy="36" r="2"/>
    </g>
    <g stroke="url(#g)" stroke-width="1.5" stroke-linecap="round" stroke-linejoin="round">
<rect x="6" y="6" width="36" height="36" rx="4"/>
        <line x1="6" y1="18" x2="42" y2="18"/>
        <line x1="18" y1="6" x2="18" y2="42"/>
        <circle cx="12" cy="12" r="2"/>
        <circle cx="36" cy="36" r="2"/>
        <circle cx="36" cy="12" r="2"/>
        <circle cx="12" cy="36" r="2"/>
    </g>
  </g>
</svg>