<svg xmlns="http://www.w3.org/2000/svg" viewBox="0 0 48 48">
  <defs>
    <linearGradient id="g" x1="0%" y1="0%" x2="100%" y2="100%">
      <stop offset="0%" stop-color="#c0ddb9"/>
      <stop offset="100%" stop-color="#406337"/>
    </linearGradient>
    <filter id="sh" x="-30%" y="-30%" width="160%" height="160%">
      <feDropShadow dx="2.5" dy="3.5" stdDeviation="3" flood-color="#1a1a2e" flood-opacity="0.45"/>
    </filter>
  </defs>
  <g filter="url(#sh)" fill="none">
    <g stroke="#1d2d19" stroke-width="4.5" stroke-linecap="round" stroke-linejoin="round" transform="translate(2,2)">
<ellipse cx="24" cy="20" rx="10" ry="12"/><path d="M14 28 Q10 38 6 36"/><path d="M18 30 Q16 40 14 40"/><path d="M24 32 L24 42"/><path d="M30 30 Q32 40 34 40"/><path d="M34 28 Q38 38 42 36"/><circle cx="20" cy="18" r="2"/><circle cx="28" cy="18" r="2"/>
    </g>
    <g stroke="#406337" stroke-width="3" stroke-linecap="round" stroke-linejoin="round" transform="translate(1,1)">
<ellipse cx="24" cy="20" rx="10" ry="12"/><path d="M14 28 Q10 38 6 36"/><path d="M18 30 Q16 40 14 40"/><path d="M24 32 L24 42"/><path d="M30 30 Q32 40 34 40"/><path d="M34 28 Q38 38 42 36"/><circle cx="20" cy="18" r="2"/><circle cx="28" cy="18" r="2"/>
    </g>
    <g stroke="url(#g)" stroke-width="1.5" stroke-linecap="round" stroke-linejoin="round">
<ellipse cx="24" cy="20" rx="10" ry="12"/><path d="M14 28 Q10 38 6 36"/><path d="M18 30 Q16 40 14 40"/><path d="M24 32 L24 42"/><path d="M30 30 Q32 40 34 40"/><path d="M34 28 Q38 38 42 36"/><circle cx="20" cy="18" r="2"/><circle cx="28" cy="18" r="2"/>
    </g>
  </g>
</svg>