<svg xmlns="http://www.w3.org/2000/svg" viewBox="0 0 48 48">
  <defs>
    <linearGradient id="g" x1="0%" y1="0%" x2="100%" y2="100%">
      <stop offset="0%" stop-color="#dddab9"/>
      <stop offset="100%" stop-color="#2d2b19"/>
    </linearGradient>
    <filter id="shadow" x="-30%" y="-30%" width="160%" height="160%">
      <feDropShadow dx="2.5" dy="3.5" stdDeviation="3" flood-color="#1a1a2e" flood-opacity="0.45"/>
    </filter>
  </defs>
  <g filter="url(#shadow)" fill="none">
    <g stroke="#16150c" stroke-width="4.5" stroke-linecap="round" stroke-linejoin="round" transform="translate(2,2)">
    <ellipse cx="24" cy="16" rx="8" ry="6"/>
    <polygon points="16,18 8,24 10,30 16,26"/>
    <polygon points="24,20 18,28 20,34 24,28"/>
    <polygon points="24,20 28,28 26,34 24,28"/>
    <polygon points="32,18 40,24 38,30 32,26"/>
    <circle cx="24" cy="14" r="3"/>
    <circle cx="22" cy="12" r="1.2"/>
    </g>
    <g stroke="#2d2b19" stroke-width="3" stroke-linecap="round" stroke-linejoin="round" transform="translate(1,1)">
    <ellipse cx="24" cy="16" rx="8" ry="6"/>
    <polygon points="16,18 8,24 10,30 16,26"/>
    <polygon points="24,20 18,28 20,34 24,28"/>
    <polygon points="24,20 28,28 26,34 24,28"/>
    <polygon points="32,18 40,24 38,30 32,26"/>
    <circle cx="24" cy="14" r="3"/>
    <circle cx="22" cy="12" r="1.2"/>
    </g>
    <g stroke="url(#g)" stroke-width="1.5" stroke-linecap="round" stroke-linejoin="round">
    <ellipse cx="24" cy="16" rx="8" ry="6"/>
    <polygon points="16,18 8,24 10,30 16,26"/>
    <polygon points="24,20 18,28 20,34 24,28"/>
    <polygon points="24,20 28,28 26,34 24,28"/>
    <polygon points="32,18 40,24 38,30 32,26"/>
    <circle cx="24" cy="14" r="3"/>
    <circle cx="22" cy="12" r="1.2"/>
    </g>
  </g>
</svg>