<svg xmlns="http://www.w3.org/2000/svg" viewBox="0 0 48 48">
  <defs>
    <linearGradient id="g" x1="0%" y1="0%" x2="100%" y2="100%">
      <stop offset="0%" stop-color="#ade0db"/>
      <stop offset="100%" stop-color="#122f2b"/>
    </linearGradient>
    <filter id="shadow" x="-30%" y="-30%" width="160%" height="160%">
      <feDropShadow dx="2.5" dy="3.5" stdDeviation="3" flood-color="#1a1a2e" flood-opacity="0.45"/>
    </filter>
  </defs>
  <g filter="url(#shadow)" fill="none">
    <g stroke="#091715" stroke-width="4.5" stroke-linecap="round" stroke-linejoin="round" transform="translate(2,2)">
    <line x1="4" y1="44" x2="44" y2="4" stroke-width="3"/>
    <line x1="4" y1="44" x2="44" y2="44 M4 44 L4 4"/>
    <line x1="12" y1="44" x2="12" y2="16 M20 44 L20 24 M28 44 L28 32 M36 44 L36 40"/>
    </g>
    <g stroke="#122f2b" stroke-width="3" stroke-linecap="round" stroke-linejoin="round" transform="translate(1,1)">
    <line x1="4" y1="44" x2="44" y2="4" stroke-width="3"/>
    <line x1="4" y1="44" x2="44" y2="44 M4 44 L4 4"/>
    <line x1="12" y1="44" x2="12" y2="16 M20 44 L20 24 M28 44 L28 32 M36 44 L36 40"/>
    </g>
    <g stroke="url(#g)" stroke-width="1.5" stroke-linecap="round" stroke-linejoin="round">
    <line x1="4" y1="44" x2="44" y2="4" stroke-width="3"/>
    <line x1="4" y1="44" x2="44" y2="44 M4 44 L4 4"/>
    <line x1="12" y1="44" x2="12" y2="16 M20 44 L20 24 M28 44 L28 32 M36 44 L36 40"/>
    </g>
  </g>
</svg>