<svg xmlns="http://www.w3.org/2000/svg" viewBox="0 0 48 48">
  <defs>
    <linearGradient id="g" x1="0%" y1="0%" x2="100%" y2="100%">
      <stop offset="0%" stop-color="#b7c0a6"/>
      <stop offset="100%" stop-color="#181d0e"/>
    </linearGradient>
    <filter id="shadow" x="-30%" y="-30%" width="160%" height="160%">
      <feDropShadow dx="2.5" dy="3.5" stdDeviation="3" flood-color="#1a1a2e" flood-opacity="0.45"/>
    </filter>
  </defs>
  <g filter="url(#shadow)" fill="none">
    <g stroke="#0c0e07" stroke-width="4.5" stroke-linecap="round" stroke-linejoin="round" transform="translate(2,2)">
    <rect x="8" y="8" width="32" height="32" rx="4"/>
    <rect x="12" y="12" width="24" height="24" rx="2"/>
    <circle cx="24" cy="24" r="6"/>
    <circle cx="24" cy="24" r="2" fill="currentColor"/>
    </g>
    <g stroke="#181d0e" stroke-width="3" stroke-linecap="round" stroke-linejoin="round" transform="translate(1,1)">
    <rect x="8" y="8" width="32" height="32" rx="4"/>
    <rect x="12" y="12" width="24" height="24" rx="2"/>
    <circle cx="24" cy="24" r="6"/>
    <circle cx="24" cy="24" r="2" fill="currentColor"/>
    </g>
    <g stroke="url(#g)" stroke-width="1.5" stroke-linecap="round" stroke-linejoin="round">
    <rect x="8" y="8" width="32" height="32" rx="4"/>
    <rect x="12" y="12" width="24" height="24" rx="2"/>
    <circle cx="24" cy="24" r="6"/>
    <circle cx="24" cy="24" r="2" fill="currentColor"/>
    </g>
  </g>
</svg>