<svg xmlns="http://www.w3.org/2000/svg" viewBox="0 0 48 48">
  <defs>
    <linearGradient id="g" x1="0%" y1="0%" x2="100%" y2="100%">
      <stop offset="0%" stop-color="#b9e0cf"/>
      <stop offset="100%" stop-color="#376751"/>
    </linearGradient>
    <filter id="sh" x="-30%" y="-30%" width="160%" height="160%">
      <feDropShadow dx="2.5" dy="3.5" stdDeviation="3" flood-color="#1a1a2e" flood-opacity="0.45"/>
    </filter>
  </defs>
  <g filter="url(#sh)" fill="none">
    <g stroke="#192f25" stroke-width="4.5" stroke-linecap="round" stroke-linejoin="round" transform="translate(2,2)">
<path d="M24 8 L29 18 L40 18 L32 26 L35 38 L24 30 L13 38 L16 26 L8 18 L19 18 Z"/><circle cx="24" cy="24" r="4"/><circle cx="24" cy="24" r="2"/><line x1="24" y1="8" x2="24" y2="6"/>
    </g>
    <g stroke="#376751" stroke-width="3" stroke-linecap="round" stroke-linejoin="round" transform="translate(1,1)">
<path d="M24 8 L29 18 L40 18 L32 26 L35 38 L24 30 L13 38 L16 26 L8 18 L19 18 Z"/><circle cx="24" cy="24" r="4"/><circle cx="24" cy="24" r="2"/><line x1="24" y1="8" x2="24" y2="6"/>
    </g>
    <g stroke="url(#g)" stroke-width="1.5" stroke-linecap="round" stroke-linejoin="round">
<path d="M24 8 L29 18 L40 18 L32 26 L35 38 L24 30 L13 38 L16 26 L8 18 L19 18 Z"/><circle cx="24" cy="24" r="4"/><circle cx="24" cy="24" r="2"/><line x1="24" y1="8" x2="24" y2="6"/>
    </g>
  </g>
</svg>