<svg xmlns="http://www.w3.org/2000/svg" viewBox="0 0 48 48">
  <defs>
    <linearGradient id="iconGrad" x1="0%" y1="0%" x2="100%" y2="100%">
      <stop offset="0%" stop-color="#F8BBD0"/>
      <stop offset="100%" stop-color="#864e61"/>
    </linearGradient>
    <filter id="shadow" x="-30%" y="-30%" width="160%" height="160%">
      <feDropShadow dx="2.5" dy="3.5" stdDeviation="3" flood-color="#1a1a2e" flood-opacity="0.45"/>
    </filter>
  </defs>
  <g filter="url(#shadow)" fill="none">
    <g stroke="#432730" stroke-width="4.5" stroke-linecap="round" stroke-linejoin="round" transform="translate(2,2)">
      <polygon points="24,6 27.5,18 40,18 30,25 33.5,38 24,30 14.5,38 18,25 8,18 20.5,18"/>
    </g>
    <g stroke="#864e61" stroke-width="3" stroke-linecap="round" stroke-linejoin="round" transform="translate(1,1)">
      <polygon points="24,6 27.5,18 40,18 30,25 33.5,38 24,30 14.5,38 18,25 8,18 20.5,18"/>
    </g>
    <g stroke="url(#iconGrad)" stroke-width="1.5" stroke-linecap="round" stroke-linejoin="round">
      <polygon points="24,6 27.5,18 40,18 30,25 33.5,38 24,30 14.5,38 18,25 8,18 20.5,18"/>
    </g>
  </g>
</svg>
