<svg xmlns="http://www.w3.org/2000/svg" viewBox="0 0 48 48">
  <defs>
    <linearGradient id="g" x1="0%" y1="0%" x2="100%" y2="100%">
      <stop offset="0%" stop-color="#daa5bf"/>
      <stop offset="100%" stop-color="#5f1f3e"/>
    </linearGradient>
    <filter id="sh" x="-30%" y="-30%" width="160%" height="160%">
      <feDropShadow dx="2.5" dy="3.5" stdDeviation="3" flood-color="#1a1a2e" flood-opacity="0.45"/>
    </filter>
  </defs>
  <g filter="url(#sh)" fill="none">
    <g stroke="#2b0e1c" stroke-width="4.5" stroke-linecap="round" stroke-linejoin="round" transform="translate(2,2)">
<line x1="24" y1="6" x2="24" y2="42"/>
        <line x1="6" y1="24" x2="42" y2="24"/>
        <line x1="10" y1="10" x2="38" y2="38"/>
        <line x1="38" y1="10" x2="10" y2="38"/>
        <circle cx="24" cy="12" r="2"/>
        <circle cx="12" cy="24" r="2"/>
        <circle cx="36" cy="24" r="2"/>
        <circle cx="24" cy="36" r="2"/>
    </g>
    <g stroke="#5f1f3e" stroke-width="3" stroke-linecap="round" stroke-linejoin="round" transform="translate(1,1)">
<line x1="24" y1="6" x2="24" y2="42"/>
        <line x1="6" y1="24" x2="42" y2="24"/>
        <line x1="10" y1="10" x2="38" y2="38"/>
        <line x1="38" y1="10" x2="10" y2="38"/>
        <circle cx="24" cy="12" r="2"/>
        <circle cx="12" cy="24" r="2"/>
        <circle cx="36" cy="24" r="2"/>
        <circle cx="24" cy="36" r="2"/>
    </g>
    <g stroke="url(#g)" stroke-width="1.5" stroke-linecap="round" stroke-linejoin="round">
<line x1="24" y1="6" x2="24" y2="42"/>
        <line x1="6" y1="24" x2="42" y2="24"/>
        <line x1="10" y1="10" x2="38" y2="38"/>
        <line x1="38" y1="10" x2="10" y2="38"/>
        <circle cx="24" cy="12" r="2"/>
        <circle cx="12" cy="24" r="2"/>
        <circle cx="36" cy="24" r="2"/>
        <circle cx="24" cy="36" r="2"/>
    </g>
  </g>
</svg>