<svg xmlns="http://www.w3.org/2000/svg" viewBox="0 0 48 48">
  <defs>
    <linearGradient id="g" x1="0%" y1="0%" x2="100%" y2="100%">
      <stop offset="0%" stop-color="#b2c9a4"/>
      <stop offset="100%" stop-color="#15220d"/>
    </linearGradient>
    <filter id="shadow" x="-30%" y="-30%" width="160%" height="160%">
      <feDropShadow dx="2.5" dy="3.5" stdDeviation="3" flood-color="#1a1a2e" flood-opacity="0.45"/>
    </filter>
  </defs>
  <g filter="url(#shadow)" fill="none">
    <g stroke="#0a1106" stroke-width="4.5" stroke-linecap="round" stroke-linejoin="round" transform="translate(2,2)">
    <ellipse cx="24" cy="24" rx="14" ry="10"/>
    <path d="M12 18 L10 26 M18 16 L16 28 M26 16 L24 28 M34 18 L32 26"/>
    <path d="M14 30 Q18 34 24 32 Q30 30 34 34"/>
    </g>
    <g stroke="#15220d" stroke-width="3" stroke-linecap="round" stroke-linejoin="round" transform="translate(1,1)">
    <ellipse cx="24" cy="24" rx="14" ry="10"/>
    <path d="M12 18 L10 26 M18 16 L16 28 M26 16 L24 28 M34 18 L32 26"/>
    <path d="M14 30 Q18 34 24 32 Q30 30 34 34"/>
    </g>
    <g stroke="url(#g)" stroke-width="1.5" stroke-linecap="round" stroke-linejoin="round">
    <ellipse cx="24" cy="24" rx="14" ry="10"/>
    <path d="M12 18 L10 26 M18 16 L16 28 M26 16 L24 28 M34 18 L32 26"/>
    <path d="M14 30 Q18 34 24 32 Q30 30 34 34"/>
    </g>
  </g>
</svg>