<svg xmlns="http://www.w3.org/2000/svg" viewBox="0 0 48 48">
  <defs>
    <linearGradient id="iconGrad" x1="0%" y1="0%" x2="100%" y2="100%">
      <stop offset="0%" stop-color="#B2DFDB"/>
      <stop offset="100%" stop-color="#426A65"/>
    </linearGradient>
    <filter id="shadow" x="-30%" y="-30%" width="160%" height="160%">
      <feDropShadow dx="2.5" dy="3.5" stdDeviation="3" flood-color="#1a1a2e" flood-opacity="0.45"/>
    </filter>
  </defs>
  <g filter="url(#shadow)" fill="none">
    <g stroke="#213533" stroke-width="4.5" stroke-linecap="round" stroke-linejoin="round" transform="translate(2,2)">
      <path d="M12 10 C12 16, 24 18, 24 22 L24 32"/>
      <path d="M36 10 C36 16, 24 18, 24 22 L24 32"/>
      <circle cx="24" cy="37" r="5"/>
    </g>
    <g stroke="#426A65" stroke-width="3" stroke-linecap="round" stroke-linejoin="round" transform="translate(1,1)">
      <path d="M12 10 C12 16, 24 18, 24 22 L24 32"/>
      <path d="M36 10 C36 16, 24 18, 24 22 L24 32"/>
      <circle cx="24" cy="37" r="5"/>
    </g>
    <g stroke="url(#iconGrad)" stroke-width="1.5" stroke-linecap="round" stroke-linejoin="round">
      <path d="M12 10 C12 16, 24 18, 24 22 L24 32"/>
      <path d="M36 10 C36 16, 24 18, 24 22 L24 32"/>
      <circle cx="24" cy="37" r="5"/>
    </g>
  </g>
</svg>