<svg xmlns="http://www.w3.org/2000/svg" viewBox="0 0 48 48">
  <defs>
    <linearGradient id="g" x1="0%" y1="0%" x2="100%" y2="100%">
      <stop offset="0%" stop-color="#bbc4af"/>
      <stop offset="100%" stop-color="#39442b"/>
    </linearGradient>
    <filter id="sh" x="-30%" y="-30%" width="160%" height="160%">
      <feDropShadow dx="2.5" dy="3.5" stdDeviation="3" flood-color="#1a1a2e" flood-opacity="0.45"/>
    </filter>
  </defs>
  <g filter="url(#sh)" fill="none">
    <g stroke="#1a1f13" stroke-width="4.5" stroke-linecap="round" stroke-linejoin="round" transform="translate(2,2)">
<path d="M4 28 Q24 6 44 28 Q24 38 4 28 Z"/><line x1="24" y1="16" x2="24" y2="38"/><circle cx="18" cy="22" r="1.5"/><circle cx="30" cy="22" r="1.5"/><line x1="24" y1="38" x2="20" y2="44"/><line x1="24" y1="38" x2="28" y2="44"/>
    </g>
    <g stroke="#39442b" stroke-width="3" stroke-linecap="round" stroke-linejoin="round" transform="translate(1,1)">
<path d="M4 28 Q24 6 44 28 Q24 38 4 28 Z"/><line x1="24" y1="16" x2="24" y2="38"/><circle cx="18" cy="22" r="1.5"/><circle cx="30" cy="22" r="1.5"/><line x1="24" y1="38" x2="20" y2="44"/><line x1="24" y1="38" x2="28" y2="44"/>
    </g>
    <g stroke="url(#g)" stroke-width="1.5" stroke-linecap="round" stroke-linejoin="round">
<path d="M4 28 Q24 6 44 28 Q24 38 4 28 Z"/><line x1="24" y1="16" x2="24" y2="38"/><circle cx="18" cy="22" r="1.5"/><circle cx="30" cy="22" r="1.5"/><line x1="24" y1="38" x2="20" y2="44"/><line x1="24" y1="38" x2="28" y2="44"/>
    </g>
  </g>
</svg>