<svg xmlns="http://www.w3.org/2000/svg" viewBox="0 0 48 48">
  <defs>
    <linearGradient id="g" x1="0%" y1="0%" x2="100%" y2="100%">
      <stop offset="0%" stop-color="#a8bdce"/>
      <stop offset="100%" stop-color="#0f1b24"/>
    </linearGradient>
    <filter id="shadow" x="-30%" y="-30%" width="160%" height="160%">
      <feDropShadow dx="2.5" dy="3.5" stdDeviation="3" flood-color="#1a1a2e" flood-opacity="0.45"/>
    </filter>
  </defs>
  <g filter="url(#shadow)" fill="none">
    <g stroke="#070d12" stroke-width="4.5" stroke-linecap="round" stroke-linejoin="round" transform="translate(2,2)">
    <ellipse cx="24" cy="20" rx="6" ry="5"/>
    <circle cx="24" cy="12" r="4"/>
    <circle cx="22" cy="10" r="1.5"/>
    <path d="M28 14 L36 8 L38 12"/>
    <line x1="24" y1="20" x2="24" y2="44"/>
    <line x1="24" y1="30" x2="30" y2="32"/>
    </g>
    <g stroke="#0f1b24" stroke-width="3" stroke-linecap="round" stroke-linejoin="round" transform="translate(1,1)">
    <ellipse cx="24" cy="20" rx="6" ry="5"/>
    <circle cx="24" cy="12" r="4"/>
    <circle cx="22" cy="10" r="1.5"/>
    <path d="M28 14 L36 8 L38 12"/>
    <line x1="24" y1="20" x2="24" y2="44"/>
    <line x1="24" y1="30" x2="30" y2="32"/>
    </g>
    <g stroke="url(#g)" stroke-width="1.5" stroke-linecap="round" stroke-linejoin="round">
    <ellipse cx="24" cy="20" rx="6" ry="5"/>
    <circle cx="24" cy="12" r="4"/>
    <circle cx="22" cy="10" r="1.5"/>
    <path d="M28 14 L36 8 L38 12"/>
    <line x1="24" y1="20" x2="24" y2="44"/>
    <line x1="24" y1="30" x2="30" y2="32"/>
    </g>
  </g>
</svg>