<svg xmlns="http://www.w3.org/2000/svg" viewBox="0 0 48 48">
  <defs>
    <linearGradient id="g" x1="0%" y1="0%" x2="100%" y2="100%">
      <stop offset="0%" stop-color="#cca3be"/>
      <stop offset="100%" stop-color="#230c1c"/>
    </linearGradient>
    <filter id="shadow" x="-30%" y="-30%" width="160%" height="160%">
      <feDropShadow dx="2.5" dy="3.5" stdDeviation="3" flood-color="#1a1a2e" flood-opacity="0.45"/>
    </filter>
  </defs>
  <g filter="url(#shadow)" fill="none">
    <g stroke="#11060e" stroke-width="4.5" stroke-linecap="round" stroke-linejoin="round" transform="translate(2,2)">
    <line x1="16" y1="10" x2="30" y2="38"/>
    <rect x="8" y="6" width="12" height="8" rx="3"/>
    <line x1="28" y1="42" x2="34" y2="42 M30 38 L30 44"/>
    </g>
    <g stroke="#230c1c" stroke-width="3" stroke-linecap="round" stroke-linejoin="round" transform="translate(1,1)">
    <line x1="16" y1="10" x2="30" y2="38"/>
    <rect x="8" y="6" width="12" height="8" rx="3"/>
    <line x1="28" y1="42" x2="34" y2="42 M30 38 L30 44"/>
    </g>
    <g stroke="url(#g)" stroke-width="1.5" stroke-linecap="round" stroke-linejoin="round">
    <line x1="16" y1="10" x2="30" y2="38"/>
    <rect x="8" y="6" width="12" height="8" rx="3"/>
    <line x1="28" y1="42" x2="34" y2="42 M30 38 L30 44"/>
    </g>
  </g>
</svg>