<svg xmlns="http://www.w3.org/2000/svg" viewBox="0 0 48 48">
  <defs>
    <linearGradient id="g" x1="0%" y1="0%" x2="100%" y2="100%">
      <stop offset="0%" stop-color="#a4bfa0"/>
      <stop offset="100%" stop-color="#0d1c0b"/>
    </linearGradient>
    <filter id="shadow" x="-30%" y="-30%" width="160%" height="160%">
      <feDropShadow dx="2.5" dy="3.5" stdDeviation="3" flood-color="#1a1a2e" flood-opacity="0.45"/>
    </filter>
  </defs>
  <g filter="url(#shadow)" fill="none">
    <g stroke="#060e05" stroke-width="4.5" stroke-linecap="round" stroke-linejoin="round" transform="translate(2,2)">
    <line x1="8" y1="26" x2="40" y2="26"/>
    <line x1="8" y1="26" x2="4" y2="44"/>
    <line x1="40" y1="26" x2="44" y2="44"/>
    <line x1="10" y1="20" x2="38" y2="20"/>
    <line x1="10" y1="14" x2="38" y2="14"/>
    <line x1="10" y1="14" x2="10" y2="20 M38 14 L38 20"/>
    </g>
    <g stroke="#0d1c0b" stroke-width="3" stroke-linecap="round" stroke-linejoin="round" transform="translate(1,1)">
    <line x1="8" y1="26" x2="40" y2="26"/>
    <line x1="8" y1="26" x2="4" y2="44"/>
    <line x1="40" y1="26" x2="44" y2="44"/>
    <line x1="10" y1="20" x2="38" y2="20"/>
    <line x1="10" y1="14" x2="38" y2="14"/>
    <line x1="10" y1="14" x2="10" y2="20 M38 14 L38 20"/>
    </g>
    <g stroke="url(#g)" stroke-width="1.5" stroke-linecap="round" stroke-linejoin="round">
    <line x1="8" y1="26" x2="40" y2="26"/>
    <line x1="8" y1="26" x2="4" y2="44"/>
    <line x1="40" y1="26" x2="44" y2="44"/>
    <line x1="10" y1="20" x2="38" y2="20"/>
    <line x1="10" y1="14" x2="38" y2="14"/>
    <line x1="10" y1="14" x2="10" y2="20 M38 14 L38 20"/>
    </g>
  </g>
</svg>