<svg xmlns="http://www.w3.org/2000/svg" viewBox="0 0 48 48">
  <defs>
    <linearGradient id="g" x1="0%" y1="0%" x2="100%" y2="100%">
      <stop offset="0%" stop-color="#9caac0"/>
      <stop offset="100%" stop-color="#132440"/>
    </linearGradient>
    <filter id="sh" x="-30%" y="-30%" width="160%" height="160%">
      <feDropShadow dx="2.5" dy="3.5" stdDeviation="3" flood-color="#1a1a2e" flood-opacity="0.45"/>
    </filter>
  </defs>
  <g filter="url(#sh)" fill="none">
    <g stroke="#09101d" stroke-width="4.5" stroke-linecap="round" stroke-linejoin="round" transform="translate(2,2)">
<path d="M8 30 L8 14 Q8 8 16 8 L32 8 Q40 8 40 14 L40 30 Z"/>
        <circle cx="16" cy="32" r="4"/>
        <circle cx="32" cy="32" r="4"/>
    </g>
    <g stroke="#132440" stroke-width="3" stroke-linecap="round" stroke-linejoin="round" transform="translate(1,1)">
<path d="M8 30 L8 14 Q8 8 16 8 L32 8 Q40 8 40 14 L40 30 Z"/>
        <circle cx="16" cy="32" r="4"/>
        <circle cx="32" cy="32" r="4"/>
    </g>
    <g stroke="url(#g)" stroke-width="1.5" stroke-linecap="round" stroke-linejoin="round">
<path d="M8 30 L8 14 Q8 8 16 8 L32 8 Q40 8 40 14 L40 30 Z"/>
        <circle cx="16" cy="32" r="4"/>
        <circle cx="32" cy="32" r="4"/>
    </g>
  </g>
</svg>