<svg xmlns="http://www.w3.org/2000/svg" viewBox="0 0 48 48">
  <defs>
    <linearGradient id="g" x1="0%" y1="0%" x2="100%" y2="100%">
      <stop offset="0%" stop-color="#c9a9b7"/>
      <stop offset="100%" stop-color="#4a2334"/>
    </linearGradient>
    <filter id="sh" x="-30%" y="-30%" width="160%" height="160%">
      <feDropShadow dx="2.5" dy="3.5" stdDeviation="3" flood-color="#1a1a2e" flood-opacity="0.45"/>
    </filter>
  </defs>
  <g filter="url(#sh)" fill="none">
    <g stroke="#211017" stroke-width="4.5" stroke-linecap="round" stroke-linejoin="round" transform="translate(2,2)">
<path d="M6 26 Q6 12 24 12 Q42 12 42 26 L42 36 L6 36 Z"/>
        <circle cx="14" cy="38" r="5"/>
        <circle cx="34" cy="38" r="5"/>
    </g>
    <g stroke="#4a2334" stroke-width="3" stroke-linecap="round" stroke-linejoin="round" transform="translate(1,1)">
<path d="M6 26 Q6 12 24 12 Q42 12 42 26 L42 36 L6 36 Z"/>
        <circle cx="14" cy="38" r="5"/>
        <circle cx="34" cy="38" r="5"/>
    </g>
    <g stroke="url(#g)" stroke-width="1.5" stroke-linecap="round" stroke-linejoin="round">
<path d="M6 26 Q6 12 24 12 Q42 12 42 26 L42 36 L6 36 Z"/>
        <circle cx="14" cy="38" r="5"/>
        <circle cx="34" cy="38" r="5"/>
    </g>
  </g>
</svg>