<svg xmlns="http://www.w3.org/2000/svg" viewBox="0 0 48 48">
  <defs>
    <linearGradient id="g" x1="0%" y1="0%" x2="100%" y2="100%">
      <stop offset="0%" stop-color="#e0b5e4"/>
      <stop offset="100%" stop-color="#2e1731"/>
    </linearGradient>
    <filter id="shadow" x="-30%" y="-30%" width="160%" height="160%">
      <feDropShadow dx="2.5" dy="3.5" stdDeviation="3" flood-color="#1a1a2e" flood-opacity="0.45"/>
    </filter>
  </defs>
  <g filter="url(#shadow)" fill="none">
    <g stroke="#170b18" stroke-width="4.5" stroke-linecap="round" stroke-linejoin="round" transform="translate(2,2)">
    <ellipse cx="24" cy="20" rx="14" ry="8"/>
    <ellipse cx="24" cy="16" rx="10" ry="6"/>
    <ellipse cx="24" cy="12" rx="6" ry="4"/>
    <circle cx="24" cy="10" r="3" fill="currentColor"/>
    <rect x="20" y="26" width="8" height="18" rx="3"/>
    </g>
    <g stroke="#2e1731" stroke-width="3" stroke-linecap="round" stroke-linejoin="round" transform="translate(1,1)">
    <ellipse cx="24" cy="20" rx="14" ry="8"/>
    <ellipse cx="24" cy="16" rx="10" ry="6"/>
    <ellipse cx="24" cy="12" rx="6" ry="4"/>
    <circle cx="24" cy="10" r="3" fill="currentColor"/>
    <rect x="20" y="26" width="8" height="18" rx="3"/>
    </g>
    <g stroke="url(#g)" stroke-width="1.5" stroke-linecap="round" stroke-linejoin="round">
    <ellipse cx="24" cy="20" rx="14" ry="8"/>
    <ellipse cx="24" cy="16" rx="10" ry="6"/>
    <ellipse cx="24" cy="12" rx="6" ry="4"/>
    <circle cx="24" cy="10" r="3" fill="currentColor"/>
    <rect x="20" y="26" width="8" height="18" rx="3"/>
    </g>
  </g>
</svg>