<svg xmlns="http://www.w3.org/2000/svg" viewBox="0 0 48 48">
  <defs>
    <linearGradient id="g" x1="0%" y1="0%" x2="100%" y2="100%">
      <stop offset="0%" stop-color="#a9e2b0"/>
      <stop offset="100%" stop-color="#24692c"/>
    </linearGradient>
    <filter id="sh" x="-30%" y="-30%" width="160%" height="160%">
      <feDropShadow dx="2.5" dy="3.5" stdDeviation="3" flood-color="#1a1a2e" flood-opacity="0.45"/>
    </filter>
  </defs>
  <g filter="url(#sh)" fill="none">
    <g stroke="#102f14" stroke-width="4.5" stroke-linecap="round" stroke-linejoin="round" transform="translate(2,2)">
<ellipse cx="24" cy="24" rx="16" ry="6"/>
        <line x1="8" y1="24" x2="8" y2="34"/>
        <line x1="40" y1="24" x2="40" y2="34"/>
        <rect x="8" y="34" width="32" height="8" rx="3"/>
    </g>
    <g stroke="#24692c" stroke-width="3" stroke-linecap="round" stroke-linejoin="round" transform="translate(1,1)">
<ellipse cx="24" cy="24" rx="16" ry="6"/>
        <line x1="8" y1="24" x2="8" y2="34"/>
        <line x1="40" y1="24" x2="40" y2="34"/>
        <rect x="8" y="34" width="32" height="8" rx="3"/>
    </g>
    <g stroke="url(#g)" stroke-width="1.5" stroke-linecap="round" stroke-linejoin="round">
<ellipse cx="24" cy="24" rx="16" ry="6"/>
        <line x1="8" y1="24" x2="8" y2="34"/>
        <line x1="40" y1="24" x2="40" y2="34"/>
        <rect x="8" y="34" width="32" height="8" rx="3"/>
    </g>
  </g>
</svg>