<svg xmlns="http://www.w3.org/2000/svg" viewBox="0 0 48 48">
  <defs>
    <linearGradient id="g" x1="0%" y1="0%" x2="100%" y2="100%">
      <stop offset="0%" stop-color="#c9bcb7"/>
      <stop offset="100%" stop-color="#221b17"/>
    </linearGradient>
    <filter id="shadow" x="-30%" y="-30%" width="160%" height="160%">
      <feDropShadow dx="2.5" dy="3.5" stdDeviation="3" flood-color="#1a1a2e" flood-opacity="0.45"/>
    </filter>
  </defs>
  <g filter="url(#shadow)" fill="none">
    <g stroke="#110d0b" stroke-width="4.5" stroke-linecap="round" stroke-linejoin="round" transform="translate(2,2)">
    <circle cx="24" cy="24" r="8"/>
    <line x1="24" y1="4" x2="24" y2="10 M24 38 L24 44 M4 24 L10 24 M38 24 L44 24"/>
    <line x1="8" y1="8" x2="12" y2="12 M36 8 L32 12 M8 40 L12 36 M36 40 L32 36"/>
    </g>
    <g stroke="#221b17" stroke-width="3" stroke-linecap="round" stroke-linejoin="round" transform="translate(1,1)">
    <circle cx="24" cy="24" r="8"/>
    <line x1="24" y1="4" x2="24" y2="10 M24 38 L24 44 M4 24 L10 24 M38 24 L44 24"/>
    <line x1="8" y1="8" x2="12" y2="12 M36 8 L32 12 M8 40 L12 36 M36 40 L32 36"/>
    </g>
    <g stroke="url(#g)" stroke-width="1.5" stroke-linecap="round" stroke-linejoin="round">
    <circle cx="24" cy="24" r="8"/>
    <line x1="24" y1="4" x2="24" y2="10 M24 38 L24 44 M4 24 L10 24 M38 24 L44 24"/>
    <line x1="8" y1="8" x2="12" y2="12 M36 8 L32 12 M8 40 L12 36 M36 40 L32 36"/>
    </g>
  </g>
</svg>