<svg xmlns="http://www.w3.org/2000/svg" viewBox="0 0 48 48">
  <defs>
    <linearGradient id="g" x1="0%" y1="0%" x2="100%" y2="100%">
      <stop offset="0%" stop-color="#c5b7ae"/>
      <stop offset="100%" stop-color="#453429"/>
    </linearGradient>
    <filter id="sh" x="-30%" y="-30%" width="160%" height="160%">
      <feDropShadow dx="2.5" dy="3.5" stdDeviation="3" flood-color="#1a1a2e" flood-opacity="0.45"/>
    </filter>
  </defs>
  <g filter="url(#sh)" fill="none">
    <g stroke="#1f1813" stroke-width="4.5" stroke-linecap="round" stroke-linejoin="round" transform="translate(2,2)">
<path d="M6 38 Q6 6 24 6 Q42 6 42 38"/>
        <line x1="6" y1="38" x2="42" y2="38"/>
        <rect x="8" y="8" width="12" height="12" rx="2"/>
        <line x1="14" y1="14" x2="14" y2="38"/>
        <line x1="14" y1="20" x2="38" y2="20"/>
    </g>
    <g stroke="#453429" stroke-width="3" stroke-linecap="round" stroke-linejoin="round" transform="translate(1,1)">
<path d="M6 38 Q6 6 24 6 Q42 6 42 38"/>
        <line x1="6" y1="38" x2="42" y2="38"/>
        <rect x="8" y="8" width="12" height="12" rx="2"/>
        <line x1="14" y1="14" x2="14" y2="38"/>
        <line x1="14" y1="20" x2="38" y2="20"/>
    </g>
    <g stroke="url(#g)" stroke-width="1.5" stroke-linecap="round" stroke-linejoin="round">
<path d="M6 38 Q6 6 24 6 Q42 6 42 38"/>
        <line x1="6" y1="38" x2="42" y2="38"/>
        <rect x="8" y="8" width="12" height="12" rx="2"/>
        <line x1="14" y1="14" x2="14" y2="38"/>
        <line x1="14" y1="20" x2="38" y2="20"/>
    </g>
  </g>
</svg>