<svg xmlns="http://www.w3.org/2000/svg" viewBox="0 0 48 48">
  <defs>
    <linearGradient id="g" x1="0%" y1="0%" x2="100%" y2="100%">
      <stop offset="0%" stop-color="#b0accc"/>
      <stop offset="100%" stop-color="#2c274e"/>
    </linearGradient>
    <filter id="sh" x="-30%" y="-30%" width="160%" height="160%">
      <feDropShadow dx="2.5" dy="3.5" stdDeviation="3" flood-color="#1a1a2e" flood-opacity="0.45"/>
    </filter>
  </defs>
  <g filter="url(#sh)" fill="none">
    <g stroke="#141223" stroke-width="4.5" stroke-linecap="round" stroke-linejoin="round" transform="translate(2,2)">
<path d="M6 38 Q6 6 24 6 Q42 6 42 38"/>
        <line x1="6" y1="38" x2="42" y2="38"/>
        <circle cx="14" cy="16" r="4"/>
        <circle cx="30" cy="12" r="5"/>
        <circle cx="34" cy="22" r="3"/>
        <circle cx="20" cy="28" r="4"/>
        <circle cx="36" cy="30" r="3"/>
    </g>
    <g stroke="#2c274e" stroke-width="3" stroke-linecap="round" stroke-linejoin="round" transform="translate(1,1)">
<path d="M6 38 Q6 6 24 6 Q42 6 42 38"/>
        <line x1="6" y1="38" x2="42" y2="38"/>
        <circle cx="14" cy="16" r="4"/>
        <circle cx="30" cy="12" r="5"/>
        <circle cx="34" cy="22" r="3"/>
        <circle cx="20" cy="28" r="4"/>
        <circle cx="36" cy="30" r="3"/>
    </g>
    <g stroke="url(#g)" stroke-width="1.5" stroke-linecap="round" stroke-linejoin="round">
<path d="M6 38 Q6 6 24 6 Q42 6 42 38"/>
        <line x1="6" y1="38" x2="42" y2="38"/>
        <circle cx="14" cy="16" r="4"/>
        <circle cx="30" cy="12" r="5"/>
        <circle cx="34" cy="22" r="3"/>
        <circle cx="20" cy="28" r="4"/>
        <circle cx="36" cy="30" r="3"/>
    </g>
  </g>
</svg>