<svg xmlns="http://www.w3.org/2000/svg" viewBox="0 0 48 48">
  <defs>
    <linearGradient id="g" x1="0%" y1="0%" x2="100%" y2="100%">
      <stop offset="0%" stop-color="#9c9fc0"/>
      <stop offset="100%" stop-color="#090a1d"/>
    </linearGradient>
    <filter id="shadow" x="-30%" y="-30%" width="160%" height="160%">
      <feDropShadow dx="2.5" dy="3.5" stdDeviation="3" flood-color="#1a1a2e" flood-opacity="0.45"/>
    </filter>
  </defs>
  <g filter="url(#shadow)" fill="none">
    <g stroke="#04050e" stroke-width="4.5" stroke-linecap="round" stroke-linejoin="round" transform="translate(2,2)">
    <polygon points="24,4 28,16 40,12 34,24 46,28 34,32 40,44 28,36 24,48 20,36 8,44 14,32 2,28 14,24 8,12 20,16"/>
    <circle cx="24" cy="26" r="4" fill="currentColor"/>
    </g>
    <g stroke="#090a1d" stroke-width="3" stroke-linecap="round" stroke-linejoin="round" transform="translate(1,1)">
    <polygon points="24,4 28,16 40,12 34,24 46,28 34,32 40,44 28,36 24,48 20,36 8,44 14,32 2,28 14,24 8,12 20,16"/>
    <circle cx="24" cy="26" r="4" fill="currentColor"/>
    </g>
    <g stroke="url(#g)" stroke-width="1.5" stroke-linecap="round" stroke-linejoin="round">
    <polygon points="24,4 28,16 40,12 34,24 46,28 34,32 40,44 28,36 24,48 20,36 8,44 14,32 2,28 14,24 8,12 20,16"/>
    <circle cx="24" cy="26" r="4" fill="currentColor"/>
    </g>
  </g>
</svg>