<svg xmlns="http://www.w3.org/2000/svg" viewBox="0 0 48 48">
  <defs>
    <linearGradient id="g" x1="0%" y1="0%" x2="100%" y2="100%">
      <stop offset="0%" stop-color="#a9e1e2"/>
      <stop offset="100%" stop-color="#246869"/>
    </linearGradient>
    <filter id="sh" x="-30%" y="-30%" width="160%" height="160%">
      <feDropShadow dx="2.5" dy="3.5" stdDeviation="3" flood-color="#1a1a2e" flood-opacity="0.45"/>
    </filter>
  </defs>
  <g filter="url(#sh)" fill="none">
    <g stroke="#102f2f" stroke-width="4.5" stroke-linecap="round" stroke-linejoin="round" transform="translate(2,2)">
<path d="M10 34 Q10 10 24 10 Q30 10 32 14"/><path d="M32 14 L40 10 L36 18"/><circle cx="22" cy="8" r="2"/><path d="M18 30 Q24 36 30 30"/><line x1="24" y1="10" x2="24" y2="6"/>
    </g>
    <g stroke="#246869" stroke-width="3" stroke-linecap="round" stroke-linejoin="round" transform="translate(1,1)">
<path d="M10 34 Q10 10 24 10 Q30 10 32 14"/><path d="M32 14 L40 10 L36 18"/><circle cx="22" cy="8" r="2"/><path d="M18 30 Q24 36 30 30"/><line x1="24" y1="10" x2="24" y2="6"/>
    </g>
    <g stroke="url(#g)" stroke-width="1.5" stroke-linecap="round" stroke-linejoin="round">
<path d="M10 34 Q10 10 24 10 Q30 10 32 14"/><path d="M32 14 L40 10 L36 18"/><circle cx="22" cy="8" r="2"/><path d="M18 30 Q24 36 30 30"/><line x1="24" y1="10" x2="24" y2="6"/>
    </g>
  </g>
</svg>