<svg xmlns="http://www.w3.org/2000/svg" viewBox="0 0 48 48">
  <defs>
    <linearGradient id="g" x1="0%" y1="0%" x2="100%" y2="100%">
      <stop offset="0%" stop-color="#b0bac1"/>
      <stop offset="100%" stop-color="#14191d"/>
    </linearGradient>
    <filter id="shadow" x="-30%" y="-30%" width="160%" height="160%">
      <feDropShadow dx="2.5" dy="3.5" stdDeviation="3" flood-color="#1a1a2e" flood-opacity="0.45"/>
    </filter>
  </defs>
  <g filter="url(#shadow)" fill="none">
    <g stroke="#0a0c0e" stroke-width="4.5" stroke-linecap="round" stroke-linejoin="round" transform="translate(2,2)">
    <path d="M10 18 L10 42 L38 42 L38 18 Z"/>
    <path d="M10 18 Q24 6 38 18"/>
    <polygon points="24,6 18,14 30,14"/>
    <line x1="24" y1="18" x2="24" y2="42"/>
    </g>
    <g stroke="#14191d" stroke-width="3" stroke-linecap="round" stroke-linejoin="round" transform="translate(1,1)">
    <path d="M10 18 L10 42 L38 42 L38 18 Z"/>
    <path d="M10 18 Q24 6 38 18"/>
    <polygon points="24,6 18,14 30,14"/>
    <line x1="24" y1="18" x2="24" y2="42"/>
    </g>
    <g stroke="url(#g)" stroke-width="1.5" stroke-linecap="round" stroke-linejoin="round">
    <path d="M10 18 L10 42 L38 42 L38 18 Z"/>
    <path d="M10 18 Q24 6 38 18"/>
    <polygon points="24,6 18,14 30,14"/>
    <line x1="24" y1="18" x2="24" y2="42"/>
    </g>
  </g>
</svg>