<svg xmlns="http://www.w3.org/2000/svg" viewBox="0 0 48 48">
  <defs>
    <linearGradient id="g" x1="0%" y1="0%" x2="100%" y2="100%">
      <stop offset="0%" stop-color="#c8a7d3"/>
      <stop offset="100%" stop-color="#492156"/>
    </linearGradient>
    <filter id="sh" x="-30%" y="-30%" width="160%" height="160%">
      <feDropShadow dx="2.5" dy="3.5" stdDeviation="3" flood-color="#1a1a2e" flood-opacity="0.45"/>
    </filter>
  </defs>
  <g filter="url(#sh)" fill="none">
    <g stroke="#210f27" stroke-width="4.5" stroke-linecap="round" stroke-linejoin="round" transform="translate(2,2)">
<circle cx="24" cy="8" r="4"/>
        <line x1="24" y1="12" x2="24" y2="24"/>
        <line x1="24" y1="16" x2="30" y2="12"/>
        <line x1="24" y1="20" x2="14" y2="18"/>
        <path d="M6 28 Q24 34 42 28"/>
        <path d="M6 34 Q24 40 42 34"/>
    </g>
    <g stroke="#492156" stroke-width="3" stroke-linecap="round" stroke-linejoin="round" transform="translate(1,1)">
<circle cx="24" cy="8" r="4"/>
        <line x1="24" y1="12" x2="24" y2="24"/>
        <line x1="24" y1="16" x2="30" y2="12"/>
        <line x1="24" y1="20" x2="14" y2="18"/>
        <path d="M6 28 Q24 34 42 28"/>
        <path d="M6 34 Q24 40 42 34"/>
    </g>
    <g stroke="url(#g)" stroke-width="1.5" stroke-linecap="round" stroke-linejoin="round">
<circle cx="24" cy="8" r="4"/>
        <line x1="24" y1="12" x2="24" y2="24"/>
        <line x1="24" y1="16" x2="30" y2="12"/>
        <line x1="24" y1="20" x2="14" y2="18"/>
        <path d="M6 28 Q24 34 42 28"/>
        <path d="M6 34 Q24 40 42 34"/>
    </g>
  </g>
</svg>