<svg xmlns="http://www.w3.org/2000/svg" viewBox="0 0 48 48">
  <defs>
    <linearGradient id="g" x1="0%" y1="0%" x2="100%" y2="100%">
      <stop offset="0%" stop-color="#cdbbde"/>
      <stop offset="100%" stop-color="#241a2d"/>
    </linearGradient>
    <filter id="shadow" x="-30%" y="-30%" width="160%" height="160%">
      <feDropShadow dx="2.5" dy="3.5" stdDeviation="3" flood-color="#1a1a2e" flood-opacity="0.45"/>
    </filter>
  </defs>
  <g filter="url(#shadow)" fill="none">
    <g stroke="#120d16" stroke-width="4.5" stroke-linecap="round" stroke-linejoin="round" transform="translate(2,2)">
    <path d="M10 22 Q24 14 38 22 L38 34 Q24 42 10 34 Z"/>
    <line x1="10" y1="28" x2="38" y2="28"/>
    <path d="M24 22 L24 38"/>
    </g>
    <g stroke="#241a2d" stroke-width="3" stroke-linecap="round" stroke-linejoin="round" transform="translate(1,1)">
    <path d="M10 22 Q24 14 38 22 L38 34 Q24 42 10 34 Z"/>
    <line x1="10" y1="28" x2="38" y2="28"/>
    <path d="M24 22 L24 38"/>
    </g>
    <g stroke="url(#g)" stroke-width="1.5" stroke-linecap="round" stroke-linejoin="round">
    <path d="M10 22 Q24 14 38 22 L38 34 Q24 42 10 34 Z"/>
    <line x1="10" y1="28" x2="38" y2="28"/>
    <path d="M24 22 L24 38"/>
    </g>
  </g>
</svg>