<svg xmlns="http://www.w3.org/2000/svg" viewBox="0 0 48 48">
  <defs>
    <linearGradient id="g" x1="0%" y1="0%" x2="100%" y2="100%">
      <stop offset="0%" stop-color="#e4a8b1"/>
      <stop offset="100%" stop-color="#310f14"/>
    </linearGradient>
    <filter id="shadow" x="-30%" y="-30%" width="160%" height="160%">
      <feDropShadow dx="2.5" dy="3.5" stdDeviation="3" flood-color="#1a1a2e" flood-opacity="0.45"/>
    </filter>
  </defs>
  <g filter="url(#shadow)" fill="none">
    <g stroke="#18070a" stroke-width="4.5" stroke-linecap="round" stroke-linejoin="round" transform="translate(2,2)">
    <line x1="8" y1="6" x2="40" y2="6"/>
    <line x1="14" y1="6" x2="14" y2="34"/>
    <line x1="34" y1="6" x2="34" y2="34"/>
    <line x1="12" y1="36" x2="36" y2="36"/>
    <path d="M14 34 L10 38 L18 38 Z M34 34 L30 38 L38 38 Z"/>
    </g>
    <g stroke="#310f14" stroke-width="3" stroke-linecap="round" stroke-linejoin="round" transform="translate(1,1)">
    <line x1="8" y1="6" x2="40" y2="6"/>
    <line x1="14" y1="6" x2="14" y2="34"/>
    <line x1="34" y1="6" x2="34" y2="34"/>
    <line x1="12" y1="36" x2="36" y2="36"/>
    <path d="M14 34 L10 38 L18 38 Z M34 34 L30 38 L38 38 Z"/>
    </g>
    <g stroke="url(#g)" stroke-width="1.5" stroke-linecap="round" stroke-linejoin="round">
    <line x1="8" y1="6" x2="40" y2="6"/>
    <line x1="14" y1="6" x2="14" y2="34"/>
    <line x1="34" y1="6" x2="34" y2="34"/>
    <line x1="12" y1="36" x2="36" y2="36"/>
    <path d="M14 34 L10 38 L18 38 Z M34 34 L30 38 L38 38 Z"/>
    </g>
  </g>
</svg>