<svg xmlns="http://www.w3.org/2000/svg" viewBox="0 0 48 48">
  <defs>
    <linearGradient id="g" x1="0%" y1="0%" x2="100%" y2="100%">
      <stop offset="0%" stop-color="#c0b2e2"/>
      <stop offset="100%" stop-color="#1c152f"/>
    </linearGradient>
    <filter id="shadow" x="-30%" y="-30%" width="160%" height="160%">
      <feDropShadow dx="2.5" dy="3.5" stdDeviation="3" flood-color="#1a1a2e" flood-opacity="0.45"/>
    </filter>
  </defs>
  <g filter="url(#shadow)" fill="none">
    <g stroke="#0e0a17" stroke-width="4.5" stroke-linecap="round" stroke-linejoin="round" transform="translate(2,2)">
    <rect x="6" y="14" width="36" height="26" rx="3"/>
    <rect x="6" y="14" width="36" height="6" rx="2"/>
    <line x1="6" y1="24" x2="42" y2="24 M14 14 L14 40 M22 14 L22 40 M30 14 L30 40 M38 14 L38 40"/>
    <rect x="16" y="28" width="12" height="8" rx="1"/>
    </g>
    <g stroke="#1c152f" stroke-width="3" stroke-linecap="round" stroke-linejoin="round" transform="translate(1,1)">
    <rect x="6" y="14" width="36" height="26" rx="3"/>
    <rect x="6" y="14" width="36" height="6" rx="2"/>
    <line x1="6" y1="24" x2="42" y2="24 M14 14 L14 40 M22 14 L22 40 M30 14 L30 40 M38 14 L38 40"/>
    <rect x="16" y="28" width="12" height="8" rx="1"/>
    </g>
    <g stroke="url(#g)" stroke-width="1.5" stroke-linecap="round" stroke-linejoin="round">
    <rect x="6" y="14" width="36" height="26" rx="3"/>
    <rect x="6" y="14" width="36" height="6" rx="2"/>
    <line x1="6" y1="24" x2="42" y2="24 M14 14 L14 40 M22 14 L22 40 M30 14 L30 40 M38 14 L38 40"/>
    <rect x="16" y="28" width="12" height="8" rx="1"/>
    </g>
  </g>
</svg>