<svg xmlns="http://www.w3.org/2000/svg" viewBox="0 0 48 48">
  <defs>
    <linearGradient id="g" x1="0%" y1="0%" x2="100%" y2="100%">
      <stop offset="0%" stop-color="#b9a3c9"/>
      <stop offset="100%" stop-color="#190c21"/>
    </linearGradient>
    <filter id="shadow" x="-30%" y="-30%" width="160%" height="160%">
      <feDropShadow dx="2.5" dy="3.5" stdDeviation="3" flood-color="#1a1a2e" flood-opacity="0.45"/>
    </filter>
  </defs>
  <g filter="url(#shadow)" fill="none">
    <g stroke="#0c0610" stroke-width="4.5" stroke-linecap="round" stroke-linejoin="round" transform="translate(2,2)">
    <rect x="8" y="18" width="28" height="14" rx="3"/>
    <circle cx="36" cy="25" r="6"/>
    <circle cx="36" cy="25" r="3"/>
    <line x1="8" y1="18" x2="8" y2="32 M36 19 L36 31"/>
    </g>
    <g stroke="#190c21" stroke-width="3" stroke-linecap="round" stroke-linejoin="round" transform="translate(1,1)">
    <rect x="8" y="18" width="28" height="14" rx="3"/>
    <circle cx="36" cy="25" r="6"/>
    <circle cx="36" cy="25" r="3"/>
    <line x1="8" y1="18" x2="8" y2="32 M36 19 L36 31"/>
    </g>
    <g stroke="url(#g)" stroke-width="1.5" stroke-linecap="round" stroke-linejoin="round">
    <rect x="8" y="18" width="28" height="14" rx="3"/>
    <circle cx="36" cy="25" r="6"/>
    <circle cx="36" cy="25" r="3"/>
    <line x1="8" y1="18" x2="8" y2="32 M36 19 L36 31"/>
    </g>
  </g>
</svg>