<svg xmlns="http://www.w3.org/2000/svg" viewBox="0 0 48 48">
  <defs>
    <linearGradient id="g" x1="0%" y1="0%" x2="100%" y2="100%">
      <stop offset="0%" stop-color="#cbdeaa"/>
      <stop offset="100%" stop-color="#4d6424"/>
    </linearGradient>
    <filter id="sh" x="-30%" y="-30%" width="160%" height="160%">
      <feDropShadow dx="2.5" dy="3.5" stdDeviation="3" flood-color="#1a1a2e" flood-opacity="0.45"/>
    </filter>
  </defs>
  <g filter="url(#sh)" fill="none">
    <g stroke="#232d10" stroke-width="4.5" stroke-linecap="round" stroke-linejoin="round" transform="translate(2,2)">
<rect x="8" y="8" width="32" height="18" rx="4"/>
        <path d="M8 26 L14 38 L34 38 L40 26 Z"/>
        <circle cx="16" cy="18" r="2"/>
        <circle cx="24" cy="18" r="2"/>
        <circle cx="32" cy="18" r="2"/>
    </g>
    <g stroke="#4d6424" stroke-width="3" stroke-linecap="round" stroke-linejoin="round" transform="translate(1,1)">
<rect x="8" y="8" width="32" height="18" rx="4"/>
        <path d="M8 26 L14 38 L34 38 L40 26 Z"/>
        <circle cx="16" cy="18" r="2"/>
        <circle cx="24" cy="18" r="2"/>
        <circle cx="32" cy="18" r="2"/>
    </g>
    <g stroke="url(#g)" stroke-width="1.5" stroke-linecap="round" stroke-linejoin="round">
<rect x="8" y="8" width="32" height="18" rx="4"/>
        <path d="M8 26 L14 38 L34 38 L40 26 Z"/>
        <circle cx="16" cy="18" r="2"/>
        <circle cx="24" cy="18" r="2"/>
        <circle cx="32" cy="18" r="2"/>
    </g>
  </g>
</svg>