<svg xmlns="http://www.w3.org/2000/svg" viewBox="0 0 48 48">
  <defs>
    <linearGradient id="g" x1="0%" y1="0%" x2="100%" y2="100%">
      <stop offset="0%" stop-color="#adddb4"/>
      <stop offset="100%" stop-color="#122d16"/>
    </linearGradient>
    <filter id="shadow" x="-30%" y="-30%" width="160%" height="160%">
      <feDropShadow dx="2.5" dy="3.5" stdDeviation="3" flood-color="#1a1a2e" flood-opacity="0.45"/>
    </filter>
  </defs>
  <g filter="url(#shadow)" fill="none">
    <g stroke="#09160b" stroke-width="4.5" stroke-linecap="round" stroke-linejoin="round" transform="translate(2,2)">
    <ellipse cx="24" cy="26" rx="10" ry="10"/>
    <circle cx="24" cy="14" r="7"/>
    <circle cx="19" cy="12" r="2"/>
    <circle cx="29" cy="12" r="2"/>
    <ellipse cx="24" cy="18" rx="3" ry="2"/>
    <path d="M20 22 Q24 26 28 22"/>
    <circle cx="14" cy="14" r="4"/>
    <circle cx="34" cy="14" r="4"/>
    </g>
    <g stroke="#122d16" stroke-width="3" stroke-linecap="round" stroke-linejoin="round" transform="translate(1,1)">
    <ellipse cx="24" cy="26" rx="10" ry="10"/>
    <circle cx="24" cy="14" r="7"/>
    <circle cx="19" cy="12" r="2"/>
    <circle cx="29" cy="12" r="2"/>
    <ellipse cx="24" cy="18" rx="3" ry="2"/>
    <path d="M20 22 Q24 26 28 22"/>
    <circle cx="14" cy="14" r="4"/>
    <circle cx="34" cy="14" r="4"/>
    </g>
    <g stroke="url(#g)" stroke-width="1.5" stroke-linecap="round" stroke-linejoin="round">
    <ellipse cx="24" cy="26" rx="10" ry="10"/>
    <circle cx="24" cy="14" r="7"/>
    <circle cx="19" cy="12" r="2"/>
    <circle cx="29" cy="12" r="2"/>
    <ellipse cx="24" cy="18" rx="3" ry="2"/>
    <path d="M20 22 Q24 26 28 22"/>
    <circle cx="14" cy="14" r="4"/>
    <circle cx="34" cy="14" r="4"/>
    </g>
  </g>
</svg>