<svg xmlns="http://www.w3.org/2000/svg" viewBox="0 0 48 48">
  <defs>
    <linearGradient id="g" x1="0%" y1="0%" x2="100%" y2="100%">
      <stop offset="0%" stop-color="#e0bdc6"/>
      <stop offset="100%" stop-color="#673b46"/>
    </linearGradient>
    <filter id="sh" x="-30%" y="-30%" width="160%" height="160%">
      <feDropShadow dx="2.5" dy="3.5" stdDeviation="3" flood-color="#1a1a2e" flood-opacity="0.45"/>
    </filter>
  </defs>
  <g filter="url(#sh)" fill="none">
    <g stroke="#2f1b20" stroke-width="4.5" stroke-linecap="round" stroke-linejoin="round" transform="translate(2,2)">
<line x1="8" y1="36" x2="32" y2="12"/>
        <line x1="32" y1="12" x2="38" y2="12"/>
        <line x1="8" y1="36" x2="14" y2="36"/>
        <line x1="14" y1="36" x2="32" y2="12"/>
    </g>
    <g stroke="#673b46" stroke-width="3" stroke-linecap="round" stroke-linejoin="round" transform="translate(1,1)">
<line x1="8" y1="36" x2="32" y2="12"/>
        <line x1="32" y1="12" x2="38" y2="12"/>
        <line x1="8" y1="36" x2="14" y2="36"/>
        <line x1="14" y1="36" x2="32" y2="12"/>
    </g>
    <g stroke="url(#g)" stroke-width="1.5" stroke-linecap="round" stroke-linejoin="round">
<line x1="8" y1="36" x2="32" y2="12"/>
        <line x1="32" y1="12" x2="38" y2="12"/>
        <line x1="8" y1="36" x2="14" y2="36"/>
        <line x1="14" y1="36" x2="32" y2="12"/>
    </g>
  </g>
</svg>