<svg xmlns="http://www.w3.org/2000/svg" viewBox="0 0 48 48">
  <defs>
    <linearGradient id="g" x1="0%" y1="0%" x2="100%" y2="100%">
      <stop offset="0%" stop-color="#c4d1b8"/>
      <stop offset="100%" stop-color="#445436"/>
    </linearGradient>
    <filter id="sh" x="-30%" y="-30%" width="160%" height="160%">
      <feDropShadow dx="2.5" dy="3.5" stdDeviation="3" flood-color="#1a1a2e" flood-opacity="0.45"/>
    </filter>
  </defs>
  <g filter="url(#sh)" fill="none">
    <g stroke="#1f2618" stroke-width="4.5" stroke-linecap="round" stroke-linejoin="round" transform="translate(2,2)">
<polygon points="4,20 24,4 44,20"/>
        <rect x="10" y="20" width="28" height="24"/>
        <circle cx="18" cy="28" r="3"/>
        <circle cx="30" cy="28" r="3"/>
        <path d="M18 34 Q24 40 30 34"/>
    </g>
    <g stroke="#445436" stroke-width="3" stroke-linecap="round" stroke-linejoin="round" transform="translate(1,1)">
<polygon points="4,20 24,4 44,20"/>
        <rect x="10" y="20" width="28" height="24"/>
        <circle cx="18" cy="28" r="3"/>
        <circle cx="30" cy="28" r="3"/>
        <path d="M18 34 Q24 40 30 34"/>
    </g>
    <g stroke="url(#g)" stroke-width="1.5" stroke-linecap="round" stroke-linejoin="round">
<polygon points="4,20 24,4 44,20"/>
        <rect x="10" y="20" width="28" height="24"/>
        <circle cx="18" cy="28" r="3"/>
        <circle cx="30" cy="28" r="3"/>
        <path d="M18 34 Q24 40 30 34"/>
    </g>
  </g>
</svg>