<svg xmlns="http://www.w3.org/2000/svg" viewBox="0 0 48 48">
  <defs>
    <linearGradient id="g" x1="0%" y1="0%" x2="100%" y2="100%">
      <stop offset="0%" stop-color="#b2c9a4"/>
      <stop offset="100%" stop-color="#2f4b1d"/>
    </linearGradient>
    <filter id="sh" x="-30%" y="-30%" width="160%" height="160%">
      <feDropShadow dx="2.5" dy="3.5" stdDeviation="3" flood-color="#1a1a2e" flood-opacity="0.45"/>
    </filter>
  </defs>
  <g filter="url(#sh)" fill="none">
    <g stroke="#15220d" stroke-width="4.5" stroke-linecap="round" stroke-linejoin="round" transform="translate(2,2)">
<path d="M8 6 L8 42 L40 42 M8 24 L36 24"/>
        <line x1="8" y1="16" x2="30" y2="16"/>
        <circle cx="30" cy="16" r="4"/>
        <line x1="8" y1="32" x2="24" y2="32"/>
        <circle cx="24" cy="32" r="4"/>
    </g>
    <g stroke="#2f4b1d" stroke-width="3" stroke-linecap="round" stroke-linejoin="round" transform="translate(1,1)">
<path d="M8 6 L8 42 L40 42 M8 24 L36 24"/>
        <line x1="8" y1="16" x2="30" y2="16"/>
        <circle cx="30" cy="16" r="4"/>
        <line x1="8" y1="32" x2="24" y2="32"/>
        <circle cx="24" cy="32" r="4"/>
    </g>
    <g stroke="url(#g)" stroke-width="1.5" stroke-linecap="round" stroke-linejoin="round">
<path d="M8 6 L8 42 L40 42 M8 24 L36 24"/>
        <line x1="8" y1="16" x2="30" y2="16"/>
        <circle cx="30" cy="16" r="4"/>
        <line x1="8" y1="32" x2="24" y2="32"/>
        <circle cx="24" cy="32" r="4"/>
    </g>
  </g>
</svg>