<svg xmlns="http://www.w3.org/2000/svg" viewBox="0 0 48 48">
  <defs>
    <linearGradient id="g" x1="0%" y1="0%" x2="100%" y2="100%">
      <stop offset="0%" stop-color="#e5d0b5"/>
      <stop offset="100%" stop-color="#6c5332"/>
    </linearGradient>
    <filter id="sh" x="-30%" y="-30%" width="160%" height="160%">
      <feDropShadow dx="2.5" dy="3.5" stdDeviation="3" flood-color="#1a1a2e" flood-opacity="0.45"/>
    </filter>
  </defs>
  <g filter="url(#sh)" fill="none">
    <g stroke="#312616" stroke-width="4.5" stroke-linecap="round" stroke-linejoin="round" transform="translate(2,2)">
<path d="M24 42 Q12 28 18 18 Q22 10 24 4 Q28 12 30 20 Q36 30 24 42 Z"/>
        <path d="M20 38 Q16 30 22 26 Q24 22 24 18 Q26 24 28 28 Q34 32 24 38 Z"/>
    </g>
    <g stroke="#6c5332" stroke-width="3" stroke-linecap="round" stroke-linejoin="round" transform="translate(1,1)">
<path d="M24 42 Q12 28 18 18 Q22 10 24 4 Q28 12 30 20 Q36 30 24 42 Z"/>
        <path d="M20 38 Q16 30 22 26 Q24 22 24 18 Q26 24 28 28 Q34 32 24 38 Z"/>
    </g>
    <g stroke="url(#g)" stroke-width="1.5" stroke-linecap="round" stroke-linejoin="round">
<path d="M24 42 Q12 28 18 18 Q22 10 24 4 Q28 12 30 20 Q36 30 24 42 Z"/>
        <path d="M20 38 Q16 30 22 26 Q24 22 24 18 Q26 24 28 28 Q34 32 24 38 Z"/>
    </g>
  </g>
</svg>