<svg xmlns="http://www.w3.org/2000/svg" viewBox="0 0 48 48">
  <defs>
    <linearGradient id="g" x1="0%" y1="0%" x2="100%" y2="100%">
      <stop offset="0%" stop-color="#deaec9"/>
      <stop offset="100%" stop-color="#2d1321"/>
    </linearGradient>
    <filter id="shadow" x="-30%" y="-30%" width="160%" height="160%">
      <feDropShadow dx="2.5" dy="3.5" stdDeviation="3" flood-color="#1a1a2e" flood-opacity="0.45"/>
    </filter>
  </defs>
  <g filter="url(#shadow)" fill="none">
    <g stroke="#160910" stroke-width="4.5" stroke-linecap="round" stroke-linejoin="round" transform="translate(2,2)">
    <ellipse cx="24" cy="26" rx="16" ry="8"/>
    <ellipse cx="18" cy="20" rx="10" ry="6"/>
    <ellipse cx="30" cy="20" rx="8" ry="5"/>
    <polygon points="22,28 18,38 24,38 20,44 30,34 24,34 28,28"/>
    </g>
    <g stroke="#2d1321" stroke-width="3" stroke-linecap="round" stroke-linejoin="round" transform="translate(1,1)">
    <ellipse cx="24" cy="26" rx="16" ry="8"/>
    <ellipse cx="18" cy="20" rx="10" ry="6"/>
    <ellipse cx="30" cy="20" rx="8" ry="5"/>
    <polygon points="22,28 18,38 24,38 20,44 30,34 24,34 28,28"/>
    </g>
    <g stroke="url(#g)" stroke-width="1.5" stroke-linecap="round" stroke-linejoin="round">
    <ellipse cx="24" cy="26" rx="16" ry="8"/>
    <ellipse cx="18" cy="20" rx="10" ry="6"/>
    <ellipse cx="30" cy="20" rx="8" ry="5"/>
    <polygon points="22,28 18,38 24,38 20,44 30,34 24,34 28,28"/>
    </g>
  </g>
</svg>