<svg xmlns="http://www.w3.org/2000/svg" viewBox="0 0 48 48">
  <defs>
    <linearGradient id="g" x1="0%" y1="0%" x2="100%" y2="100%">
      <stop offset="0%" stop-color="#c6badb"/>
      <stop offset="100%" stop-color="#20192b"/>
    </linearGradient>
    <filter id="shadow" x="-30%" y="-30%" width="160%" height="160%">
      <feDropShadow dx="2.5" dy="3.5" stdDeviation="3" flood-color="#1a1a2e" flood-opacity="0.45"/>
    </filter>
  </defs>
  <g filter="url(#shadow)" fill="none">
    <g stroke="#100c15" stroke-width="4.5" stroke-linecap="round" stroke-linejoin="round" transform="translate(2,2)">
    <path d="M24 44 L24 20 Q20 12 12 10 Q8 8 10 4 Q14 2 18 8 Q22 12 24 12 Q26 8 30 4 Q34 6 32 10 Q28 14 24 20"/>
    <line x1="24" y1="44" x2="24" y2="20"/>
    </g>
    <g stroke="#20192b" stroke-width="3" stroke-linecap="round" stroke-linejoin="round" transform="translate(1,1)">
    <path d="M24 44 L24 20 Q20 12 12 10 Q8 8 10 4 Q14 2 18 8 Q22 12 24 12 Q26 8 30 4 Q34 6 32 10 Q28 14 24 20"/>
    <line x1="24" y1="44" x2="24" y2="20"/>
    </g>
    <g stroke="url(#g)" stroke-width="1.5" stroke-linecap="round" stroke-linejoin="round">
    <path d="M24 44 L24 20 Q20 12 12 10 Q8 8 10 4 Q14 2 18 8 Q22 12 24 12 Q26 8 30 4 Q34 6 32 10 Q28 14 24 20"/>
    <line x1="24" y1="44" x2="24" y2="20"/>
    </g>
  </g>
</svg>