<svg xmlns="http://www.w3.org/2000/svg" viewBox="0 0 48 48">
  <defs>
    <linearGradient id="g" x1="0%" y1="0%" x2="100%" y2="100%">
      <stop offset="0%" stop-color="#a99fcb"/>
      <stop offset="100%" stop-color="#100a23"/>
    </linearGradient>
    <filter id="shadow" x="-30%" y="-30%" width="160%" height="160%">
      <feDropShadow dx="2.5" dy="3.5" stdDeviation="3" flood-color="#1a1a2e" flood-opacity="0.45"/>
    </filter>
  </defs>
  <g filter="url(#shadow)" fill="none">
    <g stroke="#080511" stroke-width="4.5" stroke-linecap="round" stroke-linejoin="round" transform="translate(2,2)">
    <path d="M4 30 Q8 14 14 20 Q20 26 24 14 Q28 26 34 20 Q40 14 44 30 L44 38 L4 38 Z"/>
    <circle cx="10" cy="20" r="2" fill="currentColor"/>
    <circle cx="24" cy="16" r="2" fill="currentColor"/>
    <circle cx="38" cy="20" r="2" fill="currentColor"/>
    </g>
    <g stroke="#100a23" stroke-width="3" stroke-linecap="round" stroke-linejoin="round" transform="translate(1,1)">
    <path d="M4 30 Q8 14 14 20 Q20 26 24 14 Q28 26 34 20 Q40 14 44 30 L44 38 L4 38 Z"/>
    <circle cx="10" cy="20" r="2" fill="currentColor"/>
    <circle cx="24" cy="16" r="2" fill="currentColor"/>
    <circle cx="38" cy="20" r="2" fill="currentColor"/>
    </g>
    <g stroke="url(#g)" stroke-width="1.5" stroke-linecap="round" stroke-linejoin="round">
    <path d="M4 30 Q8 14 14 20 Q20 26 24 14 Q28 26 34 20 Q40 14 44 30 L44 38 L4 38 Z"/>
    <circle cx="10" cy="20" r="2" fill="currentColor"/>
    <circle cx="24" cy="16" r="2" fill="currentColor"/>
    <circle cx="38" cy="20" r="2" fill="currentColor"/>
    </g>
  </g>
</svg>