<svg xmlns="http://www.w3.org/2000/svg" viewBox="0 0 48 48">
  <defs>
    <linearGradient id="g" x1="0%" y1="0%" x2="100%" y2="100%">
      <stop offset="0%" stop-color="#9fc4af"/>
      <stop offset="100%" stop-color="#0a1f13"/>
    </linearGradient>
    <filter id="shadow" x="-30%" y="-30%" width="160%" height="160%">
      <feDropShadow dx="2.5" dy="3.5" stdDeviation="3" flood-color="#1a1a2e" flood-opacity="0.45"/>
    </filter>
  </defs>
  <g filter="url(#shadow)" fill="none">
    <g stroke="#050f09" stroke-width="4.5" stroke-linecap="round" stroke-linejoin="round" transform="translate(2,2)">
    <path d="M4 10 Q12 6 16 14 Q20 22 28 18 Q36 14 44 22"/>
    <path d="M8 18 Q16 14 20 22 Q24 30 32 26 Q40 22 44 30"/>
    <circle cx="8" cy="10" r="2" fill="currentColor"/>
    <circle cx="28" cy="18" r="2" fill="currentColor"/>
    <circle cx="44" cy="22" r="2" fill="currentColor"/>
    </g>
    <g stroke="#0a1f13" stroke-width="3" stroke-linecap="round" stroke-linejoin="round" transform="translate(1,1)">
    <path d="M4 10 Q12 6 16 14 Q20 22 28 18 Q36 14 44 22"/>
    <path d="M8 18 Q16 14 20 22 Q24 30 32 26 Q40 22 44 30"/>
    <circle cx="8" cy="10" r="2" fill="currentColor"/>
    <circle cx="28" cy="18" r="2" fill="currentColor"/>
    <circle cx="44" cy="22" r="2" fill="currentColor"/>
    </g>
    <g stroke="url(#g)" stroke-width="1.5" stroke-linecap="round" stroke-linejoin="round">
    <path d="M4 10 Q12 6 16 14 Q20 22 28 18 Q36 14 44 22"/>
    <path d="M8 18 Q16 14 20 22 Q24 30 32 26 Q40 22 44 30"/>
    <circle cx="8" cy="10" r="2" fill="currentColor"/>
    <circle cx="28" cy="18" r="2" fill="currentColor"/>
    <circle cx="44" cy="22" r="2" fill="currentColor"/>
    </g>
  </g>
</svg>