<svg xmlns="http://www.w3.org/2000/svg" viewBox="0 0 48 48">
  <defs>
    <linearGradient id="g" x1="0%" y1="0%" x2="100%" y2="100%">
      <stop offset="0%" stop-color="#aebac7"/>
      <stop offset="100%" stop-color="#121921"/>
    </linearGradient>
    <filter id="shadow" x="-30%" y="-30%" width="160%" height="160%">
      <feDropShadow dx="2.5" dy="3.5" stdDeviation="3" flood-color="#1a1a2e" flood-opacity="0.45"/>
    </filter>
  </defs>
  <g filter="url(#shadow)" fill="none">
    <g stroke="#090c10" stroke-width="4.5" stroke-linecap="round" stroke-linejoin="round" transform="translate(2,2)">
    <ellipse cx="24" cy="24" rx="11" ry="8"/>
    <circle cx="24" cy="16" r="6"/>
    <circle cx="19" cy="14" r="2"/>
    <circle cx="29" cy="14" r="2"/>
    <circle cx="12" cy="24" r="2"/>
    <circle cx="36" cy="24" r="2"/>
    <path d="M20 24 Q24 28 28 24"/>
    </g>
    <g stroke="#121921" stroke-width="3" stroke-linecap="round" stroke-linejoin="round" transform="translate(1,1)">
    <ellipse cx="24" cy="24" rx="11" ry="8"/>
    <circle cx="24" cy="16" r="6"/>
    <circle cx="19" cy="14" r="2"/>
    <circle cx="29" cy="14" r="2"/>
    <circle cx="12" cy="24" r="2"/>
    <circle cx="36" cy="24" r="2"/>
    <path d="M20 24 Q24 28 28 24"/>
    </g>
    <g stroke="url(#g)" stroke-width="1.5" stroke-linecap="round" stroke-linejoin="round">
    <ellipse cx="24" cy="24" rx="11" ry="8"/>
    <circle cx="24" cy="16" r="6"/>
    <circle cx="19" cy="14" r="2"/>
    <circle cx="29" cy="14" r="2"/>
    <circle cx="12" cy="24" r="2"/>
    <circle cx="36" cy="24" r="2"/>
    <path d="M20 24 Q24 28 28 24"/>
    </g>
  </g>
</svg>