<svg xmlns="http://www.w3.org/2000/svg" viewBox="0 0 48 48">
  <defs>
    <linearGradient id="g" x1="0%" y1="0%" x2="100%" y2="100%">
      <stop offset="0%" stop-color="#d8e0c6"/>
      <stop offset="100%" stop-color="#2a2f20"/>
    </linearGradient>
    <filter id="shadow" x="-30%" y="-30%" width="160%" height="160%">
      <feDropShadow dx="2.5" dy="3.5" stdDeviation="3" flood-color="#1a1a2e" flood-opacity="0.45"/>
    </filter>
  </defs>
  <g filter="url(#shadow)" fill="none">
    <g stroke="#151710" stroke-width="4.5" stroke-linecap="round" stroke-linejoin="round" transform="translate(2,2)">
    <rect x="12" y="8" width="24" height="30" rx="4"/>
    <ellipse cx="24" cy="38" rx="10" ry="4"/>
    <line x1="12" y1="16" x2="36" y2="16 M12 22 L36 22 M12 28 L36 28"/>
    </g>
    <g stroke="#2a2f20" stroke-width="3" stroke-linecap="round" stroke-linejoin="round" transform="translate(1,1)">
    <rect x="12" y="8" width="24" height="30" rx="4"/>
    <ellipse cx="24" cy="38" rx="10" ry="4"/>
    <line x1="12" y1="16" x2="36" y2="16 M12 22 L36 22 M12 28 L36 28"/>
    </g>
    <g stroke="url(#g)" stroke-width="1.5" stroke-linecap="round" stroke-linejoin="round">
    <rect x="12" y="8" width="24" height="30" rx="4"/>
    <ellipse cx="24" cy="38" rx="10" ry="4"/>
    <line x1="12" y1="16" x2="36" y2="16 M12 22 L36 22 M12 28 L36 28"/>
    </g>
  </g>
</svg>