<svg xmlns="http://www.w3.org/2000/svg" viewBox="0 0 48 48">
  <defs>
    <linearGradient id="g" x1="0%" y1="0%" x2="100%" y2="100%">
      <stop offset="0%" stop-color="#a5bbbf"/>
      <stop offset="100%" stop-color="#1f3a3e"/>
    </linearGradient>
    <filter id="sh" x="-30%" y="-30%" width="160%" height="160%">
      <feDropShadow dx="2.5" dy="3.5" stdDeviation="3" flood-color="#1a1a2e" flood-opacity="0.45"/>
    </filter>
  </defs>
  <g filter="url(#sh)" fill="none">
    <g stroke="#0e1a1c" stroke-width="4.5" stroke-linecap="round" stroke-linejoin="round" transform="translate(2,2)">
<circle cx="24" cy="24" r="18"/>
        <circle cx="16" cy="18" r="3"/>
        <circle cx="32" cy="18" r="3"/>
        <path d="M16 28 Q24 24 32 28"/>
        <circle cx="24" cy="34" r="3"/>
    </g>
    <g stroke="#1f3a3e" stroke-width="3" stroke-linecap="round" stroke-linejoin="round" transform="translate(1,1)">
<circle cx="24" cy="24" r="18"/>
        <circle cx="16" cy="18" r="3"/>
        <circle cx="32" cy="18" r="3"/>
        <path d="M16 28 Q24 24 32 28"/>
        <circle cx="24" cy="34" r="3"/>
    </g>
    <g stroke="url(#g)" stroke-width="1.5" stroke-linecap="round" stroke-linejoin="round">
<circle cx="24" cy="24" r="18"/>
        <circle cx="16" cy="18" r="3"/>
        <circle cx="32" cy="18" r="3"/>
        <path d="M16 28 Q24 24 32 28"/>
        <circle cx="24" cy="34" r="3"/>
    </g>
  </g>
</svg>