<svg xmlns="http://www.w3.org/2000/svg" viewBox="0 0 48 48">
  <defs>
    <linearGradient id="g" x1="0%" y1="0%" x2="100%" y2="100%">
      <stop offset="0%" stop-color="#c1a0b7"/>
      <stop offset="100%" stop-color="#1d0b18"/>
    </linearGradient>
    <filter id="shadow" x="-30%" y="-30%" width="160%" height="160%">
      <feDropShadow dx="2.5" dy="3.5" stdDeviation="3" flood-color="#1a1a2e" flood-opacity="0.45"/>
    </filter>
  </defs>
  <g filter="url(#shadow)" fill="none">
    <g stroke="#0e050c" stroke-width="4.5" stroke-linecap="round" stroke-linejoin="round" transform="translate(2,2)">
    <polygon points="24,4 20,16 28,16"/>
    <line x1="24" y1="16" x2="24" y2="40"/>
    <ellipse cx="24" cy="40" rx="6" ry="3"/>
    <ellipse cx="24" cy="28" rx="10" ry="2"/>
    </g>
    <g stroke="#1d0b18" stroke-width="3" stroke-linecap="round" stroke-linejoin="round" transform="translate(1,1)">
    <polygon points="24,4 20,16 28,16"/>
    <line x1="24" y1="16" x2="24" y2="40"/>
    <ellipse cx="24" cy="40" rx="6" ry="3"/>
    <ellipse cx="24" cy="28" rx="10" ry="2"/>
    </g>
    <g stroke="url(#g)" stroke-width="1.5" stroke-linecap="round" stroke-linejoin="round">
    <polygon points="24,4 20,16 28,16"/>
    <line x1="24" y1="16" x2="24" y2="40"/>
    <ellipse cx="24" cy="40" rx="6" ry="3"/>
    <ellipse cx="24" cy="28" rx="10" ry="2"/>
    </g>
  </g>
</svg>