<svg xmlns="http://www.w3.org/2000/svg" viewBox="0 0 48 48">
  <defs>
    <linearGradient id="g" x1="0%" y1="0%" x2="100%" y2="100%">
      <stop offset="0%" stop-color="#a6c9bd"/>
      <stop offset="100%" stop-color="#1f4a3b"/>
    </linearGradient>
    <filter id="sh" x="-30%" y="-30%" width="160%" height="160%">
      <feDropShadow dx="2.5" dy="3.5" stdDeviation="3" flood-color="#1a1a2e" flood-opacity="0.45"/>
    </filter>
  </defs>
  <g filter="url(#sh)" fill="none">
    <g stroke="#0e211b" stroke-width="4.5" stroke-linecap="round" stroke-linejoin="round" transform="translate(2,2)">
<ellipse cx="24" cy="26" rx="14" ry="10"/><circle cx="24" cy="12" r="6"/><circle cx="22" cy="10" r="1.5"/><path d="M10 34 Q14 38 18 34"/><path d="M30 34 Q34 38 38 34"/><circle cx="20" cy="24" r="2"/><circle cx="28" cy="24" r="2"/>
    </g>
    <g stroke="#1f4a3b" stroke-width="3" stroke-linecap="round" stroke-linejoin="round" transform="translate(1,1)">
<ellipse cx="24" cy="26" rx="14" ry="10"/><circle cx="24" cy="12" r="6"/><circle cx="22" cy="10" r="1.5"/><path d="M10 34 Q14 38 18 34"/><path d="M30 34 Q34 38 38 34"/><circle cx="20" cy="24" r="2"/><circle cx="28" cy="24" r="2"/>
    </g>
    <g stroke="url(#g)" stroke-width="1.5" stroke-linecap="round" stroke-linejoin="round">
<ellipse cx="24" cy="26" rx="14" ry="10"/><circle cx="24" cy="12" r="6"/><circle cx="22" cy="10" r="1.5"/><path d="M10 34 Q14 38 18 34"/><path d="M30 34 Q34 38 38 34"/><circle cx="20" cy="24" r="2"/><circle cx="28" cy="24" r="2"/>
    </g>
  </g>
</svg>