<svg xmlns="http://www.w3.org/2000/svg" viewBox="0 0 48 48">
  <defs>
    <linearGradient id="g" x1="0%" y1="0%" x2="100%" y2="100%">
      <stop offset="0%" stop-color="#d8b3d6"/>
      <stop offset="100%" stop-color="#2a1629"/>
    </linearGradient>
    <filter id="shadow" x="-30%" y="-30%" width="160%" height="160%">
      <feDropShadow dx="2.5" dy="3.5" stdDeviation="3" flood-color="#1a1a2e" flood-opacity="0.45"/>
    </filter>
  </defs>
  <g filter="url(#shadow)" fill="none">
    <g stroke="#150b14" stroke-width="4.5" stroke-linecap="round" stroke-linejoin="round" transform="translate(2,2)">
    <rect x="10" y="14" width="28" height="28" rx="4"/>
    <path d="M16 14 L16 8 L32 8 L32 14"/>
    <line x1="10" y1="22" x2="38" y2="22"/>
    </g>
    <g stroke="#2a1629" stroke-width="3" stroke-linecap="round" stroke-linejoin="round" transform="translate(1,1)">
    <rect x="10" y="14" width="28" height="28" rx="4"/>
    <path d="M16 14 L16 8 L32 8 L32 14"/>
    <line x1="10" y1="22" x2="38" y2="22"/>
    </g>
    <g stroke="url(#g)" stroke-width="1.5" stroke-linecap="round" stroke-linejoin="round">
    <rect x="10" y="14" width="28" height="28" rx="4"/>
    <path d="M16 14 L16 8 L32 8 L32 14"/>
    <line x1="10" y1="22" x2="38" y2="22"/>
    </g>
  </g>
</svg>