<svg xmlns="http://www.w3.org/2000/svg" viewBox="0 0 48 48">
  <defs>
    <linearGradient id="g" x1="0%" y1="0%" x2="100%" y2="100%">
      <stop offset="0%" stop-color="#cca3b2"/>
      <stop offset="100%" stop-color="#4e1c2e"/>
    </linearGradient>
    <filter id="sh" x="-30%" y="-30%" width="160%" height="160%">
      <feDropShadow dx="2.5" dy="3.5" stdDeviation="3" flood-color="#1a1a2e" flood-opacity="0.45"/>
    </filter>
  </defs>
  <g filter="url(#sh)" fill="none">
    <g stroke="#230c15" stroke-width="4.5" stroke-linecap="round" stroke-linejoin="round" transform="translate(2,2)">
<ellipse cx="24" cy="28" rx="10" ry="12"/><circle cx="28" cy="12" r="7"/><circle cx="28" cy="12" r="2.5"/><path d="M34 10 L44 18 L40 20"/><path d="M20 28 Q24 32 28 28"/>
    </g>
    <g stroke="#4e1c2e" stroke-width="3" stroke-linecap="round" stroke-linejoin="round" transform="translate(1,1)">
<ellipse cx="24" cy="28" rx="10" ry="12"/><circle cx="28" cy="12" r="7"/><circle cx="28" cy="12" r="2.5"/><path d="M34 10 L44 18 L40 20"/><path d="M20 28 Q24 32 28 28"/>
    </g>
    <g stroke="url(#g)" stroke-width="1.5" stroke-linecap="round" stroke-linejoin="round">
<ellipse cx="24" cy="28" rx="10" ry="12"/><circle cx="28" cy="12" r="7"/><circle cx="28" cy="12" r="2.5"/><path d="M34 10 L44 18 L40 20"/><path d="M20 28 Q24 32 28 28"/>
    </g>
  </g>
</svg>