<svg xmlns="http://www.w3.org/2000/svg" viewBox="0 0 48 48">
  <defs>
    <linearGradient id="g" x1="0%" y1="0%" x2="100%" y2="100%">
      <stop offset="0%" stop-color="#b5a5c7"/>
      <stop offset="100%" stop-color="#160d21"/>
    </linearGradient>
    <filter id="shadow" x="-30%" y="-30%" width="160%" height="160%">
      <feDropShadow dx="2.5" dy="3.5" stdDeviation="3" flood-color="#1a1a2e" flood-opacity="0.45"/>
    </filter>
  </defs>
  <g filter="url(#shadow)" fill="none">
    <g stroke="#0b0610" stroke-width="4.5" stroke-linecap="round" stroke-linejoin="round" transform="translate(2,2)">
    <rect x="2" y="20" width="30" height="18" rx="4"/>
    <rect x="26" y="14" width="18" height="6" rx="2"/>
    <path d="M32 20 L40 14 L44 20"/>
    <circle cx="12" cy="38" r="5"/>
    <circle cx="36" cy="38" r="5"/>
    <line x1="44" y1="16" x2="44" y2="38"/>
    </g>
    <g stroke="#160d21" stroke-width="3" stroke-linecap="round" stroke-linejoin="round" transform="translate(1,1)">
    <rect x="2" y="20" width="30" height="18" rx="4"/>
    <rect x="26" y="14" width="18" height="6" rx="2"/>
    <path d="M32 20 L40 14 L44 20"/>
    <circle cx="12" cy="38" r="5"/>
    <circle cx="36" cy="38" r="5"/>
    <line x1="44" y1="16" x2="44" y2="38"/>
    </g>
    <g stroke="url(#g)" stroke-width="1.5" stroke-linecap="round" stroke-linejoin="round">
    <rect x="2" y="20" width="30" height="18" rx="4"/>
    <rect x="26" y="14" width="18" height="6" rx="2"/>
    <path d="M32 20 L40 14 L44 20"/>
    <circle cx="12" cy="38" r="5"/>
    <circle cx="36" cy="38" r="5"/>
    <line x1="44" y1="16" x2="44" y2="38"/>
    </g>
  </g>
</svg>