<svg xmlns="http://www.w3.org/2000/svg" viewBox="0 0 48 48">
  <defs>
    <linearGradient id="g" x1="0%" y1="0%" x2="100%" y2="100%">
      <stop offset="0%" stop-color="#dec0d4"/>
      <stop offset="100%" stop-color="#644058"/>
    </linearGradient>
    <filter id="sh" x="-30%" y="-30%" width="160%" height="160%">
      <feDropShadow dx="2.5" dy="3.5" stdDeviation="3" flood-color="#1a1a2e" flood-opacity="0.45"/>
    </filter>
  </defs>
  <g filter="url(#sh)" fill="none">
    <g stroke="#2d1d28" stroke-width="4.5" stroke-linecap="round" stroke-linejoin="round" transform="translate(2,2)">
<rect x="4" y="18" width="40" height="16" rx="3"/>
        <rect x="10" y="8" width="6" height="10" rx="1"/>
        <rect x="20" y="8" width="6" height="10" rx="1"/>
        <rect x="30" y="8" width="6" height="10" rx="1"/>
        <circle cx="12" cy="36" r="4"/>
        <circle cx="24" cy="36" r="4"/>
        <circle cx="36" cy="36" r="4"/>
    </g>
    <g stroke="#644058" stroke-width="3" stroke-linecap="round" stroke-linejoin="round" transform="translate(1,1)">
<rect x="4" y="18" width="40" height="16" rx="3"/>
        <rect x="10" y="8" width="6" height="10" rx="1"/>
        <rect x="20" y="8" width="6" height="10" rx="1"/>
        <rect x="30" y="8" width="6" height="10" rx="1"/>
        <circle cx="12" cy="36" r="4"/>
        <circle cx="24" cy="36" r="4"/>
        <circle cx="36" cy="36" r="4"/>
    </g>
    <g stroke="url(#g)" stroke-width="1.5" stroke-linecap="round" stroke-linejoin="round">
<rect x="4" y="18" width="40" height="16" rx="3"/>
        <rect x="10" y="8" width="6" height="10" rx="1"/>
        <rect x="20" y="8" width="6" height="10" rx="1"/>
        <rect x="30" y="8" width="6" height="10" rx="1"/>
        <circle cx="12" cy="36" r="4"/>
        <circle cx="24" cy="36" r="4"/>
        <circle cx="36" cy="36" r="4"/>
    </g>
  </g>
</svg>