<svg xmlns="http://www.w3.org/2000/svg" viewBox="0 0 48 48">
  <defs>
    <linearGradient id="g" x1="0%" y1="0%" x2="100%" y2="100%">
      <stop offset="0%" stop-color="#9E9E9E"/>
      <stop offset="100%" stop-color="#252525"/>
    </linearGradient>
    <filter id="sh" x="-30%" y="-30%" width="160%" height="160%">
      <feDropShadow dx="2.5" dy="3.5" stdDeviation="3" flood-color="#1a1a2e" flood-opacity="0.45"/>
    </filter>
  </defs>
  <g filter="url(#sh)" fill="none">
    <g stroke="#121212" stroke-width="4.5" stroke-linecap="round" stroke-linejoin="round" transform="translate(2,2)">
    <path d="M10 18 L38 18 L36 42 L12 42 Z"/>
        <line x1="8" y1="14" x2="40" y2="14"/>
        <line x1="18" y1="10" x2="30" y2="10"/>
        <line x1="18" y1="24" x2="18" y2="38"/>
        <line x1="24" y1="24" x2="24" y2="38"/>
        <line x1="30" y1="24" x2="30" y2="38"/>
    </g>
    <g stroke="#252525" stroke-width="3" stroke-linecap="round" stroke-linejoin="round" transform="translate(1,1)">
    <path d="M10 18 L38 18 L36 42 L12 42 Z"/>
        <line x1="8" y1="14" x2="40" y2="14"/>
        <line x1="18" y1="10" x2="30" y2="10"/>
        <line x1="18" y1="24" x2="18" y2="38"/>
        <line x1="24" y1="24" x2="24" y2="38"/>
        <line x1="30" y1="24" x2="30" y2="38"/>
    </g>
    <g stroke="url(#g)" stroke-width="1.5" stroke-linecap="round" stroke-linejoin="round">
    <path d="M10 18 L38 18 L36 42 L12 42 Z"/>
        <line x1="8" y1="14" x2="40" y2="14"/>
        <line x1="18" y1="10" x2="30" y2="10"/>
        <line x1="18" y1="24" x2="18" y2="38"/>
        <line x1="24" y1="24" x2="24" y2="38"/>
        <line x1="30" y1="24" x2="30" y2="38"/>
    </g>
  </g>
</svg>