<svg xmlns="http://www.w3.org/2000/svg" viewBox="0 0 48 48">
  <defs>
    <linearGradient id="g" x1="0%" y1="0%" x2="100%" y2="100%">
      <stop offset="0%" stop-color="#e3e1c1"/>
      <stop offset="100%" stop-color="#302f1d"/>
    </linearGradient>
    <filter id="shadow" x="-30%" y="-30%" width="160%" height="160%">
      <feDropShadow dx="2.5" dy="3.5" stdDeviation="3" flood-color="#1a1a2e" flood-opacity="0.45"/>
    </filter>
  </defs>
  <g filter="url(#shadow)" fill="none">
    <g stroke="#18170e" stroke-width="4.5" stroke-linecap="round" stroke-linejoin="round" transform="translate(2,2)">
    <path d="M10 10 Q8 10 8 14 L10 42 Q10 44 24 44 Q38 44 38 42 L40 14 Q40 10 38 10 Z"/>
    <line x1="10" y1="20" x2="38" y2="20 M12 30 L36 30"/>
    <ellipse cx="24" cy="10" rx="6" ry="3"/>
    </g>
    <g stroke="#302f1d" stroke-width="3" stroke-linecap="round" stroke-linejoin="round" transform="translate(1,1)">
    <path d="M10 10 Q8 10 8 14 L10 42 Q10 44 24 44 Q38 44 38 42 L40 14 Q40 10 38 10 Z"/>
    <line x1="10" y1="20" x2="38" y2="20 M12 30 L36 30"/>
    <ellipse cx="24" cy="10" rx="6" ry="3"/>
    </g>
    <g stroke="url(#g)" stroke-width="1.5" stroke-linecap="round" stroke-linejoin="round">
    <path d="M10 10 Q8 10 8 14 L10 42 Q10 44 24 44 Q38 44 38 42 L40 14 Q40 10 38 10 Z"/>
    <line x1="10" y1="20" x2="38" y2="20 M12 30 L36 30"/>
    <ellipse cx="24" cy="10" rx="6" ry="3"/>
    </g>
  </g>
</svg>