<svg xmlns="http://www.w3.org/2000/svg" viewBox="0 0 48 48">
  <defs>
    <linearGradient id="g" x1="0%" y1="0%" x2="100%" y2="100%">
      <stop offset="0%" stop-color="#bfc0a6"/>
      <stop offset="100%" stop-color="#1c1d0e"/>
    </linearGradient>
    <filter id="shadow" x="-30%" y="-30%" width="160%" height="160%">
      <feDropShadow dx="2.5" dy="3.5" stdDeviation="3" flood-color="#1a1a2e" flood-opacity="0.45"/>
    </filter>
  </defs>
  <g filter="url(#shadow)" fill="none">
    <g stroke="#0e0e07" stroke-width="4.5" stroke-linecap="round" stroke-linejoin="round" transform="translate(2,2)">
    <ellipse cx="24" cy="32" rx="16" ry="8"/>
    <path d="M8 32 L8 38 Q8 46 24 46 Q40 46 40 38 L40 32"/>
    <path d="M16 32 L16 20 L32 20 L32 32"/>
    <path d="M16 20 L24 14 L32 20"/>
    <circle cx="24" cy="26" r="3" fill="currentColor"/>
    </g>
    <g stroke="#1c1d0e" stroke-width="3" stroke-linecap="round" stroke-linejoin="round" transform="translate(1,1)">
    <ellipse cx="24" cy="32" rx="16" ry="8"/>
    <path d="M8 32 L8 38 Q8 46 24 46 Q40 46 40 38 L40 32"/>
    <path d="M16 32 L16 20 L32 20 L32 32"/>
    <path d="M16 20 L24 14 L32 20"/>
    <circle cx="24" cy="26" r="3" fill="currentColor"/>
    </g>
    <g stroke="url(#g)" stroke-width="1.5" stroke-linecap="round" stroke-linejoin="round">
    <ellipse cx="24" cy="32" rx="16" ry="8"/>
    <path d="M8 32 L8 38 Q8 46 24 46 Q40 46 40 38 L40 32"/>
    <path d="M16 32 L16 20 L32 20 L32 32"/>
    <path d="M16 20 L24 14 L32 20"/>
    <circle cx="24" cy="26" r="3" fill="currentColor"/>
    </g>
  </g>
</svg>