<svg xmlns="http://www.w3.org/2000/svg" viewBox="0 0 48 48">
  <defs>
    <linearGradient id="g" x1="0%" y1="0%" x2="100%" y2="100%">
      <stop offset="0%" stop-color="#b4a6d3"/>
      <stop offset="100%" stop-color="#160e27"/>
    </linearGradient>
    <filter id="shadow" x="-30%" y="-30%" width="160%" height="160%">
      <feDropShadow dx="2.5" dy="3.5" stdDeviation="3" flood-color="#1a1a2e" flood-opacity="0.45"/>
    </filter>
  </defs>
  <g filter="url(#shadow)" fill="none">
    <g stroke="#0b0713" stroke-width="4.5" stroke-linecap="round" stroke-linejoin="round" transform="translate(2,2)">
    <rect x="14" y="18" width="20" height="26" rx="4"/>
    <circle cx="24" cy="12" r="10"/>
    <circle cx="19" cy="10" r="2"/>
    <circle cx="29" cy="10" r="2"/>
    <path d="M14 28 L6 24 M34 28 L42 24"/>
    <line x1="14" y1="34" x2="4" y2="44 M34 34 L44 44"/>
    </g>
    <g stroke="#160e27" stroke-width="3" stroke-linecap="round" stroke-linejoin="round" transform="translate(1,1)">
    <rect x="14" y="18" width="20" height="26" rx="4"/>
    <circle cx="24" cy="12" r="10"/>
    <circle cx="19" cy="10" r="2"/>
    <circle cx="29" cy="10" r="2"/>
    <path d="M14 28 L6 24 M34 28 L42 24"/>
    <line x1="14" y1="34" x2="4" y2="44 M34 34 L44 44"/>
    </g>
    <g stroke="url(#g)" stroke-width="1.5" stroke-linecap="round" stroke-linejoin="round">
    <rect x="14" y="18" width="20" height="26" rx="4"/>
    <circle cx="24" cy="12" r="10"/>
    <circle cx="19" cy="10" r="2"/>
    <circle cx="29" cy="10" r="2"/>
    <path d="M14 28 L6 24 M34 28 L42 24"/>
    <line x1="14" y1="34" x2="4" y2="44 M34 34 L44 44"/>
    </g>
  </g>
</svg>