<svg xmlns="http://www.w3.org/2000/svg" viewBox="0 0 48 48">
  <defs>
    <linearGradient id="g" x1="0%" y1="0%" x2="100%" y2="100%">
      <stop offset="0%" stop-color="#c6c9b1"/>
      <stop offset="100%" stop-color="#464a2d"/>
    </linearGradient>
    <filter id="sh" x="-30%" y="-30%" width="160%" height="160%">
      <feDropShadow dx="2.5" dy="3.5" stdDeviation="3" flood-color="#1a1a2e" flood-opacity="0.45"/>
    </filter>
  </defs>
  <g filter="url(#sh)" fill="none">
    <g stroke="#202114" stroke-width="4.5" stroke-linecap="round" stroke-linejoin="round" transform="translate(2,2)">
<line x1="24" y1="8" x2="24" y2="24"/>
        <path d="M12 24 Q12 16 24 16 Q36 16 36 24"/>
        <line x1="12" y1="24" x2="36" y2="24"/>
        <circle cx="24" cy="32" r="1.5"/>
        <rect x="14" y="30" width="4" height="14" rx="1"/>
        <rect x="30" y="30" width="4" height="14" rx="1"/>
    </g>
    <g stroke="#464a2d" stroke-width="3" stroke-linecap="round" stroke-linejoin="round" transform="translate(1,1)">
<line x1="24" y1="8" x2="24" y2="24"/>
        <path d="M12 24 Q12 16 24 16 Q36 16 36 24"/>
        <line x1="12" y1="24" x2="36" y2="24"/>
        <circle cx="24" cy="32" r="1.5"/>
        <rect x="14" y="30" width="4" height="14" rx="1"/>
        <rect x="30" y="30" width="4" height="14" rx="1"/>
    </g>
    <g stroke="url(#g)" stroke-width="1.5" stroke-linecap="round" stroke-linejoin="round">
<line x1="24" y1="8" x2="24" y2="24"/>
        <path d="M12 24 Q12 16 24 16 Q36 16 36 24"/>
        <line x1="12" y1="24" x2="36" y2="24"/>
        <circle cx="24" cy="32" r="1.5"/>
        <rect x="14" y="30" width="4" height="14" rx="1"/>
        <rect x="30" y="30" width="4" height="14" rx="1"/>
    </g>
  </g>
</svg>