<svg xmlns="http://www.w3.org/2000/svg" viewBox="0 0 48 48">
  <defs>
    <linearGradient id="g" x1="0%" y1="0%" x2="100%" y2="100%">
      <stop offset="0%" stop-color="#cba5c3"/>
      <stop offset="100%" stop-color="#230e1e"/>
    </linearGradient>
    <filter id="shadow" x="-30%" y="-30%" width="160%" height="160%">
      <feDropShadow dx="2.5" dy="3.5" stdDeviation="3" flood-color="#1a1a2e" flood-opacity="0.45"/>
    </filter>
  </defs>
  <g filter="url(#shadow)" fill="none">
    <g stroke="#11070f" stroke-width="4.5" stroke-linecap="round" stroke-linejoin="round" transform="translate(2,2)">
    <rect x="2" y="18" width="44" height="18" rx="4"/>
    <rect x="10" y="10" width="28" height="8" rx="3"/>
    <line x1="24" y1="10" x2="24" y2="4"/>
    <circle cx="14" cy="36" r="5"/>
    <circle cx="34" cy="36" r="5"/>
    </g>
    <g stroke="#230e1e" stroke-width="3" stroke-linecap="round" stroke-linejoin="round" transform="translate(1,1)">
    <rect x="2" y="18" width="44" height="18" rx="4"/>
    <rect x="10" y="10" width="28" height="8" rx="3"/>
    <line x1="24" y1="10" x2="24" y2="4"/>
    <circle cx="14" cy="36" r="5"/>
    <circle cx="34" cy="36" r="5"/>
    </g>
    <g stroke="url(#g)" stroke-width="1.5" stroke-linecap="round" stroke-linejoin="round">
    <rect x="2" y="18" width="44" height="18" rx="4"/>
    <rect x="10" y="10" width="28" height="8" rx="3"/>
    <line x1="24" y1="10" x2="24" y2="4"/>
    <circle cx="14" cy="36" r="5"/>
    <circle cx="34" cy="36" r="5"/>
    </g>
  </g>
</svg>