<svg xmlns="http://www.w3.org/2000/svg" viewBox="0 0 48 48">
  <defs>
    <linearGradient id="g" x1="0%" y1="0%" x2="100%" y2="100%">
      <stop offset="0%" stop-color="#b7c3b1"/>
      <stop offset="100%" stop-color="#181e14"/>
    </linearGradient>
    <filter id="shadow" x="-30%" y="-30%" width="160%" height="160%">
      <feDropShadow dx="2.5" dy="3.5" stdDeviation="3" flood-color="#1a1a2e" flood-opacity="0.45"/>
    </filter>
  </defs>
  <g filter="url(#shadow)" fill="none">
    <g stroke="#0c0f0a" stroke-width="4.5" stroke-linecap="round" stroke-linejoin="round" transform="translate(2,2)">
    <line x1="8" y1="42" x2="34" y2="12"/>
    <polygon points="30,4 38,8 34,16 26,12"/>
    <rect x="6" y="40" width="6" height="6" rx="1"/>
    <rect x="4" y="44" width="10" height="4" rx="1"/>
    </g>
    <g stroke="#181e14" stroke-width="3" stroke-linecap="round" stroke-linejoin="round" transform="translate(1,1)">
    <line x1="8" y1="42" x2="34" y2="12"/>
    <polygon points="30,4 38,8 34,16 26,12"/>
    <rect x="6" y="40" width="6" height="6" rx="1"/>
    <rect x="4" y="44" width="10" height="4" rx="1"/>
    </g>
    <g stroke="url(#g)" stroke-width="1.5" stroke-linecap="round" stroke-linejoin="round">
    <line x1="8" y1="42" x2="34" y2="12"/>
    <polygon points="30,4 38,8 34,16 26,12"/>
    <rect x="6" y="40" width="6" height="6" rx="1"/>
    <rect x="4" y="44" width="10" height="4" rx="1"/>
    </g>
  </g>
</svg>