<svg xmlns="http://www.w3.org/2000/svg" viewBox="0 0 48 48">
  <defs>
    <linearGradient id="g" x1="0%" y1="0%" x2="100%" y2="100%">
      <stop offset="0%" stop-color="#b0accf"/>
      <stop offset="100%" stop-color="#2c2752"/>
    </linearGradient>
    <filter id="sh" x="-30%" y="-30%" width="160%" height="160%">
      <feDropShadow dx="2.5" dy="3.5" stdDeviation="3" flood-color="#1a1a2e" flood-opacity="0.45"/>
    </filter>
  </defs>
  <g filter="url(#sh)" fill="none">
    <g stroke="#141225" stroke-width="4.5" stroke-linecap="round" stroke-linejoin="round" transform="translate(2,2)">
<rect x="8" y="20" width="22" height="8" rx="3"/>
        <path d="M30 20 L38 10 L38 38 L30 30 Z"/>
        <line x1="14" y1="14" x2="14" y2="20"/>
        <line x1="20" y1="12" x2="20" y2="20"/>
    </g>
    <g stroke="#2c2752" stroke-width="3" stroke-linecap="round" stroke-linejoin="round" transform="translate(1,1)">
<rect x="8" y="20" width="22" height="8" rx="3"/>
        <path d="M30 20 L38 10 L38 38 L30 30 Z"/>
        <line x1="14" y1="14" x2="14" y2="20"/>
        <line x1="20" y1="12" x2="20" y2="20"/>
    </g>
    <g stroke="url(#g)" stroke-width="1.5" stroke-linecap="round" stroke-linejoin="round">
<rect x="8" y="20" width="22" height="8" rx="3"/>
        <path d="M30 20 L38 10 L38 38 L30 30 Z"/>
        <line x1="14" y1="14" x2="14" y2="20"/>
        <line x1="20" y1="12" x2="20" y2="20"/>
    </g>
  </g>
</svg>