<svg xmlns="http://www.w3.org/2000/svg" viewBox="0 0 48 48">
  <defs>
    <linearGradient id="g" x1="0%" y1="0%" x2="100%" y2="100%">
      <stop offset="0%" stop-color="#dec5c3"/>
      <stop offset="100%" stop-color="#2d201e"/>
    </linearGradient>
    <filter id="shadow" x="-30%" y="-30%" width="160%" height="160%">
      <feDropShadow dx="2.5" dy="3.5" stdDeviation="3" flood-color="#1a1a2e" flood-opacity="0.45"/>
    </filter>
  </defs>
  <g filter="url(#shadow)" fill="none">
    <g stroke="#16100f" stroke-width="4.5" stroke-linecap="round" stroke-linejoin="round" transform="translate(2,2)">
    <path d="M4 30 Q24 18 44 30 L38 44 L10 44 Z"/>
    <rect x="6" y="30" width="36" height="4" rx="2"/>
    <rect x="6" y="18" width="10" height="14" rx="2"/>
    <circle cx="30" cy="24" r="4"/>
    <line x1="24" y1="30" x2="24" y2="44"/>
    </g>
    <g stroke="#2d201e" stroke-width="3" stroke-linecap="round" stroke-linejoin="round" transform="translate(1,1)">
    <path d="M4 30 Q24 18 44 30 L38 44 L10 44 Z"/>
    <rect x="6" y="30" width="36" height="4" rx="2"/>
    <rect x="6" y="18" width="10" height="14" rx="2"/>
    <circle cx="30" cy="24" r="4"/>
    <line x1="24" y1="30" x2="24" y2="44"/>
    </g>
    <g stroke="url(#g)" stroke-width="1.5" stroke-linecap="round" stroke-linejoin="round">
    <path d="M4 30 Q24 18 44 30 L38 44 L10 44 Z"/>
    <rect x="6" y="30" width="36" height="4" rx="2"/>
    <rect x="6" y="18" width="10" height="14" rx="2"/>
    <circle cx="30" cy="24" r="4"/>
    <line x1="24" y1="30" x2="24" y2="44"/>
    </g>
  </g>
</svg>