<svg xmlns="http://www.w3.org/2000/svg" viewBox="0 0 48 48">
  <defs>
    <linearGradient id="g" x1="0%" y1="0%" x2="100%" y2="100%">
      <stop offset="0%" stop-color="#a7dfac"/>
      <stop offset="100%" stop-color="#216627"/>
    </linearGradient>
    <filter id="sh" x="-30%" y="-30%" width="160%" height="160%">
      <feDropShadow dx="2.5" dy="3.5" stdDeviation="3" flood-color="#1a1a2e" flood-opacity="0.45"/>
    </filter>
  </defs>
  <g filter="url(#sh)" fill="none">
    <g stroke="#0f2e11" stroke-width="4.5" stroke-linecap="round" stroke-linejoin="round" transform="translate(2,2)">
<path d="M24 20 L16 8 Q24 4 32 8 Z"/><line x1="24" y1="20" x2="24" y2="40"/><path d="M12 32 L24 40 L36 32"/><circle cx="24" cy="12" r="2.5"/>
    </g>
    <g stroke="#216627" stroke-width="3" stroke-linecap="round" stroke-linejoin="round" transform="translate(1,1)">
<path d="M24 20 L16 8 Q24 4 32 8 Z"/><line x1="24" y1="20" x2="24" y2="40"/><path d="M12 32 L24 40 L36 32"/><circle cx="24" cy="12" r="2.5"/>
    </g>
    <g stroke="url(#g)" stroke-width="1.5" stroke-linecap="round" stroke-linejoin="round">
<path d="M24 20 L16 8 Q24 4 32 8 Z"/><line x1="24" y1="20" x2="24" y2="40"/><path d="M12 32 L24 40 L36 32"/><circle cx="24" cy="12" r="2.5"/>
    </g>
  </g>
</svg>