<svg xmlns="http://www.w3.org/2000/svg" viewBox="0 0 48 48">
  <defs>
    <linearGradient id="g" x1="0%" y1="0%" x2="100%" y2="100%">
      <stop offset="0%" stop-color="#e3d7c1"/>
      <stop offset="100%" stop-color="#302a1d"/>
    </linearGradient>
    <filter id="shadow" x="-30%" y="-30%" width="160%" height="160%">
      <feDropShadow dx="2.5" dy="3.5" stdDeviation="3" flood-color="#1a1a2e" flood-opacity="0.45"/>
    </filter>
  </defs>
  <g filter="url(#shadow)" fill="none">
    <g stroke="#18150e" stroke-width="4.5" stroke-linecap="round" stroke-linejoin="round" transform="translate(2,2)">
    <path d="M24 6 L16 18 Q16 28 20 32 L24 38 L28 32 Q32 28 32 18 Z"/>
    <line x1="24" y1="38" x2="24" y2="44"/>
    <ellipse cx="24" cy="44" rx="4" ry="2"/>
    </g>
    <g stroke="#302a1d" stroke-width="3" stroke-linecap="round" stroke-linejoin="round" transform="translate(1,1)">
    <path d="M24 6 L16 18 Q16 28 20 32 L24 38 L28 32 Q32 28 32 18 Z"/>
    <line x1="24" y1="38" x2="24" y2="44"/>
    <ellipse cx="24" cy="44" rx="4" ry="2"/>
    </g>
    <g stroke="url(#g)" stroke-width="1.5" stroke-linecap="round" stroke-linejoin="round">
    <path d="M24 6 L16 18 Q16 28 20 32 L24 38 L28 32 Q32 28 32 18 Z"/>
    <line x1="24" y1="38" x2="24" y2="44"/>
    <ellipse cx="24" cy="44" rx="4" ry="2"/>
    </g>
  </g>
</svg>