<svg xmlns="http://www.w3.org/2000/svg" viewBox="0 0 48 48">
  <defs>
    <linearGradient id="g" x1="0%" y1="0%" x2="100%" y2="100%">
      <stop offset="0%" stop-color="#b0cfc4"/>
      <stop offset="100%" stop-color="#2c5244"/>
    </linearGradient>
    <filter id="sh" x="-30%" y="-30%" width="160%" height="160%">
      <feDropShadow dx="2.5" dy="3.5" stdDeviation="3" flood-color="#1a1a2e" flood-opacity="0.45"/>
    </filter>
  </defs>
  <g filter="url(#sh)" fill="none">
    <g stroke="#14251f" stroke-width="4.5" stroke-linecap="round" stroke-linejoin="round" transform="translate(2,2)">
<line x1="14" y1="6" x2="14" y2="42"/>
        <line x1="14" y1="6" x2="34" y2="6"/>
        <line x1="14" y1="42" x2="30" y2="42"/>
        <ellipse cx="34" cy="24" rx="6" ry="10"/>
        <line x1="30" y1="14" x2="38" y2="14"/>
        <line x1="30" y1="34" x2="38" y2="34"/>
    </g>
    <g stroke="#2c5244" stroke-width="3" stroke-linecap="round" stroke-linejoin="round" transform="translate(1,1)">
<line x1="14" y1="6" x2="14" y2="42"/>
        <line x1="14" y1="6" x2="34" y2="6"/>
        <line x1="14" y1="42" x2="30" y2="42"/>
        <ellipse cx="34" cy="24" rx="6" ry="10"/>
        <line x1="30" y1="14" x2="38" y2="14"/>
        <line x1="30" y1="34" x2="38" y2="34"/>
    </g>
    <g stroke="url(#g)" stroke-width="1.5" stroke-linecap="round" stroke-linejoin="round">
<line x1="14" y1="6" x2="14" y2="42"/>
        <line x1="14" y1="6" x2="34" y2="6"/>
        <line x1="14" y1="42" x2="30" y2="42"/>
        <ellipse cx="34" cy="24" rx="6" ry="10"/>
        <line x1="30" y1="14" x2="38" y2="14"/>
        <line x1="30" y1="34" x2="38" y2="34"/>
    </g>
  </g>
</svg>