<svg xmlns="http://www.w3.org/2000/svg" viewBox="0 0 48 48">
  <defs>
    <linearGradient id="g" x1="0%" y1="0%" x2="100%" y2="100%">
      <stop offset="0%" stop-color="#b9d4c0"/>
      <stop offset="100%" stop-color="#19281d"/>
    </linearGradient>
    <filter id="shadow" x="-30%" y="-30%" width="160%" height="160%">
      <feDropShadow dx="2.5" dy="3.5" stdDeviation="3" flood-color="#1a1a2e" flood-opacity="0.45"/>
    </filter>
  </defs>
  <g filter="url(#shadow)" fill="none">
    <g stroke="#0c140e" stroke-width="4.5" stroke-linecap="round" stroke-linejoin="round" transform="translate(2,2)">
    <ellipse cx="24" cy="28" rx="10" ry="10"/>
    <path d="M24 18 Q24 10 20 6 Q24 12 28 6 Q24 10 24 18"/>
    <line x1="24" y1="18" x2="24" y2="8"/>
    <path d="M14 24 L8 20 M34 24 L40 20"/>
    </g>
    <g stroke="#19281d" stroke-width="3" stroke-linecap="round" stroke-linejoin="round" transform="translate(1,1)">
    <ellipse cx="24" cy="28" rx="10" ry="10"/>
    <path d="M24 18 Q24 10 20 6 Q24 12 28 6 Q24 10 24 18"/>
    <line x1="24" y1="18" x2="24" y2="8"/>
    <path d="M14 24 L8 20 M34 24 L40 20"/>
    </g>
    <g stroke="url(#g)" stroke-width="1.5" stroke-linecap="round" stroke-linejoin="round">
    <ellipse cx="24" cy="28" rx="10" ry="10"/>
    <path d="M24 18 Q24 10 20 6 Q24 12 28 6 Q24 10 24 18"/>
    <line x1="24" y1="18" x2="24" y2="8"/>
    <path d="M14 24 L8 20 M34 24 L40 20"/>
    </g>
  </g>
</svg>