<svg xmlns="http://www.w3.org/2000/svg" viewBox="0 0 48 48">
  <defs>
    <linearGradient id="g" x1="0%" y1="0%" x2="100%" y2="100%">
      <stop offset="0%" stop-color="#e2bbbd"/>
      <stop offset="100%" stop-color="#69393b"/>
    </linearGradient>
    <filter id="sh" x="-30%" y="-30%" width="160%" height="160%">
      <feDropShadow dx="2.5" dy="3.5" stdDeviation="3" flood-color="#1a1a2e" flood-opacity="0.45"/>
    </filter>
  </defs>
  <g filter="url(#sh)" fill="none">
    <g stroke="#2f1a1b" stroke-width="4.5" stroke-linecap="round" stroke-linejoin="round" transform="translate(2,2)">
<ellipse cx="24" cy="28" rx="14" ry="10"/>
        <ellipse cx="24" cy="26" rx="10" ry="7"/>
        <circle cx="14" cy="22" r="4"/>
        <circle cx="34" cy="22" r="4"/>
        <circle cx="12" cy="38" r="4"/>
        <circle cx="20" cy="38" r="4"/>
        <circle cx="28" cy="38" r="4"/>
        <circle cx="36" cy="38" r="4"/>
        <circle cx="24" cy="26" r="2"/>
    </g>
    <g stroke="#69393b" stroke-width="3" stroke-linecap="round" stroke-linejoin="round" transform="translate(1,1)">
<ellipse cx="24" cy="28" rx="14" ry="10"/>
        <ellipse cx="24" cy="26" rx="10" ry="7"/>
        <circle cx="14" cy="22" r="4"/>
        <circle cx="34" cy="22" r="4"/>
        <circle cx="12" cy="38" r="4"/>
        <circle cx="20" cy="38" r="4"/>
        <circle cx="28" cy="38" r="4"/>
        <circle cx="36" cy="38" r="4"/>
        <circle cx="24" cy="26" r="2"/>
    </g>
    <g stroke="url(#g)" stroke-width="1.5" stroke-linecap="round" stroke-linejoin="round">
<ellipse cx="24" cy="28" rx="14" ry="10"/>
        <ellipse cx="24" cy="26" rx="10" ry="7"/>
        <circle cx="14" cy="22" r="4"/>
        <circle cx="34" cy="22" r="4"/>
        <circle cx="12" cy="38" r="4"/>
        <circle cx="20" cy="38" r="4"/>
        <circle cx="28" cy="38" r="4"/>
        <circle cx="36" cy="38" r="4"/>
        <circle cx="24" cy="26" r="2"/>
    </g>
  </g>
</svg>