<svg xmlns="http://www.w3.org/2000/svg" viewBox="0 0 48 48">
  <defs>
    <linearGradient id="g" x1="0%" y1="0%" x2="100%" y2="100%">
      <stop offset="0%" stop-color="#bbdaad"/>
      <stop offset="100%" stop-color="#1a2b12"/>
    </linearGradient>
    <filter id="shadow" x="-30%" y="-30%" width="160%" height="160%">
      <feDropShadow dx="2.5" dy="3.5" stdDeviation="3" flood-color="#1a1a2e" flood-opacity="0.45"/>
    </filter>
  </defs>
  <g filter="url(#shadow)" fill="none">
    <g stroke="#0d1509" stroke-width="4.5" stroke-linecap="round" stroke-linejoin="round" transform="translate(2,2)">
    <path d="M10 40 L28 14 L30 8 Q32 4 36 6 L32 10 L14 38 Z"/>
    <line x1="10" y1="40" x2="8" y2="44 M10 40 L14 44"/>
    </g>
    <g stroke="#1a2b12" stroke-width="3" stroke-linecap="round" stroke-linejoin="round" transform="translate(1,1)">
    <path d="M10 40 L28 14 L30 8 Q32 4 36 6 L32 10 L14 38 Z"/>
    <line x1="10" y1="40" x2="8" y2="44 M10 40 L14 44"/>
    </g>
    <g stroke="url(#g)" stroke-width="1.5" stroke-linecap="round" stroke-linejoin="round">
    <path d="M10 40 L28 14 L30 8 Q32 4 36 6 L32 10 L14 38 Z"/>
    <line x1="10" y1="40" x2="8" y2="44 M10 40 L14 44"/>
    </g>
  </g>
</svg>