<svg xmlns="http://www.w3.org/2000/svg" viewBox="0 0 48 48">
  <defs>
    <linearGradient id="iconGrad" x1="0%" y1="0%" x2="100%" y2="100%">
      <stop offset="0%" stop-color="#9FA8DA"/>
      <stop offset="100%" stop-color="#1F285E"/>
    </linearGradient>
    <filter id="shadow" x="-30%" y="-30%" width="160%" height="160%">
      <feDropShadow dx="2.5" dy="3.5" stdDeviation="3" flood-color="#1a1a2e" flood-opacity="0.45"/>
    </filter>
  </defs>
  <g filter="url(#shadow)" fill="none">
    <g stroke="#0F142F" stroke-width="4.5" stroke-linecap="round" stroke-linejoin="round" transform="translate(2,2)">
      <line x1="12" y1="14" x2="12" y2="36"/>
      <line x1="8" y1="16" x2="16" y2="16"/>
      <line x1="22" y1="14" x2="28" y2="36"/>
      <line x1="28" y1="14" x2="22" y2="36"/>
      <line x1="36" y1="14" x2="36" y2="36"/>
      <line x1="32" y1="16" x2="40" y2="16"/>
    </g>
    <g stroke="#1F285E" stroke-width="3" stroke-linecap="round" stroke-linejoin="round" transform="translate(1,1)">
      <line x1="12" y1="14" x2="12" y2="36"/>
      <line x1="8" y1="16" x2="16" y2="16"/>
      <line x1="22" y1="14" x2="28" y2="36"/>
      <line x1="28" y1="14" x2="22" y2="36"/>
      <line x1="36" y1="14" x2="36" y2="36"/>
      <line x1="32" y1="16" x2="40" y2="16"/>
    </g>
    <g stroke="url(#iconGrad)" stroke-width="1.5" stroke-linecap="round" stroke-linejoin="round">
      <line x1="12" y1="14" x2="12" y2="36"/>
      <line x1="8" y1="16" x2="16" y2="16"/>
      <line x1="22" y1="14" x2="28" y2="36"/>
      <line x1="28" y1="14" x2="22" y2="36"/>
      <line x1="36" y1="14" x2="36" y2="36"/>
      <line x1="32" y1="16" x2="40" y2="16"/>
    </g>
  </g>
</svg>