<svg xmlns="http://www.w3.org/2000/svg" viewBox="0 0 48 48">
  <defs>
    <linearGradient id="iconGrad" x1="0%" y1="0%" x2="100%" y2="100%">
      <stop offset="0%" stop-color="#C5CAE9"/>
      <stop offset="100%" stop-color="#333B6A"/>
    </linearGradient>
    <filter id="shadow" x="-30%" y="-30%" width="160%" height="160%">
      <feDropShadow dx="2.5" dy="3.5" stdDeviation="3" flood-color="#1a1a2e" flood-opacity="0.45"/>
    </filter>
  </defs>
  <g filter="url(#shadow)" fill="none">
    <g stroke="#191D35" stroke-width="4.5" stroke-linecap="round" stroke-linejoin="round" transform="translate(2,2)">
      <path d="M8 28 Q24 22 40 28 Q34 36 24 36 Q14 36 8 28 Z"/>
      <path d="M18 28 Q24 16 30 28 Z"/>
    </g>
    <g stroke="#333B6A" stroke-width="3" stroke-linecap="round" stroke-linejoin="round" transform="translate(1,1)">
      <path d="M8 28 Q24 22 40 28 Q34 36 24 36 Q14 36 8 28 Z"/>
      <path d="M18 28 Q24 16 30 28 Z"/>
    </g>
    <g stroke="url(#iconGrad)" stroke-width="1.5" stroke-linecap="round" stroke-linejoin="round">
      <path d="M8 28 Q24 22 40 28 Q34 36 24 36 Q14 36 8 28 Z"/>
      <path d="M18 28 Q24 16 30 28 Z"/>
    </g>
  </g>
</svg>