<svg xmlns="http://www.w3.org/2000/svg" viewBox="0 0 48 48">
  <defs>
    <linearGradient id="iconGrad" x1="0%" y1="0%" x2="100%" y2="100%">
      <stop offset="0%" stop-color="#A1887F"/>
      <stop offset="100%" stop-color="#4d3c36"/>
    </linearGradient>
    <filter id="shadow" x="-30%" y="-30%" width="160%" height="160%">
      <feDropShadow dx="2.5" dy="3.5" stdDeviation="3" flood-color="#1a1a2e" flood-opacity="0.45"/>
    </filter>
  </defs>
  <g filter="url(#shadow)" fill="none">
    <g stroke="#261e1b" stroke-width="4.5" stroke-linecap="round" stroke-linejoin="round" transform="translate(2,2)">
      <line x1="8" y1="18" x2="16" y2="18"/>
    <line x1="24" y1="18" x2="40" y2="18"/>
    <circle cx="20" cy="18" r="3.5" fill="#607D8B"/>
    <line x1="8" y1="32" x2="26" y2="32"/>
    <line x1="34" y1="32" x2="40" y2="32"/>
    <circle cx="30" cy="32" r="3.5" fill="#607D8B"/>
    </g>
    <g stroke="#4d3c36" stroke-width="3" stroke-linecap="round" stroke-linejoin="round" transform="translate(1,1)">
      <line x1="8" y1="18" x2="16" y2="18"/>
    <line x1="24" y1="18" x2="40" y2="18"/>
    <circle cx="20" cy="18" r="3.5" fill="#607D8B"/>
    <line x1="8" y1="32" x2="26" y2="32"/>
    <line x1="34" y1="32" x2="40" y2="32"/>
    <circle cx="30" cy="32" r="3.5" fill="#607D8B"/>
    </g>
    <g stroke="url(#iconGrad)" stroke-width="1.5" stroke-linecap="round" stroke-linejoin="round">
      <line x1="8" y1="18" x2="16" y2="18"/>
    <line x1="24" y1="18" x2="40" y2="18"/>
    <circle cx="20" cy="18" r="3.5" fill="#607D8B"/>
    <line x1="8" y1="32" x2="26" y2="32"/>
    <line x1="34" y1="32" x2="40" y2="32"/>
    <circle cx="30" cy="32" r="3.5" fill="#607D8B"/>
    </g>
  </g>
</svg>
