<svg xmlns="http://www.w3.org/2000/svg" viewBox="0 0 48 48">
  <defs>
    <linearGradient id="g" x1="0%" y1="0%" x2="100%" y2="100%">
      <stop offset="0%" stop-color="#a0c4c6"/>
      <stop offset="100%" stop-color="#194447"/>
    </linearGradient>
    <filter id="sh" x="-30%" y="-30%" width="160%" height="160%">
      <feDropShadow dx="2.5" dy="3.5" stdDeviation="3" flood-color="#1a1a2e" flood-opacity="0.45"/>
    </filter>
  </defs>
  <g filter="url(#sh)" fill="none">
    <g stroke="#0b1f20" stroke-width="4.5" stroke-linecap="round" stroke-linejoin="round" transform="translate(2,2)">
<rect x="6" y="22" width="36" height="14" rx="4"/>
        <circle cx="14" cy="38" r="5"/>
        <circle cx="34" cy="38" r="5"/>
        <rect x="14" y="8" width="8" height="14" rx="2"/>
        <rect x="26" y="12" width="6" height="10" rx="2"/>
    </g>
    <g stroke="#194447" stroke-width="3" stroke-linecap="round" stroke-linejoin="round" transform="translate(1,1)">
<rect x="6" y="22" width="36" height="14" rx="4"/>
        <circle cx="14" cy="38" r="5"/>
        <circle cx="34" cy="38" r="5"/>
        <rect x="14" y="8" width="8" height="14" rx="2"/>
        <rect x="26" y="12" width="6" height="10" rx="2"/>
    </g>
    <g stroke="url(#g)" stroke-width="1.5" stroke-linecap="round" stroke-linejoin="round">
<rect x="6" y="22" width="36" height="14" rx="4"/>
        <circle cx="14" cy="38" r="5"/>
        <circle cx="34" cy="38" r="5"/>
        <rect x="14" y="8" width="8" height="14" rx="2"/>
        <rect x="26" y="12" width="6" height="10" rx="2"/>
    </g>
  </g>
</svg>