<svg xmlns="http://www.w3.org/2000/svg" viewBox="0 0 48 48">
  <defs>
    <linearGradient id="g" x1="0%" y1="0%" x2="100%" y2="100%">
      <stop offset="0%" stop-color="#b8d1c2"/>
      <stop offset="100%" stop-color="#365442"/>
    </linearGradient>
    <filter id="sh" x="-30%" y="-30%" width="160%" height="160%">
      <feDropShadow dx="2.5" dy="3.5" stdDeviation="3" flood-color="#1a1a2e" flood-opacity="0.45"/>
    </filter>
  </defs>
  <g filter="url(#sh)" fill="none">
    <g stroke="#18261e" stroke-width="4.5" stroke-linecap="round" stroke-linejoin="round" transform="translate(2,2)">
<rect x="8" y="16" width="32" height="22" rx="3"/><rect x="14" y="8" width="20" height="10" rx="3"/><circle cx="24" cy="12" r="3"/><circle cx="24" cy="12" r="1.5"/><rect x="14" y="26" width="20" height="6" rx="2"/><circle cx="14" cy="16" r="2"/><circle cx="34" cy="16" r="2"/>
    </g>
    <g stroke="#365442" stroke-width="3" stroke-linecap="round" stroke-linejoin="round" transform="translate(1,1)">
<rect x="8" y="16" width="32" height="22" rx="3"/><rect x="14" y="8" width="20" height="10" rx="3"/><circle cx="24" cy="12" r="3"/><circle cx="24" cy="12" r="1.5"/><rect x="14" y="26" width="20" height="6" rx="2"/><circle cx="14" cy="16" r="2"/><circle cx="34" cy="16" r="2"/>
    </g>
    <g stroke="url(#g)" stroke-width="1.5" stroke-linecap="round" stroke-linejoin="round">
<rect x="8" y="16" width="32" height="22" rx="3"/><rect x="14" y="8" width="20" height="10" rx="3"/><circle cx="24" cy="12" r="3"/><circle cx="24" cy="12" r="1.5"/><rect x="14" y="26" width="20" height="6" rx="2"/><circle cx="14" cy="16" r="2"/><circle cx="34" cy="16" r="2"/>
    </g>
  </g>
</svg>