<svg xmlns="http://www.w3.org/2000/svg" viewBox="0 0 48 48">
  <defs>
    <linearGradient id="g" x1="0%" y1="0%" x2="100%" y2="100%">
      <stop offset="0%" stop-color="#c6a6bf"/>
      <stop offset="100%" stop-color="#200e1c"/>
    </linearGradient>
    <filter id="shadow" x="-30%" y="-30%" width="160%" height="160%">
      <feDropShadow dx="2.5" dy="3.5" stdDeviation="3" flood-color="#1a1a2e" flood-opacity="0.45"/>
    </filter>
  </defs>
  <g filter="url(#shadow)" fill="none">
    <g stroke="#10070e" stroke-width="4.5" stroke-linecap="round" stroke-linejoin="round" transform="translate(2,2)">
    <path d="M14 44 Q8 30 14 20 Q20 10 30 14 Q40 18 36 28 Q32 38 26 44 Z"/>
    <line x1="14" y1="44" x2="26" y2="44"/>
    <line x1="20" y1="18" x2="28" y2="22 M18 24 L26 28"/>
    </g>
    <g stroke="#200e1c" stroke-width="3" stroke-linecap="round" stroke-linejoin="round" transform="translate(1,1)">
    <path d="M14 44 Q8 30 14 20 Q20 10 30 14 Q40 18 36 28 Q32 38 26 44 Z"/>
    <line x1="14" y1="44" x2="26" y2="44"/>
    <line x1="20" y1="18" x2="28" y2="22 M18 24 L26 28"/>
    </g>
    <g stroke="url(#g)" stroke-width="1.5" stroke-linecap="round" stroke-linejoin="round">
    <path d="M14 44 Q8 30 14 20 Q20 10 30 14 Q40 18 36 28 Q32 38 26 44 Z"/>
    <line x1="14" y1="44" x2="26" y2="44"/>
    <line x1="20" y1="18" x2="28" y2="22 M18 24 L26 28"/>
    </g>
  </g>
</svg>