<svg xmlns="http://www.w3.org/2000/svg" viewBox="0 0 48 48">
  <defs>
    <linearGradient id="g" x1="0%" y1="0%" x2="100%" y2="100%">
      <stop offset="0%" stop-color="#cda0b9"/>
      <stop offset="100%" stop-color="#4f1937"/>
    </linearGradient>
    <filter id="sh" x="-30%" y="-30%" width="160%" height="160%">
      <feDropShadow dx="2.5" dy="3.5" stdDeviation="3" flood-color="#1a1a2e" flood-opacity="0.45"/>
    </filter>
  </defs>
  <g filter="url(#sh)" fill="none">
    <g stroke="#240b19" stroke-width="4.5" stroke-linecap="round" stroke-linejoin="round" transform="translate(2,2)">
<path d="M16 22 Q16 8 24 8 Q32 8 32 22 L32 36 L16 36 Z"/><ellipse cx="24" cy="36" rx="8" ry="4"/><circle cx="24" cy="22" r="3"/><circle cx="24" cy="22" r="1.5"/>
    </g>
    <g stroke="#4f1937" stroke-width="3" stroke-linecap="round" stroke-linejoin="round" transform="translate(1,1)">
<path d="M16 22 Q16 8 24 8 Q32 8 32 22 L32 36 L16 36 Z"/><ellipse cx="24" cy="36" rx="8" ry="4"/><circle cx="24" cy="22" r="3"/><circle cx="24" cy="22" r="1.5"/>
    </g>
    <g stroke="url(#g)" stroke-width="1.5" stroke-linecap="round" stroke-linejoin="round">
<path d="M16 22 Q16 8 24 8 Q32 8 32 22 L32 36 L16 36 Z"/><ellipse cx="24" cy="36" rx="8" ry="4"/><circle cx="24" cy="22" r="3"/><circle cx="24" cy="22" r="1.5"/>
    </g>
  </g>
</svg>