<svg xmlns="http://www.w3.org/2000/svg" viewBox="0 0 48 48">
  <defs>
    <linearGradient id="g" x1="0%" y1="0%" x2="100%" y2="100%">
      <stop offset="0%" stop-color="#cea5a6"/>
      <stop offset="100%" stop-color="#240e0e"/>
    </linearGradient>
    <filter id="shadow" x="-30%" y="-30%" width="160%" height="160%">
      <feDropShadow dx="2.5" dy="3.5" stdDeviation="3" flood-color="#1a1a2e" flood-opacity="0.45"/>
    </filter>
  </defs>
  <g filter="url(#shadow)" fill="none">
    <g stroke="#120707" stroke-width="4.5" stroke-linecap="round" stroke-linejoin="round" transform="translate(2,2)">
    <path d="M16 20 L14 44 L34 44 L32 20 Z"/>
    <ellipse cx="24" cy="20" rx="8" ry="4"/>
    <ellipse cx="24" cy="16" rx="4" ry="2"/>
    </g>
    <g stroke="#240e0e" stroke-width="3" stroke-linecap="round" stroke-linejoin="round" transform="translate(1,1)">
    <path d="M16 20 L14 44 L34 44 L32 20 Z"/>
    <ellipse cx="24" cy="20" rx="8" ry="4"/>
    <ellipse cx="24" cy="16" rx="4" ry="2"/>
    </g>
    <g stroke="url(#g)" stroke-width="1.5" stroke-linecap="round" stroke-linejoin="round">
    <path d="M16 20 L14 44 L34 44 L32 20 Z"/>
    <ellipse cx="24" cy="20" rx="8" ry="4"/>
    <ellipse cx="24" cy="16" rx="4" ry="2"/>
    </g>
  </g>
</svg>