<svg xmlns="http://www.w3.org/2000/svg" viewBox="0 0 48 48">
  <defs>
    <linearGradient id="g" x1="0%" y1="0%" x2="100%" y2="100%">
      <stop offset="0%" stop-color="#d1b8df"/>
      <stop offset="100%" stop-color="#26182e"/>
    </linearGradient>
    <filter id="shadow" x="-30%" y="-30%" width="160%" height="160%">
      <feDropShadow dx="2.5" dy="3.5" stdDeviation="3" flood-color="#1a1a2e" flood-opacity="0.45"/>
    </filter>
  </defs>
  <g filter="url(#shadow)" fill="none">
    <g stroke="#130c17" stroke-width="4.5" stroke-linecap="round" stroke-linejoin="round" transform="translate(2,2)">
    <circle cx="24" cy="24" r="18"/>
    <circle cx="24" cy="24" r="14"/>
    <line x1="24" y1="6" x2="24" y2="10 M24 38 L24 42 M6 24 L10 24 M38 24 L42 24"/>
    <circle cx="24" cy="24" r="4"/>
    <line x1="24" y1="24" x2="30" y2="24" stroke-width="3"/>
    </g>
    <g stroke="#26182e" stroke-width="3" stroke-linecap="round" stroke-linejoin="round" transform="translate(1,1)">
    <circle cx="24" cy="24" r="18"/>
    <circle cx="24" cy="24" r="14"/>
    <line x1="24" y1="6" x2="24" y2="10 M24 38 L24 42 M6 24 L10 24 M38 24 L42 24"/>
    <circle cx="24" cy="24" r="4"/>
    <line x1="24" y1="24" x2="30" y2="24" stroke-width="3"/>
    </g>
    <g stroke="url(#g)" stroke-width="1.5" stroke-linecap="round" stroke-linejoin="round">
    <circle cx="24" cy="24" r="18"/>
    <circle cx="24" cy="24" r="14"/>
    <line x1="24" y1="6" x2="24" y2="10 M24 38 L24 42 M6 24 L10 24 M38 24 L42 24"/>
    <circle cx="24" cy="24" r="4"/>
    <line x1="24" y1="24" x2="30" y2="24" stroke-width="3"/>
    </g>
  </g>
</svg>