<svg xmlns="http://www.w3.org/2000/svg" viewBox="0 0 48 48">
  <defs>
    <linearGradient id="g" x1="0%" y1="0%" x2="100%" y2="100%">
      <stop offset="0%" stop-color="#c5c9af"/>
      <stop offset="100%" stop-color="#1f2113"/>
    </linearGradient>
    <filter id="shadow" x="-30%" y="-30%" width="160%" height="160%">
      <feDropShadow dx="2.5" dy="3.5" stdDeviation="3" flood-color="#1a1a2e" flood-opacity="0.45"/>
    </filter>
  </defs>
  <g filter="url(#shadow)" fill="none">
    <g stroke="#0f1009" stroke-width="4.5" stroke-linecap="round" stroke-linejoin="round" transform="translate(2,2)">
    <path d="M14 10 L10 18 L10 42 L38 42 L38 18 L34 10 Z"/>
    <line x1="24" y1="10" x2="24" y2="42"/>
    <path d="M10 18 L38 18"/>
    </g>
    <g stroke="#1f2113" stroke-width="3" stroke-linecap="round" stroke-linejoin="round" transform="translate(1,1)">
    <path d="M14 10 L10 18 L10 42 L38 42 L38 18 L34 10 Z"/>
    <line x1="24" y1="10" x2="24" y2="42"/>
    <path d="M10 18 L38 18"/>
    </g>
    <g stroke="url(#g)" stroke-width="1.5" stroke-linecap="round" stroke-linejoin="round">
    <path d="M14 10 L10 18 L10 42 L38 42 L38 18 L34 10 Z"/>
    <line x1="24" y1="10" x2="24" y2="42"/>
    <path d="M10 18 L38 18"/>
    </g>
  </g>
</svg>