<svg xmlns="http://www.w3.org/2000/svg" viewBox="0 0 48 48">
  <defs>
    <linearGradient id="g" x1="0%" y1="0%" x2="100%" y2="100%">
      <stop offset="0%" stop-color="#b0d7a8"/>
      <stop offset="100%" stop-color="#2c5c22"/>
    </linearGradient>
    <filter id="sh" x="-30%" y="-30%" width="160%" height="160%">
      <feDropShadow dx="2.5" dy="3.5" stdDeviation="3" flood-color="#1a1a2e" flood-opacity="0.45"/>
    </filter>
  </defs>
  <g filter="url(#sh)" fill="none">
    <g stroke="#142a0f" stroke-width="4.5" stroke-linecap="round" stroke-linejoin="round" transform="translate(2,2)">
<ellipse cx="16" cy="12" rx="6" ry="8"/>
        <ellipse cx="16" cy="32" rx="6" ry="8"/>
        <rect x="12" y="16" width="8" height="12"/>
        <line x1="16" y1="4" x2="16" y2="40"/>
        <line x1="16" y1="4" x2="24" y2="8"/>
        <line x1="16" y1="40" x2="24" y2="36"/>
    </g>
    <g stroke="#2c5c22" stroke-width="3" stroke-linecap="round" stroke-linejoin="round" transform="translate(1,1)">
<ellipse cx="16" cy="12" rx="6" ry="8"/>
        <ellipse cx="16" cy="32" rx="6" ry="8"/>
        <rect x="12" y="16" width="8" height="12"/>
        <line x1="16" y1="4" x2="16" y2="40"/>
        <line x1="16" y1="4" x2="24" y2="8"/>
        <line x1="16" y1="40" x2="24" y2="36"/>
    </g>
    <g stroke="url(#g)" stroke-width="1.5" stroke-linecap="round" stroke-linejoin="round">
<ellipse cx="16" cy="12" rx="6" ry="8"/>
        <ellipse cx="16" cy="32" rx="6" ry="8"/>
        <rect x="12" y="16" width="8" height="12"/>
        <line x1="16" y1="4" x2="16" y2="40"/>
        <line x1="16" y1="4" x2="24" y2="8"/>
        <line x1="16" y1="40" x2="24" y2="36"/>
    </g>
  </g>
</svg>