<svg xmlns="http://www.w3.org/2000/svg" viewBox="0 0 48 48">
  <defs>
    <linearGradient id="g" x1="0%" y1="0%" x2="100%" y2="100%">
      <stop offset="0%" stop-color="#a9a8c1"/>
      <stop offset="100%" stop-color="#100f1d"/>
    </linearGradient>
    <filter id="shadow" x="-30%" y="-30%" width="160%" height="160%">
      <feDropShadow dx="2.5" dy="3.5" stdDeviation="3" flood-color="#1a1a2e" flood-opacity="0.45"/>
    </filter>
  </defs>
  <g filter="url(#shadow)" fill="none">
    <g stroke="#08070e" stroke-width="4.5" stroke-linecap="round" stroke-linejoin="round" transform="translate(2,2)">
    <path d="M6 24 Q6 10 24 10 Q42 10 42 24 Q42 38 36 40 Q30 42 28 36 Q26 30 32 28 Q38 26 38 22"/>
    <circle cx="10" cy="20" r="2"/>
    <ellipse cx="32" cy="28" rx="2" ry="1"/>
    </g>
    <g stroke="#100f1d" stroke-width="3" stroke-linecap="round" stroke-linejoin="round" transform="translate(1,1)">
    <path d="M6 24 Q6 10 24 10 Q42 10 42 24 Q42 38 36 40 Q30 42 28 36 Q26 30 32 28 Q38 26 38 22"/>
    <circle cx="10" cy="20" r="2"/>
    <ellipse cx="32" cy="28" rx="2" ry="1"/>
    </g>
    <g stroke="url(#g)" stroke-width="1.5" stroke-linecap="round" stroke-linejoin="round">
    <path d="M6 24 Q6 10 24 10 Q42 10 42 24 Q42 38 36 40 Q30 42 28 36 Q26 30 32 28 Q38 26 38 22"/>
    <circle cx="10" cy="20" r="2"/>
    <ellipse cx="32" cy="28" rx="2" ry="1"/>
    </g>
  </g>
</svg>