<svg xmlns="http://www.w3.org/2000/svg" viewBox="0 0 48 48">
  <defs>
    <linearGradient id="g" x1="0%" y1="0%" x2="100%" y2="100%">
      <stop offset="0%" stop-color="#c0a1bb"/>
      <stop offset="100%" stop-color="#401a39"/>
    </linearGradient>
    <filter id="sh" x="-30%" y="-30%" width="160%" height="160%">
      <feDropShadow dx="2.5" dy="3.5" stdDeviation="3" flood-color="#1a1a2e" flood-opacity="0.45"/>
    </filter>
  </defs>
  <g filter="url(#sh)" fill="none">
    <g stroke="#1d0c1a" stroke-width="4.5" stroke-linecap="round" stroke-linejoin="round" transform="translate(2,2)">
<path d="M24 4 Q4 20 4 36 L44 36 Q44 20 24 4 Z"/>
        <path d="M10 36 Q10 24 24 14"/>
        <path d="M38 36 Q38 24 24 14"/>
    </g>
    <g stroke="#401a39" stroke-width="3" stroke-linecap="round" stroke-linejoin="round" transform="translate(1,1)">
<path d="M24 4 Q4 20 4 36 L44 36 Q44 20 24 4 Z"/>
        <path d="M10 36 Q10 24 24 14"/>
        <path d="M38 36 Q38 24 24 14"/>
    </g>
    <g stroke="url(#g)" stroke-width="1.5" stroke-linecap="round" stroke-linejoin="round">
<path d="M24 4 Q4 20 4 36 L44 36 Q44 20 24 4 Z"/>
        <path d="M10 36 Q10 24 24 14"/>
        <path d="M38 36 Q38 24 24 14"/>
    </g>
  </g>
</svg>