<svg xmlns="http://www.w3.org/2000/svg" viewBox="0 0 48 48">
  <defs>
    <linearGradient id="g" x1="0%" y1="0%" x2="100%" y2="100%">
      <stop offset="0%" stop-color="#c3c0e5"/>
      <stop offset="100%" stop-color="#1e1c31"/>
    </linearGradient>
    <filter id="shadow" x="-30%" y="-30%" width="160%" height="160%">
      <feDropShadow dx="2.5" dy="3.5" stdDeviation="3" flood-color="#1a1a2e" flood-opacity="0.45"/>
    </filter>
  </defs>
  <g filter="url(#shadow)" fill="none">
    <g stroke="#0f0e18" stroke-width="4.5" stroke-linecap="round" stroke-linejoin="round" transform="translate(2,2)">
    <path d="M6 18 L10 30 Q12 36 18 36 L24 32 L30 36 Q36 36 38 30 L42 18 Z"/>
    <rect x="10" y="14" width="28" height="6" rx="3"/>
    <circle cx="18" cy="24" r="4"/>
    <circle cx="30" cy="24" r="4"/>
    </g>
    <g stroke="#1e1c31" stroke-width="3" stroke-linecap="round" stroke-linejoin="round" transform="translate(1,1)">
    <path d="M6 18 L10 30 Q12 36 18 36 L24 32 L30 36 Q36 36 38 30 L42 18 Z"/>
    <rect x="10" y="14" width="28" height="6" rx="3"/>
    <circle cx="18" cy="24" r="4"/>
    <circle cx="30" cy="24" r="4"/>
    </g>
    <g stroke="url(#g)" stroke-width="1.5" stroke-linecap="round" stroke-linejoin="round">
    <path d="M6 18 L10 30 Q12 36 18 36 L24 32 L30 36 Q36 36 38 30 L42 18 Z"/>
    <rect x="10" y="14" width="28" height="6" rx="3"/>
    <circle cx="18" cy="24" r="4"/>
    <circle cx="30" cy="24" r="4"/>
    </g>
  </g>
</svg>