<svg xmlns="http://www.w3.org/2000/svg" viewBox="0 0 48 48">
  <defs>
    <linearGradient id="g" x1="0%" y1="0%" x2="100%" y2="100%">
      <stop offset="0%" stop-color="#b29ec3"/>
      <stop offset="100%" stop-color="#2e1643"/>
    </linearGradient>
    <filter id="sh" x="-30%" y="-30%" width="160%" height="160%">
      <feDropShadow dx="2.5" dy="3.5" stdDeviation="3" flood-color="#1a1a2e" flood-opacity="0.45"/>
    </filter>
  </defs>
  <g filter="url(#sh)" fill="none">
    <g stroke="#150a1e" stroke-width="4.5" stroke-linecap="round" stroke-linejoin="round" transform="translate(2,2)">
<path d="M12 36 Q12 8 24 8 Q36 8 36 36 Z"/>
        <line x1="10" y1="28" x2="38" y2="28"/>
        <circle cx="20" cy="18" r="2"/>
        <circle cx="28" cy="18" r="2"/>
        <rect x="18" y="30" width="12" height="4" rx="1"/>
    </g>
    <g stroke="#2e1643" stroke-width="3" stroke-linecap="round" stroke-linejoin="round" transform="translate(1,1)">
<path d="M12 36 Q12 8 24 8 Q36 8 36 36 Z"/>
        <line x1="10" y1="28" x2="38" y2="28"/>
        <circle cx="20" cy="18" r="2"/>
        <circle cx="28" cy="18" r="2"/>
        <rect x="18" y="30" width="12" height="4" rx="1"/>
    </g>
    <g stroke="url(#g)" stroke-width="1.5" stroke-linecap="round" stroke-linejoin="round">
<path d="M12 36 Q12 8 24 8 Q36 8 36 36 Z"/>
        <line x1="10" y1="28" x2="38" y2="28"/>
        <circle cx="20" cy="18" r="2"/>
        <circle cx="28" cy="18" r="2"/>
        <rect x="18" y="30" width="12" height="4" rx="1"/>
    </g>
  </g>
</svg>