<svg xmlns="http://www.w3.org/2000/svg" viewBox="0 0 48 48">
  <defs>
    <linearGradient id="g" x1="0%" y1="0%" x2="100%" y2="100%">
      <stop offset="0%" stop-color="#c9cbab"/>
      <stop offset="100%" stop-color="#4b4d26"/>
    </linearGradient>
    <filter id="sh" x="-30%" y="-30%" width="160%" height="160%">
      <feDropShadow dx="2.5" dy="3.5" stdDeviation="3" flood-color="#1a1a2e" flood-opacity="0.45"/>
    </filter>
  </defs>
  <g filter="url(#sh)" fill="none">
    <g stroke="#222311" stroke-width="4.5" stroke-linecap="round" stroke-linejoin="round" transform="translate(2,2)">
<circle cx="24" cy="10" r="5"/>
        <line x1="24" y1="15" x2="24" y2="28"/>
        <line x1="24" y1="28" x2="20" y2="42"/>
        <line x1="24" y1="20" x2="30" y2="28"/>
        <line x1="30" y1="28" x2="32" y2="42"/>
    </g>
    <g stroke="#4b4d26" stroke-width="3" stroke-linecap="round" stroke-linejoin="round" transform="translate(1,1)">
<circle cx="24" cy="10" r="5"/>
        <line x1="24" y1="15" x2="24" y2="28"/>
        <line x1="24" y1="28" x2="20" y2="42"/>
        <line x1="24" y1="20" x2="30" y2="28"/>
        <line x1="30" y1="28" x2="32" y2="42"/>
    </g>
    <g stroke="url(#g)" stroke-width="1.5" stroke-linecap="round" stroke-linejoin="round">
<circle cx="24" cy="10" r="5"/>
        <line x1="24" y1="15" x2="24" y2="28"/>
        <line x1="24" y1="28" x2="20" y2="42"/>
        <line x1="24" y1="20" x2="30" y2="28"/>
        <line x1="30" y1="28" x2="32" y2="42"/>
    </g>
  </g>
</svg>