<svg xmlns="http://www.w3.org/2000/svg" viewBox="0 0 48 48">
  <defs>
    <linearGradient id="g" x1="0%" y1="0%" x2="100%" y2="100%">
      <stop offset="0%" stop-color="#cdb7a7"/>
      <stop offset="100%" stop-color="#24180f"/>
    </linearGradient>
    <filter id="shadow" x="-30%" y="-30%" width="160%" height="160%">
      <feDropShadow dx="2.5" dy="3.5" stdDeviation="3" flood-color="#1a1a2e" flood-opacity="0.45"/>
    </filter>
  </defs>
  <g filter="url(#shadow)" fill="none">
    <g stroke="#120c07" stroke-width="4.5" stroke-linecap="round" stroke-linejoin="round" transform="translate(2,2)">
    <rect x="2" y="6" width="44" height="38" rx="2"/>
    <rect x="2" y="6" width="44" height="10"/>
    <rect x="2" y="20" width="20" height="10"/>
    <rect x="26" y="20" width="20" height="10"/>
    <rect x="2" y="34" width="14" height="10"/>
    <rect x="20" y="34" width="26" height="10"/>
    </g>
    <g stroke="#24180f" stroke-width="3" stroke-linecap="round" stroke-linejoin="round" transform="translate(1,1)">
    <rect x="2" y="6" width="44" height="38" rx="2"/>
    <rect x="2" y="6" width="44" height="10"/>
    <rect x="2" y="20" width="20" height="10"/>
    <rect x="26" y="20" width="20" height="10"/>
    <rect x="2" y="34" width="14" height="10"/>
    <rect x="20" y="34" width="26" height="10"/>
    </g>
    <g stroke="url(#g)" stroke-width="1.5" stroke-linecap="round" stroke-linejoin="round">
    <rect x="2" y="6" width="44" height="38" rx="2"/>
    <rect x="2" y="6" width="44" height="10"/>
    <rect x="2" y="20" width="20" height="10"/>
    <rect x="26" y="20" width="20" height="10"/>
    <rect x="2" y="34" width="14" height="10"/>
    <rect x="20" y="34" width="26" height="10"/>
    </g>
  </g>
</svg>