<svg xmlns="http://www.w3.org/2000/svg" viewBox="0 0 48 48">
  <defs>
    <linearGradient id="g" x1="0%" y1="0%" x2="100%" y2="100%">
      <stop offset="0%" stop-color="#a6c4db"/>
      <stop offset="100%" stop-color="#0e1f2b"/>
    </linearGradient>
    <filter id="shadow" x="-30%" y="-30%" width="160%" height="160%">
      <feDropShadow dx="2.5" dy="3.5" stdDeviation="3" flood-color="#1a1a2e" flood-opacity="0.45"/>
    </filter>
  </defs>
  <g filter="url(#shadow)" fill="none">
    <g stroke="#070f15" stroke-width="4.5" stroke-linecap="round" stroke-linejoin="round" transform="translate(2,2)">
    <rect x="4" y="4" width="40" height="40" rx="2"/>
    <rect x="4" y="4" width="40" height="8" rx="1"/>
    <rect x="8" y="16" width="12" height="12" rx="1"/>
    <rect x="24" y="16" width="16" height="4" rx="1"/>
    <rect x="8" y="32" width="16" height="12" rx="1"/>
    <rect x="28" y="24" width="12" height="20" rx="1"/>
    </g>
    <g stroke="#0e1f2b" stroke-width="3" stroke-linecap="round" stroke-linejoin="round" transform="translate(1,1)">
    <rect x="4" y="4" width="40" height="40" rx="2"/>
    <rect x="4" y="4" width="40" height="8" rx="1"/>
    <rect x="8" y="16" width="12" height="12" rx="1"/>
    <rect x="24" y="16" width="16" height="4" rx="1"/>
    <rect x="8" y="32" width="16" height="12" rx="1"/>
    <rect x="28" y="24" width="12" height="20" rx="1"/>
    </g>
    <g stroke="url(#g)" stroke-width="1.5" stroke-linecap="round" stroke-linejoin="round">
    <rect x="4" y="4" width="40" height="40" rx="2"/>
    <rect x="4" y="4" width="40" height="8" rx="1"/>
    <rect x="8" y="16" width="12" height="12" rx="1"/>
    <rect x="24" y="16" width="16" height="4" rx="1"/>
    <rect x="8" y="32" width="16" height="12" rx="1"/>
    <rect x="28" y="24" width="12" height="20" rx="1"/>
    </g>
  </g>
</svg>