<svg xmlns="http://www.w3.org/2000/svg" viewBox="0 0 48 48">
  <defs>
    <linearGradient id="g" x1="0%" y1="0%" x2="100%" y2="100%">
      <stop offset="0%" stop-color="#a3bcc5"/>
      <stop offset="100%" stop-color="#0c1b1f"/>
    </linearGradient>
    <filter id="shadow" x="-30%" y="-30%" width="160%" height="160%">
      <feDropShadow dx="2.5" dy="3.5" stdDeviation="3" flood-color="#1a1a2e" flood-opacity="0.45"/>
    </filter>
  </defs>
  <g filter="url(#shadow)" fill="none">
    <g stroke="#060d0f" stroke-width="4.5" stroke-linecap="round" stroke-linejoin="round" transform="translate(2,2)">
    <ellipse cx="24" cy="26" rx="8" ry="6"/>
    <circle cx="24" cy="16" r="5"/>
    <circle cx="22" cy="14" r="1.5"/>
    <circle cx="26" cy="14" r="1.5"/>
    <ellipse cx="16" cy="32" rx="8" ry="4" transform="rotate(-20 16 32)"/>
    <line x1="28" y1="30" x2="36" y2="44"/>
    <line x1="32" y1="30" x2="40" y2="44"/>
    </g>
    <g stroke="#0c1b1f" stroke-width="3" stroke-linecap="round" stroke-linejoin="round" transform="translate(1,1)">
    <ellipse cx="24" cy="26" rx="8" ry="6"/>
    <circle cx="24" cy="16" r="5"/>
    <circle cx="22" cy="14" r="1.5"/>
    <circle cx="26" cy="14" r="1.5"/>
    <ellipse cx="16" cy="32" rx="8" ry="4" transform="rotate(-20 16 32)"/>
    <line x1="28" y1="30" x2="36" y2="44"/>
    <line x1="32" y1="30" x2="40" y2="44"/>
    </g>
    <g stroke="url(#g)" stroke-width="1.5" stroke-linecap="round" stroke-linejoin="round">
    <ellipse cx="24" cy="26" rx="8" ry="6"/>
    <circle cx="24" cy="16" r="5"/>
    <circle cx="22" cy="14" r="1.5"/>
    <circle cx="26" cy="14" r="1.5"/>
    <ellipse cx="16" cy="32" rx="8" ry="4" transform="rotate(-20 16 32)"/>
    <line x1="28" y1="30" x2="36" y2="44"/>
    <line x1="32" y1="30" x2="40" y2="44"/>
    </g>
  </g>
</svg>