<svg xmlns="http://www.w3.org/2000/svg" viewBox="0 0 48 48">
  <defs>
    <linearGradient id="g" x1="0%" y1="0%" x2="100%" y2="100%">
      <stop offset="0%" stop-color="#c0a8c5"/>
      <stop offset="100%" stop-color="#1d0f1f"/>
    </linearGradient>
    <filter id="shadow" x="-30%" y="-30%" width="160%" height="160%">
      <feDropShadow dx="2.5" dy="3.5" stdDeviation="3" flood-color="#1a1a2e" flood-opacity="0.45"/>
    </filter>
  </defs>
  <g filter="url(#shadow)" fill="none">
    <g stroke="#0e070f" stroke-width="4.5" stroke-linecap="round" stroke-linejoin="round" transform="translate(2,2)">
    <ellipse cx="24" cy="26" rx="14" ry="10"/>
    <circle cx="24" cy="16" r="6"/>
    <circle cx="18" cy="14" r="2"/>
    <circle cx="30" cy="14" r="2"/>
    <path d="M10 28 Q4 26 6 30 Q8 34 14 30"/>
    <path d="M38 28 Q44 26 42 30 Q40 34 34 30"/>
    <path d="M16 32 L32 32"/>
    <path d="M18 36 L30 36"/>
    </g>
    <g stroke="#1d0f1f" stroke-width="3" stroke-linecap="round" stroke-linejoin="round" transform="translate(1,1)">
    <ellipse cx="24" cy="26" rx="14" ry="10"/>
    <circle cx="24" cy="16" r="6"/>
    <circle cx="18" cy="14" r="2"/>
    <circle cx="30" cy="14" r="2"/>
    <path d="M10 28 Q4 26 6 30 Q8 34 14 30"/>
    <path d="M38 28 Q44 26 42 30 Q40 34 34 30"/>
    <path d="M16 32 L32 32"/>
    <path d="M18 36 L30 36"/>
    </g>
    <g stroke="url(#g)" stroke-width="1.5" stroke-linecap="round" stroke-linejoin="round">
    <ellipse cx="24" cy="26" rx="14" ry="10"/>
    <circle cx="24" cy="16" r="6"/>
    <circle cx="18" cy="14" r="2"/>
    <circle cx="30" cy="14" r="2"/>
    <path d="M10 28 Q4 26 6 30 Q8 34 14 30"/>
    <path d="M38 28 Q44 26 42 30 Q40 34 34 30"/>
    <path d="M16 32 L32 32"/>
    <path d="M18 36 L30 36"/>
    </g>
  </g>
</svg>