<svg xmlns="http://www.w3.org/2000/svg" viewBox="0 0 48 48">
  <defs>
    <linearGradient id="g" x1="0%" y1="0%" x2="100%" y2="100%">
      <stop offset="0%" stop-color="#d8c4a8"/>
      <stop offset="100%" stop-color="#5d4522"/>
    </linearGradient>
    <filter id="sh" x="-30%" y="-30%" width="160%" height="160%">
      <feDropShadow dx="2.5" dy="3.5" stdDeviation="3" flood-color="#1a1a2e" flood-opacity="0.45"/>
    </filter>
  </defs>
  <g filter="url(#sh)" fill="none">
    <g stroke="#2a1f0f" stroke-width="4.5" stroke-linecap="round" stroke-linejoin="round" transform="translate(2,2)">
<ellipse cx="24" cy="28" rx="18" ry="12"/><circle cx="14" cy="14" r="8"/><circle cx="34" cy="14" r="8"/><circle cx="14" cy="14" r="3"/><circle cx="34" cy="14" r="3"/><path d="M8 36 L4 42"/><path d="M40 36 L44 42"/><path d="M6 42 L10 40"/><path d="M42 42 L38 40"/><circle cx="18" cy="26" r="2"/><circle cx="30" cy="26" r="2"/>
    </g>
    <g stroke="#5d4522" stroke-width="3" stroke-linecap="round" stroke-linejoin="round" transform="translate(1,1)">
<ellipse cx="24" cy="28" rx="18" ry="12"/><circle cx="14" cy="14" r="8"/><circle cx="34" cy="14" r="8"/><circle cx="14" cy="14" r="3"/><circle cx="34" cy="14" r="3"/><path d="M8 36 L4 42"/><path d="M40 36 L44 42"/><path d="M6 42 L10 40"/><path d="M42 42 L38 40"/><circle cx="18" cy="26" r="2"/><circle cx="30" cy="26" r="2"/>
    </g>
    <g stroke="url(#g)" stroke-width="1.5" stroke-linecap="round" stroke-linejoin="round">
<ellipse cx="24" cy="28" rx="18" ry="12"/><circle cx="14" cy="14" r="8"/><circle cx="34" cy="14" r="8"/><circle cx="14" cy="14" r="3"/><circle cx="34" cy="14" r="3"/><path d="M8 36 L4 42"/><path d="M40 36 L44 42"/><path d="M6 42 L10 40"/><path d="M42 42 L38 40"/><circle cx="18" cy="26" r="2"/><circle cx="30" cy="26" r="2"/>
    </g>
  </g>
</svg>