<svg xmlns="http://www.w3.org/2000/svg" viewBox="0 0 48 48">
  <defs>
    <linearGradient id="g" x1="0%" y1="0%" x2="100%" y2="100%">
      <stop offset="0%" stop-color="#b49ebf"/>
      <stop offset="100%" stop-color="#160a1c"/>
    </linearGradient>
    <filter id="shadow" x="-30%" y="-30%" width="160%" height="160%">
      <feDropShadow dx="2.5" dy="3.5" stdDeviation="3" flood-color="#1a1a2e" flood-opacity="0.45"/>
    </filter>
  </defs>
  <g filter="url(#shadow)" fill="none">
    <g stroke="#0b050e" stroke-width="4.5" stroke-linecap="round" stroke-linejoin="round" transform="translate(2,2)">
    <line x1="8" y1="42" x2="34" y2="12"/>
    <circle cx="36" cy="10" r="4" fill="currentColor"/>
    <line x1="36" y1="6" x2="40" y2="4 M36 14 L40 16 M32 8 L30 4 M40 12 L44 14"/>
    </g>
    <g stroke="#160a1c" stroke-width="3" stroke-linecap="round" stroke-linejoin="round" transform="translate(1,1)">
    <line x1="8" y1="42" x2="34" y2="12"/>
    <circle cx="36" cy="10" r="4" fill="currentColor"/>
    <line x1="36" y1="6" x2="40" y2="4 M36 14 L40 16 M32 8 L30 4 M40 12 L44 14"/>
    </g>
    <g stroke="url(#g)" stroke-width="1.5" stroke-linecap="round" stroke-linejoin="round">
    <line x1="8" y1="42" x2="34" y2="12"/>
    <circle cx="36" cy="10" r="4" fill="currentColor"/>
    <line x1="36" y1="6" x2="40" y2="4 M36 14 L40 16 M32 8 L30 4 M40 12 L44 14"/>
    </g>
  </g>
</svg>