<svg xmlns="http://www.w3.org/2000/svg" viewBox="0 0 48 48">
  <defs>
    <linearGradient id="g" x1="0%" y1="0%" x2="100%" y2="100%">
      <stop offset="0%" stop-color="#c0aeb2"/>
      <stop offset="100%" stop-color="#402a2e"/>
    </linearGradient>
    <filter id="sh" x="-30%" y="-30%" width="160%" height="160%">
      <feDropShadow dx="2.5" dy="3.5" stdDeviation="3" flood-color="#1a1a2e" flood-opacity="0.45"/>
    </filter>
  </defs>
  <g filter="url(#sh)" fill="none">
    <g stroke="#1d1315" stroke-width="4.5" stroke-linecap="round" stroke-linejoin="round" transform="translate(2,2)">
<ellipse cx="24" cy="24" rx="12" ry="6"/>
        <path d="M12 24 L8 34 L40 34 L36 24"/>
        <rect x="8" y="34" width="32" height="8" rx="3"/>
    </g>
    <g stroke="#402a2e" stroke-width="3" stroke-linecap="round" stroke-linejoin="round" transform="translate(1,1)">
<ellipse cx="24" cy="24" rx="12" ry="6"/>
        <path d="M12 24 L8 34 L40 34 L36 24"/>
        <rect x="8" y="34" width="32" height="8" rx="3"/>
    </g>
    <g stroke="url(#g)" stroke-width="1.5" stroke-linecap="round" stroke-linejoin="round">
<ellipse cx="24" cy="24" rx="12" ry="6"/>
        <path d="M12 24 L8 34 L40 34 L36 24"/>
        <rect x="8" y="34" width="32" height="8" rx="3"/>
    </g>
  </g>
</svg>