<svg xmlns="http://www.w3.org/2000/svg" viewBox="0 0 48 48">
  <defs>
    <linearGradient id="g" x1="0%" y1="0%" x2="100%" y2="100%">
      <stop offset="0%" stop-color="#dfc0c3"/>
      <stop offset="100%" stop-color="#2e1d1e"/>
    </linearGradient>
    <filter id="shadow" x="-30%" y="-30%" width="160%" height="160%">
      <feDropShadow dx="2.5" dy="3.5" stdDeviation="3" flood-color="#1a1a2e" flood-opacity="0.45"/>
    </filter>
  </defs>
  <g filter="url(#shadow)" fill="none">
    <g stroke="#170e0f" stroke-width="4.5" stroke-linecap="round" stroke-linejoin="round" transform="translate(2,2)">
    <rect x="10" y="16" width="20" height="22" rx="3"/>
    <path d="M30 18 L38 12 L40 16 L32 22"/>
    <line x1="10" y1="22" x2="30" y2="22 M10 28 L30 28 M10 34 L30 34"/>
    <line x1="10" y1="16" x2="4" y2="8"/>
    <ellipse cx="4" cy="8" rx="3" ry="2"/>
    </g>
    <g stroke="#2e1d1e" stroke-width="3" stroke-linecap="round" stroke-linejoin="round" transform="translate(1,1)">
    <rect x="10" y="16" width="20" height="22" rx="3"/>
    <path d="M30 18 L38 12 L40 16 L32 22"/>
    <line x1="10" y1="22" x2="30" y2="22 M10 28 L30 28 M10 34 L30 34"/>
    <line x1="10" y1="16" x2="4" y2="8"/>
    <ellipse cx="4" cy="8" rx="3" ry="2"/>
    </g>
    <g stroke="url(#g)" stroke-width="1.5" stroke-linecap="round" stroke-linejoin="round">
    <rect x="10" y="16" width="20" height="22" rx="3"/>
    <path d="M30 18 L38 12 L40 16 L32 22"/>
    <line x1="10" y1="22" x2="30" y2="22 M10 28 L30 28 M10 34 L30 34"/>
    <line x1="10" y1="16" x2="4" y2="8"/>
    <ellipse cx="4" cy="8" rx="3" ry="2"/>
    </g>
  </g>
</svg>