<svg xmlns="http://www.w3.org/2000/svg" viewBox="0 0 48 48">
  <defs>
    <linearGradient id="g" x1="0%" y1="0%" x2="100%" y2="100%">
      <stop offset="0%" stop-color="#b9a5e2"/>
      <stop offset="100%" stop-color="#371f69"/>
    </linearGradient>
    <filter id="sh" x="-30%" y="-30%" width="160%" height="160%">
      <feDropShadow dx="2.5" dy="3.5" stdDeviation="3" flood-color="#1a1a2e" flood-opacity="0.45"/>
    </filter>
  </defs>
  <g filter="url(#sh)" fill="none">
    <g stroke="#190e2f" stroke-width="4.5" stroke-linecap="round" stroke-linejoin="round" transform="translate(2,2)">
<ellipse cx="24" cy="26" rx="14" ry="12"/>
        <path d="M10 26 Q24 14 38 26"/>
        <circle cx="18" cy="14" r="3"/>
        <circle cx="30" cy="14" r="3"/>
    </g>
    <g stroke="#371f69" stroke-width="3" stroke-linecap="round" stroke-linejoin="round" transform="translate(1,1)">
<ellipse cx="24" cy="26" rx="14" ry="12"/>
        <path d="M10 26 Q24 14 38 26"/>
        <circle cx="18" cy="14" r="3"/>
        <circle cx="30" cy="14" r="3"/>
    </g>
    <g stroke="url(#g)" stroke-width="1.5" stroke-linecap="round" stroke-linejoin="round">
<ellipse cx="24" cy="26" rx="14" ry="12"/>
        <path d="M10 26 Q24 14 38 26"/>
        <circle cx="18" cy="14" r="3"/>
        <circle cx="30" cy="14" r="3"/>
    </g>
  </g>
</svg>