<svg xmlns="http://www.w3.org/2000/svg" viewBox="0 0 48 48">
  <defs>
    <linearGradient id="g" x1="0%" y1="0%" x2="100%" y2="100%">
      <stop offset="0%" stop-color="#a4abd4"/>
      <stop offset="100%" stop-color="#0d1128"/>
    </linearGradient>
    <filter id="shadow" x="-30%" y="-30%" width="160%" height="160%">
      <feDropShadow dx="2.5" dy="3.5" stdDeviation="3" flood-color="#1a1a2e" flood-opacity="0.45"/>
    </filter>
  </defs>
  <g filter="url(#shadow)" fill="none">
    <g stroke="#060814" stroke-width="4.5" stroke-linecap="round" stroke-linejoin="round" transform="translate(2,2)">
    <circle cx="24" cy="12" r="5"/>
    <circle cx="22" cy="10" r="1.5"/>
    <path d="M24 17 L24 44"/>
    <path d="M24 24 Q14 28 6 32 M24 24 Q34 28 42 32"/>
    <circle cx="30" cy="30" r="3"/>
    </g>
    <g stroke="#0d1128" stroke-width="3" stroke-linecap="round" stroke-linejoin="round" transform="translate(1,1)">
    <circle cx="24" cy="12" r="5"/>
    <circle cx="22" cy="10" r="1.5"/>
    <path d="M24 17 L24 44"/>
    <path d="M24 24 Q14 28 6 32 M24 24 Q34 28 42 32"/>
    <circle cx="30" cy="30" r="3"/>
    </g>
    <g stroke="url(#g)" stroke-width="1.5" stroke-linecap="round" stroke-linejoin="round">
    <circle cx="24" cy="12" r="5"/>
    <circle cx="22" cy="10" r="1.5"/>
    <path d="M24 17 L24 44"/>
    <path d="M24 24 Q14 28 6 32 M24 24 Q34 28 42 32"/>
    <circle cx="30" cy="30" r="3"/>
    </g>
  </g>
</svg>