<svg xmlns="http://www.w3.org/2000/svg" viewBox="0 0 48 48">
  <defs>
    <linearGradient id="g" x1="0%" y1="0%" x2="100%" y2="100%">
      <stop offset="0%" stop-color="#c3b2c4"/>
      <stop offset="100%" stop-color="#1e151f"/>
    </linearGradient>
    <filter id="shadow" x="-30%" y="-30%" width="160%" height="160%">
      <feDropShadow dx="2.5" dy="3.5" stdDeviation="3" flood-color="#1a1a2e" flood-opacity="0.45"/>
    </filter>
  </defs>
  <g filter="url(#shadow)" fill="none">
    <g stroke="#0f0a0f" stroke-width="4.5" stroke-linecap="round" stroke-linejoin="round" transform="translate(2,2)">
    <rect x="6" y="22" width="24" height="16" rx="3"/>
    <rect x="10" y="14" width="16" height="10" rx="3"/>
    <line x1="30" y1="26" x2="42" y2="18"/>
    <line x1="42" y1="18" x2="44" y2="16 M40 20 L42 18"/>
    <circle cx="38" cy="20" r="1.5" fill="currentColor"/>
    </g>
    <g stroke="#1e151f" stroke-width="3" stroke-linecap="round" stroke-linejoin="round" transform="translate(1,1)">
    <rect x="6" y="22" width="24" height="16" rx="3"/>
    <rect x="10" y="14" width="16" height="10" rx="3"/>
    <line x1="30" y1="26" x2="42" y2="18"/>
    <line x1="42" y1="18" x2="44" y2="16 M40 20 L42 18"/>
    <circle cx="38" cy="20" r="1.5" fill="currentColor"/>
    </g>
    <g stroke="url(#g)" stroke-width="1.5" stroke-linecap="round" stroke-linejoin="round">
    <rect x="6" y="22" width="24" height="16" rx="3"/>
    <rect x="10" y="14" width="16" height="10" rx="3"/>
    <line x1="30" y1="26" x2="42" y2="18"/>
    <line x1="42" y1="18" x2="44" y2="16 M40 20 L42 18"/>
    <circle cx="38" cy="20" r="1.5" fill="currentColor"/>
    </g>
  </g>
</svg>