<svg xmlns="http://www.w3.org/2000/svg" viewBox="0 0 48 48">
  <defs>
    <linearGradient id="g" x1="0%" y1="0%" x2="100%" y2="100%">
      <stop offset="0%" stop-color="#d7b7d5"/>
      <stop offset="100%" stop-color="#5c3459"/>
    </linearGradient>
    <filter id="sh" x="-30%" y="-30%" width="160%" height="160%">
      <feDropShadow dx="2.5" dy="3.5" stdDeviation="3" flood-color="#1a1a2e" flood-opacity="0.45"/>
    </filter>
  </defs>
  <g filter="url(#sh)" fill="none">
    <g stroke="#2a1728" stroke-width="4.5" stroke-linecap="round" stroke-linejoin="round" transform="translate(2,2)">
<path d="M4 30 Q4 18 24 18 Q44 18 44 30 Q44 38 36 38 L28 30 L20 38 Q10 38 4 30 Z"/>
        <circle cx="16" cy="26" r="2.5"/>
        <line x1="38" y1="26" x2="42" y2="22"/>
    </g>
    <g stroke="#5c3459" stroke-width="3" stroke-linecap="round" stroke-linejoin="round" transform="translate(1,1)">
<path d="M4 30 Q4 18 24 18 Q44 18 44 30 Q44 38 36 38 L28 30 L20 38 Q10 38 4 30 Z"/>
        <circle cx="16" cy="26" r="2.5"/>
        <line x1="38" y1="26" x2="42" y2="22"/>
    </g>
    <g stroke="url(#g)" stroke-width="1.5" stroke-linecap="round" stroke-linejoin="round">
<path d="M4 30 Q4 18 24 18 Q44 18 44 30 Q44 38 36 38 L28 30 L20 38 Q10 38 4 30 Z"/>
        <circle cx="16" cy="26" r="2.5"/>
        <line x1="38" y1="26" x2="42" y2="22"/>
    </g>
  </g>
</svg>