<svg xmlns="http://www.w3.org/2000/svg" viewBox="0 0 48 48">
  <defs>
    <linearGradient id="g" x1="0%" y1="0%" x2="100%" y2="100%">
      <stop offset="0%" stop-color="#bccce6"/>
      <stop offset="100%" stop-color="#1b2332"/>
    </linearGradient>
    <filter id="shadow" x="-30%" y="-30%" width="160%" height="160%">
      <feDropShadow dx="2.5" dy="3.5" stdDeviation="3" flood-color="#1a1a2e" flood-opacity="0.45"/>
    </filter>
  </defs>
  <g filter="url(#shadow)" fill="none">
    <g stroke="#0d1119" stroke-width="4.5" stroke-linecap="round" stroke-linejoin="round" transform="translate(2,2)">
    <path d="M4 30 L10 44 L38 44 L44 30 Z"/>
    <rect x="4" y="28" width="40" height="4" rx="2"/>
    <line x1="10" y1="28" x2="16" y2="14"/>
    <line x1="38" y1="28" x2="32" y2="14"/>
    <circle cx="24" cy="14" r="4"/>
    </g>
    <g stroke="#1b2332" stroke-width="3" stroke-linecap="round" stroke-linejoin="round" transform="translate(1,1)">
    <path d="M4 30 L10 44 L38 44 L44 30 Z"/>
    <rect x="4" y="28" width="40" height="4" rx="2"/>
    <line x1="10" y1="28" x2="16" y2="14"/>
    <line x1="38" y1="28" x2="32" y2="14"/>
    <circle cx="24" cy="14" r="4"/>
    </g>
    <g stroke="url(#g)" stroke-width="1.5" stroke-linecap="round" stroke-linejoin="round">
    <path d="M4 30 L10 44 L38 44 L44 30 Z"/>
    <rect x="4" y="28" width="40" height="4" rx="2"/>
    <line x1="10" y1="28" x2="16" y2="14"/>
    <line x1="38" y1="28" x2="32" y2="14"/>
    <circle cx="24" cy="14" r="4"/>
    </g>
  </g>
</svg>