<svg xmlns="http://www.w3.org/2000/svg" viewBox="0 0 48 48">
  <defs>
    <linearGradient id="g" x1="0%" y1="0%" x2="100%" y2="100%">
      <stop offset="0%" stop-color="#b0d5a5"/>
      <stop offset="100%" stop-color="#14280d"/>
    </linearGradient>
    <filter id="shadow" x="-30%" y="-30%" width="160%" height="160%">
      <feDropShadow dx="2.5" dy="3.5" stdDeviation="3" flood-color="#1a1a2e" flood-opacity="0.45"/>
    </filter>
  </defs>
  <g filter="url(#shadow)" fill="none">
    <g stroke="#0a1406" stroke-width="4.5" stroke-linecap="round" stroke-linejoin="round" transform="translate(2,2)">
    <rect x="4" y="6" width="40" height="32" rx="3"/>
    <rect x="8" y="10" width="32" height="24" rx="1"/>
    <rect x="16" y="38" width="16" height="6" rx="2"/>
    <circle cx="16" cy="20" r="2" fill="currentColor"/>
    <line x1="22" y1="18" x2="32" y2="18 M20 22 L28 22"/>
    </g>
    <g stroke="#14280d" stroke-width="3" stroke-linecap="round" stroke-linejoin="round" transform="translate(1,1)">
    <rect x="4" y="6" width="40" height="32" rx="3"/>
    <rect x="8" y="10" width="32" height="24" rx="1"/>
    <rect x="16" y="38" width="16" height="6" rx="2"/>
    <circle cx="16" cy="20" r="2" fill="currentColor"/>
    <line x1="22" y1="18" x2="32" y2="18 M20 22 L28 22"/>
    </g>
    <g stroke="url(#g)" stroke-width="1.5" stroke-linecap="round" stroke-linejoin="round">
    <rect x="4" y="6" width="40" height="32" rx="3"/>
    <rect x="8" y="10" width="32" height="24" rx="1"/>
    <rect x="16" y="38" width="16" height="6" rx="2"/>
    <circle cx="16" cy="20" r="2" fill="currentColor"/>
    <line x1="22" y1="18" x2="32" y2="18 M20 22 L28 22"/>
    </g>
  </g>
</svg>