<svg xmlns="http://www.w3.org/2000/svg" viewBox="0 0 48 48">
  <defs>
    <linearGradient id="g" x1="0%" y1="0%" x2="100%" y2="100%">
      <stop offset="0%" stop-color="#4DB6AC"/>
      <stop offset="100%" stop-color="#004E45"/>
    </linearGradient>
    <filter id="sh" x="-30%" y="-30%" width="160%" height="160%">
      <feDropShadow dx="2.5" dy="3.5" stdDeviation="3" flood-color="#1a1a2e" flood-opacity="0.45"/>
    </filter>
  </defs>
  <g filter="url(#sh)" fill="none">
    <g stroke="#002722" stroke-width="4.5" stroke-linecap="round" stroke-linejoin="round" transform="translate(2,2)">
    <path d="M8 16 Q24 4 40 16"/>
        <path d="M14 22 Q24 12 34 22"/>
        <path d="M20 28 Q24 22 28 28"/>
        <circle cx="24" cy="34" r="2.5"/>
    </g>
    <g stroke="#004E45" stroke-width="3" stroke-linecap="round" stroke-linejoin="round" transform="translate(1,1)">
    <path d="M8 16 Q24 4 40 16"/>
        <path d="M14 22 Q24 12 34 22"/>
        <path d="M20 28 Q24 22 28 28"/>
        <circle cx="24" cy="34" r="2.5"/>
    </g>
    <g stroke="url(#g)" stroke-width="1.5" stroke-linecap="round" stroke-linejoin="round">
    <path d="M8 16 Q24 4 40 16"/>
        <path d="M14 22 Q24 12 34 22"/>
        <path d="M20 28 Q24 22 28 28"/>
        <circle cx="24" cy="34" r="2.5"/>
    </g>
  </g>
</svg>