<svg xmlns="http://www.w3.org/2000/svg" viewBox="0 0 48 48">
  <defs>
    <linearGradient id="g" x1="0%" y1="0%" x2="100%" y2="100%">
      <stop offset="0%" stop-color="#abc0c5"/>
      <stop offset="100%" stop-color="#111c1f"/>
    </linearGradient>
    <filter id="shadow" x="-30%" y="-30%" width="160%" height="160%">
      <feDropShadow dx="2.5" dy="3.5" stdDeviation="3" flood-color="#1a1a2e" flood-opacity="0.45"/>
    </filter>
  </defs>
  <g filter="url(#shadow)" fill="none">
    <g stroke="#080e0f" stroke-width="4.5" stroke-linecap="round" stroke-linejoin="round" transform="translate(2,2)">
    <polygon points="24,4 20,18 28,18"/>
    <rect x="18" y="18" width="12" height="26" rx="2"/>
    <line x1="24" y1="18" x2="8" y2="8 M24 18 L40 8 M24 18 L8 28 M24 18 L40 28"/>
    </g>
    <g stroke="#111c1f" stroke-width="3" stroke-linecap="round" stroke-linejoin="round" transform="translate(1,1)">
    <polygon points="24,4 20,18 28,18"/>
    <rect x="18" y="18" width="12" height="26" rx="2"/>
    <line x1="24" y1="18" x2="8" y2="8 M24 18 L40 8 M24 18 L8 28 M24 18 L40 28"/>
    </g>
    <g stroke="url(#g)" stroke-width="1.5" stroke-linecap="round" stroke-linejoin="round">
    <polygon points="24,4 20,18 28,18"/>
    <rect x="18" y="18" width="12" height="26" rx="2"/>
    <line x1="24" y1="18" x2="8" y2="8 M24 18 L40 8 M24 18 L8 28 M24 18 L40 28"/>
    </g>
  </g>
</svg>