<svg xmlns="http://www.w3.org/2000/svg" viewBox="0 0 48 48">
  <defs>
    <linearGradient id="g" x1="0%" y1="0%" x2="100%" y2="100%">
      <stop offset="0%" stop-color="#adc4bf"/>
      <stop offset="100%" stop-color="#28443e"/>
    </linearGradient>
    <filter id="sh" x="-30%" y="-30%" width="160%" height="160%">
      <feDropShadow dx="2.5" dy="3.5" stdDeviation="3" flood-color="#1a1a2e" flood-opacity="0.45"/>
    </filter>
  </defs>
  <g filter="url(#sh)" fill="none">
    <g stroke="#121f1c" stroke-width="4.5" stroke-linecap="round" stroke-linejoin="round" transform="translate(2,2)">
<rect x="8" y="10" width="32" height="20" rx="4"/>
        <rect x="12" y="6" width="24" height="4" rx="2"/>
        <path d="M8 30 L14 40 L34 40 L40 30 Z"/>
        <circle cx="18" cy="18" r="1.5"/>
        <circle cx="30" cy="18" r="1.5"/>
    </g>
    <g stroke="#28443e" stroke-width="3" stroke-linecap="round" stroke-linejoin="round" transform="translate(1,1)">
<rect x="8" y="10" width="32" height="20" rx="4"/>
        <rect x="12" y="6" width="24" height="4" rx="2"/>
        <path d="M8 30 L14 40 L34 40 L40 30 Z"/>
        <circle cx="18" cy="18" r="1.5"/>
        <circle cx="30" cy="18" r="1.5"/>
    </g>
    <g stroke="url(#g)" stroke-width="1.5" stroke-linecap="round" stroke-linejoin="round">
<rect x="8" y="10" width="32" height="20" rx="4"/>
        <rect x="12" y="6" width="24" height="4" rx="2"/>
        <path d="M8 30 L14 40 L34 40 L40 30 Z"/>
        <circle cx="18" cy="18" r="1.5"/>
        <circle cx="30" cy="18" r="1.5"/>
    </g>
  </g>
</svg>