<svg xmlns="http://www.w3.org/2000/svg" viewBox="0 0 48 48">
  <defs>
    <linearGradient id="g" x1="0%" y1="0%" x2="100%" y2="100%">
      <stop offset="0%" stop-color="#caadcf"/>
      <stop offset="100%" stop-color="#4b2852"/>
    </linearGradient>
    <filter id="sh" x="-30%" y="-30%" width="160%" height="160%">
      <feDropShadow dx="2.5" dy="3.5" stdDeviation="3" flood-color="#1a1a2e" flood-opacity="0.45"/>
    </filter>
  </defs>
  <g filter="url(#sh)" fill="none">
    <g stroke="#221225" stroke-width="4.5" stroke-linecap="round" stroke-linejoin="round" transform="translate(2,2)">
<path d="M24 4 L36 18 L24 32 L12 18 Z"/>
        <line x1="12" y1="38" x2="36" y2="38"/>
        <rect x="8" y="34" width="32" height="6" rx="3"/>
        <rect x="18" y="38" width="12" height="6" rx="2"/>
    </g>
    <g stroke="#4b2852" stroke-width="3" stroke-linecap="round" stroke-linejoin="round" transform="translate(1,1)">
<path d="M24 4 L36 18 L24 32 L12 18 Z"/>
        <line x1="12" y1="38" x2="36" y2="38"/>
        <rect x="8" y="34" width="32" height="6" rx="3"/>
        <rect x="18" y="38" width="12" height="6" rx="2"/>
    </g>
    <g stroke="url(#g)" stroke-width="1.5" stroke-linecap="round" stroke-linejoin="round">
<path d="M24 4 L36 18 L24 32 L12 18 Z"/>
        <line x1="12" y1="38" x2="36" y2="38"/>
        <rect x="8" y="34" width="32" height="6" rx="3"/>
        <rect x="18" y="38" width="12" height="6" rx="2"/>
    </g>
  </g>
</svg>