<svg xmlns="http://www.w3.org/2000/svg" viewBox="0 0 48 48">
  <defs>
    <linearGradient id="g" x1="0%" y1="0%" x2="100%" y2="100%">
      <stop offset="0%" stop-color="#dbc9aa"/>
      <stop offset="100%" stop-color="#2b2111"/>
    </linearGradient>
    <filter id="shadow" x="-30%" y="-30%" width="160%" height="160%">
      <feDropShadow dx="2.5" dy="3.5" stdDeviation="3" flood-color="#1a1a2e" flood-opacity="0.45"/>
    </filter>
  </defs>
  <g filter="url(#shadow)" fill="none">
    <g stroke="#151008" stroke-width="4.5" stroke-linecap="round" stroke-linejoin="round" transform="translate(2,2)">
    <ellipse cx="24" cy="22" rx="10" ry="8"/>
    <ellipse cx="24" cy="14" rx="6" ry="5"/>
    <circle cx="20" cy="12" r="2"/>
    <circle cx="28" cy="12" r="2"/>
    <path d="M14 20 L6 16 M34 20 L42 16"/>
    <path d="M18 28 L14 44 M30 28 L34 44"/>
    </g>
    <g stroke="#2b2111" stroke-width="3" stroke-linecap="round" stroke-linejoin="round" transform="translate(1,1)">
    <ellipse cx="24" cy="22" rx="10" ry="8"/>
    <ellipse cx="24" cy="14" rx="6" ry="5"/>
    <circle cx="20" cy="12" r="2"/>
    <circle cx="28" cy="12" r="2"/>
    <path d="M14 20 L6 16 M34 20 L42 16"/>
    <path d="M18 28 L14 44 M30 28 L34 44"/>
    </g>
    <g stroke="url(#g)" stroke-width="1.5" stroke-linecap="round" stroke-linejoin="round">
    <ellipse cx="24" cy="22" rx="10" ry="8"/>
    <ellipse cx="24" cy="14" rx="6" ry="5"/>
    <circle cx="20" cy="12" r="2"/>
    <circle cx="28" cy="12" r="2"/>
    <path d="M14 20 L6 16 M34 20 L42 16"/>
    <path d="M18 28 L14 44 M30 28 L34 44"/>
    </g>
  </g>
</svg>