<svg xmlns="http://www.w3.org/2000/svg" viewBox="0 0 48 48">
  <defs>
    <linearGradient id="g" x1="0%" y1="0%" x2="100%" y2="100%">
      <stop offset="0%" stop-color="#e4dbbe"/>
      <stop offset="100%" stop-color="#312c1b"/>
    </linearGradient>
    <filter id="shadow" x="-30%" y="-30%" width="160%" height="160%">
      <feDropShadow dx="2.5" dy="3.5" stdDeviation="3" flood-color="#1a1a2e" flood-opacity="0.45"/>
    </filter>
  </defs>
  <g filter="url(#shadow)" fill="none">
    <g stroke="#18160d" stroke-width="4.5" stroke-linecap="round" stroke-linejoin="round" transform="translate(2,2)">
    <rect x="6" y="6" width="36" height="36" rx="2"/>
    <line x1="6" y1="14" x2="42" y2="14 M6 22 L42 22 M6 30 L42 30 M6 38 L42 38"/>
    <line x1="14" y1="6" x2="14" y2="42 M22 6 L22 42 M30 6 L30 42 M38 6 L38 42"/>
    </g>
    <g stroke="#312c1b" stroke-width="3" stroke-linecap="round" stroke-linejoin="round" transform="translate(1,1)">
    <rect x="6" y="6" width="36" height="36" rx="2"/>
    <line x1="6" y1="14" x2="42" y2="14 M6 22 L42 22 M6 30 L42 30 M6 38 L42 38"/>
    <line x1="14" y1="6" x2="14" y2="42 M22 6 L22 42 M30 6 L30 42 M38 6 L38 42"/>
    </g>
    <g stroke="url(#g)" stroke-width="1.5" stroke-linecap="round" stroke-linejoin="round">
    <rect x="6" y="6" width="36" height="36" rx="2"/>
    <line x1="6" y1="14" x2="42" y2="14 M6 22 L42 22 M6 30 L42 30 M6 38 L42 38"/>
    <line x1="14" y1="6" x2="14" y2="42 M22 6 L22 42 M30 6 L30 42 M38 6 L38 42"/>
    </g>
  </g>
</svg>