<svg xmlns="http://www.w3.org/2000/svg" viewBox="0 0 48 48">
  <defs>
    <linearGradient id="g" x1="0%" y1="0%" x2="100%" y2="100%">
      <stop offset="0%" stop-color="#aca6c3"/>
      <stop offset="100%" stop-color="#110e1e"/>
    </linearGradient>
    <filter id="shadow" x="-30%" y="-30%" width="160%" height="160%">
      <feDropShadow dx="2.5" dy="3.5" stdDeviation="3" flood-color="#1a1a2e" flood-opacity="0.45"/>
    </filter>
  </defs>
  <g filter="url(#shadow)" fill="none">
    <g stroke="#08070f" stroke-width="4.5" stroke-linecap="round" stroke-linejoin="round" transform="translate(2,2)">
    <ellipse cx="24" cy="24" rx="16" ry="14"/>
    <ellipse cx="24" cy="24" rx="12" ry="10"/>
    <circle cx="24" cy="24" r="4" fill="currentColor"/>
    <circle cx="12" cy="16" r="2" fill="currentColor"/>
    <circle cx="36" cy="16" r="2" fill="currentColor"/>
    <circle cx="10" cy="28" r="2" fill="currentColor"/>
    <circle cx="38" cy="28" r="2" fill="currentColor"/>
    </g>
    <g stroke="#110e1e" stroke-width="3" stroke-linecap="round" stroke-linejoin="round" transform="translate(1,1)">
    <ellipse cx="24" cy="24" rx="16" ry="14"/>
    <ellipse cx="24" cy="24" rx="12" ry="10"/>
    <circle cx="24" cy="24" r="4" fill="currentColor"/>
    <circle cx="12" cy="16" r="2" fill="currentColor"/>
    <circle cx="36" cy="16" r="2" fill="currentColor"/>
    <circle cx="10" cy="28" r="2" fill="currentColor"/>
    <circle cx="38" cy="28" r="2" fill="currentColor"/>
    </g>
    <g stroke="url(#g)" stroke-width="1.5" stroke-linecap="round" stroke-linejoin="round">
    <ellipse cx="24" cy="24" rx="16" ry="14"/>
    <ellipse cx="24" cy="24" rx="12" ry="10"/>
    <circle cx="24" cy="24" r="4" fill="currentColor"/>
    <circle cx="12" cy="16" r="2" fill="currentColor"/>
    <circle cx="36" cy="16" r="2" fill="currentColor"/>
    <circle cx="10" cy="28" r="2" fill="currentColor"/>
    <circle cx="38" cy="28" r="2" fill="currentColor"/>
    </g>
  </g>
</svg>