<svg xmlns="http://www.w3.org/2000/svg" viewBox="0 0 48 48">
  <defs>
    <linearGradient id="g" x1="0%" y1="0%" x2="100%" y2="100%">
      <stop offset="0%" stop-color="#ceafcd"/>
      <stop offset="100%" stop-color="#502a50"/>
    </linearGradient>
    <filter id="sh" x="-30%" y="-30%" width="160%" height="160%">
      <feDropShadow dx="2.5" dy="3.5" stdDeviation="3" flood-color="#1a1a2e" flood-opacity="0.45"/>
    </filter>
  </defs>
  <g filter="url(#sh)" fill="none">
    <g stroke="#241324" stroke-width="4.5" stroke-linecap="round" stroke-linejoin="round" transform="translate(2,2)">
<path d="M6 30 Q6 14 18 14 L30 14 Q42 14 42 30 Z"/>
        <circle cx="12" cy="32" r="5"/>
        <circle cx="36" cy="32" r="5"/>
        <line x1="18" y1="14" x2="20" y2="8"/>
        <line x1="30" y1="14" x2="28" y2="8"/>
    </g>
    <g stroke="#502a50" stroke-width="3" stroke-linecap="round" stroke-linejoin="round" transform="translate(1,1)">
<path d="M6 30 Q6 14 18 14 L30 14 Q42 14 42 30 Z"/>
        <circle cx="12" cy="32" r="5"/>
        <circle cx="36" cy="32" r="5"/>
        <line x1="18" y1="14" x2="20" y2="8"/>
        <line x1="30" y1="14" x2="28" y2="8"/>
    </g>
    <g stroke="url(#g)" stroke-width="1.5" stroke-linecap="round" stroke-linejoin="round">
<path d="M6 30 Q6 14 18 14 L30 14 Q42 14 42 30 Z"/>
        <circle cx="12" cy="32" r="5"/>
        <circle cx="36" cy="32" r="5"/>
        <line x1="18" y1="14" x2="20" y2="8"/>
        <line x1="30" y1="14" x2="28" y2="8"/>
    </g>
  </g>
</svg>