<svg xmlns="http://www.w3.org/2000/svg" viewBox="0 0 48 48">
  <defs>
    <linearGradient id="g" x1="0%" y1="0%" x2="100%" y2="100%">
      <stop offset="0%" stop-color="#d2d8bb"/>
      <stop offset="100%" stop-color="#272a1a"/>
    </linearGradient>
    <filter id="shadow" x="-30%" y="-30%" width="160%" height="160%">
      <feDropShadow dx="2.5" dy="3.5" stdDeviation="3" flood-color="#1a1a2e" flood-opacity="0.45"/>
    </filter>
  </defs>
  <g filter="url(#shadow)" fill="none">
    <g stroke="#13150d" stroke-width="4.5" stroke-linecap="round" stroke-linejoin="round" transform="translate(2,2)">
    <circle cx="24" cy="8" r="6"/>
    <line x1="24" y1="14" x2="24" y2="32"/>
    <ellipse cx="24" cy="34" rx="10" ry="4"/>
    <line x1="14" y1="34" x2="14" y2="38 M34 34 L34 38"/>
    </g>
    <g stroke="#272a1a" stroke-width="3" stroke-linecap="round" stroke-linejoin="round" transform="translate(1,1)">
    <circle cx="24" cy="8" r="6"/>
    <line x1="24" y1="14" x2="24" y2="32"/>
    <ellipse cx="24" cy="34" rx="10" ry="4"/>
    <line x1="14" y1="34" x2="14" y2="38 M34 34 L34 38"/>
    </g>
    <g stroke="url(#g)" stroke-width="1.5" stroke-linecap="round" stroke-linejoin="round">
    <circle cx="24" cy="8" r="6"/>
    <line x1="24" y1="14" x2="24" y2="32"/>
    <ellipse cx="24" cy="34" rx="10" ry="4"/>
    <line x1="14" y1="34" x2="14" y2="38 M34 34 L34 38"/>
    </g>
  </g>
</svg>