<svg xmlns="http://www.w3.org/2000/svg" viewBox="0 0 48 48">
  <defs>
    <linearGradient id="g" x1="0%" y1="0%" x2="100%" y2="100%">
      <stop offset="0%" stop-color="#e2d4c4"/>
      <stop offset="100%" stop-color="#695844"/>
    </linearGradient>
    <filter id="sh" x="-30%" y="-30%" width="160%" height="160%">
      <feDropShadow dx="2.5" dy="3.5" stdDeviation="3" flood-color="#1a1a2e" flood-opacity="0.45"/>
    </filter>
  </defs>
  <g filter="url(#sh)" fill="none">
    <g stroke="#2f281f" stroke-width="4.5" stroke-linecap="round" stroke-linejoin="round" transform="translate(2,2)">
<ellipse cx="24" cy="30" rx="16" ry="12"/>
        <rect x="8" y="14" width="10" height="6" rx="3"/>
        <rect x="30" y="14" width="10" height="6" rx="3"/>
        <circle cx="17" cy="28" r="2"/>
        <circle cx="31" cy="28" r="2"/>
        <circle cx="24" cy="34" r="2"/>
    </g>
    <g stroke="#695844" stroke-width="3" stroke-linecap="round" stroke-linejoin="round" transform="translate(1,1)">
<ellipse cx="24" cy="30" rx="16" ry="12"/>
        <rect x="8" y="14" width="10" height="6" rx="3"/>
        <rect x="30" y="14" width="10" height="6" rx="3"/>
        <circle cx="17" cy="28" r="2"/>
        <circle cx="31" cy="28" r="2"/>
        <circle cx="24" cy="34" r="2"/>
    </g>
    <g stroke="url(#g)" stroke-width="1.5" stroke-linecap="round" stroke-linejoin="round">
<ellipse cx="24" cy="30" rx="16" ry="12"/>
        <rect x="8" y="14" width="10" height="6" rx="3"/>
        <rect x="30" y="14" width="10" height="6" rx="3"/>
        <circle cx="17" cy="28" r="2"/>
        <circle cx="31" cy="28" r="2"/>
        <circle cx="24" cy="34" r="2"/>
    </g>
  </g>
</svg>