<svg xmlns="http://www.w3.org/2000/svg" viewBox="0 0 48 48">
  <defs>
    <linearGradient id="g" x1="0%" y1="0%" x2="100%" y2="100%">
      <stop offset="0%" stop-color="#ddb4a5"/>
      <stop offset="100%" stop-color="#63301e"/>
    </linearGradient>
    <filter id="sh" x="-30%" y="-30%" width="160%" height="160%">
      <feDropShadow dx="2.5" dy="3.5" stdDeviation="3" flood-color="#1a1a2e" flood-opacity="0.45"/>
    </filter>
  </defs>
  <g filter="url(#sh)" fill="none">
    <g stroke="#2d160e" stroke-width="4.5" stroke-linecap="round" stroke-linejoin="round" transform="translate(2,2)">
<ellipse cx="24" cy="24" rx="12" ry="8"/>
        <rect x="20" y="4" width="8" height="12" rx="3"/>
        <line x1="14" y1="24" x2="14" y2="38"/>
        <line x1="34" y1="24" x2="34" y2="38"/>
    </g>
    <g stroke="#63301e" stroke-width="3" stroke-linecap="round" stroke-linejoin="round" transform="translate(1,1)">
<ellipse cx="24" cy="24" rx="12" ry="8"/>
        <rect x="20" y="4" width="8" height="12" rx="3"/>
        <line x1="14" y1="24" x2="14" y2="38"/>
        <line x1="34" y1="24" x2="34" y2="38"/>
    </g>
    <g stroke="url(#g)" stroke-width="1.5" stroke-linecap="round" stroke-linejoin="round">
<ellipse cx="24" cy="24" rx="12" ry="8"/>
        <rect x="20" y="4" width="8" height="12" rx="3"/>
        <line x1="14" y1="24" x2="14" y2="38"/>
        <line x1="34" y1="24" x2="34" y2="38"/>
    </g>
  </g>
</svg>