<svg xmlns="http://www.w3.org/2000/svg" viewBox="0 0 48 48">
  <g fill="none">
    <g stroke="#0e1b2d" stroke-width="3.5" stroke-linecap="round" stroke-linejoin="round">
    <ellipse cx="24" cy="24" rx="9" ry="7"/>
    <ellipse cx="24" cy="14" rx="7" ry="6"/>
    <circle cx="22" cy="12" r="1.5"/>
    <circle cx="26" cy="12" r="1.5"/>
    <path d="M24 14 L24 8 L28 10 M24 8 L20 10"/>
    <line x1="16" y1="28" x2="10" y2="44"/>
    <line x1="32" y1="28" x2="38" y2="44"/>
    </g>
    <g stroke="#a6bede" stroke-width="1.2" stroke-linecap="round" stroke-linejoin="round">
    <ellipse cx="24" cy="24" rx="9" ry="7"/>
    <ellipse cx="24" cy="14" rx="7" ry="6"/>
    <circle cx="22" cy="12" r="1.5"/>
    <circle cx="26" cy="12" r="1.5"/>
    <path d="M24 14 L24 8 L28 10 M24 8 L20 10"/>
    <line x1="16" y1="28" x2="10" y2="44"/>
    <line x1="32" y1="28" x2="38" y2="44"/>
    </g>
  </g>
</svg>