<svg xmlns="http://www.w3.org/2000/svg" viewBox="0 0 48 48">
  <g fill="none">
    <g stroke="#6a3f37" stroke-width="3.5" stroke-linecap="round" stroke-linejoin="round">
<path d="M16 22 Q16 10 24 10 Q32 10 32 22 Q32 36 24 40 Q16 36 16 22 Z"/>
        <path d="M20 10 Q22 4 24 6 Q26 4 28 10"/>
        <line x1="24" y1="6" x2="24" y2="10"/>
    </g>
    <g stroke="#e3c0b9" stroke-width="1.2" stroke-linecap="round" stroke-linejoin="round">
<path d="M16 22 Q16 10 24 10 Q32 10 32 22 Q32 36 24 40 Q16 36 16 22 Z"/>
        <path d="M20 10 Q22 4 24 6 Q26 4 28 10"/>
        <line x1="24" y1="6" x2="24" y2="10"/>
    </g>
  </g>
</svg>