<svg xmlns="http://www.w3.org/2000/svg" viewBox="0 0 48 48">
  <g fill="none">
    <g stroke="#376387" stroke-width="3.5" stroke-linecap="round" stroke-linejoin="round">
      <circle cx="24" cy="24" r="12"/>
    <circle cx="24" cy="24" r="4"/>
    <line x1="24" y1="11" x2="24" y2="6"/>
    <line x1="33" y1="15" x2="37" y2="11"/>
    <line x1="37" y1="24" x2="42" y2="24"/>
    <line x1="33" y1="33" x2="37" y2="37"/>
    <line x1="24" y1="37" x2="24" y2="42"/>
    <line x1="15" y1="33" x2="11" y2="37"/>
    <line x1="11" y1="24" x2="6" y2="24"/>
    <line x1="15" y1="15" x2="11" y2="11"/>
    </g>
    <g stroke="#90CAF9" stroke-width="1.2" stroke-linecap="round" stroke-linejoin="round">
      <circle cx="24" cy="24" r="12"/>
    <circle cx="24" cy="24" r="4"/>
    <line x1="24" y1="11" x2="24" y2="6"/>
    <line x1="33" y1="15" x2="37" y2="11"/>
    <line x1="37" y1="24" x2="42" y2="24"/>
    <line x1="33" y1="33" x2="37" y2="37"/>
    <line x1="24" y1="37" x2="24" y2="42"/>
    <line x1="15" y1="33" x2="11" y2="37"/>
    <line x1="11" y1="24" x2="6" y2="24"/>
    <line x1="15" y1="15" x2="11" y2="11"/>
    </g>
  </g>
</svg>
