<svg xmlns="http://www.w3.org/2000/svg" viewBox="0 0 48 48">
  <g fill="none">
    <g stroke="#161330" stroke-width="3.5" stroke-linecap="round" stroke-linejoin="round">
    <rect x="8" y="10" width="32" height="28" rx="6"/>
    <rect x="8" y="10" width="32" height="8" rx="3"/>
    <line x1="8" y1="18" x2="8" y2="38 M40 18 L40 38"/>
    <rect x="16" y="24" width="16" height="14" rx="2"/>
    <line x1="16" y1="10" x2="12" y2="4 M32 10 L36 4"/>
    </g>
    <g stroke="#b5afe3" stroke-width="1.2" stroke-linecap="round" stroke-linejoin="round">
    <rect x="8" y="10" width="32" height="28" rx="6"/>
    <rect x="8" y="10" width="32" height="8" rx="3"/>
    <line x1="8" y1="18" x2="8" y2="38 M40 18 L40 38"/>
    <rect x="16" y="24" width="16" height="14" rx="2"/>
    <line x1="16" y1="10" x2="12" y2="4 M32 10 L36 4"/>
    </g>
  </g>
</svg>