<svg xmlns="http://www.w3.org/2000/svg" viewBox="0 0 48 48">
  <g fill="none">
    <g stroke="#1d1512" stroke-width="3.5" stroke-linecap="round" stroke-linejoin="round">
    <polygon points="4,8 44,8 44,24 4,24"/>
    <polygon points="4,8 24,4 44,8"/>
    <line x1="4" y1="8" x2="4" y2="24 M44 8 L44 24"/>
    <line x1="12" y1="14" x2="36" y2="14 M12 20 L36 20"/>
    </g>
    <g stroke="#c1b2ad" stroke-width="1.2" stroke-linecap="round" stroke-linejoin="round">
    <polygon points="4,8 44,8 44,24 4,24"/>
    <polygon points="4,8 24,4 44,8"/>
    <line x1="4" y1="8" x2="4" y2="24 M44 8 L44 24"/>
    <line x1="12" y1="14" x2="36" y2="14 M12 20 L36 20"/>
    </g>
  </g>
</svg>