<svg xmlns="http://www.w3.org/2000/svg" viewBox="0 0 48 48">
  <g fill="none">
    <g stroke="#7A260C" stroke-width="3.5" stroke-linecap="round" stroke-linejoin="round">
    <rect x="10" y="14" width="28" height="30"/>
        <rect x="16" y="6" width="16" height="8" rx="1"/>
        <rect x="14" y="18" width="8" height="10" rx="1"/>
        <rect x="26" y="18" width="8" height="10" rx="1"/>
        <rect x="14" y="32" width="8" height="10" rx="1"/>
        <rect x="26" y="32" width="8" height="10" rx="1"/>
        <line x1="10" y1="14" x2="38" y2="14"/>
    </g>
    <g stroke="#FF8A65" stroke-width="1.2" stroke-linecap="round" stroke-linejoin="round">
    <rect x="10" y="14" width="28" height="30"/>
        <rect x="16" y="6" width="16" height="8" rx="1"/>
        <rect x="14" y="18" width="8" height="10" rx="1"/>
        <rect x="26" y="18" width="8" height="10" rx="1"/>
        <rect x="14" y="32" width="8" height="10" rx="1"/>
        <rect x="26" y="32" width="8" height="10" rx="1"/>
        <line x1="10" y1="14" x2="38" y2="14"/>
    </g>
  </g>
</svg>