<svg xmlns="http://www.w3.org/2000/svg" viewBox="0 0 48 48">
  <g fill="none">
    <g stroke="#2b1c19" stroke-width="3.5" stroke-linecap="round" stroke-linejoin="round">
    <ellipse cx="24" cy="18" rx="6" ry="4"/>
    <circle cx="24" cy="12" r="3"/>
    <circle cx="22" cy="10" r="1.2"/>
    <path d="M18 16 Q12 12 10 16 Q12 20 18 18"/>
    <path d="M24 18 L24 44 M24 22 L18 22 M24 26 L18 26"/>
    </g>
    <g stroke="#dabeb9" stroke-width="1.2" stroke-linecap="round" stroke-linejoin="round">
    <ellipse cx="24" cy="18" rx="6" ry="4"/>
    <circle cx="24" cy="12" r="3"/>
    <circle cx="22" cy="10" r="1.2"/>
    <path d="M18 16 Q12 12 10 16 Q12 20 18 18"/>
    <path d="M24 18 L24 44 M24 22 L18 22 M24 26 L18 26"/>
    </g>
  </g>
</svg>