<svg xmlns="http://www.w3.org/2000/svg" viewBox="0 0 48 48">
  <g fill="none">
    <g stroke="#150a1e" stroke-width="3.5" stroke-linecap="round" stroke-linejoin="round">
    <ellipse cx="24" cy="22" rx="7" ry="5"/>
    <circle cx="24" cy="14" r="4"/>
    <circle cx="22" cy="12" r="1.5"/>
    <polygon points="24,2 22,8 26,8"/>
    <path d="M30 20 Q38 18 42 22 Q38 26 30 24"/>
    <path d="M22 24 L20 44 M26 24 L28 44"/>
    </g>
    <g stroke="#b29ec3" stroke-width="1.2" stroke-linecap="round" stroke-linejoin="round">
    <ellipse cx="24" cy="22" rx="7" ry="5"/>
    <circle cx="24" cy="14" r="4"/>
    <circle cx="22" cy="12" r="1.5"/>
    <polygon points="24,2 22,8 26,8"/>
    <path d="M30 20 Q38 18 42 22 Q38 26 30 24"/>
    <path d="M22 24 L20 44 M26 24 L28 44"/>
    </g>
  </g>
</svg>