<svg xmlns="http://www.w3.org/2000/svg" viewBox="0 0 48 48">
  <g fill="none">
    <g stroke="#122d10" stroke-width="3.5" stroke-linecap="round" stroke-linejoin="round">
    <ellipse cx="24" cy="14" rx="16" ry="8"/>
    <path d="M8 14 L10 38 Q10 42 24 42 Q38 42 38 38 L40 14"/>
    <circle cx="16" cy="22" r="2" fill="currentColor"/>
    <circle cx="24" cy="20" r="2" fill="currentColor"/>
    <circle cx="32" cy="22" r="2" fill="currentColor"/>
    <circle cx="20" cy="28" r="2" fill="currentColor"/>
    <circle cx="28" cy="28" r="2" fill="currentColor"/>
    </g>
    <g stroke="#acdeaa" stroke-width="1.2" stroke-linecap="round" stroke-linejoin="round">
    <ellipse cx="24" cy="14" rx="16" ry="8"/>
    <path d="M8 14 L10 38 Q10 42 24 42 Q38 42 38 38 L40 14"/>
    <circle cx="16" cy="22" r="2" fill="currentColor"/>
    <circle cx="24" cy="20" r="2" fill="currentColor"/>
    <circle cx="32" cy="22" r="2" fill="currentColor"/>
    <circle cx="20" cy="28" r="2" fill="currentColor"/>
    <circle cx="28" cy="28" r="2" fill="currentColor"/>
    </g>
  </g>
</svg>