<svg xmlns="http://www.w3.org/2000/svg" viewBox="0 0 48 48">
  <g fill="none">
    <g stroke="#376387" stroke-width="3.5" stroke-linecap="round" stroke-linejoin="round">
      <path d="M8 12a4 4 0 014-4h24a4 4 0 014 4v14a4 4 0 01-4 4H18l-8 8V12z"/>
    <circle cx="20" cy="19" r="2" fill="#607D8B"/>
    <circle cx="28" cy="19" r="2" fill="#607D8B"/>
    <circle cx="36" cy="19" r="2" fill="#607D8B"/>
    </g>
    <g stroke="#90CAF9" stroke-width="1.2" stroke-linecap="round" stroke-linejoin="round">
      <path d="M8 12a4 4 0 014-4h24a4 4 0 014 4v14a4 4 0 01-4 4H18l-8 8V12z"/>
    <circle cx="20" cy="19" r="2" fill="#607D8B"/>
    <circle cx="28" cy="19" r="2" fill="#607D8B"/>
    <circle cx="36" cy="19" r="2" fill="#607D8B"/>
    </g>
  </g>
</svg>
