<svg xmlns="http://www.w3.org/2000/svg" viewBox="0 0 48 48">
  <g fill="none">
    <g stroke="#10280f" stroke-width="3.5" stroke-linecap="round" stroke-linejoin="round">
    <circle cx="24" cy="24" r="16"/>
    <circle cx="24" cy="24" r="12"/>
    <polygon points="24,8 20,24 24,24 28,24"/>
    <polygon points="24,40 20,24 24,24 28,24"/>
    <polygon points="8,24 24,20 24,24 24,28"/>
    <polygon points="40,24 24,20 24,24 24,28"/>
    <circle cx="24" cy="24" r="2" fill="currentColor"/>
    </g>
    <g stroke="#aad4a7" stroke-width="1.2" stroke-linecap="round" stroke-linejoin="round">
    <circle cx="24" cy="24" r="16"/>
    <circle cx="24" cy="24" r="12"/>
    <polygon points="24,8 20,24 24,24 28,24"/>
    <polygon points="24,40 20,24 24,24 28,24"/>
    <polygon points="8,24 24,20 24,24 24,28"/>
    <polygon points="40,24 24,20 24,24 24,28"/>
    <circle cx="24" cy="24" r="2" fill="currentColor"/>
    </g>
  </g>
</svg>