<svg xmlns="http://www.w3.org/2000/svg" viewBox="0 0 48 48">
  <g fill="none">
    <g stroke="#27471d" stroke-width="3.5" stroke-linecap="round" stroke-linejoin="round">
<circle cx="10" cy="10" r="2"/><circle cx="30" cy="8" r="2"/><circle cx="38" cy="22" r="2"/><circle cx="18" cy="30" r="2"/><circle cx="10" cy="36" r="2"/><circle cx="34" cy="38" r="2"/><line x1="10" y1="10" x2="30" y2="8"/><line x1="30" y1="8" x2="38" y2="22"/><line x1="38" y1="22" x2="18" y2="30"/><line x1="18" y1="30" x2="10" y2="36"/><line x1="18" y1="30" x2="34" y2="38"/>
    </g>
    <g stroke="#acc6a4" stroke-width="1.2" stroke-linecap="round" stroke-linejoin="round">
<circle cx="10" cy="10" r="2"/><circle cx="30" cy="8" r="2"/><circle cx="38" cy="22" r="2"/><circle cx="18" cy="30" r="2"/><circle cx="10" cy="36" r="2"/><circle cx="34" cy="38" r="2"/><line x1="10" y1="10" x2="30" y2="8"/><line x1="30" y1="8" x2="38" y2="22"/><line x1="38" y1="22" x2="18" y2="30"/><line x1="18" y1="30" x2="10" y2="36"/><line x1="18" y1="30" x2="34" y2="38"/>
    </g>
  </g>
</svg>