<svg xmlns="http://www.w3.org/2000/svg" viewBox="0 0 48 48">
  <g fill="none">
    <g stroke="#1e2b2f" stroke-width="3.5" stroke-linecap="round" stroke-linejoin="round">
    <path d="M14 20 Q14 14 24 14 Q34 14 34 20 L34 30 L14 30 Z"/>
    <ellipse cx="24" cy="30" rx="12" ry="4"/>
    <path d="M14 20 Q10 18 10 24 Q10 28 14 30"/>
    <path d="M34 20 Q38 18 38 24 Q38 28 34 30"/>
    </g>
    <g stroke="#c2dae0" stroke-width="1.2" stroke-linecap="round" stroke-linejoin="round">
    <path d="M14 20 Q14 14 24 14 Q34 14 34 20 L34 30 L14 30 Z"/>
    <ellipse cx="24" cy="30" rx="12" ry="4"/>
    <path d="M14 20 Q10 18 10 24 Q10 28 14 30"/>
    <path d="M34 20 Q38 18 38 24 Q38 28 34 30"/>
    </g>
  </g>
</svg>