<svg xmlns="http://www.w3.org/2000/svg" viewBox="0 0 48 48">
  <g fill="none">
    <g stroke="#271731" stroke-width="3.5" stroke-linecap="round" stroke-linejoin="round">
    <ellipse cx="24" cy="18" rx="10" ry="7"/>
    <ellipse cx="24" cy="14" rx="6" ry="4"/>
    <circle cx="22" cy="12" r="1.5"/>
    <circle cx="26" cy="12" r="1.5"/>
    <path d="M14 22 Q8 28 6 32 M20 24 L18 36 M28 24 L30 36 M34 22 Q40 28 42 32"/>
    </g>
    <g stroke="#d2b5e4" stroke-width="1.2" stroke-linecap="round" stroke-linejoin="round">
    <ellipse cx="24" cy="18" rx="10" ry="7"/>
    <ellipse cx="24" cy="14" rx="6" ry="4"/>
    <circle cx="22" cy="12" r="1.5"/>
    <circle cx="26" cy="12" r="1.5"/>
    <path d="M14 22 Q8 28 6 32 M20 24 L18 36 M28 24 L30 36 M34 22 Q40 28 42 32"/>
    </g>
  </g>
</svg>