<svg xmlns="http://www.w3.org/2000/svg" viewBox="0 0 48 48">
  <g fill="none">
    <g stroke="#2b0e13" stroke-width="3.5" stroke-linecap="round" stroke-linejoin="round">
    <path d="M4 20 Q14 16 24 20 Q34 24 44 20 L44 44 L4 44 Z"/>
    <path d="M10 30 Q16 24 22 30"/>
    <path d="M28 34 Q34 28 40 34"/>
    <circle cx="12" cy="16" r="4"/>
    <circle cx="36" cy="14" r="3"/>
    </g>
    <g stroke="#daa5af" stroke-width="1.2" stroke-linecap="round" stroke-linejoin="round">
    <path d="M4 20 Q14 16 24 20 Q34 24 44 20 L44 44 L4 44 Z"/>
    <path d="M10 30 Q16 24 22 30"/>
    <path d="M28 34 Q34 28 40 34"/>
    <circle cx="12" cy="16" r="4"/>
    <circle cx="36" cy="14" r="3"/>
    </g>
  </g>
</svg>