<svg xmlns="http://www.w3.org/2000/svg" viewBox="0 0 48 48">
  <g fill="none">
    <g stroke="#2c612d" stroke-width="3.5" stroke-linecap="round" stroke-linejoin="round">
<path d="M12 24 Q12 6 24 6 Q36 6 36 24 Q36 40 30 42 L24 38 L18 42 Q12 40 12 24 Z"/>
        <path d="M12 24 L6 20 L12 16 M36 24 L42 20 L36 16"/>
        <circle cx="18" cy="20" r="2"/><circle cx="30" cy="20" r="2"/>
        <path d="M22 28 L24 30 L26 28"/>
    </g>
    <g stroke="#b0dcb1" stroke-width="1.2" stroke-linecap="round" stroke-linejoin="round">
<path d="M12 24 Q12 6 24 6 Q36 6 36 24 Q36 40 30 42 L24 38 L18 42 Q12 40 12 24 Z"/>
        <path d="M12 24 L6 20 L12 16 M36 24 L42 20 L36 16"/>
        <circle cx="18" cy="20" r="2"/><circle cx="30" cy="20" r="2"/>
        <path d="M22 28 L24 30 L26 28"/>
    </g>
  </g>
</svg>