<svg xmlns="http://www.w3.org/2000/svg" viewBox="0 0 48 48">
  <g fill="none">
    <g stroke="#2a1623" stroke-width="3.5" stroke-linecap="round" stroke-linejoin="round">
    <circle cx="24" cy="24" r="16"/>
    <path d="M24 24 L38 10 Q44 16 38 22 Q30 28 24 24 Z"/>
    <path d="M24 24 L10 38 Q4 32 10 26 Q18 20 24 24 Z"/>
    <path d="M24 24 L38 38 Q44 32 38 26 Q30 20 24 24 Z"/>
    <path d="M24 24 L10 10 Q4 16 10 22 Q18 28 24 24 Z"/>
    <circle cx="24" cy="24" r="3" fill="currentColor"/>
    </g>
    <g stroke="#d8b3cb" stroke-width="1.2" stroke-linecap="round" stroke-linejoin="round">
    <circle cx="24" cy="24" r="16"/>
    <path d="M24 24 L38 10 Q44 16 38 22 Q30 28 24 24 Z"/>
    <path d="M24 24 L10 38 Q4 32 10 26 Q18 20 24 24 Z"/>
    <path d="M24 24 L38 38 Q44 32 38 26 Q30 20 24 24 Z"/>
    <path d="M24 24 L10 10 Q4 16 10 22 Q18 28 24 24 Z"/>
    <circle cx="24" cy="24" r="3" fill="currentColor"/>
    </g>
  </g>
</svg>