<svg xmlns="http://www.w3.org/2000/svg" viewBox="0 0 48 48">
  <g fill="none">
    <g stroke="#22451f" stroke-width="3.5" stroke-linecap="round" stroke-linejoin="round">
<ellipse cx="24" cy="24" rx="6" ry="12"/><circle cx="24" cy="8" r="5"/><circle cx="22" cy="6" r="1.5"/><path d="M18 24 L12 30 L14 34"/><path d="M30 24 L36 30 L34 34"/><path d="M18 34 L14 40"/><path d="M30 34 L34 40"/>
    </g>
    <g stroke="#a8c5a5" stroke-width="1.2" stroke-linecap="round" stroke-linejoin="round">
<ellipse cx="24" cy="24" rx="6" ry="12"/><circle cx="24" cy="8" r="5"/><circle cx="22" cy="6" r="1.5"/><path d="M18 24 L12 30 L14 34"/><path d="M30 24 L36 30 L34 34"/><path d="M18 34 L14 40"/><path d="M30 34 L34 40"/>
    </g>
  </g>
</svg>