<svg xmlns="http://www.w3.org/2000/svg" viewBox="0 0 48 48">
  <g fill="none">
    <g stroke="#240b20" stroke-width="3.5" stroke-linecap="round" stroke-linejoin="round">
    <path d="M4 10 L4 42 L40 42 Z"/>
    <line x1="4" y1="18" x2="40" y2="42 M4 26 L40 42 M4 34 L40 42 M12 10 L4 42 M20 10 L4 42 M28 10 L4 42 M36 10 L4 42"/>
    </g>
    <g stroke="#cda0c6" stroke-width="1.2" stroke-linecap="round" stroke-linejoin="round">
    <path d="M4 10 L4 42 L40 42 Z"/>
    <line x1="4" y1="18" x2="40" y2="42 M4 26 L40 42 M4 34 L40 42 M12 10 L4 42 M20 10 L4 42 M28 10 L4 42 M36 10 L4 42"/>
    </g>
  </g>
</svg>