<svg xmlns="http://www.w3.org/2000/svg" viewBox="0 0 48 48">
  <g fill="none">
    <g stroke="#1c1323" stroke-width="3.5" stroke-linecap="round" stroke-linejoin="round">
    <path d="M6 24 L42 24 M24 6 L24 42"/>
    <line x1="12" y1="12" x2="36" y2="36 M36 12 L12 36"/>
    <line x1="6" y1="10" x2="10" y2="6 M42 10 L38 6 M6 38 L10 42 M42 38 L38 42"/>
    </g>
    <g stroke="#bfaecb" stroke-width="1.2" stroke-linecap="round" stroke-linejoin="round">
    <path d="M6 24 L42 24 M24 6 L24 42"/>
    <line x1="12" y1="12" x2="36" y2="36 M36 12 L12 36"/>
    <line x1="6" y1="10" x2="10" y2="6 M42 10 L38 6 M6 38 L10 42 M42 38 L38 42"/>
    </g>
  </g>
</svg>