<svg xmlns="http://www.w3.org/2000/svg" viewBox="0 0 48 48">
  <g fill="none">
    <g stroke="#56365a" stroke-width="3.5" stroke-linecap="round" stroke-linejoin="round">
<circle cx="24" cy="24" r="17"/>
        <path d="M24 24 Q16 8 8 16 Q4 24 12 30 Q20 34 24 24"/>
        <path d="M24 24 Q32 40 40 32 Q44 24 36 18 Q28 14 24 24"/>
    </g>
    <g stroke="#d2b8d6" stroke-width="1.2" stroke-linecap="round" stroke-linejoin="round">
<circle cx="24" cy="24" r="17"/>
        <path d="M24 24 Q16 8 8 16 Q4 24 12 30 Q20 34 24 24"/>
        <path d="M24 24 Q32 40 40 32 Q44 24 36 18 Q28 14 24 24"/>
    </g>
  </g>
</svg>