<svg xmlns="http://www.w3.org/2000/svg" viewBox="0 0 48 48">
  <g fill="none">
    <g stroke="#7d3f3f" stroke-width="3.5" stroke-linecap="round" stroke-linejoin="round">
      <rect x="8" y="18" width="22" height="12" rx="5"/>
    <rect x="30" y="14" width="10" height="20" rx="5"/>
    <line x1="15" y1="21" x2="15" y2="27"/>
    <line x1="12" y1="24" x2="18" y2="24"/>
    <circle cx="35" cy="19" r="1.5" fill="#607D8B"/>
    <circle cx="35" cy="29" r="1.5" fill="#607D8B"/>
    <circle cx="32" cy="24" r="1.5" fill="#607D8B"/>
    <circle cx="38" cy="24" r="1.5" fill="#607D8B"/>
    </g>
    <g stroke="#EF9A9A" stroke-width="1.2" stroke-linecap="round" stroke-linejoin="round">
      <rect x="8" y="18" width="22" height="12" rx="5"/>
    <rect x="30" y="14" width="10" height="20" rx="5"/>
    <line x1="15" y1="21" x2="15" y2="27"/>
    <line x1="12" y1="24" x2="18" y2="24"/>
    <circle cx="35" cy="19" r="1.5" fill="#607D8B"/>
    <circle cx="35" cy="29" r="1.5" fill="#607D8B"/>
    <circle cx="32" cy="24" r="1.5" fill="#607D8B"/>
    <circle cx="38" cy="24" r="1.5" fill="#607D8B"/>
    </g>
  </g>
</svg>
