<svg xmlns="http://www.w3.org/2000/svg" viewBox="0 0 48 48">
  <g fill="none">
    <g stroke="#0e161c" stroke-width="3.5" stroke-linecap="round" stroke-linejoin="round">
    <rect x="14" y="16" width="20" height="28" rx="4"/>
    <circle cx="24" cy="10" r="7"/>
    <circle cx="19" cy="8" r="2"/>
    <circle cx="29" cy="8" r="2"/>
    <path d="M14 22 L8 18 M34 22 L40 18"/>
    <path d="M14 34 L6 30 M34 34 L42 30"/>
    </g>
    <g stroke="#a5b4bf" stroke-width="1.2" stroke-linecap="round" stroke-linejoin="round">
    <rect x="14" y="16" width="20" height="28" rx="4"/>
    <circle cx="24" cy="10" r="7"/>
    <circle cx="19" cy="8" r="2"/>
    <circle cx="29" cy="8" r="2"/>
    <path d="M14 22 L8 18 M34 22 L40 18"/>
    <path d="M14 34 L6 30 M34 34 L42 30"/>
    </g>
  </g>
</svg>