<svg xmlns="http://www.w3.org/2000/svg" viewBox="0 0 48 48">
  <g fill="none">
    <g stroke="#32202e" stroke-width="3.5" stroke-linecap="round" stroke-linejoin="round">
    <path d="M24 6 Q10 14 10 28 Q10 36 24 44 Q38 36 38 28 Q38 14 24 6 Z"/>
    <line x1="24" y1="14" x2="24" y2="24 M18 18 L30 18 M18 28 L30 28"/>
    <circle cx="24" cy="20" r="2" fill="currentColor"/>
    </g>
    <g stroke="#e6c5e0" stroke-width="1.2" stroke-linecap="round" stroke-linejoin="round">
    <path d="M24 6 Q10 14 10 28 Q10 36 24 44 Q38 36 38 28 Q38 14 24 6 Z"/>
    <line x1="24" y1="14" x2="24" y2="24 M18 18 L30 18 M18 28 L30 28"/>
    <circle cx="24" cy="20" r="2" fill="currentColor"/>
    </g>
  </g>
</svg>