<svg xmlns="http://www.w3.org/2000/svg" viewBox="0 0 48 48">
  <g fill="none">
    <g stroke="#0e2115" stroke-width="3.5" stroke-linecap="round" stroke-linejoin="round">
    <path d="M30 8 Q22 8 18 18 L14 44 L30 44 L34 20 Q36 12 30 8 Z"/>
    <line x1="18" y1="24" x2="30" y2="24 M16 30 L30 30 M14 36 L30 36"/>
    <circle cx="30" cy="14" r="3"/>
    </g>
    <g stroke="#a6c9b3" stroke-width="1.2" stroke-linecap="round" stroke-linejoin="round">
    <path d="M30 8 Q22 8 18 18 L14 44 L30 44 L34 20 Q36 12 30 8 Z"/>
    <line x1="18" y1="24" x2="30" y2="24 M16 30 L30 30 M14 36 L30 36"/>
    <circle cx="30" cy="14" r="3"/>
    </g>
  </g>
</svg>