<svg xmlns="http://www.w3.org/2000/svg" viewBox="0 0 48 48">
  <g fill="none">
    <g stroke="#1c1c28" stroke-width="3.5" stroke-linecap="round" stroke-linejoin="round">
    <rect x="8" y="16" width="14" height="10" rx="4"/>
    <rect x="26" y="16" width="14" height="10" rx="4"/>
    <line x1="22" y1="20" x2="26" y2="20"/>
    <line x1="14" y1="14" x2="14" y2="16 M34 14 L34 16"/>
    <line x1="14" y1="26" x2="14" y2="28 M34 26 L34 28"/>
    </g>
    <g stroke="#bebfd5" stroke-width="1.2" stroke-linecap="round" stroke-linejoin="round">
    <rect x="8" y="16" width="14" height="10" rx="4"/>
    <rect x="26" y="16" width="14" height="10" rx="4"/>
    <line x1="22" y1="20" x2="26" y2="20"/>
    <line x1="14" y1="14" x2="14" y2="16 M34 14 L34 16"/>
    <line x1="14" y1="26" x2="14" y2="28 M34 26 L34 28"/>
    </g>
  </g>
</svg>