<svg xmlns="http://www.w3.org/2000/svg" viewBox="0 0 48 48">
  <g fill="none">
    <g stroke="#265c38" stroke-width="3.5" stroke-linecap="round" stroke-linejoin="round">
<path d="M8 8 L30 8 L30 14 Q34 14 34 18 Q38 18 38 14 L42 14 L42 40 L8 40 Z"/>
        <path d="M30 8 Q30 4 26 4 Q22 4 22 8"/>
    </g>
    <g stroke="#abd7ba" stroke-width="1.2" stroke-linecap="round" stroke-linejoin="round">
<path d="M8 8 L30 8 L30 14 Q34 14 34 18 Q38 18 38 14 L42 14 L42 40 L8 40 Z"/>
        <path d="M30 8 Q30 4 26 4 Q22 4 22 8"/>
    </g>
  </g>
</svg>