<svg xmlns="http://www.w3.org/2000/svg" viewBox="0 0 48 48">
  <g fill="none">
    <g stroke="#141132" stroke-width="3.5" stroke-linecap="round" stroke-linejoin="round">
    <rect x="4" y="16" width="40" height="16" rx="3"/>
    <rect x="6" y="12" width="8" height="4" rx="1"/>
    <rect x="18" y="12" width="12" height="4" rx="1"/>
    <rect x="34" y="12" width="8" height="4" rx="1"/>
    <rect x="8" y="32" width="6" height="6" rx="1"/>
    <rect x="34" y="32" width="6" height="6" rx="1"/>
    </g>
    <g stroke="#b1ace7" stroke-width="1.2" stroke-linecap="round" stroke-linejoin="round">
    <rect x="4" y="16" width="40" height="16" rx="3"/>
    <rect x="6" y="12" width="8" height="4" rx="1"/>
    <rect x="18" y="12" width="12" height="4" rx="1"/>
    <rect x="34" y="12" width="8" height="4" rx="1"/>
    <rect x="8" y="32" width="6" height="6" rx="1"/>
    <rect x="34" y="32" width="6" height="6" rx="1"/>
    </g>
  </g>
</svg>