<svg xmlns="http://www.w3.org/2000/svg" viewBox="0 0 48 48">
  <g fill="none">
    <g stroke="#4c6122" stroke-width="3.5" stroke-linecap="round" stroke-linejoin="round">
<rect x="10" y="6" width="28" height="32" rx="3"/><line x1="10" y1="12" x2="38" y2="12"/><line x1="10" y1="18" x2="38" y2="18"/><line x1="10" y1="24" x2="38" y2="24"/><circle cx="16" cy="14" r="1"/><circle cx="24" cy="14" r="1"/><circle cx="32" cy="14" r="1"/><circle cx="16" cy="20" r="1.5"/><circle cx="24" cy="20" r="1.5"/><circle cx="32" cy="20" r="1.5"/>
    </g>
    <g stroke="#cadca8" stroke-width="1.2" stroke-linecap="round" stroke-linejoin="round">
<rect x="10" y="6" width="28" height="32" rx="3"/><line x1="10" y1="12" x2="38" y2="12"/><line x1="10" y1="18" x2="38" y2="18"/><line x1="10" y1="24" x2="38" y2="24"/><circle cx="16" cy="14" r="1"/><circle cx="24" cy="14" r="1"/><circle cx="32" cy="14" r="1"/><circle cx="16" cy="20" r="1.5"/><circle cx="24" cy="20" r="1.5"/><circle cx="32" cy="20" r="1.5"/>
    </g>
  </g>
</svg>