<svg xmlns="http://www.w3.org/2000/svg" viewBox="0 0 48 48">
  <g fill="none">
    <g stroke="#42496f" stroke-width="3.5" stroke-linecap="round" stroke-linejoin="round">
      <path d="M10 14a4 4 0 014-4h20a4 4 0 014 4v20a4 4 0 01-4 4H14a4 4 0 01-4-4z"/>
    <path d="M16 18l6 6-6 6"/>
    <path d="M30 20h4"/>
    <path d="M28 24h6"/>
    <path d="M26 28h8"/>
    </g>
    <g stroke="#9FA8DA" stroke-width="1.2" stroke-linecap="round" stroke-linejoin="round">
      <path d="M10 14a4 4 0 014-4h20a4 4 0 014 4v20a4 4 0 01-4 4H14a4 4 0 01-4-4z"/>
    <path d="M16 18l6 6-6 6"/>
    <path d="M30 20h4"/>
    <path d="M28 24h6"/>
    <path d="M26 28h8"/>
    </g>
  </g>
</svg>
