<svg xmlns="http://www.w3.org/2000/svg" viewBox="0 0 48 48">
  <g fill="none">
    <g stroke="#24280d" stroke-width="3.5" stroke-linecap="round" stroke-linejoin="round">
    <ellipse cx="24" cy="20" rx="5" ry="5"/>
    <circle cx="24" cy="12" r="3.5"/>
    <circle cx="22" cy="10" r="1.5"/>
    <path d="M28 14 L36 10 L38 14 L36 18"/>
    <line x1="24" y1="20" x2="24" y2="44"/>
    <line x1="24" y1="24" x2="30" y2="26"/>
    <line x1="24" y1="28" x2="30" y2="30"/>
    </g>
    <g stroke="#cdd5a5" stroke-width="1.2" stroke-linecap="round" stroke-linejoin="round">
    <ellipse cx="24" cy="20" rx="5" ry="5"/>
    <circle cx="24" cy="12" r="3.5"/>
    <circle cx="22" cy="10" r="1.5"/>
    <path d="M28 14 L36 10 L38 14 L36 18"/>
    <line x1="24" y1="20" x2="24" y2="44"/>
    <line x1="24" y1="24" x2="30" y2="26"/>
    <line x1="24" y1="28" x2="30" y2="30"/>
    </g>
  </g>
</svg>