<svg xmlns="http://www.w3.org/2000/svg" viewBox="0 0 48 48">
  <g fill="none">
    <g stroke="#1d132b" stroke-width="3.5" stroke-linecap="round" stroke-linejoin="round">
    <ellipse cx="24" cy="24" rx="12" ry="5"/>
    <polygon points="12,20 6,14 18,20"/>
    <circle cx="24" cy="16" r="4"/>
    <circle cx="22" cy="14" r="1.5"/>
    <path d="M36 22 Q42 18 44 22 Q42 26 36 24"/>
    <line x1="24" y1="24" x2="24" y2="44"/>
    </g>
    <g stroke="#c0aedb" stroke-width="1.2" stroke-linecap="round" stroke-linejoin="round">
    <ellipse cx="24" cy="24" rx="12" ry="5"/>
    <polygon points="12,20 6,14 18,20"/>
    <circle cx="24" cy="16" r="4"/>
    <circle cx="22" cy="14" r="1.5"/>
    <path d="M36 22 Q42 18 44 22 Q42 26 36 24"/>
    <line x1="24" y1="24" x2="24" y2="44"/>
    </g>
  </g>
</svg>