<svg xmlns="http://www.w3.org/2000/svg" viewBox="0 0 48 48">
  <g fill="none">
    <g stroke="#162b1e" stroke-width="3.5" stroke-linecap="round" stroke-linejoin="round">
    <ellipse cx="24" cy="24" rx="14" ry="9"/>
    <circle cx="24" cy="16" r="6"/>
    <circle cx="20" cy="14" r="2"/>
    <circle cx="28" cy="14" r="2"/>
    <circle cx="14" cy="24" r="2.5"/>
    <circle cx="34" cy="24" r="2.5"/>
    <path d="M20 16 Q24 18 28 16"/>
    <path d="M18 28 Q24 32 30 28"/>
    <line x1="24" y1="28" x2="24" y2="42"/>
    </g>
    <g stroke="#b5dac3" stroke-width="1.2" stroke-linecap="round" stroke-linejoin="round">
    <ellipse cx="24" cy="24" rx="14" ry="9"/>
    <circle cx="24" cy="16" r="6"/>
    <circle cx="20" cy="14" r="2"/>
    <circle cx="28" cy="14" r="2"/>
    <circle cx="14" cy="24" r="2.5"/>
    <circle cx="34" cy="24" r="2.5"/>
    <path d="M20 16 Q24 18 28 16"/>
    <path d="M18 28 Q24 32 30 28"/>
    <line x1="24" y1="28" x2="24" y2="42"/>
    </g>
  </g>
</svg>