<svg xmlns="http://www.w3.org/2000/svg" viewBox="0 0 48 48">
  <g fill="none">
    <g stroke="#230e29" stroke-width="3.5" stroke-linecap="round" stroke-linejoin="round">
    <path d="M24 44 L24 20 Q24 8 8 4 Q16 10 18 16 Q24 4 30 16 Q32 10 40 4 Q24 8 24 20"/>
    <path d="M12 12 L8 8 M36 12 L40 8 M20 12 L16 8 M28 12 L32 8"/>
    </g>
    <g stroke="#cba6d6" stroke-width="1.2" stroke-linecap="round" stroke-linejoin="round">
    <path d="M24 44 L24 20 Q24 8 8 4 Q16 10 18 16 Q24 4 30 16 Q32 10 40 4 Q24 8 24 20"/>
    <path d="M12 12 L8 8 M36 12 L40 8 M20 12 L16 8 M28 12 L32 8"/>
    </g>
  </g>
</svg>