<svg xmlns="http://www.w3.org/2000/svg" viewBox="0 0 48 48">
  <g fill="none">
    <g stroke="#1a2e23" stroke-width="3.5" stroke-linecap="round" stroke-linejoin="round">
    <rect x="4" y="32" width="40" height="12" rx="2"/>
    <line x1="4" y1="36" x2="44" y2="36 M4 40 L44 40"/>
    <rect x="10" y="32" width="6" height="4" rx="1"/>
    <rect x="18" y="32" width="6" height="4" rx="1"/>
    <rect x="26" y="32" width="6" height="4" rx="1"/>
    <rect x="34" y="32" width="6" height="4" rx="1"/>
    </g>
    <g stroke="#bcdfcb" stroke-width="1.2" stroke-linecap="round" stroke-linejoin="round">
    <rect x="4" y="32" width="40" height="12" rx="2"/>
    <line x1="4" y1="36" x2="44" y2="36 M4 40 L44 40"/>
    <rect x="10" y="32" width="6" height="4" rx="1"/>
    <rect x="18" y="32" width="6" height="4" rx="1"/>
    <rect x="26" y="32" width="6" height="4" rx="1"/>
    <rect x="34" y="32" width="6" height="4" rx="1"/>
    </g>
  </g>
</svg>