<svg xmlns="http://www.w3.org/2000/svg" viewBox="0 0 48 48">
  <g fill="none">
    <g stroke="#0c2417" stroke-width="3.5" stroke-linecap="round" stroke-linejoin="round">
    <rect x="4" y="6" width="40" height="36" rx="2"/>
    <path d="M4 12 L44 12 M4 18 L44 18 M4 24 L44 24 M4 30 L44 30 M4 36 L44 36"/>
    <circle cx="14" cy="16" r="2" fill="currentColor"/>
    <path d="M14 16 Q18 14 24 16 Q28 18 34 16" stroke-dasharray="2 2"/>
    </g>
    <g stroke="#a1ceb7" stroke-width="1.2" stroke-linecap="round" stroke-linejoin="round">
    <rect x="4" y="6" width="40" height="36" rx="2"/>
    <path d="M4 12 L44 12 M4 18 L44 18 M4 24 L44 24 M4 30 L44 30 M4 36 L44 36"/>
    <circle cx="14" cy="16" r="2" fill="currentColor"/>
    <path d="M14 16 Q18 14 24 16 Q28 18 34 16" stroke-dasharray="2 2"/>
    </g>
  </g>
</svg>