<svg xmlns="http://www.w3.org/2000/svg" viewBox="0 0 48 48">
  <g fill="none">
    <g stroke="#6D1616" stroke-width="3.5" stroke-linecap="round" stroke-linejoin="round">
        <path d="M12 20 C12 6 36 6 36 20 L36 24 L12 24 Z"/>
        <line x1="8" y1="24" x2="40" y2="24"/>
        <path d="M18 12 L18 18 L24 12 L24 18 L30 12 L30 18"/>
        <path d="M12 24 C12 38 36 38 36 24"/>
        <path d="M14 30 Q20 38 24 30 Q28 38 34 30"/>
        <circle cx="18" cy="27" r="2" fill="#607D8B"/>
        <circle cx="30" cy="27" r="2" fill="#607D8B"/>
    </g>
    <g stroke="#FFCDD2" stroke-width="1.2" stroke-linecap="round" stroke-linejoin="round">
        <path d="M12 20 C12 6 36 6 36 20 L36 24 L12 24 Z"/>
        <line x1="8" y1="24" x2="40" y2="24"/>
        <path d="M18 12 L18 18 L24 12 L24 18 L30 12 L30 18"/>
        <path d="M12 24 C12 38 36 38 36 24"/>
        <path d="M14 30 Q20 38 24 30 Q28 38 34 30"/>
        <circle cx="18" cy="27" r="2" fill="#607D8B"/>
        <circle cx="30" cy="27" r="2" fill="#607D8B"/>
    </g>
  </g>
</svg>