<svg xmlns="http://www.w3.org/2000/svg" viewBox="0 0 48 48">
  <g fill="none">
    <g stroke="#2b3347" stroke-width="3.5" stroke-linecap="round" stroke-linejoin="round">
<circle cx="18" cy="24" r="12"/>
        <circle cx="30" cy="24" r="12"/>
        <circle cx="18" cy="24" r="5"/>
        <circle cx="30" cy="24" r="5"/>
        <path d="M12 18 Q24 4 36 18"/>
        <circle cx="18" cy="18" r="2"/>
        <circle cx="30" cy="18" r="2"/>
        <path d="M18 32 Q24 36 30 32"/>
    </g>
    <g stroke="#afb6c6" stroke-width="1.2" stroke-linecap="round" stroke-linejoin="round">
<circle cx="18" cy="24" r="12"/>
        <circle cx="30" cy="24" r="12"/>
        <circle cx="18" cy="24" r="5"/>
        <circle cx="30" cy="24" r="5"/>
        <path d="M12 18 Q24 4 36 18"/>
        <circle cx="18" cy="18" r="2"/>
        <circle cx="30" cy="18" r="2"/>
        <path d="M18 32 Q24 36 30 32"/>
    </g>
  </g>
</svg>