<svg xmlns="http://www.w3.org/2000/svg" viewBox="0 0 48 48">
  <g fill="none">
    <g stroke="#1a2629" stroke-width="3.5" stroke-linecap="round" stroke-linejoin="round">
    <ellipse cx="24" cy="18" rx="10" ry="8"/>
    <circle cx="24" cy="16" r="5"/>
    <circle cx="20" cy="14" r="1.5"/>
    <circle cx="28" cy="14" r="1.5"/>
    <path d="M14 22 Q10 30 6 28 M16 24 Q14 34 10 36 M24 24 L24 38 M32 24 Q34 34 38 36 M34 22 Q38 30 42 28"/>
    <path d="M14 22 Q10 18 14 20 M34 22 Q38 18 34 20"/>
    </g>
    <g stroke="#bcd1d6" stroke-width="1.2" stroke-linecap="round" stroke-linejoin="round">
    <ellipse cx="24" cy="18" rx="10" ry="8"/>
    <circle cx="24" cy="16" r="5"/>
    <circle cx="20" cy="14" r="1.5"/>
    <circle cx="28" cy="14" r="1.5"/>
    <path d="M14 22 Q10 30 6 28 M16 24 Q14 34 10 36 M24 24 L24 38 M32 24 Q34 34 38 36 M34 22 Q38 30 42 28"/>
    <path d="M14 22 Q10 18 14 20 M34 22 Q38 18 34 20"/>
    </g>
  </g>
</svg>