<svg xmlns="http://www.w3.org/2000/svg" viewBox="0 0 48 48">
  <g fill="none">
    <g stroke="#193129" stroke-width="3.5" stroke-linecap="round" stroke-linejoin="round">
    <ellipse cx="24" cy="22" rx="13" ry="11"/>
    <circle cx="24" cy="12" r="8"/>
    <circle cx="18" cy="10" r="2.5"/>
    <circle cx="30" cy="10" r="2.5"/>
    <path d="M18 14 L12 8 M30 14 L36 8"/>
    <path d="M20 18 Q24 22 28 18"/>
    <line x1="24" y1="22" x2="24" y2="44"/>
    </g>
    <g stroke="#bae4d7" stroke-width="1.2" stroke-linecap="round" stroke-linejoin="round">
    <ellipse cx="24" cy="22" rx="13" ry="11"/>
    <circle cx="24" cy="12" r="8"/>
    <circle cx="18" cy="10" r="2.5"/>
    <circle cx="30" cy="10" r="2.5"/>
    <path d="M18 14 L12 8 M30 14 L36 8"/>
    <path d="M20 18 Q24 22 28 18"/>
    <line x1="24" y1="22" x2="24" y2="44"/>
    </g>
  </g>
</svg>