<svg xmlns="http://www.w3.org/2000/svg" viewBox="0 0 48 48">
  <g fill="none">
    <g stroke="#0a1323" stroke-width="3.5" stroke-linecap="round" stroke-linejoin="round">
    <path d="M12 18 L12 36 Q12 42 24 42 Q36 42 36 36 L36 18 Z"/>
    <path d="M12 18 Q24 12 36 18"/>
    <path d="M22 18 L22 14 L26 14 L26 18"/>
    <ellipse cx="24" cy="30" rx="4" ry="2"/>
    </g>
    <g stroke="#9faecb" stroke-width="1.2" stroke-linecap="round" stroke-linejoin="round">
    <path d="M12 18 L12 36 Q12 42 24 42 Q36 42 36 36 L36 18 Z"/>
    <path d="M12 18 Q24 12 36 18"/>
    <path d="M22 18 L22 14 L26 14 L26 18"/>
    <ellipse cx="24" cy="30" rx="4" ry="2"/>
    </g>
  </g>
</svg>