<svg xmlns="http://www.w3.org/2000/svg" viewBox="0 0 48 48">
  <g fill="none">
    <g stroke="#0d2c21" stroke-width="3.5" stroke-linecap="round" stroke-linejoin="round">
    <path d="M8 24 Q8 8 24 8 Q40 8 40 24 Q40 40 24 40 Q16 40 14 34 Q12 28 20 26 Q28 24 30 30 Q32 36 24 38"/>
    <circle cx="14" cy="34" r="2"/>
    <ellipse cx="30" cy="30" rx="2" ry="1"/>
    </g>
    <g stroke="#a4dcc9" stroke-width="1.2" stroke-linecap="round" stroke-linejoin="round">
    <path d="M8 24 Q8 8 24 8 Q40 8 40 24 Q40 40 24 40 Q16 40 14 34 Q12 28 20 26 Q28 24 30 30 Q32 36 24 38"/>
    <circle cx="14" cy="34" r="2"/>
    <ellipse cx="30" cy="30" rx="2" ry="1"/>
    </g>
  </g>
</svg>