<svg xmlns="http://www.w3.org/2000/svg" viewBox="0 0 48 48">
  <g fill="none">
    <g stroke="#52301c" stroke-width="3.5" stroke-linecap="round" stroke-linejoin="round">
<path d="M8 36 Q8 8 24 8 Q40 8 40 24 Q40 36 28 36"/><circle cx="20" cy="22" r="3"/><circle cx="28" cy="22" r="3"/><circle cx="20" cy="22" r="1.5"/><circle cx="28" cy="22" r="1.5"/><path d="M28 36 L24 40 L28 44"/>
    </g>
    <g stroke="#cfb3a3" stroke-width="1.2" stroke-linecap="round" stroke-linejoin="round">
<path d="M8 36 Q8 8 24 8 Q40 8 40 24 Q40 36 28 36"/><circle cx="20" cy="22" r="3"/><circle cx="28" cy="22" r="3"/><circle cx="20" cy="22" r="1.5"/><circle cx="28" cy="22" r="1.5"/><path d="M28 36 L24 40 L28 44"/>
    </g>
  </g>
</svg>