<svg xmlns="http://www.w3.org/2000/svg" viewBox="0 0 48 48">
  <g fill="none">
    <g stroke="#190b24" stroke-width="3.5" stroke-linecap="round" stroke-linejoin="round">
    <ellipse cx="24" cy="28" rx="8" ry="10"/>
    <path d="M24 18 Q24 10 20 6 Q24 10 28 6 Q24 10 24 18"/>
    <line x1="24" y1="18" x2="24" y2="8"/>
    <path d="M16 28 L10 24 M32 28 L38 24"/>
    </g>
    <g stroke="#baa0cd" stroke-width="1.2" stroke-linecap="round" stroke-linejoin="round">
    <ellipse cx="24" cy="28" rx="8" ry="10"/>
    <path d="M24 18 Q24 10 20 6 Q24 10 28 6 Q24 10 24 18"/>
    <line x1="24" y1="18" x2="24" y2="8"/>
    <path d="M16 28 L10 24 M32 28 L38 24"/>
    </g>
  </g>
</svg>