<svg xmlns="http://www.w3.org/2000/svg" viewBox="0 0 48 48">
  <g fill="none">
    <g stroke="#806640" stroke-width="3.5" stroke-linecap="round" stroke-linejoin="round">
      <path d="M24 4 L34 18 L34 32 Q34 38 24 38 Q14 38 14 32 L14 18 Z"/>
      <circle cx="24" cy="18" r="4"/>
      <path d="M14 28 L8 38 L14 34"/>
      <path d="M34 28 L40 38 L34 34"/>
      <path d="M20 38 Q24 46 28 38"/>
    </g>
    <g stroke="#FFE0B2" stroke-width="1.2" stroke-linecap="round" stroke-linejoin="round">
      <path d="M24 4 L34 18 L34 32 Q34 38 24 38 Q14 38 14 32 L14 18 Z"/>
      <circle cx="24" cy="18" r="4"/>
      <path d="M14 28 L8 38 L14 34"/>
      <path d="M34 28 L40 38 L34 34"/>
      <path d="M20 38 Q24 46 28 38"/>
    </g>
  </g>
</svg>