<svg xmlns="http://www.w3.org/2000/svg" viewBox="0 0 48 48">
  <g fill="none">
    <g stroke="#1d1315" stroke-width="3.5" stroke-linecap="round" stroke-linejoin="round">
    <ellipse cx="24" cy="22" rx="8" ry="4"/>
    <circle cx="24" cy="14" r="4"/>
    <circle cx="22" cy="12" r="1.5"/>
    <path d="M14 20 L6 14 M34 20 L42 14"/>
    <path d="M14 20 L6 26 M34 20 L42 26"/>
    <path d="M24 22 L24 44"/>
    </g>
    <g stroke="#c0aeb2" stroke-width="1.2" stroke-linecap="round" stroke-linejoin="round">
    <ellipse cx="24" cy="22" rx="8" ry="4"/>
    <circle cx="24" cy="14" r="4"/>
    <circle cx="22" cy="12" r="1.5"/>
    <path d="M14 20 L6 14 M34 20 L42 14"/>
    <path d="M14 20 L6 26 M34 20 L42 26"/>
    <path d="M24 22 L24 44"/>
    </g>
  </g>
</svg>