<svg xmlns="http://www.w3.org/2000/svg" viewBox="0 0 48 48">
  <g fill="none">
    <g stroke="#3C484F" stroke-width="3.5" stroke-linecap="round" stroke-linejoin="round">
      <rect x="20" y="16" width="8" height="22" rx="2"/>
      <rect x="8" y="20" width="12" height="14" rx="1"/>
      <rect x="28" y="20" width="12" height="14" rx="1"/>
      <line x1="14" y1="20" x2="14" y2="34"/>
      <line x1="34" y1="20" x2="34" y2="34"/>
      <line x1="24" y1="16" x2="24" y2="6"/>
      <circle cx="24" cy="6" r="2"/>
    </g>
    <g stroke="#B0BEC5" stroke-width="1.2" stroke-linecap="round" stroke-linejoin="round">
      <rect x="20" y="16" width="8" height="22" rx="2"/>
      <rect x="8" y="20" width="12" height="14" rx="1"/>
      <rect x="28" y="20" width="12" height="14" rx="1"/>
      <line x1="14" y1="20" x2="14" y2="34"/>
      <line x1="34" y1="20" x2="34" y2="34"/>
      <line x1="24" y1="16" x2="24" y2="6"/>
      <circle cx="24" cy="6" r="2"/>
    </g>
  </g>
</svg>