<svg xmlns="http://www.w3.org/2000/svg" viewBox="0 0 48 48">
  <g fill="none">
    <g stroke="#004E45" stroke-width="3.5" stroke-linecap="round" stroke-linejoin="round">
    <path d="M6 6 L6 14"/>
        <path d="M6 6 L14 6"/>
        <path d="M42 6 L34 6"/>
        <path d="M42 6 L42 14"/>
        <path d="M6 42 L6 34"/>
        <path d="M6 42 L14 42"/>
        <path d="M42 42 L34 42"/>
        <path d="M42 42 L42 34"/>
    </g>
    <g stroke="#4DB6AC" stroke-width="1.2" stroke-linecap="round" stroke-linejoin="round">
    <path d="M6 6 L6 14"/>
        <path d="M6 6 L14 6"/>
        <path d="M42 6 L34 6"/>
        <path d="M42 6 L42 14"/>
        <path d="M6 42 L6 34"/>
        <path d="M6 42 L14 42"/>
        <path d="M42 42 L34 42"/>
        <path d="M42 42 L42 34"/>
    </g>
  </g>
</svg>