<svg xmlns="http://www.w3.org/2000/svg" viewBox="0 0 48 48">
  <g fill="none">
    <g stroke="#2f6038" stroke-width="3.5" stroke-linecap="round" stroke-linejoin="round">
<line x1="10" y1="26" x2="38" y2="26"/>
        <line x1="10" y1="26" x2="10" y2="36"/>
        <line x1="38" y1="26" x2="38" y2="36"/>
        <line x1="10" y1="36" x2="38" y2="36"/>
        <line x1="24" y1="10" x2="24" y2="20"/>
        <line x1="18" y1="10" x2="30" y2="10"/>
        <circle cx="16" cy="38" r="3"/>
        <circle cx="32" cy="38" r="3"/>
    </g>
    <g stroke="#b2dbba" stroke-width="1.2" stroke-linecap="round" stroke-linejoin="round">
<line x1="10" y1="26" x2="38" y2="26"/>
        <line x1="10" y1="26" x2="10" y2="36"/>
        <line x1="38" y1="26" x2="38" y2="36"/>
        <line x1="10" y1="36" x2="38" y2="36"/>
        <line x1="24" y1="10" x2="24" y2="20"/>
        <line x1="18" y1="10" x2="30" y2="10"/>
        <circle cx="16" cy="38" r="3"/>
        <circle cx="32" cy="38" r="3"/>
    </g>
  </g>
</svg>