<svg xmlns="http://www.w3.org/2000/svg" viewBox="0 0 48 48">
  <g fill="none">
    <g stroke="#15202d" stroke-width="3.5" stroke-linecap="round" stroke-linejoin="round">
    <path d="M36 6 Q10 12 10 28 Q10 32 14 32 Q18 32 18 28 Q18 16 36 6 Z"/>
    <line x1="10" y1="32" x2="10" y2="44"/>
    <line x1="10" y1="38" x2="6" y2="44 M10 38 L14 44"/>
    </g>
    <g stroke="#b2c7de" stroke-width="1.2" stroke-linecap="round" stroke-linejoin="round">
    <path d="M36 6 Q10 12 10 28 Q10 32 14 32 Q18 32 18 28 Q18 16 36 6 Z"/>
    <line x1="10" y1="32" x2="10" y2="44"/>
    <line x1="10" y1="38" x2="6" y2="44 M10 38 L14 44"/>
    </g>
  </g>
</svg>