<svg xmlns="http://www.w3.org/2000/svg" viewBox="0 0 48 48">
  <g fill="none">
    <g stroke="#27130c" stroke-width="3.5" stroke-linecap="round" stroke-linejoin="round">
    <ellipse cx="24" cy="26" rx="13" ry="9"/>
    <circle cx="24" cy="16" r="6"/>
    <circle cx="19" cy="14" r="2"/>
    <circle cx="29" cy="14" r="2"/>
    <path d="M26 18 Q34 12 36 18 Q34 22 28 20"/>
    <path d="M22 24 L22 34 M26 24 L26 34"/>
    <path d="M14 32 Q10 36 6 42 M34 32 Q38 36 42 42"/>
    </g>
    <g stroke="#d3aea2" stroke-width="1.2" stroke-linecap="round" stroke-linejoin="round">
    <ellipse cx="24" cy="26" rx="13" ry="9"/>
    <circle cx="24" cy="16" r="6"/>
    <circle cx="19" cy="14" r="2"/>
    <circle cx="29" cy="14" r="2"/>
    <path d="M26 18 Q34 12 36 18 Q34 22 28 20"/>
    <path d="M22 24 L22 34 M26 24 L26 34"/>
    <path d="M14 32 Q10 36 6 42 M34 32 Q38 36 42 42"/>
    </g>
  </g>
</svg>