<svg xmlns="http://www.w3.org/2000/svg" viewBox="0 0 48 48">
  <g fill="none">
    <g stroke="#1b210c" stroke-width="3.5" stroke-linecap="round" stroke-linejoin="round">
    <rect x="6" y="14" width="36" height="12" rx="4"/>
    <rect x="10" y="18" width="28" height="8" rx="3"/>
    <line x1="6" y1="26" x2="6" y2="44 M42 26 L42 44"/>
    <line x1="6" y1="38" x2="42" y2="38"/>
    <line x1="14" y1="38" x2="14" y2="44 M22 38 L22 44 M30 38 L30 44 M38 38 L38 44"/>
    </g>
    <g stroke="#bdc7a2" stroke-width="1.2" stroke-linecap="round" stroke-linejoin="round">
    <rect x="6" y="14" width="36" height="12" rx="4"/>
    <rect x="10" y="18" width="28" height="8" rx="3"/>
    <line x1="6" y1="26" x2="6" y2="44 M42 26 L42 44"/>
    <line x1="6" y1="38" x2="42" y2="38"/>
    <line x1="14" y1="38" x2="14" y2="44 M22 38 L22 44 M30 38 L30 44 M38 38 L38 44"/>
    </g>
  </g>
</svg>