<svg xmlns="http://www.w3.org/2000/svg" viewBox="0 0 48 48">
  <g fill="none">
    <g stroke="#2f281f" stroke-width="3.5" stroke-linecap="round" stroke-linejoin="round">
    <ellipse cx="24" cy="26" rx="10" ry="12"/>
    <circle cx="19" cy="22" r="2.5"/>
    <circle cx="29" cy="22" r="2.5"/>
    <path d="M16 14 Q12 10 10 6 M32 14 Q36 10 38 6"/>
    <path d="M18 34 Q14 38 12 42 M30 34 Q34 38 36 42"/>
    </g>
    <g stroke="#e2d4c4" stroke-width="1.2" stroke-linecap="round" stroke-linejoin="round">
    <ellipse cx="24" cy="26" rx="10" ry="12"/>
    <circle cx="19" cy="22" r="2.5"/>
    <circle cx="29" cy="22" r="2.5"/>
    <path d="M16 14 Q12 10 10 6 M32 14 Q36 10 38 6"/>
    <path d="M18 34 Q14 38 12 42 M30 34 Q34 38 36 42"/>
    </g>
  </g>
</svg>