<svg xmlns="http://www.w3.org/2000/svg" viewBox="0 0 48 48">
  <g fill="none">
    <g stroke="#7e2c00" stroke-width="3.5" stroke-linecap="round" stroke-linejoin="round">
<circle cx="24" cy="24" r="8"/>
        <line x1="24" y1="24" x2="24" y2="4"/>
        <line x1="24" y1="24" x2="24" y2="44"/>
        <line x1="24" y1="24" x2="4" y2="24"/>
        <line x1="24" y1="24" x2="44" y2="24"/>
        <line x1="24" y1="24" x2="10" y2="10"/>
        <line x1="24" y1="24" x2="38" y2="10"/>
        <line x1="24" y1="24" x2="10" y2="38"/>
        <line x1="24" y1="24" x2="38" y2="38"/>
    </g>
    <g stroke="#f3b08c" stroke-width="1.2" stroke-linecap="round" stroke-linejoin="round">
<circle cx="24" cy="24" r="8"/>
        <line x1="24" y1="24" x2="24" y2="4"/>
        <line x1="24" y1="24" x2="24" y2="44"/>
        <line x1="24" y1="24" x2="4" y2="24"/>
        <line x1="24" y1="24" x2="44" y2="24"/>
        <line x1="24" y1="24" x2="10" y2="10"/>
        <line x1="24" y1="24" x2="38" y2="10"/>
        <line x1="24" y1="24" x2="10" y2="38"/>
        <line x1="24" y1="24" x2="38" y2="38"/>
    </g>
  </g>
</svg>