<svg xmlns="http://www.w3.org/2000/svg" viewBox="0 0 48 48">
  <g fill="none">
    <g stroke="#131728" stroke-width="3.5" stroke-linecap="round" stroke-linejoin="round">
    <path d="M6 8 L6 40 Q6 42 12 42 L24 42 L24 8 Z"/>
    <path d="M42 8 L42 40 Q42 42 36 42 L24 42 L24 8 Z"/>
    <line x1="24" y1="8" x2="24" y2="42"/>
    <circle cx="14" cy="18" r="2" fill="currentColor"/>
    <circle cx="14" cy="24" r="2" fill="currentColor"/>
    <circle cx="34" cy="18" r="2" fill="currentColor"/>
    <circle cx="34" cy="24" r="2" fill="currentColor"/>
    </g>
    <g stroke="#aeb6d4" stroke-width="1.2" stroke-linecap="round" stroke-linejoin="round">
    <path d="M6 8 L6 40 Q6 42 12 42 L24 42 L24 8 Z"/>
    <path d="M42 8 L42 40 Q42 42 36 42 L24 42 L24 8 Z"/>
    <line x1="24" y1="8" x2="24" y2="42"/>
    <circle cx="14" cy="18" r="2" fill="currentColor"/>
    <circle cx="14" cy="24" r="2" fill="currentColor"/>
    <circle cx="34" cy="18" r="2" fill="currentColor"/>
    <circle cx="34" cy="24" r="2" fill="currentColor"/>
    </g>
  </g>
</svg>