<svg xmlns="http://www.w3.org/2000/svg" viewBox="0 0 48 48">
  <g fill="none">
    <g stroke="#2f592a" stroke-width="3.5" stroke-linecap="round" stroke-linejoin="round">
<ellipse cx="24" cy="26" rx="7" ry="9"/>
        <circle cx="24" cy="16" r="5"/>
        <line x1="10" y1="18" x2="4" y2="10"/>
        <line x1="16" y1="14" x2="12" y2="6"/>
        <line x1="32" y1="14" x2="36" y2="6"/>
        <line x1="38" y1="18" x2="44" y2="10"/>
        <line x1="10" y1="26" x2="4" y2="28"/>
        <line x1="38" y1="26" x2="44" y2="28"/>
        <line x1="12" y1="32" x2="6" y2="40"/>
        <line x1="36" y1="32" x2="42" y2="40"/>
    </g>
    <g stroke="#b2d5af" stroke-width="1.2" stroke-linecap="round" stroke-linejoin="round">
<ellipse cx="24" cy="26" rx="7" ry="9"/>
        <circle cx="24" cy="16" r="5"/>
        <line x1="10" y1="18" x2="4" y2="10"/>
        <line x1="16" y1="14" x2="12" y2="6"/>
        <line x1="32" y1="14" x2="36" y2="6"/>
        <line x1="38" y1="18" x2="44" y2="10"/>
        <line x1="10" y1="26" x2="4" y2="28"/>
        <line x1="38" y1="26" x2="44" y2="28"/>
        <line x1="12" y1="32" x2="6" y2="40"/>
        <line x1="36" y1="32" x2="42" y2="40"/>
    </g>
  </g>
</svg>