<svg xmlns="http://www.w3.org/2000/svg" viewBox="0 0 48 48">
  <g fill="none">
    <g stroke="#1b0f26" stroke-width="3.5" stroke-linecap="round" stroke-linejoin="round">
    <rect x="16" y="22" width="16" height="14" rx="2"/>
    <line x1="24" y1="36" x2="24" y2="44"/>
    <line x1="12" y1="20" x2="16" y2="20 M36 20 L32 20"/>
    <path d="M6 14 L12 18 M42 14 L36 18"/>
    <line x1="6" y1="14" x2="6" y2="8 M42 14 L42 8"/>
    </g>
    <g stroke="#bda8d2" stroke-width="1.2" stroke-linecap="round" stroke-linejoin="round">
    <rect x="16" y="22" width="16" height="14" rx="2"/>
    <line x1="24" y1="36" x2="24" y2="44"/>
    <line x1="12" y1="20" x2="16" y2="20 M36 20 L32 20"/>
    <path d="M6 14 L12 18 M42 14 L36 18"/>
    <line x1="6" y1="14" x2="6" y2="8 M42 14 L42 8"/>
    </g>
  </g>
</svg>