<svg xmlns="http://www.w3.org/2000/svg" viewBox="0 0 48 48">
  <g fill="none">
    <g stroke="#406337" stroke-width="3.5" stroke-linecap="round" stroke-linejoin="round">
<ellipse cx="24" cy="20" rx="10" ry="12"/><path d="M14 28 Q10 38 6 36"/><path d="M18 30 Q16 40 14 40"/><path d="M24 32 L24 42"/><path d="M30 30 Q32 40 34 40"/><path d="M34 28 Q38 38 42 36"/><circle cx="20" cy="18" r="2"/><circle cx="28" cy="18" r="2"/>
    </g>
    <g stroke="#c0ddb9" stroke-width="1.2" stroke-linecap="round" stroke-linejoin="round">
<ellipse cx="24" cy="20" rx="10" ry="12"/><path d="M14 28 Q10 38 6 36"/><path d="M18 30 Q16 40 14 40"/><path d="M24 32 L24 42"/><path d="M30 30 Q32 40 34 40"/><path d="M34 28 Q38 38 42 36"/><circle cx="20" cy="18" r="2"/><circle cx="28" cy="18" r="2"/>
    </g>
  </g>
</svg>