<svg xmlns="http://www.w3.org/2000/svg" viewBox="0 0 48 48">
  <g fill="none">
    <g stroke="#221b17" stroke-width="3.5" stroke-linecap="round" stroke-linejoin="round">
    <circle cx="24" cy="24" r="8"/>
    <line x1="24" y1="4" x2="24" y2="10 M24 38 L24 44 M4 24 L10 24 M38 24 L44 24"/>
    <line x1="8" y1="8" x2="12" y2="12 M36 8 L32 12 M8 40 L12 36 M36 40 L32 36"/>
    </g>
    <g stroke="#c9bcb7" stroke-width="1.2" stroke-linecap="round" stroke-linejoin="round">
    <circle cx="24" cy="24" r="8"/>
    <line x1="24" y1="4" x2="24" y2="10 M24 38 L24 44 M4 24 L10 24 M38 24 L44 24"/>
    <line x1="8" y1="8" x2="12" y2="12 M36 8 L32 12 M8 40 L12 36 M36 40 L32 36"/>
    </g>
  </g>
</svg>