<svg xmlns="http://www.w3.org/2000/svg" viewBox="0 0 48 48">
  <g fill="none">
    <g stroke="#090a1d" stroke-width="3.5" stroke-linecap="round" stroke-linejoin="round">
    <polygon points="24,4 28,16 40,12 34,24 46,28 34,32 40,44 28,36 24,48 20,36 8,44 14,32 2,28 14,24 8,12 20,16"/>
    <circle cx="24" cy="26" r="4" fill="currentColor"/>
    </g>
    <g stroke="#9c9fc0" stroke-width="1.2" stroke-linecap="round" stroke-linejoin="round">
    <polygon points="24,4 28,16 40,12 34,24 46,28 34,32 40,44 28,36 24,48 20,36 8,44 14,32 2,28 14,24 8,12 20,16"/>
    <circle cx="24" cy="26" r="4" fill="currentColor"/>
    </g>
  </g>
</svg>