<svg xmlns="http://www.w3.org/2000/svg" viewBox="0 0 48 48">
  <g fill="none">
    <g stroke="#100a23" stroke-width="3.5" stroke-linecap="round" stroke-linejoin="round">
    <path d="M4 30 Q8 14 14 20 Q20 26 24 14 Q28 26 34 20 Q40 14 44 30 L44 38 L4 38 Z"/>
    <circle cx="10" cy="20" r="2" fill="currentColor"/>
    <circle cx="24" cy="16" r="2" fill="currentColor"/>
    <circle cx="38" cy="20" r="2" fill="currentColor"/>
    </g>
    <g stroke="#a99fcb" stroke-width="1.2" stroke-linecap="round" stroke-linejoin="round">
    <path d="M4 30 Q8 14 14 20 Q20 26 24 14 Q28 26 34 20 Q40 14 44 30 L44 38 L4 38 Z"/>
    <circle cx="10" cy="20" r="2" fill="currentColor"/>
    <circle cx="24" cy="16" r="2" fill="currentColor"/>
    <circle cx="38" cy="20" r="2" fill="currentColor"/>
    </g>
  </g>
</svg>