<svg xmlns="http://www.w3.org/2000/svg" viewBox="0 0 48 48">
  <g fill="none">
    <g stroke="#0a1f13" stroke-width="3.5" stroke-linecap="round" stroke-linejoin="round">
    <path d="M4 10 Q12 6 16 14 Q20 22 28 18 Q36 14 44 22"/>
    <path d="M8 18 Q16 14 20 22 Q24 30 32 26 Q40 22 44 30"/>
    <circle cx="8" cy="10" r="2" fill="currentColor"/>
    <circle cx="28" cy="18" r="2" fill="currentColor"/>
    <circle cx="44" cy="22" r="2" fill="currentColor"/>
    </g>
    <g stroke="#9fc4af" stroke-width="1.2" stroke-linecap="round" stroke-linejoin="round">
    <path d="M4 10 Q12 6 16 14 Q20 22 28 18 Q36 14 44 22"/>
    <path d="M8 18 Q16 14 20 22 Q24 30 32 26 Q40 22 44 30"/>
    <circle cx="8" cy="10" r="2" fill="currentColor"/>
    <circle cx="28" cy="18" r="2" fill="currentColor"/>
    <circle cx="44" cy="22" r="2" fill="currentColor"/>
    </g>
  </g>
</svg>