<svg xmlns="http://www.w3.org/2000/svg" viewBox="0 0 48 48">
  <g fill="none">
    <g stroke="#2d4832" stroke-width="3.5" stroke-linecap="round" stroke-linejoin="round">
<path d="M14 10 L24 26 L34 10"/><circle cx="24" cy="26" r="3"/><line x1="14" y1="10" x2="10" y2="4"/><line x1="34" y1="10" x2="38" y2="4"/><line x1="10" y1="4" x2="12" y2="0"/><line x1="38" y1="4" x2="36" y2="0"/><line x1="10" y1="4" x2="8" y2="0"/><line x1="38" y1="4" x2="40" y2="0"/>
    </g>
    <g stroke="#b1c7b5" stroke-width="1.2" stroke-linecap="round" stroke-linejoin="round">
<path d="M14 10 L24 26 L34 10"/><circle cx="24" cy="26" r="3"/><line x1="14" y1="10" x2="10" y2="4"/><line x1="34" y1="10" x2="38" y2="4"/><line x1="10" y1="4" x2="12" y2="0"/><line x1="38" y1="4" x2="36" y2="0"/><line x1="10" y1="4" x2="8" y2="0"/><line x1="38" y1="4" x2="40" y2="0"/>
    </g>
  </g>
</svg>