<svg xmlns="http://www.w3.org/2000/svg" viewBox="0 0 48 48">
  <g fill="none">
    <g stroke="#171f0f" stroke-width="3.5" stroke-linecap="round" stroke-linejoin="round">
    <rect x="4" y="16" width="40" height="20" rx="6"/>
    <rect x="10" y="10" width="28" height="6" rx="3"/>
    <rect x="8" y="20" width="10" height="10" rx="2"/>
    <rect x="20" y="20" width="10" height="10" rx="2"/>
    <rect x="32" y="20" width="8" height="10" rx="2"/>
    <circle cx="14" cy="36" r="4"/>
    <circle cx="34" cy="36" r="4"/>
    </g>
    <g stroke="#b5c4a7" stroke-width="1.2" stroke-linecap="round" stroke-linejoin="round">
    <rect x="4" y="16" width="40" height="20" rx="6"/>
    <rect x="10" y="10" width="28" height="6" rx="3"/>
    <rect x="8" y="20" width="10" height="10" rx="2"/>
    <rect x="20" y="20" width="10" height="10" rx="2"/>
    <rect x="32" y="20" width="8" height="10" rx="2"/>
    <circle cx="14" cy="36" r="4"/>
    <circle cx="34" cy="36" r="4"/>
    </g>
  </g>
</svg>