<svg xmlns="http://www.w3.org/2000/svg" viewBox="0 0 48 48">
  <g fill="none">
    <g stroke="#2e1d1e" stroke-width="3.5" stroke-linecap="round" stroke-linejoin="round">
    <rect x="10" y="16" width="20" height="22" rx="3"/>
    <path d="M30 18 L38 12 L40 16 L32 22"/>
    <line x1="10" y1="22" x2="30" y2="22 M10 28 L30 28 M10 34 L30 34"/>
    <line x1="10" y1="16" x2="4" y2="8"/>
    <ellipse cx="4" cy="8" rx="3" ry="2"/>
    </g>
    <g stroke="#dfc0c3" stroke-width="1.2" stroke-linecap="round" stroke-linejoin="round">
    <rect x="10" y="16" width="20" height="22" rx="3"/>
    <path d="M30 18 L38 12 L40 16 L32 22"/>
    <line x1="10" y1="22" x2="30" y2="22 M10 28 L30 28 M10 34 L30 34"/>
    <line x1="10" y1="16" x2="4" y2="8"/>
    <ellipse cx="4" cy="8" rx="3" ry="2"/>
    </g>
  </g>
</svg>