<svg xmlns="http://www.w3.org/2000/svg" viewBox="0 0 48 48">
  <g fill="none">
    <g stroke="#211111" stroke-width="3.5" stroke-linecap="round" stroke-linejoin="round">
    <rect x="6" y="8" width="4" height="28" rx="1"/>
    <rect x="12" y="12" width="4" height="24" rx="1"/>
    <rect x="18" y="16" width="4" height="20" rx="1"/>
    <rect x="24" y="20" width="4" height="16" rx="1"/>
    <rect x="30" y="24" width="4" height="12" rx="1"/>
    <rect x="36" y="28" width="4" height="8" rx="1"/>
    </g>
    <g stroke="#c7acaa" stroke-width="1.2" stroke-linecap="round" stroke-linejoin="round">
    <rect x="6" y="8" width="4" height="28" rx="1"/>
    <rect x="12" y="12" width="4" height="24" rx="1"/>
    <rect x="18" y="16" width="4" height="20" rx="1"/>
    <rect x="24" y="20" width="4" height="16" rx="1"/>
    <rect x="30" y="24" width="4" height="12" rx="1"/>
    <rect x="36" y="28" width="4" height="8" rx="1"/>
    </g>
  </g>
</svg>