<svg xmlns="http://www.w3.org/2000/svg" viewBox="0 0 48 48">
  <defs>
    <linearGradient id="iconGrad" x1="0%" y1="0%" x2="100%" y2="100%">
      <stop offset="0%" stop-color="#DCEDC8"/>
      <stop offset="100%" stop-color="#637352"/>
    </linearGradient>
    <filter id="shadow" x="-20%" y="-20%" width="140%" height="140%">
      <feDropShadow dx="1.5" dy="2.5" stdDeviation="2" flood-color="#263238" flood-opacity="0.25"/>
    </filter>
  </defs>
  <g filter="url(#shadow)" fill="none" stroke="url(#iconGrad)" stroke-width="2.4" stroke-linecap="round" stroke-linejoin="round">
    <path d="M12 6 C36 10, 36 14, 12 18 C4 22, 4 26, 12 30 C36 34, 36 38, 12 42"/>
    <path d="M36 6 C12 10, 12 14, 36 18 C44 22, 44 26, 36 30 C12 34, 12 38, 36 42"/>
    <line x1="16" y1="15" x2="32" y2="15"/>
    <line x1="16" y1="27" x2="32" y2="27"/>
    <line x1="16" y1="39" x2="32" y2="39"/>
  </g>
</svg>