<svg xmlns="http://www.w3.org/2000/svg" viewBox="0 0 48 48">
  <defs>
    <linearGradient id="g" x1="0%" y1="0%" x2="100%" y2="100%">
      <stop offset="0%" stop-color="#C8E6C9"/>
      <stop offset="100%" stop-color="#1E4E21"/>
    </linearGradient>
    <filter id="sh" x="-20%" y="-20%" width="140%" height="140%">
      <feDropShadow dx="1.5" dy="2.5" stdDeviation="2" flood-color="#263238" flood-opacity="0.25"/>
    </filter>
  </defs>
  <g filter="url(#sh)" fill="none" stroke="url(#g)" stroke-width="2.4" stroke-linecap="round" stroke-linejoin="round">
    <rect x="16" y="7" width="4" height="4" rx="1"/>
    <rect x="22" y="7" width="4" height="4" rx="1"/>
    <rect x="28" y="7" width="4" height="4" rx="1"/>
    <rect x="10" y="13" width="4" height="4" rx="1"/>
    <rect x="16" y="13" width="4" height="4" rx="1"/>
    <rect x="22" y="13" width="4" height="4" rx="1"/>
    <rect x="28" y="13" width="4" height="4" rx="1"/>
    <rect x="34" y="13" width="4" height="4" rx="1"/>
    <rect x="10" y="19" width="4" height="4" rx="1"/>
    <rect x="16" y="19" width="4" height="4" rx="1"/>
    <rect x="28" y="19" width="4" height="4" rx="1"/>
    <rect x="34" y="19" width="4" height="4" rx="1"/>
    <rect x="10" y="25" width="4" height="4" rx="1"/>
    <rect x="16" y="25" width="4" height="4" rx="1"/>
    <rect x="22" y="25" width="4" height="4" rx="1"/>
    <rect x="28" y="25" width="4" height="4" rx="1"/>
    <rect x="34" y="25" width="4" height="4" rx="1"/>
    <rect x="10" y="31" width="4" height="4" rx="1"/>
    <rect x="16" y="31" width="4" height="4" rx="1"/>
    <rect x="28" y="31" width="4" height="4" rx="1"/>
    <rect x="34" y="31" width="4" height="4" rx="1"/>
    <rect x="10" y="37" width="4" height="4" rx="1"/>
    <rect x="34" y="37" width="4" height="4" rx="1"/>
  </g>
</svg>