<svg xmlns="http://www.w3.org/2000/svg" viewBox="0 0 48 48">
  <defs>
    <linearGradient id="g" x1="0%" y1="0%" x2="100%" y2="100%">
      <stop offset="0%" stop-color="#d6a6d3"/>
      <stop offset="100%" stop-color="#290e27"/>
    </linearGradient>
    <filter id="sh" x="-20%" y="-20%" width="140%" height="140%">
      <feDropShadow dx="1.5" dy="2.5" stdDeviation="2" flood-color="#263238" flood-opacity="0.25"/>
    </filter>
  </defs>
  <g filter="url(#sh)" fill="none" stroke="url(#g)" stroke-width="2.4" stroke-linecap="round" stroke-linejoin="round">
    <circle cx="24" cy="24" r="16"/>
    <circle cx="18" cy="18" r="3" fill="currentColor"/>
    <circle cx="30" cy="18" r="3" fill="currentColor"/>
    <path d="M16 30 Q24 36 32 30"/>
    <polygon points="10,8 11,11 14,11 12,13 13,16 10,14 7,16 8,13 6,11 9,11"/>
    <polygon points="38,8 39,11 42,11 40,13 41,16 38,14 35,16 36,13 34,11 37,11"/>
  </g>
</svg>