<svg xmlns="http://www.w3.org/2000/svg" viewBox="0 0 48 48">
  <defs>
    <pattern id="px" width="4" height="4" patternUnits="userSpaceOnUse">
      <rect width="4" height="4" fill="none"/>
      <rect width="2" height="2" fill="rgba(0,0,0,0.2)"/>
    </pattern>
    <mask id="m">
      <rect x="0" y="0" width="48" height="48" fill="black"/>
      <g fill="none" stroke="white" stroke-width="6" stroke-linecap="square" stroke-linejoin="miter" shape-rendering="crispEdges">
    <rect x="8" y="10" width="32" height="28" rx="3"/>
    <rect x="14" y="10" width="4" height="28"/>
    <rect x="20" y="10" width="8" height="28"/>
    <rect x="30" y="10" width="4" height="28"/>
    <line x1="8" y1="18" x2="40" y2="18 M8 26 L40 26 M8 34 L40 34"/>
      </g>
    </mask>
  </defs>
  <g fill="none" stroke="#acc0b2" stroke-width="6" stroke-linecap="square" stroke-linejoin="miter" shape-rendering="crispEdges">
    <rect x="8" y="10" width="32" height="28" rx="3"/>
    <rect x="14" y="10" width="4" height="28"/>
    <rect x="20" y="10" width="8" height="28"/>
    <rect x="30" y="10" width="4" height="28"/>
    <line x1="8" y1="18" x2="40" y2="18 M8 26 L40 26 M8 34 L40 34"/>
  </g>
  <rect x="0" y="0" width="48" height="48" fill="url(#px)" mask="url(#m)" pointer-events="none"/>
</svg>