<svg xmlns="http://www.w3.org/2000/svg" viewBox="0 0 48 48">
  <defs>
    <pattern id="px" width="4" height="4" patternUnits="userSpaceOnUse">
      <rect width="4" height="4" fill="none"/>
      <rect width="2" height="2" fill="rgba(0,0,0,0.2)"/>
    </pattern>
    <mask id="m">
      <rect x="0" y="0" width="48" height="48" fill="black"/>
      <g fill="none" stroke="white" stroke-width="6" stroke-linecap="square" stroke-linejoin="miter" shape-rendering="crispEdges">
<path d="M6 34 Q6 10 20 10 Q34 10 42 34"/><line x1="6" y1="34" x2="42" y2="34"/><circle cx="24" cy="22" r="2"/><circle cx="30" cy="22" r="2"/><path d="M6 30 L2 26"/><path d="M42 28 L46 24"/><line x1="6" y1="20" x2="42" y2="20"/>
      </g>
    </mask>
  </defs>
  <g fill="none" stroke="#42bebf" stroke-width="6" stroke-linecap="square" stroke-linejoin="miter" shape-rendering="crispEdges">
<path d="M6 34 Q6 10 20 10 Q34 10 42 34"/><line x1="6" y1="34" x2="42" y2="34"/><circle cx="24" cy="22" r="2"/><circle cx="30" cy="22" r="2"/><path d="M6 30 L2 26"/><path d="M42 28 L46 24"/><line x1="6" y1="20" x2="42" y2="20"/>
  </g>
  <rect x="0" y="0" width="48" height="48" fill="url(#px)" mask="url(#m)" pointer-events="none"/>
</svg>