<svg xmlns="http://www.w3.org/2000/svg" viewBox="0 0 48 48">
  <defs>
    <pattern id="px" width="4" height="4" patternUnits="userSpaceOnUse">
      <rect width="4" height="4" fill="none"/>
      <rect width="2" height="2" fill="rgba(0,0,0,0.2)"/>
    </pattern>
    <mask id="m">
      <rect x="0" y="0" width="48" height="48" fill="black"/>
      <g fill="none" stroke="white" stroke-width="6" stroke-linecap="square" stroke-linejoin="miter" shape-rendering="crispEdges">
    <circle cx="24" cy="24" r="12"/>
    <circle cx="24" cy="24" r="4"/>
    <line x1="24" y1="11" x2="24" y2="6"/>
    <line x1="33" y1="15" x2="37" y2="11"/>
    <line x1="37" y1="24" x2="42" y2="24"/>
    <line x1="33" y1="33" x2="37" y2="37"/>
    <line x1="24" y1="37" x2="24" y2="42"/>
    <line x1="15" y1="33" x2="11" y2="37"/>
    <line x1="11" y1="24" x2="6" y2="24"/>
    <line x1="15" y1="15" x2="11" y2="11"/>
      </g>
    </mask>
  </defs>
  <g fill="none" stroke="#64B5F6" stroke-width="6" stroke-linecap="square" stroke-linejoin="miter" shape-rendering="crispEdges">
    <circle cx="24" cy="24" r="12"/>
    <circle cx="24" cy="24" r="4"/>
    <line x1="24" y1="11" x2="24" y2="6"/>
    <line x1="33" y1="15" x2="37" y2="11"/>
    <line x1="37" y1="24" x2="42" y2="24"/>
    <line x1="33" y1="33" x2="37" y2="37"/>
    <line x1="24" y1="37" x2="24" y2="42"/>
    <line x1="15" y1="33" x2="11" y2="37"/>
    <line x1="11" y1="24" x2="6" y2="24"/>
    <line x1="15" y1="15" x2="11" y2="11"/>
  </g>
  <rect x="0" y="0" width="48" height="48" fill="url(#px)" mask="url(#m)" pointer-events="none"/>
</svg>