<svg xmlns="http://www.w3.org/2000/svg" viewBox="0 0 48 48">
  <defs>
    <pattern id="px" width="4" height="4" patternUnits="userSpaceOnUse">
      <rect width="4" height="4" fill="none"/>
      <rect width="2" height="2" fill="rgba(0,0,0,0.2)"/>
    </pattern>
    <mask id="m">
      <rect x="0" y="0" width="48" height="48" fill="black"/>
      <g fill="none" stroke="white" stroke-width="6" stroke-linecap="square" stroke-linejoin="miter" shape-rendering="crispEdges">
<path d="M16 22 Q16 10 24 10 Q32 10 32 22 Q32 36 24 40 Q16 36 16 22 Z"/>
    <path d="M20 10 Q22 4 24 6 Q26 4 28 10"/>
    <line x1="24" y1="6" x2="24" y2="10"/>
      </g>
    </mask>
  </defs>
  <g fill="none" stroke="#c17364" stroke-width="6" stroke-linecap="square" stroke-linejoin="miter" shape-rendering="crispEdges">
<path d="M16 22 Q16 10 24 10 Q32 10 32 22 Q32 36 24 40 Q16 36 16 22 Z"/>
    <path d="M20 10 Q22 4 24 6 Q26 4 28 10"/>
    <line x1="24" y1="6" x2="24" y2="10"/>
  </g>
  <rect x="0" y="0" width="48" height="48" fill="url(#px)" mask="url(#m)" pointer-events="none"/>
</svg>