<svg xmlns="http://www.w3.org/2000/svg" viewBox="0 0 48 48">
  <defs>
    <pattern id="px" width="4" height="4" patternUnits="userSpaceOnUse">
      <rect width="4" height="4" fill="none"/>
      <rect width="2" height="2" fill="rgba(0,0,0,0.2)"/>
    </pattern>
    <mask id="m">
      <rect x="0" y="0" width="48" height="48" fill="black"/>
      <g fill="none" stroke="white" stroke-width="6" stroke-linecap="square" stroke-linejoin="miter" shape-rendering="crispEdges">
    <ellipse cx="24" cy="24" rx="13" ry="8"/>
    <path d="M14 20 Q24 12 34 20"/>
    <path d="M11 24 L11 32 M17 24 L17 34 M24 24 L24 34 M31 24 L31 34 M37 24 L37 32"/>
    <path d="M11 28 Q17 34 24 34 Q31 34 37 28"/>
    <circle cx="12" cy="24" r="2"/>
      </g>
    </mask>
  </defs>
  <g fill="none" stroke="#a9c7a8" stroke-width="6" stroke-linecap="square" stroke-linejoin="miter" shape-rendering="crispEdges">
    <ellipse cx="24" cy="24" rx="13" ry="8"/>
    <path d="M14 20 Q24 12 34 20"/>
    <path d="M11 24 L11 32 M17 24 L17 34 M24 24 L24 34 M31 24 L31 34 M37 24 L37 32"/>
    <path d="M11 28 Q17 34 24 34 Q31 34 37 28"/>
    <circle cx="12" cy="24" r="2"/>
  </g>
  <rect x="0" y="0" width="48" height="48" fill="url(#px)" mask="url(#m)" pointer-events="none"/>
</svg>