<svg xmlns="http://www.w3.org/2000/svg" viewBox="0 0 48 48">
  <defs>
    <pattern id="px" width="4" height="4" patternUnits="userSpaceOnUse">
      <rect width="4" height="4" fill="none"/>
      <rect width="2" height="2" fill="rgba(0,0,0,0.2)"/>
    </pattern>
    <mask id="m">
      <rect x="0" y="0" width="48" height="48" fill="black"/>
      <g fill="none" stroke="white" stroke-width="6" stroke-linecap="square" stroke-linejoin="miter" shape-rendering="crispEdges">
    <ellipse cx="24" cy="28" rx="10" ry="8"/>
    <ellipse cx="24" cy="16" rx="8" ry="6"/>
    <polygon points="24,2 20,10 28,10"/>
    <path d="M14 12 L6 8 M34 12 L42 8 M18 8 L12 4 M30 8 L36 4"/>
    <path d="M16 20 L14 16 M32 20 L34 16"/>
      </g>
    </mask>
  </defs>
  <g fill="none" stroke="#c1adb4" stroke-width="6" stroke-linecap="square" stroke-linejoin="miter" shape-rendering="crispEdges">
    <ellipse cx="24" cy="28" rx="10" ry="8"/>
    <ellipse cx="24" cy="16" rx="8" ry="6"/>
    <polygon points="24,2 20,10 28,10"/>
    <path d="M14 12 L6 8 M34 12 L42 8 M18 8 L12 4 M30 8 L36 4"/>
    <path d="M16 20 L14 16 M32 20 L34 16"/>
  </g>
  <rect x="0" y="0" width="48" height="48" fill="url(#px)" mask="url(#m)" pointer-events="none"/>
</svg>