<svg xmlns="http://www.w3.org/2000/svg" viewBox="0 0 48 48">
  <defs>
    <pattern id="px" width="4" height="4" patternUnits="userSpaceOnUse">
      <rect width="4" height="4" fill="none"/>
      <rect width="2" height="2" fill="rgba(0,0,0,0.2)"/>
    </pattern>
    <mask id="m">
      <rect x="0" y="0" width="48" height="48" fill="black"/>
      <g fill="none" stroke="white" stroke-width="6" stroke-linecap="square" stroke-linejoin="miter" shape-rendering="crispEdges">
    <rect x="6" y="12" width="36" height="32" rx="4"/>
    <rect x="10" y="16" width="28" height="10" rx="2"/>
    <line x1="14" y1="30" x2="34" y2="30 M14" y1="34" x2="30" y2="34 M14" y1="38" x2="26" y2="38"/>
    <rect x="14" y="8" width="20" height="6" rx="2"/>
      </g>
    </mask>
  </defs>
  <g fill="none" stroke="#b3e6c5" stroke-width="6" stroke-linecap="square" stroke-linejoin="miter" shape-rendering="crispEdges">
    <rect x="6" y="12" width="36" height="32" rx="4"/>
    <rect x="10" y="16" width="28" height="10" rx="2"/>
    <line x1="14" y1="30" x2="34" y2="30 M14" y1="34" x2="30" y2="34 M14" y1="38" x2="26" y2="38"/>
    <rect x="14" y="8" width="20" height="6" rx="2"/>
  </g>
  <rect x="0" y="0" width="48" height="48" fill="url(#px)" mask="url(#m)" pointer-events="none"/>
</svg>