<svg xmlns="http://www.w3.org/2000/svg" viewBox="0 0 48 48">
  <defs>
    <pattern id="px" width="4" height="4" patternUnits="userSpaceOnUse">
      <rect width="4" height="4" fill="none"/>
      <rect width="2" height="2" fill="rgba(0,0,0,0.2)"/>
    </pattern>
    <mask id="m">
      <rect x="0" y="0" width="48" height="48" fill="black"/>
      <g fill="none" stroke="white" stroke-width="6" stroke-linecap="square" stroke-linejoin="miter" shape-rendering="crispEdges">
    <rect x="10" y="16" width="10" height="16" rx="2"/>
    <polygon points="20,18 30,24 20,30"/>
    <path d="M33 18a10 10 0 010 12"/>
    <path d="M38 14a16 16 0 010 20"/>
      </g>
    </mask>
  </defs>
  <g fill="none" stroke="#9575CD" stroke-width="6" stroke-linecap="square" stroke-linejoin="miter" shape-rendering="crispEdges">
    <rect x="10" y="16" width="10" height="16" rx="2"/>
    <polygon points="20,18 30,24 20,30"/>
    <path d="M33 18a10 10 0 010 12"/>
    <path d="M38 14a16 16 0 010 20"/>
  </g>
  <rect x="0" y="0" width="48" height="48" fill="url(#px)" mask="url(#m)" pointer-events="none"/>
</svg>