<svg xmlns="http://www.w3.org/2000/svg" viewBox="0 0 48 48">
  <defs>
    <pattern id="px" width="4" height="4" patternUnits="userSpaceOnUse">
      <rect width="4" height="4" fill="none"/>
      <rect width="2" height="2" fill="rgba(0,0,0,0.2)"/>
    </pattern>
    <mask id="m">
      <rect x="0" y="0" width="48" height="48" fill="black"/>
      <g fill="none" stroke="white" stroke-width="6" stroke-linecap="square" stroke-linejoin="miter" shape-rendering="crispEdges">
    <ellipse cx="24" cy="24" rx="10" ry="12"/>
    <circle cx="19" cy="20" r="2"/>
    <circle cx="29" cy="20" r="2"/>
    <ellipse cx="24" cy="30" rx="8" ry="10"/>
    <path d="M32 30 Q38 28 40 32 Q38 36 32 34"/>
      </g>
    </mask>
  </defs>
  <g fill="none" stroke="#d4abcf" stroke-width="6" stroke-linecap="square" stroke-linejoin="miter" shape-rendering="crispEdges">
    <ellipse cx="24" cy="24" rx="10" ry="12"/>
    <circle cx="19" cy="20" r="2"/>
    <circle cx="29" cy="20" r="2"/>
    <ellipse cx="24" cy="30" rx="8" ry="10"/>
    <path d="M32 30 Q38 28 40 32 Q38 36 32 34"/>
  </g>
  <rect x="0" y="0" width="48" height="48" fill="url(#px)" mask="url(#m)" pointer-events="none"/>
</svg>