<svg xmlns="http://www.w3.org/2000/svg" viewBox="0 0 48 48">
  <defs>
    <pattern id="px" width="4" height="4" patternUnits="userSpaceOnUse">
      <rect width="4" height="4" fill="none"/>
      <rect width="2" height="2" fill="rgba(0,0,0,0.2)"/>
    </pattern>
    <mask id="m">
      <rect x="0" y="0" width="48" height="48" fill="black"/>
      <g fill="none" stroke="white" stroke-width="6" stroke-linecap="square" stroke-linejoin="miter" shape-rendering="crispEdges">
    <ellipse cx="24" cy="18" rx="12" ry="8"/>
    <path d="M12 18 L12 36 Q12 44 24 44 Q36 44 36 36 L36 18"/>
    <line x1="12" y1="26" x2="36" y2="26"/>
    <circle cx="18" cy="34" r="2" fill="currentColor"/>
    <circle cx="30" cy="34" r="2" fill="currentColor"/>
      </g>
    </mask>
  </defs>
  <g fill="none" stroke="#ceccb6" stroke-width="6" stroke-linecap="square" stroke-linejoin="miter" shape-rendering="crispEdges">
    <ellipse cx="24" cy="18" rx="12" ry="8"/>
    <path d="M12 18 L12 36 Q12 44 24 44 Q36 44 36 36 L36 18"/>
    <line x1="12" y1="26" x2="36" y2="26"/>
    <circle cx="18" cy="34" r="2" fill="currentColor"/>
    <circle cx="30" cy="34" r="2" fill="currentColor"/>
  </g>
  <rect x="0" y="0" width="48" height="48" fill="url(#px)" mask="url(#m)" pointer-events="none"/>
</svg>