<svg xmlns="http://www.w3.org/2000/svg" viewBox="0 0 48 48">
  <defs>
    <pattern id="px" width="4" height="4" patternUnits="userSpaceOnUse">
      <rect width="4" height="4" fill="none"/>
      <rect width="2" height="2" fill="rgba(0,0,0,0.2)"/>
    </pattern>
    <mask id="m">
      <rect x="0" y="0" width="48" height="48" fill="black"/>
      <g fill="none" stroke="white" stroke-width="6" stroke-linecap="square" stroke-linejoin="miter" shape-rendering="crispEdges">
    <rect x="4" y="20" width="40" height="24" rx="2"/>
    <polygon points="24,6 4,20 44,20"/>
    <rect x="14" y="28" width="8" height="10" rx="1"/>
    <rect x="26" y="28" width="8" height="10" rx="1"/>
    <circle cx="24" cy="24" r="3"/>
      </g>
    </mask>
  </defs>
  <g fill="none" stroke="#a6d4db" stroke-width="6" stroke-linecap="square" stroke-linejoin="miter" shape-rendering="crispEdges">
    <rect x="4" y="20" width="40" height="24" rx="2"/>
    <polygon points="24,6 4,20 44,20"/>
    <rect x="14" y="28" width="8" height="10" rx="1"/>
    <rect x="26" y="28" width="8" height="10" rx="1"/>
    <circle cx="24" cy="24" r="3"/>
  </g>
  <rect x="0" y="0" width="48" height="48" fill="url(#px)" mask="url(#m)" pointer-events="none"/>
</svg>