<svg xmlns="http://www.w3.org/2000/svg" viewBox="0 0 48 48">
  <defs>
    <pattern id="px" width="4" height="4" patternUnits="userSpaceOnUse">
      <rect width="4" height="4" fill="none"/>
      <rect width="2" height="2" fill="rgba(0,0,0,0.2)"/>
    </pattern>
    <mask id="m">
      <rect x="0" y="0" width="48" height="48" fill="black"/>
      <g fill="none" stroke="white" stroke-width="6" stroke-linecap="square" stroke-linejoin="miter" shape-rendering="crispEdges">
    <polygon points="4,8 44,8 44,24 4,24"/>
    <polygon points="4,8 24,4 44,8"/>
    <line x1="4" y1="8" x2="4" y2="24 M44 8 L44 24"/>
    <line x1="12" y1="14" x2="36" y2="14 M12 20 L36 20"/>
      </g>
    </mask>
  </defs>
  <g fill="none" stroke="#c1b2ad" stroke-width="6" stroke-linecap="square" stroke-linejoin="miter" shape-rendering="crispEdges">
    <polygon points="4,8 44,8 44,24 4,24"/>
    <polygon points="4,8 24,4 44,8"/>
    <line x1="4" y1="8" x2="4" y2="24 M44 8 L44 24"/>
    <line x1="12" y1="14" x2="36" y2="14 M12 20 L36 20"/>
  </g>
  <rect x="0" y="0" width="48" height="48" fill="url(#px)" mask="url(#m)" pointer-events="none"/>
</svg>