<svg xmlns="http://www.w3.org/2000/svg" viewBox="0 0 48 48">
  <defs>
    <pattern id="px" width="4" height="4" patternUnits="userSpaceOnUse">
      <rect width="4" height="4" fill="none"/>
      <rect width="2" height="2" fill="rgba(0,0,0,0.2)"/>
    </pattern>
    <mask id="m">
      <rect x="0" y="0" width="48" height="48" fill="black"/>
      <g fill="none" stroke="white" stroke-width="6" stroke-linecap="square" stroke-linejoin="miter" shape-rendering="crispEdges">
<line x1="8" y1="6" x2="8" y2="42"/><line x1="12" y1="6" x2="12" y2="42"/><line x1="16" y1="10" x2="16" y2="38"/><line x1="19" y1="10" x2="19" y2="38"/><line x1="22" y1="10" x2="22" y2="38"/><line x1="26" y1="6" x2="26" y2="42"/><line x1="30" y1="10" x2="30" y2="38"/><line x1="33" y1="10" x2="33" y2="38"/><line x1="36" y1="10" x2="36" y2="38"/><line x1="40" y1="6" x2="40" y2="42"/><line x1="44" y1="6" x2="44" y2="42"/>
      </g>
    </mask>
  </defs>
  <g fill="none" stroke="#7e8e41" stroke-width="6" stroke-linecap="square" stroke-linejoin="miter" shape-rendering="crispEdges">
<line x1="8" y1="6" x2="8" y2="42"/><line x1="12" y1="6" x2="12" y2="42"/><line x1="16" y1="10" x2="16" y2="38"/><line x1="19" y1="10" x2="19" y2="38"/><line x1="22" y1="10" x2="22" y2="38"/><line x1="26" y1="6" x2="26" y2="42"/><line x1="30" y1="10" x2="30" y2="38"/><line x1="33" y1="10" x2="33" y2="38"/><line x1="36" y1="10" x2="36" y2="38"/><line x1="40" y1="6" x2="40" y2="42"/><line x1="44" y1="6" x2="44" y2="42"/>
  </g>
  <rect x="0" y="0" width="48" height="48" fill="url(#px)" mask="url(#m)" pointer-events="none"/>
</svg>