<svg xmlns="http://www.w3.org/2000/svg" viewBox="0 0 48 48">
  <defs>
    <pattern id="px" width="4" height="4" patternUnits="userSpaceOnUse">
      <rect width="4" height="4" fill="none"/>
      <rect width="2" height="2" fill="rgba(0,0,0,0.2)"/>
    </pattern>
    <mask id="m">
      <rect x="0" y="0" width="48" height="48" fill="black"/>
      <g fill="none" stroke="white" stroke-width="6" stroke-linecap="square" stroke-linejoin="miter" shape-rendering="crispEdges">
<polygon points="8,28 8,12 24,4 40,12 40,28"/>
    <rect x="12" y="28" width="24" height="16"/>
    <rect x="16" y="32" width="8" height="8" rx="1"/>
    <rect x="28" y="32" width="6" height="6" rx="1"/>
      </g>
    </mask>
  </defs>
  <g fill="none" stroke="#7a3c34" stroke-width="6" stroke-linecap="square" stroke-linejoin="miter" shape-rendering="crispEdges">
<polygon points="8,28 8,12 24,4 40,12 40,28"/>
    <rect x="12" y="28" width="24" height="16"/>
    <rect x="16" y="32" width="8" height="8" rx="1"/>
    <rect x="28" y="32" width="6" height="6" rx="1"/>
  </g>
  <rect x="0" y="0" width="48" height="48" fill="url(#px)" mask="url(#m)" pointer-events="none"/>
</svg>