<svg xmlns="http://www.w3.org/2000/svg" viewBox="0 0 48 48">
  <defs>
    <pattern id="px" width="4" height="4" patternUnits="userSpaceOnUse">
      <rect width="4" height="4" fill="none"/>
      <rect width="2" height="2" fill="rgba(0,0,0,0.2)"/>
    </pattern>
    <mask id="m">
      <rect x="0" y="0" width="48" height="48" fill="black"/>
      <g fill="none" stroke="white" stroke-width="6" stroke-linecap="square" stroke-linejoin="miter" shape-rendering="crispEdges">
    <path d="M24 44 L24 24 Q24 16 16 12 Q8 8 14 4 Q18 2 22 8 Q24 12 24 8 Q24 4 28 2 Q34 6 30 12 Q26 16 24 24"/>
    <line x1="24" y1="44" x2="24" y2="24"/>
      </g>
    </mask>
  </defs>
  <g fill="none" stroke="#b5d8b0" stroke-width="6" stroke-linecap="square" stroke-linejoin="miter" shape-rendering="crispEdges">
    <path d="M24 44 L24 24 Q24 16 16 12 Q8 8 14 4 Q18 2 22 8 Q24 12 24 8 Q24 4 28 2 Q34 6 30 12 Q26 16 24 24"/>
    <line x1="24" y1="44" x2="24" y2="24"/>
  </g>
  <rect x="0" y="0" width="48" height="48" fill="url(#px)" mask="url(#m)" pointer-events="none"/>
</svg>