<svg xmlns="http://www.w3.org/2000/svg" viewBox="0 0 48 48">
  <defs>
    <pattern id="px" width="4" height="4" patternUnits="userSpaceOnUse">
      <rect width="4" height="4" fill="none"/>
      <rect width="2" height="2" fill="rgba(0,0,0,0.2)"/>
    </pattern>
    <mask id="m">
      <rect x="0" y="0" width="48" height="48" fill="black"/>
      <g fill="none" stroke="white" stroke-width="6" stroke-linecap="square" stroke-linejoin="miter" shape-rendering="crispEdges">
<rect x="8" y="14" width="32" height="20" rx="3"/><line x1="8" y1="14" x2="16" y2="6"/><line x1="40" y1="14" x2="32" y2="6"/><line x1="16" y1="6" x2="32" y2="6"/><line x1="8" y1="22" x2="40" y2="22"/><line x1="8" y1="28" x2="40" y2="28"/><circle cx="24" cy="34" r="2"/>
      </g>
    </mask>
  </defs>
  <g fill="none" stroke="#80a34f" stroke-width="6" stroke-linecap="square" stroke-linejoin="miter" shape-rendering="crispEdges">
<rect x="8" y="14" width="32" height="20" rx="3"/><line x1="8" y1="14" x2="16" y2="6"/><line x1="40" y1="14" x2="32" y2="6"/><line x1="16" y1="6" x2="32" y2="6"/><line x1="8" y1="22" x2="40" y2="22"/><line x1="8" y1="28" x2="40" y2="28"/><circle cx="24" cy="34" r="2"/>
  </g>
  <rect x="0" y="0" width="48" height="48" fill="url(#px)" mask="url(#m)" pointer-events="none"/>
</svg>