<svg xmlns="http://www.w3.org/2000/svg" viewBox="0 0 48 48">
  <defs>
    <pattern id="px" width="4" height="4" patternUnits="userSpaceOnUse">
      <rect width="4" height="4" fill="none"/>
      <rect width="2" height="2" fill="rgba(0,0,0,0.2)"/>
    </pattern>
    <mask id="m">
      <rect x="0" y="0" width="48" height="48" fill="black"/>
      <g fill="none" stroke="white" stroke-width="6" stroke-linecap="square" stroke-linejoin="miter" shape-rendering="crispEdges">
<ellipse cx="24" cy="20" rx="14" ry="10"/>
    <path d="M10 20 Q10 38 24 38 Q38 38 38 20"/>
    <circle cx="18" cy="16" r="2"/>
    <circle cx="30" cy="16" r="2"/>
    <path d="M24 24 L24 30 M20 28 L28 28"/>
      </g>
    </mask>
  </defs>
  <g fill="none" stroke="#77a55b" stroke-width="6" stroke-linecap="square" stroke-linejoin="miter" shape-rendering="crispEdges">
<ellipse cx="24" cy="20" rx="14" ry="10"/>
    <path d="M10 20 Q10 38 24 38 Q38 38 38 20"/>
    <circle cx="18" cy="16" r="2"/>
    <circle cx="30" cy="16" r="2"/>
    <path d="M24 24 L24 30 M20 28 L28 28"/>
  </g>
  <rect x="0" y="0" width="48" height="48" fill="url(#px)" mask="url(#m)" pointer-events="none"/>
</svg>