<svg xmlns="http://www.w3.org/2000/svg" viewBox="0 0 48 48">
  <defs>
    <pattern id="px" width="4" height="4" patternUnits="userSpaceOnUse">
      <rect width="4" height="4" fill="none"/>
      <rect width="2" height="2" fill="rgba(0,0,0,0.2)"/>
    </pattern>
    <mask id="m">
      <rect x="0" y="0" width="48" height="48" fill="black"/>
      <g fill="none" stroke="white" stroke-width="6" stroke-linecap="square" stroke-linejoin="miter" shape-rendering="crispEdges">
    <path d="M16 8 L16 36 Q16 40 24 40 Q32 40 32 36 L32 8 Z"/>
    <path d="M32 12 L38 12 Q40 12 40 16 L40 20 Q40 24 38 24 L32 24"/>
    <ellipse cx="24" cy="8" rx="8" ry="2"/>
      </g>
    </mask>
  </defs>
  <g fill="none" stroke="#b0dcb1" stroke-width="6" stroke-linecap="square" stroke-linejoin="miter" shape-rendering="crispEdges">
    <path d="M16 8 L16 36 Q16 40 24 40 Q32 40 32 36 L32 8 Z"/>
    <path d="M32 12 L38 12 Q40 12 40 16 L40 20 Q40 24 38 24 L32 24"/>
    <ellipse cx="24" cy="8" rx="8" ry="2"/>
  </g>
  <rect x="0" y="0" width="48" height="48" fill="url(#px)" mask="url(#m)" pointer-events="none"/>
</svg>