<svg xmlns="http://www.w3.org/2000/svg" viewBox="0 0 48 48">
  <defs>
    <pattern id="px" width="4" height="4" patternUnits="userSpaceOnUse">
      <rect width="4" height="4" fill="none"/>
      <rect width="2" height="2" fill="rgba(0,0,0,0.2)"/>
    </pattern>
    <mask id="m">
      <rect x="0" y="0" width="48" height="48" fill="black"/>
      <g fill="none" stroke="white" stroke-width="6" stroke-linecap="square" stroke-linejoin="miter" shape-rendering="crispEdges">
    <path d="M12 32 Q12 14 24 14 Q36 14 36 32 L40 38 L8 38 Z"/>
        <path d="M16 38 L16 40 Q16 44 24 44 Q32 44 32 40 L32 38"/>
      </g>
    </mask>
  </defs>
  <g fill="none" stroke="#BF360C" stroke-width="6" stroke-linecap="square" stroke-linejoin="miter" shape-rendering="crispEdges">
    <path d="M12 32 Q12 14 24 14 Q36 14 36 32 L40 38 L8 38 Z"/>
        <path d="M16 38 L16 40 Q16 44 24 44 Q32 44 32 40 L32 38"/>
  </g>
  <rect x="0" y="0" width="48" height="48" fill="url(#px)" mask="url(#m)" pointer-events="none"/>
</svg>