<svg xmlns="http://www.w3.org/2000/svg" viewBox="0 0 48 48">
  <defs>
    <pattern id="px" width="4" height="4" patternUnits="userSpaceOnUse">
      <rect width="4" height="4" fill="none"/>
      <rect width="2" height="2" fill="rgba(0,0,0,0.2)"/>
    </pattern>
    <mask id="m">
      <rect x="0" y="0" width="48" height="48" fill="black"/>
      <g fill="none" stroke="white" stroke-width="6" stroke-linecap="square" stroke-linejoin="miter" shape-rendering="crispEdges">
<circle cx="14" cy="32" r="7"/>
    <circle cx="34" cy="32" r="7"/>
    <line x1="14" y1="32" x2="26" y2="14"/>
    <line x1="34" y1="32" x2="22" y2="14"/>
    <line x1="22" y1="14" x2="26" y2="14"/>
    <line x1="14" y1="32" x2="34" y2="32"/>
    <circle cx="24" cy="14" r="3"/>
      </g>
    </mask>
  </defs>
  <g fill="none" stroke="#8e793b" stroke-width="6" stroke-linecap="square" stroke-linejoin="miter" shape-rendering="crispEdges">
<circle cx="14" cy="32" r="7"/>
    <circle cx="34" cy="32" r="7"/>
    <line x1="14" y1="32" x2="26" y2="14"/>
    <line x1="34" y1="32" x2="22" y2="14"/>
    <line x1="22" y1="14" x2="26" y2="14"/>
    <line x1="14" y1="32" x2="34" y2="32"/>
    <circle cx="24" cy="14" r="3"/>
  </g>
  <rect x="0" y="0" width="48" height="48" fill="url(#px)" mask="url(#m)" pointer-events="none"/>
</svg>