<svg xmlns="http://www.w3.org/2000/svg" viewBox="0 0 48 48">
  <defs>
    <pattern id="px" width="4" height="4" patternUnits="userSpaceOnUse">
      <rect width="4" height="4" fill="none"/>
      <rect width="2" height="2" fill="rgba(0,0,0,0.2)"/>
    </pattern>
    <mask id="m">
      <rect x="0" y="0" width="48" height="48" fill="black"/>
      <g fill="none" stroke="white" stroke-width="6" stroke-linecap="square" stroke-linejoin="miter" shape-rendering="crispEdges">
    <path d="M10 22 Q16 16 24 22 Q32 16 38 22"/>
    <path d="M14 24 L20 24 M28 24 L34 24"/>
    <polygon points="16,42 20,28 28,28 32,42"/>
      </g>
    </mask>
  </defs>
  <g fill="none" stroke="#b7e5c1" stroke-width="6" stroke-linecap="square" stroke-linejoin="miter" shape-rendering="crispEdges">
    <path d="M10 22 Q16 16 24 22 Q32 16 38 22"/>
    <path d="M14 24 L20 24 M28 24 L34 24"/>
    <polygon points="16,42 20,28 28,28 32,42"/>
  </g>
  <rect x="0" y="0" width="48" height="48" fill="url(#px)" mask="url(#m)" pointer-events="none"/>
</svg>