<svg xmlns="http://www.w3.org/2000/svg" viewBox="0 0 48 48">
  <defs>
    <pattern id="px" width="4" height="4" patternUnits="userSpaceOnUse">
      <rect width="4" height="4" fill="none"/>
      <rect width="2" height="2" fill="rgba(0,0,0,0.2)"/>
    </pattern>
    <mask id="m">
      <rect x="0" y="0" width="48" height="48" fill="black"/>
      <g fill="none" stroke="white" stroke-width="6" stroke-linecap="square" stroke-linejoin="miter" shape-rendering="crispEdges">
    <rect x="6" y="4" width="36" height="40" rx="2"/>
    <circle cx="36" cy="12" r="3" fill="currentColor"/>
    <circle cx="36" cy="24" r="3" fill="currentColor"/>
    <circle cx="36" cy="36" r="3" fill="currentColor"/>
    <line x1="12" y1="14" x2="30" y2="14 M12 20 L30 20 M12 26 L30 26 M12 32 L30 32"/>
      </g>
    </mask>
  </defs>
  <g fill="none" stroke="#b2c6b4" stroke-width="6" stroke-linecap="square" stroke-linejoin="miter" shape-rendering="crispEdges">
    <rect x="6" y="4" width="36" height="40" rx="2"/>
    <circle cx="36" cy="12" r="3" fill="currentColor"/>
    <circle cx="36" cy="24" r="3" fill="currentColor"/>
    <circle cx="36" cy="36" r="3" fill="currentColor"/>
    <line x1="12" y1="14" x2="30" y2="14 M12 20 L30 20 M12 26 L30 26 M12 32 L30 32"/>
  </g>
  <rect x="0" y="0" width="48" height="48" fill="url(#px)" mask="url(#m)" pointer-events="none"/>
</svg>