<svg xmlns="http://www.w3.org/2000/svg" viewBox="0 0 48 48">
  <defs>
    <pattern id="px" width="4" height="4" patternUnits="userSpaceOnUse">
      <rect width="4" height="4" fill="none"/>
      <rect width="2" height="2" fill="rgba(0,0,0,0.2)"/>
    </pattern>
    <mask id="m">
      <rect x="0" y="0" width="48" height="48" fill="black"/>
      <g fill="none" stroke="white" stroke-width="6" stroke-linecap="square" stroke-linejoin="miter" shape-rendering="crispEdges">
    <rect x="6" y="14" width="14" height="22" rx="4"/>
    <rect x="28" y="14" width="14" height="22" rx="4"/>
    <line x1="20" y1="20" x2="28" y2="20"/>
    <line x1="20" y1="26" x2="28" y2="26"/>
    <line x1="6" y1="18" x2="6" y2="36 M42 18 L42 36"/>
      </g>
    </mask>
  </defs>
  <g fill="none" stroke="#dbc5e3" stroke-width="6" stroke-linecap="square" stroke-linejoin="miter" shape-rendering="crispEdges">
    <rect x="6" y="14" width="14" height="22" rx="4"/>
    <rect x="28" y="14" width="14" height="22" rx="4"/>
    <line x1="20" y1="20" x2="28" y2="20"/>
    <line x1="20" y1="26" x2="28" y2="26"/>
    <line x1="6" y1="18" x2="6" y2="36 M42 18 L42 36"/>
  </g>
  <rect x="0" y="0" width="48" height="48" fill="url(#px)" mask="url(#m)" pointer-events="none"/>
</svg>