<svg xmlns="http://www.w3.org/2000/svg" viewBox="0 0 48 48">
  <defs>
    <pattern id="px" width="4" height="4" patternUnits="userSpaceOnUse">
      <rect width="4" height="4" fill="none"/>
      <rect width="2" height="2" fill="rgba(0,0,0,0.2)"/>
    </pattern>
    <mask id="m">
      <rect x="0" y="0" width="48" height="48" fill="black"/>
      <g fill="none" stroke="white" stroke-width="6" stroke-linecap="square" stroke-linejoin="miter" shape-rendering="crispEdges">
    <rect x="6" y="16" width="14" height="20" rx="4"/>
    <rect x="28" y="16" width="14" height="20" rx="4"/>
    <path d="M20 22 L28 22"/>
    <path d="M20 28 L28 28"/>
    <rect x="18" y="18" width="12" height="4" rx="1"/>
      </g>
    </mask>
  </defs>
  <g fill="none" stroke="#d2bace" stroke-width="6" stroke-linecap="square" stroke-linejoin="miter" shape-rendering="crispEdges">
    <rect x="6" y="16" width="14" height="20" rx="4"/>
    <rect x="28" y="16" width="14" height="20" rx="4"/>
    <path d="M20 22 L28 22"/>
    <path d="M20 28 L28 28"/>
    <rect x="18" y="18" width="12" height="4" rx="1"/>
  </g>
  <rect x="0" y="0" width="48" height="48" fill="url(#px)" mask="url(#m)" pointer-events="none"/>
</svg>