<svg xmlns="http://www.w3.org/2000/svg" viewBox="0 0 48 48">
  <defs>
    <pattern id="px" width="4" height="4" patternUnits="userSpaceOnUse">
      <rect width="4" height="4" fill="none"/>
      <rect width="2" height="2" fill="rgba(0,0,0,0.2)"/>
    </pattern>
    <mask id="m">
      <rect x="0" y="0" width="48" height="48" fill="black"/>
      <g fill="none" stroke="white" stroke-width="6" stroke-linecap="square" stroke-linejoin="miter" shape-rendering="crispEdges">
    <line x1="14" y1="10" x2="14" y2="38"/>
    <line x1="18" y1="10" x2="18" y2="38"/>
    <path d="M14 10 C28 10 28 24 14 24"/>
    <path d="M14 24 C28 24 28 38 14 38"/>
      </g>
    </mask>
  </defs>
  <g fill="none" stroke="#FFA726" stroke-width="6" stroke-linecap="square" stroke-linejoin="miter" shape-rendering="crispEdges">
    <line x1="14" y1="10" x2="14" y2="38"/>
    <line x1="18" y1="10" x2="18" y2="38"/>
    <path d="M14 10 C28 10 28 24 14 24"/>
    <path d="M14 24 C28 24 28 38 14 38"/>
  </g>
  <rect x="0" y="0" width="48" height="48" fill="url(#px)" mask="url(#m)" pointer-events="none"/>
</svg>