<svg xmlns="http://www.w3.org/2000/svg" viewBox="0 0 48 48">
  <defs>
    <pattern id="px" width="4" height="4" patternUnits="userSpaceOnUse">
      <rect width="4" height="4" fill="none"/>
      <rect width="2" height="2" fill="rgba(0,0,0,0.2)"/>
    </pattern>
    <mask id="m">
      <rect x="0" y="0" width="48" height="48" fill="black"/>
      <g fill="none" stroke="white" stroke-width="6" stroke-linecap="square" stroke-linejoin="miter" shape-rendering="crispEdges">
    <rect x="6" y="8" width="36" height="34" rx="3"/>
    <line x1="6" y1="18" x2="42" y2="18 M6 28 L42 28"/>
    <line x1="16" y1="8" x2="16" y2="42 M32 8 L32 42"/>
    <circle cx="24" cy="23" r="3" fill="currentColor"/>
      </g>
    </mask>
  </defs>
  <g fill="none" stroke="#cfc8b3" stroke-width="6" stroke-linecap="square" stroke-linejoin="miter" shape-rendering="crispEdges">
    <rect x="6" y="8" width="36" height="34" rx="3"/>
    <line x1="6" y1="18" x2="42" y2="18 M6 28 L42 28"/>
    <line x1="16" y1="8" x2="16" y2="42 M32 8 L32 42"/>
    <circle cx="24" cy="23" r="3" fill="currentColor"/>
  </g>
  <rect x="0" y="0" width="48" height="48" fill="url(#px)" mask="url(#m)" pointer-events="none"/>
</svg>