<svg xmlns="http://www.w3.org/2000/svg" viewBox="0 0 48 48">
  <defs>
    <pattern id="px" width="4" height="4" patternUnits="userSpaceOnUse">
      <rect width="4" height="4" fill="none"/>
      <rect width="2" height="2" fill="rgba(0,0,0,0.2)"/>
    </pattern>
    <mask id="m">
      <rect x="0" y="0" width="48" height="48" fill="black"/>
      <g fill="none" stroke="white" stroke-width="6" stroke-linecap="square" stroke-linejoin="miter" shape-rendering="crispEdges">
    <path d="M6 30 Q6 34 10 34 L30 34 Q34 34 34 30 L34 18 Q34 14 30 14 L10 14 Q6 14 6 18 Z"/>
    <path d="M34 20 L40 16 L44 20 L40 24 Z"/>
    <circle cx="10" cy="24" r="3" fill="currentColor"/>
    <circle cx="16" cy="24" r="3" fill="currentColor"/>
    <circle cx="22" cy="24" r="3" fill="currentColor"/>
      </g>
    </mask>
  </defs>
  <g fill="none" stroke="#b7cfa9" stroke-width="6" stroke-linecap="square" stroke-linejoin="miter" shape-rendering="crispEdges">
    <path d="M6 30 Q6 34 10 34 L30 34 Q34 34 34 30 L34 18 Q34 14 30 14 L10 14 Q6 14 6 18 Z"/>
    <path d="M34 20 L40 16 L44 20 L40 24 Z"/>
    <circle cx="10" cy="24" r="3" fill="currentColor"/>
    <circle cx="16" cy="24" r="3" fill="currentColor"/>
    <circle cx="22" cy="24" r="3" fill="currentColor"/>
  </g>
  <rect x="0" y="0" width="48" height="48" fill="url(#px)" mask="url(#m)" pointer-events="none"/>
</svg>