<svg xmlns="http://www.w3.org/2000/svg" viewBox="0 0 48 48">
  <defs>
    <pattern id="px" width="4" height="4" patternUnits="userSpaceOnUse">
      <rect width="4" height="4" fill="none"/>
      <rect width="2" height="2" fill="rgba(0,0,0,0.2)"/>
    </pattern>
    <mask id="m">
      <rect x="0" y="0" width="48" height="48" fill="black"/>
      <g fill="none" stroke="white" stroke-width="6" stroke-linecap="square" stroke-linejoin="miter" shape-rendering="crispEdges">
    <circle cx="20" cy="22" r="7"/>
    <circle cx="28" cy="22" r="7"/>
    <circle cx="24" cy="30" r="6"/>
    <path d="M20 15 Q20 10 18 8 M28 15 Q28 10 30 8 M24 24 Q24 18 22 16"/>
      </g>
    </mask>
  </defs>
  <g fill="none" stroke="#acc3d8" stroke-width="6" stroke-linecap="square" stroke-linejoin="miter" shape-rendering="crispEdges">
    <circle cx="20" cy="22" r="7"/>
    <circle cx="28" cy="22" r="7"/>
    <circle cx="24" cy="30" r="6"/>
    <path d="M20 15 Q20 10 18 8 M28 15 Q28 10 30 8 M24 24 Q24 18 22 16"/>
  </g>
  <rect x="0" y="0" width="48" height="48" fill="url(#px)" mask="url(#m)" pointer-events="none"/>
</svg>