<svg xmlns="http://www.w3.org/2000/svg" viewBox="0 0 48 48">
  <defs>
    <pattern id="px" width="4" height="4" patternUnits="userSpaceOnUse">
      <rect width="4" height="4" fill="none"/>
      <rect width="2" height="2" fill="rgba(0,0,0,0.2)"/>
    </pattern>
    <mask id="m">
      <rect x="0" y="0" width="48" height="48" fill="black"/>
      <g fill="none" stroke="white" stroke-width="6" stroke-linecap="square" stroke-linejoin="miter" shape-rendering="crispEdges">
    <rect x="6" y="6" width="36" height="36" rx="2"/>
    <line x1="10" y1="14" x2="38" y2="14 M10 22 L38 22 M10 30 L38 30 M10 38 L38 38"/>
    <circle cx="16" cy="18" r="2" fill="currentColor"/>
    <line x1="24" y1="6" x2="24" y2="42 M6 28 L42 28"/>
      </g>
    </mask>
  </defs>
  <g fill="none" stroke="#c9b0c1" stroke-width="6" stroke-linecap="square" stroke-linejoin="miter" shape-rendering="crispEdges">
    <rect x="6" y="6" width="36" height="36" rx="2"/>
    <line x1="10" y1="14" x2="38" y2="14 M10 22 L38 22 M10 30 L38 30 M10 38 L38 38"/>
    <circle cx="16" cy="18" r="2" fill="currentColor"/>
    <line x1="24" y1="6" x2="24" y2="42 M6 28 L42 28"/>
  </g>
  <rect x="0" y="0" width="48" height="48" fill="url(#px)" mask="url(#m)" pointer-events="none"/>
</svg>