<svg xmlns="http://www.w3.org/2000/svg" viewBox="0 0 48 48">
  <defs>
    <pattern id="px" width="4" height="4" patternUnits="userSpaceOnUse">
      <rect width="4" height="4" fill="none"/>
      <rect width="2" height="2" fill="rgba(0,0,0,0.2)"/>
    </pattern>
    <mask id="m">
      <rect x="0" y="0" width="48" height="48" fill="black"/>
      <g fill="none" stroke="white" stroke-width="6" stroke-linecap="square" stroke-linejoin="miter" shape-rendering="crispEdges">
    <path d="M8 40 L20 24 L24 24 L24 28 L18 40" stroke-width="3"/>
    <path d="M40 40 L28 24 L24 24 L24 28 L30 40" stroke-width="3"/>
    <line x1="24" y1="24" x2="24" y2="8"/>
    <circle cx="24" cy="8" r="4"/>
    <circle cx="24" cy="8" r="1.5" fill="currentColor"/>
      </g>
    </mask>
  </defs>
  <g fill="none" stroke="#aeced1" stroke-width="6" stroke-linecap="square" stroke-linejoin="miter" shape-rendering="crispEdges">
    <path d="M8 40 L20 24 L24 24 L24 28 L18 40" stroke-width="3"/>
    <path d="M40 40 L28 24 L24 24 L24 28 L30 40" stroke-width="3"/>
    <line x1="24" y1="24" x2="24" y2="8"/>
    <circle cx="24" cy="8" r="4"/>
    <circle cx="24" cy="8" r="1.5" fill="currentColor"/>
  </g>
  <rect x="0" y="0" width="48" height="48" fill="url(#px)" mask="url(#m)" pointer-events="none"/>
</svg>