<svg xmlns="http://www.w3.org/2000/svg" viewBox="0 0 48 48">
  <defs>
    <pattern id="px" width="4" height="4" patternUnits="userSpaceOnUse">
      <rect width="4" height="4" fill="none"/>
      <rect width="2" height="2" fill="rgba(0,0,0,0.2)"/>
    </pattern>
    <mask id="m">
      <rect x="0" y="0" width="48" height="48" fill="black"/>
      <g fill="none" stroke="white" stroke-width="6" stroke-linecap="square" stroke-linejoin="miter" shape-rendering="crispEdges">
    <path d="M8 8 L8 40 Q8 44 14 44 L34 44 Q38 44 38 40 L38 20 Q38 8 30 8 Z"/>
    <line x1="8" y1="20" x2="38" y2="20 M8 32 L38 32"/>
    <line x1="8" y1="8" x2="8" y2="20"/>
      </g>
    </mask>
  </defs>
  <g fill="none" stroke="#e7c3dc" stroke-width="6" stroke-linecap="square" stroke-linejoin="miter" shape-rendering="crispEdges">
    <path d="M8 8 L8 40 Q8 44 14 44 L34 44 Q38 44 38 40 L38 20 Q38 8 30 8 Z"/>
    <line x1="8" y1="20" x2="38" y2="20 M8 32 L38 32"/>
    <line x1="8" y1="8" x2="8" y2="20"/>
  </g>
  <rect x="0" y="0" width="48" height="48" fill="url(#px)" mask="url(#m)" pointer-events="none"/>
</svg>