<svg xmlns="http://www.w3.org/2000/svg" viewBox="0 0 48 48">
  <defs>
    <pattern id="px" width="4" height="4" patternUnits="userSpaceOnUse">
      <rect width="4" height="4" fill="none"/>
      <rect width="2" height="2" fill="rgba(0,0,0,0.2)"/>
    </pattern>
    <mask id="m">
      <rect x="0" y="0" width="48" height="48" fill="black"/>
      <g fill="none" stroke="white" stroke-width="6" stroke-linecap="square" stroke-linejoin="miter" shape-rendering="crispEdges">
    <circle cx="24" cy="12" r="5"/>
    <line x1="24" y1="17" x2="24" y2="32"/>
    <line x1="24" y1="22" x2="16" y2="28 M24 22 L32 28"/>
    <line x1="24" y1="32" x2="18" y2="44 M24 32 L30 44"/>
      </g>
    </mask>
  </defs>
  <g fill="none" stroke="#cfadca" stroke-width="6" stroke-linecap="square" stroke-linejoin="miter" shape-rendering="crispEdges">
    <circle cx="24" cy="12" r="5"/>
    <line x1="24" y1="17" x2="24" y2="32"/>
    <line x1="24" y1="22" x2="16" y2="28 M24 22 L32 28"/>
    <line x1="24" y1="32" x2="18" y2="44 M24 32 L30 44"/>
  </g>
  <rect x="0" y="0" width="48" height="48" fill="url(#px)" mask="url(#m)" pointer-events="none"/>
</svg>