<svg xmlns="http://www.w3.org/2000/svg" viewBox="0 0 48 48">
  <defs>
    <pattern id="px" width="4" height="4" patternUnits="userSpaceOnUse">
      <rect width="4" height="4" fill="none"/>
      <rect width="2" height="2" fill="rgba(0,0,0,0.2)"/>
    </pattern>
    <mask id="m">
      <rect x="0" y="0" width="48" height="48" fill="black"/>
      <g fill="none" stroke="white" stroke-width="6" stroke-linecap="square" stroke-linejoin="miter" shape-rendering="crispEdges">
    <path d="M4 44 L4 20 L12 12 L12 44 Z"/>
    <path d="M44 44 L44 20 L36 12 L36 44 Z"/>
    <line x1="12" y1="12" x2="36" y2="12"/>
    <circle cx="8" cy="32" r="2" fill="currentColor"/>
    <circle cx="40" cy="32" r="2" fill="currentColor"/>
      </g>
    </mask>
  </defs>
  <g fill="none" stroke="#c7aecb" stroke-width="6" stroke-linecap="square" stroke-linejoin="miter" shape-rendering="crispEdges">
    <path d="M4 44 L4 20 L12 12 L12 44 Z"/>
    <path d="M44 44 L44 20 L36 12 L36 44 Z"/>
    <line x1="12" y1="12" x2="36" y2="12"/>
    <circle cx="8" cy="32" r="2" fill="currentColor"/>
    <circle cx="40" cy="32" r="2" fill="currentColor"/>
  </g>
  <rect x="0" y="0" width="48" height="48" fill="url(#px)" mask="url(#m)" pointer-events="none"/>
</svg>