<svg xmlns="http://www.w3.org/2000/svg" viewBox="0 0 48 48">
  <defs>
    <pattern id="px" width="4" height="4" patternUnits="userSpaceOnUse">
      <rect width="4" height="4" fill="none"/>
      <rect width="2" height="2" fill="rgba(0,0,0,0.2)"/>
    </pattern>
    <mask id="m">
      <rect x="0" y="0" width="48" height="48" fill="black"/>
      <g fill="none" stroke="white" stroke-width="6" stroke-linecap="square" stroke-linejoin="miter" shape-rendering="crispEdges">
    <path d="M2 40 Q12 12 24 20 Q36 12 46 40"/>
    <line x1="2" y1="40" x2="46" y2="40"/>
    <line x1="8" y1="30" x2="40" y2="30"/>
    <line x1="14" y1="34" x2="34" y2="34"/>
    <line x1="24" y1="20" x2="24" y2="40"/>
      </g>
    </mask>
  </defs>
  <g fill="none" stroke="#e2bbcc" stroke-width="6" stroke-linecap="square" stroke-linejoin="miter" shape-rendering="crispEdges">
    <path d="M2 40 Q12 12 24 20 Q36 12 46 40"/>
    <line x1="2" y1="40" x2="46" y2="40"/>
    <line x1="8" y1="30" x2="40" y2="30"/>
    <line x1="14" y1="34" x2="34" y2="34"/>
    <line x1="24" y1="20" x2="24" y2="40"/>
  </g>
  <rect x="0" y="0" width="48" height="48" fill="url(#px)" mask="url(#m)" pointer-events="none"/>
</svg>