<svg xmlns="http://www.w3.org/2000/svg" viewBox="0 0 48 48">
  <defs>
    <pattern id="px" width="4" height="4" patternUnits="userSpaceOnUse">
      <rect width="4" height="4" fill="none"/>
      <rect width="2" height="2" fill="rgba(0,0,0,0.2)"/>
    </pattern>
    <mask id="m">
      <rect x="0" y="0" width="48" height="48" fill="black"/>
      <g fill="none" stroke="white" stroke-width="6" stroke-linecap="square" stroke-linejoin="miter" shape-rendering="crispEdges">
<path d="M10 34 Q10 6 24 6 Q38 6 38 34 Z"/>
    <line x1="10" y1="28" x2="38" y2="28"/>
    <circle cx="24" cy="32" r="2"/>
    <line x1="18" y1="12" x2="18" y2="20"/>
    <line x1="30" y1="12" x2="30" y2="20"/>
      </g>
    </mask>
  </defs>
  <g fill="none" stroke="#91a337" stroke-width="6" stroke-linecap="square" stroke-linejoin="miter" shape-rendering="crispEdges">
<path d="M10 34 Q10 6 24 6 Q38 6 38 34 Z"/>
    <line x1="10" y1="28" x2="38" y2="28"/>
    <circle cx="24" cy="32" r="2"/>
    <line x1="18" y1="12" x2="18" y2="20"/>
    <line x1="30" y1="12" x2="30" y2="20"/>
  </g>
  <rect x="0" y="0" width="48" height="48" fill="url(#px)" mask="url(#m)" pointer-events="none"/>
</svg>