<svg xmlns="http://www.w3.org/2000/svg" viewBox="0 0 48 48">
  <defs>
    <pattern id="px" width="4" height="4" patternUnits="userSpaceOnUse">
      <rect width="4" height="4" fill="none"/>
      <rect width="2" height="2" fill="rgba(0,0,0,0.2)"/>
    </pattern>
    <mask id="m">
      <rect x="0" y="0" width="48" height="48" fill="black"/>
      <g fill="none" stroke="white" stroke-width="6" stroke-linecap="square" stroke-linejoin="miter" shape-rendering="crispEdges">
    <line x1="8" y1="42" x2="38" y2="12"/>
    <rect x="34" y="6" width="10" height="10" rx="2" transform="rotate(45 39 11)"/>
    <line x1="8" y1="42" x2="4" y2="44 M8 42 L12 44"/>
    <line x1="22" y1="30" x2="28" y2="24" stroke-width="3"/>
      </g>
    </mask>
  </defs>
  <g fill="none" stroke="#c69ea3" stroke-width="6" stroke-linecap="square" stroke-linejoin="miter" shape-rendering="crispEdges">
    <line x1="8" y1="42" x2="38" y2="12"/>
    <rect x="34" y="6" width="10" height="10" rx="2" transform="rotate(45 39 11)"/>
    <line x1="8" y1="42" x2="4" y2="44 M8 42 L12 44"/>
    <line x1="22" y1="30" x2="28" y2="24" stroke-width="3"/>
  </g>
  <rect x="0" y="0" width="48" height="48" fill="url(#px)" mask="url(#m)" pointer-events="none"/>
</svg>