<svg xmlns="http://www.w3.org/2000/svg" viewBox="0 0 48 48">
  <defs>
    <pattern id="px" width="4" height="4" patternUnits="userSpaceOnUse">
      <rect width="4" height="4" fill="none"/>
      <rect width="2" height="2" fill="rgba(0,0,0,0.2)"/>
    </pattern>
    <mask id="m">
      <rect x="0" y="0" width="48" height="48" fill="black"/>
      <g fill="none" stroke="white" stroke-width="6" stroke-linecap="square" stroke-linejoin="miter" shape-rendering="crispEdges">
    <rect x="10" y="14" width="28" height="30"/>
    <rect x="16" y="6" width="16" height="8" rx="1"/>
    <rect x="14" y="18" width="8" height="10" rx="1"/>
    <rect x="26" y="18" width="8" height="10" rx="1"/>
    <rect x="14" y="32" width="8" height="10" rx="1"/>
    <rect x="26" y="32" width="8" height="10" rx="1"/>
    <line x1="10" y1="14" x2="38" y2="14"/>
      </g>
    </mask>
  </defs>
  <g fill="none" stroke="#D84315" stroke-width="6" stroke-linecap="square" stroke-linejoin="miter" shape-rendering="crispEdges">
    <rect x="10" y="14" width="28" height="30"/>
    <rect x="16" y="6" width="16" height="8" rx="1"/>
    <rect x="14" y="18" width="8" height="10" rx="1"/>
    <rect x="26" y="18" width="8" height="10" rx="1"/>
    <rect x="14" y="32" width="8" height="10" rx="1"/>
    <rect x="26" y="32" width="8" height="10" rx="1"/>
    <line x1="10" y1="14" x2="38" y2="14"/>
  </g>
  <rect x="0" y="0" width="48" height="48" fill="url(#px)" mask="url(#m)" pointer-events="none"/>
</svg>