<svg xmlns="http://www.w3.org/2000/svg" viewBox="0 0 48 48">
  <defs>
    <pattern id="px" width="4" height="4" patternUnits="userSpaceOnUse">
      <rect width="4" height="4" fill="none"/>
      <rect width="2" height="2" fill="rgba(0,0,0,0.2)"/>
    </pattern>
    <mask id="m">
      <rect x="0" y="0" width="48" height="48" fill="black"/>
      <g fill="none" stroke="white" stroke-width="6" stroke-linecap="square" stroke-linejoin="miter" shape-rendering="crispEdges">
    <path d="M16 20 Q16 6 24 6 Q32 6 32 20 Q32 26 28 30 L20 30 Q16 26 16 20 Z"/>
    <line x1="20" y1="32" x2="28" y2="32 M22 36 L26 36 M24 38 L24 42"/>
    <circle cx="24" cy="18" r="2" fill="currentColor"/>
      </g>
    </mask>
  </defs>
  <g fill="none" stroke="#aabbc9" stroke-width="6" stroke-linecap="square" stroke-linejoin="miter" shape-rendering="crispEdges">
    <path d="M16 20 Q16 6 24 6 Q32 6 32 20 Q32 26 28 30 L20 30 Q16 26 16 20 Z"/>
    <line x1="20" y1="32" x2="28" y2="32 M22 36 L26 36 M24 38 L24 42"/>
    <circle cx="24" cy="18" r="2" fill="currentColor"/>
  </g>
  <rect x="0" y="0" width="48" height="48" fill="url(#px)" mask="url(#m)" pointer-events="none"/>
</svg>