<svg xmlns="http://www.w3.org/2000/svg" viewBox="0 0 48 48">
  <defs>
    <pattern id="px" width="4" height="4" patternUnits="userSpaceOnUse">
      <rect width="4" height="4" fill="none"/>
      <rect width="2" height="2" fill="rgba(0,0,0,0.2)"/>
    </pattern>
    <mask id="m">
      <rect x="0" y="0" width="48" height="48" fill="black"/>
      <g fill="none" stroke="white" stroke-width="6" stroke-linecap="square" stroke-linejoin="miter" shape-rendering="crispEdges">
    <rect x="8" y="12" width="32" height="28" rx="3"/>
    <line x1="8" y1="20" x2="40" y2="20"/>
    <line x1="16" y1="8" x2="16" y2="14"/>
    <line x1="32" y1="8" x2="32" y2="14"/>
    <line x1="14" y1="26" x2="22" y2="26"/>
    <line x1="14" y1="32" x2="22" y2="32"/>
    <line x1="26" y1="26" x2="34" y2="26"/>
      </g>
    </mask>
  </defs>
  <g fill="none" stroke="#81C784" stroke-width="6" stroke-linecap="square" stroke-linejoin="miter" shape-rendering="crispEdges">
    <rect x="8" y="12" width="32" height="28" rx="3"/>
    <line x1="8" y1="20" x2="40" y2="20"/>
    <line x1="16" y1="8" x2="16" y2="14"/>
    <line x1="32" y1="8" x2="32" y2="14"/>
    <line x1="14" y1="26" x2="22" y2="26"/>
    <line x1="14" y1="32" x2="22" y2="32"/>
    <line x1="26" y1="26" x2="34" y2="26"/>
  </g>
  <rect x="0" y="0" width="48" height="48" fill="url(#px)" mask="url(#m)" pointer-events="none"/>
</svg>