<svg xmlns="http://www.w3.org/2000/svg" viewBox="0 0 48 48">
  <defs>
    <pattern id="px" width="4" height="4" patternUnits="userSpaceOnUse">
      <rect width="4" height="4" fill="none"/>
      <rect width="2" height="2" fill="rgba(0,0,0,0.2)"/>
    </pattern>
    <mask id="m">
      <rect x="0" y="0" width="48" height="48" fill="black"/>
      <g fill="none" stroke="white" stroke-width="6" stroke-linecap="square" stroke-linejoin="miter" shape-rendering="crispEdges">
<ellipse cx="24" cy="28" rx="14" ry="10"/>
    <path d="M12 18 Q24 6 36 18"/>
    <circle cx="18" cy="26" r="2"/>
    <circle cx="30" cy="26" r="2"/>
    <path d="M20 34 L24 38 L28 34"/>
    <circle cx="24" cy="22" r="1.5"/>
      </g>
    </mask>
  </defs>
  <g fill="none" stroke="#7090a3" stroke-width="6" stroke-linecap="square" stroke-linejoin="miter" shape-rendering="crispEdges">
<ellipse cx="24" cy="28" rx="14" ry="10"/>
    <path d="M12 18 Q24 6 36 18"/>
    <circle cx="18" cy="26" r="2"/>
    <circle cx="30" cy="26" r="2"/>
    <path d="M20 34 L24 38 L28 34"/>
    <circle cx="24" cy="22" r="1.5"/>
  </g>
  <rect x="0" y="0" width="48" height="48" fill="url(#px)" mask="url(#m)" pointer-events="none"/>
</svg>