<svg xmlns="http://www.w3.org/2000/svg" viewBox="0 0 48 48">
  <defs>
    <pattern id="px" width="4" height="4" patternUnits="userSpaceOnUse">
      <rect width="4" height="4" fill="none"/>
      <rect width="2" height="2" fill="rgba(0,0,0,0.2)"/>
    </pattern>
    <mask id="m">
      <rect x="0" y="0" width="48" height="48" fill="black"/>
      <g fill="none" stroke="white" stroke-width="6" stroke-linecap="square" stroke-linejoin="miter" shape-rendering="crispEdges">
    <rect x="4" y="6" width="40" height="36" rx="3"/>
    <ellipse cx="14" cy="16" rx="6" ry="4"/>
    <ellipse cx="30" cy="12" rx="8" ry="5"/>
    <ellipse cx="20" cy="28" rx="7" ry="4"/>
    <ellipse cx="36" cy="30" rx="5" ry="6"/>
    <ellipse cx="10" cy="36" rx="4" ry="3"/>
      </g>
    </mask>
  </defs>
  <g fill="none" stroke="#e2c8ae" stroke-width="6" stroke-linecap="square" stroke-linejoin="miter" shape-rendering="crispEdges">
    <rect x="4" y="6" width="40" height="36" rx="3"/>
    <ellipse cx="14" cy="16" rx="6" ry="4"/>
    <ellipse cx="30" cy="12" rx="8" ry="5"/>
    <ellipse cx="20" cy="28" rx="7" ry="4"/>
    <ellipse cx="36" cy="30" rx="5" ry="6"/>
    <ellipse cx="10" cy="36" rx="4" ry="3"/>
  </g>
  <rect x="0" y="0" width="48" height="48" fill="url(#px)" mask="url(#m)" pointer-events="none"/>
</svg>