<svg xmlns="http://www.w3.org/2000/svg" viewBox="0 0 48 48">
  <defs>
    <pattern id="px" width="4" height="4" patternUnits="userSpaceOnUse">
      <rect width="4" height="4" fill="none"/>
      <rect width="2" height="2" fill="rgba(0,0,0,0.2)"/>
    </pattern>
    <mask id="m">
      <rect x="0" y="0" width="48" height="48" fill="black"/>
      <g fill="none" stroke="white" stroke-width="6" stroke-linecap="square" stroke-linejoin="miter" shape-rendering="crispEdges">
    <polygon points="24,8 14,24 20,24 16,36 32,36 28,24 34,24"/>
    <path d="M8 36 L40 36"/>
    <line x1="12" y1="44" x2="36" y2="44"/>
    <line x1="24" y1="36" x2="24" y2="44"/>
      </g>
    </mask>
  </defs>
  <g fill="none" stroke="#e5bbbb" stroke-width="6" stroke-linecap="square" stroke-linejoin="miter" shape-rendering="crispEdges">
    <polygon points="24,8 14,24 20,24 16,36 32,36 28,24 34,24"/>
    <path d="M8 36 L40 36"/>
    <line x1="12" y1="44" x2="36" y2="44"/>
    <line x1="24" y1="36" x2="24" y2="44"/>
  </g>
  <rect x="0" y="0" width="48" height="48" fill="url(#px)" mask="url(#m)" pointer-events="none"/>
</svg>