<svg xmlns="http://www.w3.org/2000/svg" viewBox="0 0 48 48">
  <defs>
    <pattern id="px" width="4" height="4" patternUnits="userSpaceOnUse">
      <rect width="4" height="4" fill="none"/>
      <rect width="2" height="2" fill="rgba(0,0,0,0.2)"/>
    </pattern>
    <mask id="m">
      <rect x="0" y="0" width="48" height="48" fill="black"/>
      <g fill="none" stroke="white" stroke-width="6" stroke-linecap="square" stroke-linejoin="miter" shape-rendering="crispEdges">
    <rect x="6" y="18" width="36" height="22" rx="3"/>
    <path d="M6 18 Q24 8 42 18"/>
    <rect x="10" y="24" width="12" height="10" rx="2"/>
    <rect x="26" y="24" width="12" height="10" rx="2"/>
    <circle cx="16" cy="40" r="4"/>
    <circle cx="36" cy="40" r="4"/>
      </g>
    </mask>
  </defs>
  <g fill="none" stroke="#aac4c9" stroke-width="6" stroke-linecap="square" stroke-linejoin="miter" shape-rendering="crispEdges">
    <rect x="6" y="18" width="36" height="22" rx="3"/>
    <path d="M6 18 Q24 8 42 18"/>
    <rect x="10" y="24" width="12" height="10" rx="2"/>
    <rect x="26" y="24" width="12" height="10" rx="2"/>
    <circle cx="16" cy="40" r="4"/>
    <circle cx="36" cy="40" r="4"/>
  </g>
  <rect x="0" y="0" width="48" height="48" fill="url(#px)" mask="url(#m)" pointer-events="none"/>
</svg>