<svg xmlns="http://www.w3.org/2000/svg" viewBox="0 0 48 48">
  <defs>
    <pattern id="px" width="4" height="4" patternUnits="userSpaceOnUse">
      <rect width="4" height="4" fill="none"/>
      <rect width="2" height="2" fill="rgba(0,0,0,0.2)"/>
    </pattern>
    <mask id="m">
      <rect x="0" y="0" width="48" height="48" fill="black"/>
      <g fill="none" stroke="white" stroke-width="6" stroke-linecap="square" stroke-linejoin="miter" shape-rendering="crispEdges">
    <line x1="24" y1="8" x2="24" y2="44"/>
    <ellipse cx="24" cy="44" rx="4" ry="2"/>
    <path d="M24 8 Q20 12 22 14 Q24 16 26 14 Q28 12 24 8"/>
    <rect x="20" y="30" width="8" height="14" rx="2"/>
      </g>
    </mask>
  </defs>
  <g fill="none" stroke="#d6a6c4" stroke-width="6" stroke-linecap="square" stroke-linejoin="miter" shape-rendering="crispEdges">
    <line x1="24" y1="8" x2="24" y2="44"/>
    <ellipse cx="24" cy="44" rx="4" ry="2"/>
    <path d="M24 8 Q20 12 22 14 Q24 16 26 14 Q28 12 24 8"/>
    <rect x="20" y="30" width="8" height="14" rx="2"/>
  </g>
  <rect x="0" y="0" width="48" height="48" fill="url(#px)" mask="url(#m)" pointer-events="none"/>
</svg>