<svg xmlns="http://www.w3.org/2000/svg" viewBox="0 0 48 48">
  <defs>
    <pattern id="px" width="4" height="4" patternUnits="userSpaceOnUse">
      <rect width="4" height="4" fill="none"/>
      <rect width="2" height="2" fill="rgba(0,0,0,0.2)"/>
    </pattern>
    <mask id="m">
      <rect x="0" y="0" width="48" height="48" fill="black"/>
      <g fill="none" stroke="white" stroke-width="6" stroke-linecap="square" stroke-linejoin="miter" shape-rendering="crispEdges">
    <rect x="18" y="20" width="12" height="22" rx="1.5"/>
    <line x1="24" y1="20" x2="24" y2="14"/>
    <path d="M24 6 Q28 12 28 15 Q28 18 24 18 Q20 18 20 15 Q20 12 24 6 Z"/>
      </g>
    </mask>
  </defs>
  <g fill="none" stroke="#FFA000" stroke-width="6" stroke-linecap="square" stroke-linejoin="miter" shape-rendering="crispEdges">
    <rect x="18" y="20" width="12" height="22" rx="1.5"/>
    <line x1="24" y1="20" x2="24" y2="14"/>
    <path d="M24 6 Q28 12 28 15 Q28 18 24 18 Q20 18 20 15 Q20 12 24 6 Z"/>
  </g>
  <rect x="0" y="0" width="48" height="48" fill="url(#px)" mask="url(#m)" pointer-events="none"/>
</svg>