<svg xmlns="http://www.w3.org/2000/svg" viewBox="0 0 48 48">
  <defs>
    <pattern id="px" width="4" height="4" patternUnits="userSpaceOnUse">
      <rect width="4" height="4" fill="none"/>
      <rect width="2" height="2" fill="rgba(0,0,0,0.2)"/>
    </pattern>
    <mask id="m">
      <rect x="0" y="0" width="48" height="48" fill="black"/>
      <g fill="none" stroke="white" stroke-width="6" stroke-linecap="square" stroke-linejoin="miter" shape-rendering="crispEdges">
    <path d="M4 12 L16 20 L24 14 L36 22 L44 16"/>
    <path d="M4 32 L16 24 L24 30 L36 22 L44 28"/>
    <line x1="16" y1="20" x2="16" y2="24 M36 22 L36 28"/>
      </g>
    </mask>
  </defs>
  <g fill="none" stroke="#cae6e6" stroke-width="6" stroke-linecap="square" stroke-linejoin="miter" shape-rendering="crispEdges">
    <path d="M4 12 L16 20 L24 14 L36 22 L44 16"/>
    <path d="M4 32 L16 24 L24 30 L36 22 L44 28"/>
    <line x1="16" y1="20" x2="16" y2="24 M36 22 L36 28"/>
  </g>
  <rect x="0" y="0" width="48" height="48" fill="url(#px)" mask="url(#m)" pointer-events="none"/>
</svg>