<svg xmlns="http://www.w3.org/2000/svg" viewBox="0 0 48 48">
  <defs>
    <pattern id="px" width="4" height="4" patternUnits="userSpaceOnUse">
      <rect width="4" height="4" fill="none"/>
      <rect width="2" height="2" fill="rgba(0,0,0,0.2)"/>
    </pattern>
    <mask id="m">
      <rect x="0" y="0" width="48" height="48" fill="black"/>
      <g fill="none" stroke="white" stroke-width="6" stroke-linecap="square" stroke-linejoin="miter" shape-rendering="crispEdges">
    <path d="M6 30 L6 22 C6 14 14 12 20 12 L24 12 L28 8 L40 8 C44 8 44 12 44 16 L44 30 Z"/>
    <circle cx="16" cy="32" r="4" fill="white"/>
    <circle cx="34" cy="32" r="4" fill="white"/>
      </g>
    </mask>
  </defs>
  <g fill="none" stroke="#FF7043" stroke-width="6" stroke-linecap="square" stroke-linejoin="miter" shape-rendering="crispEdges">
    <path d="M6 30 L6 22 C6 14 14 12 20 12 L24 12 L28 8 L40 8 C44 8 44 12 44 16 L44 30 Z"/>
    <circle cx="16" cy="32" r="4" fill="#FF7043"/>
    <circle cx="34" cy="32" r="4" fill="#FF7043"/>
  </g>
  <rect x="0" y="0" width="48" height="48" fill="url(#px)" mask="url(#m)" pointer-events="none"/>
</svg>