<svg xmlns="http://www.w3.org/2000/svg" viewBox="0 0 48 48">
  <defs>
    <pattern id="px" width="4" height="4" patternUnits="userSpaceOnUse">
      <rect width="4" height="4" fill="none"/>
      <rect width="2" height="2" fill="rgba(0,0,0,0.2)"/>
    </pattern>
    <mask id="m">
      <rect x="0" y="0" width="48" height="48" fill="black"/>
      <g fill="none" stroke="white" stroke-width="6" stroke-linecap="square" stroke-linejoin="miter" shape-rendering="crispEdges">
    <ellipse cx="24" cy="28" rx="14" ry="8"/>
    <path d="M10 28 L14 40 Q16 44 24 44 Q32 44 34 40 L38 28"/>
    <line x1="10" y1="28" x2="8" y2="18 M38 28 L40 18"/>
    <line x1="8" y1="18" x2="40" y2="18"/>
      </g>
    </mask>
  </defs>
  <g fill="none" stroke="#cdb3b1" stroke-width="6" stroke-linecap="square" stroke-linejoin="miter" shape-rendering="crispEdges">
    <ellipse cx="24" cy="28" rx="14" ry="8"/>
    <path d="M10 28 L14 40 Q16 44 24 44 Q32 44 34 40 L38 28"/>
    <line x1="10" y1="28" x2="8" y2="18 M38 28 L40 18"/>
    <line x1="8" y1="18" x2="40" y2="18"/>
  </g>
  <rect x="0" y="0" width="48" height="48" fill="url(#px)" mask="url(#m)" pointer-events="none"/>
</svg>