<svg xmlns="http://www.w3.org/2000/svg" viewBox="0 0 48 48">
  <defs>
    <pattern id="px" width="4" height="4" patternUnits="userSpaceOnUse">
      <rect width="4" height="4" fill="none"/>
      <rect width="2" height="2" fill="rgba(0,0,0,0.2)"/>
    </pattern>
    <mask id="m">
      <rect x="0" y="0" width="48" height="48" fill="black"/>
      <g fill="none" stroke="white" stroke-width="6" stroke-linecap="square" stroke-linejoin="miter" shape-rendering="crispEdges">
<circle cx="20" cy="16" r="7"/><circle cx="28" cy="16" r="7"/><circle cx="14" cy="22" r="6"/><circle cx="34" cy="22" r="6"/><circle cx="24" cy="12" r="5"/><circle cx="24" cy="22" r="4"/><line x1="24" y1="26" x2="24" y2="40"/><circle cx="24" cy="22" r="2"/>
      </g>
    </mask>
  </defs>
  <g fill="none" stroke="#56a8af" stroke-width="6" stroke-linecap="square" stroke-linejoin="miter" shape-rendering="crispEdges">
<circle cx="20" cy="16" r="7"/><circle cx="28" cy="16" r="7"/><circle cx="14" cy="22" r="6"/><circle cx="34" cy="22" r="6"/><circle cx="24" cy="12" r="5"/><circle cx="24" cy="22" r="4"/><line x1="24" y1="26" x2="24" y2="40"/><circle cx="24" cy="22" r="2"/>
  </g>
  <rect x="0" y="0" width="48" height="48" fill="url(#px)" mask="url(#m)" pointer-events="none"/>
</svg>