<svg xmlns="http://www.w3.org/2000/svg" viewBox="0 0 48 48">
  <defs>
    <pattern id="px" width="4" height="4" patternUnits="userSpaceOnUse">
      <rect width="4" height="4" fill="none"/>
      <rect width="2" height="2" fill="rgba(0,0,0,0.2)"/>
    </pattern>
    <mask id="m">
      <rect x="0" y="0" width="48" height="48" fill="black"/>
      <g fill="none" stroke="white" stroke-width="6" stroke-linecap="square" stroke-linejoin="miter" shape-rendering="crispEdges">
    <path d="M12 44 L12 16 Q12 8 18 6 Q24 4 24 12 L24 24"/>
    <path d="M24 44 L24 16 Q24 6 30 4 Q36 6 36 12 L36 24"/>
    <path d="M18 44 L18 16 M30 44 L30 16"/>
    <ellipse cx="12" cy="12" rx="3" ry="5"/>
    <ellipse cx="36" cy="10" rx="3" ry="5"/>
      </g>
    </mask>
  </defs>
  <g fill="none" stroke="#b3c09f" stroke-width="6" stroke-linecap="square" stroke-linejoin="miter" shape-rendering="crispEdges">
    <path d="M12 44 L12 16 Q12 8 18 6 Q24 4 24 12 L24 24"/>
    <path d="M24 44 L24 16 Q24 6 30 4 Q36 6 36 12 L36 24"/>
    <path d="M18 44 L18 16 M30 44 L30 16"/>
    <ellipse cx="12" cy="12" rx="3" ry="5"/>
    <ellipse cx="36" cy="10" rx="3" ry="5"/>
  </g>
  <rect x="0" y="0" width="48" height="48" fill="url(#px)" mask="url(#m)" pointer-events="none"/>
</svg>