<svg xmlns="http://www.w3.org/2000/svg" viewBox="0 0 48 48">
  <defs>
    <pattern id="px" width="4" height="4" patternUnits="userSpaceOnUse">
      <rect width="4" height="4" fill="none"/>
      <rect width="2" height="2" fill="rgba(0,0,0,0.2)"/>
    </pattern>
    <mask id="m">
      <rect x="0" y="0" width="48" height="48" fill="black"/>
      <g fill="none" stroke="white" stroke-width="6" stroke-linecap="square" stroke-linejoin="miter" shape-rendering="crispEdges">
    <circle cx="10" cy="10" r="5" fill="none" stroke-width="3"/>
    <circle cx="24" cy="18" r="5" fill="none" stroke-width="3"/>
    <circle cx="36" cy="28" r="5" fill="none" stroke-width="3"/>
    <circle cx="14" cy="38" r="5" fill="none" stroke-width="3"/>
    <line x1="14" y1="13" x2="20" y2="16 M28 21 L32 24 M38 32 L18 36"/>
      </g>
    </mask>
  </defs>
  <g fill="none" stroke="#c5a8b9" stroke-width="6" stroke-linecap="square" stroke-linejoin="miter" shape-rendering="crispEdges">
    <circle cx="10" cy="10" r="5" fill="none" stroke-width="3"/>
    <circle cx="24" cy="18" r="5" fill="none" stroke-width="3"/>
    <circle cx="36" cy="28" r="5" fill="none" stroke-width="3"/>
    <circle cx="14" cy="38" r="5" fill="none" stroke-width="3"/>
    <line x1="14" y1="13" x2="20" y2="16 M28 21 L32 24 M38 32 L18 36"/>
  </g>
  <rect x="0" y="0" width="48" height="48" fill="url(#px)" mask="url(#m)" pointer-events="none"/>
</svg>