<svg xmlns="http://www.w3.org/2000/svg" viewBox="0 0 48 48">
  <defs>
    <pattern id="px" width="4" height="4" patternUnits="userSpaceOnUse">
      <rect width="4" height="4" fill="none"/>
      <rect width="2" height="2" fill="rgba(0,0,0,0.2)"/>
    </pattern>
    <mask id="m">
      <rect x="0" y="0" width="48" height="48" fill="black"/>
      <g fill="none" stroke="white" stroke-width="6" stroke-linecap="square" stroke-linejoin="miter" shape-rendering="crispEdges">
<path d="M24 6 Q16 14 16 20 Q16 28 24 28 Q32 28 32 20 Q32 14 24 6"/>
    <path d="M10 28 Q10 38 24 38 Q38 38 38 28"/>
    <circle cx="18" cy="20" r="2"/>
    <circle cx="30" cy="20" r="2"/>
    <path d="M20 24 L24 22 L28 24"/>
      </g>
    </mask>
  </defs>
  <g fill="none" stroke="#c96292" stroke-width="6" stroke-linecap="square" stroke-linejoin="miter" shape-rendering="crispEdges">
<path d="M24 6 Q16 14 16 20 Q16 28 24 28 Q32 28 32 20 Q32 14 24 6"/>
    <path d="M10 28 Q10 38 24 38 Q38 38 38 28"/>
    <circle cx="18" cy="20" r="2"/>
    <circle cx="30" cy="20" r="2"/>
    <path d="M20 24 L24 22 L28 24"/>
  </g>
  <rect x="0" y="0" width="48" height="48" fill="url(#px)" mask="url(#m)" pointer-events="none"/>
</svg>