<svg xmlns="http://www.w3.org/2000/svg" viewBox="0 0 48 48">
  <defs>
    <pattern id="px" width="4" height="4" patternUnits="userSpaceOnUse">
      <rect width="4" height="4" fill="none"/>
      <rect width="2" height="2" fill="rgba(0,0,0,0.2)"/>
    </pattern>
    <mask id="m">
      <rect x="0" y="0" width="48" height="48" fill="black"/>
      <g fill="none" stroke="white" stroke-width="6" stroke-linecap="square" stroke-linejoin="miter" shape-rendering="crispEdges">
    <rect x="6" y="10" width="36" height="28" rx="2"/>
    <line x1="10" y1="18" x2="38" y2="18 M10 24 L38 24 M10 30 L38 30 M10 34 L26 34"/>
    <rect x="10" y="10" width="28" height="4" rx="1"/>
      </g>
    </mask>
  </defs>
  <g fill="none" stroke="#c5a2a0" stroke-width="6" stroke-linecap="square" stroke-linejoin="miter" shape-rendering="crispEdges">
    <rect x="6" y="10" width="36" height="28" rx="2"/>
    <line x1="10" y1="18" x2="38" y2="18 M10 24 L38 24 M10 30 L38 30 M10 34 L26 34"/>
    <rect x="10" y="10" width="28" height="4" rx="1"/>
  </g>
  <rect x="0" y="0" width="48" height="48" fill="url(#px)" mask="url(#m)" pointer-events="none"/>
</svg>