<svg xmlns="http://www.w3.org/2000/svg" viewBox="0 0 48 48">
  <defs>
    <pattern id="px" width="4" height="4" patternUnits="userSpaceOnUse">
      <rect width="4" height="4" fill="none"/>
      <rect width="2" height="2" fill="rgba(0,0,0,0.2)"/>
    </pattern>
    <mask id="m">
      <rect x="0" y="0" width="48" height="48" fill="black"/>
      <g fill="none" stroke="white" stroke-width="6" stroke-linecap="square" stroke-linejoin="miter" shape-rendering="crispEdges">
<ellipse cx="24" cy="26" rx="10" ry="14"/><circle cx="24" cy="8" r="7"/><circle cx="20" cy="6" r="2"/><circle cx="28" cy="6" r="2"/><path d="M28 12 L32 10 M28 16 L34 14 M30 20 L36 18 M30 24 L36 22"/><circle cx="18" cy="24" r="2"/><circle cx="30" cy="24" r="2"/><path d="M18 36 L30 36"/>
      </g>
    </mask>
  </defs>
  <g fill="none" stroke="#af4d92" stroke-width="6" stroke-linecap="square" stroke-linejoin="miter" shape-rendering="crispEdges">
<ellipse cx="24" cy="26" rx="10" ry="14"/><circle cx="24" cy="8" r="7"/><circle cx="20" cy="6" r="2"/><circle cx="28" cy="6" r="2"/><path d="M28 12 L32 10 M28 16 L34 14 M30 20 L36 18 M30 24 L36 22"/><circle cx="18" cy="24" r="2"/><circle cx="30" cy="24" r="2"/><path d="M18 36 L30 36"/>
  </g>
  <rect x="0" y="0" width="48" height="48" fill="url(#px)" mask="url(#m)" pointer-events="none"/>
</svg>