<svg xmlns="http://www.w3.org/2000/svg" viewBox="0 0 48 48">
  <defs>
    <pattern id="px" width="4" height="4" patternUnits="userSpaceOnUse">
      <rect width="4" height="4" fill="none"/>
      <rect width="2" height="2" fill="rgba(0,0,0,0.2)"/>
    </pattern>
    <mask id="m">
      <rect x="0" y="0" width="48" height="48" fill="black"/>
      <g fill="none" stroke="white" stroke-width="6" stroke-linecap="square" stroke-linejoin="miter" shape-rendering="crispEdges">
    <ellipse cx="24" cy="24" rx="15" ry="8"/>
    <circle cx="24" cy="16" r="5"/>
    <circle cx="21" cy="14" r="2"/>
    <circle cx="27" cy="14" r="2"/>
    <path d="M14 20 L14 24 M10 22 L10 26 M34 20 L34 24 M38 22 L38 26"/>
    <path d="M18 28 Q24 32 30 28"/>
    <line x1="24" y1="28" x2="24" y2="42"/>
      </g>
    </mask>
  </defs>
  <g fill="none" stroke="#e0b5b1" stroke-width="6" stroke-linecap="square" stroke-linejoin="miter" shape-rendering="crispEdges">
    <ellipse cx="24" cy="24" rx="15" ry="8"/>
    <circle cx="24" cy="16" r="5"/>
    <circle cx="21" cy="14" r="2"/>
    <circle cx="27" cy="14" r="2"/>
    <path d="M14 20 L14 24 M10 22 L10 26 M34 20 L34 24 M38 22 L38 26"/>
    <path d="M18 28 Q24 32 30 28"/>
    <line x1="24" y1="28" x2="24" y2="42"/>
  </g>
  <rect x="0" y="0" width="48" height="48" fill="url(#px)" mask="url(#m)" pointer-events="none"/>
</svg>