<svg xmlns="http://www.w3.org/2000/svg" viewBox="0 0 48 48">
  <defs>
    <pattern id="px" width="4" height="4" patternUnits="userSpaceOnUse">
      <rect width="4" height="4" fill="none"/>
      <rect width="2" height="2" fill="rgba(0,0,0,0.2)"/>
    </pattern>
    <mask id="m">
      <rect x="0" y="0" width="48" height="48" fill="black"/>
      <g fill="none" stroke="white" stroke-width="6" stroke-linecap="square" stroke-linejoin="miter" shape-rendering="crispEdges">
<polygon points="24,4 10,22 18,22 6,38 42,38 30,22 38,22"/>
    <rect x="22" y="38" width="4" height="4"/>
    <circle cx="16" cy="22" r="1.5"/><circle cx="32" cy="22" r="1.5"/>
    <circle cx="24" cy="16" r="1.5"/>
    <circle cx="24" cy="28" r="1.5"/>
      </g>
    </mask>
  </defs>
  <g fill="none" stroke="#988e3d" stroke-width="6" stroke-linecap="square" stroke-linejoin="miter" shape-rendering="crispEdges">
<polygon points="24,4 10,22 18,22 6,38 42,38 30,22 38,22"/>
    <rect x="22" y="38" width="4" height="4"/>
    <circle cx="16" cy="22" r="1.5"/><circle cx="32" cy="22" r="1.5"/>
    <circle cx="24" cy="16" r="1.5"/>
    <circle cx="24" cy="28" r="1.5"/>
  </g>
  <rect x="0" y="0" width="48" height="48" fill="url(#px)" mask="url(#m)" pointer-events="none"/>
</svg>