<svg xmlns="http://www.w3.org/2000/svg" viewBox="0 0 48 48">
  <defs>
    <pattern id="px" width="4" height="4" patternUnits="userSpaceOnUse">
      <rect width="4" height="4" fill="none"/>
      <rect width="2" height="2" fill="rgba(0,0,0,0.2)"/>
    </pattern>
    <mask id="m">
      <rect x="0" y="0" width="48" height="48" fill="black"/>
      <g fill="none" stroke="white" stroke-width="6" stroke-linecap="square" stroke-linejoin="miter" shape-rendering="crispEdges">
    <path d="M24 4 L24 44 M24 4 L4 24 L4 44 M24 24 L44 16 L44 44"/>
    <path d="M8 28 L20 28 M12 34 L22 34 M6 40 L18 40 M28 30 L40 30 M30 36 L42 36 M32 42 L44 42"/>
      </g>
    </mask>
  </defs>
  <g fill="none" stroke="#b9accc" stroke-width="6" stroke-linecap="square" stroke-linejoin="miter" shape-rendering="crispEdges">
    <path d="M24 4 L24 44 M24 4 L4 24 L4 44 M24 24 L44 16 L44 44"/>
    <path d="M8 28 L20 28 M12 34 L22 34 M6 40 L18 40 M28 30 L40 30 M30 36 L42 36 M32 42 L44 42"/>
  </g>
  <rect x="0" y="0" width="48" height="48" fill="url(#px)" mask="url(#m)" pointer-events="none"/>
</svg>