<svg xmlns="http://www.w3.org/2000/svg" viewBox="0 0 48 48">
  <defs>
    <pattern id="px" width="4" height="4" patternUnits="userSpaceOnUse">
      <rect width="4" height="4" fill="none"/>
      <rect width="2" height="2" fill="rgba(0,0,0,0.2)"/>
    </pattern>
    <mask id="m">
      <rect x="0" y="0" width="48" height="48" fill="black"/>
      <g fill="none" stroke="white" stroke-width="6" stroke-linecap="square" stroke-linejoin="miter" shape-rendering="crispEdges">
    <rect x="8" y="10" width="32" height="34" rx="3"/>
    <rect x="8" y="10" width="32" height="6" rx="2"/>
    <line x1="12" y1="22" x2="36" y2="22 M12 28 L36 28 M12 34 L36 34 M12 40 L36 40"/>
    <circle cx="24" cy="8" r="4"/>
      </g>
    </mask>
  </defs>
  <g fill="none" stroke="#b9e3b4" stroke-width="6" stroke-linecap="square" stroke-linejoin="miter" shape-rendering="crispEdges">
    <rect x="8" y="10" width="32" height="34" rx="3"/>
    <rect x="8" y="10" width="32" height="6" rx="2"/>
    <line x1="12" y1="22" x2="36" y2="22 M12 28 L36 28 M12 34 L36 34 M12 40 L36 40"/>
    <circle cx="24" cy="8" r="4"/>
  </g>
  <rect x="0" y="0" width="48" height="48" fill="url(#px)" mask="url(#m)" pointer-events="none"/>
</svg>