<svg xmlns="http://www.w3.org/2000/svg" viewBox="0 0 48 48">
  <defs>
    <pattern id="px" width="4" height="4" patternUnits="userSpaceOnUse">
      <rect width="4" height="4" fill="none"/>
      <rect width="2" height="2" fill="rgba(0,0,0,0.2)"/>
    </pattern>
    <mask id="m">
      <rect x="0" y="0" width="48" height="48" fill="black"/>
      <g fill="none" stroke="white" stroke-width="6" stroke-linecap="square" stroke-linejoin="miter" shape-rendering="crispEdges">
    <path d="M8 20 L10 42 Q10 44 16 44 L32 44 Q36 44 36 42 L38 20 Z"/>
    <line x1="8" y1="28" x2="38" y2="28 M8 36 L38 36"/>
    <rect x="12" y="8" width="20" height="12" rx="6"/>
      </g>
    </mask>
  </defs>
  <g fill="none" stroke="#a4b0c0" stroke-width="6" stroke-linecap="square" stroke-linejoin="miter" shape-rendering="crispEdges">
    <path d="M8 20 L10 42 Q10 44 16 44 L32 44 Q36 44 36 42 L38 20 Z"/>
    <line x1="8" y1="28" x2="38" y2="28 M8 36 L38 36"/>
    <rect x="12" y="8" width="20" height="12" rx="6"/>
  </g>
  <rect x="0" y="0" width="48" height="48" fill="url(#px)" mask="url(#m)" pointer-events="none"/>
</svg>