<svg xmlns="http://www.w3.org/2000/svg" viewBox="0 0 48 48">
  <defs>
    <pattern id="px" width="4" height="4" patternUnits="userSpaceOnUse">
      <rect width="4" height="4" fill="none"/>
      <rect width="2" height="2" fill="rgba(0,0,0,0.2)"/>
    </pattern>
    <mask id="m">
      <rect x="0" y="0" width="48" height="48" fill="black"/>
      <g fill="none" stroke="white" stroke-width="6" stroke-linecap="square" stroke-linejoin="miter" shape-rendering="crispEdges">
    <rect x="16" y="10" width="16" height="28" rx="3"/>
    <line x1="16" y1="14" x2="32" y2="14 M16 24 L32 24 M16 34 L32 34"/>
    <circle cx="24" cy="38" r="4"/>
    <line x1="20" y1="38" x2="28" y2="38"/>
      </g>
    </mask>
  </defs>
  <g fill="none" stroke="#cbddb9" stroke-width="6" stroke-linecap="square" stroke-linejoin="miter" shape-rendering="crispEdges">
    <rect x="16" y="10" width="16" height="28" rx="3"/>
    <line x1="16" y1="14" x2="32" y2="14 M16 24 L32 24 M16 34 L32 34"/>
    <circle cx="24" cy="38" r="4"/>
    <line x1="20" y1="38" x2="28" y2="38"/>
  </g>
  <rect x="0" y="0" width="48" height="48" fill="url(#px)" mask="url(#m)" pointer-events="none"/>
</svg>