<svg xmlns="http://www.w3.org/2000/svg" viewBox="0 0 48 48">
  <defs>
    <pattern id="px" width="4" height="4" patternUnits="userSpaceOnUse">
      <rect width="4" height="4" fill="none"/>
      <rect width="2" height="2" fill="rgba(0,0,0,0.2)"/>
    </pattern>
    <mask id="m">
      <rect x="0" y="0" width="48" height="48" fill="black"/>
      <g fill="none" stroke="white" stroke-width="6" stroke-linecap="square" stroke-linejoin="miter" shape-rendering="crispEdges">
<path d="M10 38 Q10 8 24 8 Q38 8 38 38"/><circle cx="24" cy="10" r="5"/><circle cx="22" cy="8" r="2"/><circle cx="26" cy="8" r="2"/><path d="M18 22 L30 22"/><rect x="20" y="18" width="8" height="10" rx="3"/><line x1="19" y1="28" x2="12" y2="34"/><line x1="29" y1="28" x2="36" y2="34"/>
      </g>
    </mask>
  </defs>
  <g fill="none" stroke="#965833" stroke-width="6" stroke-linecap="square" stroke-linejoin="miter" shape-rendering="crispEdges">
<path d="M10 38 Q10 8 24 8 Q38 8 38 38"/><circle cx="24" cy="10" r="5"/><circle cx="22" cy="8" r="2"/><circle cx="26" cy="8" r="2"/><path d="M18 22 L30 22"/><rect x="20" y="18" width="8" height="10" rx="3"/><line x1="19" y1="28" x2="12" y2="34"/><line x1="29" y1="28" x2="36" y2="34"/>
  </g>
  <rect x="0" y="0" width="48" height="48" fill="url(#px)" mask="url(#m)" pointer-events="none"/>
</svg>