<svg xmlns="http://www.w3.org/2000/svg" viewBox="0 0 48 48">
  <defs>
    <pattern id="px" width="4" height="4" patternUnits="userSpaceOnUse">
      <rect width="4" height="4" fill="none"/>
      <rect width="2" height="2" fill="rgba(0,0,0,0.2)"/>
    </pattern>
    <mask id="m">
      <rect x="0" y="0" width="48" height="48" fill="black"/>
      <g fill="none" stroke="white" stroke-width="6" stroke-linecap="square" stroke-linejoin="miter" shape-rendering="crispEdges">
<ellipse cx="24" cy="16" rx="16" ry="6"/><path d="M8 16 L8 36 Q8 42 24 42 Q40 42 40 36 L40 16"/><line x1="8" y1="24" x2="40" y2="24"/><line x1="8" y1="32" x2="40" y2="32"/><circle cx="14" cy="18" r="1.5"/><circle cx="24" cy="18" r="1.5"/><circle cx="34" cy="18" r="1.5"/><circle cx="18" cy="28" r="1.5"/><circle cx="30" cy="28" r="1.5"/>
      </g>
    </mask>
  </defs>
  <g fill="none" stroke="#4769a3" stroke-width="6" stroke-linecap="square" stroke-linejoin="miter" shape-rendering="crispEdges">
<ellipse cx="24" cy="16" rx="16" ry="6"/><path d="M8 16 L8 36 Q8 42 24 42 Q40 42 40 36 L40 16"/><line x1="8" y1="24" x2="40" y2="24"/><line x1="8" y1="32" x2="40" y2="32"/><circle cx="14" cy="18" r="1.5"/><circle cx="24" cy="18" r="1.5"/><circle cx="34" cy="18" r="1.5"/><circle cx="18" cy="28" r="1.5"/><circle cx="30" cy="28" r="1.5"/>
  </g>
  <rect x="0" y="0" width="48" height="48" fill="url(#px)" mask="url(#m)" pointer-events="none"/>
</svg>