<svg xmlns="http://www.w3.org/2000/svg" viewBox="0 0 48 48">
  <defs>
    <pattern id="px" width="4" height="4" patternUnits="userSpaceOnUse">
      <rect width="4" height="4" fill="none"/>
      <rect width="2" height="2" fill="rgba(0,0,0,0.2)"/>
    </pattern>
    <mask id="m">
      <rect x="0" y="0" width="48" height="48" fill="black"/>
      <g fill="none" stroke="white" stroke-width="6" stroke-linecap="square" stroke-linejoin="miter" shape-rendering="crispEdges">
    <ellipse cx="24" cy="14" rx="16" ry="8"/>
    <path d="M8 14 L10 38 Q10 42 24 42 Q38 42 38 38 L40 14"/>
    <circle cx="16" cy="22" r="2" fill="currentColor"/>
    <circle cx="24" cy="20" r="2" fill="currentColor"/>
    <circle cx="32" cy="22" r="2" fill="currentColor"/>
    <circle cx="20" cy="28" r="2" fill="currentColor"/>
    <circle cx="28" cy="28" r="2" fill="currentColor"/>
      </g>
    </mask>
  </defs>
  <g fill="none" stroke="#acdeaa" stroke-width="6" stroke-linecap="square" stroke-linejoin="miter" shape-rendering="crispEdges">
    <ellipse cx="24" cy="14" rx="16" ry="8"/>
    <path d="M8 14 L10 38 Q10 42 24 42 Q38 42 38 38 L40 14"/>
    <circle cx="16" cy="22" r="2" fill="currentColor"/>
    <circle cx="24" cy="20" r="2" fill="currentColor"/>
    <circle cx="32" cy="22" r="2" fill="currentColor"/>
    <circle cx="20" cy="28" r="2" fill="currentColor"/>
    <circle cx="28" cy="28" r="2" fill="currentColor"/>
  </g>
  <rect x="0" y="0" width="48" height="48" fill="url(#px)" mask="url(#m)" pointer-events="none"/>
</svg>