<svg xmlns="http://www.w3.org/2000/svg" viewBox="0 0 48 48">
  <defs>
    <pattern id="px" width="4" height="4" patternUnits="userSpaceOnUse">
      <rect width="4" height="4" fill="none"/>
      <rect width="2" height="2" fill="rgba(0,0,0,0.2)"/>
    </pattern>
    <mask id="m">
      <rect x="0" y="0" width="48" height="48" fill="black"/>
      <g fill="none" stroke="white" stroke-width="6" stroke-linecap="square" stroke-linejoin="miter" shape-rendering="crispEdges">
<line x1="10" y1="8" x2="10" y2="40"/><line x1="14" y1="8" x2="14" y2="40"/><line x1="18" y1="8" x2="18" y2="40"/><line x1="22" y1="8" x2="22" y2="40"/><line x1="26" y1="8" x2="26" y2="40"/><line x1="30" y1="8" x2="30" y2="40"/><path d="M10 8 L30 8 L34 12 L34 16 L30 20 L10 20 Z"/>
      </g>
    </mask>
  </defs>
  <g fill="none" stroke="#469642" stroke-width="6" stroke-linecap="square" stroke-linejoin="miter" shape-rendering="crispEdges">
<line x1="10" y1="8" x2="10" y2="40"/><line x1="14" y1="8" x2="14" y2="40"/><line x1="18" y1="8" x2="18" y2="40"/><line x1="22" y1="8" x2="22" y2="40"/><line x1="26" y1="8" x2="26" y2="40"/><line x1="30" y1="8" x2="30" y2="40"/><path d="M10 8 L30 8 L34 12 L34 16 L30 20 L10 20 Z"/>
  </g>
  <rect x="0" y="0" width="48" height="48" fill="url(#px)" mask="url(#m)" pointer-events="none"/>
</svg>