<svg xmlns="http://www.w3.org/2000/svg" viewBox="0 0 48 48">
  <defs>
    <pattern id="px" width="4" height="4" patternUnits="userSpaceOnUse">
      <rect width="4" height="4" fill="none"/>
      <rect width="2" height="2" fill="rgba(0,0,0,0.2)"/>
    </pattern>
    <mask id="m">
      <rect x="0" y="0" width="48" height="48" fill="black"/>
      <g fill="none" stroke="white" stroke-width="6" stroke-linecap="square" stroke-linejoin="miter" shape-rendering="crispEdges">
    <path d="M8 12a4 4 0 014-4h24a4 4 0 014 4v14a4 4 0 01-4 4H18l-8 8V12z"/>
    <circle cx="20" cy="19" r="2" fill="white"/>
    <circle cx="28" cy="19" r="2" fill="white"/>
    <circle cx="36" cy="19" r="2" fill="white"/>
      </g>
    </mask>
  </defs>
  <g fill="none" stroke="#64B5F6" stroke-width="6" stroke-linecap="square" stroke-linejoin="miter" shape-rendering="crispEdges">
    <path d="M8 12a4 4 0 014-4h24a4 4 0 014 4v14a4 4 0 01-4 4H18l-8 8V12z"/>
    <circle cx="20" cy="19" r="2" fill="#64B5F6"/>
    <circle cx="28" cy="19" r="2" fill="#64B5F6"/>
    <circle cx="36" cy="19" r="2" fill="#64B5F6"/>
  </g>
  <rect x="0" y="0" width="48" height="48" fill="url(#px)" mask="url(#m)" pointer-events="none"/>
</svg>