<svg xmlns="http://www.w3.org/2000/svg" viewBox="0 0 48 48">
  <defs>
    <pattern id="px" width="4" height="4" patternUnits="userSpaceOnUse">
      <rect width="4" height="4" fill="none"/>
      <rect width="2" height="2" fill="rgba(0,0,0,0.2)"/>
    </pattern>
    <mask id="m">
      <rect x="0" y="0" width="48" height="48" fill="black"/>
      <g fill="none" stroke="white" stroke-width="6" stroke-linecap="square" stroke-linejoin="miter" shape-rendering="crispEdges">
    <circle cx="24" cy="24" r="16"/>
    <circle cx="18" cy="18" r="3" fill="currentColor"/>
    <circle cx="30" cy="18" r="3" fill="currentColor"/>
    <path d="M16 28 L32 28 M18 34 L30 34"/>
    <line x1="34" y1="14" x2="28" y2="20 M14 14 L20 20"/>
      </g>
    </mask>
  </defs>
  <g fill="none" stroke="#9dc5a7" stroke-width="6" stroke-linecap="square" stroke-linejoin="miter" shape-rendering="crispEdges">
    <circle cx="24" cy="24" r="16"/>
    <circle cx="18" cy="18" r="3" fill="currentColor"/>
    <circle cx="30" cy="18" r="3" fill="currentColor"/>
    <path d="M16 28 L32 28 M18 34 L30 34"/>
    <line x1="34" y1="14" x2="28" y2="20 M14 14 L20 20"/>
  </g>
  <rect x="0" y="0" width="48" height="48" fill="url(#px)" mask="url(#m)" pointer-events="none"/>
</svg>