<svg xmlns="http://www.w3.org/2000/svg" viewBox="0 0 48 48">
  <defs>
    <pattern id="px" width="4" height="4" patternUnits="userSpaceOnUse">
      <rect width="4" height="4" fill="none"/>
      <rect width="2" height="2" fill="rgba(0,0,0,0.2)"/>
    </pattern>
    <mask id="m">
      <rect x="0" y="0" width="48" height="48" fill="black"/>
      <g fill="none" stroke="white" stroke-width="6" stroke-linecap="square" stroke-linejoin="miter" shape-rendering="crispEdges">
    <rect x="8" y="10" width="24" height="18" rx="2"/>
    <line x1="14" y1="28" x2="26" y2="28"/>
    <line x1="20" y1="28" x2="20" y2="36"/>
    <line x1="16" y1="36" x2="24" y2="36"/>
    <line x1="36" y1="12" x2="44" y2="12"/>
    <line x1="36" y1="18" x2="44" y2="18"/>
    <line x1="36" y1="24" x2="44" y2="24"/>
    <circle cx="36" cy="12" r="3.5" fill="white"/>
    <circle cx="40" cy="18" r="3.5" fill="white"/>
    <circle cx="38" cy="24" r="3.5" fill="white"/>
      </g>
    </mask>
  </defs>
  <g fill="none" stroke="#6D4C41" stroke-width="6" stroke-linecap="square" stroke-linejoin="miter" shape-rendering="crispEdges">
    <rect x="8" y="10" width="24" height="18" rx="2"/>
    <line x1="14" y1="28" x2="26" y2="28"/>
    <line x1="20" y1="28" x2="20" y2="36"/>
    <line x1="16" y1="36" x2="24" y2="36"/>
    <line x1="36" y1="12" x2="44" y2="12"/>
    <line x1="36" y1="18" x2="44" y2="18"/>
    <line x1="36" y1="24" x2="44" y2="24"/>
    <circle cx="36" cy="12" r="3.5" fill="#6D4C41"/>
    <circle cx="40" cy="18" r="3.5" fill="#6D4C41"/>
    <circle cx="38" cy="24" r="3.5" fill="#6D4C41"/>
  </g>
  <rect x="0" y="0" width="48" height="48" fill="url(#px)" mask="url(#m)" pointer-events="none"/>
</svg>