<svg xmlns="http://www.w3.org/2000/svg" viewBox="0 0 48 48">
  <defs>
    <pattern id="px" width="4" height="4" patternUnits="userSpaceOnUse">
      <rect width="4" height="4" fill="none"/>
      <rect width="2" height="2" fill="rgba(0,0,0,0.2)"/>
    </pattern>
    <mask id="m">
      <rect x="0" y="0" width="48" height="48" fill="black"/>
      <g fill="none" stroke="white" stroke-width="6" stroke-linecap="square" stroke-linejoin="miter" shape-rendering="crispEdges">
    <circle cx="24" cy="8" r="5"/>
    <circle cx="22" cy="6" r="2"/>
    <line x1="24" y1="13" x2="24" y2="44"/>
    <line x1="24" y1="20" x2="10" y2="28 M24 20 L38 28 M24 30 L12 38 M24 30 L36 38"/>
      </g>
    </mask>
  </defs>
  <g fill="none" stroke="#9fc0c7" stroke-width="6" stroke-linecap="square" stroke-linejoin="miter" shape-rendering="crispEdges">
    <circle cx="24" cy="8" r="5"/>
    <circle cx="22" cy="6" r="2"/>
    <line x1="24" y1="13" x2="24" y2="44"/>
    <line x1="24" y1="20" x2="10" y2="28 M24 20 L38 28 M24 30 L12 38 M24 30 L36 38"/>
  </g>
  <rect x="0" y="0" width="48" height="48" fill="url(#px)" mask="url(#m)" pointer-events="none"/>
</svg>