<svg xmlns="http://www.w3.org/2000/svg" viewBox="0 0 48 48">
  <defs>
    <pattern id="px" width="4" height="4" patternUnits="userSpaceOnUse">
      <rect width="4" height="4" fill="none"/>
      <rect width="2" height="2" fill="rgba(0,0,0,0.2)"/>
    </pattern>
    <mask id="m">
      <rect x="0" y="0" width="48" height="48" fill="black"/>
      <g fill="none" stroke="white" stroke-width="6" stroke-linecap="square" stroke-linejoin="miter" shape-rendering="crispEdges">
    <path d="M12 44 L12 20 Q12 14 16 12 Q20 10 20 16 L20 24"/>
    <path d="M24 44 L24 16 Q24 8 30 6 Q36 4 34 12 L34 22"/>
    <path d="M36 44 L36 24 Q36 18 40 16 Q44 14 42 20 L42 28"/>
    <circle cx="16" cy="8" r="2"/>
    <circle cx="30" cy="4" r="2"/>
    <circle cx="40" cy="14" r="2"/>
      </g>
    </mask>
  </defs>
  <g fill="none" stroke="#c4d5df" stroke-width="6" stroke-linecap="square" stroke-linejoin="miter" shape-rendering="crispEdges">
    <path d="M12 44 L12 20 Q12 14 16 12 Q20 10 20 16 L20 24"/>
    <path d="M24 44 L24 16 Q24 8 30 6 Q36 4 34 12 L34 22"/>
    <path d="M36 44 L36 24 Q36 18 40 16 Q44 14 42 20 L42 28"/>
    <circle cx="16" cy="8" r="2"/>
    <circle cx="30" cy="4" r="2"/>
    <circle cx="40" cy="14" r="2"/>
  </g>
  <rect x="0" y="0" width="48" height="48" fill="url(#px)" mask="url(#m)" pointer-events="none"/>
</svg>