<svg xmlns="http://www.w3.org/2000/svg" viewBox="0 0 48 48">
  <defs>
    <pattern id="px" width="4" height="4" patternUnits="userSpaceOnUse">
      <rect width="4" height="4" fill="none"/>
      <rect width="2" height="2" fill="rgba(0,0,0,0.2)"/>
    </pattern>
    <mask id="m">
      <rect x="0" y="0" width="48" height="48" fill="black"/>
      <g fill="none" stroke="white" stroke-width="6" stroke-linecap="square" stroke-linejoin="miter" shape-rendering="crispEdges">
<line x1="18" y1="10" x2="18" y2="40"/><line x1="30" y1="14" x2="30" y2="40"/><line x1="12" y1="18" x2="12" y2="40"/><line x1="36" y1="20" x2="36" y2="40"/><circle cx="18" cy="10" r="3"/><circle cx="30" cy="14" r="3"/><circle cx="12" cy="18" r="2"/><circle cx="36" cy="20" r="2"/><line x1="12" y1="18" x2="6" y2="22"/><line x1="36" y1="20" x2="42" y2="24"/>
      </g>
    </mask>
  </defs>
  <g fill="none" stroke="#76c977" stroke-width="6" stroke-linecap="square" stroke-linejoin="miter" shape-rendering="crispEdges">
<line x1="18" y1="10" x2="18" y2="40"/><line x1="30" y1="14" x2="30" y2="40"/><line x1="12" y1="18" x2="12" y2="40"/><line x1="36" y1="20" x2="36" y2="40"/><circle cx="18" cy="10" r="3"/><circle cx="30" cy="14" r="3"/><circle cx="12" cy="18" r="2"/><circle cx="36" cy="20" r="2"/><line x1="12" y1="18" x2="6" y2="22"/><line x1="36" y1="20" x2="42" y2="24"/>
  </g>
  <rect x="0" y="0" width="48" height="48" fill="url(#px)" mask="url(#m)" pointer-events="none"/>
</svg>