<svg xmlns="http://www.w3.org/2000/svg" viewBox="0 0 48 48">
  <defs>
    <pattern id="px" width="4" height="4" patternUnits="userSpaceOnUse">
      <rect width="4" height="4" fill="none"/>
      <rect width="2" height="2" fill="rgba(0,0,0,0.2)"/>
    </pattern>
    <mask id="m">
      <rect x="0" y="0" width="48" height="48" fill="black"/>
      <g fill="none" stroke="white" stroke-width="6" stroke-linecap="square" stroke-linejoin="miter" shape-rendering="crispEdges">
<path d="M12 36 Q12 8 24 8 Q36 8 36 36 Z"/>
    <line x1="12" y1="28" x2="36" y2="28"/>
    <line x1="10" y1="34" x2="38" y2="34"/>
    <circle cx="16" cy="22" r="1.5"/>
    <circle cx="24" cy="22" r="1.5"/>
    <circle cx="32" cy="22" r="1.5"/>
      </g>
    </mask>
  </defs>
  <g fill="none" stroke="#aa74b2" stroke-width="6" stroke-linecap="square" stroke-linejoin="miter" shape-rendering="crispEdges">
<path d="M12 36 Q12 8 24 8 Q36 8 36 36 Z"/>
    <line x1="12" y1="28" x2="36" y2="28"/>
    <line x1="10" y1="34" x2="38" y2="34"/>
    <circle cx="16" cy="22" r="1.5"/>
    <circle cx="24" cy="22" r="1.5"/>
    <circle cx="32" cy="22" r="1.5"/>
  </g>
  <rect x="0" y="0" width="48" height="48" fill="url(#px)" mask="url(#m)" pointer-events="none"/>
</svg>