<svg xmlns="http://www.w3.org/2000/svg" viewBox="0 0 48 48">
  <defs>
    <pattern id="px" width="4" height="4" patternUnits="userSpaceOnUse">
      <rect width="4" height="4" fill="none"/>
      <rect width="2" height="2" fill="rgba(0,0,0,0.2)"/>
    </pattern>
    <mask id="m">
      <rect x="0" y="0" width="48" height="48" fill="black"/>
      <g fill="none" stroke="white" stroke-width="6" stroke-linecap="square" stroke-linejoin="miter" shape-rendering="crispEdges">
    <rect x="8" y="18" width="32" height="26" rx="2"/>
    <rect x="14" y="26" width="8" height="8" rx="1"/>
    <rect x="26" y="26" width="8" height="8" rx="1"/>
    <polygon points="24,6 4,20 44,20"/>
    <rect x="18" y="38" width="12" height="6" rx="2"/>
      </g>
    </mask>
  </defs>
  <g fill="none" stroke="#d5b1da" stroke-width="6" stroke-linecap="square" stroke-linejoin="miter" shape-rendering="crispEdges">
    <rect x="8" y="18" width="32" height="26" rx="2"/>
    <rect x="14" y="26" width="8" height="8" rx="1"/>
    <rect x="26" y="26" width="8" height="8" rx="1"/>
    <polygon points="24,6 4,20 44,20"/>
    <rect x="18" y="38" width="12" height="6" rx="2"/>
  </g>
  <rect x="0" y="0" width="48" height="48" fill="url(#px)" mask="url(#m)" pointer-events="none"/>
</svg>