<svg xmlns="http://www.w3.org/2000/svg" viewBox="0 0 48 48">
  <defs>
    <pattern id="px" width="4" height="4" patternUnits="userSpaceOnUse">
      <rect width="4" height="4" fill="none"/>
      <rect width="2" height="2" fill="rgba(0,0,0,0.2)"/>
    </pattern>
    <mask id="m">
      <rect x="0" y="0" width="48" height="48" fill="black"/>
      <g fill="none" stroke="white" stroke-width="6" stroke-linecap="square" stroke-linejoin="miter" shape-rendering="crispEdges">
    <rect x="4" y="18" width="40" height="16" rx="4"/>
    <path d="M8 18 L18 8 L34 8 L40 18"/>
    <rect x="18" y="12" width="10" height="6" rx="2"/>
    <circle cx="14" cy="34" r="5"/>
    <circle cx="34" cy="34" r="5"/>
      </g>
    </mask>
  </defs>
  <g fill="none" stroke="#ccb3bb" stroke-width="6" stroke-linecap="square" stroke-linejoin="miter" shape-rendering="crispEdges">
    <rect x="4" y="18" width="40" height="16" rx="4"/>
    <path d="M8 18 L18 8 L34 8 L40 18"/>
    <rect x="18" y="12" width="10" height="6" rx="2"/>
    <circle cx="14" cy="34" r="5"/>
    <circle cx="34" cy="34" r="5"/>
  </g>
  <rect x="0" y="0" width="48" height="48" fill="url(#px)" mask="url(#m)" pointer-events="none"/>
</svg>