<svg xmlns="http://www.w3.org/2000/svg" viewBox="0 0 48 48">
  <defs>
    <pattern id="px" width="4" height="4" patternUnits="userSpaceOnUse">
      <rect width="4" height="4" fill="none"/>
      <rect width="2" height="2" fill="rgba(0,0,0,0.2)"/>
    </pattern>
    <mask id="m">
      <rect x="0" y="0" width="48" height="48" fill="black"/>
      <g fill="none" stroke="white" stroke-width="6" stroke-linecap="square" stroke-linejoin="miter" shape-rendering="crispEdges">
    <ellipse cx="24" cy="24" rx="12" ry="8"/>
    <polygon points="14,16 20,6 24,18"/>
    <polygon points="34,16 28,6 24,18"/>
    <circle cx="20" cy="20" r="2"/>
    <circle cx="28" cy="20" r="2"/>
    <path d="M20 26 Q24 30 28 26"/>
    <path d="M16 28 L10 44 M32 28 L38 44"/>
      </g>
    </mask>
  </defs>
  <g fill="none" stroke="#9ea5bf" stroke-width="6" stroke-linecap="square" stroke-linejoin="miter" shape-rendering="crispEdges">
    <ellipse cx="24" cy="24" rx="12" ry="8"/>
    <polygon points="14,16 20,6 24,18"/>
    <polygon points="34,16 28,6 24,18"/>
    <circle cx="20" cy="20" r="2"/>
    <circle cx="28" cy="20" r="2"/>
    <path d="M20 26 Q24 30 28 26"/>
    <path d="M16 28 L10 44 M32 28 L38 44"/>
  </g>
  <rect x="0" y="0" width="48" height="48" fill="url(#px)" mask="url(#m)" pointer-events="none"/>
</svg>