<svg xmlns="http://www.w3.org/2000/svg" viewBox="0 0 48 48">
  <defs>
    <pattern id="px" width="4" height="4" patternUnits="userSpaceOnUse">
      <rect width="4" height="4" fill="none"/>
      <rect width="2" height="2" fill="rgba(0,0,0,0.2)"/>
    </pattern>
    <mask id="m">
      <rect x="0" y="0" width="48" height="48" fill="black"/>
      <g fill="none" stroke="white" stroke-width="6" stroke-linecap="square" stroke-linejoin="miter" shape-rendering="crispEdges">
    <ellipse cx="24" cy="20" rx="7" ry="4"/>
    <path d="M17 18 L8 10 L12 10 L18 14"/>
    <path d="M31 18 L40 10 L36 10 L30 14"/>
    <path d="M12 20 L4 22 L6 26 L14 22"/>
    <path d="M36 20 L44 22 L42 26 L34 22"/>
    <path d="M24 20 L24 44 M20 26 L28 26"/>
      </g>
    </mask>
  </defs>
  <g fill="none" stroke="#a9e5dd" stroke-width="6" stroke-linecap="square" stroke-linejoin="miter" shape-rendering="crispEdges">
    <ellipse cx="24" cy="20" rx="7" ry="4"/>
    <path d="M17 18 L8 10 L12 10 L18 14"/>
    <path d="M31 18 L40 10 L36 10 L30 14"/>
    <path d="M12 20 L4 22 L6 26 L14 22"/>
    <path d="M36 20 L44 22 L42 26 L34 22"/>
    <path d="M24 20 L24 44 M20 26 L28 26"/>
  </g>
  <rect x="0" y="0" width="48" height="48" fill="url(#px)" mask="url(#m)" pointer-events="none"/>
</svg>