<svg xmlns="http://www.w3.org/2000/svg" viewBox="0 0 48 48">
  <defs>
    <pattern id="px" width="4" height="4" patternUnits="userSpaceOnUse">
      <rect width="4" height="4" fill="none"/>
      <rect width="2" height="2" fill="rgba(0,0,0,0.2)"/>
    </pattern>
    <mask id="m">
      <rect x="0" y="0" width="48" height="48" fill="black"/>
      <g fill="none" stroke="white" stroke-width="6" stroke-linecap="square" stroke-linejoin="miter" shape-rendering="crispEdges">
    <path d="M8 10 L14 42 L34 42 L40 10 Z"/>
    <line x1="8" y1="20" x2="40" y2="20 M8 30 L40 30"/>
    <path d="M8 10 Q24 4 40 10"/>
    <line x1="24" y1="6" x2="24" y2="42"/>
      </g>
    </mask>
  </defs>
  <g fill="none" stroke="#b2c3ce" stroke-width="6" stroke-linecap="square" stroke-linejoin="miter" shape-rendering="crispEdges">
    <path d="M8 10 L14 42 L34 42 L40 10 Z"/>
    <line x1="8" y1="20" x2="40" y2="20 M8 30 L40 30"/>
    <path d="M8 10 Q24 4 40 10"/>
    <line x1="24" y1="6" x2="24" y2="42"/>
  </g>
  <rect x="0" y="0" width="48" height="48" fill="url(#px)" mask="url(#m)" pointer-events="none"/>
</svg>