<svg xmlns="http://www.w3.org/2000/svg" viewBox="0 0 48 48">
  <defs>
    <pattern id="px" width="4" height="4" patternUnits="userSpaceOnUse">
      <rect width="4" height="4" fill="none"/>
      <rect width="2" height="2" fill="rgba(0,0,0,0.2)"/>
    </pattern>
    <mask id="m">
      <rect x="0" y="0" width="48" height="48" fill="black"/>
      <g fill="none" stroke="white" stroke-width="6" stroke-linecap="square" stroke-linejoin="miter" shape-rendering="crispEdges">
    <ellipse cx="24" cy="24" rx="15" ry="5"/>
    <path d="M6 22 L2 18 L4 24 L2 30 L6 26"/>
    <polygon points="36,22 44,20 44,28 36,26"/>
    <line x1="12" y1="22" x2="12" y2="18 M36 22 L36 18"/>
    <line x1="8" y1="24" x2="8" y2="30 M16 24 L16 30 M28 24 L28 30"/>
      </g>
    </mask>
  </defs>
  <g fill="none" stroke="#c69ebb" stroke-width="6" stroke-linecap="square" stroke-linejoin="miter" shape-rendering="crispEdges">
    <ellipse cx="24" cy="24" rx="15" ry="5"/>
    <path d="M6 22 L2 18 L4 24 L2 30 L6 26"/>
    <polygon points="36,22 44,20 44,28 36,26"/>
    <line x1="12" y1="22" x2="12" y2="18 M36 22 L36 18"/>
    <line x1="8" y1="24" x2="8" y2="30 M16 24 L16 30 M28 24 L28 30"/>
  </g>
  <rect x="0" y="0" width="48" height="48" fill="url(#px)" mask="url(#m)" pointer-events="none"/>
</svg>