<svg xmlns="http://www.w3.org/2000/svg" viewBox="0 0 48 48">
  <defs>
    <pattern id="px" width="4" height="4" patternUnits="userSpaceOnUse">
      <rect width="4" height="4" fill="none"/>
      <rect width="2" height="2" fill="rgba(0,0,0,0.2)"/>
    </pattern>
    <mask id="m">
      <rect x="0" y="0" width="48" height="48" fill="black"/>
      <g fill="none" stroke="white" stroke-width="6" stroke-linecap="square" stroke-linejoin="miter" shape-rendering="crispEdges">
    <path d="M8 32 Q12 16 24 12 Q36 16 40 32 Q32 28 24 32 Q16 28 8 32 Z"/>
    <line x1="12" y1="18" x2="20" y2="28 M36 18 L28 28"/>
    <ellipse cx="24" cy="32" rx="8" ry="3"/>
      </g>
    </mask>
  </defs>
  <g fill="none" stroke="#c9ceb6" stroke-width="6" stroke-linecap="square" stroke-linejoin="miter" shape-rendering="crispEdges">
    <path d="M8 32 Q12 16 24 12 Q36 16 40 32 Q32 28 24 32 Q16 28 8 32 Z"/>
    <line x1="12" y1="18" x2="20" y2="28 M36 18 L28 28"/>
    <ellipse cx="24" cy="32" rx="8" ry="3"/>
  </g>
  <rect x="0" y="0" width="48" height="48" fill="url(#px)" mask="url(#m)" pointer-events="none"/>
</svg>