<svg xmlns="http://www.w3.org/2000/svg" viewBox="0 0 48 48">
  <defs>
    <pattern id="px" width="4" height="4" patternUnits="userSpaceOnUse">
      <rect width="4" height="4" fill="none"/>
      <rect width="2" height="2" fill="rgba(0,0,0,0.2)"/>
    </pattern>
    <mask id="m">
      <rect x="0" y="0" width="48" height="48" fill="black"/>
      <g fill="none" stroke="white" stroke-width="6" stroke-linecap="square" stroke-linejoin="miter" shape-rendering="crispEdges">
<ellipse cx="24" cy="28" rx="10" ry="12"/><circle cx="24" cy="10" r="7"/><path d="M18 4 L14 0"/><path d="M30 4 L34 0"/><circle cx="22" cy="8" r="2"/><path d="M18 34 L24 38 L30 34"/>
      </g>
    </mask>
  </defs>
  <g fill="none" stroke="#823728" stroke-width="6" stroke-linecap="square" stroke-linejoin="miter" shape-rendering="crispEdges">
<ellipse cx="24" cy="28" rx="10" ry="12"/><circle cx="24" cy="10" r="7"/><path d="M18 4 L14 0"/><path d="M30 4 L34 0"/><circle cx="22" cy="8" r="2"/><path d="M18 34 L24 38 L30 34"/>
  </g>
  <rect x="0" y="0" width="48" height="48" fill="url(#px)" mask="url(#m)" pointer-events="none"/>
</svg>