<svg xmlns="http://www.w3.org/2000/svg" viewBox="0 0 48 48">
  <defs>
    <pattern id="px" width="4" height="4" patternUnits="userSpaceOnUse">
      <rect width="4" height="4" fill="none"/>
      <rect width="2" height="2" fill="rgba(0,0,0,0.2)"/>
    </pattern>
    <mask id="m">
      <rect x="0" y="0" width="48" height="48" fill="black"/>
      <g fill="none" stroke="white" stroke-width="6" stroke-linecap="square" stroke-linejoin="miter" shape-rendering="crispEdges">
    <circle cx="12" cy="12" r="4"/>
    <circle cx="24" cy="10" r="4"/>
    <circle cx="36" cy="12" r="4"/>
    <line x1="12" y1="16" x2="12" y2="30 M24 14 L24 28 M36 16 L36 30"/>
    <line x1="8" y1="30" x2="6" y2="44 M16 30 L12 44 M20 28 L16 44 M28 28 L24 44 M32 30 L30 44 M40 30 L42 44"/>
      </g>
    </mask>
  </defs>
  <g fill="none" stroke="#c9a7b2" stroke-width="6" stroke-linecap="square" stroke-linejoin="miter" shape-rendering="crispEdges">
    <circle cx="12" cy="12" r="4"/>
    <circle cx="24" cy="10" r="4"/>
    <circle cx="36" cy="12" r="4"/>
    <line x1="12" y1="16" x2="12" y2="30 M24 14 L24 28 M36 16 L36 30"/>
    <line x1="8" y1="30" x2="6" y2="44 M16 30 L12 44 M20 28 L16 44 M28 28 L24 44 M32 30 L30 44 M40 30 L42 44"/>
  </g>
  <rect x="0" y="0" width="48" height="48" fill="url(#px)" mask="url(#m)" pointer-events="none"/>
</svg>