<svg xmlns="http://www.w3.org/2000/svg" viewBox="0 0 48 48">
  <defs>
    <pattern id="px" width="4" height="4" patternUnits="userSpaceOnUse">
      <rect width="4" height="4" fill="none"/>
      <rect width="2" height="2" fill="rgba(0,0,0,0.2)"/>
    </pattern>
    <mask id="m">
      <rect x="0" y="0" width="48" height="48" fill="black"/>
      <g fill="none" stroke="white" stroke-width="6" stroke-linecap="square" stroke-linejoin="miter" shape-rendering="crispEdges">
    <polygon points="24,4 14,24 20,24 18,44 30,44 28,24 34,24"/>
    <polygon points="24,4 20,14 24,14 24,4 28,14 24,14"/>
      </g>
    </mask>
  </defs>
  <g fill="none" stroke="#a5d5a7" stroke-width="6" stroke-linecap="square" stroke-linejoin="miter" shape-rendering="crispEdges">
    <polygon points="24,4 14,24 20,24 18,44 30,44 28,24 34,24"/>
    <polygon points="24,4 20,14 24,14 24,4 28,14 24,14"/>
  </g>
  <rect x="0" y="0" width="48" height="48" fill="url(#px)" mask="url(#m)" pointer-events="none"/>
</svg>