<svg xmlns="http://www.w3.org/2000/svg" viewBox="0 0 48 48">
  <defs>
    <pattern id="px" width="4" height="4" patternUnits="userSpaceOnUse">
      <rect width="4" height="4" fill="none"/>
      <rect width="2" height="2" fill="rgba(0,0,0,0.2)"/>
    </pattern>
    <mask id="m">
      <rect x="0" y="0" width="48" height="48" fill="black"/>
      <g fill="none" stroke="white" stroke-width="6" stroke-linecap="square" stroke-linejoin="miter" shape-rendering="crispEdges">
    <path d="M10 10 L14 44 L34 44 L38 10 Z"/>
    <ellipse cx="24" cy="10" rx="14" ry="4"/>
    <line x1="12" y1="20" x2="36" y2="20 M12 30 L36 30"/>
    <path d="M38 14 Q42 14 42 18 Q42 22 38 22"/>
      </g>
    </mask>
  </defs>
  <g fill="none" stroke="#b1c5a5" stroke-width="6" stroke-linecap="square" stroke-linejoin="miter" shape-rendering="crispEdges">
    <path d="M10 10 L14 44 L34 44 L38 10 Z"/>
    <ellipse cx="24" cy="10" rx="14" ry="4"/>
    <line x1="12" y1="20" x2="36" y2="20 M12 30 L36 30"/>
    <path d="M38 14 Q42 14 42 18 Q42 22 38 22"/>
  </g>
  <rect x="0" y="0" width="48" height="48" fill="url(#px)" mask="url(#m)" pointer-events="none"/>
</svg>