<svg xmlns="http://www.w3.org/2000/svg" viewBox="0 0 48 48">
  <defs>
    <pattern id="px" width="4" height="4" patternUnits="userSpaceOnUse">
      <rect width="4" height="4" fill="none"/>
      <rect width="2" height="2" fill="rgba(0,0,0,0.2)"/>
    </pattern>
    <mask id="m">
      <rect x="0" y="0" width="48" height="48" fill="black"/>
      <g fill="none" stroke="white" stroke-width="6" stroke-linecap="square" stroke-linejoin="miter" shape-rendering="crispEdges">
    <path d="M14 20 Q14 14 24 14 Q34 14 34 20 L34 30 L14 30 Z"/>
    <ellipse cx="24" cy="30" rx="12" ry="4"/>
    <path d="M14 20 Q10 18 10 24 Q10 28 14 30"/>
    <path d="M34 20 Q38 18 38 24 Q38 28 34 30"/>
      </g>
    </mask>
  </defs>
  <g fill="none" stroke="#c2dae0" stroke-width="6" stroke-linecap="square" stroke-linejoin="miter" shape-rendering="crispEdges">
    <path d="M14 20 Q14 14 24 14 Q34 14 34 20 L34 30 L14 30 Z"/>
    <ellipse cx="24" cy="30" rx="12" ry="4"/>
    <path d="M14 20 Q10 18 10 24 Q10 28 14 30"/>
    <path d="M34 20 Q38 18 38 24 Q38 28 34 30"/>
  </g>
  <rect x="0" y="0" width="48" height="48" fill="url(#px)" mask="url(#m)" pointer-events="none"/>
</svg>