<svg xmlns="http://www.w3.org/2000/svg" viewBox="0 0 48 48">
  <defs>
    <pattern id="px" width="4" height="4" patternUnits="userSpaceOnUse">
      <rect width="4" height="4" fill="none"/>
      <rect width="2" height="2" fill="rgba(0,0,0,0.2)"/>
    </pattern>
    <mask id="m">
      <rect x="0" y="0" width="48" height="48" fill="black"/>
      <g fill="none" stroke="white" stroke-width="6" stroke-linecap="square" stroke-linejoin="miter" shape-rendering="crispEdges">
<ellipse cx="24" cy="22" rx="12" ry="8"/><path d="M12 22 Q12 8 24 8 Q36 8 36 22"/><circle cx="18" cy="20" r="2"/><circle cx="30" cy="20" r="2"/><path d="M14 28 L8 34"/><path d="M34 28 L40 34"/><path d="M18 28 L12 38"/><path d="M30 28 L36 38"/><path d="M24 30 L24 40"/>
      </g>
    </mask>
  </defs>
  <g fill="none" stroke="#55a871" stroke-width="6" stroke-linecap="square" stroke-linejoin="miter" shape-rendering="crispEdges">
<ellipse cx="24" cy="22" rx="12" ry="8"/><path d="M12 22 Q12 8 24 8 Q36 8 36 22"/><circle cx="18" cy="20" r="2"/><circle cx="30" cy="20" r="2"/><path d="M14 28 L8 34"/><path d="M34 28 L40 34"/><path d="M18 28 L12 38"/><path d="M30 28 L36 38"/><path d="M24 30 L24 40"/>
  </g>
  <rect x="0" y="0" width="48" height="48" fill="url(#px)" mask="url(#m)" pointer-events="none"/>
</svg>