<svg xmlns="http://www.w3.org/2000/svg" viewBox="0 0 48 48">
  <defs>
    <pattern id="px" width="4" height="4" patternUnits="userSpaceOnUse">
      <rect width="4" height="4" fill="none"/>
      <rect width="2" height="2" fill="rgba(0,0,0,0.2)"/>
    </pattern>
    <mask id="m">
      <rect x="0" y="0" width="48" height="48" fill="black"/>
      <g fill="none" stroke="white" stroke-width="6" stroke-linecap="square" stroke-linejoin="miter" shape-rendering="crispEdges">
<path d="M14 26 Q14 8 24 8 Q34 8 34 26 L34 38 L14 38 Z"/><path d="M34 18 L40 14 L40 22 Z"/><circle cx="24" cy="20" r="2.5"/>
      </g>
    </mask>
  </defs>
  <g fill="none" stroke="#afa55f" stroke-width="6" stroke-linecap="square" stroke-linejoin="miter" shape-rendering="crispEdges">
<path d="M14 26 Q14 8 24 8 Q34 8 34 26 L34 38 L14 38 Z"/><path d="M34 18 L40 14 L40 22 Z"/><circle cx="24" cy="20" r="2.5"/>
  </g>
  <rect x="0" y="0" width="48" height="48" fill="url(#px)" mask="url(#m)" pointer-events="none"/>
</svg>