<svg xmlns="http://www.w3.org/2000/svg" viewBox="0 0 48 48">
  <defs>
    <pattern id="px" width="4" height="4" patternUnits="userSpaceOnUse">
      <rect width="4" height="4" fill="none"/>
      <rect width="2" height="2" fill="rgba(0,0,0,0.2)"/>
    </pattern>
    <mask id="m">
      <rect x="0" y="0" width="48" height="48" fill="black"/>
      <g fill="none" stroke="white" stroke-width="6" stroke-linecap="square" stroke-linejoin="miter" shape-rendering="crispEdges">
    <path d="M4 20 Q14 16 24 20 Q34 24 44 20 L44 44 L4 44 Z"/>
    <path d="M10 30 Q16 24 22 30"/>
    <path d="M28 34 Q34 28 40 34"/>
    <circle cx="12" cy="16" r="4"/>
    <circle cx="36" cy="14" r="3"/>
      </g>
    </mask>
  </defs>
  <g fill="none" stroke="#daa5af" stroke-width="6" stroke-linecap="square" stroke-linejoin="miter" shape-rendering="crispEdges">
    <path d="M4 20 Q14 16 24 20 Q34 24 44 20 L44 44 L4 44 Z"/>
    <path d="M10 30 Q16 24 22 30"/>
    <path d="M28 34 Q34 28 40 34"/>
    <circle cx="12" cy="16" r="4"/>
    <circle cx="36" cy="14" r="3"/>
  </g>
  <rect x="0" y="0" width="48" height="48" fill="url(#px)" mask="url(#m)" pointer-events="none"/>
</svg>