<svg xmlns="http://www.w3.org/2000/svg" viewBox="0 0 48 48">
  <defs>
    <pattern id="px" width="4" height="4" patternUnits="userSpaceOnUse">
      <rect width="4" height="4" fill="none"/>
      <rect width="2" height="2" fill="rgba(0,0,0,0.2)"/>
    </pattern>
    <mask id="m">
      <rect x="0" y="0" width="48" height="48" fill="black"/>
      <g fill="none" stroke="white" stroke-width="6" stroke-linecap="square" stroke-linejoin="miter" shape-rendering="crispEdges">
    <circle cx="24" cy="18" r="10"/>
    <line x1="24" y1="8" x2="24" y2="4"/>
    <rect x="20" y="4" width="8" height="4" rx="2"/>
    <circle cx="24" cy="18" r="2" fill="currentColor"/>
    <circle cx="18" cy="14" r="1.5" fill="currentColor"/>
    <circle cx="30" cy="14" r="1.5" fill="currentColor"/>
    <circle cx="18" cy="22" r="1.5" fill="currentColor"/>
    <circle cx="30" cy="22" r="1.5" fill="currentColor"/>
      </g>
    </mask>
  </defs>
  <g fill="none" stroke="#a4c9ab" stroke-width="6" stroke-linecap="square" stroke-linejoin="miter" shape-rendering="crispEdges">
    <circle cx="24" cy="18" r="10"/>
    <line x1="24" y1="8" x2="24" y2="4"/>
    <rect x="20" y="4" width="8" height="4" rx="2"/>
    <circle cx="24" cy="18" r="2" fill="currentColor"/>
    <circle cx="18" cy="14" r="1.5" fill="currentColor"/>
    <circle cx="30" cy="14" r="1.5" fill="currentColor"/>
    <circle cx="18" cy="22" r="1.5" fill="currentColor"/>
    <circle cx="30" cy="22" r="1.5" fill="currentColor"/>
  </g>
  <rect x="0" y="0" width="48" height="48" fill="url(#px)" mask="url(#m)" pointer-events="none"/>
</svg>