<svg xmlns="http://www.w3.org/2000/svg" viewBox="0 0 48 48">
  <defs>
    <pattern id="px" width="4" height="4" patternUnits="userSpaceOnUse">
      <rect width="4" height="4" fill="none"/>
      <rect width="2" height="2" fill="rgba(0,0,0,0.2)"/>
    </pattern>
    <mask id="m">
      <rect x="0" y="0" width="48" height="48" fill="black"/>
      <g fill="none" stroke="white" stroke-width="6" stroke-linecap="square" stroke-linejoin="miter" shape-rendering="crispEdges">
    <path d="M4 40 Q12 20 24 10 Q36 0 44 6"/>
    <circle cx="24" cy="10" r="4"/>
    <line x1="16" y1="44" x2="16" y2="28"/>
    <line x1="32" y1="44" x2="32" y2="28"/>
    <line x1="16" y1="34" x2="32" y2="34"/>
      </g>
    </mask>
  </defs>
  <g fill="none" stroke="#cbdbbe" stroke-width="6" stroke-linecap="square" stroke-linejoin="miter" shape-rendering="crispEdges">
    <path d="M4 40 Q12 20 24 10 Q36 0 44 6"/>
    <circle cx="24" cy="10" r="4"/>
    <line x1="16" y1="44" x2="16" y2="28"/>
    <line x1="32" y1="44" x2="32" y2="28"/>
    <line x1="16" y1="34" x2="32" y2="34"/>
  </g>
  <rect x="0" y="0" width="48" height="48" fill="url(#px)" mask="url(#m)" pointer-events="none"/>
</svg>