<svg xmlns="http://www.w3.org/2000/svg" viewBox="0 0 48 48">
  <defs>
    <pattern id="px" width="4" height="4" patternUnits="userSpaceOnUse">
      <rect width="4" height="4" fill="none"/>
      <rect width="2" height="2" fill="rgba(0,0,0,0.2)"/>
    </pattern>
    <mask id="m">
      <rect x="0" y="0" width="48" height="48" fill="black"/>
      <g fill="none" stroke="white" stroke-width="6" stroke-linecap="square" stroke-linejoin="miter" shape-rendering="crispEdges">
    <circle cx="24" cy="24" r="16"/>
    <circle cx="24" cy="18" r="3" fill="currentColor"/>
    <circle cx="18" cy="28" r="3" fill="currentColor"/>
    <circle cx="30" cy="28" r="3" fill="currentColor"/>
    <line x1="12" y1="12" x2="18" y2="18 M36 12 L30 18 M12 36 L18 30 M36 36 L30 30"/>
      </g>
    </mask>
  </defs>
  <g fill="none" stroke="#c2cfa9" stroke-width="6" stroke-linecap="square" stroke-linejoin="miter" shape-rendering="crispEdges">
    <circle cx="24" cy="24" r="16"/>
    <circle cx="24" cy="18" r="3" fill="currentColor"/>
    <circle cx="18" cy="28" r="3" fill="currentColor"/>
    <circle cx="30" cy="28" r="3" fill="currentColor"/>
    <line x1="12" y1="12" x2="18" y2="18 M36 12 L30 18 M12 36 L18 30 M36 36 L30 30"/>
  </g>
  <rect x="0" y="0" width="48" height="48" fill="url(#px)" mask="url(#m)" pointer-events="none"/>
</svg>