<svg xmlns="http://www.w3.org/2000/svg" viewBox="0 0 48 48">
  <defs>
    <pattern id="px" width="4" height="4" patternUnits="userSpaceOnUse">
      <rect width="4" height="4" fill="none"/>
      <rect width="2" height="2" fill="rgba(0,0,0,0.2)"/>
    </pattern>
    <mask id="m">
      <rect x="0" y="0" width="48" height="48" fill="black"/>
      <g fill="none" stroke="white" stroke-width="6" stroke-linecap="square" stroke-linejoin="miter" shape-rendering="crispEdges">
    <path d="M24 4 Q8 10 10 24 Q12 36 24 44 Q36 36 38 24 Q40 10 24 4 Z"/>
    <line x1="24" y1="10" x2="24" y2="22 M20 16 L28 16 M18 26 L30 26"/>
    <circle cx="24" cy="14" r="3" fill="currentColor"/>
      </g>
    </mask>
  </defs>
  <g fill="none" stroke="#c4dfa7" stroke-width="6" stroke-linecap="square" stroke-linejoin="miter" shape-rendering="crispEdges">
    <path d="M24 4 Q8 10 10 24 Q12 36 24 44 Q36 36 38 24 Q40 10 24 4 Z"/>
    <line x1="24" y1="10" x2="24" y2="22 M20 16 L28 16 M18 26 L30 26"/>
    <circle cx="24" cy="14" r="3" fill="currentColor"/>
  </g>
  <rect x="0" y="0" width="48" height="48" fill="url(#px)" mask="url(#m)" pointer-events="none"/>
</svg>