<svg xmlns="http://www.w3.org/2000/svg" viewBox="0 0 48 48">
  <defs>
    <pattern id="px" width="4" height="4" patternUnits="userSpaceOnUse">
      <rect width="4" height="4" fill="none"/>
      <rect width="2" height="2" fill="rgba(0,0,0,0.2)"/>
    </pattern>
    <mask id="m">
      <rect x="0" y="0" width="48" height="48" fill="black"/>
      <g fill="none" stroke="white" stroke-width="6" stroke-linecap="square" stroke-linejoin="miter" shape-rendering="crispEdges">
<ellipse cx="24" cy="28" rx="16" ry="14"/>
    <path d="M8 28 L4 20 L14 24"/>
    <path d="M40 28 L44 20 L34 24"/>
    <circle cx="18" cy="26" r="3"/>
    <circle cx="30" cy="26" r="3"/>
    <path d="M18 36 Q24 40 30 36"/>
      </g>
    </mask>
  </defs>
  <g fill="none" stroke="#c9704c" stroke-width="6" stroke-linecap="square" stroke-linejoin="miter" shape-rendering="crispEdges">
<ellipse cx="24" cy="28" rx="16" ry="14"/>
    <path d="M8 28 L4 20 L14 24"/>
    <path d="M40 28 L44 20 L34 24"/>
    <circle cx="18" cy="26" r="3"/>
    <circle cx="30" cy="26" r="3"/>
    <path d="M18 36 Q24 40 30 36"/>
  </g>
  <rect x="0" y="0" width="48" height="48" fill="url(#px)" mask="url(#m)" pointer-events="none"/>
</svg>