<svg xmlns="http://www.w3.org/2000/svg" viewBox="0 0 48 48">
  <defs>
    <pattern id="px" width="4" height="4" patternUnits="userSpaceOnUse">
      <rect width="4" height="4" fill="none"/>
      <rect width="2" height="2" fill="rgba(0,0,0,0.2)"/>
    </pattern>
    <mask id="m">
      <rect x="0" y="0" width="48" height="48" fill="black"/>
      <g fill="none" stroke="white" stroke-width="6" stroke-linecap="square" stroke-linejoin="miter" shape-rendering="crispEdges">
    <path d="M16 12 C28 10 28 18 20 20 C12 22 12 26 20 28 C28 30 28 38 28 36"/>
    <line x1="20" y1="8" x2="20" y2="40"/>
      </g>
    </mask>
  </defs>
  <g fill="none" stroke="#4CAF50" stroke-width="6" stroke-linecap="square" stroke-linejoin="miter" shape-rendering="crispEdges">
    <path d="M16 12 C28 10 28 18 20 20 C12 22 12 26 20 28 C28 30 28 38 28 36"/>
    <line x1="20" y1="8" x2="20" y2="40"/>
  </g>
  <rect x="0" y="0" width="48" height="48" fill="url(#px)" mask="url(#m)" pointer-events="none"/>
</svg>