<svg xmlns="http://www.w3.org/2000/svg" viewBox="0 0 48 48">
  <defs>
    <pattern id="px" width="4" height="4" patternUnits="userSpaceOnUse">
      <rect width="4" height="4" fill="none"/>
      <rect width="2" height="2" fill="rgba(0,0,0,0.2)"/>
    </pattern>
    <mask id="m">
      <rect x="0" y="0" width="48" height="48" fill="black"/>
      <g fill="none" stroke="white" stroke-width="6" stroke-linecap="square" stroke-linejoin="miter" shape-rendering="crispEdges">
    <circle cx="24" cy="8" r="5"/>
    <circle cx="22" cy="6" r="1.5"/>
    <line x1="24" y1="13" x2="24" y2="30"/>
    <line x1="24" y1="18" x2="14" y2="26 M24 18 L34 26"/>
    <line x1="24" y1="30" x2="16" y2="44 M24 30 L32 44"/>
    <rect x="16" y="30" width="16" height="4" rx="2"/>
      </g>
    </mask>
  </defs>
  <g fill="none" stroke="#b5c8c9" stroke-width="6" stroke-linecap="square" stroke-linejoin="miter" shape-rendering="crispEdges">
    <circle cx="24" cy="8" r="5"/>
    <circle cx="22" cy="6" r="1.5"/>
    <line x1="24" y1="13" x2="24" y2="30"/>
    <line x1="24" y1="18" x2="14" y2="26 M24 18 L34 26"/>
    <line x1="24" y1="30" x2="16" y2="44 M24 30 L32 44"/>
    <rect x="16" y="30" width="16" height="4" rx="2"/>
  </g>
  <rect x="0" y="0" width="48" height="48" fill="url(#px)" mask="url(#m)" pointer-events="none"/>
</svg>