<svg xmlns="http://www.w3.org/2000/svg" viewBox="0 0 48 48">
  <defs>
    <pattern id="px" width="4" height="4" patternUnits="userSpaceOnUse">
      <rect width="4" height="4" fill="none"/>
      <rect width="2" height="2" fill="rgba(0,0,0,0.2)"/>
    </pattern>
    <mask id="m">
      <rect x="0" y="0" width="48" height="48" fill="black"/>
      <g fill="none" stroke="white" stroke-width="6" stroke-linecap="square" stroke-linejoin="miter" shape-rendering="crispEdges">
    <path d="M4 24 Q14 8 24 16 Q34 8 44 24 Q34 28 24 24 Q14 28 4 24"/>
    <circle cx="14" cy="16" r="3" fill="currentColor"/>
    <circle cx="34" cy="16" r="3" fill="currentColor"/>
    <path d="M24 24 L24 36 M18 28 L30 28"/>
    <path d="M24 36 L18 44 M24 36 L30 44"/>
      </g>
    </mask>
  </defs>
  <g fill="none" stroke="#c4aaad" stroke-width="6" stroke-linecap="square" stroke-linejoin="miter" shape-rendering="crispEdges">
    <path d="M4 24 Q14 8 24 16 Q34 8 44 24 Q34 28 24 24 Q14 28 4 24"/>
    <circle cx="14" cy="16" r="3" fill="currentColor"/>
    <circle cx="34" cy="16" r="3" fill="currentColor"/>
    <path d="M24 24 L24 36 M18 28 L30 28"/>
    <path d="M24 36 L18 44 M24 36 L30 44"/>
  </g>
  <rect x="0" y="0" width="48" height="48" fill="url(#px)" mask="url(#m)" pointer-events="none"/>
</svg>