<svg xmlns="http://www.w3.org/2000/svg" viewBox="0 0 48 48">
  <defs>
    <pattern id="px" width="4" height="4" patternUnits="userSpaceOnUse">
      <rect width="4" height="4" fill="none"/>
      <rect width="2" height="2" fill="rgba(0,0,0,0.2)"/>
    </pattern>
    <mask id="m">
      <rect x="0" y="0" width="48" height="48" fill="black"/>
      <g fill="none" stroke="white" stroke-width="6" stroke-linecap="square" stroke-linejoin="miter" shape-rendering="crispEdges">
    <circle cx="24" cy="10" r="5"/>
    <circle cx="22" cy="8" r="1.5"/>
    <circle cx="26" cy="8" r="1.5"/>
    <line x1="24" y1="15" x2="24" y2="44"/>
    <line x1="10" y1="24" x2="24" y2="20 L38 24"/>
    <path d="M6 30 L4 40 M42 30 L44 40"/>
      </g>
    </mask>
  </defs>
  <g fill="none" stroke="#ccbea9" stroke-width="6" stroke-linecap="square" stroke-linejoin="miter" shape-rendering="crispEdges">
    <circle cx="24" cy="10" r="5"/>
    <circle cx="22" cy="8" r="1.5"/>
    <circle cx="26" cy="8" r="1.5"/>
    <line x1="24" y1="15" x2="24" y2="44"/>
    <line x1="10" y1="24" x2="24" y2="20 L38 24"/>
    <path d="M6 30 L4 40 M42 30 L44 40"/>
  </g>
  <rect x="0" y="0" width="48" height="48" fill="url(#px)" mask="url(#m)" pointer-events="none"/>
</svg>