<svg xmlns="http://www.w3.org/2000/svg" viewBox="0 0 48 48">
  <defs>
    <pattern id="px" width="4" height="4" patternUnits="userSpaceOnUse">
      <rect width="4" height="4" fill="none"/>
      <rect width="2" height="2" fill="rgba(0,0,0,0.2)"/>
    </pattern>
    <mask id="m">
      <rect x="0" y="0" width="48" height="48" fill="black"/>
      <g fill="none" stroke="white" stroke-width="6" stroke-linecap="square" stroke-linejoin="miter" shape-rendering="crispEdges">
<path d="M8 36 Q8 8 24 8 Q40 8 40 36 Z"/>
    <circle cx="16" cy="24" r="2.5"/>
    <circle cx="32" cy="24" r="2.5"/>
    <rect x="20" y="30" width="8" height="4" rx="1"/>
    <path d="M12 18 L14 14 M36 18 L34 14"/>
      </g>
    </mask>
  </defs>
  <g fill="none" stroke="#606496" stroke-width="6" stroke-linecap="square" stroke-linejoin="miter" shape-rendering="crispEdges">
<path d="M8 36 Q8 8 24 8 Q40 8 40 36 Z"/>
    <circle cx="16" cy="24" r="2.5"/>
    <circle cx="32" cy="24" r="2.5"/>
    <rect x="20" y="30" width="8" height="4" rx="1"/>
    <path d="M12 18 L14 14 M36 18 L34 14"/>
  </g>
  <rect x="0" y="0" width="48" height="48" fill="url(#px)" mask="url(#m)" pointer-events="none"/>
</svg>