<svg xmlns="http://www.w3.org/2000/svg" viewBox="0 0 48 48">
  <defs>
    <pattern id="px" width="4" height="4" patternUnits="userSpaceOnUse">
      <rect width="4" height="4" fill="none"/>
      <rect width="2" height="2" fill="rgba(0,0,0,0.2)"/>
    </pattern>
    <mask id="m">
      <rect x="0" y="0" width="48" height="48" fill="black"/>
      <g fill="none" stroke="white" stroke-width="6" stroke-linecap="square" stroke-linejoin="miter" shape-rendering="crispEdges">
    <ellipse cx="24" cy="24" rx="12" ry="8"/>
    <path d="M14 18 L8 8 M16 18 L12 8 M18 18 L16 6 M20 18 L20 6 M22 18 L24 6 M24 18 L28 6 M26 18 L32 8 M28 18 L36 8"/>
    <circle cx="14" cy="24" r="2"/>
    <circle cx="22" cy="26" r="1.5"/>
    <circle cx="30" cy="24" r="2"/>
      </g>
    </mask>
  </defs>
  <g fill="none" stroke="#c2dfbc" stroke-width="6" stroke-linecap="square" stroke-linejoin="miter" shape-rendering="crispEdges">
    <ellipse cx="24" cy="24" rx="12" ry="8"/>
    <path d="M14 18 L8 8 M16 18 L12 8 M18 18 L16 6 M20 18 L20 6 M22 18 L24 6 M24 18 L28 6 M26 18 L32 8 M28 18 L36 8"/>
    <circle cx="14" cy="24" r="2"/>
    <circle cx="22" cy="26" r="1.5"/>
    <circle cx="30" cy="24" r="2"/>
  </g>
  <rect x="0" y="0" width="48" height="48" fill="url(#px)" mask="url(#m)" pointer-events="none"/>
</svg>