<svg xmlns="http://www.w3.org/2000/svg" viewBox="0 0 48 48">
  <defs>
    <pattern id="px" width="4" height="4" patternUnits="userSpaceOnUse">
      <rect width="4" height="4" fill="none"/>
      <rect width="2" height="2" fill="rgba(0,0,0,0.2)"/>
    </pattern>
    <mask id="m">
      <rect x="0" y="0" width="48" height="48" fill="black"/>
      <g fill="none" stroke="white" stroke-width="6" stroke-linecap="square" stroke-linejoin="miter" shape-rendering="crispEdges">
<path d="M10 36 Q10 8 30 8 Q42 8 42 20"/><circle cx="26" cy="22" r="3"/><circle cx="32" cy="22" r="3"/><circle cx="26" cy="22" r="1.5"/><circle cx="32" cy="22" r="1.5"/><line x1="42" y1="20" x2="46" y2="14"/>
      </g>
    </mask>
  </defs>
  <g fill="none" stroke="#55a871" stroke-width="6" stroke-linecap="square" stroke-linejoin="miter" shape-rendering="crispEdges">
<path d="M10 36 Q10 8 30 8 Q42 8 42 20"/><circle cx="26" cy="22" r="3"/><circle cx="32" cy="22" r="3"/><circle cx="26" cy="22" r="1.5"/><circle cx="32" cy="22" r="1.5"/><line x1="42" y1="20" x2="46" y2="14"/>
  </g>
  <rect x="0" y="0" width="48" height="48" fill="url(#px)" mask="url(#m)" pointer-events="none"/>
</svg>