<svg xmlns="http://www.w3.org/2000/svg" viewBox="0 0 48 48">
  <defs>
    <pattern id="px" width="4" height="4" patternUnits="userSpaceOnUse">
      <rect width="4" height="4" fill="none"/>
      <rect width="2" height="2" fill="rgba(0,0,0,0.2)"/>
    </pattern>
    <mask id="m">
      <rect x="0" y="0" width="48" height="48" fill="black"/>
      <g fill="none" stroke="white" stroke-width="6" stroke-linecap="square" stroke-linejoin="miter" shape-rendering="crispEdges">
<path d="M10 34 Q10 6 30 6 Q42 6 42 20"/><circle cx="28" cy="20" r="3"/><circle cx="34" cy="20" r="3"/><circle cx="28" cy="20" r="1.5"/><circle cx="34" cy="20" r="1.5"/><line x1="42" y1="20" x2="46" y2="14"/><path d="M6 38 Q10 36 14 38"/>
      </g>
    </mask>
  </defs>
  <g fill="none" stroke="#8c4d81" stroke-width="6" stroke-linecap="square" stroke-linejoin="miter" shape-rendering="crispEdges">
<path d="M10 34 Q10 6 30 6 Q42 6 42 20"/><circle cx="28" cy="20" r="3"/><circle cx="34" cy="20" r="3"/><circle cx="28" cy="20" r="1.5"/><circle cx="34" cy="20" r="1.5"/><line x1="42" y1="20" x2="46" y2="14"/><path d="M6 38 Q10 36 14 38"/>
  </g>
  <rect x="0" y="0" width="48" height="48" fill="url(#px)" mask="url(#m)" pointer-events="none"/>
</svg>