<svg xmlns="http://www.w3.org/2000/svg" viewBox="0 0 48 48">
  <defs>
    <pattern id="px" width="4" height="4" patternUnits="userSpaceOnUse">
      <rect width="4" height="4" fill="none"/>
      <rect width="2" height="2" fill="rgba(0,0,0,0.2)"/>
    </pattern>
    <mask id="m">
      <rect x="0" y="0" width="48" height="48" fill="black"/>
      <g fill="none" stroke="white" stroke-width="6" stroke-linecap="square" stroke-linejoin="miter" shape-rendering="crispEdges">
    <rect x="14" y="14" width="20" height="20" rx="2"/>
    <rect x="18" y="18" width="12" height="12" rx="1"/>
    <line x1="8" y1="18" x2="14" y2="18"/>
    <line x1="8" y1="26" x2="14" y2="26"/>
    <line x1="34" y1="18" x2="40" y2="18"/>
    <line x1="34" y1="26" x2="40" y2="26"/>
    <line x1="18" y1="8" x2="18" y2="14"/>
    <line x1="26" y1="8" x2="26" y2="14"/>
    <line x1="18" y1="34" x2="18" y2="40"/>
    <line x1="26" y1="34" x2="26" y2="40"/>
      </g>
    </mask>
  </defs>
  <g fill="none" stroke="#00BCD4" stroke-width="6" stroke-linecap="square" stroke-linejoin="miter" shape-rendering="crispEdges">
    <rect x="14" y="14" width="20" height="20" rx="2"/>
    <rect x="18" y="18" width="12" height="12" rx="1"/>
    <line x1="8" y1="18" x2="14" y2="18"/>
    <line x1="8" y1="26" x2="14" y2="26"/>
    <line x1="34" y1="18" x2="40" y2="18"/>
    <line x1="34" y1="26" x2="40" y2="26"/>
    <line x1="18" y1="8" x2="18" y2="14"/>
    <line x1="26" y1="8" x2="26" y2="14"/>
    <line x1="18" y1="34" x2="18" y2="40"/>
    <line x1="26" y1="34" x2="26" y2="40"/>
  </g>
  <rect x="0" y="0" width="48" height="48" fill="url(#px)" mask="url(#m)" pointer-events="none"/>
</svg>