<svg xmlns="http://www.w3.org/2000/svg" viewBox="0 0 48 48">
  <defs>
    <pattern id="px" width="4" height="4" patternUnits="userSpaceOnUse">
      <rect width="4" height="4" fill="none"/>
      <rect width="2" height="2" fill="rgba(0,0,0,0.2)"/>
    </pattern>
    <mask id="m">
      <rect x="0" y="0" width="48" height="48" fill="black"/>
      <g fill="none" stroke="white" stroke-width="6" stroke-linecap="square" stroke-linejoin="miter" shape-rendering="crispEdges">
    <path d="M24 4 Q14 10 10 24 Q8 34 24 44 Q40 34 38 24 Q34 10 24 4 Z"/>
    <circle cx="24" cy="18" r="6"/>
    <circle cx="24" cy="18" r="3" fill="currentColor"/>
    <line x1="18" y1="28" x2="30" y2="28 M16 34 L32 34"/>
      </g>
    </mask>
  </defs>
  <g fill="none" stroke="#c0dac1" stroke-width="6" stroke-linecap="square" stroke-linejoin="miter" shape-rendering="crispEdges">
    <path d="M24 4 Q14 10 10 24 Q8 34 24 44 Q40 34 38 24 Q34 10 24 4 Z"/>
    <circle cx="24" cy="18" r="6"/>
    <circle cx="24" cy="18" r="3" fill="currentColor"/>
    <line x1="18" y1="28" x2="30" y2="28 M16 34 L32 34"/>
  </g>
  <rect x="0" y="0" width="48" height="48" fill="url(#px)" mask="url(#m)" pointer-events="none"/>
</svg>