<svg xmlns="http://www.w3.org/2000/svg" viewBox="0 0 48 48">
  <defs>
    <pattern id="px" width="4" height="4" patternUnits="userSpaceOnUse">
      <rect width="4" height="4" fill="none"/>
      <rect width="2" height="2" fill="rgba(0,0,0,0.2)"/>
    </pattern>
    <mask id="m">
      <rect x="0" y="0" width="48" height="48" fill="black"/>
      <g fill="none" stroke="white" stroke-width="6" stroke-linecap="square" stroke-linejoin="miter" shape-rendering="crispEdges">
    <circle cx="20" cy="12" r="4"/>
    <circle cx="28" cy="12" r="4"/>
    <path d="M20 16 L20 22 Q20 28 24 28 Q28 28 28 22 L28 16"/>
    <line x1="16" y1="12" x2="14" y2="8 M32 12 L34 8"/>
    <line x1="20" y1="28" x2="16" y2="44 M28 28 L32 44"/>
      </g>
    </mask>
  </defs>
  <g fill="none" stroke="#bcd1e3" stroke-width="6" stroke-linecap="square" stroke-linejoin="miter" shape-rendering="crispEdges">
    <circle cx="20" cy="12" r="4"/>
    <circle cx="28" cy="12" r="4"/>
    <path d="M20 16 L20 22 Q20 28 24 28 Q28 28 28 22 L28 16"/>
    <line x1="16" y1="12" x2="14" y2="8 M32 12 L34 8"/>
    <line x1="20" y1="28" x2="16" y2="44 M28 28 L32 44"/>
  </g>
  <rect x="0" y="0" width="48" height="48" fill="url(#px)" mask="url(#m)" pointer-events="none"/>
</svg>