<svg xmlns="http://www.w3.org/2000/svg" viewBox="0 0 48 48">
  <defs>
    <pattern id="px" width="4" height="4" patternUnits="userSpaceOnUse">
      <rect width="4" height="4" fill="none"/>
      <rect width="2" height="2" fill="rgba(0,0,0,0.2)"/>
    </pattern>
    <mask id="m">
      <rect x="0" y="0" width="48" height="48" fill="black"/>
      <g fill="none" stroke="white" stroke-width="6" stroke-linecap="square" stroke-linejoin="miter" shape-rendering="crispEdges">
    <ellipse cx="24" cy="22" rx="10" ry="8"/>
    <circle cx="24" cy="12" r="5"/>
    <circle cx="22" cy="10" r="2"/>
    <path d="M28 14 L38 12 L40 16 L38 20"/>
    <path d="M18 26 L12 44 M30 26 L36 44"/>
    <path d="M22 28 L26 28 M22 32 L26 32"/>
      </g>
    </mask>
  </defs>
  <g fill="none" stroke="#cbdeaa" stroke-width="6" stroke-linecap="square" stroke-linejoin="miter" shape-rendering="crispEdges">
    <ellipse cx="24" cy="22" rx="10" ry="8"/>
    <circle cx="24" cy="12" r="5"/>
    <circle cx="22" cy="10" r="2"/>
    <path d="M28 14 L38 12 L40 16 L38 20"/>
    <path d="M18 26 L12 44 M30 26 L36 44"/>
    <path d="M22 28 L26 28 M22 32 L26 32"/>
  </g>
  <rect x="0" y="0" width="48" height="48" fill="url(#px)" mask="url(#m)" pointer-events="none"/>
</svg>