<svg xmlns="http://www.w3.org/2000/svg" viewBox="0 0 48 48">
  <defs>
    <pattern id="px" width="4" height="4" patternUnits="userSpaceOnUse">
      <rect width="4" height="4" fill="none"/>
      <rect width="2" height="2" fill="rgba(0,0,0,0.2)"/>
    </pattern>
    <mask id="m">
      <rect x="0" y="0" width="48" height="48" fill="black"/>
      <g fill="none" stroke="white" stroke-width="6" stroke-linecap="square" stroke-linejoin="miter" shape-rendering="crispEdges">
    <rect x="14" y="14" width="20" height="20" rx="3"/>
    <line x1="10" y1="18" x2="14" y2="18"/>
    <line x1="10" y1="24" x2="14" y2="24"/>
    <line x1="10" y1="30" x2="14" y2="30"/>
    <line x1="34" y1="18" x2="38" y2="18"/>
    <line x1="34" y1="24" x2="38" y2="24"/>
    <line x1="34" y1="30" x2="38" y2="30"/>
    <line x1="18" y1="10" x2="18" y2="14"/>
    <line x1="24" y1="10" x2="24" y2="14"/>
    <line x1="30" y1="10" x2="30" y2="14"/>
    <line x1="18" y1="34" x2="18" y2="38"/>
    <line x1="24" y1="34" x2="24" y2="38"/>
    <line x1="30" y1="34" x2="30" y2="38"/>
      </g>
    </mask>
  </defs>
  <g fill="none" stroke="#4DB6AC" stroke-width="6" stroke-linecap="square" stroke-linejoin="miter" shape-rendering="crispEdges">
    <rect x="14" y="14" width="20" height="20" rx="3"/>
    <line x1="10" y1="18" x2="14" y2="18"/>
    <line x1="10" y1="24" x2="14" y2="24"/>
    <line x1="10" y1="30" x2="14" y2="30"/>
    <line x1="34" y1="18" x2="38" y2="18"/>
    <line x1="34" y1="24" x2="38" y2="24"/>
    <line x1="34" y1="30" x2="38" y2="30"/>
    <line x1="18" y1="10" x2="18" y2="14"/>
    <line x1="24" y1="10" x2="24" y2="14"/>
    <line x1="30" y1="10" x2="30" y2="14"/>
    <line x1="18" y1="34" x2="18" y2="38"/>
    <line x1="24" y1="34" x2="24" y2="38"/>
    <line x1="30" y1="34" x2="30" y2="38"/>
  </g>
  <rect x="0" y="0" width="48" height="48" fill="url(#px)" mask="url(#m)" pointer-events="none"/>
</svg>