<svg xmlns="http://www.w3.org/2000/svg" viewBox="0 0 48 48">
  <defs>
    <pattern id="px" width="4" height="4" patternUnits="userSpaceOnUse">
      <rect width="4" height="4" fill="none"/>
      <rect width="2" height="2" fill="rgba(0,0,0,0.2)"/>
    </pattern>
    <mask id="m">
      <rect x="0" y="0" width="48" height="48" fill="black"/>
      <g fill="none" stroke="white" stroke-width="6" stroke-linecap="square" stroke-linejoin="miter" shape-rendering="crispEdges">
<rect x="6" y="16" width="36" height="16" rx="2"/>
    <line x1="12" y1="16" x2="12" y2="32"/>
    <line x1="18" y1="16" x2="18" y2="32"/>
    <line x1="24" y1="16" x2="24" y2="32"/>
    <line x1="30" y1="16" x2="30" y2="24"/>
    <line x1="36" y1="16" x2="36" y2="32"/>
      </g>
    </mask>
  </defs>
  <g fill="none" stroke="#6d9b60" stroke-width="6" stroke-linecap="square" stroke-linejoin="miter" shape-rendering="crispEdges">
<rect x="6" y="16" width="36" height="16" rx="2"/>
    <line x1="12" y1="16" x2="12" y2="32"/>
    <line x1="18" y1="16" x2="18" y2="32"/>
    <line x1="24" y1="16" x2="24" y2="32"/>
    <line x1="30" y1="16" x2="30" y2="24"/>
    <line x1="36" y1="16" x2="36" y2="32"/>
  </g>
  <rect x="0" y="0" width="48" height="48" fill="url(#px)" mask="url(#m)" pointer-events="none"/>
</svg>