<svg xmlns="http://www.w3.org/2000/svg" viewBox="0 0 48 48">
  <defs>
    <pattern id="px" width="4" height="4" patternUnits="userSpaceOnUse">
      <rect width="4" height="4" fill="none"/>
      <rect width="2" height="2" fill="rgba(0,0,0,0.2)"/>
    </pattern>
    <mask id="m">
      <rect x="0" y="0" width="48" height="48" fill="black"/>
      <g fill="none" stroke="white" stroke-width="6" stroke-linecap="square" stroke-linejoin="miter" shape-rendering="crispEdges">
<rect x="6" y="16" width="36" height="28" rx="2"/>
    <rect x="12" y="8" width="24" height="8" rx="1"/>
    <rect x="14" y="20" width="8" height="10" rx="1"/>
    <rect x="26" y="20" width="8" height="10" rx="1"/>
    <rect x="10" y="34" width="28" height="4" rx="1"/>
      </g>
    </mask>
  </defs>
  <g fill="none" stroke="#9f6eb5" stroke-width="6" stroke-linecap="square" stroke-linejoin="miter" shape-rendering="crispEdges">
<rect x="6" y="16" width="36" height="28" rx="2"/>
    <rect x="12" y="8" width="24" height="8" rx="1"/>
    <rect x="14" y="20" width="8" height="10" rx="1"/>
    <rect x="26" y="20" width="8" height="10" rx="1"/>
    <rect x="10" y="34" width="28" height="4" rx="1"/>
  </g>
  <rect x="0" y="0" width="48" height="48" fill="url(#px)" mask="url(#m)" pointer-events="none"/>
</svg>