<svg xmlns="http://www.w3.org/2000/svg" viewBox="0 0 48 48">
  <defs>
    <pattern id="px" width="4" height="4" patternUnits="userSpaceOnUse">
      <rect width="4" height="4" fill="none"/>
      <rect width="2" height="2" fill="rgba(0,0,0,0.2)"/>
    </pattern>
    <mask id="m">
      <rect x="0" y="0" width="48" height="48" fill="black"/>
      <g fill="none" stroke="white" stroke-width="6" stroke-linecap="square" stroke-linejoin="miter" shape-rendering="crispEdges">
    <ellipse cx="24" cy="16" rx="7" ry="4"/>
    <circle cx="24" cy="10" r="3"/>
    <circle cx="22" cy="8" r="1.2"/>
    <path d="M18 12 L10 4 L14 10"/>
    <path d="M30 12 L38 4 L34 10"/>
    <path d="M16 16 L6 12 M32 16 L42 12"/>
    <path d="M24 16 L24 44 M24 20 L18 20 M24 24 L18 24"/>
      </g>
    </mask>
  </defs>
  <g fill="none" stroke="#a9d8a4" stroke-width="6" stroke-linecap="square" stroke-linejoin="miter" shape-rendering="crispEdges">
    <ellipse cx="24" cy="16" rx="7" ry="4"/>
    <circle cx="24" cy="10" r="3"/>
    <circle cx="22" cy="8" r="1.2"/>
    <path d="M18 12 L10 4 L14 10"/>
    <path d="M30 12 L38 4 L34 10"/>
    <path d="M16 16 L6 12 M32 16 L42 12"/>
    <path d="M24 16 L24 44 M24 20 L18 20 M24 24 L18 24"/>
  </g>
  <rect x="0" y="0" width="48" height="48" fill="url(#px)" mask="url(#m)" pointer-events="none"/>
</svg>