<svg xmlns="http://www.w3.org/2000/svg" viewBox="0 0 48 48">
  <defs>
    <pattern id="px" width="4" height="4" patternUnits="userSpaceOnUse">
      <rect width="4" height="4" fill="none"/>
      <rect width="2" height="2" fill="rgba(0,0,0,0.2)"/>
    </pattern>
    <mask id="m">
      <rect x="0" y="0" width="48" height="48" fill="black"/>
      <g fill="none" stroke="white" stroke-width="6" stroke-linecap="square" stroke-linejoin="miter" shape-rendering="crispEdges">
    <circle cx="14" cy="12" r="4"/>
    <circle cx="34" cy="10" r="4"/>
    <circle cx="24" cy="8" r="3"/>
    <line x1="14" y1="16" x2="14" y2="30 M34 14 L34 28 M24 11 L24 24"/>
    <line x1="14" y1="22" x2="34" y2="20"/>
    <line x1="10" y1="30" x2="6" y2="44 M18 30 L14 44 M38 28 L42 44 M30 24 L34 44 M24 24 L28 44"/>
      </g>
    </mask>
  </defs>
  <g fill="none" stroke="#ccc2e4" stroke-width="6" stroke-linecap="square" stroke-linejoin="miter" shape-rendering="crispEdges">
    <circle cx="14" cy="12" r="4"/>
    <circle cx="34" cy="10" r="4"/>
    <circle cx="24" cy="8" r="3"/>
    <line x1="14" y1="16" x2="14" y2="30 M34 14 L34 28 M24 11 L24 24"/>
    <line x1="14" y1="22" x2="34" y2="20"/>
    <line x1="10" y1="30" x2="6" y2="44 M18 30 L14 44 M38 28 L42 44 M30 24 L34 44 M24 24 L28 44"/>
  </g>
  <rect x="0" y="0" width="48" height="48" fill="url(#px)" mask="url(#m)" pointer-events="none"/>
</svg>