<svg xmlns="http://www.w3.org/2000/svg" viewBox="0 0 48 48">
  <defs>
    <pattern id="px" width="4" height="4" patternUnits="userSpaceOnUse">
      <rect width="4" height="4" fill="none"/>
      <rect width="2" height="2" fill="rgba(0,0,0,0.2)"/>
    </pattern>
    <mask id="m">
      <rect x="0" y="0" width="48" height="48" fill="black"/>
      <g fill="none" stroke="white" stroke-width="6" stroke-linecap="square" stroke-linejoin="miter" shape-rendering="crispEdges">
    <circle cx="24" cy="24" r="16"/>
    <path d="M24 24 L38 10 Q44 16 38 22 Q30 28 24 24 Z"/>
    <path d="M24 24 L10 38 Q4 32 10 26 Q18 20 24 24 Z"/>
    <path d="M24 24 L38 38 Q44 32 38 26 Q30 20 24 24 Z"/>
    <path d="M24 24 L10 10 Q4 16 10 22 Q18 28 24 24 Z"/>
    <circle cx="24" cy="24" r="3" fill="currentColor"/>
      </g>
    </mask>
  </defs>
  <g fill="none" stroke="#d8b3cb" stroke-width="6" stroke-linecap="square" stroke-linejoin="miter" shape-rendering="crispEdges">
    <circle cx="24" cy="24" r="16"/>
    <path d="M24 24 L38 10 Q44 16 38 22 Q30 28 24 24 Z"/>
    <path d="M24 24 L10 38 Q4 32 10 26 Q18 20 24 24 Z"/>
    <path d="M24 24 L38 38 Q44 32 38 26 Q30 20 24 24 Z"/>
    <path d="M24 24 L10 10 Q4 16 10 22 Q18 28 24 24 Z"/>
    <circle cx="24" cy="24" r="3" fill="currentColor"/>
  </g>
  <rect x="0" y="0" width="48" height="48" fill="url(#px)" mask="url(#m)" pointer-events="none"/>
</svg>