<svg xmlns="http://www.w3.org/2000/svg" viewBox="0 0 48 48">
  <defs>
    <pattern id="px" width="4" height="4" patternUnits="userSpaceOnUse">
      <rect width="4" height="4" fill="none"/>
      <rect width="2" height="2" fill="rgba(0,0,0,0.2)"/>
    </pattern>
    <mask id="m">
      <rect x="0" y="0" width="48" height="48" fill="black"/>
      <g fill="none" stroke="white" stroke-width="6" stroke-linecap="square" stroke-linejoin="miter" shape-rendering="crispEdges">
<path d="M10 40 Q10 20 24 8 Q38 20 38 40"/><line x1="24" y1="8" x2="24" y2="40"/><path d="M12 28 Q24 20 36 28"/><path d="M14 34 Q24 26 34 34"/><path d="M18 22 Q24 16 30 22"/>
      </g>
    </mask>
  </defs>
  <g fill="none" stroke="#46627f" stroke-width="6" stroke-linecap="square" stroke-linejoin="miter" shape-rendering="crispEdges">
<path d="M10 40 Q10 20 24 8 Q38 20 38 40"/><line x1="24" y1="8" x2="24" y2="40"/><path d="M12 28 Q24 20 36 28"/><path d="M14 34 Q24 26 34 34"/><path d="M18 22 Q24 16 30 22"/>
  </g>
  <rect x="0" y="0" width="48" height="48" fill="url(#px)" mask="url(#m)" pointer-events="none"/>
</svg>