<svg xmlns="http://www.w3.org/2000/svg" viewBox="0 0 48 48">
  <defs>
    <pattern id="px" width="4" height="4" patternUnits="userSpaceOnUse">
      <rect width="4" height="4" fill="none"/>
      <rect width="2" height="2" fill="rgba(0,0,0,0.2)"/>
    </pattern>
    <mask id="m">
      <rect x="0" y="0" width="48" height="48" fill="black"/>
      <g fill="none" stroke="white" stroke-width="6" stroke-linecap="square" stroke-linejoin="miter" shape-rendering="crispEdges">
    <line x1="6" y1="8" x2="6" y2="44 M18 8 L18 44 M30 8 L30 44 M42 8 L42 44"/>
    <line x1="2" y1="16" x2="46" y2="16 M2 30 L46 30"/>
    <polygon points="6,4 4,8 8,8"/>
    <polygon points="18,4 16,8 20,8"/>
    <polygon points="30,4 28,8 32,8"/>
    <polygon points="42,4 40,8 44,8"/>
      </g>
    </mask>
  </defs>
  <g fill="none" stroke="#bfaabf" stroke-width="6" stroke-linecap="square" stroke-linejoin="miter" shape-rendering="crispEdges">
    <line x1="6" y1="8" x2="6" y2="44 M18 8 L18 44 M30 8 L30 44 M42 8 L42 44"/>
    <line x1="2" y1="16" x2="46" y2="16 M2 30 L46 30"/>
    <polygon points="6,4 4,8 8,8"/>
    <polygon points="18,4 16,8 20,8"/>
    <polygon points="30,4 28,8 32,8"/>
    <polygon points="42,4 40,8 44,8"/>
  </g>
  <rect x="0" y="0" width="48" height="48" fill="url(#px)" mask="url(#m)" pointer-events="none"/>
</svg>