<svg xmlns="http://www.w3.org/2000/svg" viewBox="0 0 48 48">
  <defs>
    <pattern id="px" width="4" height="4" patternUnits="userSpaceOnUse">
      <rect width="4" height="4" fill="none"/>
      <rect width="2" height="2" fill="rgba(0,0,0,0.2)"/>
    </pattern>
    <mask id="m">
      <rect x="0" y="0" width="48" height="48" fill="black"/>
      <g fill="none" stroke="white" stroke-width="6" stroke-linecap="square" stroke-linejoin="miter" shape-rendering="crispEdges">
    <line x1="24" y1="44" x2="24" y2="6"/>
    <path d="M24 12 Q10 8 6 14 Q14 12 24 14"/>
    <path d="M24 18 Q8 16 4 22 Q12 20 24 22"/>
    <path d="M24 24 Q10 22 6 28 Q14 26 24 28"/>
    <path d="M24 30 Q12 28 8 34 Q14 32 24 34"/>
    <path d="M24 12 Q38 8 42 14 Q34 12 24 14"/>
    <path d="M24 18 Q40 16 44 22 Q36 20 24 22"/>
    <path d="M24 24 Q38 22 42 28 Q34 26 24 28"/>
    <path d="M24 30 Q36 28 40 34 Q34 32 24 34"/>
      </g>
    </mask>
  </defs>
  <g fill="none" stroke="#a0c3b6" stroke-width="6" stroke-linecap="square" stroke-linejoin="miter" shape-rendering="crispEdges">
    <line x1="24" y1="44" x2="24" y2="6"/>
    <path d="M24 12 Q10 8 6 14 Q14 12 24 14"/>
    <path d="M24 18 Q8 16 4 22 Q12 20 24 22"/>
    <path d="M24 24 Q10 22 6 28 Q14 26 24 28"/>
    <path d="M24 30 Q12 28 8 34 Q14 32 24 34"/>
    <path d="M24 12 Q38 8 42 14 Q34 12 24 14"/>
    <path d="M24 18 Q40 16 44 22 Q36 20 24 22"/>
    <path d="M24 24 Q38 22 42 28 Q34 26 24 28"/>
    <path d="M24 30 Q36 28 40 34 Q34 32 24 34"/>
  </g>
  <rect x="0" y="0" width="48" height="48" fill="url(#px)" mask="url(#m)" pointer-events="none"/>
</svg>