<svg xmlns="http://www.w3.org/2000/svg" viewBox="0 0 48 48">
  <defs>
    <pattern id="px" width="4" height="4" patternUnits="userSpaceOnUse">
      <rect width="4" height="4" fill="none"/>
      <rect width="2" height="2" fill="rgba(0,0,0,0.2)"/>
    </pattern>
    <mask id="m">
      <rect x="0" y="0" width="48" height="48" fill="black"/>
      <g fill="none" stroke="white" stroke-width="6" stroke-linecap="square" stroke-linejoin="miter" shape-rendering="crispEdges">
<line x1="24" y1="6" x2="24" y2="42"/><path d="M12 18 L24 12"/><path d="M36 18 L24 12"/><path d="M8 24 L24 18"/><path d="M40 24 L24 18"/><path d="M12 30 L24 24"/><path d="M36 30 L24 24"/><path d="M16 36 L24 30"/><path d="M32 36 L24 30"/><circle cx="24" cy="42" r="2"/>
      </g>
    </mask>
  </defs>
  <g fill="none" stroke="#7e8e41" stroke-width="6" stroke-linecap="square" stroke-linejoin="miter" shape-rendering="crispEdges">
<line x1="24" y1="6" x2="24" y2="42"/><path d="M12 18 L24 12"/><path d="M36 18 L24 12"/><path d="M8 24 L24 18"/><path d="M40 24 L24 18"/><path d="M12 30 L24 24"/><path d="M36 30 L24 24"/><path d="M16 36 L24 30"/><path d="M32 36 L24 30"/><circle cx="24" cy="42" r="2"/>
  </g>
  <rect x="0" y="0" width="48" height="48" fill="url(#px)" mask="url(#m)" pointer-events="none"/>
</svg>