<svg xmlns="http://www.w3.org/2000/svg" viewBox="0 0 48 48">
  <defs>
    <pattern id="px" width="4" height="4" patternUnits="userSpaceOnUse">
      <rect width="4" height="4" fill="none"/>
      <rect width="2" height="2" fill="rgba(0,0,0,0.2)"/>
    </pattern>
    <mask id="m">
      <rect x="0" y="0" width="48" height="48" fill="black"/>
      <g fill="none" stroke="white" stroke-width="6" stroke-linecap="square" stroke-linejoin="miter" shape-rendering="crispEdges">
    <path d="M8 14a4 4 0 014-4h8l4 4h12a4 4 0 014 4v16a4 4 0 01-4 4H12a4 4 0 01-4-4V14z"/>
      </g>
    </mask>
  </defs>
  <g fill="none" stroke="#66BB6A" stroke-width="6" stroke-linecap="square" stroke-linejoin="miter" shape-rendering="crispEdges">
    <path d="M8 14a4 4 0 014-4h8l4 4h12a4 4 0 014 4v16a4 4 0 01-4 4H12a4 4 0 01-4-4V14z"/>
  </g>
  <rect x="0" y="0" width="48" height="48" fill="url(#px)" mask="url(#m)" pointer-events="none"/>
</svg>