<svg xmlns="http://www.w3.org/2000/svg" viewBox="0 0 48 48">
  <defs>
    <pattern id="px" width="4" height="4" patternUnits="userSpaceOnUse">
      <rect width="4" height="4" fill="none"/>
      <rect width="2" height="2" fill="rgba(0,0,0,0.2)"/>
    </pattern>
    <mask id="m">
      <rect x="0" y="0" width="48" height="48" fill="black"/>
      <g fill="none" stroke="white" stroke-width="6" stroke-linecap="square" stroke-linejoin="miter" shape-rendering="crispEdges">
<path d="M6 38 Q6 14 24 14 Q42 14 42 38"/>
    <path d="M12 38 Q12 20 24 20 Q36 20 36 38"/>
    <path d="M18 38 Q18 26 24 26 Q30 26 30 38"/>
      </g>
    </mask>
  </defs>
  <g fill="none" stroke="#5e9e5d" stroke-width="6" stroke-linecap="square" stroke-linejoin="miter" shape-rendering="crispEdges">
<path d="M6 38 Q6 14 24 14 Q42 14 42 38"/>
    <path d="M12 38 Q12 20 24 20 Q36 20 36 38"/>
    <path d="M18 38 Q18 26 24 26 Q30 26 30 38"/>
  </g>
  <rect x="0" y="0" width="48" height="48" fill="url(#px)" mask="url(#m)" pointer-events="none"/>
</svg>