<svg xmlns="http://www.w3.org/2000/svg" viewBox="0 0 48 48">
  <defs>
    <pattern id="px" width="4" height="4" patternUnits="userSpaceOnUse">
      <rect width="4" height="4" fill="none"/>
      <rect width="2" height="2" fill="rgba(0,0,0,0.2)"/>
    </pattern>
    <mask id="m">
      <rect x="0" y="0" width="48" height="48" fill="black"/>
      <g fill="none" stroke="white" stroke-width="6" stroke-linecap="square" stroke-linejoin="miter" shape-rendering="crispEdges">
    <path d="M4 30 Q24 18 44 30 L38 44 L10 44 Z"/>
    <line x1="24" y1="26" x2="24" y2="44"/>
    <line x1="24" y1="26" x2="32" y2="18"/>
    <line x1="32" y1="18" x2="38" y2="14"/>
    <path d="M28 24 L36 24"/>
      </g>
    </mask>
  </defs>
  <g fill="none" stroke="#b5ddad" stroke-width="6" stroke-linecap="square" stroke-linejoin="miter" shape-rendering="crispEdges">
    <path d="M4 30 Q24 18 44 30 L38 44 L10 44 Z"/>
    <line x1="24" y1="26" x2="24" y2="44"/>
    <line x1="24" y1="26" x2="32" y2="18"/>
    <line x1="32" y1="18" x2="38" y2="14"/>
    <path d="M28 24 L36 24"/>
  </g>
  <rect x="0" y="0" width="48" height="48" fill="url(#px)" mask="url(#m)" pointer-events="none"/>
</svg>