<svg xmlns="http://www.w3.org/2000/svg" viewBox="0 0 48 48">
  <defs>
    <pattern id="px" width="4" height="4" patternUnits="userSpaceOnUse">
      <rect width="4" height="4" fill="none"/>
      <rect width="2" height="2" fill="rgba(0,0,0,0.2)"/>
    </pattern>
    <mask id="m">
      <rect x="0" y="0" width="48" height="48" fill="black"/>
      <g fill="none" stroke="white" stroke-width="6" stroke-linecap="square" stroke-linejoin="miter" shape-rendering="crispEdges">
    <path d="M12 14 L12 38 Q12 42 20 42 L28 42 Q32 42 32 38 L32 24 Q32 14 24 14 Z"/>
    <line x1="12" y1="22" x2="32" y2="22 M12 30 L32 30"/>
      </g>
    </mask>
  </defs>
  <g fill="none" stroke="#dbcbb7" stroke-width="6" stroke-linecap="square" stroke-linejoin="miter" shape-rendering="crispEdges">
    <path d="M12 14 L12 38 Q12 42 20 42 L28 42 Q32 42 32 38 L32 24 Q32 14 24 14 Z"/>
    <line x1="12" y1="22" x2="32" y2="22 M12 30 L32 30"/>
  </g>
  <rect x="0" y="0" width="48" height="48" fill="url(#px)" mask="url(#m)" pointer-events="none"/>
</svg>