<svg xmlns="http://www.w3.org/2000/svg" viewBox="0 0 48 48">
  <defs>
    <pattern id="px" width="4" height="4" patternUnits="userSpaceOnUse">
      <rect width="4" height="4" fill="none"/>
      <rect width="2" height="2" fill="rgba(0,0,0,0.2)"/>
    </pattern>
    <mask id="m">
      <rect x="0" y="0" width="48" height="48" fill="black"/>
      <g fill="none" stroke="white" stroke-width="6" stroke-linecap="square" stroke-linejoin="miter" shape-rendering="crispEdges">
    <ellipse cx="24" cy="20" rx="9" ry="6"/>
    <circle cx="24" cy="12" r="4"/>
    <circle cx="22" cy="10" r="1.5"/>
    <path d="M16 20 Q10 16 8 12"/>
    <path d="M22 22 L22 44 M22 44 L18 44 M22 44 L26 44"/>
    <line x1="22" y1="28" x2="30" y2="28"/>
      </g>
    </mask>
  </defs>
  <g fill="none" stroke="#c7aab2" stroke-width="6" stroke-linecap="square" stroke-linejoin="miter" shape-rendering="crispEdges">
    <ellipse cx="24" cy="20" rx="9" ry="6"/>
    <circle cx="24" cy="12" r="4"/>
    <circle cx="22" cy="10" r="1.5"/>
    <path d="M16 20 Q10 16 8 12"/>
    <path d="M22 22 L22 44 M22 44 L18 44 M22 44 L26 44"/>
    <line x1="22" y1="28" x2="30" y2="28"/>
  </g>
  <rect x="0" y="0" width="48" height="48" fill="url(#px)" mask="url(#m)" pointer-events="none"/>
</svg>