<svg xmlns="http://www.w3.org/2000/svg" viewBox="0 0 48 48">
  <defs>
    <pattern id="px" width="4" height="4" patternUnits="userSpaceOnUse">
      <rect width="4" height="4" fill="none"/>
      <rect width="2" height="2" fill="rgba(0,0,0,0.2)"/>
    </pattern>
    <mask id="m">
      <rect x="0" y="0" width="48" height="48" fill="black"/>
      <g fill="none" stroke="white" stroke-width="6" stroke-linecap="square" stroke-linejoin="miter" shape-rendering="crispEdges">
    <rect x="8" y="34" width="32" height="6" rx="3"/>
    <line x1="14" y1="34" x2="14" y2="14 M24 34 L24 12 M34 34 L34 14"/>
    <ellipse cx="14" cy="14" rx="4" ry="5"/>
    <ellipse cx="24" cy="12" rx="4" ry="5"/>
    <ellipse cx="34" cy="14" rx="4" ry="5"/>
      </g>
    </mask>
  </defs>
  <g fill="none" stroke="#e2bbc0" stroke-width="6" stroke-linecap="square" stroke-linejoin="miter" shape-rendering="crispEdges">
    <rect x="8" y="34" width="32" height="6" rx="3"/>
    <line x1="14" y1="34" x2="14" y2="14 M24 34 L24 12 M34 34 L34 14"/>
    <ellipse cx="14" cy="14" rx="4" ry="5"/>
    <ellipse cx="24" cy="12" rx="4" ry="5"/>
    <ellipse cx="34" cy="14" rx="4" ry="5"/>
  </g>
  <rect x="0" y="0" width="48" height="48" fill="url(#px)" mask="url(#m)" pointer-events="none"/>
</svg>