<svg xmlns="http://www.w3.org/2000/svg" viewBox="0 0 48 48">
  <defs>
    <pattern id="px" width="4" height="4" patternUnits="userSpaceOnUse">
      <rect width="4" height="4" fill="none"/>
      <rect width="2" height="2" fill="rgba(0,0,0,0.2)"/>
    </pattern>
    <mask id="m">
      <rect x="0" y="0" width="48" height="48" fill="black"/>
      <g fill="none" stroke="white" stroke-width="6" stroke-linecap="square" stroke-linejoin="miter" shape-rendering="crispEdges">
    <path d="M4 10 L4 38 Q4 42 8 42 L40 42 Q44 42 44 38 L44 16 Q44 12 40 12 L22 12 L18 8 L8 8 Q4 8 4 12 Z"/>
    <circle cx="32" cy="26" r="3" fill="currentColor"/>
      </g>
    </mask>
  </defs>
  <g fill="none" stroke="#cdb1b7" stroke-width="6" stroke-linecap="square" stroke-linejoin="miter" shape-rendering="crispEdges">
    <path d="M4 10 L4 38 Q4 42 8 42 L40 42 Q44 42 44 38 L44 16 Q44 12 40 12 L22 12 L18 8 L8 8 Q4 8 4 12 Z"/>
    <circle cx="32" cy="26" r="3" fill="currentColor"/>
  </g>
  <rect x="0" y="0" width="48" height="48" fill="url(#px)" mask="url(#m)" pointer-events="none"/>
</svg>