<svg xmlns="http://www.w3.org/2000/svg" viewBox="0 0 48 48">
  <defs>
    <pattern id="px" width="4" height="4" patternUnits="userSpaceOnUse">
      <rect width="4" height="4" fill="none"/>
      <rect width="2" height="2" fill="rgba(0,0,0,0.2)"/>
    </pattern>
    <mask id="m">
      <rect x="0" y="0" width="48" height="48" fill="black"/>
      <g fill="none" stroke="white" stroke-width="6" stroke-linecap="square" stroke-linejoin="miter" shape-rendering="crispEdges">
    <path d="M6 24 L42 24 M24 6 L24 42"/>
    <line x1="12" y1="12" x2="36" y2="36 M36 12 L12 36"/>
    <line x1="6" y1="10" x2="10" y2="6 M42 10 L38 6 M6 38 L10 42 M42 38 L38 42"/>
      </g>
    </mask>
  </defs>
  <g fill="none" stroke="#bfaecb" stroke-width="6" stroke-linecap="square" stroke-linejoin="miter" shape-rendering="crispEdges">
    <path d="M6 24 L42 24 M24 6 L24 42"/>
    <line x1="12" y1="12" x2="36" y2="36 M36 12 L12 36"/>
    <line x1="6" y1="10" x2="10" y2="6 M42 10 L38 6 M6 38 L10 42 M42 38 L38 42"/>
  </g>
  <rect x="0" y="0" width="48" height="48" fill="url(#px)" mask="url(#m)" pointer-events="none"/>
</svg>