<svg xmlns="http://www.w3.org/2000/svg" viewBox="0 0 48 48">
  <defs>
    <pattern id="px" width="4" height="4" patternUnits="userSpaceOnUse">
      <rect width="4" height="4" fill="none"/>
      <rect width="2" height="2" fill="rgba(0,0,0,0.2)"/>
    </pattern>
    <mask id="m">
      <rect x="0" y="0" width="48" height="48" fill="black"/>
      <g fill="none" stroke="white" stroke-width="6" stroke-linecap="square" stroke-linejoin="miter" shape-rendering="crispEdges">
    <rect x="6" y="18" width="36" height="18" rx="4"/>
    <rect x="12" y="22" width="10" height="10" rx="2"/>
    <rect x="26" y="22" width="10" height="10" rx="2"/>
    <line x1="6" y1="36" x2="2" y2="44"/>
    <line x1="42" y1="36" x2="46" y2="44"/>
    <line x1="2" y1="44" x2="46" y2="44"/>
      </g>
    </mask>
  </defs>
  <g fill="none" stroke="#d8cdbb" stroke-width="6" stroke-linecap="square" stroke-linejoin="miter" shape-rendering="crispEdges">
    <rect x="6" y="18" width="36" height="18" rx="4"/>
    <rect x="12" y="22" width="10" height="10" rx="2"/>
    <rect x="26" y="22" width="10" height="10" rx="2"/>
    <line x1="6" y1="36" x2="2" y2="44"/>
    <line x1="42" y1="36" x2="46" y2="44"/>
    <line x1="2" y1="44" x2="46" y2="44"/>
  </g>
  <rect x="0" y="0" width="48" height="48" fill="url(#px)" mask="url(#m)" pointer-events="none"/>
</svg>