<svg xmlns="http://www.w3.org/2000/svg" viewBox="0 0 48 48">
  <defs>
    <pattern id="px" width="4" height="4" patternUnits="userSpaceOnUse">
      <rect width="4" height="4" fill="none"/>
      <rect width="2" height="2" fill="rgba(0,0,0,0.2)"/>
    </pattern>
    <mask id="m">
      <rect x="0" y="0" width="48" height="48" fill="black"/>
      <g fill="none" stroke="white" stroke-width="6" stroke-linecap="square" stroke-linejoin="miter" shape-rendering="crispEdges">
<rect x="10" y="14" width="28" height="16" rx="4"/><line x1="10" y1="22" x2="40" y2="22"/><circle cx="24" cy="22" r="4"/><circle cx="24" cy="22" r="2"/><line x1="6" y1="22" x2="10" y2="22"/><line x1="38" y1="22" x2="42" y2="22"/>
      </g>
    </mask>
  </defs>
  <g fill="none" stroke="#779eb5" stroke-width="6" stroke-linecap="square" stroke-linejoin="miter" shape-rendering="crispEdges">
<rect x="10" y="14" width="28" height="16" rx="4"/><line x1="10" y1="22" x2="40" y2="22"/><circle cx="24" cy="22" r="4"/><circle cx="24" cy="22" r="2"/><line x1="6" y1="22" x2="10" y2="22"/><line x1="38" y1="22" x2="42" y2="22"/>
  </g>
  <rect x="0" y="0" width="48" height="48" fill="url(#px)" mask="url(#m)" pointer-events="none"/>
</svg>