<svg xmlns="http://www.w3.org/2000/svg" viewBox="0 0 48 48">
  <defs>
    <pattern id="px" width="4" height="4" patternUnits="userSpaceOnUse">
      <rect width="4" height="4" fill="none"/>
      <rect width="2" height="2" fill="rgba(0,0,0,0.2)"/>
    </pattern>
    <mask id="m">
      <rect x="0" y="0" width="48" height="48" fill="black"/>
      <g fill="none" stroke="white" stroke-width="6" stroke-linecap="square" stroke-linejoin="miter" shape-rendering="crispEdges">
    <rect x="8" y="18" width="22" height="12" rx="5"/>
    <rect x="30" y="14" width="10" height="20" rx="5"/>
    <line x1="15" y1="21" x2="15" y2="27"/>
    <line x1="12" y1="24" x2="18" y2="24"/>
    <circle cx="35" cy="19" r="1.5" fill="white"/>
    <circle cx="35" cy="29" r="1.5" fill="white"/>
    <circle cx="32" cy="24" r="1.5" fill="white"/>
    <circle cx="38" cy="24" r="1.5" fill="white"/>
      </g>
    </mask>
  </defs>
  <g fill="none" stroke="#E57373" stroke-width="6" stroke-linecap="square" stroke-linejoin="miter" shape-rendering="crispEdges">
    <rect x="8" y="18" width="22" height="12" rx="5"/>
    <rect x="30" y="14" width="10" height="20" rx="5"/>
    <line x1="15" y1="21" x2="15" y2="27"/>
    <line x1="12" y1="24" x2="18" y2="24"/>
    <circle cx="35" cy="19" r="1.5" fill="#E57373"/>
    <circle cx="35" cy="29" r="1.5" fill="#E57373"/>
    <circle cx="32" cy="24" r="1.5" fill="#E57373"/>
    <circle cx="38" cy="24" r="1.5" fill="#E57373"/>
  </g>
  <rect x="0" y="0" width="48" height="48" fill="url(#px)" mask="url(#m)" pointer-events="none"/>
</svg>