<svg xmlns="http://www.w3.org/2000/svg" viewBox="0 0 48 48">
  <defs>
    <pattern id="px" width="4" height="4" patternUnits="userSpaceOnUse">
      <rect width="4" height="4" fill="none"/>
      <rect width="2" height="2" fill="rgba(0,0,0,0.2)"/>
    </pattern>
    <mask id="m">
      <rect x="0" y="0" width="48" height="48" fill="black"/>
      <g fill="none" stroke="white" stroke-width="6" stroke-linecap="square" stroke-linejoin="miter" shape-rendering="crispEdges">
    <path d="M6 8 Q16 14 24 8 Q32 14 42 8" fill="none"/>
    <path d="M6 14 Q16 20 24 14 Q32 20 42 14" fill="none"/>
    <path d="M6 20 Q16 26 24 20 Q32 26 42 20" fill="none"/>
    <circle cx="10" cy="8" r="3" fill="none"/>
    <circle cx="24" cy="8" r="3" fill="none"/>
    <circle cx="38" cy="8" r="3" fill="none"/>
      </g>
    </mask>
  </defs>
  <g fill="none" stroke="#a7c9a4" stroke-width="6" stroke-linecap="square" stroke-linejoin="miter" shape-rendering="crispEdges">
    <path d="M6 8 Q16 14 24 8 Q32 14 42 8" fill="none"/>
    <path d="M6 14 Q16 20 24 14 Q32 20 42 14" fill="none"/>
    <path d="M6 20 Q16 26 24 20 Q32 26 42 20" fill="none"/>
    <circle cx="10" cy="8" r="3" fill="none"/>
    <circle cx="24" cy="8" r="3" fill="none"/>
    <circle cx="38" cy="8" r="3" fill="none"/>
  </g>
  <rect x="0" y="0" width="48" height="48" fill="url(#px)" mask="url(#m)" pointer-events="none"/>
</svg>