<svg xmlns="http://www.w3.org/2000/svg" viewBox="0 0 48 48">
  <defs>
    <pattern id="px" width="4" height="4" patternUnits="userSpaceOnUse">
      <rect width="4" height="4" fill="none"/>
      <rect width="2" height="2" fill="rgba(0,0,0,0.2)"/>
    </pattern>
    <mask id="m">
      <rect x="0" y="0" width="48" height="48" fill="black"/>
      <g fill="none" stroke="white" stroke-width="6" stroke-linecap="square" stroke-linejoin="miter" shape-rendering="crispEdges">
<rect x="6" y="14" width="36" height="20" rx="4"/>
    <rect x="10" y="8" width="28" height="6" rx="3"/>
    <rect x="16" y="34" width="16" height="6" rx="2"/>
    <line x1="14" y1="18" x2="34" y2="18"/>
    <line x1="14" y1="26" x2="28" y2="26"/>
      </g>
    </mask>
  </defs>
  <g fill="none" stroke="#a440bc" stroke-width="6" stroke-linecap="square" stroke-linejoin="miter" shape-rendering="crispEdges">
<rect x="6" y="14" width="36" height="20" rx="4"/>
    <rect x="10" y="8" width="28" height="6" rx="3"/>
    <rect x="16" y="34" width="16" height="6" rx="2"/>
    <line x1="14" y1="18" x2="34" y2="18"/>
    <line x1="14" y1="26" x2="28" y2="26"/>
  </g>
  <rect x="0" y="0" width="48" height="48" fill="url(#px)" mask="url(#m)" pointer-events="none"/>
</svg>