<svg xmlns="http://www.w3.org/2000/svg" viewBox="0 0 48 48">
  <defs>
    <pattern id="px" width="4" height="4" patternUnits="userSpaceOnUse">
      <rect width="4" height="4" fill="none"/>
      <rect width="2" height="2" fill="rgba(0,0,0,0.2)"/>
    </pattern>
    <mask id="m">
      <rect x="0" y="0" width="48" height="48" fill="black"/>
      <g fill="none" stroke="white" stroke-width="6" stroke-linecap="square" stroke-linejoin="miter" shape-rendering="crispEdges">
    <rect x="4" y="10" width="40" height="34" rx="2"/>
    <rect x="10" y="10" width="12" height="20" rx="2"/>
    <rect x="26" y="10" width="12" height="20" rx="2"/>
    <polygon points="24,4 2,12 46,12"/>
    <circle cx="16" cy="20" r="2"/>
    <circle cx="32" cy="20" r="2"/>
      </g>
    </mask>
  </defs>
  <g fill="none" stroke="#a9c6be" stroke-width="6" stroke-linecap="square" stroke-linejoin="miter" shape-rendering="crispEdges">
    <rect x="4" y="10" width="40" height="34" rx="2"/>
    <rect x="10" y="10" width="12" height="20" rx="2"/>
    <rect x="26" y="10" width="12" height="20" rx="2"/>
    <polygon points="24,4 2,12 46,12"/>
    <circle cx="16" cy="20" r="2"/>
    <circle cx="32" cy="20" r="2"/>
  </g>
  <rect x="0" y="0" width="48" height="48" fill="url(#px)" mask="url(#m)" pointer-events="none"/>
</svg>