<svg xmlns="http://www.w3.org/2000/svg" viewBox="0 0 48 48">
  <defs>
    <pattern id="px" width="4" height="4" patternUnits="userSpaceOnUse">
      <rect width="4" height="4" fill="none"/>
      <rect width="2" height="2" fill="rgba(0,0,0,0.2)"/>
    </pattern>
    <mask id="m">
      <rect x="0" y="0" width="48" height="48" fill="black"/>
      <g fill="none" stroke="white" stroke-width="6" stroke-linecap="square" stroke-linejoin="miter" shape-rendering="crispEdges">
    <ellipse cx="24" cy="24" rx="8" ry="6"/>
    <circle cx="24" cy="14" r="4"/>
    <circle cx="22" cy="12" r="1.5"/>
    <circle cx="26" cy="12" r="1.5"/>
    <path d="M18 10 L16 4 M30 10 L32 4"/>
    <line x1="16" y1="28" x2="10" y2="44"/>
    <line x1="32" y1="28" x2="38" y2="44"/>
    <path d="M20 38 L28 38 M22 42 L26 42"/>
      </g>
    </mask>
  </defs>
  <g fill="none" stroke="#c9b8d3" stroke-width="6" stroke-linecap="square" stroke-linejoin="miter" shape-rendering="crispEdges">
    <ellipse cx="24" cy="24" rx="8" ry="6"/>
    <circle cx="24" cy="14" r="4"/>
    <circle cx="22" cy="12" r="1.5"/>
    <circle cx="26" cy="12" r="1.5"/>
    <path d="M18 10 L16 4 M30 10 L32 4"/>
    <line x1="16" y1="28" x2="10" y2="44"/>
    <line x1="32" y1="28" x2="38" y2="44"/>
    <path d="M20 38 L28 38 M22 42 L26 42"/>
  </g>
  <rect x="0" y="0" width="48" height="48" fill="url(#px)" mask="url(#m)" pointer-events="none"/>
</svg>