<svg xmlns="http://www.w3.org/2000/svg" viewBox="0 0 48 48">
  <defs>
    <pattern id="px" width="4" height="4" patternUnits="userSpaceOnUse">
      <rect width="4" height="4" fill="none"/>
      <rect width="2" height="2" fill="rgba(0,0,0,0.2)"/>
    </pattern>
    <mask id="m">
      <rect x="0" y="0" width="48" height="48" fill="black"/>
      <g fill="none" stroke="white" stroke-width="6" stroke-linecap="square" stroke-linejoin="miter" shape-rendering="crispEdges">
    <polygon points="24,8 29,14 38,16 35,24 38,32 29,34 24,40 19,34 10,32 13,24 10,16 19,14"/>
    <circle cx="24" cy="24" r="4"/>
      </g>
    </mask>
  </defs>
  <g fill="none" stroke="#4FC3F7" stroke-width="6" stroke-linecap="square" stroke-linejoin="miter" shape-rendering="crispEdges">
    <polygon points="24,8 29,14 38,16 35,24 38,32 29,34 24,40 19,34 10,32 13,24 10,16 19,14"/>
    <circle cx="24" cy="24" r="4"/>
  </g>
  <rect x="0" y="0" width="48" height="48" fill="url(#px)" mask="url(#m)" pointer-events="none"/>
</svg>