<svg xmlns="http://www.w3.org/2000/svg" viewBox="0 0 48 48">
  <defs>
    <pattern id="px" width="4" height="4" patternUnits="userSpaceOnUse">
      <rect width="4" height="4" fill="none"/>
      <rect width="2" height="2" fill="rgba(0,0,0,0.2)"/>
    </pattern>
    <mask id="m">
      <rect x="0" y="0" width="48" height="48" fill="black"/>
      <g fill="none" stroke="white" stroke-width="6" stroke-linecap="square" stroke-linejoin="miter" shape-rendering="crispEdges">
    <path d="M24 6 Q10 14 10 28 Q10 36 24 44 Q38 36 38 28 Q38 14 24 6 Z"/>
    <line x1="24" y1="14" x2="24" y2="24 M18 18 L30 18 M18 28 L30 28"/>
    <circle cx="24" cy="20" r="2" fill="currentColor"/>
      </g>
    </mask>
  </defs>
  <g fill="none" stroke="#e6c5e0" stroke-width="6" stroke-linecap="square" stroke-linejoin="miter" shape-rendering="crispEdges">
    <path d="M24 6 Q10 14 10 28 Q10 36 24 44 Q38 36 38 28 Q38 14 24 6 Z"/>
    <line x1="24" y1="14" x2="24" y2="24 M18 18 L30 18 M18 28 L30 28"/>
    <circle cx="24" cy="20" r="2" fill="currentColor"/>
  </g>
  <rect x="0" y="0" width="48" height="48" fill="url(#px)" mask="url(#m)" pointer-events="none"/>
</svg>