<svg xmlns="http://www.w3.org/2000/svg" viewBox="0 0 48 48">
  <defs>
    <pattern id="px" width="4" height="4" patternUnits="userSpaceOnUse">
      <rect width="4" height="4" fill="none"/>
      <rect width="2" height="2" fill="rgba(0,0,0,0.2)"/>
    </pattern>
    <mask id="m">
      <rect x="0" y="0" width="48" height="48" fill="black"/>
      <g fill="none" stroke="white" stroke-width="6" stroke-linecap="square" stroke-linejoin="miter" shape-rendering="crispEdges">
<path d="M14 8 Q14 4 24 4 Q34 4 34 8 L38 32 Q38 40 24 40 Q10 40 10 32 Z"/>
    <circle cx="20" cy="20" r="3"/><circle cx="28" cy="20" r="3"/>
    <path d="M18 30 Q24 34 30 30"/>
      </g>
    </mask>
  </defs>
  <g fill="none" stroke="#61aa9f" stroke-width="6" stroke-linecap="square" stroke-linejoin="miter" shape-rendering="crispEdges">
<path d="M14 8 Q14 4 24 4 Q34 4 34 8 L38 32 Q38 40 24 40 Q10 40 10 32 Z"/>
    <circle cx="20" cy="20" r="3"/><circle cx="28" cy="20" r="3"/>
    <path d="M18 30 Q24 34 30 30"/>
  </g>
  <rect x="0" y="0" width="48" height="48" fill="url(#px)" mask="url(#m)" pointer-events="none"/>
</svg>