<svg xmlns="http://www.w3.org/2000/svg" viewBox="0 0 48 48">
  <defs>
    <pattern id="px" width="4" height="4" patternUnits="userSpaceOnUse">
      <rect width="4" height="4" fill="none"/>
      <rect width="2" height="2" fill="rgba(0,0,0,0.2)"/>
    </pattern>
    <mask id="m">
      <rect x="0" y="0" width="48" height="48" fill="black"/>
      <g fill="none" stroke="white" stroke-width="6" stroke-linecap="square" stroke-linejoin="miter" shape-rendering="crispEdges">
    <circle cx="24" cy="10" r="7"/>
    <circle cx="20" cy="8" r="2"/>
    <circle cx="28" cy="8" r="2"/>
    <path d="M20 14 Q24 18 28 14"/>
    <line x1="24" y1="17" x2="24" y2="44"/>
    <line x1="10" y1="30" x2="4" y2="44 M38 30 L44 44"/>
    <line x1="18" y1="22" x2="10" y2="30 M30 22 L38 30"/>
      </g>
    </mask>
  </defs>
  <g fill="none" stroke="#c3b0a3" stroke-width="6" stroke-linecap="square" stroke-linejoin="miter" shape-rendering="crispEdges">
    <circle cx="24" cy="10" r="7"/>
    <circle cx="20" cy="8" r="2"/>
    <circle cx="28" cy="8" r="2"/>
    <path d="M20 14 Q24 18 28 14"/>
    <line x1="24" y1="17" x2="24" y2="44"/>
    <line x1="10" y1="30" x2="4" y2="44 M38 30 L44 44"/>
    <line x1="18" y1="22" x2="10" y2="30 M30 22 L38 30"/>
  </g>
  <rect x="0" y="0" width="48" height="48" fill="url(#px)" mask="url(#m)" pointer-events="none"/>
</svg>