<svg xmlns="http://www.w3.org/2000/svg" viewBox="0 0 48 48">
  <defs>
    <pattern id="px" width="4" height="4" patternUnits="userSpaceOnUse">
      <rect width="4" height="4" fill="none"/>
      <rect width="2" height="2" fill="rgba(0,0,0,0.2)"/>
    </pattern>
    <mask id="m">
      <rect x="0" y="0" width="48" height="48" fill="black"/>
      <g fill="none" stroke="white" stroke-width="6" stroke-linecap="square" stroke-linejoin="miter" shape-rendering="crispEdges">
<rect x="10" y="16" width="28" height="22" rx="4"/>
    <rect x="16" y="8" width="16" height="8" rx="2"/>
    <line x1="16" y1="4" x2="16" y2="8"/>
    <line x1="32" y1="4" x2="32" y2="8"/>
    <rect x="14" y="22" width="8" height="6" rx="1"/>
    <rect x="26" y="22" width="8" height="6" rx="1"/>
    <rect x="20" y="30" width="8" height="4" rx="1"/>
    <line x1="10" y1="38" x2="6" y2="42"/>
    <line x1="38" y1="38" x2="42" y2="42"/>
      </g>
    </mask>
  </defs>
  <g fill="none" stroke="#ba3d39" stroke-width="6" stroke-linecap="square" stroke-linejoin="miter" shape-rendering="crispEdges">
<rect x="10" y="16" width="28" height="22" rx="4"/>
    <rect x="16" y="8" width="16" height="8" rx="2"/>
    <line x1="16" y1="4" x2="16" y2="8"/>
    <line x1="32" y1="4" x2="32" y2="8"/>
    <rect x="14" y="22" width="8" height="6" rx="1"/>
    <rect x="26" y="22" width="8" height="6" rx="1"/>
    <rect x="20" y="30" width="8" height="4" rx="1"/>
    <line x1="10" y1="38" x2="6" y2="42"/>
    <line x1="38" y1="38" x2="42" y2="42"/>
  </g>
  <rect x="0" y="0" width="48" height="48" fill="url(#px)" mask="url(#m)" pointer-events="none"/>
</svg>