<svg xmlns="http://www.w3.org/2000/svg" viewBox="0 0 48 48">
  <defs>
    <pattern id="px" width="4" height="4" patternUnits="userSpaceOnUse">
      <rect width="4" height="4" fill="none"/>
      <rect width="2" height="2" fill="rgba(0,0,0,0.2)"/>
    </pattern>
    <mask id="m">
      <rect x="0" y="0" width="48" height="48" fill="black"/>
      <g fill="none" stroke="white" stroke-width="6" stroke-linecap="square" stroke-linejoin="miter" shape-rendering="crispEdges">
    <path d="M30 8 Q22 8 18 18 L14 44 L30 44 L34 20 Q36 12 30 8 Z"/>
    <line x1="18" y1="24" x2="30" y2="24 M16 30 L30 30 M14 36 L30 36"/>
    <circle cx="30" cy="14" r="3"/>
      </g>
    </mask>
  </defs>
  <g fill="none" stroke="#a6c9b3" stroke-width="6" stroke-linecap="square" stroke-linejoin="miter" shape-rendering="crispEdges">
    <path d="M30 8 Q22 8 18 18 L14 44 L30 44 L34 20 Q36 12 30 8 Z"/>
    <line x1="18" y1="24" x2="30" y2="24 M16 30 L30 30 M14 36 L30 36"/>
    <circle cx="30" cy="14" r="3"/>
  </g>
  <rect x="0" y="0" width="48" height="48" fill="url(#px)" mask="url(#m)" pointer-events="none"/>
</svg>