<svg xmlns="http://www.w3.org/2000/svg" viewBox="0 0 48 48">
  <defs>
    <pattern id="px" width="4" height="4" patternUnits="userSpaceOnUse">
      <rect width="4" height="4" fill="none"/>
      <rect width="2" height="2" fill="rgba(0,0,0,0.2)"/>
    </pattern>
    <mask id="m">
      <rect x="0" y="0" width="48" height="48" fill="black"/>
      <g fill="none" stroke="white" stroke-width="6" stroke-linecap="square" stroke-linejoin="miter" shape-rendering="crispEdges">
<ellipse cx="22" cy="26" rx="8" ry="12"/><circle cx="26" cy="10" r="6"/><path d="M30 6 L36 4 L32 14"/><circle cx="26" cy="10" r="2"/><path d="M18 26 Q24 34 28 26"/><line x1="20" y1="36" x2="18" y2="42"/><line x1="24" y1="38" x2="22" y2="42"/>
      </g>
    </mask>
  </defs>
  <g fill="none" stroke="#634b84" stroke-width="6" stroke-linecap="square" stroke-linejoin="miter" shape-rendering="crispEdges">
<ellipse cx="22" cy="26" rx="8" ry="12"/><circle cx="26" cy="10" r="6"/><path d="M30 6 L36 4 L32 14"/><circle cx="26" cy="10" r="2"/><path d="M18 26 Q24 34 28 26"/><line x1="20" y1="36" x2="18" y2="42"/><line x1="24" y1="38" x2="22" y2="42"/>
  </g>
  <rect x="0" y="0" width="48" height="48" fill="url(#px)" mask="url(#m)" pointer-events="none"/>
</svg>