<svg xmlns="http://www.w3.org/2000/svg" viewBox="0 0 48 48">
  <defs>
    <pattern id="px" width="4" height="4" patternUnits="userSpaceOnUse">
      <rect width="4" height="4" fill="none"/>
      <rect width="2" height="2" fill="rgba(0,0,0,0.2)"/>
    </pattern>
    <mask id="m">
      <rect x="0" y="0" width="48" height="48" fill="black"/>
      <g fill="none" stroke="white" stroke-width="6" stroke-linecap="square" stroke-linejoin="miter" shape-rendering="crispEdges">
    <ellipse cx="24" cy="20" rx="8" ry="5"/>
    <circle cx="24" cy="12" r="4"/>
    <circle cx="22" cy="10" r="1.5"/>
    <path d="M28 14 Q36 10 38 16 Q36 20 28 18"/>
    <path d="M24 20 L24 44 M24 24 L20 24 M24 28 L20 28"/>
      </g>
    </mask>
  </defs>
  <g fill="none" stroke="#c4c5a5" stroke-width="6" stroke-linecap="square" stroke-linejoin="miter" shape-rendering="crispEdges">
    <ellipse cx="24" cy="20" rx="8" ry="5"/>
    <circle cx="24" cy="12" r="4"/>
    <circle cx="22" cy="10" r="1.5"/>
    <path d="M28 14 Q36 10 38 16 Q36 20 28 18"/>
    <path d="M24 20 L24 44 M24 24 L20 24 M24 28 L20 28"/>
  </g>
  <rect x="0" y="0" width="48" height="48" fill="url(#px)" mask="url(#m)" pointer-events="none"/>
</svg>