<svg xmlns="http://www.w3.org/2000/svg" viewBox="0 0 48 48">
  <defs>
    <pattern id="px" width="4" height="4" patternUnits="userSpaceOnUse">
      <rect width="4" height="4" fill="none"/>
      <rect width="2" height="2" fill="rgba(0,0,0,0.2)"/>
    </pattern>
    <mask id="m">
      <rect x="0" y="0" width="48" height="48" fill="black"/>
      <g fill="none" stroke="white" stroke-width="6" stroke-linecap="square" stroke-linejoin="miter" shape-rendering="crispEdges">
<path d="M8 8 L30 8 L30 14 Q34 14 34 18 Q38 18 38 14 L42 14 L42 40 L8 40 Z"/>
    <path d="M30 8 Q30 4 26 4 Q22 4 22 8"/>
      </g>
    </mask>
  </defs>
  <g fill="none" stroke="#46a866" stroke-width="6" stroke-linecap="square" stroke-linejoin="miter" shape-rendering="crispEdges">
<path d="M8 8 L30 8 L30 14 Q34 14 34 18 Q38 18 38 14 L42 14 L42 40 L8 40 Z"/>
    <path d="M30 8 Q30 4 26 4 Q22 4 22 8"/>
  </g>
  <rect x="0" y="0" width="48" height="48" fill="url(#px)" mask="url(#m)" pointer-events="none"/>
</svg>