<svg xmlns="http://www.w3.org/2000/svg" viewBox="0 0 48 48">
  <defs>
    <pattern id="px" width="4" height="4" patternUnits="userSpaceOnUse">
      <rect width="4" height="4" fill="none"/>
      <rect width="2" height="2" fill="rgba(0,0,0,0.2)"/>
    </pattern>
    <mask id="m">
      <rect x="0" y="0" width="48" height="48" fill="black"/>
      <g fill="none" stroke="white" stroke-width="6" stroke-linecap="square" stroke-linejoin="miter" shape-rendering="crispEdges">
<ellipse cx="24" cy="24" rx="6" ry="12"/>
    <ellipse cx="10" cy="12" rx="6" ry="4"/>
    <ellipse cx="38" cy="12" rx="6" ry="4"/>
    <ellipse cx="10" cy="36" rx="6" ry="4"/>
    <ellipse cx="38" cy="36" rx="6" ry="4"/>
    <circle cx="24" cy="24" r="2.5"/>
      </g>
    </mask>
  </defs>
  <g fill="none" stroke="#3f8c75" stroke-width="6" stroke-linecap="square" stroke-linejoin="miter" shape-rendering="crispEdges">
<ellipse cx="24" cy="24" rx="6" ry="12"/>
    <ellipse cx="10" cy="12" rx="6" ry="4"/>
    <ellipse cx="38" cy="12" rx="6" ry="4"/>
    <ellipse cx="10" cy="36" rx="6" ry="4"/>
    <ellipse cx="38" cy="36" rx="6" ry="4"/>
    <circle cx="24" cy="24" r="2.5"/>
  </g>
  <rect x="0" y="0" width="48" height="48" fill="url(#px)" mask="url(#m)" pointer-events="none"/>
</svg>