<svg xmlns="http://www.w3.org/2000/svg" viewBox="0 0 48 48">
  <defs>
    <pattern id="px" width="4" height="4" patternUnits="userSpaceOnUse">
      <rect width="4" height="4" fill="none"/>
      <rect width="2" height="2" fill="rgba(0,0,0,0.2)"/>
    </pattern>
    <mask id="m">
      <rect x="0" y="0" width="48" height="48" fill="black"/>
      <g fill="none" stroke="white" stroke-width="6" stroke-linecap="square" stroke-linejoin="miter" shape-rendering="crispEdges">
    <path d="M10 14a4 4 0 014-4h20a4 4 0 014 4v20a4 4 0 01-4 4H14a4 4 0 01-4-4z"/>
    <path d="M16 18l6 6-6 6"/>
    <path d="M30 20h4"/>
    <path d="M28 24h6"/>
    <path d="M26 28h8"/>
      </g>
    </mask>
  </defs>
  <g fill="none" stroke="#7986CB" stroke-width="6" stroke-linecap="square" stroke-linejoin="miter" shape-rendering="crispEdges">
    <path d="M10 14a4 4 0 014-4h20a4 4 0 014 4v20a4 4 0 01-4 4H14a4 4 0 01-4-4z"/>
    <path d="M16 18l6 6-6 6"/>
    <path d="M30 20h4"/>
    <path d="M28 24h6"/>
    <path d="M26 28h8"/>
  </g>
  <rect x="0" y="0" width="48" height="48" fill="url(#px)" mask="url(#m)" pointer-events="none"/>
</svg>