<svg xmlns="http://www.w3.org/2000/svg" viewBox="0 0 48 48">
  <defs>
    <pattern id="px" width="4" height="4" patternUnits="userSpaceOnUse">
      <rect width="4" height="4" fill="none"/>
      <rect width="2" height="2" fill="rgba(0,0,0,0.2)"/>
    </pattern>
    <mask id="m">
      <rect x="0" y="0" width="48" height="48" fill="black"/>
      <g fill="none" stroke="white" stroke-width="6" stroke-linecap="square" stroke-linejoin="miter" shape-rendering="crispEdges">
    <rect x="6" y="16" width="18" height="16" rx="4"/>
    <rect x="24" y="14" width="16" height="20" rx="2"/>
    <rect x="24" y="14" width="16" height="6" rx="2"/>
    <line x1="40" y1="18" x2="44" y2="14 M40 28 L44 32"/>
    <circle cx="26" cy="20" r="2" fill="currentColor"/>
      </g>
    </mask>
  </defs>
  <g fill="none" stroke="#e0a9ca" stroke-width="6" stroke-linecap="square" stroke-linejoin="miter" shape-rendering="crispEdges">
    <rect x="6" y="16" width="18" height="16" rx="4"/>
    <rect x="24" y="14" width="16" height="20" rx="2"/>
    <rect x="24" y="14" width="16" height="6" rx="2"/>
    <line x1="40" y1="18" x2="44" y2="14 M40 28 L44 32"/>
    <circle cx="26" cy="20" r="2" fill="currentColor"/>
  </g>
  <rect x="0" y="0" width="48" height="48" fill="url(#px)" mask="url(#m)" pointer-events="none"/>
</svg>