<svg xmlns="http://www.w3.org/2000/svg" viewBox="0 0 48 48">
  <defs>
    <pattern id="px" width="4" height="4" patternUnits="userSpaceOnUse">
      <rect width="4" height="4" fill="none"/>
      <rect width="2" height="2" fill="rgba(0,0,0,0.2)"/>
    </pattern>
    <mask id="m">
      <rect x="0" y="0" width="48" height="48" fill="black"/>
      <g fill="none" stroke="white" stroke-width="6" stroke-linecap="square" stroke-linejoin="miter" shape-rendering="crispEdges">
    <path d="M6 44 L12 44 L22 28 L16 28 Z"/>
    <path d="M16 28 L36 18 C40 16, 40 8, 36 8 L16 16 C10 16, 6 20, 6 24 L10 22 L12 26 L16 28 Z"/>
      </g>
    </mask>
  </defs>
  <g fill="none" stroke="#A5D6A7" stroke-width="6" stroke-linecap="square" stroke-linejoin="miter" shape-rendering="crispEdges">
    <path d="M6 44 L12 44 L22 28 L16 28 Z"/>
    <path d="M16 28 L36 18 C40 16, 40 8, 36 8 L16 16 C10 16, 6 20, 6 24 L10 22 L12 26 L16 28 Z"/>
  </g>
  <rect x="0" y="0" width="48" height="48" fill="url(#px)" mask="url(#m)" pointer-events="none"/>
</svg>