<svg xmlns="http://www.w3.org/2000/svg" viewBox="0 0 48 48">
  <defs>
    <pattern id="px" width="4" height="4" patternUnits="userSpaceOnUse">
      <rect width="4" height="4" fill="none"/>
      <rect width="2" height="2" fill="rgba(0,0,0,0.2)"/>
    </pattern>
    <mask id="m">
      <rect x="0" y="0" width="48" height="48" fill="black"/>
      <g fill="none" stroke="white" stroke-width="6" stroke-linecap="square" stroke-linejoin="miter" shape-rendering="crispEdges">
    <path d="M10 16 L10 38 Q10 44 24 44 Q38 44 38 38 L38 16 Z"/>
    <path d="M10 16 Q24 8 38 16"/>
    <path d="M22 16 L22 10 L26 10 L26 16"/>
      </g>
    </mask>
  </defs>
  <g fill="none" stroke="#c8d2b6" stroke-width="6" stroke-linecap="square" stroke-linejoin="miter" shape-rendering="crispEdges">
    <path d="M10 16 L10 38 Q10 44 24 44 Q38 44 38 38 L38 16 Z"/>
    <path d="M10 16 Q24 8 38 16"/>
    <path d="M22 16 L22 10 L26 10 L26 16"/>
  </g>
  <rect x="0" y="0" width="48" height="48" fill="url(#px)" mask="url(#m)" pointer-events="none"/>
</svg>