<svg xmlns="http://www.w3.org/2000/svg" viewBox="0 0 48 48">
  <defs>
    <pattern id="px" width="4" height="4" patternUnits="userSpaceOnUse">
      <rect width="4" height="4" fill="none"/>
      <rect width="2" height="2" fill="rgba(0,0,0,0.2)"/>
    </pattern>
    <mask id="m">
      <rect x="0" y="0" width="48" height="48" fill="black"/>
      <g fill="none" stroke="white" stroke-width="6" stroke-linecap="square" stroke-linejoin="miter" shape-rendering="crispEdges">
    <path d="M12 8 L24 4 L36 8 L36 24 Q36 36 24 42 Q12 36 12 24 Z"/>
    <line x1="12" y1="24" x2="36" y2="24 M18 8 L18 38 M30 8 L30 38"/>
      </g>
    </mask>
  </defs>
  <g fill="none" stroke="#a2bfc1" stroke-width="6" stroke-linecap="square" stroke-linejoin="miter" shape-rendering="crispEdges">
    <path d="M12 8 L24 4 L36 8 L36 24 Q36 36 24 42 Q12 36 12 24 Z"/>
    <line x1="12" y1="24" x2="36" y2="24 M18 8 L18 38 M30 8 L30 38"/>
  </g>
  <rect x="0" y="0" width="48" height="48" fill="url(#px)" mask="url(#m)" pointer-events="none"/>
</svg>