<svg xmlns="http://www.w3.org/2000/svg" viewBox="0 0 48 48">
  <defs>
    <pattern id="px" width="4" height="4" patternUnits="userSpaceOnUse">
      <rect width="4" height="4" fill="none"/>
      <rect width="2" height="2" fill="rgba(0,0,0,0.2)"/>
    </pattern>
    <mask id="m">
      <rect x="0" y="0" width="48" height="48" fill="black"/>
      <g fill="none" stroke="white" stroke-width="6" stroke-linecap="square" stroke-linejoin="miter" shape-rendering="crispEdges">
    <rect x="4" y="20" width="40" height="8" rx="2"/>
    <line x1="8" y1="28" x2="8" y2="44 M16 28 L16 44 M24 28 L24 44 M32 28 L32 44 M40 28 L40 44"/>
    <line x1="4" y1="20" x2="4" y2="14 M44 20 L44 14"/>
      </g>
    </mask>
  </defs>
  <g fill="none" stroke="#d7b6bb" stroke-width="6" stroke-linecap="square" stroke-linejoin="miter" shape-rendering="crispEdges">
    <rect x="4" y="20" width="40" height="8" rx="2"/>
    <line x1="8" y1="28" x2="8" y2="44 M16 28 L16 44 M24 28 L24 44 M32 28 L32 44 M40 28 L40 44"/>
    <line x1="4" y1="20" x2="4" y2="14 M44 20 L44 14"/>
  </g>
  <rect x="0" y="0" width="48" height="48" fill="url(#px)" mask="url(#m)" pointer-events="none"/>
</svg>