<svg xmlns="http://www.w3.org/2000/svg" viewBox="0 0 48 48">
  <defs>
    <pattern id="px" width="4" height="4" patternUnits="userSpaceOnUse">
      <rect width="4" height="4" fill="none"/>
      <rect width="2" height="2" fill="rgba(0,0,0,0.2)"/>
    </pattern>
    <mask id="m">
      <rect x="0" y="0" width="48" height="48" fill="black"/>
      <g fill="none" stroke="white" stroke-width="6" stroke-linecap="square" stroke-linejoin="miter" shape-rendering="crispEdges">
    <rect x="6" y="16" width="36" height="18" rx="8"/>
    <line x1="6" y1="16" x2="6" y2="34 M42 16 L42 34"/>
    <line x1="12" y1="18" x2="12" y2="32 M20 16 L20 34 M28 16 L28 34 M36 18 L36 32"/>
      </g>
    </mask>
  </defs>
  <g fill="none" stroke="#b2a0c9" stroke-width="6" stroke-linecap="square" stroke-linejoin="miter" shape-rendering="crispEdges">
    <rect x="6" y="16" width="36" height="18" rx="8"/>
    <line x1="6" y1="16" x2="6" y2="34 M42 16 L42 34"/>
    <line x1="12" y1="18" x2="12" y2="32 M20 16 L20 34 M28 16 L28 34 M36 18 L36 32"/>
  </g>
  <rect x="0" y="0" width="48" height="48" fill="url(#px)" mask="url(#m)" pointer-events="none"/>
</svg>