<svg xmlns="http://www.w3.org/2000/svg" viewBox="0 0 48 48">
  <defs>
    <pattern id="px" width="4" height="4" patternUnits="userSpaceOnUse">
      <rect width="4" height="4" fill="none"/>
      <rect width="2" height="2" fill="rgba(0,0,0,0.2)"/>
    </pattern>
    <mask id="m">
      <rect x="0" y="0" width="48" height="48" fill="black"/>
      <g fill="none" stroke="white" stroke-width="6" stroke-linecap="square" stroke-linejoin="miter" shape-rendering="crispEdges">
    <polyline points="4,30 12,30 14,24 16,30 18,38 22,8 24,36 26,30 30,30 33,22 37,22 39,28 44,28"/>
      </g>
    </mask>
  </defs>
  <g fill="none" stroke="#F48FB1" stroke-width="6" stroke-linecap="square" stroke-linejoin="miter" shape-rendering="crispEdges">
    <polyline points="4,30 12,30 14,24 16,30 18,38 22,8 24,36 26,30 30,30 33,22 37,22 39,28 44,28"/>
  </g>
  <rect x="0" y="0" width="48" height="48" fill="url(#px)" mask="url(#m)" pointer-events="none"/>
</svg>