<svg xmlns="http://www.w3.org/2000/svg" viewBox="0 0 48 48">
  <defs>
    <pattern id="px" width="4" height="4" patternUnits="userSpaceOnUse">
      <rect width="4" height="4" fill="none"/>
      <rect width="2" height="2" fill="rgba(0,0,0,0.2)"/>
    </pattern>
    <mask id="m">
      <rect x="0" y="0" width="48" height="48" fill="black"/>
      <g fill="none" stroke="white" stroke-width="6" stroke-linecap="square" stroke-linejoin="miter" shape-rendering="crispEdges">
    <ellipse cx="24" cy="24" rx="14" ry="8"/>
    <path d="M10 22 L10 10 M14 20 L14 8 M18 20 L18 6 M22 20 L22 6 M26 20 L26 6 M30 20 L30 8 M34 22 L34 10"/>
    <circle cx="12" cy="24" r="2"/>
    <path d="M19 24 Q22 28 24 30 Q26 28 29 24"/>
      </g>
    </mask>
  </defs>
  <g fill="none" stroke="#cea5b2" stroke-width="6" stroke-linecap="square" stroke-linejoin="miter" shape-rendering="crispEdges">
    <ellipse cx="24" cy="24" rx="14" ry="8"/>
    <path d="M10 22 L10 10 M14 20 L14 8 M18 20 L18 6 M22 20 L22 6 M26 20 L26 6 M30 20 L30 8 M34 22 L34 10"/>
    <circle cx="12" cy="24" r="2"/>
    <path d="M19 24 Q22 28 24 30 Q26 28 29 24"/>
  </g>
  <rect x="0" y="0" width="48" height="48" fill="url(#px)" mask="url(#m)" pointer-events="none"/>
</svg>