<svg xmlns="http://www.w3.org/2000/svg" viewBox="0 0 48 48">
  <defs>
    <pattern id="px" width="4" height="4" patternUnits="userSpaceOnUse">
      <rect width="4" height="4" fill="none"/>
      <rect width="2" height="2" fill="rgba(0,0,0,0.2)"/>
    </pattern>
    <mask id="m">
      <rect x="0" y="0" width="48" height="48" fill="black"/>
      <g fill="none" stroke="white" stroke-width="6" stroke-linecap="square" stroke-linejoin="miter" shape-rendering="crispEdges">
    <path d="M8 18 Q8 6 24 6 Q40 6 40 18 L44 22 L4 22 Z"/>
    <rect x="14" y="22" width="20" height="22" rx="4"/>
    <line x1="14" y1="28" x2="34" y2="28"/>
      </g>
    </mask>
  </defs>
  <g fill="none" stroke="#d7c0ab" stroke-width="6" stroke-linecap="square" stroke-linejoin="miter" shape-rendering="crispEdges">
    <path d="M8 18 Q8 6 24 6 Q40 6 40 18 L44 22 L4 22 Z"/>
    <rect x="14" y="22" width="20" height="22" rx="4"/>
    <line x1="14" y1="28" x2="34" y2="28"/>
  </g>
  <rect x="0" y="0" width="48" height="48" fill="url(#px)" mask="url(#m)" pointer-events="none"/>
</svg>