<svg xmlns="http://www.w3.org/2000/svg" viewBox="0 0 48 48">
  <defs>
    <pattern id="px" width="4" height="4" patternUnits="userSpaceOnUse">
      <rect width="4" height="4" fill="none"/>
      <rect width="2" height="2" fill="rgba(0,0,0,0.2)"/>
    </pattern>
    <mask id="m">
      <rect x="0" y="0" width="48" height="48" fill="black"/>
      <g fill="none" stroke="white" stroke-width="6" stroke-linecap="square" stroke-linejoin="miter" shape-rendering="crispEdges">
    <path d="M8 36 L14 44 L38 44 L38 36 Z"/>
    <path d="M8 36 L8 28 Q8 20 14 20 L38 28 Q38 32 38 36"/>
    <line x1="8" y1="36" x2="38" y2="36"/>
      </g>
    </mask>
  </defs>
  <g fill="none" stroke="#b9a4d4" stroke-width="6" stroke-linecap="square" stroke-linejoin="miter" shape-rendering="crispEdges">
    <path d="M8 36 L14 44 L38 44 L38 36 Z"/>
    <path d="M8 36 L8 28 Q8 20 14 20 L38 28 Q38 32 38 36"/>
    <line x1="8" y1="36" x2="38" y2="36"/>
  </g>
  <rect x="0" y="0" width="48" height="48" fill="url(#px)" mask="url(#m)" pointer-events="none"/>
</svg>