<svg xmlns="http://www.w3.org/2000/svg" viewBox="0 0 48 48">
  <defs>
    <pattern id="px" width="4" height="4" patternUnits="userSpaceOnUse">
      <rect width="4" height="4" fill="none"/>
      <rect width="2" height="2" fill="rgba(0,0,0,0.2)"/>
    </pattern>
    <mask id="m">
      <rect x="0" y="0" width="48" height="48" fill="black"/>
      <g fill="none" stroke="white" stroke-width="6" stroke-linecap="square" stroke-linejoin="miter" shape-rendering="crispEdges">
    <rect x="10" y="6" width="28" height="32" rx="4"/>
    <rect x="10" y="6" width="28" height="8" rx="2"/>
    <polygon points="10,38 14,44 34,44 38,38"/>
    <line x1="14" y1="20" x2="34" y2="20 M14 28 L34 28"/>
      </g>
    </mask>
  </defs>
  <g fill="none" stroke="#cfcfb3" stroke-width="6" stroke-linecap="square" stroke-linejoin="miter" shape-rendering="crispEdges">
    <rect x="10" y="6" width="28" height="32" rx="4"/>
    <rect x="10" y="6" width="28" height="8" rx="2"/>
    <polygon points="10,38 14,44 34,44 38,38"/>
    <line x1="14" y1="20" x2="34" y2="20 M14 28 L34 28"/>
  </g>
  <rect x="0" y="0" width="48" height="48" fill="url(#px)" mask="url(#m)" pointer-events="none"/>
</svg>