<svg xmlns="http://www.w3.org/2000/svg" viewBox="0 0 48 48">
  <defs>
    <pattern id="px" width="4" height="4" patternUnits="userSpaceOnUse">
      <rect width="4" height="4" fill="none"/>
      <rect width="2" height="2" fill="rgba(0,0,0,0.2)"/>
    </pattern>
    <mask id="m">
      <rect x="0" y="0" width="48" height="48" fill="black"/>
      <g fill="none" stroke="white" stroke-width="6" stroke-linecap="square" stroke-linejoin="miter" shape-rendering="crispEdges">
    <ellipse cx="24" cy="18" rx="8" ry="5"/>
    <circle cx="24" cy="10" r="4"/>
    <circle cx="22" cy="8" r="1.5"/>
    <circle cx="26" cy="8" r="1.5"/>
    <path d="M14 16 L4 10 M34 16 L44 10"/>
    <path d="M16 20 L8 24 M32 20 L40 24"/>
    <rect x="21" y="18" width="6" height="3"/>
      </g>
    </mask>
  </defs>
  <g fill="none" stroke="#acd5ca" stroke-width="6" stroke-linecap="square" stroke-linejoin="miter" shape-rendering="crispEdges">
    <ellipse cx="24" cy="18" rx="8" ry="5"/>
    <circle cx="24" cy="10" r="4"/>
    <circle cx="22" cy="8" r="1.5"/>
    <circle cx="26" cy="8" r="1.5"/>
    <path d="M14 16 L4 10 M34 16 L44 10"/>
    <path d="M16 20 L8 24 M32 20 L40 24"/>
    <rect x="21" y="18" width="6" height="3"/>
  </g>
  <rect x="0" y="0" width="48" height="48" fill="url(#px)" mask="url(#m)" pointer-events="none"/>
</svg>