<svg xmlns="http://www.w3.org/2000/svg" viewBox="0 0 48 48">
  <defs>
    <pattern id="px" width="4" height="4" patternUnits="userSpaceOnUse">
      <rect width="4" height="4" fill="none"/>
      <rect width="2" height="2" fill="rgba(0,0,0,0.2)"/>
    </pattern>
    <mask id="m">
      <rect x="0" y="0" width="48" height="48" fill="black"/>
      <g fill="none" stroke="white" stroke-width="6" stroke-linecap="square" stroke-linejoin="miter" shape-rendering="crispEdges">
    <circle cx="24" cy="24" r="16"/>
    <circle cx="18" cy="20" r="3" fill="currentColor"/>
    <circle cx="30" cy="20" r="3" fill="currentColor"/>
    <path d="M12 28 Q8 24 8 30 Q12 34 16 30 M36 28 Q40 24 40 30 Q36 34 32 30"/>
      </g>
    </mask>
  </defs>
  <g fill="none" stroke="#c5acdc" stroke-width="6" stroke-linecap="square" stroke-linejoin="miter" shape-rendering="crispEdges">
    <circle cx="24" cy="24" r="16"/>
    <circle cx="18" cy="20" r="3" fill="currentColor"/>
    <circle cx="30" cy="20" r="3" fill="currentColor"/>
    <path d="M12 28 Q8 24 8 30 Q12 34 16 30 M36 28 Q40 24 40 30 Q36 34 32 30"/>
  </g>
  <rect x="0" y="0" width="48" height="48" fill="url(#px)" mask="url(#m)" pointer-events="none"/>
</svg>