<svg xmlns="http://www.w3.org/2000/svg" viewBox="0 0 48 48">
  <defs>
    <pattern id="px" width="4" height="4" patternUnits="userSpaceOnUse">
      <rect width="4" height="4" fill="none"/>
      <rect width="2" height="2" fill="rgba(0,0,0,0.2)"/>
    </pattern>
    <mask id="m">
      <rect x="0" y="0" width="48" height="48" fill="black"/>
      <g fill="none" stroke="white" stroke-width="6" stroke-linecap="square" stroke-linejoin="miter" shape-rendering="crispEdges">
    <ellipse cx="24" cy="18" rx="4" ry="3"/>
    <circle cx="24" cy="12" r="3"/>
    <circle cx="22" cy="10" r="1.2"/>
    <path d="M28 14 Q34 10 36 14 Q34 18 28 16"/>
    <path d="M22 16 L18 6 M26 16 L30 6"/>
    <path d="M24 18 L24 44 M24 22 L20 22 M24 26 L20 26"/>
      </g>
    </mask>
  </defs>
  <g fill="none" stroke="#d1b2b3" stroke-width="6" stroke-linecap="square" stroke-linejoin="miter" shape-rendering="crispEdges">
    <ellipse cx="24" cy="18" rx="4" ry="3"/>
    <circle cx="24" cy="12" r="3"/>
    <circle cx="22" cy="10" r="1.2"/>
    <path d="M28 14 Q34 10 36 14 Q34 18 28 16"/>
    <path d="M22 16 L18 6 M26 16 L30 6"/>
    <path d="M24 18 L24 44 M24 22 L20 22 M24 26 L20 26"/>
  </g>
  <rect x="0" y="0" width="48" height="48" fill="url(#px)" mask="url(#m)" pointer-events="none"/>
</svg>