<svg xmlns="http://www.w3.org/2000/svg" viewBox="0 0 48 48">
  <defs>
    <pattern id="px" width="4" height="4" patternUnits="userSpaceOnUse">
      <rect width="4" height="4" fill="none"/>
      <rect width="2" height="2" fill="rgba(0,0,0,0.2)"/>
    </pattern>
    <mask id="m">
      <rect x="0" y="0" width="48" height="48" fill="black"/>
      <g fill="none" stroke="white" stroke-width="6" stroke-linecap="square" stroke-linejoin="miter" shape-rendering="crispEdges">
    <circle cx="14" cy="12" r="5" fill="currentColor"/>
    <circle cx="24" cy="8" r="5" fill="currentColor"/>
    <circle cx="34" cy="12" r="5" fill="currentColor"/>
    <line x1="14" y1="17" x2="24" y2="30 M34 17 L24 30"/>
    <ellipse cx="24" cy="32" rx="12" ry="10"/>
    <line x1="24" y1="42" x2="24" y2="44"/>
    <circle cx="14" cy="12" r="2"/>
    <circle cx="24" cy="8" r="2"/>
    <circle cx="34" cy="12" r="2"/>
      </g>
    </mask>
  </defs>
  <g fill="none" stroke="#a8b6cb" stroke-width="6" stroke-linecap="square" stroke-linejoin="miter" shape-rendering="crispEdges">
    <circle cx="14" cy="12" r="5" fill="currentColor"/>
    <circle cx="24" cy="8" r="5" fill="currentColor"/>
    <circle cx="34" cy="12" r="5" fill="currentColor"/>
    <line x1="14" y1="17" x2="24" y2="30 M34 17 L24 30"/>
    <ellipse cx="24" cy="32" rx="12" ry="10"/>
    <line x1="24" y1="42" x2="24" y2="44"/>
    <circle cx="14" cy="12" r="2"/>
    <circle cx="24" cy="8" r="2"/>
    <circle cx="34" cy="12" r="2"/>
  </g>
  <rect x="0" y="0" width="48" height="48" fill="url(#px)" mask="url(#m)" pointer-events="none"/>
</svg>