<svg xmlns="http://www.w3.org/2000/svg" viewBox="0 0 48 48">
  <defs>
    <pattern id="px" width="4" height="4" patternUnits="userSpaceOnUse">
      <rect width="4" height="4" fill="none"/>
      <rect width="2" height="2" fill="rgba(0,0,0,0.2)"/>
    </pattern>
    <mask id="m">
      <rect x="0" y="0" width="48" height="48" fill="black"/>
      <g fill="none" stroke="white" stroke-width="6" stroke-linecap="square" stroke-linejoin="miter" shape-rendering="crispEdges">
    <ellipse cx="24" cy="24" rx="13" ry="9"/>
    <ellipse cx="24" cy="16" rx="7" ry="5"/>
    <circle cx="19" cy="14" r="2"/>
    <circle cx="29" cy="14" r="2"/>
    <path d="M16 24 L12 22 M32 24 L36 22"/>
    <path d="M20 28 Q24 32 28 28"/>
      </g>
    </mask>
  </defs>
  <g fill="none" stroke="#bcc6b2" stroke-width="6" stroke-linecap="square" stroke-linejoin="miter" shape-rendering="crispEdges">
    <ellipse cx="24" cy="24" rx="13" ry="9"/>
    <ellipse cx="24" cy="16" rx="7" ry="5"/>
    <circle cx="19" cy="14" r="2"/>
    <circle cx="29" cy="14" r="2"/>
    <path d="M16 24 L12 22 M32 24 L36 22"/>
    <path d="M20 28 Q24 32 28 28"/>
  </g>
  <rect x="0" y="0" width="48" height="48" fill="url(#px)" mask="url(#m)" pointer-events="none"/>
</svg>