<svg xmlns="http://www.w3.org/2000/svg" viewBox="0 0 48 48">
  <defs>
    <pattern id="px" width="4" height="4" patternUnits="userSpaceOnUse">
      <rect width="4" height="4" fill="none"/>
      <rect width="2" height="2" fill="rgba(0,0,0,0.2)"/>
    </pattern>
    <mask id="m">
      <rect x="0" y="0" width="48" height="48" fill="black"/>
      <g fill="none" stroke="white" stroke-width="6" stroke-linecap="square" stroke-linejoin="miter" shape-rendering="crispEdges">
    <polygon points="12,4 20,44 24,44 24,20 28,4"/>
    <polygon points="24,20 24,44 28,44 36,8 28,8"/>
    <polygon points="16,8 12,4 28,4 24,8"/>
      </g>
    </mask>
  </defs>
  <g fill="none" stroke="#c0a9bd" stroke-width="6" stroke-linecap="square" stroke-linejoin="miter" shape-rendering="crispEdges">
    <polygon points="12,4 20,44 24,44 24,20 28,4"/>
    <polygon points="24,20 24,44 28,44 36,8 28,8"/>
    <polygon points="16,8 12,4 28,4 24,8"/>
  </g>
  <rect x="0" y="0" width="48" height="48" fill="url(#px)" mask="url(#m)" pointer-events="none"/>
</svg>