<svg xmlns="http://www.w3.org/2000/svg" viewBox="0 0 48 48">
  <defs>
    <pattern id="px" width="4" height="4" patternUnits="userSpaceOnUse">
      <rect width="4" height="4" fill="none"/>
      <rect width="2" height="2" fill="rgba(0,0,0,0.2)"/>
    </pattern>
    <mask id="m">
      <rect x="0" y="0" width="48" height="48" fill="black"/>
      <g fill="none" stroke="white" stroke-width="6" stroke-linecap="square" stroke-linejoin="miter" shape-rendering="crispEdges">
    <path d="M6 44 Q6 14 24 14 Q42 14 42 44 Z"/>
    <path d="M12 44 Q12 24 24 24 Q36 24 36 44"/>
    <path d="M24 14 L24 44"/>
    <rect x="18" y="34" width="12" height="10" rx="4"/>
      </g>
    </mask>
  </defs>
  <g fill="none" stroke="#b7cdae" stroke-width="6" stroke-linecap="square" stroke-linejoin="miter" shape-rendering="crispEdges">
    <path d="M6 44 Q6 14 24 14 Q42 14 42 44 Z"/>
    <path d="M12 44 Q12 24 24 24 Q36 24 36 44"/>
    <path d="M24 14 L24 44"/>
    <rect x="18" y="34" width="12" height="10" rx="4"/>
  </g>
  <rect x="0" y="0" width="48" height="48" fill="url(#px)" mask="url(#m)" pointer-events="none"/>
</svg>