<svg xmlns="http://www.w3.org/2000/svg" viewBox="0 0 48 48">
  <defs>
    <pattern id="px" width="4" height="4" patternUnits="userSpaceOnUse">
      <rect width="4" height="4" fill="none"/>
      <rect width="2" height="2" fill="rgba(0,0,0,0.2)"/>
    </pattern>
    <mask id="m">
      <rect x="0" y="0" width="48" height="48" fill="black"/>
      <g fill="none" stroke="white" stroke-width="6" stroke-linecap="square" stroke-linejoin="miter" shape-rendering="crispEdges">
    <rect x="16" y="6" width="16" height="28" rx="4"/>
    <rect x="10" y="34" width="28" height="8" rx="3"/>
    <line x1="10" y1="34" x2="10" y2="4 M38 34 L38 4"/>
    <line x1="10" y1="10" x2="38" y2="10 M10 18 L38 18 M10 26 L38 26"/>
      </g>
    </mask>
  </defs>
  <g fill="none" stroke="#bddcbc" stroke-width="6" stroke-linecap="square" stroke-linejoin="miter" shape-rendering="crispEdges">
    <rect x="16" y="6" width="16" height="28" rx="4"/>
    <rect x="10" y="34" width="28" height="8" rx="3"/>
    <line x1="10" y1="34" x2="10" y2="4 M38 34 L38 4"/>
    <line x1="10" y1="10" x2="38" y2="10 M10 18 L38 18 M10 26 L38 26"/>
  </g>
  <rect x="0" y="0" width="48" height="48" fill="url(#px)" mask="url(#m)" pointer-events="none"/>
</svg>