<svg xmlns="http://www.w3.org/2000/svg" viewBox="0 0 48 48">
  <defs>
    <pattern id="px" width="4" height="4" patternUnits="userSpaceOnUse">
      <rect width="4" height="4" fill="none"/>
      <rect width="2" height="2" fill="rgba(0,0,0,0.2)"/>
    </pattern>
    <mask id="m">
      <rect x="0" y="0" width="48" height="48" fill="black"/>
      <g fill="none" stroke="white" stroke-width="6" stroke-linecap="square" stroke-linejoin="miter" shape-rendering="crispEdges">
    <path d="M6 20 L20 18 L20 10 L30 18 L42 20 L30 22 L20 30 L20 22 Z"/>
    <line x1="20" y1="18" x2="20" y2="22"/>
    <line x1="6" y1="20" x2="42" y2="20"/>
      </g>
    </mask>
  </defs>
  <g fill="none" stroke="#a1cea9" stroke-width="6" stroke-linecap="square" stroke-linejoin="miter" shape-rendering="crispEdges">
    <path d="M6 20 L20 18 L20 10 L30 18 L42 20 L30 22 L20 30 L20 22 Z"/>
    <line x1="20" y1="18" x2="20" y2="22"/>
    <line x1="6" y1="20" x2="42" y2="20"/>
  </g>
  <rect x="0" y="0" width="48" height="48" fill="url(#px)" mask="url(#m)" pointer-events="none"/>
</svg>