<svg xmlns="http://www.w3.org/2000/svg" viewBox="0 0 48 48">
  <defs>
    <pattern id="px" width="4" height="4" patternUnits="userSpaceOnUse">
      <rect width="4" height="4" fill="none"/>
      <rect width="2" height="2" fill="rgba(0,0,0,0.2)"/>
    </pattern>
    <mask id="m">
      <rect x="0" y="0" width="48" height="48" fill="black"/>
      <g fill="none" stroke="white" stroke-width="6" stroke-linecap="square" stroke-linejoin="miter" shape-rendering="crispEdges">
    <path d="M8 6 Q4 24 8 40 Q12 44 16 40" stroke-width="3" fill="none"/>
    <path d="M40 6 Q44 24 40 40 Q36 44 32 40" stroke-width="3" fill="none"/>
    <line x1="16" y1="36" x2="32" y2="36"/>
      </g>
    </mask>
  </defs>
  <g fill="none" stroke="#b3e6d4" stroke-width="6" stroke-linecap="square" stroke-linejoin="miter" shape-rendering="crispEdges">
    <path d="M8 6 Q4 24 8 40 Q12 44 16 40" stroke-width="3" fill="none"/>
    <path d="M40 6 Q44 24 40 40 Q36 44 32 40" stroke-width="3" fill="none"/>
    <line x1="16" y1="36" x2="32" y2="36"/>
  </g>
  <rect x="0" y="0" width="48" height="48" fill="url(#px)" mask="url(#m)" pointer-events="none"/>
</svg>