<svg xmlns="http://www.w3.org/2000/svg" viewBox="0 0 48 48">
  <defs>
    <pattern id="px" width="4" height="4" patternUnits="userSpaceOnUse">
      <rect width="4" height="4" fill="none"/>
      <rect width="2" height="2" fill="rgba(0,0,0,0.2)"/>
    </pattern>
    <mask id="m">
      <rect x="0" y="0" width="48" height="48" fill="black"/>
      <g fill="none" stroke="white" stroke-width="6" stroke-linecap="square" stroke-linejoin="miter" shape-rendering="crispEdges">
    <path d="M4 24 L4 44 M14 14 L14 44 M24 8 L24 44 M34 16 L34 44 M44 22 L44 44"/>
    <ellipse cx="14" cy="10" rx="6" ry="4"/>
    <ellipse cx="24" cy="6" rx="7" ry="4"/>
    <ellipse cx="34" cy="12" rx="5" ry="4"/>
    <ellipse cx="44" cy="18" rx="4" ry="3"/>
      </g>
    </mask>
  </defs>
  <g fill="none" stroke="#babfa8" stroke-width="6" stroke-linecap="square" stroke-linejoin="miter" shape-rendering="crispEdges">
    <path d="M4 24 L4 44 M14 14 L14 44 M24 8 L24 44 M34 16 L34 44 M44 22 L44 44"/>
    <ellipse cx="14" cy="10" rx="6" ry="4"/>
    <ellipse cx="24" cy="6" rx="7" ry="4"/>
    <ellipse cx="34" cy="12" rx="5" ry="4"/>
    <ellipse cx="44" cy="18" rx="4" ry="3"/>
  </g>
  <rect x="0" y="0" width="48" height="48" fill="url(#px)" mask="url(#m)" pointer-events="none"/>
</svg>