<svg xmlns="http://www.w3.org/2000/svg" viewBox="0 0 48 48">
  <defs>
    <pattern id="px" width="4" height="4" patternUnits="userSpaceOnUse">
      <rect width="4" height="4" fill="none"/>
      <rect width="2" height="2" fill="rgba(0,0,0,0.2)"/>
    </pattern>
    <mask id="m">
      <rect x="0" y="0" width="48" height="48" fill="black"/>
      <g fill="none" stroke="white" stroke-width="6" stroke-linecap="square" stroke-linejoin="miter" shape-rendering="crispEdges">
    <path d="M24 44 L24 20 Q24 8 8 4 Q16 10 18 16 Q24 4 30 16 Q32 10 40 4 Q24 8 24 20"/>
    <path d="M12 12 L8 8 M36 12 L40 8 M20 12 L16 8 M28 12 L32 8"/>
      </g>
    </mask>
  </defs>
  <g fill="none" stroke="#cba6d6" stroke-width="6" stroke-linecap="square" stroke-linejoin="miter" shape-rendering="crispEdges">
    <path d="M24 44 L24 20 Q24 8 8 4 Q16 10 18 16 Q24 4 30 16 Q32 10 40 4 Q24 8 24 20"/>
    <path d="M12 12 L8 8 M36 12 L40 8 M20 12 L16 8 M28 12 L32 8"/>
  </g>
  <rect x="0" y="0" width="48" height="48" fill="url(#px)" mask="url(#m)" pointer-events="none"/>
</svg>