<svg xmlns="http://www.w3.org/2000/svg" viewBox="0 0 48 48">
  <defs>
    <pattern id="px" width="4" height="4" patternUnits="userSpaceOnUse">
      <rect width="4" height="4" fill="none"/>
      <rect width="2" height="2" fill="rgba(0,0,0,0.2)"/>
    </pattern>
    <mask id="m">
      <rect x="0" y="0" width="48" height="48" fill="black"/>
      <g fill="none" stroke="white" stroke-width="6" stroke-linecap="square" stroke-linejoin="miter" shape-rendering="crispEdges">
<path d="M24 12 L8 24 M24 12 L40 24 M24 12 L24 40"/><path d="M14 20 L8 16 M34 20 L40 16"/><path d="M18 18 L12 12 M30 18 L36 12"/><path d="M20 24 L14 28 M28 24 L34 28"/><path d="M20 30 L16 36 M28 30 L32 36"/><circle cx="24" cy="12" r="2"/>
      </g>
    </mask>
  </defs>
  <g fill="none" stroke="#719161" stroke-width="6" stroke-linecap="square" stroke-linejoin="miter" shape-rendering="crispEdges">
<path d="M24 12 L8 24 M24 12 L40 24 M24 12 L24 40"/><path d="M14 20 L8 16 M34 20 L40 16"/><path d="M18 18 L12 12 M30 18 L36 12"/><path d="M20 24 L14 28 M28 24 L34 28"/><path d="M20 30 L16 36 M28 30 L32 36"/><circle cx="24" cy="12" r="2"/>
  </g>
  <rect x="0" y="0" width="48" height="48" fill="url(#px)" mask="url(#m)" pointer-events="none"/>
</svg>