<svg xmlns="http://www.w3.org/2000/svg" viewBox="0 0 48 48">
  <defs>
    <pattern id="px" width="4" height="4" patternUnits="userSpaceOnUse">
      <rect width="4" height="4" fill="none"/>
      <rect width="2" height="2" fill="rgba(0,0,0,0.2)"/>
    </pattern>
    <mask id="m">
      <rect x="0" y="0" width="48" height="48" fill="black"/>
      <g fill="none" stroke="white" stroke-width="6" stroke-linecap="square" stroke-linejoin="miter" shape-rendering="crispEdges">
<ellipse cx="24" cy="30" rx="10" ry="14"/>
    <ellipse cx="12" cy="18" rx="8" ry="6"/>
    <ellipse cx="36" cy="18" rx="8" ry="6"/>
    <circle cx="18" cy="28" r="2"/>
    <circle cx="30" cy="28" r="2"/>
    <path d="M14 38 Q24 44 34 38"/>
    <circle cx="24" cy="24" r="2"/>
      </g>
    </mask>
  </defs>
  <g fill="none" stroke="#3baf9c" stroke-width="6" stroke-linecap="square" stroke-linejoin="miter" shape-rendering="crispEdges">
<ellipse cx="24" cy="30" rx="10" ry="14"/>
    <ellipse cx="12" cy="18" rx="8" ry="6"/>
    <ellipse cx="36" cy="18" rx="8" ry="6"/>
    <circle cx="18" cy="28" r="2"/>
    <circle cx="30" cy="28" r="2"/>
    <path d="M14 38 Q24 44 34 38"/>
    <circle cx="24" cy="24" r="2"/>
  </g>
  <rect x="0" y="0" width="48" height="48" fill="url(#px)" mask="url(#m)" pointer-events="none"/>
</svg>