<svg xmlns="http://www.w3.org/2000/svg" viewBox="0 0 48 48">
  <defs>
    <pattern id="px" width="4" height="4" patternUnits="userSpaceOnUse">
      <rect width="4" height="4" fill="none"/>
      <rect width="2" height="2" fill="rgba(0,0,0,0.2)"/>
    </pattern>
    <mask id="m">
      <rect x="0" y="0" width="48" height="48" fill="black"/>
      <g fill="none" stroke="white" stroke-width="6" stroke-linecap="square" stroke-linejoin="miter" shape-rendering="crispEdges">
    <rect x="4" y="32" width="40" height="12" rx="2"/>
    <line x1="4" y1="36" x2="44" y2="36 M4 40 L44 40"/>
    <rect x="10" y="32" width="6" height="4" rx="1"/>
    <rect x="18" y="32" width="6" height="4" rx="1"/>
    <rect x="26" y="32" width="6" height="4" rx="1"/>
    <rect x="34" y="32" width="6" height="4" rx="1"/>
      </g>
    </mask>
  </defs>
  <g fill="none" stroke="#bcdfcb" stroke-width="6" stroke-linecap="square" stroke-linejoin="miter" shape-rendering="crispEdges">
    <rect x="4" y="32" width="40" height="12" rx="2"/>
    <line x1="4" y1="36" x2="44" y2="36 M4 40 L44 40"/>
    <rect x="10" y="32" width="6" height="4" rx="1"/>
    <rect x="18" y="32" width="6" height="4" rx="1"/>
    <rect x="26" y="32" width="6" height="4" rx="1"/>
    <rect x="34" y="32" width="6" height="4" rx="1"/>
  </g>
  <rect x="0" y="0" width="48" height="48" fill="url(#px)" mask="url(#m)" pointer-events="none"/>
</svg>