<svg xmlns="http://www.w3.org/2000/svg" viewBox="0 0 48 48">
  <defs>
    <pattern id="px" width="4" height="4" patternUnits="userSpaceOnUse">
      <rect width="4" height="4" fill="none"/>
      <rect width="2" height="2" fill="rgba(0,0,0,0.2)"/>
    </pattern>
    <mask id="m">
      <rect x="0" y="0" width="48" height="48" fill="black"/>
      <g fill="none" stroke="white" stroke-width="6" stroke-linecap="square" stroke-linejoin="miter" shape-rendering="crispEdges">
    <polygon points="24,4 8,28 24,24 40,28"/>
    <line x1="24" y1="4" x2="24" y2="44"/>
    <line x1="24" y1="12" x2="10" y2="44 M24 12 L38 44"/>
    <path d="M24 20 L18 28 M24 20 L30 28"/>
      </g>
    </mask>
  </defs>
  <g fill="none" stroke="#c7e3b4" stroke-width="6" stroke-linecap="square" stroke-linejoin="miter" shape-rendering="crispEdges">
    <polygon points="24,4 8,28 24,24 40,28"/>
    <line x1="24" y1="4" x2="24" y2="44"/>
    <line x1="24" y1="12" x2="10" y2="44 M24 12 L38 44"/>
    <path d="M24 20 L18 28 M24 20 L30 28"/>
  </g>
  <rect x="0" y="0" width="48" height="48" fill="url(#px)" mask="url(#m)" pointer-events="none"/>
</svg>