<svg xmlns="http://www.w3.org/2000/svg" viewBox="0 0 48 48">
  <defs>
    <pattern id="px" width="4" height="4" patternUnits="userSpaceOnUse">
      <rect width="4" height="4" fill="none"/>
      <rect width="2" height="2" fill="rgba(0,0,0,0.2)"/>
    </pattern>
    <mask id="m">
      <rect x="0" y="0" width="48" height="48" fill="black"/>
      <g fill="none" stroke="white" stroke-width="6" stroke-linecap="square" stroke-linejoin="miter" shape-rendering="crispEdges">
    <circle cx="24" cy="12" r="4"/>
    <circle cx="22" cy="10" r="1.5"/>
    <line x1="24" y1="16" x2="24" y2="44"/>
    <path d="M10 20 L24 24 L38 20 M10 28 L24 32 L38 28 M10 36 L24 40 L38 36"/>
    <line x1="10" y1="20" x2="6" y2="44 M38 20 L42 44"/>
      </g>
    </mask>
  </defs>
  <g fill="none" stroke="#e3acab" stroke-width="6" stroke-linecap="square" stroke-linejoin="miter" shape-rendering="crispEdges">
    <circle cx="24" cy="12" r="4"/>
    <circle cx="22" cy="10" r="1.5"/>
    <line x1="24" y1="16" x2="24" y2="44"/>
    <path d="M10 20 L24 24 L38 20 M10 28 L24 32 L38 28 M10 36 L24 40 L38 36"/>
    <line x1="10" y1="20" x2="6" y2="44 M38 20 L42 44"/>
  </g>
  <rect x="0" y="0" width="48" height="48" fill="url(#px)" mask="url(#m)" pointer-events="none"/>
</svg>