<svg xmlns="http://www.w3.org/2000/svg" viewBox="0 0 48 48">
  <defs>
    <pattern id="px" width="4" height="4" patternUnits="userSpaceOnUse">
      <rect width="4" height="4" fill="none"/>
      <rect width="2" height="2" fill="rgba(0,0,0,0.2)"/>
    </pattern>
    <mask id="m">
      <rect x="0" y="0" width="48" height="48" fill="black"/>
      <g fill="none" stroke="white" stroke-width="6" stroke-linecap="square" stroke-linejoin="miter" shape-rendering="crispEdges">
<path d="M6 30 Q6 6 24 6 Q42 6 42 30 Q42 40 30 42 L24 38 L18 42 Q6 40 6 30 Z"/>
    <circle cx="16" cy="22" r="3"/><circle cx="32" cy="22" r="3"/>
    <path d="M16 30 Q24 36 32 30"/>
      </g>
    </mask>
  </defs>
  <g fill="none" stroke="#5fc676" stroke-width="6" stroke-linecap="square" stroke-linejoin="miter" shape-rendering="crispEdges">
<path d="M6 30 Q6 6 24 6 Q42 6 42 30 Q42 40 30 42 L24 38 L18 42 Q6 40 6 30 Z"/>
    <circle cx="16" cy="22" r="3"/><circle cx="32" cy="22" r="3"/>
    <path d="M16 30 Q24 36 32 30"/>
  </g>
  <rect x="0" y="0" width="48" height="48" fill="url(#px)" mask="url(#m)" pointer-events="none"/>
</svg>