<svg xmlns="http://www.w3.org/2000/svg" viewBox="0 0 48 48">
  <defs>
    <pattern id="px" width="4" height="4" patternUnits="userSpaceOnUse">
      <rect width="4" height="4" fill="none"/>
      <rect width="2" height="2" fill="rgba(0,0,0,0.2)"/>
    </pattern>
    <mask id="m">
      <rect x="0" y="0" width="48" height="48" fill="black"/>
      <g fill="none" stroke="white" stroke-width="6" stroke-linecap="square" stroke-linejoin="miter" shape-rendering="crispEdges">
<line x1="24" y1="6" x2="24" y2="36"/>
    <line x1="10" y1="36" x2="38" y2="36"/>
    <line x1="8" y1="40" x2="40" y2="40"/>
    <line x1="16" y1="14" x2="32" y2="14"/>
    <line x1="14" y1="22" x2="34" y2="22"/>
    <line x1="18" y1="30" x2="30" y2="30"/>
      </g>
    </mask>
  </defs>
  <g fill="none" stroke="#418cad" stroke-width="6" stroke-linecap="square" stroke-linejoin="miter" shape-rendering="crispEdges">
<line x1="24" y1="6" x2="24" y2="36"/>
    <line x1="10" y1="36" x2="38" y2="36"/>
    <line x1="8" y1="40" x2="40" y2="40"/>
    <line x1="16" y1="14" x2="32" y2="14"/>
    <line x1="14" y1="22" x2="34" y2="22"/>
    <line x1="18" y1="30" x2="30" y2="30"/>
  </g>
  <rect x="0" y="0" width="48" height="48" fill="url(#px)" mask="url(#m)" pointer-events="none"/>
</svg>