<svg xmlns="http://www.w3.org/2000/svg" viewBox="0 0 48 48">
  <defs>
    <pattern id="px" width="4" height="4" patternUnits="userSpaceOnUse">
      <rect width="4" height="4" fill="none"/>
      <rect width="2" height="2" fill="rgba(0,0,0,0.2)"/>
    </pattern>
    <mask id="m">
      <rect x="0" y="0" width="48" height="48" fill="black"/>
      <g fill="none" stroke="white" stroke-width="6" stroke-linecap="square" stroke-linejoin="miter" shape-rendering="crispEdges">
    <path d="M14 42 L30 24 Q36 18 32 12 Q28 6 20 10 Q14 14 18 20 L14 42 Z"/>
    <line x1="14" y1="42" x2="10" y2="44 M14 42 L12 44"/>
      </g>
    </mask>
  </defs>
  <g fill="none" stroke="#b3c9c6" stroke-width="6" stroke-linecap="square" stroke-linejoin="miter" shape-rendering="crispEdges">
    <path d="M14 42 L30 24 Q36 18 32 12 Q28 6 20 10 Q14 14 18 20 L14 42 Z"/>
    <line x1="14" y1="42" x2="10" y2="44 M14 42 L12 44"/>
  </g>
  <rect x="0" y="0" width="48" height="48" fill="url(#px)" mask="url(#m)" pointer-events="none"/>
</svg>