<svg xmlns="http://www.w3.org/2000/svg" viewBox="0 0 48 48">
  <defs>
    <pattern id="px" width="4" height="4" patternUnits="userSpaceOnUse">
      <rect width="4" height="4" fill="none"/>
      <rect width="2" height="2" fill="rgba(0,0,0,0.2)"/>
    </pattern>
    <mask id="m">
      <rect x="0" y="0" width="48" height="48" fill="black"/>
      <g fill="none" stroke="white" stroke-width="6" stroke-linecap="square" stroke-linejoin="miter" shape-rendering="crispEdges">
    <ellipse cx="24" cy="24" rx="9" ry="11"/>
    <circle cx="19" cy="20" r="2"/>
    <circle cx="29" cy="20" r="2"/>
    <path d="M24 24 L24 28 M20 26 L28 26"/>
    <path d="M33 18 Q38 18 40 22 Q38 26 33 24"/>
    <path d="M15 18 Q10 18 8 22 Q10 26 15 24"/>
      </g>
    </mask>
  </defs>
  <g fill="none" stroke="#a6dbd2" stroke-width="6" stroke-linecap="square" stroke-linejoin="miter" shape-rendering="crispEdges">
    <ellipse cx="24" cy="24" rx="9" ry="11"/>
    <circle cx="19" cy="20" r="2"/>
    <circle cx="29" cy="20" r="2"/>
    <path d="M24 24 L24 28 M20 26 L28 26"/>
    <path d="M33 18 Q38 18 40 22 Q38 26 33 24"/>
    <path d="M15 18 Q10 18 8 22 Q10 26 15 24"/>
  </g>
  <rect x="0" y="0" width="48" height="48" fill="url(#px)" mask="url(#m)" pointer-events="none"/>
</svg>