<svg xmlns="http://www.w3.org/2000/svg" viewBox="0 0 48 48">
  <defs>
    <pattern id="px" width="4" height="4" patternUnits="userSpaceOnUse">
      <rect width="4" height="4" fill="none"/>
      <rect width="2" height="2" fill="rgba(0,0,0,0.2)"/>
    </pattern>
    <mask id="m">
      <rect x="0" y="0" width="48" height="48" fill="black"/>
      <g fill="none" stroke="white" stroke-width="6" stroke-linecap="square" stroke-linejoin="miter" shape-rendering="crispEdges">
    <circle cx="24" cy="22" r="14"/>
    <circle cx="24" cy="22" r="10"/>
    <circle cx="24" cy="22" r="6"/>
    <path d="M10 14 L6 10 M38 14 L42 10 M14 34 L8 38 M34 34 L40 38 M24 8 L24 4"/>
      </g>
    </mask>
  </defs>
  <g fill="none" stroke="#c1ddcf" stroke-width="6" stroke-linecap="square" stroke-linejoin="miter" shape-rendering="crispEdges">
    <circle cx="24" cy="22" r="14"/>
    <circle cx="24" cy="22" r="10"/>
    <circle cx="24" cy="22" r="6"/>
    <path d="M10 14 L6 10 M38 14 L42 10 M14 34 L8 38 M34 34 L40 38 M24 8 L24 4"/>
  </g>
  <rect x="0" y="0" width="48" height="48" fill="url(#px)" mask="url(#m)" pointer-events="none"/>
</svg>