<svg xmlns="http://www.w3.org/2000/svg" viewBox="0 0 48 48">
  <defs>
    <pattern id="px" width="4" height="4" patternUnits="userSpaceOnUse">
      <rect width="4" height="4" fill="none"/>
      <rect width="2" height="2" fill="rgba(0,0,0,0.2)"/>
    </pattern>
    <mask id="m">
      <rect x="0" y="0" width="48" height="48" fill="black"/>
      <g fill="none" stroke="white" stroke-width="6" stroke-linecap="square" stroke-linejoin="miter" shape-rendering="crispEdges">
    <path d="M4 28 Q12 8 24 16 Q36 24 44 12 Q46 24 40 32 Q34 40 24 36 Q14 32 6 38 Q2 34 4 28 Z"/>
    <circle cx="10" cy="22" r="2.5"/>
    <line x1="38" y1="22" x2="44" y2="18 M34 30 L40 34"/>
      </g>
    </mask>
  </defs>
  <g fill="none" stroke="#d2b2af" stroke-width="6" stroke-linecap="square" stroke-linejoin="miter" shape-rendering="crispEdges">
    <path d="M4 28 Q12 8 24 16 Q36 24 44 12 Q46 24 40 32 Q34 40 24 36 Q14 32 6 38 Q2 34 4 28 Z"/>
    <circle cx="10" cy="22" r="2.5"/>
    <line x1="38" y1="22" x2="44" y2="18 M34 30 L40 34"/>
  </g>
  <rect x="0" y="0" width="48" height="48" fill="url(#px)" mask="url(#m)" pointer-events="none"/>
</svg>