<svg xmlns="http://www.w3.org/2000/svg" viewBox="0 0 48 48">
  <defs>
    <pattern id="px" width="4" height="4" patternUnits="userSpaceOnUse">
      <rect width="4" height="4" fill="none"/>
      <rect width="2" height="2" fill="rgba(0,0,0,0.2)"/>
    </pattern>
    <mask id="m">
      <rect x="0" y="0" width="48" height="48" fill="black"/>
      <g fill="none" stroke="white" stroke-width="6" stroke-linecap="square" stroke-linejoin="miter" shape-rendering="crispEdges">
<circle cx="24" cy="26" r="14"/>
    <path d="M10 16 Q6 8 14 14 M22 12 Q24 4 26 12 M38 16 Q42 8 34 14"/>
    <circle cx="18" cy="24" r="3"/>
    <circle cx="30" cy="24" r="3"/>
    <path d="M18 34 Q24 38 30 34"/>
      </g>
    </mask>
  </defs>
  <g fill="none" stroke="#71419b" stroke-width="6" stroke-linecap="square" stroke-linejoin="miter" shape-rendering="crispEdges">
<circle cx="24" cy="26" r="14"/>
    <path d="M10 16 Q6 8 14 14 M22 12 Q24 4 26 12 M38 16 Q42 8 34 14"/>
    <circle cx="18" cy="24" r="3"/>
    <circle cx="30" cy="24" r="3"/>
    <path d="M18 34 Q24 38 30 34"/>
  </g>
  <rect x="0" y="0" width="48" height="48" fill="url(#px)" mask="url(#m)" pointer-events="none"/>
</svg>