<svg xmlns="http://www.w3.org/2000/svg" viewBox="0 0 48 48">
  <defs>
    <pattern id="px" width="4" height="4" patternUnits="userSpaceOnUse">
      <rect width="4" height="4" fill="none"/>
      <rect width="2" height="2" fill="rgba(0,0,0,0.2)"/>
    </pattern>
    <mask id="m">
      <rect x="0" y="0" width="48" height="48" fill="black"/>
      <g fill="none" stroke="white" stroke-width="6" stroke-linecap="square" stroke-linejoin="miter" shape-rendering="crispEdges">
<ellipse cx="24" cy="26" rx="12" ry="6"/><path d="M36 26 Q44 26 44 18"/><circle cx="14" cy="24" r="2"/><circle cx="22" cy="24" r="2"/><path d="M12 26 L8 34 L6 32"/><circle cx="24" cy="8" r="1.5"/>
      </g>
    </mask>
  </defs>
  <g fill="none" stroke="#75694d" stroke-width="6" stroke-linecap="square" stroke-linejoin="miter" shape-rendering="crispEdges">
<ellipse cx="24" cy="26" rx="12" ry="6"/><path d="M36 26 Q44 26 44 18"/><circle cx="14" cy="24" r="2"/><circle cx="22" cy="24" r="2"/><path d="M12 26 L8 34 L6 32"/><circle cx="24" cy="8" r="1.5"/>
  </g>
  <rect x="0" y="0" width="48" height="48" fill="url(#px)" mask="url(#m)" pointer-events="none"/>
</svg>