<svg xmlns="http://www.w3.org/2000/svg" viewBox="0 0 48 48">
  <defs>
    <pattern id="px" width="4" height="4" patternUnits="userSpaceOnUse">
      <rect width="4" height="4" fill="none"/>
      <rect width="2" height="2" fill="rgba(0,0,0,0.2)"/>
    </pattern>
    <mask id="m">
      <rect x="0" y="0" width="48" height="48" fill="black"/>
      <g fill="none" stroke="white" stroke-width="6" stroke-linecap="square" stroke-linejoin="miter" shape-rendering="crispEdges">
<ellipse cx="24" cy="24" rx="12" ry="6"/><path d="M36 24 Q44 24 44 16"/><circle cx="14" cy="22" r="2"/><circle cx="22" cy="22" r="2"/><path d="M10 24 L6 32 L4 28"/><path d="M6 32 L8 36"/><path d="M12 28 L8 34"/>
      </g>
    </mask>
  </defs>
  <g fill="none" stroke="#2e6a7a" stroke-width="6" stroke-linecap="square" stroke-linejoin="miter" shape-rendering="crispEdges">
<ellipse cx="24" cy="24" rx="12" ry="6"/><path d="M36 24 Q44 24 44 16"/><circle cx="14" cy="22" r="2"/><circle cx="22" cy="22" r="2"/><path d="M10 24 L6 32 L4 28"/><path d="M6 32 L8 36"/><path d="M12 28 L8 34"/>
  </g>
  <rect x="0" y="0" width="48" height="48" fill="url(#px)" mask="url(#m)" pointer-events="none"/>
</svg>