<svg xmlns="http://www.w3.org/2000/svg" viewBox="0 0 48 48">
  <defs>
    <pattern id="px" width="4" height="4" patternUnits="userSpaceOnUse">
      <rect width="4" height="4" fill="none"/>
      <rect width="2" height="2" fill="rgba(0,0,0,0.2)"/>
    </pattern>
    <mask id="m">
      <rect x="0" y="0" width="48" height="48" fill="black"/>
      <g fill="none" stroke="white" stroke-width="6" stroke-linecap="square" stroke-linejoin="miter" shape-rendering="crispEdges">
    <ellipse cx="24" cy="24" rx="8" ry="6"/>
    <ellipse cx="24" cy="14" rx="6" ry="5"/>
    <circle cx="22" cy="12" r="1.5"/>
    <path d="M24 14 L24 6 L28 8 M24 6 L20 8"/>
    <path d="M16 24 L10 44 M32 24 L38 44"/>
    <path d="M20 30 L28 30 M20 34 L28 34 M22 38 L26 38"/>
      </g>
    </mask>
  </defs>
  <g fill="none" stroke="#d7abb0" stroke-width="6" stroke-linecap="square" stroke-linejoin="miter" shape-rendering="crispEdges">
    <ellipse cx="24" cy="24" rx="8" ry="6"/>
    <ellipse cx="24" cy="14" rx="6" ry="5"/>
    <circle cx="22" cy="12" r="1.5"/>
    <path d="M24 14 L24 6 L28 8 M24 6 L20 8"/>
    <path d="M16 24 L10 44 M32 24 L38 44"/>
    <path d="M20 30 L28 30 M20 34 L28 34 M22 38 L26 38"/>
  </g>
  <rect x="0" y="0" width="48" height="48" fill="url(#px)" mask="url(#m)" pointer-events="none"/>
</svg>