<svg xmlns="http://www.w3.org/2000/svg" viewBox="0 0 48 48">
  <defs>
    <pattern id="px" width="4" height="4" patternUnits="userSpaceOnUse">
      <rect width="4" height="4" fill="none"/>
      <rect width="2" height="2" fill="rgba(0,0,0,0.2)"/>
    </pattern>
    <mask id="m">
      <rect x="0" y="0" width="48" height="48" fill="black"/>
      <g fill="none" stroke="white" stroke-width="6" stroke-linecap="square" stroke-linejoin="miter" shape-rendering="crispEdges">
    <ellipse cx="24" cy="20" rx="8" ry="5"/>
    <path d="M16 18 L6 8 L10 8 L16 14"/>
    <path d="M32 18 L42 8 L38 8 L32 14"/>
    <path d="M12 20 L4 22 L6 26 L14 22"/>
    <path d="M36 20 L44 22 L42 26 L34 22"/>
    <line x1="24" y1="20" x2="24" y2="44"/>
    <circle cx="24" cy="14" r="3"/>
      </g>
    </mask>
  </defs>
  <g fill="none" stroke="#deaed7" stroke-width="6" stroke-linecap="square" stroke-linejoin="miter" shape-rendering="crispEdges">
    <ellipse cx="24" cy="20" rx="8" ry="5"/>
    <path d="M16 18 L6 8 L10 8 L16 14"/>
    <path d="M32 18 L42 8 L38 8 L32 14"/>
    <path d="M12 20 L4 22 L6 26 L14 22"/>
    <path d="M36 20 L44 22 L42 26 L34 22"/>
    <line x1="24" y1="20" x2="24" y2="44"/>
    <circle cx="24" cy="14" r="3"/>
  </g>
  <rect x="0" y="0" width="48" height="48" fill="url(#px)" mask="url(#m)" pointer-events="none"/>
</svg>