<svg xmlns="http://www.w3.org/2000/svg" viewBox="0 0 48 48">
  <defs>
    <pattern id="px" width="4" height="4" patternUnits="userSpaceOnUse">
      <rect width="4" height="4" fill="none"/>
      <rect width="2" height="2" fill="rgba(0,0,0,0.2)"/>
    </pattern>
    <mask id="m">
      <rect x="0" y="0" width="48" height="48" fill="black"/>
      <g fill="none" stroke="white" stroke-width="6" stroke-linecap="square" stroke-linejoin="miter" shape-rendering="crispEdges">
<ellipse cx="24" cy="26" rx="10" ry="14"/><circle cx="24" cy="10" r="6"/><circle cx="22" cy="8" r="2"/><line x1="14" y1="26" x2="6" y2="22"/><line x1="34" y1="26" x2="42" y2="22"/><line x1="14" y1="34" x2="6" y2="40"/><line x1="34" y1="34" x2="42" y2="40"/><line x1="6" y1="40" x2="10" y2="42"/><line x1="42" y1="40" x2="38" y2="42"/><circle cx="18" cy="24" r="2"/><circle cx="30" cy="24" r="2"/>
      </g>
    </mask>
  </defs>
  <g fill="none" stroke="#479b91" stroke-width="6" stroke-linecap="square" stroke-linejoin="miter" shape-rendering="crispEdges">
<ellipse cx="24" cy="26" rx="10" ry="14"/><circle cx="24" cy="10" r="6"/><circle cx="22" cy="8" r="2"/><line x1="14" y1="26" x2="6" y2="22"/><line x1="34" y1="26" x2="42" y2="22"/><line x1="14" y1="34" x2="6" y2="40"/><line x1="34" y1="34" x2="42" y2="40"/><line x1="6" y1="40" x2="10" y2="42"/><line x1="42" y1="40" x2="38" y2="42"/><circle cx="18" cy="24" r="2"/><circle cx="30" cy="24" r="2"/>
  </g>
  <rect x="0" y="0" width="48" height="48" fill="url(#px)" mask="url(#m)" pointer-events="none"/>
</svg>