<svg xmlns="http://www.w3.org/2000/svg" viewBox="0 0 48 48">
  <defs>
    <pattern id="px" width="4" height="4" patternUnits="userSpaceOnUse">
      <rect width="4" height="4" fill="none"/>
      <rect width="2" height="2" fill="rgba(0,0,0,0.2)"/>
    </pattern>
    <mask id="m">
      <rect x="0" y="0" width="48" height="48" fill="black"/>
      <g fill="none" stroke="white" stroke-width="6" stroke-linecap="square" stroke-linejoin="miter" shape-rendering="crispEdges">
    <path d="M24 10 Q12 14 8 24 Q12 20 24 18 Q36 20 40 24 Q36 14 24 10 Z"/>
    <path d="M24 18 Q14 22 10 34 Q14 28 24 24 Q34 28 38 34 Q34 22 24 18 Z"/>
    <path d="M24 24 L24 44"/>
    <ellipse cx="24" cy="44" rx="4" ry="2"/>
      </g>
    </mask>
  </defs>
  <g fill="none" stroke="#cfa3ac" stroke-width="6" stroke-linecap="square" stroke-linejoin="miter" shape-rendering="crispEdges">
    <path d="M24 10 Q12 14 8 24 Q12 20 24 18 Q36 20 40 24 Q36 14 24 10 Z"/>
    <path d="M24 18 Q14 22 10 34 Q14 28 24 24 Q34 28 38 34 Q34 22 24 18 Z"/>
    <path d="M24 24 L24 44"/>
    <ellipse cx="24" cy="44" rx="4" ry="2"/>
  </g>
  <rect x="0" y="0" width="48" height="48" fill="url(#px)" mask="url(#m)" pointer-events="none"/>
</svg>