<svg xmlns="http://www.w3.org/2000/svg" viewBox="0 0 48 48">
  <defs>
    <pattern id="px" width="4" height="4" patternUnits="userSpaceOnUse">
      <rect width="4" height="4" fill="none"/>
      <rect width="2" height="2" fill="rgba(0,0,0,0.2)"/>
    </pattern>
    <mask id="m">
      <rect x="0" y="0" width="48" height="48" fill="black"/>
      <g fill="none" stroke="white" stroke-width="6" stroke-linecap="square" stroke-linejoin="miter" shape-rendering="crispEdges">
    <ellipse cx="24" cy="26" rx="8" ry="10"/>
    <path d="M22 16 L20 4 M26 16 L28 4"/>
    <path d="M16 22 L14 26 M32 22 L34 26"/>
    <path d="M16 30 L14 34 M32 30 L34 34"/>
      </g>
    </mask>
  </defs>
  <g fill="none" stroke="#b2dedb" stroke-width="6" stroke-linecap="square" stroke-linejoin="miter" shape-rendering="crispEdges">
    <ellipse cx="24" cy="26" rx="8" ry="10"/>
    <path d="M22 16 L20 4 M26 16 L28 4"/>
    <path d="M16 22 L14 26 M32 22 L34 26"/>
    <path d="M16 30 L14 34 M32 30 L34 34"/>
  </g>
  <rect x="0" y="0" width="48" height="48" fill="url(#px)" mask="url(#m)" pointer-events="none"/>
</svg>