<svg xmlns="http://www.w3.org/2000/svg" viewBox="0 0 48 48">
  <defs>
    <pattern id="px" width="4" height="4" patternUnits="userSpaceOnUse">
      <rect width="4" height="4" fill="none"/>
      <rect width="2" height="2" fill="rgba(0,0,0,0.2)"/>
    </pattern>
    <mask id="m">
      <rect x="0" y="0" width="48" height="48" fill="black"/>
      <g fill="none" stroke="white" stroke-width="6" stroke-linecap="square" stroke-linejoin="miter" shape-rendering="crispEdges">
    <rect x="2" y="18" width="44" height="16" rx="6"/>
    <path d="M6 14 L42 14"/>
    <rect x="12" y="22" width="10" height="8" rx="2"/>
    <rect x="26" y="22" width="10" height="8" rx="2"/>
    <line x1="6" y1="36" x2="8" y2="44 L40 44 L42 36"/>
      </g>
    </mask>
  </defs>
  <g fill="none" stroke="#b3e6b6" stroke-width="6" stroke-linecap="square" stroke-linejoin="miter" shape-rendering="crispEdges">
    <rect x="2" y="18" width="44" height="16" rx="6"/>
    <path d="M6 14 L42 14"/>
    <rect x="12" y="22" width="10" height="8" rx="2"/>
    <rect x="26" y="22" width="10" height="8" rx="2"/>
    <line x1="6" y1="36" x2="8" y2="44 L40 44 L42 36"/>
  </g>
  <rect x="0" y="0" width="48" height="48" fill="url(#px)" mask="url(#m)" pointer-events="none"/>
</svg>