<svg xmlns="http://www.w3.org/2000/svg" viewBox="0 0 48 48">
  <defs>
    <pattern id="px" width="4" height="4" patternUnits="userSpaceOnUse">
      <rect width="4" height="4" fill="none"/>
      <rect width="2" height="2" fill="rgba(0,0,0,0.2)"/>
    </pattern>
    <mask id="m">
      <rect x="0" y="0" width="48" height="48" fill="black"/>
      <g fill="none" stroke="white" stroke-width="6" stroke-linecap="square" stroke-linejoin="miter" shape-rendering="crispEdges">
    <path d="M4 24 Q12 12 24 16 Q36 12 44 24 Q36 30 24 28 Q12 30 4 24 Z"/>
    <path d="M24 16 L24 8 M24 28 L24 36"/>
    <line x1="10" y1="22" x2="6" y2="18 M38 22 L42 18"/>
      </g>
    </mask>
  </defs>
  <g fill="none" stroke="#c9b7b7" stroke-width="6" stroke-linecap="square" stroke-linejoin="miter" shape-rendering="crispEdges">
    <path d="M4 24 Q12 12 24 16 Q36 12 44 24 Q36 30 24 28 Q12 30 4 24 Z"/>
    <path d="M24 16 L24 8 M24 28 L24 36"/>
    <line x1="10" y1="22" x2="6" y2="18 M38 22 L42 18"/>
  </g>
  <rect x="0" y="0" width="48" height="48" fill="url(#px)" mask="url(#m)" pointer-events="none"/>
</svg>