<svg xmlns="http://www.w3.org/2000/svg" viewBox="0 0 48 48">
  <defs>
    <pattern id="px" width="4" height="4" patternUnits="userSpaceOnUse">
      <rect width="4" height="4" fill="none"/>
      <rect width="2" height="2" fill="rgba(0,0,0,0.2)"/>
    </pattern>
    <mask id="m">
      <rect x="0" y="0" width="48" height="48" fill="black"/>
      <g fill="none" stroke="white" stroke-width="6" stroke-linecap="square" stroke-linejoin="miter" shape-rendering="crispEdges">
    <rect x="4" y="6" width="40" height="36" rx="2"/>
    <path d="M4 12 L44 12 M4 18 L44 18 M4 24 L44 24 M4 30 L44 30 M4 36 L44 36"/>
    <circle cx="14" cy="16" r="2" fill="currentColor"/>
    <path d="M14 16 Q18 14 24 16 Q28 18 34 16" stroke-dasharray="2 2"/>
      </g>
    </mask>
  </defs>
  <g fill="none" stroke="#a1ceb7" stroke-width="6" stroke-linecap="square" stroke-linejoin="miter" shape-rendering="crispEdges">
    <rect x="4" y="6" width="40" height="36" rx="2"/>
    <path d="M4 12 L44 12 M4 18 L44 18 M4 24 L44 24 M4 30 L44 30 M4 36 L44 36"/>
    <circle cx="14" cy="16" r="2" fill="currentColor"/>
    <path d="M14 16 Q18 14 24 16 Q28 18 34 16" stroke-dasharray="2 2"/>
  </g>
  <rect x="0" y="0" width="48" height="48" fill="url(#px)" mask="url(#m)" pointer-events="none"/>
</svg>