<svg xmlns="http://www.w3.org/2000/svg" viewBox="0 0 48 48">
  <defs>
    <pattern id="px" width="4" height="4" patternUnits="userSpaceOnUse">
      <rect width="4" height="4" fill="none"/>
      <rect width="2" height="2" fill="rgba(0,0,0,0.2)"/>
    </pattern>
    <mask id="m">
      <rect x="0" y="0" width="48" height="48" fill="black"/>
      <g fill="none" stroke="white" stroke-width="6" stroke-linecap="square" stroke-linejoin="miter" shape-rendering="crispEdges">
    <path d="M12 20 C12 6 36 6 36 20 L36 24 L12 24 Z"/>
    <line x1="8" y1="24" x2="40" y2="24"/>
    <path d="M18 12 L18 18 L24 12 L24 18 L30 12 L30 18"/>
    <path d="M12 24 C12 38 36 38 36 24"/>
    <path d="M14 30 Q20 38 24 30 Q28 38 34 30"/>
    <circle cx="18" cy="27" r="2" fill="white"/>
    <circle cx="30" cy="27" r="2" fill="white"/>
      </g>
    </mask>
  </defs>
  <g fill="none" stroke="#C62828" stroke-width="6" stroke-linecap="square" stroke-linejoin="miter" shape-rendering="crispEdges">
    <path d="M12 20 C12 6 36 6 36 20 L36 24 L12 24 Z"/>
    <line x1="8" y1="24" x2="40" y2="24"/>
    <path d="M18 12 L18 18 L24 12 L24 18 L30 12 L30 18"/>
    <path d="M12 24 C12 38 36 38 36 24"/>
    <path d="M14 30 Q20 38 24 30 Q28 38 34 30"/>
    <circle cx="18" cy="27" r="2" fill="#C62828"/>
    <circle cx="30" cy="27" r="2" fill="#C62828"/>
  </g>
  <rect x="0" y="0" width="48" height="48" fill="url(#px)" mask="url(#m)" pointer-events="none"/>
</svg>