<svg xmlns="http://www.w3.org/2000/svg" viewBox="0 0 48 48">
  <defs>
    <pattern id="px" width="4" height="4" patternUnits="userSpaceOnUse">
      <rect width="4" height="4" fill="none"/>
      <rect width="2" height="2" fill="rgba(0,0,0,0.2)"/>
    </pattern>
    <mask id="m">
      <rect x="0" y="0" width="48" height="48" fill="black"/>
      <g fill="none" stroke="white" stroke-width="6" stroke-linecap="square" stroke-linejoin="miter" shape-rendering="crispEdges">
    <rect x="16" y="6" width="16" height="26" rx="4"/>
    <rect x="14" y="32" width="20" height="8" rx="3"/>
    <line x1="16" y1="32" x2="16" y2="40 M32 32 L32 40"/>
    <line x1="24" y1="6" x2="24" y2="4"/>
    <line x1="22" y1="4" x2="26" y2="4"/>
      </g>
    </mask>
  </defs>
  <g fill="none" stroke="#a2cba3" stroke-width="6" stroke-linecap="square" stroke-linejoin="miter" shape-rendering="crispEdges">
    <rect x="16" y="6" width="16" height="26" rx="4"/>
    <rect x="14" y="32" width="20" height="8" rx="3"/>
    <line x1="16" y1="32" x2="16" y2="40 M32 32 L32 40"/>
    <line x1="24" y1="6" x2="24" y2="4"/>
    <line x1="22" y1="4" x2="26" y2="4"/>
  </g>
  <rect x="0" y="0" width="48" height="48" fill="url(#px)" mask="url(#m)" pointer-events="none"/>
</svg>