<svg xmlns="http://www.w3.org/2000/svg" viewBox="0 0 48 48">
  <defs>
    <pattern id="px" width="4" height="4" patternUnits="userSpaceOnUse">
      <rect width="4" height="4" fill="none"/>
      <rect width="2" height="2" fill="rgba(0,0,0,0.2)"/>
    </pattern>
    <mask id="m">
      <rect x="0" y="0" width="48" height="48" fill="black"/>
      <g fill="none" stroke="white" stroke-width="6" stroke-linecap="square" stroke-linejoin="miter" shape-rendering="crispEdges">
    <ellipse cx="24" cy="22" rx="14" ry="10"/>
    <line x1="10" y1="22" x2="10" y2="30 M38 22 L38 30"/>
    <line x1="10" y1="30" x2="16" y2="36 M38 30 L32 36"/>
    <line x1="16" y1="36" x2="32" y2="36"/>
      </g>
    </mask>
  </defs>
  <g fill="none" stroke="#e3b8d2" stroke-width="6" stroke-linecap="square" stroke-linejoin="miter" shape-rendering="crispEdges">
    <ellipse cx="24" cy="22" rx="14" ry="10"/>
    <line x1="10" y1="22" x2="10" y2="30 M38 22 L38 30"/>
    <line x1="10" y1="30" x2="16" y2="36 M38 30 L32 36"/>
    <line x1="16" y1="36" x2="32" y2="36"/>
  </g>
  <rect x="0" y="0" width="48" height="48" fill="url(#px)" mask="url(#m)" pointer-events="none"/>
</svg>