<svg xmlns="http://www.w3.org/2000/svg" viewBox="0 0 48 48">
  <defs>
    <pattern id="px" width="4" height="4" patternUnits="userSpaceOnUse">
      <rect width="4" height="4" fill="none"/>
      <rect width="2" height="2" fill="rgba(0,0,0,0.2)"/>
    </pattern>
    <mask id="m">
      <rect x="0" y="0" width="48" height="48" fill="black"/>
      <g fill="none" stroke="white" stroke-width="6" stroke-linecap="square" stroke-linejoin="miter" shape-rendering="crispEdges">
    <rect x="12" y="16" width="24" height="22" rx="2"/>
    <path d="M38 12l4-4"/>
    <path d="M38 12h3"/>
    <path d="M41 12v3"/>
    <path d="M10 36l-4 4"/>
    <path d="M10 36H7"/>
    <path d="M7 36v-3"/>
      </g>
    </mask>
  </defs>
  <g fill="none" stroke="#66BB6A" stroke-width="6" stroke-linecap="square" stroke-linejoin="miter" shape-rendering="crispEdges">
    <rect x="12" y="16" width="24" height="22" rx="2"/>
    <path d="M38 12l4-4"/>
    <path d="M38 12h3"/>
    <path d="M41 12v3"/>
    <path d="M10 36l-4 4"/>
    <path d="M10 36H7"/>
    <path d="M7 36v-3"/>
  </g>
  <rect x="0" y="0" width="48" height="48" fill="url(#px)" mask="url(#m)" pointer-events="none"/>
</svg>