<svg xmlns="http://www.w3.org/2000/svg" viewBox="0 0 48 48">
  <defs>
    <pattern id="px" width="4" height="4" patternUnits="userSpaceOnUse">
      <rect width="4" height="4" fill="none"/>
      <rect width="2" height="2" fill="rgba(0,0,0,0.2)"/>
    </pattern>
    <mask id="m">
      <rect x="0" y="0" width="48" height="48" fill="black"/>
      <g fill="none" stroke="white" stroke-width="6" stroke-linecap="square" stroke-linejoin="miter" shape-rendering="crispEdges">
    <ellipse cx="24" cy="28" rx="8" ry="12"/>
    <circle cx="24" cy="14" r="5"/>
    <circle cx="21" cy="12" r="1.5"/>
    <circle cx="27" cy="12" r="1.5"/>
    <path d="M19 10 L16 4 M29 10 L32 4"/>
    <path d="M16 28 L10 44 M32 28 L38 44"/>
      </g>
    </mask>
  </defs>
  <g fill="none" stroke="#cdb1c7" stroke-width="6" stroke-linecap="square" stroke-linejoin="miter" shape-rendering="crispEdges">
    <ellipse cx="24" cy="28" rx="8" ry="12"/>
    <circle cx="24" cy="14" r="5"/>
    <circle cx="21" cy="12" r="1.5"/>
    <circle cx="27" cy="12" r="1.5"/>
    <path d="M19 10 L16 4 M29 10 L32 4"/>
    <path d="M16 28 L10 44 M32 28 L38 44"/>
  </g>
  <rect x="0" y="0" width="48" height="48" fill="url(#px)" mask="url(#m)" pointer-events="none"/>
</svg>