<svg xmlns="http://www.w3.org/2000/svg" viewBox="0 0 48 48">
  <defs>
    <pattern id="px" width="4" height="4" patternUnits="userSpaceOnUse">
      <rect width="4" height="4" fill="none"/>
      <rect width="2" height="2" fill="rgba(0,0,0,0.2)"/>
    </pattern>
    <mask id="m">
      <rect x="0" y="0" width="48" height="48" fill="black"/>
      <g fill="none" stroke="white" stroke-width="6" stroke-linecap="square" stroke-linejoin="miter" shape-rendering="crispEdges">
<path d="M12 24 Q12 6 24 6 Q36 6 36 24 L36 40 L24 44 L12 40 Z"/>
    <circle cx="18" cy="20" r="2"/><circle cx="30" cy="20" r="2"/>
    <path d="M18 28 Q24 34 30 28"/>
      </g>
    </mask>
  </defs>
  <g fill="none" stroke="#893c6b" stroke-width="6" stroke-linecap="square" stroke-linejoin="miter" shape-rendering="crispEdges">
<path d="M12 24 Q12 6 24 6 Q36 6 36 24 L36 40 L24 44 L12 40 Z"/>
    <circle cx="18" cy="20" r="2"/><circle cx="30" cy="20" r="2"/>
    <path d="M18 28 Q24 34 30 28"/>
  </g>
  <rect x="0" y="0" width="48" height="48" fill="url(#px)" mask="url(#m)" pointer-events="none"/>
</svg>