<svg xmlns="http://www.w3.org/2000/svg" viewBox="0 0 48 48">
  <defs>
    <pattern id="px" width="4" height="4" patternUnits="userSpaceOnUse">
      <rect width="4" height="4" fill="none"/>
      <rect width="2" height="2" fill="rgba(0,0,0,0.2)"/>
    </pattern>
    <mask id="m">
      <rect x="0" y="0" width="48" height="48" fill="black"/>
      <g fill="none" stroke="white" stroke-width="6" stroke-linecap="square" stroke-linejoin="miter" shape-rendering="crispEdges">
<rect x="6" y="20" width="36" height="22" rx="3"/>
    <path d="M6 20 L42 20 L42 26 L6 26 Z"/>
    <line x1="24" y1="8" x2="24" y2="42"/>
    <circle cx="24" cy="8" r="6"/>
    <line x1="24" y1="8" x2="18" y2="14"/>
    <line x1="24" y1="8" x2="30" y2="14"/>
      </g>
    </mask>
  </defs>
  <g fill="none" stroke="#7b4f96" stroke-width="6" stroke-linecap="square" stroke-linejoin="miter" shape-rendering="crispEdges">
<rect x="6" y="20" width="36" height="22" rx="3"/>
    <path d="M6 20 L42 20 L42 26 L6 26 Z"/>
    <line x1="24" y1="8" x2="24" y2="42"/>
    <circle cx="24" cy="8" r="6"/>
    <line x1="24" y1="8" x2="18" y2="14"/>
    <line x1="24" y1="8" x2="30" y2="14"/>
  </g>
  <rect x="0" y="0" width="48" height="48" fill="url(#px)" mask="url(#m)" pointer-events="none"/>
</svg>