<svg xmlns="http://www.w3.org/2000/svg" viewBox="0 0 48 48">
  <defs>
    <pattern id="px" width="4" height="4" patternUnits="userSpaceOnUse">
      <rect width="4" height="4" fill="none"/>
      <rect width="2" height="2" fill="rgba(0,0,0,0.2)"/>
    </pattern>
    <mask id="m">
      <rect x="0" y="0" width="48" height="48" fill="black"/>
      <g fill="none" stroke="white" stroke-width="6" stroke-linecap="square" stroke-linejoin="miter" shape-rendering="crispEdges">
    <rect x="18" y="4" width="12" height="24" rx="6"/>
    <path d="M10 20 Q10 30 24 30 Q38 30 38 20"/>
    <line x1="24" y1="30" x2="24" y2="40"/>
    <rect x="16" y="38" width="16" height="4" rx="2"/>
      </g>
    </mask>
  </defs>
  <g fill="none" stroke="#1A237E" stroke-width="6" stroke-linecap="square" stroke-linejoin="miter" shape-rendering="crispEdges">
    <rect x="18" y="4" width="12" height="24" rx="6"/>
    <path d="M10 20 Q10 30 24 30 Q38 30 38 20"/>
    <line x1="24" y1="30" x2="24" y2="40"/>
    <rect x="16" y="38" width="16" height="4" rx="2"/>
  </g>
  <rect x="0" y="0" width="48" height="48" fill="url(#px)" mask="url(#m)" pointer-events="none"/>
</svg>