<svg xmlns="http://www.w3.org/2000/svg" viewBox="0 0 48 48">
  <defs>
    <pattern id="px" width="4" height="4" patternUnits="userSpaceOnUse">
      <rect width="4" height="4" fill="none"/>
      <rect width="2" height="2" fill="rgba(0,0,0,0.2)"/>
    </pattern>
    <mask id="m">
      <rect x="0" y="0" width="48" height="48" fill="black"/>
      <g fill="none" stroke="white" stroke-width="6" stroke-linecap="square" stroke-linejoin="miter" shape-rendering="crispEdges">
    <path d="M14 32 L16 12 Q16 8 24 8 Q32 8 32 12 L34 32 Z"/>
    <ellipse cx="24" cy="32" rx="10" ry="3"/>
    <path d="M20 14 L20 28 M24 14 L24 28 M28 14 L28 28"/>
    <path d="M22 8 L24 4 L26 8"/>
      </g>
    </mask>
  </defs>
  <g fill="none" stroke="#cde2b7" stroke-width="6" stroke-linecap="square" stroke-linejoin="miter" shape-rendering="crispEdges">
    <path d="M14 32 L16 12 Q16 8 24 8 Q32 8 32 12 L34 32 Z"/>
    <ellipse cx="24" cy="32" rx="10" ry="3"/>
    <path d="M20 14 L20 28 M24 14 L24 28 M28 14 L28 28"/>
    <path d="M22 8 L24 4 L26 8"/>
  </g>
  <rect x="0" y="0" width="48" height="48" fill="url(#px)" mask="url(#m)" pointer-events="none"/>
</svg>