<svg xmlns="http://www.w3.org/2000/svg" viewBox="0 0 48 48">
  <defs>
    <pattern id="px" width="4" height="4" patternUnits="userSpaceOnUse">
      <rect width="4" height="4" fill="none"/>
      <rect width="2" height="2" fill="rgba(0,0,0,0.2)"/>
    </pattern>
    <mask id="m">
      <rect x="0" y="0" width="48" height="48" fill="black"/>
      <g fill="none" stroke="white" stroke-width="6" stroke-linecap="square" stroke-linejoin="miter" shape-rendering="crispEdges">
    <ellipse cx="24" cy="14" rx="16" ry="3"/>
    <circle cx="10" cy="14" r="4"/>
    <circle cx="8" cy="12" r="1.5"/>
    <line x1="8" y1="16" x2="4" y2="22 M14" y1="16" x2="14" y2="22 M20" y1="16" x2="20" y2="22"/>
    <line x1="26" y1="16" x2="26" y2="22 M32" y1="16" x2="32" y2="22 M38" y1="16" x2="38" y2="22"/>
      </g>
    </mask>
  </defs>
  <g fill="none" stroke="#c4b6d4" stroke-width="6" stroke-linecap="square" stroke-linejoin="miter" shape-rendering="crispEdges">
    <ellipse cx="24" cy="14" rx="16" ry="3"/>
    <circle cx="10" cy="14" r="4"/>
    <circle cx="8" cy="12" r="1.5"/>
    <line x1="8" y1="16" x2="4" y2="22 M14" y1="16" x2="14" y2="22 M20" y1="16" x2="20" y2="22"/>
    <line x1="26" y1="16" x2="26" y2="22 M32" y1="16" x2="32" y2="22 M38" y1="16" x2="38" y2="22"/>
  </g>
  <rect x="0" y="0" width="48" height="48" fill="url(#px)" mask="url(#m)" pointer-events="none"/>
</svg>