<svg xmlns="http://www.w3.org/2000/svg" viewBox="0 0 48 48">
  <defs>
    <pattern id="px" width="4" height="4" patternUnits="userSpaceOnUse">
      <rect width="4" height="4" fill="none"/>
      <rect width="2" height="2" fill="rgba(0,0,0,0.2)"/>
    </pattern>
    <mask id="m">
      <rect x="0" y="0" width="48" height="48" fill="black"/>
      <g fill="none" stroke="white" stroke-width="6" stroke-linecap="square" stroke-linejoin="miter" shape-rendering="crispEdges">
    <path d="M6 28 L8 42 Q8 44 14 44 L34 44 Q36 44 38 42 L40 28 Z"/>
    <path d="M6 28 Q6 18 24 18 Q42 18 40 28"/>
    <line x1="14" y1="36" x2="34" y2="36"/>
    <circle cx="24" cy="18" r="2" fill="currentColor"/>
      </g>
    </mask>
  </defs>
  <g fill="none" stroke="#b7d5cc" stroke-width="6" stroke-linecap="square" stroke-linejoin="miter" shape-rendering="crispEdges">
    <path d="M6 28 L8 42 Q8 44 14 44 L34 44 Q36 44 38 42 L40 28 Z"/>
    <path d="M6 28 Q6 18 24 18 Q42 18 40 28"/>
    <line x1="14" y1="36" x2="34" y2="36"/>
    <circle cx="24" cy="18" r="2" fill="currentColor"/>
  </g>
  <rect x="0" y="0" width="48" height="48" fill="url(#px)" mask="url(#m)" pointer-events="none"/>
</svg>