<svg xmlns="http://www.w3.org/2000/svg" viewBox="0 0 48 48">
  <defs>
    <pattern id="px" width="4" height="4" patternUnits="userSpaceOnUse">
      <rect width="4" height="4" fill="none"/>
      <rect width="2" height="2" fill="rgba(0,0,0,0.2)"/>
    </pattern>
    <mask id="m">
      <rect x="0" y="0" width="48" height="48" fill="black"/>
      <g fill="none" stroke="white" stroke-width="6" stroke-linecap="square" stroke-linejoin="miter" shape-rendering="crispEdges">
<ellipse cx="24" cy="26" rx="10" ry="14"/><circle cx="24" cy="10" r="8"/><circle cx="24" cy="26" r="3"/><path d="M16 32 L12 38"/><path d="M32 32 L36 38"/><circle cx="20" cy="8" r="2.5"/><circle cx="28" cy="8" r="2.5"/>
      </g>
    </mask>
  </defs>
  <g fill="none" stroke="#9b3f93" stroke-width="6" stroke-linecap="square" stroke-linejoin="miter" shape-rendering="crispEdges">
<ellipse cx="24" cy="26" rx="10" ry="14"/><circle cx="24" cy="10" r="8"/><circle cx="24" cy="26" r="3"/><path d="M16 32 L12 38"/><path d="M32 32 L36 38"/><circle cx="20" cy="8" r="2.5"/><circle cx="28" cy="8" r="2.5"/>
  </g>
  <rect x="0" y="0" width="48" height="48" fill="url(#px)" mask="url(#m)" pointer-events="none"/>
</svg>