<svg xmlns="http://www.w3.org/2000/svg" viewBox="0 0 48 48">
  <defs>
    <pattern id="px" width="4" height="4" patternUnits="userSpaceOnUse">
      <rect width="4" height="4" fill="none"/>
      <rect width="2" height="2" fill="rgba(0,0,0,0.2)"/>
    </pattern>
    <mask id="m">
      <rect x="0" y="0" width="48" height="48" fill="black"/>
      <g fill="none" stroke="white" stroke-width="6" stroke-linecap="square" stroke-linejoin="miter" shape-rendering="crispEdges">
    <rect x="4" y="18" width="40" height="18" rx="6"/>
    <rect x="12" y="12" width="24" height="6" rx="3"/>
    <circle cx="14" cy="36" r="4"/>
    <circle cx="34" cy="36" r="4"/>
    <line x1="12" y1="12" x2="12" y2="4 L36 4 L36 12"/>
      </g>
    </mask>
  </defs>
  <g fill="none" stroke="#c5b8df" stroke-width="6" stroke-linecap="square" stroke-linejoin="miter" shape-rendering="crispEdges">
    <rect x="4" y="18" width="40" height="18" rx="6"/>
    <rect x="12" y="12" width="24" height="6" rx="3"/>
    <circle cx="14" cy="36" r="4"/>
    <circle cx="34" cy="36" r="4"/>
    <line x1="12" y1="12" x2="12" y2="4 L36 4 L36 12"/>
  </g>
  <rect x="0" y="0" width="48" height="48" fill="url(#px)" mask="url(#m)" pointer-events="none"/>
</svg>