<svg xmlns="http://www.w3.org/2000/svg" viewBox="0 0 48 48">
  <defs>
    <pattern id="px" width="4" height="4" patternUnits="userSpaceOnUse">
      <rect width="4" height="4" fill="none"/>
      <rect width="2" height="2" fill="rgba(0,0,0,0.2)"/>
    </pattern>
    <mask id="m">
      <rect x="0" y="0" width="48" height="48" fill="black"/>
      <g fill="none" stroke="white" stroke-width="6" stroke-linecap="square" stroke-linejoin="miter" shape-rendering="crispEdges">
    <ellipse cx="24" cy="28" rx="12" ry="14"/>
    <ellipse cx="24" cy="16" rx="8" ry="5"/>
    <circle cx="20" cy="14" r="2"/>
    <path d="M14 8 L8 2 L10 10 M10 10 L4 6 M10 10 L6 14"/>
    <path d="M34 8 L40 2 L38 10 M38 10 L44 6 M38 10 L42 14"/>
    <line x1="16" y1="34" x2="10" y2="44"/>
    <line x1="32" y1="34" x2="38" y2="44"/>
      </g>
    </mask>
  </defs>
  <g fill="none" stroke="#ace2e4" stroke-width="6" stroke-linecap="square" stroke-linejoin="miter" shape-rendering="crispEdges">
    <ellipse cx="24" cy="28" rx="12" ry="14"/>
    <ellipse cx="24" cy="16" rx="8" ry="5"/>
    <circle cx="20" cy="14" r="2"/>
    <path d="M14 8 L8 2 L10 10 M10 10 L4 6 M10 10 L6 14"/>
    <path d="M34 8 L40 2 L38 10 M38 10 L44 6 M38 10 L42 14"/>
    <line x1="16" y1="34" x2="10" y2="44"/>
    <line x1="32" y1="34" x2="38" y2="44"/>
  </g>
  <rect x="0" y="0" width="48" height="48" fill="url(#px)" mask="url(#m)" pointer-events="none"/>
</svg>