<svg xmlns="http://www.w3.org/2000/svg" viewBox="0 0 48 48">
  <defs>
    <pattern id="px" width="4" height="4" patternUnits="userSpaceOnUse">
      <rect width="4" height="4" fill="none"/>
      <rect width="2" height="2" fill="rgba(0,0,0,0.2)"/>
    </pattern>
    <mask id="m">
      <rect x="0" y="0" width="48" height="48" fill="black"/>
      <g fill="none" stroke="white" stroke-width="6" stroke-linecap="square" stroke-linejoin="miter" shape-rendering="crispEdges">
    <line x1="24" y1="4" x2="24" y2="30"/>
    <rect x="10" y="30" width="28" height="8" rx="2"/>
    <line x1="10" y1="38" x2="24" y2="38 M38 38 L24 38" stroke-dasharray="2 2"/>
    <line x1="10" y1="38" x2="10" y2="44 M38 38 L38 44"/>
      </g>
    </mask>
  </defs>
  <g fill="none" stroke="#b4bfcd" stroke-width="6" stroke-linecap="square" stroke-linejoin="miter" shape-rendering="crispEdges">
    <line x1="24" y1="4" x2="24" y2="30"/>
    <rect x="10" y="30" width="28" height="8" rx="2"/>
    <line x1="10" y1="38" x2="24" y2="38 M38 38 L24 38" stroke-dasharray="2 2"/>
    <line x1="10" y1="38" x2="10" y2="44 M38 38 L38 44"/>
  </g>
  <rect x="0" y="0" width="48" height="48" fill="url(#px)" mask="url(#m)" pointer-events="none"/>
</svg>