<svg xmlns="http://www.w3.org/2000/svg" viewBox="0 0 48 48">
  <defs>
    <pattern id="px" width="4" height="4" patternUnits="userSpaceOnUse">
      <rect width="4" height="4" fill="none"/>
      <rect width="2" height="2" fill="rgba(0,0,0,0.2)"/>
    </pattern>
    <mask id="m">
      <rect x="0" y="0" width="48" height="48" fill="black"/>
      <g fill="none" stroke="white" stroke-width="6" stroke-linecap="square" stroke-linejoin="miter" shape-rendering="crispEdges">
<rect x="8" y="8" width="32" height="32" rx="2"/><rect x="18" y="12" width="12" height="12" rx="1"/><circle cx="24" cy="18" r="2"/><rect x="12" y="26" width="24" height="4" rx="1"/><line x1="14" y1="12" x2="14" y2="14"/><line x1="34" y1="12" x2="34" y2="14"/><circle cx="14" cy="18" r="1.5"/><circle cx="34" cy="18" r="1.5"/>
      </g>
    </mask>
  </defs>
  <g fill="none" stroke="#639979" stroke-width="6" stroke-linecap="square" stroke-linejoin="miter" shape-rendering="crispEdges">
<rect x="8" y="8" width="32" height="32" rx="2"/><rect x="18" y="12" width="12" height="12" rx="1"/><circle cx="24" cy="18" r="2"/><rect x="12" y="26" width="24" height="4" rx="1"/><line x1="14" y1="12" x2="14" y2="14"/><line x1="34" y1="12" x2="34" y2="14"/><circle cx="14" cy="18" r="1.5"/><circle cx="34" cy="18" r="1.5"/>
  </g>
  <rect x="0" y="0" width="48" height="48" fill="url(#px)" mask="url(#m)" pointer-events="none"/>
</svg>