<svg xmlns="http://www.w3.org/2000/svg" viewBox="0 0 48 48">
  <defs>
    <pattern id="px" width="4" height="4" patternUnits="userSpaceOnUse">
      <rect width="4" height="4" fill="none"/>
      <rect width="2" height="2" fill="rgba(0,0,0,0.2)"/>
    </pattern>
    <mask id="m">
      <rect x="0" y="0" width="48" height="48" fill="black"/>
      <g fill="none" stroke="white" stroke-width="6" stroke-linecap="square" stroke-linejoin="miter" shape-rendering="crispEdges">
    <path d="M14 14 Q14 6 24 6 Q34 6 34 14 L34 32 Q34 40 24 40 Q14 40 14 32 Z"/>
    <line x1="24" y1="6" x2="24" y2="18"/>
    <line x1="21" y1="24" x2="27" y2="24"/>
    <line x1="21" y1="28" x2="27" y2="28"/>
      </g>
    </mask>
  </defs>
  <g fill="none" stroke="#757575" stroke-width="6" stroke-linecap="square" stroke-linejoin="miter" shape-rendering="crispEdges">
    <path d="M14 14 Q14 6 24 6 Q34 6 34 14 L34 32 Q34 40 24 40 Q14 40 14 32 Z"/>
    <line x1="24" y1="6" x2="24" y2="18"/>
    <line x1="21" y1="24" x2="27" y2="24"/>
    <line x1="21" y1="28" x2="27" y2="28"/>
  </g>
  <rect x="0" y="0" width="48" height="48" fill="url(#px)" mask="url(#m)" pointer-events="none"/>
</svg>