<svg xmlns="http://www.w3.org/2000/svg" viewBox="0 0 48 48">
  <defs>
    <pattern id="px" width="4" height="4" patternUnits="userSpaceOnUse">
      <rect width="4" height="4" fill="none"/>
      <rect width="2" height="2" fill="rgba(0,0,0,0.2)"/>
    </pattern>
    <mask id="m">
      <rect x="0" y="0" width="48" height="48" fill="black"/>
      <g fill="none" stroke="white" stroke-width="6" stroke-linecap="square" stroke-linejoin="miter" shape-rendering="crispEdges">
    <rect x="8" y="10" width="24" height="30" rx="4"/>
    <path d="M32 16 Q38 16 38 22 Q38 28 32 28"/>
    <ellipse cx="20" cy="10" rx="12" ry="4"/>
    <line x1="8" y1="20" x2="32" y2="20 M8 30 L32 30"/>
      </g>
    </mask>
  </defs>
  <g fill="none" stroke="#dfc7c0" stroke-width="6" stroke-linecap="square" stroke-linejoin="miter" shape-rendering="crispEdges">
    <rect x="8" y="10" width="24" height="30" rx="4"/>
    <path d="M32 16 Q38 16 38 22 Q38 28 32 28"/>
    <ellipse cx="20" cy="10" rx="12" ry="4"/>
    <line x1="8" y1="20" x2="32" y2="20 M8 30 L32 30"/>
  </g>
  <rect x="0" y="0" width="48" height="48" fill="url(#px)" mask="url(#m)" pointer-events="none"/>
</svg>