<svg xmlns="http://www.w3.org/2000/svg" viewBox="0 0 48 48">
  <defs>
    <pattern id="px" width="4" height="4" patternUnits="userSpaceOnUse">
      <rect width="4" height="4" fill="none"/>
      <rect width="2" height="2" fill="rgba(0,0,0,0.2)"/>
    </pattern>
    <mask id="m">
      <rect x="0" y="0" width="48" height="48" fill="black"/>
      <g fill="none" stroke="white" stroke-width="6" stroke-linecap="square" stroke-linejoin="miter" shape-rendering="crispEdges">
    <rect x="8" y="10" width="32" height="28" rx="3"/>
    <rect x="12" y="14" width="24" height="10" rx="2"/>
    <line x1="16" y1="14" x2="16" y2="24 M24 14 L24 24 M32 14 L32 24"/>
    <circle cx="24" cy="34" r="3"/>
    <circle cx="16" cy="34" r="3"/>
    <circle cx="32" cy="34" r="3"/>
      </g>
    </mask>
  </defs>
  <g fill="none" stroke="#aea3c9" stroke-width="6" stroke-linecap="square" stroke-linejoin="miter" shape-rendering="crispEdges">
    <rect x="8" y="10" width="32" height="28" rx="3"/>
    <rect x="12" y="14" width="24" height="10" rx="2"/>
    <line x1="16" y1="14" x2="16" y2="24 M24 14 L24 24 M32 14 L32 24"/>
    <circle cx="24" cy="34" r="3"/>
    <circle cx="16" cy="34" r="3"/>
    <circle cx="32" cy="34" r="3"/>
  </g>
  <rect x="0" y="0" width="48" height="48" fill="url(#px)" mask="url(#m)" pointer-events="none"/>
</svg>