<svg xmlns="http://www.w3.org/2000/svg" viewBox="0 0 48 48">
  <defs>
    <pattern id="px" width="4" height="4" patternUnits="userSpaceOnUse">
      <rect width="4" height="4" fill="none"/>
      <rect width="2" height="2" fill="rgba(0,0,0,0.2)"/>
    </pattern>
    <mask id="m">
      <rect x="0" y="0" width="48" height="48" fill="black"/>
      <g fill="none" stroke="white" stroke-width="6" stroke-linecap="square" stroke-linejoin="miter" shape-rendering="crispEdges">
    <path d="M8 16 Q16 8 24 16 Q32 24 40 16 Q32 8 24 16 Q16 24 8 16"/>
    <path d="M4 24 Q12 16 20 24 Q28 32 36 24 Q44 16 44 24"/>
    <path d="M8 32 Q16 24 24 32 Q32 40 40 32"/>
      </g>
    </mask>
  </defs>
  <g fill="none" stroke="#cae6dd" stroke-width="6" stroke-linecap="square" stroke-linejoin="miter" shape-rendering="crispEdges">
    <path d="M8 16 Q16 8 24 16 Q32 24 40 16 Q32 8 24 16 Q16 24 8 16"/>
    <path d="M4 24 Q12 16 20 24 Q28 32 36 24 Q44 16 44 24"/>
    <path d="M8 32 Q16 24 24 32 Q32 40 40 32"/>
  </g>
  <rect x="0" y="0" width="48" height="48" fill="url(#px)" mask="url(#m)" pointer-events="none"/>
</svg>