<svg xmlns="http://www.w3.org/2000/svg" viewBox="0 0 48 48">
  <defs>
    <pattern id="px" width="4" height="4" patternUnits="userSpaceOnUse">
      <rect width="4" height="4" fill="none"/>
      <rect width="2" height="2" fill="rgba(0,0,0,0.2)"/>
    </pattern>
    <mask id="m">
      <rect x="0" y="0" width="48" height="48" fill="black"/>
      <g fill="none" stroke="white" stroke-width="6" stroke-linecap="square" stroke-linejoin="miter" shape-rendering="crispEdges">
    <rect x="6" y="4" width="36" height="40" rx="2"/>
    <rect x="6" y="4" width="36" height="8" rx="2"/>
    <circle cx="10" cy="8" r="1.5" fill="currentColor"/>
    <line x1="14" y1="18" x2="38" y2="18 M14 24 L38 24 M14 30 L38 30 M14 36 L38 36"/>
      </g>
    </mask>
  </defs>
  <g fill="none" stroke="#b5c2c9" stroke-width="6" stroke-linecap="square" stroke-linejoin="miter" shape-rendering="crispEdges">
    <rect x="6" y="4" width="36" height="40" rx="2"/>
    <rect x="6" y="4" width="36" height="8" rx="2"/>
    <circle cx="10" cy="8" r="1.5" fill="currentColor"/>
    <line x1="14" y1="18" x2="38" y2="18 M14 24 L38 24 M14 30 L38 30 M14 36 L38 36"/>
  </g>
  <rect x="0" y="0" width="48" height="48" fill="url(#px)" mask="url(#m)" pointer-events="none"/>
</svg>