<svg xmlns="http://www.w3.org/2000/svg" viewBox="0 0 48 48">
  <defs>
    <pattern id="px" width="4" height="4" patternUnits="userSpaceOnUse">
      <rect width="4" height="4" fill="none"/>
      <rect width="2" height="2" fill="rgba(0,0,0,0.2)"/>
    </pattern>
    <mask id="m">
      <rect x="0" y="0" width="48" height="48" fill="black"/>
      <g fill="none" stroke="white" stroke-width="6" stroke-linecap="square" stroke-linejoin="miter" shape-rendering="crispEdges">
    <rect x="16" y="8" width="16" height="14" rx="3"/>
    <circle cx="24" cy="10" r="3"/>
    <rect x="18" y="22" width="12" height="10" rx="2"/>
    <rect x="20" y="32" width="8" height="12" rx="2"/>
    <path d="M18 22 L12 18 M30 22 L36 18"/>
      </g>
    </mask>
  </defs>
  <g fill="none" stroke="#baced7" stroke-width="6" stroke-linecap="square" stroke-linejoin="miter" shape-rendering="crispEdges">
    <rect x="16" y="8" width="16" height="14" rx="3"/>
    <circle cx="24" cy="10" r="3"/>
    <rect x="18" y="22" width="12" height="10" rx="2"/>
    <rect x="20" y="32" width="8" height="12" rx="2"/>
    <path d="M18 22 L12 18 M30 22 L36 18"/>
  </g>
  <rect x="0" y="0" width="48" height="48" fill="url(#px)" mask="url(#m)" pointer-events="none"/>
</svg>