<svg xmlns="http://www.w3.org/2000/svg" viewBox="0 0 48 48">
  <defs>
    <pattern id="px" width="4" height="4" patternUnits="userSpaceOnUse">
      <rect width="4" height="4" fill="none"/>
      <rect width="2" height="2" fill="rgba(0,0,0,0.2)"/>
    </pattern>
    <mask id="m">
      <rect x="0" y="0" width="48" height="48" fill="black"/>
      <g fill="none" stroke="white" stroke-width="6" stroke-linecap="square" stroke-linejoin="miter" shape-rendering="crispEdges">
    <circle cx="24" cy="10" r="5"/>
    <circle cx="22" cy="8" r="1.5"/>
    <circle cx="26" cy="8" r="1.5"/>
    <line x1="24" y1="15" x2="24" y2="44"/>
    <line x1="24" y1="18" x2="14" y2="26 M24 22 L34 30"/>
    <path d="M14 36 L8 44 M34 36 L40 44"/>
      </g>
    </mask>
  </defs>
  <g fill="none" stroke="#abc5c3" stroke-width="6" stroke-linecap="square" stroke-linejoin="miter" shape-rendering="crispEdges">
    <circle cx="24" cy="10" r="5"/>
    <circle cx="22" cy="8" r="1.5"/>
    <circle cx="26" cy="8" r="1.5"/>
    <line x1="24" y1="15" x2="24" y2="44"/>
    <line x1="24" y1="18" x2="14" y2="26 M24 22 L34 30"/>
    <path d="M14 36 L8 44 M34 36 L40 44"/>
  </g>
  <rect x="0" y="0" width="48" height="48" fill="url(#px)" mask="url(#m)" pointer-events="none"/>
</svg>