<svg xmlns="http://www.w3.org/2000/svg" viewBox="0 0 48 48">
  <defs>
    <pattern id="px" width="4" height="4" patternUnits="userSpaceOnUse">
      <rect width="4" height="4" fill="none"/>
      <rect width="2" height="2" fill="rgba(0,0,0,0.2)"/>
    </pattern>
    <mask id="m">
      <rect x="0" y="0" width="48" height="48" fill="black"/>
      <g fill="none" stroke="white" stroke-width="6" stroke-linecap="square" stroke-linejoin="miter" shape-rendering="crispEdges">
    <rect x="10" y="30" width="28" height="14" rx="2"/>
    <path d="M14 30 L16 14 L20 12 L24 30 Z"/>
    <path d="M34 30 L32 14 L28 12 L24 30 Z"/>
    <line x1="24" y1="12" x2="24" y2="4"/>
    <circle cx="24" cy="4" r="2" fill="currentColor"/>
      </g>
    </mask>
  </defs>
  <g fill="none" stroke="#acd4d5" stroke-width="6" stroke-linecap="square" stroke-linejoin="miter" shape-rendering="crispEdges">
    <rect x="10" y="30" width="28" height="14" rx="2"/>
    <path d="M14 30 L16 14 L20 12 L24 30 Z"/>
    <path d="M34 30 L32 14 L28 12 L24 30 Z"/>
    <line x1="24" y1="12" x2="24" y2="4"/>
    <circle cx="24" cy="4" r="2" fill="currentColor"/>
  </g>
  <rect x="0" y="0" width="48" height="48" fill="url(#px)" mask="url(#m)" pointer-events="none"/>
</svg>