<svg xmlns="http://www.w3.org/2000/svg" viewBox="0 0 48 48">
  <defs>
    <pattern id="px" width="4" height="4" patternUnits="userSpaceOnUse">
      <rect width="4" height="4" fill="none"/>
      <rect width="2" height="2" fill="rgba(0,0,0,0.2)"/>
    </pattern>
    <mask id="m">
      <rect x="0" y="0" width="48" height="48" fill="black"/>
      <g fill="none" stroke="white" stroke-width="6" stroke-linecap="square" stroke-linejoin="miter" shape-rendering="crispEdges">
    <path d="M12 44 L12 14 Q12 8 18 6 Q24 4 24 12 L24 24"/>
    <path d="M24 44 L24 14 Q24 6 30 4 Q36 6 36 14 L36 24"/>
    <line x1="18" y1="44" x2="18" y2="16 M30" y1="44" x2="30" y2="16"/>
      </g>
    </mask>
  </defs>
  <g fill="none" stroke="#aae3a7" stroke-width="6" stroke-linecap="square" stroke-linejoin="miter" shape-rendering="crispEdges">
    <path d="M12 44 L12 14 Q12 8 18 6 Q24 4 24 12 L24 24"/>
    <path d="M24 44 L24 14 Q24 6 30 4 Q36 6 36 14 L36 24"/>
    <line x1="18" y1="44" x2="18" y2="16 M30" y1="44" x2="30" y2="16"/>
  </g>
  <rect x="0" y="0" width="48" height="48" fill="url(#px)" mask="url(#m)" pointer-events="none"/>
</svg>