<svg xmlns="http://www.w3.org/2000/svg" viewBox="0 0 48 48">
  <defs>
    <pattern id="px" width="4" height="4" patternUnits="userSpaceOnUse">
      <rect width="4" height="4" fill="none"/>
      <rect width="2" height="2" fill="rgba(0,0,0,0.2)"/>
    </pattern>
    <mask id="m">
      <rect x="0" y="0" width="48" height="48" fill="black"/>
      <g fill="none" stroke="white" stroke-width="6" stroke-linecap="square" stroke-linejoin="miter" shape-rendering="crispEdges">
    <circle cx="24" cy="24" r="10"/>
    <path d="M24 14 Q24 6 20 4 Q24 8 28 4 Q24 6 24 14"/>
    <line x1="24" y1="14" x2="24" y2="6"/>
    <line x1="16" y1="24" x2="32" y2="24"/>
      </g>
    </mask>
  </defs>
  <g fill="none" stroke="#e0bed1" stroke-width="6" stroke-linecap="square" stroke-linejoin="miter" shape-rendering="crispEdges">
    <circle cx="24" cy="24" r="10"/>
    <path d="M24 14 Q24 6 20 4 Q24 8 28 4 Q24 6 24 14"/>
    <line x1="24" y1="14" x2="24" y2="6"/>
    <line x1="16" y1="24" x2="32" y2="24"/>
  </g>
  <rect x="0" y="0" width="48" height="48" fill="url(#px)" mask="url(#m)" pointer-events="none"/>
</svg>