<svg xmlns="http://www.w3.org/2000/svg" viewBox="0 0 48 48">
  <defs>
    <pattern id="px" width="4" height="4" patternUnits="userSpaceOnUse">
      <rect width="4" height="4" fill="none"/>
      <rect width="2" height="2" fill="rgba(0,0,0,0.2)"/>
    </pattern>
    <mask id="m">
      <rect x="0" y="0" width="48" height="48" fill="black"/>
      <g fill="none" stroke="white" stroke-width="6" stroke-linecap="square" stroke-linejoin="miter" shape-rendering="crispEdges">
<circle cx="24" cy="24" r="13"/>
    <circle cx="19" cy="22" r="2"/>
    <circle cx="29" cy="22" r="2"/>
    <path d="M19 30 Q24 34 29 30"/>
    <line x1="11" y1="24" x2="5" y2="24"/>
    <line x1="37" y1="24" x2="43" y2="24"/>
    <line x1="24" y1="11" x2="24" y2="5"/>
    <line x1="24" y1="37" x2="24" y2="43"/>
    <line x1="13" y1="13" x2="9" y2="9"/>
    <line x1="35" y1="13" x2="39" y2="9"/>
    <line x1="13" y1="35" x2="9" y2="39"/>
    <line x1="35" y1="35" x2="39" y2="39"/>
      </g>
    </mask>
  </defs>
  <g fill="none" stroke="#2E7D32" stroke-width="6" stroke-linecap="square" stroke-linejoin="miter" shape-rendering="crispEdges">
<circle cx="24" cy="24" r="13"/>
    <circle cx="19" cy="22" r="2"/>
    <circle cx="29" cy="22" r="2"/>
    <path d="M19 30 Q24 34 29 30"/>
    <line x1="11" y1="24" x2="5" y2="24"/>
    <line x1="37" y1="24" x2="43" y2="24"/>
    <line x1="24" y1="11" x2="24" y2="5"/>
    <line x1="24" y1="37" x2="24" y2="43"/>
    <line x1="13" y1="13" x2="9" y2="9"/>
    <line x1="35" y1="13" x2="39" y2="9"/>
    <line x1="13" y1="35" x2="9" y2="39"/>
    <line x1="35" y1="35" x2="39" y2="39"/>
  </g>
  <rect x="0" y="0" width="48" height="48" fill="url(#px)" mask="url(#m)" pointer-events="none"/>
</svg>