<svg xmlns="http://www.w3.org/2000/svg" viewBox="0 0 48 48">
  <defs>
    <pattern id="px" width="4" height="4" patternUnits="userSpaceOnUse">
      <rect width="4" height="4" fill="none"/>
      <rect width="2" height="2" fill="rgba(0,0,0,0.2)"/>
    </pattern>
    <mask id="m">
      <rect x="0" y="0" width="48" height="48" fill="black"/>
      <g fill="none" stroke="white" stroke-width="6" stroke-linecap="square" stroke-linejoin="miter" shape-rendering="crispEdges">
    <ellipse cx="24" cy="24" rx="10" ry="6"/>
    <circle cx="24" cy="20" r="4"/>
    <circle cx="22" cy="18" r="1.5"/>
    <circle cx="26" cy="18" r="1.5"/>
    <path d="M34 22 Q40 20 42 22 Q40 24 34 24"/>
    <path d="M20 28 L20 42 M28 28 L28 42"/>
      </g>
    </mask>
  </defs>
  <g fill="none" stroke="#dab8e3" stroke-width="6" stroke-linecap="square" stroke-linejoin="miter" shape-rendering="crispEdges">
    <ellipse cx="24" cy="24" rx="10" ry="6"/>
    <circle cx="24" cy="20" r="4"/>
    <circle cx="22" cy="18" r="1.5"/>
    <circle cx="26" cy="18" r="1.5"/>
    <path d="M34 22 Q40 20 42 22 Q40 24 34 24"/>
    <path d="M20 28 L20 42 M28 28 L28 42"/>
  </g>
  <rect x="0" y="0" width="48" height="48" fill="url(#px)" mask="url(#m)" pointer-events="none"/>
</svg>