<svg xmlns="http://www.w3.org/2000/svg" viewBox="0 0 48 48">
  <defs>
    <pattern id="px" width="4" height="4" patternUnits="userSpaceOnUse">
      <rect width="4" height="4" fill="none"/>
      <rect width="2" height="2" fill="rgba(0,0,0,0.2)"/>
    </pattern>
    <mask id="m">
      <rect x="0" y="0" width="48" height="48" fill="black"/>
      <g fill="none" stroke="white" stroke-width="6" stroke-linecap="square" stroke-linejoin="miter" shape-rendering="crispEdges">
    <rect x="6" y="4" width="28" height="40" rx="2"/>
    <line x1="10" y1="12" x2="30" y2="12 M10 18 L30 18 M10 24 L30 24 M10 30 L30 30 M10 36 L30 36"/>
    <circle cx="24" cy="8" r="2" fill="currentColor"/>
      </g>
    </mask>
  </defs>
  <g fill="none" stroke="#bfb8dc" stroke-width="6" stroke-linecap="square" stroke-linejoin="miter" shape-rendering="crispEdges">
    <rect x="6" y="4" width="28" height="40" rx="2"/>
    <line x1="10" y1="12" x2="30" y2="12 M10 18 L30 18 M10 24 L30 24 M10 30 L30 30 M10 36 L30 36"/>
    <circle cx="24" cy="8" r="2" fill="currentColor"/>
  </g>
  <rect x="0" y="0" width="48" height="48" fill="url(#px)" mask="url(#m)" pointer-events="none"/>
</svg>