<svg xmlns="http://www.w3.org/2000/svg" viewBox="0 0 48 48">
  <defs>
    <pattern id="px" width="4" height="4" patternUnits="userSpaceOnUse">
      <rect width="4" height="4" fill="none"/>
      <rect width="2" height="2" fill="rgba(0,0,0,0.2)"/>
    </pattern>
    <mask id="m">
      <rect x="0" y="0" width="48" height="48" fill="black"/>
      <g fill="none" stroke="white" stroke-width="6" stroke-linecap="square" stroke-linejoin="miter" shape-rendering="crispEdges">
    <rect x="6" y="8" width="36" height="30" rx="2"/>
    <rect x="10" y="12" width="28" height="22" rx="1"/>
    <circle cx="20" cy="20" r="4" fill="currentColor"/>
    <circle cx="24" cy="28" r="3" fill="currentColor"/>
    <circle cx="32" cy="22" r="2" fill="currentColor"/>
    <rect x="6" y="38" width="36" height="4" rx="2"/>
      </g>
    </mask>
  </defs>
  <g fill="none" stroke="#c0a1b1" stroke-width="6" stroke-linecap="square" stroke-linejoin="miter" shape-rendering="crispEdges">
    <rect x="6" y="8" width="36" height="30" rx="2"/>
    <rect x="10" y="12" width="28" height="22" rx="1"/>
    <circle cx="20" cy="20" r="4" fill="currentColor"/>
    <circle cx="24" cy="28" r="3" fill="currentColor"/>
    <circle cx="32" cy="22" r="2" fill="currentColor"/>
    <rect x="6" y="38" width="36" height="4" rx="2"/>
  </g>
  <rect x="0" y="0" width="48" height="48" fill="url(#px)" mask="url(#m)" pointer-events="none"/>
</svg>