<svg xmlns="http://www.w3.org/2000/svg" viewBox="0 0 48 48">
  <defs>
    <pattern id="px" width="4" height="4" patternUnits="userSpaceOnUse">
      <rect width="4" height="4" fill="none"/>
      <rect width="2" height="2" fill="rgba(0,0,0,0.2)"/>
    </pattern>
    <mask id="m">
      <rect x="0" y="0" width="48" height="48" fill="black"/>
      <g fill="none" stroke="white" stroke-width="6" stroke-linecap="square" stroke-linejoin="miter" shape-rendering="crispEdges">
<line x1="24" y1="10" x2="24" y2="42"/><path d="M24 10 Q14 6 8 12"/><path d="M24 10 Q34 6 40 12"/><path d="M24 14 Q12 12 6 18"/><path d="M24 14 Q36 12 42 18"/><path d="M24 18 Q14 18 8 24"/><path d="M24 18 Q34 18 40 24"/><circle cx="24" cy="10" r="2"/>
      </g>
    </mask>
  </defs>
  <g fill="none" stroke="#548c89" stroke-width="6" stroke-linecap="square" stroke-linejoin="miter" shape-rendering="crispEdges">
<line x1="24" y1="10" x2="24" y2="42"/><path d="M24 10 Q14 6 8 12"/><path d="M24 10 Q34 6 40 12"/><path d="M24 14 Q12 12 6 18"/><path d="M24 14 Q36 12 42 18"/><path d="M24 18 Q14 18 8 24"/><path d="M24 18 Q34 18 40 24"/><circle cx="24" cy="10" r="2"/>
  </g>
  <rect x="0" y="0" width="48" height="48" fill="url(#px)" mask="url(#m)" pointer-events="none"/>
</svg>