<svg xmlns="http://www.w3.org/2000/svg" viewBox="0 0 48 48">
  <defs>
    <pattern id="px" width="4" height="4" patternUnits="userSpaceOnUse">
      <rect width="4" height="4" fill="none"/>
      <rect width="2" height="2" fill="rgba(0,0,0,0.2)"/>
    </pattern>
    <mask id="m">
      <rect x="0" y="0" width="48" height="48" fill="black"/>
      <g fill="none" stroke="white" stroke-width="6" stroke-linecap="square" stroke-linejoin="miter" shape-rendering="crispEdges">
    <ellipse cx="24" cy="30" rx="16" ry="6"/>
    <path d="M8 30 Q8 18 24 18 Q40 18 40 30"/>
    <line x1="40" y1="28" x2="44" y2="16"/>
    <rect x="42" y="14" width="4" height="6" rx="1"/>
      </g>
    </mask>
  </defs>
  <g fill="none" stroke="#adbbc4" stroke-width="6" stroke-linecap="square" stroke-linejoin="miter" shape-rendering="crispEdges">
    <ellipse cx="24" cy="30" rx="16" ry="6"/>
    <path d="M8 30 Q8 18 24 18 Q40 18 40 30"/>
    <line x1="40" y1="28" x2="44" y2="16"/>
    <rect x="42" y="14" width="4" height="6" rx="1"/>
  </g>
  <rect x="0" y="0" width="48" height="48" fill="url(#px)" mask="url(#m)" pointer-events="none"/>
</svg>