<svg xmlns="http://www.w3.org/2000/svg" viewBox="0 0 48 48">
  <defs>
    <pattern id="px" width="4" height="4" patternUnits="userSpaceOnUse">
      <rect width="4" height="4" fill="none"/>
      <rect width="2" height="2" fill="rgba(0,0,0,0.2)"/>
    </pattern>
    <mask id="m">
      <rect x="0" y="0" width="48" height="48" fill="black"/>
      <g fill="none" stroke="white" stroke-width="6" stroke-linecap="square" stroke-linejoin="miter" shape-rendering="crispEdges">
    <path d="M14 10 L14 36 Q14 42 20 42 Q26 42 26 36 L26 16 Q26 10 32 10 Q38 10 38 16 L38 30" stroke-width="2.5" fill="none"/>
      </g>
    </mask>
  </defs>
  <g fill="none" stroke="#a1cec4" stroke-width="6" stroke-linecap="square" stroke-linejoin="miter" shape-rendering="crispEdges">
    <path d="M14 10 L14 36 Q14 42 20 42 Q26 42 26 36 L26 16 Q26 10 32 10 Q38 10 38 16 L38 30" stroke-width="2.5" fill="none"/>
  </g>
  <rect x="0" y="0" width="48" height="48" fill="url(#px)" mask="url(#m)" pointer-events="none"/>
</svg>