<svg xmlns="http://www.w3.org/2000/svg" viewBox="0 0 48 48">
  <defs>
    <pattern id="px" width="4" height="4" patternUnits="userSpaceOnUse">
      <rect width="4" height="4" fill="none"/>
      <rect width="2" height="2" fill="rgba(0,0,0,0.2)"/>
    </pattern>
    <mask id="m">
      <rect x="0" y="0" width="48" height="48" fill="black"/>
      <g fill="none" stroke="white" stroke-width="6" stroke-linecap="square" stroke-linejoin="miter" shape-rendering="crispEdges">
    <ellipse cx="24" cy="24" rx="8" ry="6"/>
    <circle cx="24" cy="16" r="5"/>
    <circle cx="22" cy="14" r="1.5"/>
    <path d="M28 16 Q34 12 36 16"/>
    <path d="M24 24 L24 28 M20 28 L28 28"/>
    <path d="M16 30 Q10 36 8 42 M16 30 Q8 38 6 42"/>
    <line x1="24" y1="28" x2="24" y2="44"/>
      </g>
    </mask>
  </defs>
  <g fill="none" stroke="#b9a5e2" stroke-width="6" stroke-linecap="square" stroke-linejoin="miter" shape-rendering="crispEdges">
    <ellipse cx="24" cy="24" rx="8" ry="6"/>
    <circle cx="24" cy="16" r="5"/>
    <circle cx="22" cy="14" r="1.5"/>
    <path d="M28 16 Q34 12 36 16"/>
    <path d="M24 24 L24 28 M20 28 L28 28"/>
    <path d="M16 30 Q10 36 8 42 M16 30 Q8 38 6 42"/>
    <line x1="24" y1="28" x2="24" y2="44"/>
  </g>
  <rect x="0" y="0" width="48" height="48" fill="url(#px)" mask="url(#m)" pointer-events="none"/>
</svg>