<svg xmlns="http://www.w3.org/2000/svg" viewBox="0 0 48 48">
  <defs>
    <pattern id="px" width="4" height="4" patternUnits="userSpaceOnUse">
      <rect width="4" height="4" fill="none"/>
      <rect width="2" height="2" fill="rgba(0,0,0,0.2)"/>
    </pattern>
    <mask id="m">
      <rect x="0" y="0" width="48" height="48" fill="black"/>
      <g fill="none" stroke="white" stroke-width="6" stroke-linecap="square" stroke-linejoin="miter" shape-rendering="crispEdges">
    <polygon points="24,4 20,16 16,20 16,36 20,40 28,40 32,36 32,20 28,16"/>
    <line x1="24" y1="4" x2="24" y2="2"/>
    <path d="M18 24 L30 24 M16 30 L32 30"/>
      </g>
    </mask>
  </defs>
  <g fill="none" stroke="#b2c1e2" stroke-width="6" stroke-linecap="square" stroke-linejoin="miter" shape-rendering="crispEdges">
    <polygon points="24,4 20,16 16,20 16,36 20,40 28,40 32,36 32,20 28,16"/>
    <line x1="24" y1="4" x2="24" y2="2"/>
    <path d="M18 24 L30 24 M16 30 L32 30"/>
  </g>
  <rect x="0" y="0" width="48" height="48" fill="url(#px)" mask="url(#m)" pointer-events="none"/>
</svg>