<svg xmlns="http://www.w3.org/2000/svg" viewBox="0 0 48 48">
  <defs>
    <pattern id="px" width="4" height="4" patternUnits="userSpaceOnUse">
      <rect width="4" height="4" fill="none"/>
      <rect width="2" height="2" fill="rgba(0,0,0,0.2)"/>
    </pattern>
    <mask id="m">
      <rect x="0" y="0" width="48" height="48" fill="black"/>
      <g fill="none" stroke="white" stroke-width="6" stroke-linecap="square" stroke-linejoin="miter" shape-rendering="crispEdges">
    <rect x="8" y="16" width="16" height="22" rx="4"/>
    <polygon points="24,16 42,6 38,18"/>
    <line x1="34" y1="8" x2="44" y2="4 M32 12 L42 8 M28 14 L38 10"/>
    <circle cx="16" cy="24" r="2" fill="currentColor"/>
    <circle cx="20" cy="30" r="2" fill="currentColor"/>
      </g>
    </mask>
  </defs>
  <g fill="none" stroke="#9fc4ba" stroke-width="6" stroke-linecap="square" stroke-linejoin="miter" shape-rendering="crispEdges">
    <rect x="8" y="16" width="16" height="22" rx="4"/>
    <polygon points="24,16 42,6 38,18"/>
    <line x1="34" y1="8" x2="44" y2="4 M32 12 L42 8 M28 14 L38 10"/>
    <circle cx="16" cy="24" r="2" fill="currentColor"/>
    <circle cx="20" cy="30" r="2" fill="currentColor"/>
  </g>
  <rect x="0" y="0" width="48" height="48" fill="url(#px)" mask="url(#m)" pointer-events="none"/>
</svg>