<svg xmlns="http://www.w3.org/2000/svg" viewBox="0 0 48 48">
  <defs>
    <pattern id="px" width="4" height="4" patternUnits="userSpaceOnUse">
      <rect width="4" height="4" fill="none"/>
      <rect width="2" height="2" fill="rgba(0,0,0,0.2)"/>
    </pattern>
    <mask id="m">
      <rect x="0" y="0" width="48" height="48" fill="black"/>
      <g fill="none" stroke="white" stroke-width="6" stroke-linecap="square" stroke-linejoin="miter" shape-rendering="crispEdges">
<ellipse cx="24" cy="28" rx="8" ry="12"/><circle cx="24" cy="10" r="5"/><circle cx="22" cy="8" r="1.5"/><path d="M12 22 Q4 12 8 4"/><path d="M36 22 Q44 12 40 4"/><path d="M16 26 Q6 18 12 8"/><path d="M32 26 Q42 18 36 8"/>
      </g>
    </mask>
  </defs>
  <g fill="none" stroke="#a9ad64" stroke-width="6" stroke-linecap="square" stroke-linejoin="miter" shape-rendering="crispEdges">
<ellipse cx="24" cy="28" rx="8" ry="12"/><circle cx="24" cy="10" r="5"/><circle cx="22" cy="8" r="1.5"/><path d="M12 22 Q4 12 8 4"/><path d="M36 22 Q44 12 40 4"/><path d="M16 26 Q6 18 12 8"/><path d="M32 26 Q42 18 36 8"/>
  </g>
  <rect x="0" y="0" width="48" height="48" fill="url(#px)" mask="url(#m)" pointer-events="none"/>
</svg>