<svg xmlns="http://www.w3.org/2000/svg" viewBox="0 0 48 48">
  <defs>
    <pattern id="px" width="4" height="4" patternUnits="userSpaceOnUse">
      <rect width="4" height="4" fill="none"/>
      <rect width="2" height="2" fill="rgba(0,0,0,0.2)"/>
    </pattern>
    <mask id="m">
      <rect x="0" y="0" width="48" height="48" fill="black"/>
      <g fill="none" stroke="white" stroke-width="6" stroke-linecap="square" stroke-linejoin="miter" shape-rendering="crispEdges">
    <path d="M24 16 Q24 6 12 8 Q6 10 8 18 Q10 28 16 34 Q20 38 24 38 Q28 38 32 34 Q38 28 40 18 Q42 10 36 8 Q24 6 24 16 Z"/>
    <path d="M24 16 Q24 10 20 6 Q24 8 28 6 Q24 10 24 16"/>
    <line x1="24" y1="16" x2="24" y2="8"/>
      </g>
    </mask>
  </defs>
  <g fill="none" stroke="#c9a9b7" stroke-width="6" stroke-linecap="square" stroke-linejoin="miter" shape-rendering="crispEdges">
    <path d="M24 16 Q24 6 12 8 Q6 10 8 18 Q10 28 16 34 Q20 38 24 38 Q28 38 32 34 Q38 28 40 18 Q42 10 36 8 Q24 6 24 16 Z"/>
    <path d="M24 16 Q24 10 20 6 Q24 8 28 6 Q24 10 24 16"/>
    <line x1="24" y1="16" x2="24" y2="8"/>
  </g>
  <rect x="0" y="0" width="48" height="48" fill="url(#px)" mask="url(#m)" pointer-events="none"/>
</svg>