<svg xmlns="http://www.w3.org/2000/svg" viewBox="0 0 48 48">
  <defs>
    <pattern id="px" width="4" height="4" patternUnits="userSpaceOnUse">
      <rect width="4" height="4" fill="none"/>
      <rect width="2" height="2" fill="rgba(0,0,0,0.2)"/>
    </pattern>
    <mask id="m">
      <rect x="0" y="0" width="48" height="48" fill="black"/>
      <g fill="none" stroke="white" stroke-width="6" stroke-linecap="square" stroke-linejoin="miter" shape-rendering="crispEdges">
<path d="M12 36 Q12 6 24 6 Q36 6 36 36 Z"/>
    <path d="M8 34 Q24 28 40 34"/>
    <line x1="16" y1="6" x2="14" y2="14"/>
    <line x1="32" y1="6" x2="34" y2="14"/>
    <circle cx="18" cy="22" r="2"/><circle cx="30" cy="22" r="2"/>
    <circle cx="24" cy="28" r="1.5"/>
      </g>
    </mask>
  </defs>
  <g fill="none" stroke="#506677" stroke-width="6" stroke-linecap="square" stroke-linejoin="miter" shape-rendering="crispEdges">
<path d="M12 36 Q12 6 24 6 Q36 6 36 36 Z"/>
    <path d="M8 34 Q24 28 40 34"/>
    <line x1="16" y1="6" x2="14" y2="14"/>
    <line x1="32" y1="6" x2="34" y2="14"/>
    <circle cx="18" cy="22" r="2"/><circle cx="30" cy="22" r="2"/>
    <circle cx="24" cy="28" r="1.5"/>
  </g>
  <rect x="0" y="0" width="48" height="48" fill="url(#px)" mask="url(#m)" pointer-events="none"/>
</svg>