<svg xmlns="http://www.w3.org/2000/svg" viewBox="0 0 48 48">
  <defs>
    <pattern id="px" width="4" height="4" patternUnits="userSpaceOnUse">
      <rect width="4" height="4" fill="none"/>
      <rect width="2" height="2" fill="rgba(0,0,0,0.2)"/>
    </pattern>
    <mask id="m">
      <rect x="0" y="0" width="48" height="48" fill="black"/>
      <g fill="none" stroke="white" stroke-width="6" stroke-linecap="square" stroke-linejoin="miter" shape-rendering="crispEdges">
    <rect x="2" y="20" width="44" height="18" rx="4"/>
    <path d="M6 20 L14 10 L26 10 L26 20"/>
    <rect x="28" y="12" width="14" height="8" rx="2"/>
    <circle cx="14" cy="38" r="5"/>
    <circle cx="34" cy="38" r="5"/>
      </g>
    </mask>
  </defs>
  <g fill="none" stroke="#c6b2ac" stroke-width="6" stroke-linecap="square" stroke-linejoin="miter" shape-rendering="crispEdges">
    <rect x="2" y="20" width="44" height="18" rx="4"/>
    <path d="M6 20 L14 10 L26 10 L26 20"/>
    <rect x="28" y="12" width="14" height="8" rx="2"/>
    <circle cx="14" cy="38" r="5"/>
    <circle cx="34" cy="38" r="5"/>
  </g>
  <rect x="0" y="0" width="48" height="48" fill="url(#px)" mask="url(#m)" pointer-events="none"/>
</svg>