<svg xmlns="http://www.w3.org/2000/svg" viewBox="0 0 48 48">
  <defs>
    <pattern id="px" width="4" height="4" patternUnits="userSpaceOnUse">
      <rect width="4" height="4" fill="none"/>
      <rect width="2" height="2" fill="rgba(0,0,0,0.2)"/>
    </pattern>
    <mask id="m">
      <rect x="0" y="0" width="48" height="48" fill="black"/>
      <g fill="none" stroke="white" stroke-width="6" stroke-linecap="square" stroke-linejoin="miter" shape-rendering="crispEdges">
    <ellipse cx="24" cy="26" rx="12" ry="9"/>
    <ellipse cx="24" cy="18" rx="6" ry="5"/>
    <circle cx="20" cy="16" r="2"/>
    <circle cx="28" cy="16" r="2"/>
    <ellipse cx="36" cy="28" rx="4" ry="3"/>
    <path d="M14 38 L14 44 L34 44 L34 38"/>
    <circle cx="24" cy="26" r="3" fill="currentColor"/>
      </g>
    </mask>
  </defs>
  <g fill="none" stroke="#a1c7d2" stroke-width="6" stroke-linecap="square" stroke-linejoin="miter" shape-rendering="crispEdges">
    <ellipse cx="24" cy="26" rx="12" ry="9"/>
    <ellipse cx="24" cy="18" rx="6" ry="5"/>
    <circle cx="20" cy="16" r="2"/>
    <circle cx="28" cy="16" r="2"/>
    <ellipse cx="36" cy="28" rx="4" ry="3"/>
    <path d="M14 38 L14 44 L34 44 L34 38"/>
    <circle cx="24" cy="26" r="3" fill="currentColor"/>
  </g>
  <rect x="0" y="0" width="48" height="48" fill="url(#px)" mask="url(#m)" pointer-events="none"/>
</svg>