<svg xmlns="http://www.w3.org/2000/svg" viewBox="0 0 48 48">
  <defs>
    <pattern id="px" width="4" height="4" patternUnits="userSpaceOnUse">
      <rect width="4" height="4" fill="none"/>
      <rect width="2" height="2" fill="rgba(0,0,0,0.2)"/>
    </pattern>
    <mask id="m">
      <rect x="0" y="0" width="48" height="48" fill="black"/>
      <g fill="none" stroke="white" stroke-width="6" stroke-linecap="square" stroke-linejoin="miter" shape-rendering="crispEdges">
    <ellipse cx="24" cy="24" rx="12" ry="16"/>
    <rect x="20" y="4" width="8" height="6" rx="2"/>
    <line x1="24" y1="10" x2="24" y2="12"/>
    <line x1="12" y1="22" x2="36" y2="22 M12 30 L36 30"/>
    <circle cx="18" cy="24" r="2" fill="currentColor"/>
    <circle cx="30" cy="24" r="2" fill="currentColor"/>
      </g>
    </mask>
  </defs>
  <g fill="none" stroke="#b4a6c3" stroke-width="6" stroke-linecap="square" stroke-linejoin="miter" shape-rendering="crispEdges">
    <ellipse cx="24" cy="24" rx="12" ry="16"/>
    <rect x="20" y="4" width="8" height="6" rx="2"/>
    <line x1="24" y1="10" x2="24" y2="12"/>
    <line x1="12" y1="22" x2="36" y2="22 M12 30 L36 30"/>
    <circle cx="18" cy="24" r="2" fill="currentColor"/>
    <circle cx="30" cy="24" r="2" fill="currentColor"/>
  </g>
  <rect x="0" y="0" width="48" height="48" fill="url(#px)" mask="url(#m)" pointer-events="none"/>
</svg>