<svg xmlns="http://www.w3.org/2000/svg" viewBox="0 0 48 48">
  <defs>
    <pattern id="px" width="4" height="4" patternUnits="userSpaceOnUse">
      <rect width="4" height="4" fill="none"/>
      <rect width="2" height="2" fill="rgba(0,0,0,0.2)"/>
    </pattern>
    <mask id="m">
      <rect x="0" y="0" width="48" height="48" fill="black"/>
      <g fill="none" stroke="white" stroke-width="6" stroke-linecap="square" stroke-linejoin="miter" shape-rendering="crispEdges">
<path d="M12 30 Q12 10 24 10 Q36 10 36 30 L36 38 L12 38 Z"/><path d="M36 18 L42 14 L42 22 Z"/><circle cx="24" cy="22" r="4"/><circle cx="24" cy="22" r="2"/>
      </g>
    </mask>
  </defs>
  <g fill="none" stroke="#6596a0" stroke-width="6" stroke-linecap="square" stroke-linejoin="miter" shape-rendering="crispEdges">
<path d="M12 30 Q12 10 24 10 Q36 10 36 30 L36 38 L12 38 Z"/><path d="M36 18 L42 14 L42 22 Z"/><circle cx="24" cy="22" r="4"/><circle cx="24" cy="22" r="2"/>
  </g>
  <rect x="0" y="0" width="48" height="48" fill="url(#px)" mask="url(#m)" pointer-events="none"/>
</svg>