<svg xmlns="http://www.w3.org/2000/svg" viewBox="0 0 48 48">
  <defs>
    <pattern id="px" width="4" height="4" patternUnits="userSpaceOnUse">
      <rect width="4" height="4" fill="none"/>
      <rect width="2" height="2" fill="rgba(0,0,0,0.2)"/>
    </pattern>
    <mask id="m">
      <rect x="0" y="0" width="48" height="48" fill="black"/>
      <g fill="none" stroke="white" stroke-width="6" stroke-linecap="square" stroke-linejoin="miter" shape-rendering="crispEdges">
    <rect x="16" y="4" width="16" height="10" rx="2"/>
    <rect x="18" y="14" width="12" height="20" rx="2"/>
    <line x1="18" y1="14" x2="18" y2="4 M30 14 L30 4"/>
    <line x1="22" y1="28" x2="26" y2="28 M22 32 L26 32"/>
      </g>
    </mask>
  </defs>
  <g fill="none" stroke="#b0cfcd" stroke-width="6" stroke-linecap="square" stroke-linejoin="miter" shape-rendering="crispEdges">
    <rect x="16" y="4" width="16" height="10" rx="2"/>
    <rect x="18" y="14" width="12" height="20" rx="2"/>
    <line x1="18" y1="14" x2="18" y2="4 M30 14 L30 4"/>
    <line x1="22" y1="28" x2="26" y2="28 M22 32 L26 32"/>
  </g>
  <rect x="0" y="0" width="48" height="48" fill="url(#px)" mask="url(#m)" pointer-events="none"/>
</svg>