<svg xmlns="http://www.w3.org/2000/svg" viewBox="0 0 48 48">
  <defs>
    <pattern id="px" width="4" height="4" patternUnits="userSpaceOnUse">
      <rect width="4" height="4" fill="none"/>
      <rect width="2" height="2" fill="rgba(0,0,0,0.2)"/>
    </pattern>
    <mask id="m">
      <rect x="0" y="0" width="48" height="48" fill="black"/>
      <g fill="none" stroke="white" stroke-width="6" stroke-linecap="square" stroke-linejoin="miter" shape-rendering="crispEdges">
    <rect x="8" y="6" width="32" height="22" rx="4"/>
    <path d="M8 28 L16 38 L40 38 L32 28 Z"/>
    <line x1="8" y1="6" x2="8" y2="28 M40 6 L40 28"/>
    <line x1="12" y1="14" x2="36" y2="14 M12 20 L36 20"/>
      </g>
    </mask>
  </defs>
  <g fill="none" stroke="#bac5d7" stroke-width="6" stroke-linecap="square" stroke-linejoin="miter" shape-rendering="crispEdges">
    <rect x="8" y="6" width="32" height="22" rx="4"/>
    <path d="M8 28 L16 38 L40 38 L32 28 Z"/>
    <line x1="8" y1="6" x2="8" y2="28 M40 6 L40 28"/>
    <line x1="12" y1="14" x2="36" y2="14 M12 20 L36 20"/>
  </g>
  <rect x="0" y="0" width="48" height="48" fill="url(#px)" mask="url(#m)" pointer-events="none"/>
</svg>