<svg xmlns="http://www.w3.org/2000/svg" viewBox="0 0 48 48">
  <defs>
    <pattern id="px" width="4" height="4" patternUnits="userSpaceOnUse">
      <rect width="4" height="4" fill="none"/>
      <rect width="2" height="2" fill="rgba(0,0,0,0.2)"/>
    </pattern>
    <mask id="m">
      <rect x="0" y="0" width="48" height="48" fill="black"/>
      <g fill="none" stroke="white" stroke-width="6" stroke-linecap="square" stroke-linejoin="miter" shape-rendering="crispEdges">
    <path d="M12 32 Q6 20 12 12 Q18 4 24 10 Q30 16 22 22 Q14 28 20 34 Q26 40 30 34 Q34 28 28 22" stroke-width="4" fill="none"/>
    <circle cx="24" cy="24" r="2" fill="currentColor"/>
      </g>
    </mask>
  </defs>
  <g fill="none" stroke="#ddd5a5" stroke-width="6" stroke-linecap="square" stroke-linejoin="miter" shape-rendering="crispEdges">
    <path d="M12 32 Q6 20 12 12 Q18 4 24 10 Q30 16 22 22 Q14 28 20 34 Q26 40 30 34 Q34 28 28 22" stroke-width="4" fill="none"/>
    <circle cx="24" cy="24" r="2" fill="currentColor"/>
  </g>
  <rect x="0" y="0" width="48" height="48" fill="url(#px)" mask="url(#m)" pointer-events="none"/>
</svg>