<svg xmlns="http://www.w3.org/2000/svg" viewBox="0 0 48 48">
  <defs>
    <pattern id="px" width="4" height="4" patternUnits="userSpaceOnUse">
      <rect width="4" height="4" fill="none"/>
      <rect width="2" height="2" fill="rgba(0,0,0,0.2)"/>
    </pattern>
    <mask id="m">
      <rect x="0" y="0" width="48" height="48" fill="black"/>
      <g fill="none" stroke="white" stroke-width="6" stroke-linecap="square" stroke-linejoin="miter" shape-rendering="crispEdges">
    <rect x="8" y="8" width="32" height="32" rx="4"/>
    <rect x="14" y="14" width="20" height="20" rx="4"/>
    <line x1="4" y1="24" x2="8" y2="24 M40 24 L44 24 M24 4 L24 8 M24 40 L24 44"/>
      </g>
    </mask>
  </defs>
  <g fill="none" stroke="#a3b2c5" stroke-width="6" stroke-linecap="square" stroke-linejoin="miter" shape-rendering="crispEdges">
    <rect x="8" y="8" width="32" height="32" rx="4"/>
    <rect x="14" y="14" width="20" height="20" rx="4"/>
    <line x1="4" y1="24" x2="8" y2="24 M40 24 L44 24 M24 4 L24 8 M24 40 L24 44"/>
  </g>
  <rect x="0" y="0" width="48" height="48" fill="url(#px)" mask="url(#m)" pointer-events="none"/>
</svg>