<svg xmlns="http://www.w3.org/2000/svg" viewBox="0 0 48 48">
  <defs>
    <pattern id="px" width="4" height="4" patternUnits="userSpaceOnUse">
      <rect width="4" height="4" fill="none"/>
      <rect width="2" height="2" fill="rgba(0,0,0,0.2)"/>
    </pattern>
    <mask id="m">
      <rect x="0" y="0" width="48" height="48" fill="black"/>
      <g fill="none" stroke="white" stroke-width="6" stroke-linecap="square" stroke-linejoin="miter" shape-rendering="crispEdges">
<path d="M12 16 L24 28 M36 16 L24 28"/><circle cx="24" cy="28" r="3"/><path d="M12 16 L8 10 M36 16 L40 10"/><line x1="8" y1="10" x2="10" y2="6"/><line x1="40" y1="10" x2="38" y2="6"/><line x1="18" y1="28" x2="24" y2="42"/><line x1="30" y1="28" x2="24" y2="42"/>
      </g>
    </mask>
  </defs>
  <g fill="none" stroke="#4a3a96" stroke-width="6" stroke-linecap="square" stroke-linejoin="miter" shape-rendering="crispEdges">
<path d="M12 16 L24 28 M36 16 L24 28"/><circle cx="24" cy="28" r="3"/><path d="M12 16 L8 10 M36 16 L40 10"/><line x1="8" y1="10" x2="10" y2="6"/><line x1="40" y1="10" x2="38" y2="6"/><line x1="18" y1="28" x2="24" y2="42"/><line x1="30" y1="28" x2="24" y2="42"/>
  </g>
  <rect x="0" y="0" width="48" height="48" fill="url(#px)" mask="url(#m)" pointer-events="none"/>
</svg>