<svg xmlns="http://www.w3.org/2000/svg" viewBox="0 0 48 48">
  <defs>
    <pattern id="px" width="4" height="4" patternUnits="userSpaceOnUse">
      <rect width="4" height="4" fill="none"/>
      <rect width="2" height="2" fill="rgba(0,0,0,0.2)"/>
    </pattern>
    <mask id="m">
      <rect x="0" y="0" width="48" height="48" fill="black"/>
      <g fill="none" stroke="white" stroke-width="6" stroke-linecap="square" stroke-linejoin="miter" shape-rendering="crispEdges">
    <rect x="6" y="14" width="36" height="30" rx="4"/>
    <circle cx="24" cy="10" r="6"/>
    <path d="M18 10 L18 14 M30 10 L30 14"/>
    <line x1="10" y1="24" x2="38" y2="24 M10 32 L38 32"/>
      </g>
    </mask>
  </defs>
  <g fill="none" stroke="#ded6c3" stroke-width="6" stroke-linecap="square" stroke-linejoin="miter" shape-rendering="crispEdges">
    <rect x="6" y="14" width="36" height="30" rx="4"/>
    <circle cx="24" cy="10" r="6"/>
    <path d="M18 10 L18 14 M30 10 L30 14"/>
    <line x1="10" y1="24" x2="38" y2="24 M10 32 L38 32"/>
  </g>
  <rect x="0" y="0" width="48" height="48" fill="url(#px)" mask="url(#m)" pointer-events="none"/>
</svg>