<svg xmlns="http://www.w3.org/2000/svg" viewBox="0 0 48 48">
  <defs>
    <pattern id="px" width="4" height="4" patternUnits="userSpaceOnUse">
      <rect width="4" height="4" fill="none"/>
      <rect width="2" height="2" fill="rgba(0,0,0,0.2)"/>
    </pattern>
    <mask id="m">
      <rect x="0" y="0" width="48" height="48" fill="black"/>
      <g fill="none" stroke="white" stroke-width="6" stroke-linecap="square" stroke-linejoin="miter" shape-rendering="crispEdges">
<path d="M12 8 Q12 4 24 4 Q36 4 36 8 L36 34 Q36 40 30 38 L26 34 L22 38 L18 34 L14 38 Q12 40 12 34 Z"/>
    <circle cx="18" cy="20" r="3"/>
    <circle cx="30" cy="20" r="3"/>
      </g>
    </mask>
  </defs>
  <g fill="none" stroke="#46557f" stroke-width="6" stroke-linecap="square" stroke-linejoin="miter" shape-rendering="crispEdges">
<path d="M12 8 Q12 4 24 4 Q36 4 36 8 L36 34 Q36 40 30 38 L26 34 L22 38 L18 34 L14 38 Q12 40 12 34 Z"/>
    <circle cx="18" cy="20" r="3"/>
    <circle cx="30" cy="20" r="3"/>
  </g>
  <rect x="0" y="0" width="48" height="48" fill="url(#px)" mask="url(#m)" pointer-events="none"/>
</svg>