<svg xmlns="http://www.w3.org/2000/svg" viewBox="0 0 48 48">
  <defs>
    <pattern id="px" width="4" height="4" patternUnits="userSpaceOnUse">
      <rect width="4" height="4" fill="none"/>
      <rect width="2" height="2" fill="rgba(0,0,0,0.2)"/>
    </pattern>
    <mask id="m">
      <rect x="0" y="0" width="48" height="48" fill="black"/>
      <g fill="none" stroke="white" stroke-width="6" stroke-linecap="square" stroke-linejoin="miter" shape-rendering="crispEdges">
    <path d="M8 24 Q8 8 24 8 Q40 8 40 24 Q40 40 24 40 Q16 40 14 34 Q12 28 20 26 Q28 24 30 30 Q32 36 24 38"/>
    <circle cx="14" cy="34" r="2"/>
    <ellipse cx="30" cy="30" rx="2" ry="1"/>
      </g>
    </mask>
  </defs>
  <g fill="none" stroke="#a4dcc9" stroke-width="6" stroke-linecap="square" stroke-linejoin="miter" shape-rendering="crispEdges">
    <path d="M8 24 Q8 8 24 8 Q40 8 40 24 Q40 40 24 40 Q16 40 14 34 Q12 28 20 26 Q28 24 30 30 Q32 36 24 38"/>
    <circle cx="14" cy="34" r="2"/>
    <ellipse cx="30" cy="30" rx="2" ry="1"/>
  </g>
  <rect x="0" y="0" width="48" height="48" fill="url(#px)" mask="url(#m)" pointer-events="none"/>
</svg>