<svg xmlns="http://www.w3.org/2000/svg" viewBox="0 0 48 48">
  <defs>
    <pattern id="px" width="4" height="4" patternUnits="userSpaceOnUse">
      <rect width="4" height="4" fill="none"/>
      <rect width="2" height="2" fill="rgba(0,0,0,0.2)"/>
    </pattern>
    <mask id="m">
      <rect x="0" y="0" width="48" height="48" fill="black"/>
      <g fill="none" stroke="white" stroke-width="6" stroke-linecap="square" stroke-linejoin="miter" shape-rendering="crispEdges">
<path d="M6 26 Q6 14 18 14 L30 14 Q42 14 42 26 L42 34 L6 34 Z"/>
    <circle cx="14" cy="36" r="5"/>
    <circle cx="34" cy="36" r="5"/>
    <rect x="24" y="8" width="6" height="6" rx="2"/>
      </g>
    </mask>
  </defs>
  <g fill="none" stroke="#7d5da0" stroke-width="6" stroke-linecap="square" stroke-linejoin="miter" shape-rendering="crispEdges">
<path d="M6 26 Q6 14 18 14 L30 14 Q42 14 42 26 L42 34 L6 34 Z"/>
    <circle cx="14" cy="36" r="5"/>
    <circle cx="34" cy="36" r="5"/>
    <rect x="24" y="8" width="6" height="6" rx="2"/>
  </g>
  <rect x="0" y="0" width="48" height="48" fill="url(#px)" mask="url(#m)" pointer-events="none"/>
</svg>