<svg xmlns="http://www.w3.org/2000/svg" viewBox="0 0 48 48">
  <defs>
    <pattern id="px" width="4" height="4" patternUnits="userSpaceOnUse">
      <rect width="4" height="4" fill="none"/>
      <rect width="2" height="2" fill="rgba(0,0,0,0.2)"/>
    </pattern>
    <mask id="m">
      <rect x="0" y="0" width="48" height="48" fill="black"/>
      <g fill="none" stroke="white" stroke-width="6" stroke-linecap="square" stroke-linejoin="miter" shape-rendering="crispEdges">
    <path d="M6 24 A18 18 0 0 1 42 24"/>
    <path d="M12 24 A12 12 0 0 1 36 24"/>
    <path d="M18 24 A6 6 0 0 1 30 24"/>
    <line x1="24" y1="24" x2="40" y2="15"/>
    <circle cx="24" cy="24" r="1.5" fill="white"/>
    <circle cx="35" cy="16" r="2.5" fill="white"/>
      </g>
    </mask>
  </defs>
  <g fill="none" stroke="#26C6DA" stroke-width="6" stroke-linecap="square" stroke-linejoin="miter" shape-rendering="crispEdges">
    <path d="M6 24 A18 18 0 0 1 42 24"/>
    <path d="M12 24 A12 12 0 0 1 36 24"/>
    <path d="M18 24 A6 6 0 0 1 30 24"/>
    <line x1="24" y1="24" x2="40" y2="15"/>
    <circle cx="24" cy="24" r="1.5" fill="#26C6DA"/>
    <circle cx="35" cy="16" r="2.5" fill="#26C6DA"/>
  </g>
  <rect x="0" y="0" width="48" height="48" fill="url(#px)" mask="url(#m)" pointer-events="none"/>
</svg>