<svg xmlns="http://www.w3.org/2000/svg" viewBox="0 0 48 48">
  <defs>
    <pattern id="px" width="4" height="4" patternUnits="userSpaceOnUse">
      <rect width="4" height="4" fill="none"/>
      <rect width="2" height="2" fill="rgba(0,0,0,0.2)"/>
    </pattern>
    <mask id="m">
      <rect x="0" y="0" width="48" height="48" fill="black"/>
      <g fill="none" stroke="white" stroke-width="6" stroke-linecap="square" stroke-linejoin="miter" shape-rendering="crispEdges">
<path d="M6 30 Q6 14 24 14 Q42 14 42 30 Z"/>
    <circle cx="14" cy="32" r="4"/>
    <circle cx="34" cy="32" r="4"/>
    <line x1="24" y1="14" x2="24" y2="30"/>
    <polygon points="24,6 28,14 20,14"/>
      </g>
    </mask>
  </defs>
  <g fill="none" stroke="#b2713e" stroke-width="6" stroke-linecap="square" stroke-linejoin="miter" shape-rendering="crispEdges">
<path d="M6 30 Q6 14 24 14 Q42 14 42 30 Z"/>
    <circle cx="14" cy="32" r="4"/>
    <circle cx="34" cy="32" r="4"/>
    <line x1="24" y1="14" x2="24" y2="30"/>
    <polygon points="24,6 28,14 20,14"/>
  </g>
  <rect x="0" y="0" width="48" height="48" fill="url(#px)" mask="url(#m)" pointer-events="none"/>
</svg>