<svg xmlns="http://www.w3.org/2000/svg" viewBox="0 0 48 48">
  <defs>
    <pattern id="px" width="4" height="4" patternUnits="userSpaceOnUse">
      <rect width="4" height="4" fill="none"/>
      <rect width="2" height="2" fill="rgba(0,0,0,0.2)"/>
    </pattern>
    <mask id="m">
      <rect x="0" y="0" width="48" height="48" fill="black"/>
      <g fill="none" stroke="white" stroke-width="6" stroke-linecap="square" stroke-linejoin="miter" shape-rendering="crispEdges">
    <path d="M6 12 Q4 8 8 6 Q12 4 16 8 L36 28 Q38 32 34 36 Q30 40 26 36 L6 16 Q4 12 6 12"/>
    <line x1="10" y1="10" x2="30" y2="30 M14 8 L34 28"/>
      </g>
    </mask>
  </defs>
  <g fill="none" stroke="#b1aec7" stroke-width="6" stroke-linecap="square" stroke-linejoin="miter" shape-rendering="crispEdges">
    <path d="M6 12 Q4 8 8 6 Q12 4 16 8 L36 28 Q38 32 34 36 Q30 40 26 36 L6 16 Q4 12 6 12"/>
    <line x1="10" y1="10" x2="30" y2="30 M14 8 L34 28"/>
  </g>
  <rect x="0" y="0" width="48" height="48" fill="url(#px)" mask="url(#m)" pointer-events="none"/>
</svg>