<svg xmlns="http://www.w3.org/2000/svg" viewBox="0 0 48 48">
  <defs>
    <pattern id="px" width="4" height="4" patternUnits="userSpaceOnUse">
      <rect width="4" height="4" fill="none"/>
      <rect width="2" height="2" fill="rgba(0,0,0,0.2)"/>
    </pattern>
    <mask id="m">
      <rect x="0" y="0" width="48" height="48" fill="black"/>
      <g fill="none" stroke="white" stroke-width="6" stroke-linecap="square" stroke-linejoin="miter" shape-rendering="crispEdges">
    <line x1="12" y1="8" x2="12" y2="44"/>
    <line x1="12" y1="8" x2="6" y2="4 M12 8 L18 4 M12 8 L12 4 M6 4 L18 4"/>
    <rect x="4" y="38" width="16" height="6" rx="2"/>
      </g>
    </mask>
  </defs>
  <g fill="none" stroke="#c2a6d3" stroke-width="6" stroke-linecap="square" stroke-linejoin="miter" shape-rendering="crispEdges">
    <line x1="12" y1="8" x2="12" y2="44"/>
    <line x1="12" y1="8" x2="6" y2="4 M12 8 L18 4 M12 8 L12 4 M6 4 L18 4"/>
    <rect x="4" y="38" width="16" height="6" rx="2"/>
  </g>
  <rect x="0" y="0" width="48" height="48" fill="url(#px)" mask="url(#m)" pointer-events="none"/>
</svg>