<svg xmlns="http://www.w3.org/2000/svg" viewBox="0 0 48 48">
  <defs>
    <pattern id="px" width="4" height="4" patternUnits="userSpaceOnUse">
      <rect width="4" height="4" fill="none"/>
      <rect width="2" height="2" fill="rgba(0,0,0,0.2)"/>
    </pattern>
    <mask id="m">
      <rect x="0" y="0" width="48" height="48" fill="black"/>
      <g fill="none" stroke="white" stroke-width="6" stroke-linecap="square" stroke-linejoin="miter" shape-rendering="crispEdges">
    <path d="M8 12 L8 44 L40 44 L40 12 Z"/>
    <path d="M8 12 Q24 2 40 12"/>
    <path d="M24 4 L24 44"/>
    <path d="M16 44 L16 20 M32 44 L32 20"/>
      </g>
    </mask>
  </defs>
  <g fill="none" stroke="#c9a7bc" stroke-width="6" stroke-linecap="square" stroke-linejoin="miter" shape-rendering="crispEdges">
    <path d="M8 12 L8 44 L40 44 L40 12 Z"/>
    <path d="M8 12 Q24 2 40 12"/>
    <path d="M24 4 L24 44"/>
    <path d="M16 44 L16 20 M32 44 L32 20"/>
  </g>
  <rect x="0" y="0" width="48" height="48" fill="url(#px)" mask="url(#m)" pointer-events="none"/>
</svg>