<svg xmlns="http://www.w3.org/2000/svg" viewBox="0 0 48 48">
  <defs>
    <pattern id="px" width="4" height="4" patternUnits="userSpaceOnUse">
      <rect width="4" height="4" fill="none"/>
      <rect width="2" height="2" fill="rgba(0,0,0,0.2)"/>
    </pattern>
    <mask id="m">
      <rect x="0" y="0" width="48" height="48" fill="black"/>
      <g fill="none" stroke="white" stroke-width="6" stroke-linecap="square" stroke-linejoin="miter" shape-rendering="crispEdges">
    <path d="M24 4 L34 18 L34 32 Q34 38 24 38 Q14 38 14 32 L14 18 Z"/>
    <circle cx="24" cy="18" r="4"/>
    <path d="M14 28 L8 38 L14 34"/>
    <path d="M34 28 L40 38 L34 34"/>
    <path d="M20 38 Q24 46 28 38"/>
      </g>
    </mask>
  </defs>
  <g fill="none" stroke="#FFCC80" stroke-width="6" stroke-linecap="square" stroke-linejoin="miter" shape-rendering="crispEdges">
    <path d="M24 4 L34 18 L34 32 Q34 38 24 38 Q14 38 14 32 L14 18 Z"/>
    <circle cx="24" cy="18" r="4"/>
    <path d="M14 28 L8 38 L14 34"/>
    <path d="M34 28 L40 38 L34 34"/>
    <path d="M20 38 Q24 46 28 38"/>
  </g>
  <rect x="0" y="0" width="48" height="48" fill="url(#px)" mask="url(#m)" pointer-events="none"/>
</svg>