<svg xmlns="http://www.w3.org/2000/svg" viewBox="0 0 48 48">
  <defs>
    <pattern id="px" width="4" height="4" patternUnits="userSpaceOnUse">
      <rect width="4" height="4" fill="none"/>
      <rect width="2" height="2" fill="rgba(0,0,0,0.2)"/>
    </pattern>
    <mask id="m">
      <rect x="0" y="0" width="48" height="48" fill="black"/>
      <g fill="none" stroke="white" stroke-width="6" stroke-linecap="square" stroke-linejoin="miter" shape-rendering="crispEdges">
    <line x1="24" y1="8" x2="24" y2="40"/>
    <path d="M24 8 C18 10, 18 14, 24 14 C30 14, 30 20, 24 20 C18 20, 18 26, 24 26 C30 26, 30 32, 24 32 C18 32, 18 38, 24 40"/>
      </g>
    </mask>
  </defs>
  <g fill="none" stroke="#CE93D8" stroke-width="6" stroke-linecap="square" stroke-linejoin="miter" shape-rendering="crispEdges">
    <line x1="24" y1="8" x2="24" y2="40"/>
    <path d="M24 8 C18 10, 18 14, 24 14 C30 14, 30 20, 24 20 C18 20, 18 26, 24 26 C30 26, 30 32, 24 32 C18 32, 18 38, 24 40"/>
  </g>
  <rect x="0" y="0" width="48" height="48" fill="url(#px)" mask="url(#m)" pointer-events="none"/>
</svg>