<svg xmlns="http://www.w3.org/2000/svg" viewBox="0 0 48 48">
  <defs>
    <pattern id="px" width="4" height="4" patternUnits="userSpaceOnUse">
      <rect width="4" height="4" fill="none"/>
      <rect width="2" height="2" fill="rgba(0,0,0,0.2)"/>
    </pattern>
    <mask id="m">
      <rect x="0" y="0" width="48" height="48" fill="black"/>
      <g fill="none" stroke="white" stroke-width="6" stroke-linecap="square" stroke-linejoin="miter" shape-rendering="crispEdges">
    <path d="M6 20 Q12 8 24 20 Q36 8 42 20" stroke-width="4" fill="none"/>
    <path d="M6 28 Q12 40 24 28 Q36 40 42 28" stroke-width="4" fill="none"/>
    <path d="M24 6 L24 44" stroke-width="2"/>
      </g>
    </mask>
  </defs>
  <g fill="none" stroke="#a6c7cc" stroke-width="6" stroke-linecap="square" stroke-linejoin="miter" shape-rendering="crispEdges">
    <path d="M6 20 Q12 8 24 20 Q36 8 42 20" stroke-width="4" fill="none"/>
    <path d="M6 28 Q12 40 24 28 Q36 40 42 28" stroke-width="4" fill="none"/>
    <path d="M24 6 L24 44" stroke-width="2"/>
  </g>
  <rect x="0" y="0" width="48" height="48" fill="url(#px)" mask="url(#m)" pointer-events="none"/>
</svg>