<svg xmlns="http://www.w3.org/2000/svg" viewBox="0 0 48 48">
  <defs>
    <pattern id="px" width="4" height="4" patternUnits="userSpaceOnUse">
      <rect width="4" height="4" fill="none"/>
      <rect width="2" height="2" fill="rgba(0,0,0,0.2)"/>
    </pattern>
    <mask id="m">
      <rect x="0" y="0" width="48" height="48" fill="black"/>
      <g fill="none" stroke="white" stroke-width="6" stroke-linecap="square" stroke-linejoin="miter" shape-rendering="crispEdges">
    <path d="M24 20 Q16 8 8 16 Q4 22 12 28 Q8 30 12 34 Q16 38 24 30"/>
    <path d="M24 20 Q32 8 40 16 Q44 22 36 28 Q40 30 36 34 Q32 38 24 30"/>
    <path d="M24 20 L24 44"/>
    <path d="M24 26 L16 44 M24 26 L32 44"/>
      </g>
    </mask>
  </defs>
  <g fill="none" stroke="#a4dcd9" stroke-width="6" stroke-linecap="square" stroke-linejoin="miter" shape-rendering="crispEdges">
    <path d="M24 20 Q16 8 8 16 Q4 22 12 28 Q8 30 12 34 Q16 38 24 30"/>
    <path d="M24 20 Q32 8 40 16 Q44 22 36 28 Q40 30 36 34 Q32 38 24 30"/>
    <path d="M24 20 L24 44"/>
    <path d="M24 26 L16 44 M24 26 L32 44"/>
  </g>
  <rect x="0" y="0" width="48" height="48" fill="url(#px)" mask="url(#m)" pointer-events="none"/>
</svg>