<svg xmlns="http://www.w3.org/2000/svg" viewBox="0 0 48 48">
  <defs>
    <pattern id="px" width="4" height="4" patternUnits="userSpaceOnUse">
      <rect width="4" height="4" fill="none"/>
      <rect width="2" height="2" fill="rgba(0,0,0,0.2)"/>
    </pattern>
    <mask id="m">
      <rect x="0" y="0" width="48" height="48" fill="black"/>
      <g fill="none" stroke="white" stroke-width="6" stroke-linecap="square" stroke-linejoin="miter" shape-rendering="crispEdges">
    <line x1="24" y1="44" x2="24" y2="16"/>
    <path d="M24 16 Q18 10 12 12 Q8 14 10 8 Q14 6 18 12 Q22 14 24 16"/>
    <path d="M24 16 Q30 10 36 12 Q40 14 38 8 Q34 6 30 12 Q26 14 24 16"/>
    <path d="M24 24 L14 20 M24 24 L34 20 M24 30 L16 26 M24 30 L32 26"/>
      </g>
    </mask>
  </defs>
  <g fill="none" stroke="#b7e2ba" stroke-width="6" stroke-linecap="square" stroke-linejoin="miter" shape-rendering="crispEdges">
    <line x1="24" y1="44" x2="24" y2="16"/>
    <path d="M24 16 Q18 10 12 12 Q8 14 10 8 Q14 6 18 12 Q22 14 24 16"/>
    <path d="M24 16 Q30 10 36 12 Q40 14 38 8 Q34 6 30 12 Q26 14 24 16"/>
    <path d="M24 24 L14 20 M24 24 L34 20 M24 30 L16 26 M24 30 L32 26"/>
  </g>
  <rect x="0" y="0" width="48" height="48" fill="url(#px)" mask="url(#m)" pointer-events="none"/>
</svg>