<svg xmlns="http://www.w3.org/2000/svg" viewBox="0 0 48 48">
  <defs>
    <pattern id="px" width="4" height="4" patternUnits="userSpaceOnUse">
      <rect width="4" height="4" fill="none"/>
      <rect width="2" height="2" fill="rgba(0,0,0,0.2)"/>
    </pattern>
    <mask id="m">
      <rect x="0" y="0" width="48" height="48" fill="black"/>
      <g fill="none" stroke="white" stroke-width="6" stroke-linecap="square" stroke-linejoin="miter" shape-rendering="crispEdges">
<circle cx="24" cy="20" r="8"/><path d="M16 20 Q24 12 32 20"/><path d="M24 12 L24 4"/><line x1="10" y1="24" x2="6" y2="40"/><line x1="38" y1="24" x2="42" y2="40"/><circle cx="24" cy="20" r="3"/><path d="M10 28 L4 26 M38 28 L44 26"/>
      </g>
    </mask>
  </defs>
  <g fill="none" stroke="#6c47aa" stroke-width="6" stroke-linecap="square" stroke-linejoin="miter" shape-rendering="crispEdges">
<circle cx="24" cy="20" r="8"/><path d="M16 20 Q24 12 32 20"/><path d="M24 12 L24 4"/><line x1="10" y1="24" x2="6" y2="40"/><line x1="38" y1="24" x2="42" y2="40"/><circle cx="24" cy="20" r="3"/><path d="M10 28 L4 26 M38 28 L44 26"/>
  </g>
  <rect x="0" y="0" width="48" height="48" fill="url(#px)" mask="url(#m)" pointer-events="none"/>
</svg>