<svg xmlns="http://www.w3.org/2000/svg" viewBox="0 0 48 48">
  <defs>
    <pattern id="px" width="4" height="4" patternUnits="userSpaceOnUse">
      <rect width="4" height="4" fill="none"/>
      <rect width="2" height="2" fill="rgba(0,0,0,0.2)"/>
    </pattern>
    <mask id="m">
      <rect x="0" y="0" width="48" height="48" fill="black"/>
      <g fill="none" stroke="white" stroke-width="6" stroke-linecap="square" stroke-linejoin="miter" shape-rendering="crispEdges">
    <rect x="4" y="6" width="40" height="10" rx="2"/>
    <line x1="8" y1="6" x2="8" y2="16 M14 6 L14 16 M20 6 L20 16 M26 6 L26 16 M32 6 L32 16 M38 6 L38 16"/>
      </g>
    </mask>
  </defs>
  <g fill="none" stroke="#acc0b9" stroke-width="6" stroke-linecap="square" stroke-linejoin="miter" shape-rendering="crispEdges">
    <rect x="4" y="6" width="40" height="10" rx="2"/>
    <line x1="8" y1="6" x2="8" y2="16 M14 6 L14 16 M20 6 L20 16 M26 6 L26 16 M32 6 L32 16 M38 6 L38 16"/>
  </g>
  <rect x="0" y="0" width="48" height="48" fill="url(#px)" mask="url(#m)" pointer-events="none"/>
</svg>