<svg xmlns="http://www.w3.org/2000/svg" viewBox="0 0 48 48">
  <defs>
    <pattern id="px" width="4" height="4" patternUnits="userSpaceOnUse">
      <rect width="4" height="4" fill="none"/>
      <rect width="2" height="2" fill="rgba(0,0,0,0.2)"/>
    </pattern>
    <mask id="m">
      <rect x="0" y="0" width="48" height="48" fill="black"/>
      <g fill="none" stroke="white" stroke-width="6" stroke-linecap="square" stroke-linejoin="miter" shape-rendering="crispEdges">
<path d="M16 8 L16 24 L8 38 Q8 44 24 44 Q40 44 40 38 L32 24 L32 8 Z"/>
    <line x1="12" y1="36" x2="36" y2="36"/>
    <line x1="10" y1="40" x2="38" y2="40"/>
      </g>
    </mask>
  </defs>
  <g fill="none" stroke="#ad5883" stroke-width="6" stroke-linecap="square" stroke-linejoin="miter" shape-rendering="crispEdges">
<path d="M16 8 L16 24 L8 38 Q8 44 24 44 Q40 44 40 38 L32 24 L32 8 Z"/>
    <line x1="12" y1="36" x2="36" y2="36"/>
    <line x1="10" y1="40" x2="38" y2="40"/>
  </g>
  <rect x="0" y="0" width="48" height="48" fill="url(#px)" mask="url(#m)" pointer-events="none"/>
</svg>