<svg xmlns="http://www.w3.org/2000/svg" viewBox="0 0 48 48">
  <defs>
    <pattern id="px" width="4" height="4" patternUnits="userSpaceOnUse">
      <rect width="4" height="4" fill="none"/>
      <rect width="2" height="2" fill="rgba(0,0,0,0.2)"/>
    </pattern>
    <mask id="m">
      <rect x="0" y="0" width="48" height="48" fill="black"/>
      <g fill="none" stroke="white" stroke-width="6" stroke-linecap="square" stroke-linejoin="miter" shape-rendering="crispEdges">
<circle cx="24" cy="10" r="5"/>
    <path d="M24 15 L24 28 L20 40"/>
    <path d="M24 20 L30 28 L28 40"/>
    <path d="M20 22 L14 18"/>
    <path d="M28 16 L34 14"/>
      </g>
    </mask>
  </defs>
  <g fill="none" stroke="#79adc6" stroke-width="6" stroke-linecap="square" stroke-linejoin="miter" shape-rendering="crispEdges">
<circle cx="24" cy="10" r="5"/>
    <path d="M24 15 L24 28 L20 40"/>
    <path d="M24 20 L30 28 L28 40"/>
    <path d="M20 22 L14 18"/>
    <path d="M28 16 L34 14"/>
  </g>
  <rect x="0" y="0" width="48" height="48" fill="url(#px)" mask="url(#m)" pointer-events="none"/>
</svg>