<svg xmlns="http://www.w3.org/2000/svg" viewBox="0 0 48 48">
  <defs>
    <pattern id="px" width="4" height="4" patternUnits="userSpaceOnUse">
      <rect width="4" height="4" fill="none"/>
      <rect width="2" height="2" fill="rgba(0,0,0,0.2)"/>
    </pattern>
    <mask id="m">
      <rect x="0" y="0" width="48" height="48" fill="black"/>
      <g fill="none" stroke="white" stroke-width="6" stroke-linecap="square" stroke-linejoin="miter" shape-rendering="crispEdges">
    <circle cx="24" cy="10" r="6"/>
    <rect x="18" y="16" width="12" height="18" rx="4"/>
    <line x1="30" y1="16" x2="40" y2="8 M30 20 L40 12"/>
    <line x1="18" y1="34" x2="14" y2="44 M30 34 L34 44"/>
      </g>
    </mask>
  </defs>
  <g fill="none" stroke="#a6abcf" stroke-width="6" stroke-linecap="square" stroke-linejoin="miter" shape-rendering="crispEdges">
    <circle cx="24" cy="10" r="6"/>
    <rect x="18" y="16" width="12" height="18" rx="4"/>
    <line x1="30" y1="16" x2="40" y2="8 M30 20 L40 12"/>
    <line x1="18" y1="34" x2="14" y2="44 M30 34 L34 44"/>
  </g>
  <rect x="0" y="0" width="48" height="48" fill="url(#px)" mask="url(#m)" pointer-events="none"/>
</svg>