<svg xmlns="http://www.w3.org/2000/svg" viewBox="0 0 48 48">
  <defs>
    <pattern id="px" width="4" height="4" patternUnits="userSpaceOnUse">
      <rect width="4" height="4" fill="none"/>
      <rect width="2" height="2" fill="rgba(0,0,0,0.2)"/>
    </pattern>
    <mask id="m">
      <rect x="0" y="0" width="48" height="48" fill="black"/>
      <g fill="none" stroke="white" stroke-width="6" stroke-linecap="square" stroke-linejoin="miter" shape-rendering="crispEdges">
    <rect x="6" y="30" width="36" height="8" rx="3"/>
    <line x1="12" y1="30" x2="12" y2="10 M20 30 L20 8 M28 30 L28 10 M36 30 L36 12"/>
    <ellipse cx="12" cy="10" rx="3" ry="4"/>
    <ellipse cx="20" cy="8" rx="3" ry="4"/>
    <ellipse cx="28" cy="10" rx="3" ry="4"/>
    <ellipse cx="36" cy="12" rx="3" ry="4"/>
      </g>
    </mask>
  </defs>
  <g fill="none" stroke="#a9c5c6" stroke-width="6" stroke-linecap="square" stroke-linejoin="miter" shape-rendering="crispEdges">
    <rect x="6" y="30" width="36" height="8" rx="3"/>
    <line x1="12" y1="30" x2="12" y2="10 M20 30 L20 8 M28 30 L28 10 M36 30 L36 12"/>
    <ellipse cx="12" cy="10" rx="3" ry="4"/>
    <ellipse cx="20" cy="8" rx="3" ry="4"/>
    <ellipse cx="28" cy="10" rx="3" ry="4"/>
    <ellipse cx="36" cy="12" rx="3" ry="4"/>
  </g>
  <rect x="0" y="0" width="48" height="48" fill="url(#px)" mask="url(#m)" pointer-events="none"/>
</svg>