<svg xmlns="http://www.w3.org/2000/svg" viewBox="0 0 48 48">
  <defs>
    <pattern id="px" width="4" height="4" patternUnits="userSpaceOnUse">
      <rect width="4" height="4" fill="none"/>
      <rect width="2" height="2" fill="rgba(0,0,0,0.2)"/>
    </pattern>
    <mask id="m">
      <rect x="0" y="0" width="48" height="48" fill="black"/>
      <g fill="none" stroke="white" stroke-width="6" stroke-linecap="square" stroke-linejoin="miter" shape-rendering="crispEdges">
    <path d="M8 18 L8 36 Q8 44 24 44 Q40 44 40 36 L40 18 Z"/>
    <path d="M8 18 Q24 10 40 18"/>
    <rect x="20" y="10" width="8" height="8" rx="2"/>
    <path d="M14 28 L34 28"/>
      </g>
    </mask>
  </defs>
  <g fill="none" stroke="#e6c7aa" stroke-width="6" stroke-linecap="square" stroke-linejoin="miter" shape-rendering="crispEdges">
    <path d="M8 18 L8 36 Q8 44 24 44 Q40 44 40 36 L40 18 Z"/>
    <path d="M8 18 Q24 10 40 18"/>
    <rect x="20" y="10" width="8" height="8" rx="2"/>
    <path d="M14 28 L34 28"/>
  </g>
  <rect x="0" y="0" width="48" height="48" fill="url(#px)" mask="url(#m)" pointer-events="none"/>
</svg>