<svg xmlns="http://www.w3.org/2000/svg" viewBox="0 0 48 48">
  <defs>
    <pattern id="px" width="4" height="4" patternUnits="userSpaceOnUse">
      <rect width="4" height="4" fill="none"/>
      <rect width="2" height="2" fill="rgba(0,0,0,0.2)"/>
    </pattern>
    <mask id="m">
      <rect x="0" y="0" width="48" height="48" fill="black"/>
      <g fill="none" stroke="white" stroke-width="6" stroke-linecap="square" stroke-linejoin="miter" shape-rendering="crispEdges">
    <circle cx="24" cy="10" r="6"/>
    <circle cx="21" cy="8" r="1.5"/>
    <circle cx="27" cy="8" r="1.5"/>
    <path d="M20 14 L24 18 L28 14"/>
    <path d="M16 6 L12 2 L14 8 M32 6 L36 2 L34 8"/>
    <line x1="24" y1="18" x2="24" y2="44"/>
    <line x1="16" y1="28" x2="8" y2="44 M32 28 L40 44"/>
      </g>
    </mask>
  </defs>
  <g fill="none" stroke="#d7b6c5" stroke-width="6" stroke-linecap="square" stroke-linejoin="miter" shape-rendering="crispEdges">
    <circle cx="24" cy="10" r="6"/>
    <circle cx="21" cy="8" r="1.5"/>
    <circle cx="27" cy="8" r="1.5"/>
    <path d="M20 14 L24 18 L28 14"/>
    <path d="M16 6 L12 2 L14 8 M32 6 L36 2 L34 8"/>
    <line x1="24" y1="18" x2="24" y2="44"/>
    <line x1="16" y1="28" x2="8" y2="44 M32 28 L40 44"/>
  </g>
  <rect x="0" y="0" width="48" height="48" fill="url(#px)" mask="url(#m)" pointer-events="none"/>
</svg>