<svg xmlns="http://www.w3.org/2000/svg" viewBox="0 0 48 48">
  <defs>
    <pattern id="px" width="4" height="4" patternUnits="userSpaceOnUse">
      <rect width="4" height="4" fill="none"/>
      <rect width="2" height="2" fill="rgba(0,0,0,0.2)"/>
    </pattern>
    <mask id="m">
      <rect x="0" y="0" width="48" height="48" fill="black"/>
      <g fill="none" stroke="white" stroke-width="6" stroke-linecap="square" stroke-linejoin="miter" shape-rendering="crispEdges">
    <path d="M24 8 L20 18 L10 14 L16 24 L6 28 L18 30 L14 40 L24 32 L34 40 L30 30 L42 28 L32 24 L38 14 L28 18 Z"/>
    <line x1="24" y1="8" x2="24" y2="4"/>
      </g>
    </mask>
  </defs>
  <g fill="none" stroke="#d8a8b7" stroke-width="6" stroke-linecap="square" stroke-linejoin="miter" shape-rendering="crispEdges">
    <path d="M24 8 L20 18 L10 14 L16 24 L6 28 L18 30 L14 40 L24 32 L34 40 L30 30 L42 28 L32 24 L38 14 L28 18 Z"/>
    <line x1="24" y1="8" x2="24" y2="4"/>
  </g>
  <rect x="0" y="0" width="48" height="48" fill="url(#px)" mask="url(#m)" pointer-events="none"/>
</svg>