<svg xmlns="http://www.w3.org/2000/svg" viewBox="0 0 48 48">
  <defs>
    <pattern id="px" width="4" height="4" patternUnits="userSpaceOnUse">
      <rect width="4" height="4" fill="none"/>
      <rect width="2" height="2" fill="rgba(0,0,0,0.2)"/>
    </pattern>
    <mask id="m">
      <rect x="0" y="0" width="48" height="48" fill="black"/>
      <g fill="none" stroke="white" stroke-width="6" stroke-linecap="square" stroke-linejoin="miter" shape-rendering="crispEdges">
<line x1="10" y1="26" x2="38" y2="26"/>
    <line x1="10" y1="26" x2="10" y2="36"/>
    <line x1="38" y1="26" x2="38" y2="36"/>
    <line x1="10" y1="36" x2="38" y2="36"/>
    <line x1="24" y1="10" x2="24" y2="20"/>
    <line x1="18" y1="10" x2="30" y2="10"/>
    <circle cx="16" cy="38" r="3"/>
    <circle cx="32" cy="38" r="3"/>
      </g>
    </mask>
  </defs>
  <g fill="none" stroke="#56af67" stroke-width="6" stroke-linecap="square" stroke-linejoin="miter" shape-rendering="crispEdges">
<line x1="10" y1="26" x2="38" y2="26"/>
    <line x1="10" y1="26" x2="10" y2="36"/>
    <line x1="38" y1="26" x2="38" y2="36"/>
    <line x1="10" y1="36" x2="38" y2="36"/>
    <line x1="24" y1="10" x2="24" y2="20"/>
    <line x1="18" y1="10" x2="30" y2="10"/>
    <circle cx="16" cy="38" r="3"/>
    <circle cx="32" cy="38" r="3"/>
  </g>
  <rect x="0" y="0" width="48" height="48" fill="url(#px)" mask="url(#m)" pointer-events="none"/>
</svg>