<svg xmlns="http://www.w3.org/2000/svg" viewBox="0 0 48 48">
  <defs>
    <pattern id="px" width="4" height="4" patternUnits="userSpaceOnUse">
      <rect width="4" height="4" fill="none"/>
      <rect width="2" height="2" fill="rgba(0,0,0,0.2)"/>
    </pattern>
    <mask id="m">
      <rect x="0" y="0" width="48" height="48" fill="black"/>
      <g fill="none" stroke="white" stroke-width="6" stroke-linecap="square" stroke-linejoin="miter" shape-rendering="crispEdges">
    <path d="M36 6 Q10 12 10 28 Q10 32 14 32 Q18 32 18 28 Q18 16 36 6 Z"/>
    <line x1="10" y1="32" x2="10" y2="44"/>
    <line x1="10" y1="38" x2="6" y2="44 M10 38 L14 44"/>
      </g>
    </mask>
  </defs>
  <g fill="none" stroke="#b2c7de" stroke-width="6" stroke-linecap="square" stroke-linejoin="miter" shape-rendering="crispEdges">
    <path d="M36 6 Q10 12 10 28 Q10 32 14 32 Q18 32 18 28 Q18 16 36 6 Z"/>
    <line x1="10" y1="32" x2="10" y2="44"/>
    <line x1="10" y1="38" x2="6" y2="44 M10 38 L14 44"/>
  </g>
  <rect x="0" y="0" width="48" height="48" fill="url(#px)" mask="url(#m)" pointer-events="none"/>
</svg>