<svg xmlns="http://www.w3.org/2000/svg" viewBox="0 0 48 48">
  <defs>
    <pattern id="px" width="4" height="4" patternUnits="userSpaceOnUse">
      <rect width="4" height="4" fill="none"/>
      <rect width="2" height="2" fill="rgba(0,0,0,0.2)"/>
    </pattern>
    <mask id="m">
      <rect x="0" y="0" width="48" height="48" fill="black"/>
      <g fill="none" stroke="white" stroke-width="6" stroke-linecap="square" stroke-linejoin="miter" shape-rendering="crispEdges">
    <ellipse cx="24" cy="26" rx="13" ry="9"/>
    <circle cx="24" cy="16" r="6"/>
    <circle cx="19" cy="14" r="2"/>
    <circle cx="29" cy="14" r="2"/>
    <path d="M26 18 Q34 12 36 18 Q34 22 28 20"/>
    <path d="M22 24 L22 34 M26 24 L26 34"/>
    <path d="M14 32 Q10 36 6 42 M34 32 Q38 36 42 42"/>
      </g>
    </mask>
  </defs>
  <g fill="none" stroke="#d3aea2" stroke-width="6" stroke-linecap="square" stroke-linejoin="miter" shape-rendering="crispEdges">
    <ellipse cx="24" cy="26" rx="13" ry="9"/>
    <circle cx="24" cy="16" r="6"/>
    <circle cx="19" cy="14" r="2"/>
    <circle cx="29" cy="14" r="2"/>
    <path d="M26 18 Q34 12 36 18 Q34 22 28 20"/>
    <path d="M22 24 L22 34 M26 24 L26 34"/>
    <path d="M14 32 Q10 36 6 42 M34 32 Q38 36 42 42"/>
  </g>
  <rect x="0" y="0" width="48" height="48" fill="url(#px)" mask="url(#m)" pointer-events="none"/>
</svg>