<svg xmlns="http://www.w3.org/2000/svg" viewBox="0 0 48 48">
  <defs>
    <pattern id="px" width="4" height="4" patternUnits="userSpaceOnUse">
      <rect width="4" height="4" fill="none"/>
      <rect width="2" height="2" fill="rgba(0,0,0,0.2)"/>
    </pattern>
    <mask id="m">
      <rect x="0" y="0" width="48" height="48" fill="black"/>
      <g fill="none" stroke="white" stroke-width="6" stroke-linecap="square" stroke-linejoin="miter" shape-rendering="crispEdges">
    <ellipse cx="24" cy="18" rx="9" ry="5"/>
    <circle cx="24" cy="12" r="3.5"/>
    <circle cx="22" cy="10" r="1.5"/>
    <path d="M32 16 Q40 12 44 18 Q40 22 32 20"/>
    <path d="M24 18 L24 44 M24 22 L20 22"/>
      </g>
    </mask>
  </defs>
  <g fill="none" stroke="#e5c9e3" stroke-width="6" stroke-linecap="square" stroke-linejoin="miter" shape-rendering="crispEdges">
    <ellipse cx="24" cy="18" rx="9" ry="5"/>
    <circle cx="24" cy="12" r="3.5"/>
    <circle cx="22" cy="10" r="1.5"/>
    <path d="M32 16 Q40 12 44 18 Q40 22 32 20"/>
    <path d="M24 18 L24 44 M24 22 L20 22"/>
  </g>
  <rect x="0" y="0" width="48" height="48" fill="url(#px)" mask="url(#m)" pointer-events="none"/>
</svg>