<svg xmlns="http://www.w3.org/2000/svg" viewBox="0 0 48 48">
  <defs>
    <pattern id="px" width="4" height="4" patternUnits="userSpaceOnUse">
      <rect width="4" height="4" fill="none"/>
      <rect width="2" height="2" fill="rgba(0,0,0,0.2)"/>
    </pattern>
    <mask id="m">
      <rect x="0" y="0" width="48" height="48" fill="black"/>
      <g fill="none" stroke="white" stroke-width="6" stroke-linecap="square" stroke-linejoin="miter" shape-rendering="crispEdges">
    <rect x="10" y="20" width="28" height="24" rx="1"/>
    <rect x="18" y="28" width="12" height="8" rx="1"/>
    <polygon points="24,8 6,22 42,22"/>
    <line x1="14" y1="20" x2="14" y2="14 M34 20 L34 14"/>
      </g>
    </mask>
  </defs>
  <g fill="none" stroke="#bfa69b" stroke-width="6" stroke-linecap="square" stroke-linejoin="miter" shape-rendering="crispEdges">
    <rect x="10" y="20" width="28" height="24" rx="1"/>
    <rect x="18" y="28" width="12" height="8" rx="1"/>
    <polygon points="24,8 6,22 42,22"/>
    <line x1="14" y1="20" x2="14" y2="14 M34 20 L34 14"/>
  </g>
  <rect x="0" y="0" width="48" height="48" fill="url(#px)" mask="url(#m)" pointer-events="none"/>
</svg>