<svg xmlns="http://www.w3.org/2000/svg" viewBox="0 0 48 48">
  <defs>
    <pattern id="px" width="4" height="4" patternUnits="userSpaceOnUse">
      <rect width="4" height="4" fill="none"/>
      <rect width="2" height="2" fill="rgba(0,0,0,0.2)"/>
    </pattern>
    <mask id="m">
      <rect x="0" y="0" width="48" height="48" fill="black"/>
      <g fill="none" stroke="white" stroke-width="6" stroke-linecap="square" stroke-linejoin="miter" shape-rendering="crispEdges">
<path d="M4 28 Q4 16 24 16 Q38 16 44 28 L38 34 L32 28 L26 34 L20 28 L14 34 Z"/>
    <circle cx="14" cy="24" r="2.5"/>
    <polygon points="40,18 46,12 44,22"/>
      </g>
    </mask>
  </defs>
  <g fill="none" stroke="#55baa4" stroke-width="6" stroke-linecap="square" stroke-linejoin="miter" shape-rendering="crispEdges">
<path d="M4 28 Q4 16 24 16 Q38 16 44 28 L38 34 L32 28 L26 34 L20 28 L14 34 Z"/>
    <circle cx="14" cy="24" r="2.5"/>
    <polygon points="40,18 46,12 44,22"/>
  </g>
  <rect x="0" y="0" width="48" height="48" fill="url(#px)" mask="url(#m)" pointer-events="none"/>
</svg>