<svg xmlns="http://www.w3.org/2000/svg" viewBox="0 0 48 48">
  <defs>
    <pattern id="px" width="4" height="4" patternUnits="userSpaceOnUse">
      <rect width="4" height="4" fill="none"/>
      <rect width="2" height="2" fill="rgba(0,0,0,0.2)"/>
    </pattern>
    <mask id="m">
      <rect x="0" y="0" width="48" height="48" fill="black"/>
      <g fill="none" stroke="white" stroke-width="6" stroke-linecap="square" stroke-linejoin="miter" shape-rendering="crispEdges">
    <path d="M8 8 L24 22 L40 8"/>
    <path d="M8 8 Q12 18 8 26 M40 8 Q36 18 40 26"/>
    <circle cx="16" cy="6" r="3"/>
    <circle cx="32" cy="6" r="3"/>
      </g>
    </mask>
  </defs>
  <g fill="none" stroke="#adc2c4" stroke-width="6" stroke-linecap="square" stroke-linejoin="miter" shape-rendering="crispEdges">
    <path d="M8 8 L24 22 L40 8"/>
    <path d="M8 8 Q12 18 8 26 M40 8 Q36 18 40 26"/>
    <circle cx="16" cy="6" r="3"/>
    <circle cx="32" cy="6" r="3"/>
  </g>
  <rect x="0" y="0" width="48" height="48" fill="url(#px)" mask="url(#m)" pointer-events="none"/>
</svg>