<svg xmlns="http://www.w3.org/2000/svg" viewBox="0 0 48 48">
  <defs>
    <pattern id="px" width="4" height="4" patternUnits="userSpaceOnUse">
      <rect width="4" height="4" fill="none"/>
      <rect width="2" height="2" fill="rgba(0,0,0,0.2)"/>
    </pattern>
    <mask id="m">
      <rect x="0" y="0" width="48" height="48" fill="black"/>
      <g fill="none" stroke="white" stroke-width="6" stroke-linecap="square" stroke-linejoin="miter" shape-rendering="crispEdges">
    <circle cx="24" cy="24" r="16"/>
    <circle cx="18" cy="20" r="3" fill="currentColor"/>
    <circle cx="30" cy="20" r="3" fill="currentColor"/>
    <path d="M16 30 Q24 34 32 30"/>
    <ellipse cx="12" cy="16" rx="3" ry="5" transform="rotate(-20 12 16)"/>
    <ellipse cx="36" cy="16" rx="3" ry="5" transform="rotate(20 36 16)"/>
      </g>
    </mask>
  </defs>
  <g fill="none" stroke="#c8daad" stroke-width="6" stroke-linecap="square" stroke-linejoin="miter" shape-rendering="crispEdges">
    <circle cx="24" cy="24" r="16"/>
    <circle cx="18" cy="20" r="3" fill="currentColor"/>
    <circle cx="30" cy="20" r="3" fill="currentColor"/>
    <path d="M16 30 Q24 34 32 30"/>
    <ellipse cx="12" cy="16" rx="3" ry="5" transform="rotate(-20 12 16)"/>
    <ellipse cx="36" cy="16" rx="3" ry="5" transform="rotate(20 36 16)"/>
  </g>
  <rect x="0" y="0" width="48" height="48" fill="url(#px)" mask="url(#m)" pointer-events="none"/>
</svg>