<svg xmlns="http://www.w3.org/2000/svg" viewBox="0 0 48 48">
  <defs>
    <pattern id="px" width="4" height="4" patternUnits="userSpaceOnUse">
      <rect width="4" height="4" fill="none"/>
      <rect width="2" height="2" fill="rgba(0,0,0,0.2)"/>
    </pattern>
    <mask id="m">
      <rect x="0" y="0" width="48" height="48" fill="black"/>
      <g fill="none" stroke="white" stroke-width="6" stroke-linecap="square" stroke-linejoin="miter" shape-rendering="crispEdges">
    <rect x="14" y="4" width="20" height="30" rx="6"/>
    <ellipse cx="24" cy="4" rx="12" ry="4"/>
    <polygon points="24,2 22,22 26,22"/>
    <line x1="14" y1="14" x2="34" y2="14 M14 24 L34 24"/>
      </g>
    </mask>
  </defs>
  <g fill="none" stroke="#c3b9a3" stroke-width="6" stroke-linecap="square" stroke-linejoin="miter" shape-rendering="crispEdges">
    <rect x="14" y="4" width="20" height="30" rx="6"/>
    <ellipse cx="24" cy="4" rx="12" ry="4"/>
    <polygon points="24,2 22,22 26,22"/>
    <line x1="14" y1="14" x2="34" y2="14 M14 24 L34 24"/>
  </g>
  <rect x="0" y="0" width="48" height="48" fill="url(#px)" mask="url(#m)" pointer-events="none"/>
</svg>