<svg xmlns="http://www.w3.org/2000/svg" viewBox="0 0 48 48">
  <defs>
    <pattern id="px" width="4" height="4" patternUnits="userSpaceOnUse">
      <rect width="4" height="4" fill="none"/>
      <rect width="2" height="2" fill="rgba(0,0,0,0.2)"/>
    </pattern>
    <mask id="m">
      <rect x="0" y="0" width="48" height="48" fill="black"/>
      <g fill="none" stroke="white" stroke-width="6" stroke-linecap="square" stroke-linejoin="miter" shape-rendering="crispEdges">
    <rect x="6" y="14" width="36" height="12" rx="4"/>
    <rect x="10" y="18" width="28" height="8" rx="3"/>
    <line x1="6" y1="26" x2="6" y2="44 M42 26 L42 44"/>
    <line x1="6" y1="38" x2="42" y2="38"/>
    <line x1="14" y1="38" x2="14" y2="44 M22 38 L22 44 M30 38 L30 44 M38 38 L38 44"/>
      </g>
    </mask>
  </defs>
  <g fill="none" stroke="#bdc7a2" stroke-width="6" stroke-linecap="square" stroke-linejoin="miter" shape-rendering="crispEdges">
    <rect x="6" y="14" width="36" height="12" rx="4"/>
    <rect x="10" y="18" width="28" height="8" rx="3"/>
    <line x1="6" y1="26" x2="6" y2="44 M42 26 L42 44"/>
    <line x1="6" y1="38" x2="42" y2="38"/>
    <line x1="14" y1="38" x2="14" y2="44 M22 38 L22 44 M30 38 L30 44 M38 38 L38 44"/>
  </g>
  <rect x="0" y="0" width="48" height="48" fill="url(#px)" mask="url(#m)" pointer-events="none"/>
</svg>