<svg xmlns="http://www.w3.org/2000/svg" viewBox="0 0 48 48">
  <defs>
    <pattern id="px" width="4" height="4" patternUnits="userSpaceOnUse">
      <rect width="4" height="4" fill="none"/>
      <rect width="2" height="2" fill="rgba(0,0,0,0.2)"/>
    </pattern>
    <mask id="m">
      <rect x="0" y="0" width="48" height="48" fill="black"/>
      <g fill="none" stroke="white" stroke-width="6" stroke-linecap="square" stroke-linejoin="miter" shape-rendering="crispEdges">
    <circle cx="24" cy="24" r="16"/>
    <path d="M16 18 L22 22 M32 18 L26 22"/>
    <path d="M16 32 Q24 36 32 32"/>
    <line x1="14" y1="12" x2="18" y2="10 M34 12 L30 10"/>
      </g>
    </mask>
  </defs>
  <g fill="none" stroke="#c7b3bf" stroke-width="6" stroke-linecap="square" stroke-linejoin="miter" shape-rendering="crispEdges">
    <circle cx="24" cy="24" r="16"/>
    <path d="M16 18 L22 22 M32 18 L26 22"/>
    <path d="M16 32 Q24 36 32 32"/>
    <line x1="14" y1="12" x2="18" y2="10 M34 12 L30 10"/>
  </g>
  <rect x="0" y="0" width="48" height="48" fill="url(#px)" mask="url(#m)" pointer-events="none"/>
</svg>