<svg xmlns="http://www.w3.org/2000/svg" viewBox="0 0 48 48">
  <defs>
    <pattern id="px" width="4" height="4" patternUnits="userSpaceOnUse">
      <rect width="4" height="4" fill="none"/>
      <rect width="2" height="2" fill="rgba(0,0,0,0.2)"/>
    </pattern>
    <mask id="m">
      <rect x="0" y="0" width="48" height="48" fill="black"/>
      <g fill="none" stroke="white" stroke-width="6" stroke-linecap="square" stroke-linejoin="miter" shape-rendering="crispEdges">
<circle cx="24" cy="24" r="18"/>
    <path d="M12 18 Q16 14 20 18 Q24 14 28 18 Q32 14 36 18"/>
    <path d="M14 32 Q24 38 34 32"/>
      </g>
    </mask>
  </defs>
  <g fill="none" stroke="#af5f60" stroke-width="6" stroke-linecap="square" stroke-linejoin="miter" shape-rendering="crispEdges">
<circle cx="24" cy="24" r="18"/>
    <path d="M12 18 Q16 14 20 18 Q24 14 28 18 Q32 14 36 18"/>
    <path d="M14 32 Q24 38 34 32"/>
  </g>
  <rect x="0" y="0" width="48" height="48" fill="url(#px)" mask="url(#m)" pointer-events="none"/>
</svg>