<svg xmlns="http://www.w3.org/2000/svg" viewBox="0 0 48 48">
  <defs>
    <pattern id="px" width="4" height="4" patternUnits="userSpaceOnUse">
      <rect width="4" height="4" fill="none"/>
      <rect width="2" height="2" fill="rgba(0,0,0,0.2)"/>
    </pattern>
    <mask id="m">
      <rect x="0" y="0" width="48" height="48" fill="black"/>
      <g fill="none" stroke="white" stroke-width="6" stroke-linecap="square" stroke-linejoin="miter" shape-rendering="crispEdges">
    <path d="M12 30 L16 10 Q16 6 24 6 Q32 6 32 10 L36 30 Z"/>
    <ellipse cx="24" cy="30" rx="12" ry="3"/>
    <line x1="24" y1="6" x2="24" y2="2"/>
    <circle cx="20" cy="18" r="2"/>
    <circle cx="28" cy="22" r="2"/>
      </g>
    </mask>
  </defs>
  <g fill="none" stroke="#c0a1bb" stroke-width="6" stroke-linecap="square" stroke-linejoin="miter" shape-rendering="crispEdges">
    <path d="M12 30 L16 10 Q16 6 24 6 Q32 6 32 10 L36 30 Z"/>
    <ellipse cx="24" cy="30" rx="12" ry="3"/>
    <line x1="24" y1="6" x2="24" y2="2"/>
    <circle cx="20" cy="18" r="2"/>
    <circle cx="28" cy="22" r="2"/>
  </g>
  <rect x="0" y="0" width="48" height="48" fill="url(#px)" mask="url(#m)" pointer-events="none"/>
</svg>