<svg xmlns="http://www.w3.org/2000/svg" viewBox="0 0 48 48">
  <defs>
    <pattern id="px" width="4" height="4" patternUnits="userSpaceOnUse">
      <rect width="4" height="4" fill="none"/>
      <rect width="2" height="2" fill="rgba(0,0,0,0.2)"/>
    </pattern>
    <mask id="m">
      <rect x="0" y="0" width="48" height="48" fill="black"/>
      <g fill="none" stroke="white" stroke-width="6" stroke-linecap="square" stroke-linejoin="miter" shape-rendering="crispEdges">
    <path d="M6 26 L8 40 Q8 44 14 44 L34 44 Q38 44 38 40 L40 26 Z"/>
    <line x1="6" y1="34" x2="40" y2="34"/>
    <line x1="6" y1="26" x2="6" y2="34 M40 26 L40 34"/>
    <line x1="12" y1="44" x2="30" y2="44"/>
      </g>
    </mask>
  </defs>
  <g fill="none" stroke="#d1e0c6" stroke-width="6" stroke-linecap="square" stroke-linejoin="miter" shape-rendering="crispEdges">
    <path d="M6 26 L8 40 Q8 44 14 44 L34 44 Q38 44 38 40 L40 26 Z"/>
    <line x1="6" y1="34" x2="40" y2="34"/>
    <line x1="6" y1="26" x2="6" y2="34 M40 26 L40 34"/>
    <line x1="12" y1="44" x2="30" y2="44"/>
  </g>
  <rect x="0" y="0" width="48" height="48" fill="url(#px)" mask="url(#m)" pointer-events="none"/>
</svg>