<svg xmlns="http://www.w3.org/2000/svg" viewBox="0 0 48 48">
  <defs>
    <pattern id="px" width="4" height="4" patternUnits="userSpaceOnUse">
      <rect width="4" height="4" fill="none"/>
      <rect width="2" height="2" fill="rgba(0,0,0,0.2)"/>
    </pattern>
    <mask id="m">
      <rect x="0" y="0" width="48" height="48" fill="black"/>
      <g fill="none" stroke="white" stroke-width="6" stroke-linecap="square" stroke-linejoin="miter" shape-rendering="crispEdges">
<rect x="8" y="8" width="32" height="20" rx="4"/>
    <path d="M8 28 L14 40 L34 40 L40 28 Z"/>
    <path d="M12 18 L20 18 L24 14 L28 18 L36 18"/>
      </g>
    </mask>
  </defs>
  <g fill="none" stroke="#4d6ca8" stroke-width="6" stroke-linecap="square" stroke-linejoin="miter" shape-rendering="crispEdges">
<rect x="8" y="8" width="32" height="20" rx="4"/>
    <path d="M8 28 L14 40 L34 40 L40 28 Z"/>
    <path d="M12 18 L20 18 L24 14 L28 18 L36 18"/>
  </g>
  <rect x="0" y="0" width="48" height="48" fill="url(#px)" mask="url(#m)" pointer-events="none"/>
</svg>