<svg xmlns="http://www.w3.org/2000/svg" viewBox="0 0 48 48">
  <defs>
    <pattern id="px" width="4" height="4" patternUnits="userSpaceOnUse">
      <rect width="4" height="4" fill="none"/>
      <rect width="2" height="2" fill="rgba(0,0,0,0.2)"/>
    </pattern>
    <mask id="m">
      <rect x="0" y="0" width="48" height="48" fill="black"/>
      <g fill="none" stroke="white" stroke-width="6" stroke-linecap="square" stroke-linejoin="miter" shape-rendering="crispEdges">
    <circle cx="24" cy="8" r="5"/>
    <rect x="18" y="13" width="12" height="20" rx="3"/>
    <line x1="18" y1="20" x2="10" y2="28 M30 20 L38 28"/>
    <line x1="18" y1="33" x2="14" y2="44 M30 33 L34 44"/>
    <rect x="22" y="4" width="4" height="4" rx="1"/>
      </g>
    </mask>
  </defs>
  <g fill="none" stroke="#d4b6d2" stroke-width="6" stroke-linecap="square" stroke-linejoin="miter" shape-rendering="crispEdges">
    <circle cx="24" cy="8" r="5"/>
    <rect x="18" y="13" width="12" height="20" rx="3"/>
    <line x1="18" y1="20" x2="10" y2="28 M30 20 L38 28"/>
    <line x1="18" y1="33" x2="14" y2="44 M30 33 L34 44"/>
    <rect x="22" y="4" width="4" height="4" rx="1"/>
  </g>
  <rect x="0" y="0" width="48" height="48" fill="url(#px)" mask="url(#m)" pointer-events="none"/>
</svg>