<svg xmlns="http://www.w3.org/2000/svg" viewBox="0 0 48 48">
  <defs>
    <pattern id="px" width="4" height="4" patternUnits="userSpaceOnUse">
      <rect width="4" height="4" fill="none"/>
      <rect width="2" height="2" fill="rgba(0,0,0,0.2)"/>
    </pattern>
    <mask id="m">
      <rect x="0" y="0" width="48" height="48" fill="black"/>
      <g fill="none" stroke="white" stroke-width="6" stroke-linecap="square" stroke-linejoin="miter" shape-rendering="crispEdges">
    <path d="M8 20 Q16 10 28 14 Q36 18 40 12"/>
    <path d="M6 28 Q14 18 26 22 Q34 26 42 20"/>
    <path d="M10 36 Q20 26 30 30 Q38 34 44 28"/>
    <ellipse cx="22" cy="40" rx="10" ry="4"/>
    <ellipse cx="22" cy="40" rx="6" ry="2"/>
      </g>
    </mask>
  </defs>
  <g fill="none" stroke="#c5b7ae" stroke-width="6" stroke-linecap="square" stroke-linejoin="miter" shape-rendering="crispEdges">
    <path d="M8 20 Q16 10 28 14 Q36 18 40 12"/>
    <path d="M6 28 Q14 18 26 22 Q34 26 42 20"/>
    <path d="M10 36 Q20 26 30 30 Q38 34 44 28"/>
    <ellipse cx="22" cy="40" rx="10" ry="4"/>
    <ellipse cx="22" cy="40" rx="6" ry="2"/>
  </g>
  <rect x="0" y="0" width="48" height="48" fill="url(#px)" mask="url(#m)" pointer-events="none"/>
</svg>