<svg xmlns="http://www.w3.org/2000/svg" viewBox="0 0 48 48">
  <defs>
    <pattern id="px" width="4" height="4" patternUnits="userSpaceOnUse">
      <rect width="4" height="4" fill="none"/>
      <rect width="2" height="2" fill="rgba(0,0,0,0.2)"/>
    </pattern>
    <mask id="m">
      <rect x="0" y="0" width="48" height="48" fill="black"/>
      <g fill="none" stroke="white" stroke-width="6" stroke-linecap="square" stroke-linejoin="miter" shape-rendering="crispEdges">
    <line x1="24" y1="10" x2="24" y2="44"/>
    <circle cx="24" cy="10" r="4" fill="currentColor"/>
    <line x1="24" y1="6" x2="28" y2="4 M24 6 L20 4 M24 14 L28 16 M24 14 L20 16"/>
      </g>
    </mask>
  </defs>
  <g fill="none" stroke="#d0a0a5" stroke-width="6" stroke-linecap="square" stroke-linejoin="miter" shape-rendering="crispEdges">
    <line x1="24" y1="10" x2="24" y2="44"/>
    <circle cx="24" cy="10" r="4" fill="currentColor"/>
    <line x1="24" y1="6" x2="28" y2="4 M24 6 L20 4 M24 14 L28 16 M24 14 L20 16"/>
  </g>
  <rect x="0" y="0" width="48" height="48" fill="url(#px)" mask="url(#m)" pointer-events="none"/>
</svg>