<svg xmlns="http://www.w3.org/2000/svg" viewBox="0 0 48 48">
  <defs>
    <pattern id="px" width="4" height="4" patternUnits="userSpaceOnUse">
      <rect width="4" height="4" fill="none"/>
      <rect width="2" height="2" fill="rgba(0,0,0,0.2)"/>
    </pattern>
    <mask id="m">
      <rect x="0" y="0" width="48" height="48" fill="black"/>
      <g fill="none" stroke="white" stroke-width="6" stroke-linecap="square" stroke-linejoin="miter" shape-rendering="crispEdges">
    <path d="M6 8 L6 40 Q6 42 12 42 L24 42 L24 8 Z"/>
    <path d="M42 8 L42 40 Q42 42 36 42 L24 42 L24 8 Z"/>
    <line x1="24" y1="8" x2="24" y2="42"/>
    <circle cx="14" cy="18" r="2" fill="currentColor"/>
    <circle cx="14" cy="24" r="2" fill="currentColor"/>
    <circle cx="34" cy="18" r="2" fill="currentColor"/>
    <circle cx="34" cy="24" r="2" fill="currentColor"/>
      </g>
    </mask>
  </defs>
  <g fill="none" stroke="#aeb6d4" stroke-width="6" stroke-linecap="square" stroke-linejoin="miter" shape-rendering="crispEdges">
    <path d="M6 8 L6 40 Q6 42 12 42 L24 42 L24 8 Z"/>
    <path d="M42 8 L42 40 Q42 42 36 42 L24 42 L24 8 Z"/>
    <line x1="24" y1="8" x2="24" y2="42"/>
    <circle cx="14" cy="18" r="2" fill="currentColor"/>
    <circle cx="14" cy="24" r="2" fill="currentColor"/>
    <circle cx="34" cy="18" r="2" fill="currentColor"/>
    <circle cx="34" cy="24" r="2" fill="currentColor"/>
  </g>
  <rect x="0" y="0" width="48" height="48" fill="url(#px)" mask="url(#m)" pointer-events="none"/>
</svg>