<svg xmlns="http://www.w3.org/2000/svg" viewBox="0 0 48 48">
  <defs>
    <pattern id="px" width="4" height="4" patternUnits="userSpaceOnUse">
      <rect width="4" height="4" fill="none"/>
      <rect width="2" height="2" fill="rgba(0,0,0,0.2)"/>
    </pattern>
    <mask id="m">
      <rect x="0" y="0" width="48" height="48" fill="black"/>
      <g fill="none" stroke="white" stroke-width="6" stroke-linecap="square" stroke-linejoin="miter" shape-rendering="crispEdges">
    <path d="M24 44 L24 20 Q24 8 10 6 Q18 10 20 16 Q24 6 28 16 Q30 10 38 6 Q24 8 24 20"/>
    <path d="M14 16 L10 12 M34 16 L38 12"/>
      </g>
    </mask>
  </defs>
  <g fill="none" stroke="#cdcfa9" stroke-width="6" stroke-linecap="square" stroke-linejoin="miter" shape-rendering="crispEdges">
    <path d="M24 44 L24 20 Q24 8 10 6 Q18 10 20 16 Q24 6 28 16 Q30 10 38 6 Q24 8 24 20"/>
    <path d="M14 16 L10 12 M34 16 L38 12"/>
  </g>
  <rect x="0" y="0" width="48" height="48" fill="url(#px)" mask="url(#m)" pointer-events="none"/>
</svg>