<svg xmlns="http://www.w3.org/2000/svg" viewBox="0 0 48 48">
  <defs>
    <pattern id="px" width="4" height="4" patternUnits="userSpaceOnUse">
      <rect width="4" height="4" fill="none"/>
      <rect width="2" height="2" fill="rgba(0,0,0,0.2)"/>
    </pattern>
    <mask id="m">
      <rect x="0" y="0" width="48" height="48" fill="black"/>
      <g fill="none" stroke="white" stroke-width="6" stroke-linecap="square" stroke-linejoin="miter" shape-rendering="crispEdges">
    <rect x="16" y="6" width="16" height="12" rx="3"/>
    <rect x="14" y="18" width="20" height="26" rx="4"/>
    <line x1="20" y1="6" x2="20" y2="4 M28 6 L28 4" stroke-width="2"/>
    <line x1="24" y1="18" x2="24" y2="38 M18 28 L30 28"/>
      </g>
    </mask>
  </defs>
  <g fill="none" stroke="#b9a8c1" stroke-width="6" stroke-linecap="square" stroke-linejoin="miter" shape-rendering="crispEdges">
    <rect x="16" y="6" width="16" height="12" rx="3"/>
    <rect x="14" y="18" width="20" height="26" rx="4"/>
    <line x1="20" y1="6" x2="20" y2="4 M28 6 L28 4" stroke-width="2"/>
    <line x1="24" y1="18" x2="24" y2="38 M18 28 L30 28"/>
  </g>
  <rect x="0" y="0" width="48" height="48" fill="url(#px)" mask="url(#m)" pointer-events="none"/>
</svg>