<svg xmlns="http://www.w3.org/2000/svg" viewBox="0 0 48 48">
  <defs>
    <pattern id="px" width="4" height="4" patternUnits="userSpaceOnUse">
      <rect width="4" height="4" fill="none"/>
      <rect width="2" height="2" fill="rgba(0,0,0,0.2)"/>
    </pattern>
    <mask id="m">
      <rect x="0" y="0" width="48" height="48" fill="black"/>
      <g fill="none" stroke="white" stroke-width="6" stroke-linecap="square" stroke-linejoin="miter" shape-rendering="crispEdges">
    <path d="M10 6 L30 6 L38 14 L38 42 L10 42 Z"/>
    <path d="M30 6 L30 14 L38 14"/>
    <line x1="16" y1="20" x2="34" y2="20"/>
    <line x1="16" y1="28" x2="34" y2="28"/>
    <line x1="16" y1="36" x2="34" y2="36"/>
    <line x1="27" y1="20" x2="27" y2="36"/>
      </g>
    </mask>
  </defs>
  <g fill="none" stroke="#66BB6A" stroke-width="6" stroke-linecap="square" stroke-linejoin="miter" shape-rendering="crispEdges">
    <path d="M10 6 L30 6 L38 14 L38 42 L10 42 Z"/>
    <path d="M30 6 L30 14 L38 14"/>
    <line x1="16" y1="20" x2="34" y2="20"/>
    <line x1="16" y1="28" x2="34" y2="28"/>
    <line x1="16" y1="36" x2="34" y2="36"/>
    <line x1="27" y1="20" x2="27" y2="36"/>
  </g>
  <rect x="0" y="0" width="48" height="48" fill="url(#px)" mask="url(#m)" pointer-events="none"/>
</svg>