<svg xmlns="http://www.w3.org/2000/svg" viewBox="0 0 48 48">
  <defs>
    <pattern id="px" width="4" height="4" patternUnits="userSpaceOnUse">
      <rect width="4" height="4" fill="none"/>
      <rect width="2" height="2" fill="rgba(0,0,0,0.2)"/>
    </pattern>
    <mask id="m">
      <rect x="0" y="0" width="48" height="48" fill="black"/>
      <g fill="none" stroke="white" stroke-width="6" stroke-linecap="square" stroke-linejoin="miter" shape-rendering="crispEdges">
<rect x="6" y="6" width="36" height="36" rx="4"/>
    <line x1="6" y1="18" x2="42" y2="18"/>
    <line x1="18" y1="6" x2="18" y2="42"/>
    <circle cx="12" cy="12" r="2"/>
    <circle cx="36" cy="36" r="2"/>
    <circle cx="36" cy="12" r="2"/>
    <circle cx="12" cy="36" r="2"/>
      </g>
    </mask>
  </defs>
  <g fill="none" stroke="#8755c6" stroke-width="6" stroke-linecap="square" stroke-linejoin="miter" shape-rendering="crispEdges">
<rect x="6" y="6" width="36" height="36" rx="4"/>
    <line x1="6" y1="18" x2="42" y2="18"/>
    <line x1="18" y1="6" x2="18" y2="42"/>
    <circle cx="12" cy="12" r="2"/>
    <circle cx="36" cy="36" r="2"/>
    <circle cx="36" cy="12" r="2"/>
    <circle cx="12" cy="36" r="2"/>
  </g>
  <rect x="0" y="0" width="48" height="48" fill="url(#px)" mask="url(#m)" pointer-events="none"/>
</svg>