<svg xmlns="http://www.w3.org/2000/svg" viewBox="0 0 48 48">
  <defs>
    <pattern id="px" width="4" height="4" patternUnits="userSpaceOnUse">
      <rect width="4" height="4" fill="none"/>
      <rect width="2" height="2" fill="rgba(0,0,0,0.2)"/>
    </pattern>
    <mask id="m">
      <rect x="0" y="0" width="48" height="48" fill="black"/>
      <g fill="none" stroke="white" stroke-width="6" stroke-linecap="square" stroke-linejoin="miter" shape-rendering="crispEdges">
    <ellipse cx="24" cy="16" rx="8" ry="6"/>
    <polygon points="16,18 8,24 10,30 16,26"/>
    <polygon points="24,20 18,28 20,34 24,28"/>
    <polygon points="24,20 28,28 26,34 24,28"/>
    <polygon points="32,18 40,24 38,30 32,26"/>
    <circle cx="24" cy="14" r="3"/>
    <circle cx="22" cy="12" r="1.2"/>
      </g>
    </mask>
  </defs>
  <g fill="none" stroke="#dddab9" stroke-width="6" stroke-linecap="square" stroke-linejoin="miter" shape-rendering="crispEdges">
    <ellipse cx="24" cy="16" rx="8" ry="6"/>
    <polygon points="16,18 8,24 10,30 16,26"/>
    <polygon points="24,20 18,28 20,34 24,28"/>
    <polygon points="24,20 28,28 26,34 24,28"/>
    <polygon points="32,18 40,24 38,30 32,26"/>
    <circle cx="24" cy="14" r="3"/>
    <circle cx="22" cy="12" r="1.2"/>
  </g>
  <rect x="0" y="0" width="48" height="48" fill="url(#px)" mask="url(#m)" pointer-events="none"/>
</svg>