<svg xmlns="http://www.w3.org/2000/svg" viewBox="0 0 48 48">
  <defs>
    <pattern id="px" width="4" height="4" patternUnits="userSpaceOnUse">
      <rect width="4" height="4" fill="none"/>
      <rect width="2" height="2" fill="rgba(0,0,0,0.2)"/>
    </pattern>
    <mask id="m">
      <rect x="0" y="0" width="48" height="48" fill="black"/>
      <g fill="none" stroke="white" stroke-width="6" stroke-linecap="square" stroke-linejoin="miter" shape-rendering="crispEdges">
    <polygon points="24,2 30,16 44,18 34,28 36,44 24,36 12,44 14,28 4,18 18,16"/>
    <polygon points="24,8 28,18 38,18 30,24 32,36 24,28 16,36 18,24 10,18 20,18"/>
      </g>
    </mask>
  </defs>
  <g fill="none" stroke="#ceafbb" stroke-width="6" stroke-linecap="square" stroke-linejoin="miter" shape-rendering="crispEdges">
    <polygon points="24,2 30,16 44,18 34,28 36,44 24,36 12,44 14,28 4,18 18,16"/>
    <polygon points="24,8 28,18 38,18 30,24 32,36 24,28 16,36 18,24 10,18 20,18"/>
  </g>
  <rect x="0" y="0" width="48" height="48" fill="url(#px)" mask="url(#m)" pointer-events="none"/>
</svg>