<svg xmlns="http://www.w3.org/2000/svg" viewBox="0 0 48 48">
  <defs>
    <pattern id="px" width="4" height="4" patternUnits="userSpaceOnUse">
      <rect width="4" height="4" fill="none"/>
      <rect width="2" height="2" fill="rgba(0,0,0,0.2)"/>
    </pattern>
    <mask id="m">
      <rect x="0" y="0" width="48" height="48" fill="black"/>
      <g fill="none" stroke="white" stroke-width="6" stroke-linecap="square" stroke-linejoin="miter" shape-rendering="crispEdges">
<path d="M24 8 L29 18 L40 18 L32 26 L35 38 L24 30 L13 38 L16 26 L8 18 L19 18 Z"/><circle cx="24" cy="24" r="4"/><circle cx="24" cy="24" r="2"/><line x1="24" y1="8" x2="24" y2="6"/>
      </g>
    </mask>
  </defs>
  <g fill="none" stroke="#65bc95" stroke-width="6" stroke-linecap="square" stroke-linejoin="miter" shape-rendering="crispEdges">
<path d="M24 8 L29 18 L40 18 L32 26 L35 38 L24 30 L13 38 L16 26 L8 18 L19 18 Z"/><circle cx="24" cy="24" r="4"/><circle cx="24" cy="24" r="2"/><line x1="24" y1="8" x2="24" y2="6"/>
  </g>
  <rect x="0" y="0" width="48" height="48" fill="url(#px)" mask="url(#m)" pointer-events="none"/>
</svg>