<svg xmlns="http://www.w3.org/2000/svg" viewBox="0 0 48 48">
  <defs>
    <pattern id="px" width="4" height="4" patternUnits="userSpaceOnUse">
      <rect width="4" height="4" fill="none"/>
      <rect width="2" height="2" fill="rgba(0,0,0,0.2)"/>
    </pattern>
    <mask id="m">
      <rect x="0" y="0" width="48" height="48" fill="black"/>
      <g fill="none" stroke="white" stroke-width="6" stroke-linecap="square" stroke-linejoin="miter" shape-rendering="crispEdges">
    <ellipse cx="24" cy="24" rx="14" ry="10"/>
    <path d="M12 18 L10 26 M18 16 L16 28 M26 16 L24 28 M34 18 L32 26"/>
    <path d="M14 30 Q18 34 24 32 Q30 30 34 34"/>
      </g>
    </mask>
  </defs>
  <g fill="none" stroke="#b2c9a4" stroke-width="6" stroke-linecap="square" stroke-linejoin="miter" shape-rendering="crispEdges">
    <ellipse cx="24" cy="24" rx="14" ry="10"/>
    <path d="M12 18 L10 26 M18 16 L16 28 M26 16 L24 28 M34 18 L32 26"/>
    <path d="M14 30 Q18 34 24 32 Q30 30 34 34"/>
  </g>
  <rect x="0" y="0" width="48" height="48" fill="url(#px)" mask="url(#m)" pointer-events="none"/>
</svg>