<svg xmlns="http://www.w3.org/2000/svg" viewBox="0 0 48 48">
  <defs>
    <pattern id="px" width="4" height="4" patternUnits="userSpaceOnUse">
      <rect width="4" height="4" fill="none"/>
      <rect width="2" height="2" fill="rgba(0,0,0,0.2)"/>
    </pattern>
    <mask id="m">
      <rect x="0" y="0" width="48" height="48" fill="black"/>
      <g fill="none" stroke="white" stroke-width="6" stroke-linecap="square" stroke-linejoin="miter" shape-rendering="crispEdges">
<path d="M4 28 Q24 6 44 28 Q24 38 4 28 Z"/><line x1="24" y1="16" x2="24" y2="38"/><circle cx="18" cy="22" r="1.5"/><circle cx="30" cy="22" r="1.5"/><line x1="24" y1="38" x2="20" y2="44"/><line x1="24" y1="38" x2="28" y2="44"/>
      </g>
    </mask>
  </defs>
  <g fill="none" stroke="#687c4f" stroke-width="6" stroke-linecap="square" stroke-linejoin="miter" shape-rendering="crispEdges">
<path d="M4 28 Q24 6 44 28 Q24 38 4 28 Z"/><line x1="24" y1="16" x2="24" y2="38"/><circle cx="18" cy="22" r="1.5"/><circle cx="30" cy="22" r="1.5"/><line x1="24" y1="38" x2="20" y2="44"/><line x1="24" y1="38" x2="28" y2="44"/>
  </g>
  <rect x="0" y="0" width="48" height="48" fill="url(#px)" mask="url(#m)" pointer-events="none"/>
</svg>