<svg xmlns="http://www.w3.org/2000/svg" viewBox="0 0 48 48">
  <defs>
    <pattern id="px" width="4" height="4" patternUnits="userSpaceOnUse">
      <rect width="4" height="4" fill="none"/>
      <rect width="2" height="2" fill="rgba(0,0,0,0.2)"/>
    </pattern>
    <mask id="m">
      <rect x="0" y="0" width="48" height="48" fill="black"/>
      <g fill="none" stroke="white" stroke-width="6" stroke-linecap="square" stroke-linejoin="miter" shape-rendering="crispEdges">
    <path d="M14 8 L14 34 Q14 42 24 42 Q34 42 34 34 L34 26 L20 26 L20 8 Z"/>
    <rect x="14" y="4" width="20" height="6" rx="3"/>
      </g>
    </mask>
  </defs>
  <g fill="none" stroke="#d1a0b3" stroke-width="6" stroke-linecap="square" stroke-linejoin="miter" shape-rendering="crispEdges">
    <path d="M14 8 L14 34 Q14 42 24 42 Q34 42 34 34 L34 26 L20 26 L20 8 Z"/>
    <rect x="14" y="4" width="20" height="6" rx="3"/>
  </g>
  <rect x="0" y="0" width="48" height="48" fill="url(#px)" mask="url(#m)" pointer-events="none"/>
</svg>