<svg xmlns="http://www.w3.org/2000/svg" viewBox="0 0 48 48">
  <defs>
    <pattern id="px" width="4" height="4" patternUnits="userSpaceOnUse">
      <rect width="4" height="4" fill="none"/>
      <rect width="2" height="2" fill="rgba(0,0,0,0.2)"/>
    </pattern>
    <mask id="m">
      <rect x="0" y="0" width="48" height="48" fill="black"/>
      <g fill="none" stroke="white" stroke-width="6" stroke-linecap="square" stroke-linejoin="miter" shape-rendering="crispEdges">
    <path d="M4 8 Q12 12 20 8 Q28 4 36 8 Q44 12 44 8" fill="none" stroke-width="3"/>
    <path d="M4 8 L10 40 Q14 44 18 40 L22 36 Q26 32 30 36 L34 40 Q38 44 44 8" fill="none" stroke-width="2"/>
      </g>
    </mask>
  </defs>
  <g fill="none" stroke="#a7e3c7" stroke-width="6" stroke-linecap="square" stroke-linejoin="miter" shape-rendering="crispEdges">
    <path d="M4 8 Q12 12 20 8 Q28 4 36 8 Q44 12 44 8" fill="none" stroke-width="3"/>
    <path d="M4 8 L10 40 Q14 44 18 40 L22 36 Q26 32 30 36 L34 40 Q38 44 44 8" fill="none" stroke-width="2"/>
  </g>
  <rect x="0" y="0" width="48" height="48" fill="url(#px)" mask="url(#m)" pointer-events="none"/>
</svg>