<svg xmlns="http://www.w3.org/2000/svg" viewBox="0 0 48 48">
  <defs>
    <pattern id="px" width="4" height="4" patternUnits="userSpaceOnUse">
      <rect width="4" height="4" fill="none"/>
      <rect width="2" height="2" fill="rgba(0,0,0,0.2)"/>
    </pattern>
    <mask id="m">
      <rect x="0" y="0" width="48" height="48" fill="black"/>
      <g fill="none" stroke="white" stroke-width="6" stroke-linecap="square" stroke-linejoin="miter" shape-rendering="crispEdges">
    <circle cx="24" cy="24" r="10"/>
    <line x1="24" y1="4" x2="24" y2="12"/>
    <line x1="24" y1="36" x2="24" y2="44"/>
    <line x1="4" y1="24" x2="12" y2="24"/>
    <line x1="36" y1="24" x2="44" y2="24"/>
    <line x1="8" y1="8" x2="14" y2="14"/>
    <line x1="40" y1="8" x2="34" y2="14"/>
    <line x1="8" y1="40" x2="14" y2="34"/>
    <line x1="40" y1="40" x2="34" y2="34"/>
      </g>
    </mask>
  </defs>
  <g fill="none" stroke="#FF8F00" stroke-width="6" stroke-linecap="square" stroke-linejoin="miter" shape-rendering="crispEdges">
    <circle cx="24" cy="24" r="10"/>
    <line x1="24" y1="4" x2="24" y2="12"/>
    <line x1="24" y1="36" x2="24" y2="44"/>
    <line x1="4" y1="24" x2="12" y2="24"/>
    <line x1="36" y1="24" x2="44" y2="24"/>
    <line x1="8" y1="8" x2="14" y2="14"/>
    <line x1="40" y1="8" x2="34" y2="14"/>
    <line x1="8" y1="40" x2="14" y2="34"/>
    <line x1="40" y1="40" x2="34" y2="34"/>
  </g>
  <rect x="0" y="0" width="48" height="48" fill="url(#px)" mask="url(#m)" pointer-events="none"/>
</svg>