<svg xmlns="http://www.w3.org/2000/svg" viewBox="0 0 48 48">
  <defs>
    <pattern id="px" width="4" height="4" patternUnits="userSpaceOnUse">
      <rect width="4" height="4" fill="none"/>
      <rect width="2" height="2" fill="rgba(0,0,0,0.2)"/>
    </pattern>
    <mask id="m">
      <rect x="0" y="0" width="48" height="48" fill="black"/>
      <g fill="none" stroke="white" stroke-width="6" stroke-linecap="square" stroke-linejoin="miter" shape-rendering="crispEdges">
    <circle cx="24" cy="24" r="12"/>
    <circle cx="24" cy="24" r="8"/>
    <line x1="24" y1="2" x2="24" y2="8 M24 40 L24 46 M2 24 L8 24 M40 24 L46 24"/>
    <line x1="6" y1="6" x2="10" y2="10 M38 6 L34 10 M6 42 L10 38 M38 42 L34 38"/>
      </g>
    </mask>
  </defs>
  <g fill="none" stroke="#d8a8a8" stroke-width="6" stroke-linecap="square" stroke-linejoin="miter" shape-rendering="crispEdges">
    <circle cx="24" cy="24" r="12"/>
    <circle cx="24" cy="24" r="8"/>
    <line x1="24" y1="2" x2="24" y2="8 M24 40 L24 46 M2 24 L8 24 M40 24 L46 24"/>
    <line x1="6" y1="6" x2="10" y2="10 M38 6 L34 10 M6 42 L10 38 M38 42 L34 38"/>
  </g>
  <rect x="0" y="0" width="48" height="48" fill="url(#px)" mask="url(#m)" pointer-events="none"/>
</svg>