<svg xmlns="http://www.w3.org/2000/svg" viewBox="0 0 48 48">
  <defs>
    <pattern id="px" width="4" height="4" patternUnits="userSpaceOnUse">
      <rect width="4" height="4" fill="none"/>
      <rect width="2" height="2" fill="rgba(0,0,0,0.2)"/>
    </pattern>
    <mask id="m">
      <rect x="0" y="0" width="48" height="48" fill="black"/>
      <g fill="none" stroke="white" stroke-width="6" stroke-linecap="square" stroke-linejoin="miter" shape-rendering="crispEdges">
<circle cx="24" cy="22" r="6"/><circle cx="24" cy="22" r="3"/><line x1="24" y1="16" x2="24" y2="8"/><line x1="24" y1="28" x2="24" y2="36"/><line x1="18" y1="22" x2="10" y2="22"/><line x1="30" y1="22" x2="38" y2="22"/><line x1="19" y1="17" x2="13" y2="11"/><line x1="29" y1="17" x2="35" y2="11"/><line x1="19" y1="27" x2="13" y2="33"/><line x1="29" y1="27" x2="35" y2="33"/><line x1="24" y1="36" x2="24" y2="42"/>
      </g>
    </mask>
  </defs>
  <g fill="none" stroke="#c98090" stroke-width="6" stroke-linecap="square" stroke-linejoin="miter" shape-rendering="crispEdges">
<circle cx="24" cy="22" r="6"/><circle cx="24" cy="22" r="3"/><line x1="24" y1="16" x2="24" y2="8"/><line x1="24" y1="28" x2="24" y2="36"/><line x1="18" y1="22" x2="10" y2="22"/><line x1="30" y1="22" x2="38" y2="22"/><line x1="19" y1="17" x2="13" y2="11"/><line x1="29" y1="17" x2="35" y2="11"/><line x1="19" y1="27" x2="13" y2="33"/><line x1="29" y1="27" x2="35" y2="33"/><line x1="24" y1="36" x2="24" y2="42"/>
  </g>
  <rect x="0" y="0" width="48" height="48" fill="url(#px)" mask="url(#m)" pointer-events="none"/>
</svg>