<svg xmlns="http://www.w3.org/2000/svg" viewBox="0 0 48 48">
  <defs>
    <pattern id="px" width="4" height="4" patternUnits="userSpaceOnUse">
      <rect width="4" height="4" fill="none"/>
      <rect width="2" height="2" fill="rgba(0,0,0,0.2)"/>
    </pattern>
    <mask id="m">
      <rect x="0" y="0" width="48" height="48" fill="black"/>
      <g fill="none" stroke="white" stroke-width="6" stroke-linecap="square" stroke-linejoin="miter" shape-rendering="crispEdges">
    <circle cx="24" cy="24" r="8"/>
    <line x1="24" y1="4" x2="24" y2="10 M24 38 L24 44 M4 24 L10 24 M38 24 L44 24"/>
    <line x1="8" y1="8" x2="12" y2="12 M36 8 L32 12 M8 40 L12 36 M36 40 L32 36"/>
      </g>
    </mask>
  </defs>
  <g fill="none" stroke="#c9bcb7" stroke-width="6" stroke-linecap="square" stroke-linejoin="miter" shape-rendering="crispEdges">
    <circle cx="24" cy="24" r="8"/>
    <line x1="24" y1="4" x2="24" y2="10 M24 38 L24 44 M4 24 L10 24 M38 24 L44 24"/>
    <line x1="8" y1="8" x2="12" y2="12 M36 8 L32 12 M8 40 L12 36 M36 40 L32 36"/>
  </g>
  <rect x="0" y="0" width="48" height="48" fill="url(#px)" mask="url(#m)" pointer-events="none"/>
</svg>