<svg xmlns="http://www.w3.org/2000/svg" viewBox="0 0 48 48">
  <defs>
    <pattern id="px" width="4" height="4" patternUnits="userSpaceOnUse">
      <rect width="4" height="4" fill="none"/>
      <rect width="2" height="2" fill="rgba(0,0,0,0.2)"/>
    </pattern>
    <mask id="m">
      <rect x="0" y="0" width="48" height="48" fill="black"/>
      <g fill="none" stroke="white" stroke-width="6" stroke-linecap="square" stroke-linejoin="miter" shape-rendering="crispEdges">
<path d="M6 38 Q6 6 24 6 Q42 6 42 38"/>
    <line x1="6" y1="38" x2="42" y2="38"/>
    <rect x="8" y="8" width="12" height="12" rx="2"/>
    <line x1="14" y1="14" x2="14" y2="38"/>
    <line x1="14" y1="20" x2="38" y2="20"/>
      </g>
    </mask>
  </defs>
  <g fill="none" stroke="#7f604c" stroke-width="6" stroke-linecap="square" stroke-linejoin="miter" shape-rendering="crispEdges">
<path d="M6 38 Q6 6 24 6 Q42 6 42 38"/>
    <line x1="6" y1="38" x2="42" y2="38"/>
    <rect x="8" y="8" width="12" height="12" rx="2"/>
    <line x1="14" y1="14" x2="14" y2="38"/>
    <line x1="14" y1="20" x2="38" y2="20"/>
  </g>
  <rect x="0" y="0" width="48" height="48" fill="url(#px)" mask="url(#m)" pointer-events="none"/>
</svg>