<svg xmlns="http://www.w3.org/2000/svg" viewBox="0 0 48 48">
  <defs>
    <pattern id="px" width="4" height="4" patternUnits="userSpaceOnUse">
      <rect width="4" height="4" fill="none"/>
      <rect width="2" height="2" fill="rgba(0,0,0,0.2)"/>
    </pattern>
    <mask id="m">
      <rect x="0" y="0" width="48" height="48" fill="black"/>
      <g fill="none" stroke="white" stroke-width="6" stroke-linecap="square" stroke-linejoin="miter" shape-rendering="crispEdges">
    <polygon points="24,4 28,16 40,12 34,24 46,28 34,32 40,44 28,36 24,48 20,36 8,44 14,32 2,28 14,24 8,12 20,16"/>
    <circle cx="24" cy="26" r="4" fill="currentColor"/>
      </g>
    </mask>
  </defs>
  <g fill="none" stroke="#9c9fc0" stroke-width="6" stroke-linecap="square" stroke-linejoin="miter" shape-rendering="crispEdges">
    <polygon points="24,4 28,16 40,12 34,24 46,28 34,32 40,44 28,36 24,48 20,36 8,44 14,32 2,28 14,24 8,12 20,16"/>
    <circle cx="24" cy="26" r="4" fill="currentColor"/>
  </g>
  <rect x="0" y="0" width="48" height="48" fill="url(#px)" mask="url(#m)" pointer-events="none"/>
</svg>