<svg xmlns="http://www.w3.org/2000/svg" viewBox="0 0 48 48">
  <defs>
    <pattern id="px" width="4" height="4" patternUnits="userSpaceOnUse">
      <rect width="4" height="4" fill="none"/>
      <rect width="2" height="2" fill="rgba(0,0,0,0.2)"/>
    </pattern>
    <mask id="m">
      <rect x="0" y="0" width="48" height="48" fill="black"/>
      <g fill="none" stroke="white" stroke-width="6" stroke-linecap="square" stroke-linejoin="miter" shape-rendering="crispEdges">
<path d="M10 34 Q10 10 24 10 Q30 10 32 14"/><path d="M32 14 L40 10 L36 18"/><circle cx="22" cy="8" r="2"/><path d="M18 30 Q24 36 30 30"/><line x1="24" y1="10" x2="24" y2="6"/>
      </g>
    </mask>
  </defs>
  <g fill="none" stroke="#42bebf" stroke-width="6" stroke-linecap="square" stroke-linejoin="miter" shape-rendering="crispEdges">
<path d="M10 34 Q10 10 24 10 Q30 10 32 14"/><path d="M32 14 L40 10 L36 18"/><circle cx="22" cy="8" r="2"/><path d="M18 30 Q24 36 30 30"/><line x1="24" y1="10" x2="24" y2="6"/>
  </g>
  <rect x="0" y="0" width="48" height="48" fill="url(#px)" mask="url(#m)" pointer-events="none"/>
</svg>