<svg xmlns="http://www.w3.org/2000/svg" viewBox="0 0 48 48">
  <defs>
    <pattern id="px" width="4" height="4" patternUnits="userSpaceOnUse">
      <rect width="4" height="4" fill="none"/>
      <rect width="2" height="2" fill="rgba(0,0,0,0.2)"/>
    </pattern>
    <mask id="m">
      <rect x="0" y="0" width="48" height="48" fill="black"/>
      <g fill="none" stroke="white" stroke-width="6" stroke-linecap="square" stroke-linejoin="miter" shape-rendering="crispEdges">
<circle cx="24" cy="8" r="4"/>
    <line x1="24" y1="12" x2="24" y2="24"/>
    <line x1="24" y1="16" x2="30" y2="12"/>
    <line x1="24" y1="20" x2="14" y2="18"/>
    <path d="M6 28 Q24 34 42 28"/>
    <path d="M6 34 Q24 40 42 34"/>
      </g>
    </mask>
  </defs>
  <g fill="none" stroke="#853d9e" stroke-width="6" stroke-linecap="square" stroke-linejoin="miter" shape-rendering="crispEdges">
<circle cx="24" cy="8" r="4"/>
    <line x1="24" y1="12" x2="24" y2="24"/>
    <line x1="24" y1="16" x2="30" y2="12"/>
    <line x1="24" y1="20" x2="14" y2="18"/>
    <path d="M6 28 Q24 34 42 28"/>
    <path d="M6 34 Q24 40 42 34"/>
  </g>
  <rect x="0" y="0" width="48" height="48" fill="url(#px)" mask="url(#m)" pointer-events="none"/>
</svg>