<svg xmlns="http://www.w3.org/2000/svg" viewBox="0 0 48 48">
  <defs>
    <pattern id="px" width="4" height="4" patternUnits="userSpaceOnUse">
      <rect width="4" height="4" fill="none"/>
      <rect width="2" height="2" fill="rgba(0,0,0,0.2)"/>
    </pattern>
    <mask id="m">
      <rect x="0" y="0" width="48" height="48" fill="black"/>
      <g fill="none" stroke="white" stroke-width="6" stroke-linecap="square" stroke-linejoin="miter" shape-rendering="crispEdges">
    <line x1="8" y1="6" x2="40" y2="6"/>
    <line x1="14" y1="6" x2="14" y2="34"/>
    <line x1="34" y1="6" x2="34" y2="34"/>
    <line x1="12" y1="36" x2="36" y2="36"/>
    <path d="M14 34 L10 38 L18 38 Z M34 34 L30 38 L38 38 Z"/>
      </g>
    </mask>
  </defs>
  <g fill="none" stroke="#e4a8b1" stroke-width="6" stroke-linecap="square" stroke-linejoin="miter" shape-rendering="crispEdges">
    <line x1="8" y1="6" x2="40" y2="6"/>
    <line x1="14" y1="6" x2="14" y2="34"/>
    <line x1="34" y1="6" x2="34" y2="34"/>
    <line x1="12" y1="36" x2="36" y2="36"/>
    <path d="M14 34 L10 38 L18 38 Z M34 34 L30 38 L38 38 Z"/>
  </g>
  <rect x="0" y="0" width="48" height="48" fill="url(#px)" mask="url(#m)" pointer-events="none"/>
</svg>