<svg xmlns="http://www.w3.org/2000/svg" viewBox="0 0 48 48">
  <defs>
    <pattern id="px" width="4" height="4" patternUnits="userSpaceOnUse">
      <rect width="4" height="4" fill="none"/>
      <rect width="2" height="2" fill="rgba(0,0,0,0.2)"/>
    </pattern>
    <mask id="m">
      <rect x="0" y="0" width="48" height="48" fill="black"/>
      <g fill="none" stroke="white" stroke-width="6" stroke-linecap="square" stroke-linejoin="miter" shape-rendering="crispEdges">
    <rect x="6" y="14" width="36" height="26" rx="3"/>
    <rect x="6" y="14" width="36" height="6" rx="2"/>
    <line x1="6" y1="24" x2="42" y2="24 M14 14 L14 40 M22 14 L22 40 M30 14 L30 40 M38 14 L38 40"/>
    <rect x="16" y="28" width="12" height="8" rx="1"/>
      </g>
    </mask>
  </defs>
  <g fill="none" stroke="#c0b2e2" stroke-width="6" stroke-linecap="square" stroke-linejoin="miter" shape-rendering="crispEdges">
    <rect x="6" y="14" width="36" height="26" rx="3"/>
    <rect x="6" y="14" width="36" height="6" rx="2"/>
    <line x1="6" y1="24" x2="42" y2="24 M14 14 L14 40 M22 14 L22 40 M30 14 L30 40 M38 14 L38 40"/>
    <rect x="16" y="28" width="12" height="8" rx="1"/>
  </g>
  <rect x="0" y="0" width="48" height="48" fill="url(#px)" mask="url(#m)" pointer-events="none"/>
</svg>