<svg xmlns="http://www.w3.org/2000/svg" viewBox="0 0 48 48">
  <defs>
    <pattern id="px" width="4" height="4" patternUnits="userSpaceOnUse">
      <rect width="4" height="4" fill="none"/>
      <rect width="2" height="2" fill="rgba(0,0,0,0.2)"/>
    </pattern>
    <mask id="m">
      <rect x="0" y="0" width="48" height="48" fill="black"/>
      <g fill="none" stroke="white" stroke-width="6" stroke-linecap="square" stroke-linejoin="miter" shape-rendering="crispEdges">
<path d="M6 24 Q6 6 24 6 Q42 6 42 24 Z"/>
    <path d="M6 24 L42 24 L38 38 L10 38 Z"/>
    <line x1="10" y1="24" x2="14" y2="14"/>
    <line x1="20" y1="24" x2="20" y2="14"/>
    <line x1="30" y1="24" x2="28" y2="14"/>
      </g>
    </mask>
  </defs>
  <g fill="none" stroke="#a5638a" stroke-width="6" stroke-linecap="square" stroke-linejoin="miter" shape-rendering="crispEdges">
<path d="M6 24 Q6 6 24 6 Q42 6 42 24 Z"/>
    <path d="M6 24 L42 24 L38 38 L10 38 Z"/>
    <line x1="10" y1="24" x2="14" y2="14"/>
    <line x1="20" y1="24" x2="20" y2="14"/>
    <line x1="30" y1="24" x2="28" y2="14"/>
  </g>
  <rect x="0" y="0" width="48" height="48" fill="url(#px)" mask="url(#m)" pointer-events="none"/>
</svg>