<svg xmlns="http://www.w3.org/2000/svg" viewBox="0 0 48 48">
  <defs>
    <pattern id="px" width="4" height="4" patternUnits="userSpaceOnUse">
      <rect width="4" height="4" fill="none"/>
      <rect width="2" height="2" fill="rgba(0,0,0,0.2)"/>
    </pattern>
    <mask id="m">
      <rect x="0" y="0" width="48" height="48" fill="black"/>
      <g fill="none" stroke="white" stroke-width="6" stroke-linecap="square" stroke-linejoin="miter" shape-rendering="crispEdges">
    <rect x="4" y="24" width="40" height="14" rx="4"/>
    <ellipse cx="24" cy="38" rx="14" ry="6"/>
    <rect x="18" y="10" width="12" height="14" rx="3"/>
    <line x1="18" y1="14" x2="42" y2="14" stroke-width="3"/>
    <circle cx="20" cy="34" r="3"/>
    <circle cx="28" cy="34" r="3"/>
      </g>
    </mask>
  </defs>
  <g fill="none" stroke="#c5cdb7" stroke-width="6" stroke-linecap="square" stroke-linejoin="miter" shape-rendering="crispEdges">
    <rect x="4" y="24" width="40" height="14" rx="4"/>
    <ellipse cx="24" cy="38" rx="14" ry="6"/>
    <rect x="18" y="10" width="12" height="14" rx="3"/>
    <line x1="18" y1="14" x2="42" y2="14" stroke-width="3"/>
    <circle cx="20" cy="34" r="3"/>
    <circle cx="28" cy="34" r="3"/>
  </g>
  <rect x="0" y="0" width="48" height="48" fill="url(#px)" mask="url(#m)" pointer-events="none"/>
</svg>