<svg xmlns="http://www.w3.org/2000/svg" viewBox="0 0 48 48">
  <defs>
    <pattern id="px" width="4" height="4" patternUnits="userSpaceOnUse">
      <rect width="4" height="4" fill="none"/>
      <rect width="2" height="2" fill="rgba(0,0,0,0.2)"/>
    </pattern>
    <mask id="m">
      <rect x="0" y="0" width="48" height="48" fill="black"/>
      <g fill="none" stroke="white" stroke-width="6" stroke-linecap="square" stroke-linejoin="miter" shape-rendering="crispEdges">
    <line x1="10" y1="34" x2="40" y2="6"/>
    <rect x="6" y="30" width="10" height="10" rx="3" transform="rotate(-45 11 35)"/>
    <rect x="13" y="22" width="8" height="8" rx="2" transform="rotate(-45 17 26)"/>
    <rect x="22" y="12" width="6" height="6" rx="1" transform="rotate(-45 25 15)"/>
      </g>
    </mask>
  </defs>
  <g fill="none" stroke="#dbc2cb" stroke-width="6" stroke-linecap="square" stroke-linejoin="miter" shape-rendering="crispEdges">
    <line x1="10" y1="34" x2="40" y2="6"/>
    <rect x="6" y="30" width="10" height="10" rx="3" transform="rotate(-45 11 35)"/>
    <rect x="13" y="22" width="8" height="8" rx="2" transform="rotate(-45 17 26)"/>
    <rect x="22" y="12" width="6" height="6" rx="1" transform="rotate(-45 25 15)"/>
  </g>
  <rect x="0" y="0" width="48" height="48" fill="url(#px)" mask="url(#m)" pointer-events="none"/>
</svg>