<svg xmlns="http://www.w3.org/2000/svg" viewBox="0 0 48 48">
  <defs>
    <pattern id="px" width="4" height="4" patternUnits="userSpaceOnUse">
      <rect width="4" height="4" fill="none"/>
      <rect width="2" height="2" fill="rgba(0,0,0,0.2)"/>
    </pattern>
    <mask id="m">
      <rect x="0" y="0" width="48" height="48" fill="black"/>
      <g fill="none" stroke="white" stroke-width="6" stroke-linecap="square" stroke-linejoin="miter" shape-rendering="crispEdges">
<path d="M24 42 Q12 28 18 18 Q22 10 24 4 Q28 12 30 20 Q36 30 24 42 Z"/>
    <path d="M20 38 Q16 30 22 26 Q24 22 24 18 Q26 24 28 28 Q34 32 24 38 Z"/>
      </g>
    </mask>
  </defs>
  <g fill="none" stroke="#c6985b" stroke-width="6" stroke-linecap="square" stroke-linejoin="miter" shape-rendering="crispEdges">
<path d="M24 42 Q12 28 18 18 Q22 10 24 4 Q28 12 30 20 Q36 30 24 42 Z"/>
    <path d="M20 38 Q16 30 22 26 Q24 22 24 18 Q26 24 28 28 Q34 32 24 38 Z"/>
  </g>
  <rect x="0" y="0" width="48" height="48" fill="url(#px)" mask="url(#m)" pointer-events="none"/>
</svg>