<svg xmlns="http://www.w3.org/2000/svg" viewBox="0 0 48 48">
  <defs>
    <pattern id="px" width="4" height="4" patternUnits="userSpaceOnUse">
      <rect width="4" height="4" fill="none"/>
      <rect width="2" height="2" fill="rgba(0,0,0,0.2)"/>
    </pattern>
    <mask id="m">
      <rect x="0" y="0" width="48" height="48" fill="black"/>
      <g fill="none" stroke="white" stroke-width="6" stroke-linecap="square" stroke-linejoin="miter" shape-rendering="crispEdges">
    <ellipse cx="24" cy="26" rx="16" ry="8"/>
    <ellipse cx="18" cy="20" rx="10" ry="6"/>
    <ellipse cx="30" cy="20" rx="8" ry="5"/>
    <polygon points="22,28 18,38 24,38 20,44 30,34 24,34 28,28"/>
      </g>
    </mask>
  </defs>
  <g fill="none" stroke="#deaec9" stroke-width="6" stroke-linecap="square" stroke-linejoin="miter" shape-rendering="crispEdges">
    <ellipse cx="24" cy="26" rx="16" ry="8"/>
    <ellipse cx="18" cy="20" rx="10" ry="6"/>
    <ellipse cx="30" cy="20" rx="8" ry="5"/>
    <polygon points="22,28 18,38 24,38 20,44 30,34 24,34 28,28"/>
  </g>
  <rect x="0" y="0" width="48" height="48" fill="url(#px)" mask="url(#m)" pointer-events="none"/>
</svg>