<svg xmlns="http://www.w3.org/2000/svg" viewBox="0 0 48 48">
  <defs>
    <pattern id="px" width="4" height="4" patternUnits="userSpaceOnUse">
      <rect width="4" height="4" fill="none"/>
      <rect width="2" height="2" fill="rgba(0,0,0,0.2)"/>
    </pattern>
    <mask id="m">
      <rect x="0" y="0" width="48" height="48" fill="black"/>
      <g fill="none" stroke="white" stroke-width="6" stroke-linecap="square" stroke-linejoin="miter" shape-rendering="crispEdges">
    <path d="M24 44 L24 20 Q20 12 12 10 Q8 8 10 4 Q14 2 18 8 Q22 12 24 12 Q26 8 30 4 Q34 6 32 10 Q28 14 24 20"/>
    <line x1="24" y1="44" x2="24" y2="20"/>
      </g>
    </mask>
  </defs>
  <g fill="none" stroke="#c6badb" stroke-width="6" stroke-linecap="square" stroke-linejoin="miter" shape-rendering="crispEdges">
    <path d="M24 44 L24 20 Q20 12 12 10 Q8 8 10 4 Q14 2 18 8 Q22 12 24 12 Q26 8 30 4 Q34 6 32 10 Q28 14 24 20"/>
    <line x1="24" y1="44" x2="24" y2="20"/>
  </g>
  <rect x="0" y="0" width="48" height="48" fill="url(#px)" mask="url(#m)" pointer-events="none"/>
</svg>