<svg xmlns="http://www.w3.org/2000/svg" viewBox="0 0 48 48">
  <defs>
    <pattern id="px" width="4" height="4" patternUnits="userSpaceOnUse">
      <rect width="4" height="4" fill="none"/>
      <rect width="2" height="2" fill="rgba(0,0,0,0.2)"/>
    </pattern>
    <mask id="m">
      <rect x="0" y="0" width="48" height="48" fill="black"/>
      <g fill="none" stroke="white" stroke-width="6" stroke-linecap="square" stroke-linejoin="miter" shape-rendering="crispEdges">
    <path d="M4 30 Q8 14 14 20 Q20 26 24 14 Q28 26 34 20 Q40 14 44 30 L44 38 L4 38 Z"/>
    <circle cx="10" cy="20" r="2" fill="currentColor"/>
    <circle cx="24" cy="16" r="2" fill="currentColor"/>
    <circle cx="38" cy="20" r="2" fill="currentColor"/>
      </g>
    </mask>
  </defs>
  <g fill="none" stroke="#a99fcb" stroke-width="6" stroke-linecap="square" stroke-linejoin="miter" shape-rendering="crispEdges">
    <path d="M4 30 Q8 14 14 20 Q20 26 24 14 Q28 26 34 20 Q40 14 44 30 L44 38 L4 38 Z"/>
    <circle cx="10" cy="20" r="2" fill="currentColor"/>
    <circle cx="24" cy="16" r="2" fill="currentColor"/>
    <circle cx="38" cy="20" r="2" fill="currentColor"/>
  </g>
  <rect x="0" y="0" width="48" height="48" fill="url(#px)" mask="url(#m)" pointer-events="none"/>
</svg>