<svg xmlns="http://www.w3.org/2000/svg" viewBox="0 0 48 48">
  <defs>
    <pattern id="px" width="4" height="4" patternUnits="userSpaceOnUse">
      <rect width="4" height="4" fill="none"/>
      <rect width="2" height="2" fill="rgba(0,0,0,0.2)"/>
    </pattern>
    <mask id="m">
      <rect x="0" y="0" width="48" height="48" fill="black"/>
      <g fill="none" stroke="white" stroke-width="6" stroke-linecap="square" stroke-linejoin="miter" shape-rendering="crispEdges">
    <path d="M4 10 Q12 6 16 14 Q20 22 28 18 Q36 14 44 22"/>
    <path d="M8 18 Q16 14 20 22 Q24 30 32 26 Q40 22 44 30"/>
    <circle cx="8" cy="10" r="2" fill="currentColor"/>
    <circle cx="28" cy="18" r="2" fill="currentColor"/>
    <circle cx="44" cy="22" r="2" fill="currentColor"/>
      </g>
    </mask>
  </defs>
  <g fill="none" stroke="#9fc4af" stroke-width="6" stroke-linecap="square" stroke-linejoin="miter" shape-rendering="crispEdges">
    <path d="M4 10 Q12 6 16 14 Q20 22 28 18 Q36 14 44 22"/>
    <path d="M8 18 Q16 14 20 22 Q24 30 32 26 Q40 22 44 30"/>
    <circle cx="8" cy="10" r="2" fill="currentColor"/>
    <circle cx="28" cy="18" r="2" fill="currentColor"/>
    <circle cx="44" cy="22" r="2" fill="currentColor"/>
  </g>
  <rect x="0" y="0" width="48" height="48" fill="url(#px)" mask="url(#m)" pointer-events="none"/>
</svg>