<svg xmlns="http://www.w3.org/2000/svg" viewBox="0 0 48 48">
  <defs>
    <pattern id="px" width="4" height="4" patternUnits="userSpaceOnUse">
      <rect width="4" height="4" fill="none"/>
      <rect width="2" height="2" fill="rgba(0,0,0,0.2)"/>
    </pattern>
    <mask id="m">
      <rect x="0" y="0" width="48" height="48" fill="black"/>
      <g fill="none" stroke="white" stroke-width="6" stroke-linecap="square" stroke-linejoin="miter" shape-rendering="crispEdges">
    <rect x="14" y="8" width="20" height="28" rx="4"/>
    <rect x="16" y="4" width="16" height="6" rx="2"/>
    <ellipse cx="24" cy="36" rx="6" ry="3"/>
    <line x1="16" y1="16" x2="32" y2="16 M16 22 L32 22 M16 28 L32 28"/>
      </g>
    </mask>
  </defs>
  <g fill="none" stroke="#afccb5" stroke-width="6" stroke-linecap="square" stroke-linejoin="miter" shape-rendering="crispEdges">
    <rect x="14" y="8" width="20" height="28" rx="4"/>
    <rect x="16" y="4" width="16" height="6" rx="2"/>
    <ellipse cx="24" cy="36" rx="6" ry="3"/>
    <line x1="16" y1="16" x2="32" y2="16 M16 22 L32 22 M16 28 L32 28"/>
  </g>
  <rect x="0" y="0" width="48" height="48" fill="url(#px)" mask="url(#m)" pointer-events="none"/>
</svg>