<svg xmlns="http://www.w3.org/2000/svg" viewBox="0 0 48 48">
  <defs>
    <pattern id="px" width="4" height="4" patternUnits="userSpaceOnUse">
      <rect width="4" height="4" fill="none"/>
      <rect width="2" height="2" fill="rgba(0,0,0,0.2)"/>
    </pattern>
    <mask id="m">
      <rect x="0" y="0" width="48" height="48" fill="black"/>
      <g fill="none" stroke="white" stroke-width="6" stroke-linecap="square" stroke-linejoin="miter" shape-rendering="crispEdges">
<line x1="14" y1="8" x2="14" y2="40"/><line x1="18" y1="8" x2="18" y2="40"/><line x1="22" y1="8" x2="22" y2="40"/><rect x="10" y="8" width="16" height="6" rx="2"/><line x1="30" y1="12" x2="38" y2="12"/><line x1="34" y1="12" x2="34" y2="20"/><circle cx="34" cy="22" r="2"/>
      </g>
    </mask>
  </defs>
  <g fill="none" stroke="#a53a5e" stroke-width="6" stroke-linecap="square" stroke-linejoin="miter" shape-rendering="crispEdges">
<line x1="14" y1="8" x2="14" y2="40"/><line x1="18" y1="8" x2="18" y2="40"/><line x1="22" y1="8" x2="22" y2="40"/><rect x="10" y="8" width="16" height="6" rx="2"/><line x1="30" y1="12" x2="38" y2="12"/><line x1="34" y1="12" x2="34" y2="20"/><circle cx="34" cy="22" r="2"/>
  </g>
  <rect x="0" y="0" width="48" height="48" fill="url(#px)" mask="url(#m)" pointer-events="none"/>
</svg>