<svg xmlns="http://www.w3.org/2000/svg" viewBox="0 0 48 48">
  <defs>
    <pattern id="px" width="4" height="4" patternUnits="userSpaceOnUse">
      <rect width="4" height="4" fill="none"/>
      <rect width="2" height="2" fill="rgba(0,0,0,0.2)"/>
    </pattern>
    <mask id="m">
      <rect x="0" y="0" width="48" height="48" fill="black"/>
      <g fill="none" stroke="white" stroke-width="6" stroke-linecap="square" stroke-linejoin="miter" shape-rendering="crispEdges">
    <path d="M10 14 L10 42 Q10 44 14 44 L34 44 Q38 44 38 42 L38 14 Z"/>
    <path d="M10 14 L14 6 L34 6 L38 14"/>
    <line x1="14" y1="22" x2="34" y2="22 M14 30 L34 30 M14 38 L34 38"/>
      </g>
    </mask>
  </defs>
  <g fill="none" stroke="#c9b2bc" stroke-width="6" stroke-linecap="square" stroke-linejoin="miter" shape-rendering="crispEdges">
    <path d="M10 14 L10 42 Q10 44 14 44 L34 44 Q38 44 38 42 L38 14 Z"/>
    <path d="M10 14 L14 6 L34 6 L38 14"/>
    <line x1="14" y1="22" x2="34" y2="22 M14 30 L34 30 M14 38 L34 38"/>
  </g>
  <rect x="0" y="0" width="48" height="48" fill="url(#px)" mask="url(#m)" pointer-events="none"/>
</svg>