<svg xmlns="http://www.w3.org/2000/svg" viewBox="0 0 48 48">
  <defs>
    <pattern id="px" width="4" height="4" patternUnits="userSpaceOnUse">
      <rect width="4" height="4" fill="none"/>
      <rect width="2" height="2" fill="rgba(0,0,0,0.2)"/>
    </pattern>
    <mask id="m">
      <rect x="0" y="0" width="48" height="48" fill="black"/>
      <g fill="none" stroke="white" stroke-width="6" stroke-linecap="square" stroke-linejoin="miter" shape-rendering="crispEdges">
    <rect x="2" y="20" width="30" height="18" rx="4"/>
    <rect x="26" y="14" width="18" height="6" rx="2"/>
    <path d="M32 20 L40 14 L44 20"/>
    <circle cx="12" cy="38" r="5"/>
    <circle cx="36" cy="38" r="5"/>
    <line x1="44" y1="16" x2="44" y2="38"/>
      </g>
    </mask>
  </defs>
  <g fill="none" stroke="#b5a5c7" stroke-width="6" stroke-linecap="square" stroke-linejoin="miter" shape-rendering="crispEdges">
    <rect x="2" y="20" width="30" height="18" rx="4"/>
    <rect x="26" y="14" width="18" height="6" rx="2"/>
    <path d="M32 20 L40 14 L44 20"/>
    <circle cx="12" cy="38" r="5"/>
    <circle cx="36" cy="38" r="5"/>
    <line x1="44" y1="16" x2="44" y2="38"/>
  </g>
  <rect x="0" y="0" width="48" height="48" fill="url(#px)" mask="url(#m)" pointer-events="none"/>
</svg>