<svg xmlns="http://www.w3.org/2000/svg" viewBox="0 0 48 48">
  <defs>
    <pattern id="px" width="4" height="4" patternUnits="userSpaceOnUse">
      <rect width="4" height="4" fill="none"/>
      <rect width="2" height="2" fill="rgba(0,0,0,0.2)"/>
    </pattern>
    <mask id="m">
      <rect x="0" y="0" width="48" height="48" fill="black"/>
      <g fill="none" stroke="white" stroke-width="6" stroke-linecap="square" stroke-linejoin="miter" shape-rendering="crispEdges">
    <rect x="6" y="8" width="36" height="34" rx="2"/>
    <rect x="6" y="8" width="36" height="6" rx="2"/>
    <line x1="10" y1="18" x2="38" y2="18 M12 24 L36 24 M14 30 L34 30 M16 36 L32 36"/>
      </g>
    </mask>
  </defs>
  <g fill="none" stroke="#a9bcda" stroke-width="6" stroke-linecap="square" stroke-linejoin="miter" shape-rendering="crispEdges">
    <rect x="6" y="8" width="36" height="34" rx="2"/>
    <rect x="6" y="8" width="36" height="6" rx="2"/>
    <line x1="10" y1="18" x2="38" y2="18 M12 24 L36 24 M14 30 L34 30 M16 36 L32 36"/>
  </g>
  <rect x="0" y="0" width="48" height="48" fill="url(#px)" mask="url(#m)" pointer-events="none"/>
</svg>