<svg xmlns="http://www.w3.org/2000/svg" viewBox="0 0 48 48">
  <defs>
    <pattern id="px" width="4" height="4" patternUnits="userSpaceOnUse">
      <rect width="4" height="4" fill="none"/>
      <rect width="2" height="2" fill="rgba(0,0,0,0.2)"/>
    </pattern>
    <mask id="m">
      <rect x="0" y="0" width="48" height="48" fill="black"/>
      <g fill="none" stroke="white" stroke-width="6" stroke-linecap="square" stroke-linejoin="miter" shape-rendering="crispEdges">
    <rect x="4" y="16" width="40" height="20" rx="6"/>
    <rect x="10" y="10" width="28" height="6" rx="3"/>
    <rect x="8" y="20" width="10" height="10" rx="2"/>
    <rect x="20" y="20" width="10" height="10" rx="2"/>
    <rect x="32" y="20" width="8" height="10" rx="2"/>
    <circle cx="14" cy="36" r="4"/>
    <circle cx="34" cy="36" r="4"/>
      </g>
    </mask>
  </defs>
  <g fill="none" stroke="#b5c4a7" stroke-width="6" stroke-linecap="square" stroke-linejoin="miter" shape-rendering="crispEdges">
    <rect x="4" y="16" width="40" height="20" rx="6"/>
    <rect x="10" y="10" width="28" height="6" rx="3"/>
    <rect x="8" y="20" width="10" height="10" rx="2"/>
    <rect x="20" y="20" width="10" height="10" rx="2"/>
    <rect x="32" y="20" width="8" height="10" rx="2"/>
    <circle cx="14" cy="36" r="4"/>
    <circle cx="34" cy="36" r="4"/>
  </g>
  <rect x="0" y="0" width="48" height="48" fill="url(#px)" mask="url(#m)" pointer-events="none"/>
</svg>