<svg xmlns="http://www.w3.org/2000/svg" viewBox="0 0 48 48">
  <defs>
    <pattern id="px" width="4" height="4" patternUnits="userSpaceOnUse">
      <rect width="4" height="4" fill="none"/>
      <rect width="2" height="2" fill="rgba(0,0,0,0.2)"/>
    </pattern>
    <mask id="m">
      <rect x="0" y="0" width="48" height="48" fill="black"/>
      <g fill="none" stroke="white" stroke-width="6" stroke-linecap="square" stroke-linejoin="miter" shape-rendering="crispEdges">
    <path d="M10 18 L38 18 L36 42 L12 42 Z"/>
        <line x1="8" y1="14" x2="40" y2="14"/>
        <line x1="18" y1="10" x2="30" y2="10"/>
        <line x1="18" y1="24" x2="18" y2="38"/>
        <line x1="24" y1="24" x2="24" y2="38"/>
        <line x1="30" y1="24" x2="30" y2="38"/>
      </g>
    </mask>
  </defs>
  <g fill="none" stroke="#424242" stroke-width="6" stroke-linecap="square" stroke-linejoin="miter" shape-rendering="crispEdges">
    <path d="M10 18 L38 18 L36 42 L12 42 Z"/>
        <line x1="8" y1="14" x2="40" y2="14"/>
        <line x1="18" y1="10" x2="30" y2="10"/>
        <line x1="18" y1="24" x2="18" y2="38"/>
        <line x1="24" y1="24" x2="24" y2="38"/>
        <line x1="30" y1="24" x2="30" y2="38"/>
  </g>
  <rect x="0" y="0" width="48" height="48" fill="url(#px)" mask="url(#m)" pointer-events="none"/>
</svg>