<svg xmlns="http://www.w3.org/2000/svg" viewBox="0 0 48 48">
  <defs>
    <pattern id="px" width="4" height="4" patternUnits="userSpaceOnUse">
      <rect width="4" height="4" fill="none"/>
      <rect width="2" height="2" fill="rgba(0,0,0,0.2)"/>
    </pattern>
    <mask id="m">
      <rect x="0" y="0" width="48" height="48" fill="black"/>
      <g fill="none" stroke="white" stroke-width="6" stroke-linecap="square" stroke-linejoin="miter" shape-rendering="crispEdges">
<line x1="24" y1="8" x2="24" y2="24"/>
    <path d="M12 24 Q12 16 24 16 Q36 16 36 24"/>
    <line x1="12" y1="24" x2="36" y2="24"/>
    <circle cx="24" cy="32" r="1.5"/>
    <rect x="14" y="30" width="4" height="14" rx="1"/>
    <rect x="30" y="30" width="4" height="14" rx="1"/>
      </g>
    </mask>
  </defs>
  <g fill="none" stroke="#818752" stroke-width="6" stroke-linecap="square" stroke-linejoin="miter" shape-rendering="crispEdges">
<line x1="24" y1="8" x2="24" y2="24"/>
    <path d="M12 24 Q12 16 24 16 Q36 16 36 24"/>
    <line x1="12" y1="24" x2="36" y2="24"/>
    <circle cx="24" cy="32" r="1.5"/>
    <rect x="14" y="30" width="4" height="14" rx="1"/>
    <rect x="30" y="30" width="4" height="14" rx="1"/>
  </g>
  <rect x="0" y="0" width="48" height="48" fill="url(#px)" mask="url(#m)" pointer-events="none"/>
</svg>