<svg xmlns="http://www.w3.org/2000/svg" viewBox="0 0 48 48">
  <defs>
    <pattern id="px" width="4" height="4" patternUnits="userSpaceOnUse">
      <rect width="4" height="4" fill="none"/>
      <rect width="2" height="2" fill="rgba(0,0,0,0.2)"/>
    </pattern>
    <mask id="m">
      <rect x="0" y="0" width="48" height="48" fill="black"/>
      <g fill="none" stroke="white" stroke-width="6" stroke-linecap="square" stroke-linejoin="miter" shape-rendering="crispEdges">
    <path d="M6 30 L6 18 Q6 10 16 10 L20 10 L22 14 L22 30 Z"/>
    <rect x="22" y="12" width="20" height="18" rx="2"/>
    <circle cx="16" cy="32" r="4.5" fill="white"/>
    <circle cx="36" cy="32" r="4.5" fill="white"/>
      </g>
    </mask>
  </defs>
  <g fill="none" stroke="#26A69A" stroke-width="6" stroke-linecap="square" stroke-linejoin="miter" shape-rendering="crispEdges">
    <path d="M6 30 L6 18 Q6 10 16 10 L20 10 L22 14 L22 30 Z"/>
    <rect x="22" y="12" width="20" height="18" rx="2"/>
    <circle cx="16" cy="32" r="4.5" fill="#26A69A"/>
    <circle cx="36" cy="32" r="4.5" fill="#26A69A"/>
  </g>
  <rect x="0" y="0" width="48" height="48" fill="url(#px)" mask="url(#m)" pointer-events="none"/>
</svg>