<svg xmlns="http://www.w3.org/2000/svg" viewBox="0 0 48 48">
  <defs>
    <pattern id="px" width="4" height="4" patternUnits="userSpaceOnUse">
      <rect width="4" height="4" fill="none"/>
      <rect width="2" height="2" fill="rgba(0,0,0,0.2)"/>
    </pattern>
    <mask id="m">
      <rect x="0" y="0" width="48" height="48" fill="black"/>
      <g fill="none" stroke="white" stroke-width="6" stroke-linecap="square" stroke-linejoin="miter" shape-rendering="crispEdges">
    <path d="M4 30 Q24 18 44 30 L38 44 L10 44 Z"/>
    <rect x="6" y="30" width="36" height="4" rx="2"/>
    <rect x="6" y="18" width="10" height="14" rx="2"/>
    <circle cx="30" cy="24" r="4"/>
    <line x1="24" y1="30" x2="24" y2="44"/>
      </g>
    </mask>
  </defs>
  <g fill="none" stroke="#dec5c3" stroke-width="6" stroke-linecap="square" stroke-linejoin="miter" shape-rendering="crispEdges">
    <path d="M4 30 Q24 18 44 30 L38 44 L10 44 Z"/>
    <rect x="6" y="30" width="36" height="4" rx="2"/>
    <rect x="6" y="18" width="10" height="14" rx="2"/>
    <circle cx="30" cy="24" r="4"/>
    <line x1="24" y1="30" x2="24" y2="44"/>
  </g>
  <rect x="0" y="0" width="48" height="48" fill="url(#px)" mask="url(#m)" pointer-events="none"/>
</svg>