<svg xmlns="http://www.w3.org/2000/svg" viewBox="0 0 48 48">
  <defs>
    <pattern id="px" width="4" height="4" patternUnits="userSpaceOnUse">
      <rect width="4" height="4" fill="none"/>
      <rect width="2" height="2" fill="rgba(0,0,0,0.2)"/>
    </pattern>
    <mask id="m">
      <rect x="0" y="0" width="48" height="48" fill="black"/>
      <g fill="none" stroke="white" stroke-width="6" stroke-linecap="square" stroke-linejoin="miter" shape-rendering="crispEdges">
    <path d="M24 6 L16 18 Q16 28 20 32 L24 38 L28 32 Q32 28 32 18 Z"/>
    <line x1="24" y1="38" x2="24" y2="44"/>
    <ellipse cx="24" cy="44" rx="4" ry="2"/>
      </g>
    </mask>
  </defs>
  <g fill="none" stroke="#e3d7c1" stroke-width="6" stroke-linecap="square" stroke-linejoin="miter" shape-rendering="crispEdges">
    <path d="M24 6 L16 18 Q16 28 20 32 L24 38 L28 32 Q32 28 32 18 Z"/>
    <line x1="24" y1="38" x2="24" y2="44"/>
    <ellipse cx="24" cy="44" rx="4" ry="2"/>
  </g>
  <rect x="0" y="0" width="48" height="48" fill="url(#px)" mask="url(#m)" pointer-events="none"/>
</svg>