<svg xmlns="http://www.w3.org/2000/svg" viewBox="0 0 48 48">
  <defs>
    <pattern id="px" width="4" height="4" patternUnits="userSpaceOnUse">
      <rect width="4" height="4" fill="none"/>
      <rect width="2" height="2" fill="rgba(0,0,0,0.2)"/>
    </pattern>
    <mask id="m">
      <rect x="0" y="0" width="48" height="48" fill="black"/>
      <g fill="none" stroke="white" stroke-width="6" stroke-linecap="square" stroke-linejoin="miter" shape-rendering="crispEdges">
<line x1="14" y1="6" x2="14" y2="42"/>
    <line x1="14" y1="6" x2="34" y2="6"/>
    <line x1="14" y1="42" x2="30" y2="42"/>
    <ellipse cx="34" cy="24" rx="6" ry="10"/>
    <line x1="30" y1="14" x2="38" y2="14"/>
    <line x1="30" y1="34" x2="38" y2="34"/>
      </g>
    </mask>
  </defs>
  <g fill="none" stroke="#51967d" stroke-width="6" stroke-linecap="square" stroke-linejoin="miter" shape-rendering="crispEdges">
<line x1="14" y1="6" x2="14" y2="42"/>
    <line x1="14" y1="6" x2="34" y2="6"/>
    <line x1="14" y1="42" x2="30" y2="42"/>
    <ellipse cx="34" cy="24" rx="6" ry="10"/>
    <line x1="30" y1="14" x2="38" y2="14"/>
    <line x1="30" y1="34" x2="38" y2="34"/>
  </g>
  <rect x="0" y="0" width="48" height="48" fill="url(#px)" mask="url(#m)" pointer-events="none"/>
</svg>