<svg xmlns="http://www.w3.org/2000/svg" viewBox="0 0 48 48">
  <defs>
    <pattern id="px" width="4" height="4" patternUnits="userSpaceOnUse">
      <rect width="4" height="4" fill="none"/>
      <rect width="2" height="2" fill="rgba(0,0,0,0.2)"/>
    </pattern>
    <mask id="m">
      <rect x="0" y="0" width="48" height="48" fill="black"/>
      <g fill="none" stroke="white" stroke-width="6" stroke-linecap="square" stroke-linejoin="miter" shape-rendering="crispEdges">
    <ellipse cx="24" cy="28" rx="10" ry="10"/>
    <path d="M24 18 Q24 10 20 6 Q24 12 28 6 Q24 10 24 18"/>
    <line x1="24" y1="18" x2="24" y2="8"/>
    <path d="M14 24 L8 20 M34 24 L40 20"/>
      </g>
    </mask>
  </defs>
  <g fill="none" stroke="#b9d4c0" stroke-width="6" stroke-linecap="square" stroke-linejoin="miter" shape-rendering="crispEdges">
    <ellipse cx="24" cy="28" rx="10" ry="10"/>
    <path d="M24 18 Q24 10 20 6 Q24 12 28 6 Q24 10 24 18"/>
    <line x1="24" y1="18" x2="24" y2="8"/>
    <path d="M14 24 L8 20 M34 24 L40 20"/>
  </g>
  <rect x="0" y="0" width="48" height="48" fill="url(#px)" mask="url(#m)" pointer-events="none"/>
</svg>