<svg xmlns="http://www.w3.org/2000/svg" viewBox="0 0 48 48">
  <defs>
    <pattern id="px" width="4" height="4" patternUnits="userSpaceOnUse">
      <rect width="4" height="4" fill="none"/>
      <rect width="2" height="2" fill="rgba(0,0,0,0.2)"/>
    </pattern>
    <mask id="m">
      <rect x="0" y="0" width="48" height="48" fill="black"/>
      <g fill="none" stroke="white" stroke-width="6" stroke-linecap="square" stroke-linejoin="miter" shape-rendering="crispEdges">
<ellipse cx="24" cy="24" rx="10" ry="14"/>
    <path d="M14 14 Q24 4 34 14"/>
    <line x1="18" y1="4" x2="22" y2="12"/>
    <line x1="30" y1="4" x2="26" y2="12"/>
    <circle cx="16" cy="22" r="2"/><circle cx="32" cy="22" r="2"/>
    <circle cx="24" cy="28" r="2"/>
      </g>
    </mask>
  </defs>
  <g fill="none" stroke="#c14567" stroke-width="6" stroke-linecap="square" stroke-linejoin="miter" shape-rendering="crispEdges">
<ellipse cx="24" cy="24" rx="10" ry="14"/>
    <path d="M14 14 Q24 4 34 14"/>
    <line x1="18" y1="4" x2="22" y2="12"/>
    <line x1="30" y1="4" x2="26" y2="12"/>
    <circle cx="16" cy="22" r="2"/><circle cx="32" cy="22" r="2"/>
    <circle cx="24" cy="28" r="2"/>
  </g>
  <rect x="0" y="0" width="48" height="48" fill="url(#px)" mask="url(#m)" pointer-events="none"/>
</svg>