<svg xmlns="http://www.w3.org/2000/svg" viewBox="0 0 48 48">
  <defs>
    <pattern id="px" width="4" height="4" patternUnits="userSpaceOnUse">
      <rect width="4" height="4" fill="none"/>
      <rect width="2" height="2" fill="rgba(0,0,0,0.2)"/>
    </pattern>
    <mask id="m">
      <rect x="0" y="0" width="48" height="48" fill="black"/>
      <g fill="none" stroke="white" stroke-width="6" stroke-linecap="square" stroke-linejoin="miter" shape-rendering="crispEdges">
    <path d="M4 8 L16 34 L24 14 L32 34 L44 8"/>
    <path d="M4 8 L44 8"/>
    <path d="M16 34 L16 44 M32 34 L32 44"/>
    <line x1="4" y1="8" x2="44" y2="8"/>
      </g>
    </mask>
  </defs>
  <g fill="none" stroke="#c5beae" stroke-width="6" stroke-linecap="square" stroke-linejoin="miter" shape-rendering="crispEdges">
    <path d="M4 8 L16 34 L24 14 L32 34 L44 8"/>
    <path d="M4 8 L44 8"/>
    <path d="M16 34 L16 44 M32 34 L32 44"/>
    <line x1="4" y1="8" x2="44" y2="8"/>
  </g>
  <rect x="0" y="0" width="48" height="48" fill="url(#px)" mask="url(#m)" pointer-events="none"/>
</svg>