<svg xmlns="http://www.w3.org/2000/svg" viewBox="0 0 48 48">
  <defs>
    <pattern id="px" width="4" height="4" patternUnits="userSpaceOnUse">
      <rect width="4" height="4" fill="none"/>
      <rect width="2" height="2" fill="rgba(0,0,0,0.2)"/>
    </pattern>
    <mask id="m">
      <rect x="0" y="0" width="48" height="48" fill="black"/>
      <g fill="none" stroke="white" stroke-width="6" stroke-linecap="square" stroke-linejoin="miter" shape-rendering="crispEdges">
    <path d="M14 44 Q8 30 14 20 Q20 10 30 14 Q40 18 36 28 Q32 38 26 44 Z"/>
    <line x1="14" y1="44" x2="26" y2="44"/>
    <line x1="20" y1="18" x2="28" y2="22 M18 24 L26 28"/>
      </g>
    </mask>
  </defs>
  <g fill="none" stroke="#c6a6bf" stroke-width="6" stroke-linecap="square" stroke-linejoin="miter" shape-rendering="crispEdges">
    <path d="M14 44 Q8 30 14 20 Q20 10 30 14 Q40 18 36 28 Q32 38 26 44 Z"/>
    <line x1="14" y1="44" x2="26" y2="44"/>
    <line x1="20" y1="18" x2="28" y2="22 M18 24 L26 28"/>
  </g>
  <rect x="0" y="0" width="48" height="48" fill="url(#px)" mask="url(#m)" pointer-events="none"/>
</svg>