<svg xmlns="http://www.w3.org/2000/svg" viewBox="0 0 48 48">
  <defs>
    <pattern id="px" width="4" height="4" patternUnits="userSpaceOnUse">
      <rect width="4" height="4" fill="none"/>
      <rect width="2" height="2" fill="rgba(0,0,0,0.2)"/>
    </pattern>
    <mask id="m">
      <rect x="0" y="0" width="48" height="48" fill="black"/>
      <g fill="none" stroke="white" stroke-width="6" stroke-linecap="square" stroke-linejoin="miter" shape-rendering="crispEdges">
<ellipse cx="16" cy="12" rx="6" ry="8"/>
    <ellipse cx="16" cy="32" rx="6" ry="8"/>
    <rect x="12" y="16" width="8" height="12"/>
    <line x1="16" y1="4" x2="16" y2="40"/>
    <line x1="16" y1="4" x2="24" y2="8"/>
    <line x1="16" y1="40" x2="24" y2="36"/>
      </g>
    </mask>
  </defs>
  <g fill="none" stroke="#50a83e" stroke-width="6" stroke-linecap="square" stroke-linejoin="miter" shape-rendering="crispEdges">
<ellipse cx="16" cy="12" rx="6" ry="8"/>
    <ellipse cx="16" cy="32" rx="6" ry="8"/>
    <rect x="12" y="16" width="8" height="12"/>
    <line x1="16" y1="4" x2="16" y2="40"/>
    <line x1="16" y1="4" x2="24" y2="8"/>
    <line x1="16" y1="40" x2="24" y2="36"/>
  </g>
  <rect x="0" y="0" width="48" height="48" fill="url(#px)" mask="url(#m)" pointer-events="none"/>
</svg>