<svg xmlns="http://www.w3.org/2000/svg" viewBox="0 0 48 48">
  <defs>
    <pattern id="px" width="4" height="4" patternUnits="userSpaceOnUse">
      <rect width="4" height="4" fill="none"/>
      <rect width="2" height="2" fill="rgba(0,0,0,0.2)"/>
    </pattern>
    <mask id="m">
      <rect x="0" y="0" width="48" height="48" fill="black"/>
      <g fill="none" stroke="white" stroke-width="6" stroke-linecap="square" stroke-linejoin="miter" shape-rendering="crispEdges">
    <path d="M6 24 Q6 10 24 10 Q42 10 42 24 Q42 38 36 40 Q30 42 28 36 Q26 30 32 28 Q38 26 38 22"/>
    <circle cx="10" cy="20" r="2"/>
    <ellipse cx="32" cy="28" rx="2" ry="1"/>
      </g>
    </mask>
  </defs>
  <g fill="none" stroke="#a9a8c1" stroke-width="6" stroke-linecap="square" stroke-linejoin="miter" shape-rendering="crispEdges">
    <path d="M6 24 Q6 10 24 10 Q42 10 42 24 Q42 38 36 40 Q30 42 28 36 Q26 30 32 28 Q38 26 38 22"/>
    <circle cx="10" cy="20" r="2"/>
    <ellipse cx="32" cy="28" rx="2" ry="1"/>
  </g>
  <rect x="0" y="0" width="48" height="48" fill="url(#px)" mask="url(#m)" pointer-events="none"/>
</svg>