<svg xmlns="http://www.w3.org/2000/svg" viewBox="0 0 48 48">
  <defs>
    <pattern id="px" width="4" height="4" patternUnits="userSpaceOnUse">
      <rect width="4" height="4" fill="none"/>
      <rect width="2" height="2" fill="rgba(0,0,0,0.2)"/>
    </pattern>
    <mask id="m">
      <rect x="0" y="0" width="48" height="48" fill="black"/>
      <g fill="none" stroke="white" stroke-width="6" stroke-linecap="square" stroke-linejoin="miter" shape-rendering="crispEdges">
    <rect x="2" y="6" width="44" height="38" rx="2"/>
    <rect x="2" y="6" width="44" height="10"/>
    <rect x="2" y="20" width="20" height="10"/>
    <rect x="26" y="20" width="20" height="10"/>
    <rect x="2" y="34" width="14" height="10"/>
    <rect x="20" y="34" width="26" height="10"/>
      </g>
    </mask>
  </defs>
  <g fill="none" stroke="#cdb7a7" stroke-width="6" stroke-linecap="square" stroke-linejoin="miter" shape-rendering="crispEdges">
    <rect x="2" y="6" width="44" height="38" rx="2"/>
    <rect x="2" y="6" width="44" height="10"/>
    <rect x="2" y="20" width="20" height="10"/>
    <rect x="26" y="20" width="20" height="10"/>
    <rect x="2" y="34" width="14" height="10"/>
    <rect x="20" y="34" width="26" height="10"/>
  </g>
  <rect x="0" y="0" width="48" height="48" fill="url(#px)" mask="url(#m)" pointer-events="none"/>
</svg>