<svg xmlns="http://www.w3.org/2000/svg" viewBox="0 0 48 48">
  <defs>
    <pattern id="px" width="4" height="4" patternUnits="userSpaceOnUse">
      <rect width="4" height="4" fill="none"/>
      <rect width="2" height="2" fill="rgba(0,0,0,0.2)"/>
    </pattern>
    <mask id="m">
      <rect x="0" y="0" width="48" height="48" fill="black"/>
      <g fill="none" stroke="white" stroke-width="6" stroke-linecap="square" stroke-linejoin="miter" shape-rendering="crispEdges">
    <ellipse cx="24" cy="26" rx="8" ry="6"/>
    <circle cx="24" cy="16" r="5"/>
    <circle cx="22" cy="14" r="1.5"/>
    <circle cx="26" cy="14" r="1.5"/>
    <ellipse cx="16" cy="32" rx="8" ry="4" transform="rotate(-20 16 32)"/>
    <line x1="28" y1="30" x2="36" y2="44"/>
    <line x1="32" y1="30" x2="40" y2="44"/>
      </g>
    </mask>
  </defs>
  <g fill="none" stroke="#a3bcc5" stroke-width="6" stroke-linecap="square" stroke-linejoin="miter" shape-rendering="crispEdges">
    <ellipse cx="24" cy="26" rx="8" ry="6"/>
    <circle cx="24" cy="16" r="5"/>
    <circle cx="22" cy="14" r="1.5"/>
    <circle cx="26" cy="14" r="1.5"/>
    <ellipse cx="16" cy="32" rx="8" ry="4" transform="rotate(-20 16 32)"/>
    <line x1="28" y1="30" x2="36" y2="44"/>
    <line x1="32" y1="30" x2="40" y2="44"/>
  </g>
  <rect x="0" y="0" width="48" height="48" fill="url(#px)" mask="url(#m)" pointer-events="none"/>
</svg>