<svg xmlns="http://www.w3.org/2000/svg" viewBox="0 0 48 48">
  <defs>
    <pattern id="px" width="4" height="4" patternUnits="userSpaceOnUse">
      <rect width="4" height="4" fill="none"/>
      <rect width="2" height="2" fill="rgba(0,0,0,0.2)"/>
    </pattern>
    <mask id="m">
      <rect x="0" y="0" width="48" height="48" fill="black"/>
      <g fill="none" stroke="white" stroke-width="6" stroke-linecap="square" stroke-linejoin="miter" shape-rendering="crispEdges">
    <ellipse cx="24" cy="26" rx="14" ry="10"/>
    <circle cx="24" cy="16" r="6"/>
    <circle cx="18" cy="14" r="2"/>
    <circle cx="30" cy="14" r="2"/>
    <path d="M10 28 Q4 26 6 30 Q8 34 14 30"/>
    <path d="M38 28 Q44 26 42 30 Q40 34 34 30"/>
    <path d="M16 32 L32 32"/>
    <path d="M18 36 L30 36"/>
      </g>
    </mask>
  </defs>
  <g fill="none" stroke="#c0a8c5" stroke-width="6" stroke-linecap="square" stroke-linejoin="miter" shape-rendering="crispEdges">
    <ellipse cx="24" cy="26" rx="14" ry="10"/>
    <circle cx="24" cy="16" r="6"/>
    <circle cx="18" cy="14" r="2"/>
    <circle cx="30" cy="14" r="2"/>
    <path d="M10 28 Q4 26 6 30 Q8 34 14 30"/>
    <path d="M38 28 Q44 26 42 30 Q40 34 34 30"/>
    <path d="M16 32 L32 32"/>
    <path d="M18 36 L30 36"/>
  </g>
  <rect x="0" y="0" width="48" height="48" fill="url(#px)" mask="url(#m)" pointer-events="none"/>
</svg>