<svg xmlns="http://www.w3.org/2000/svg" viewBox="0 0 48 48">
  <defs>
    <pattern id="px" width="4" height="4" patternUnits="userSpaceOnUse">
      <rect width="4" height="4" fill="none"/>
      <rect width="2" height="2" fill="rgba(0,0,0,0.2)"/>
    </pattern>
    <mask id="m">
      <rect x="0" y="0" width="48" height="48" fill="black"/>
      <g fill="none" stroke="white" stroke-width="6" stroke-linecap="square" stroke-linejoin="miter" shape-rendering="crispEdges">
<ellipse cx="24" cy="28" rx="18" ry="12"/><circle cx="14" cy="14" r="8"/><circle cx="34" cy="14" r="8"/><circle cx="14" cy="14" r="3"/><circle cx="34" cy="14" r="3"/><path d="M8 36 L4 42"/><path d="M40 36 L44 42"/><path d="M6 42 L10 40"/><path d="M42 42 L38 40"/><circle cx="18" cy="26" r="2"/><circle cx="30" cy="26" r="2"/>
      </g>
    </mask>
  </defs>
  <g fill="none" stroke="#aa7e3f" stroke-width="6" stroke-linecap="square" stroke-linejoin="miter" shape-rendering="crispEdges">
<ellipse cx="24" cy="28" rx="18" ry="12"/><circle cx="14" cy="14" r="8"/><circle cx="34" cy="14" r="8"/><circle cx="14" cy="14" r="3"/><circle cx="34" cy="14" r="3"/><path d="M8 36 L4 42"/><path d="M40 36 L44 42"/><path d="M6 42 L10 40"/><path d="M42 42 L38 40"/><circle cx="18" cy="26" r="2"/><circle cx="30" cy="26" r="2"/>
  </g>
  <rect x="0" y="0" width="48" height="48" fill="url(#px)" mask="url(#m)" pointer-events="none"/>
</svg>