<svg xmlns="http://www.w3.org/2000/svg" viewBox="0 0 48 48">
  <defs>
    <pattern id="px" width="4" height="4" patternUnits="userSpaceOnUse">
      <rect width="4" height="4" fill="none"/>
      <rect width="2" height="2" fill="rgba(0,0,0,0.2)"/>
    </pattern>
    <mask id="m">
      <rect x="0" y="0" width="48" height="48" fill="black"/>
      <g fill="none" stroke="white" stroke-width="6" stroke-linecap="square" stroke-linejoin="miter" shape-rendering="crispEdges">
    <line x1="8" y1="42" x2="34" y2="12"/>
    <circle cx="36" cy="10" r="4" fill="currentColor"/>
    <line x1="36" y1="6" x2="40" y2="4 M36 14 L40 16 M32 8 L30 4 M40 12 L44 14"/>
      </g>
    </mask>
  </defs>
  <g fill="none" stroke="#b49ebf" stroke-width="6" stroke-linecap="square" stroke-linejoin="miter" shape-rendering="crispEdges">
    <line x1="8" y1="42" x2="34" y2="12"/>
    <circle cx="36" cy="10" r="4" fill="currentColor"/>
    <line x1="36" y1="6" x2="40" y2="4 M36 14 L40 16 M32 8 L30 4 M40 12 L44 14"/>
  </g>
  <rect x="0" y="0" width="48" height="48" fill="url(#px)" mask="url(#m)" pointer-events="none"/>
</svg>