<svg xmlns="http://www.w3.org/2000/svg" viewBox="0 0 48 48">
  <defs>
    <pattern id="px" width="4" height="4" patternUnits="userSpaceOnUse">
      <rect width="4" height="4" fill="none"/>
      <rect width="2" height="2" fill="rgba(0,0,0,0.2)"/>
    </pattern>
    <mask id="m">
      <rect x="0" y="0" width="48" height="48" fill="black"/>
      <g fill="none" stroke="white" stroke-width="6" stroke-linecap="square" stroke-linejoin="miter" shape-rendering="crispEdges">
    <rect x="6" y="22" width="24" height="16" rx="3"/>
    <rect x="10" y="14" width="16" height="10" rx="3"/>
    <line x1="30" y1="26" x2="42" y2="18"/>
    <line x1="42" y1="18" x2="44" y2="16 M40 20 L42 18"/>
    <circle cx="38" cy="20" r="1.5" fill="currentColor"/>
      </g>
    </mask>
  </defs>
  <g fill="none" stroke="#c3b2c4" stroke-width="6" stroke-linecap="square" stroke-linejoin="miter" shape-rendering="crispEdges">
    <rect x="6" y="22" width="24" height="16" rx="3"/>
    <rect x="10" y="14" width="16" height="10" rx="3"/>
    <line x1="30" y1="26" x2="42" y2="18"/>
    <line x1="42" y1="18" x2="44" y2="16 M40 20 L42 18"/>
    <circle cx="38" cy="20" r="1.5" fill="currentColor"/>
  </g>
  <rect x="0" y="0" width="48" height="48" fill="url(#px)" mask="url(#m)" pointer-events="none"/>
</svg>