<svg xmlns="http://www.w3.org/2000/svg" viewBox="0 0 48 48">
  <defs>
    <pattern id="px" width="4" height="4" patternUnits="userSpaceOnUse">
      <rect width="4" height="4" fill="none"/>
      <rect width="2" height="2" fill="rgba(0,0,0,0.2)"/>
    </pattern>
    <mask id="m">
      <rect x="0" y="0" width="48" height="48" fill="black"/>
      <g fill="none" stroke="white" stroke-width="6" stroke-linecap="square" stroke-linejoin="miter" shape-rendering="crispEdges">
    <ellipse cx="24" cy="22" rx="5" ry="4"/>
    <circle cx="24" cy="14" r="3.5"/>
    <circle cx="22" cy="12" r="1.2"/>
    <circle cx="26" cy="12" r="1.2"/>
    <path d="M30 22 Q38 18 42 22 Q38 26 30 24"/>
    <line x1="22" y1="26" x2="20" y2="44"/>
    <line x1="26" y1="26" x2="28" y2="44"/>
      </g>
    </mask>
  </defs>
  <g fill="none" stroke="#c4aac4" stroke-width="6" stroke-linecap="square" stroke-linejoin="miter" shape-rendering="crispEdges">
    <ellipse cx="24" cy="22" rx="5" ry="4"/>
    <circle cx="24" cy="14" r="3.5"/>
    <circle cx="22" cy="12" r="1.2"/>
    <circle cx="26" cy="12" r="1.2"/>
    <path d="M30 22 Q38 18 42 22 Q38 26 30 24"/>
    <line x1="22" y1="26" x2="20" y2="44"/>
    <line x1="26" y1="26" x2="28" y2="44"/>
  </g>
  <rect x="0" y="0" width="48" height="48" fill="url(#px)" mask="url(#m)" pointer-events="none"/>
</svg>