<svg xmlns="http://www.w3.org/2000/svg" viewBox="0 0 48 48">
  <defs>
    <pattern id="px" width="4" height="4" patternUnits="userSpaceOnUse">
      <rect width="4" height="4" fill="none"/>
      <rect width="2" height="2" fill="rgba(0,0,0,0.2)"/>
    </pattern>
    <mask id="m">
      <rect x="0" y="0" width="48" height="48" fill="black"/>
      <g fill="none" stroke="white" stroke-width="6" stroke-linecap="square" stroke-linejoin="miter" shape-rendering="crispEdges">
<path d="M4 30 Q4 18 24 18 Q44 18 44 30 Q44 38 36 38 L28 30 L20 38 Q10 38 4 30 Z"/>
    <circle cx="16" cy="26" r="2.5"/>
    <line x1="38" y1="26" x2="42" y2="22"/>
      </g>
    </mask>
  </defs>
  <g fill="none" stroke="#a85fa2" stroke-width="6" stroke-linecap="square" stroke-linejoin="miter" shape-rendering="crispEdges">
<path d="M4 30 Q4 18 24 18 Q44 18 44 30 Q44 38 36 38 L28 30 L20 38 Q10 38 4 30 Z"/>
    <circle cx="16" cy="26" r="2.5"/>
    <line x1="38" y1="26" x2="42" y2="22"/>
  </g>
  <rect x="0" y="0" width="48" height="48" fill="url(#px)" mask="url(#m)" pointer-events="none"/>
</svg>