<svg xmlns="http://www.w3.org/2000/svg" viewBox="0 0 48 48">
  <defs>
    <pattern id="px" width="4" height="4" patternUnits="userSpaceOnUse">
      <rect width="4" height="4" fill="none"/>
      <rect width="2" height="2" fill="rgba(0,0,0,0.2)"/>
    </pattern>
    <mask id="m">
      <rect x="0" y="0" width="48" height="48" fill="black"/>
      <g fill="none" stroke="white" stroke-width="6" stroke-linecap="square" stroke-linejoin="miter" shape-rendering="crispEdges">
    <polygon points="24,4 20,18 28,18"/>
    <rect x="18" y="18" width="12" height="26" rx="2"/>
    <line x1="24" y1="18" x2="8" y2="8 M24 18 L40 8 M24 18 L8 28 M24 18 L40 28"/>
      </g>
    </mask>
  </defs>
  <g fill="none" stroke="#abc0c5" stroke-width="6" stroke-linecap="square" stroke-linejoin="miter" shape-rendering="crispEdges">
    <polygon points="24,4 20,18 28,18"/>
    <rect x="18" y="18" width="12" height="26" rx="2"/>
    <line x1="24" y1="18" x2="8" y2="8 M24 18 L40 8 M24 18 L8 28 M24 18 L40 28"/>
  </g>
  <rect x="0" y="0" width="48" height="48" fill="url(#px)" mask="url(#m)" pointer-events="none"/>
</svg>