<svg xmlns="http://www.w3.org/2000/svg" viewBox="0 0 48 48">
  <defs>
    <pattern id="px" width="4" height="4" patternUnits="userSpaceOnUse">
      <rect width="4" height="4" fill="none"/>
      <rect width="2" height="2" fill="rgba(0,0,0,0.2)"/>
    </pattern>
    <mask id="m">
      <rect x="0" y="0" width="48" height="48" fill="black"/>
      <g fill="none" stroke="white" stroke-width="6" stroke-linecap="square" stroke-linejoin="miter" shape-rendering="crispEdges">
    <ellipse cx="24" cy="24" rx="14" ry="10"/>
    <polygon points="10,16 16,4 18,18"/>
    <polygon points="38,16 32,4 30,18"/>
    <circle cx="18" cy="20" r="2.5"/>
    <circle cx="30" cy="20" r="2.5"/>
    <ellipse cx="18" cy="20" rx="1" ry="1.5" fill="white"/>
    <ellipse cx="30" cy="20" rx="1" ry="1.5" fill="white"/>
    <path d="M20 28 Q24 32 28 28"/>
      </g>
    </mask>
  </defs>
  <g fill="none" stroke="#c1d6b5" stroke-width="6" stroke-linecap="square" stroke-linejoin="miter" shape-rendering="crispEdges">
    <ellipse cx="24" cy="24" rx="14" ry="10"/>
    <polygon points="10,16 16,4 18,18"/>
    <polygon points="38,16 32,4 30,18"/>
    <circle cx="18" cy="20" r="2.5"/>
    <circle cx="30" cy="20" r="2.5"/>
    <ellipse cx="18" cy="20" rx="1" ry="1.5" fill="white"/>
    <ellipse cx="30" cy="20" rx="1" ry="1.5" fill="white"/>
    <path d="M20 28 Q24 32 28 28"/>
  </g>
  <rect x="0" y="0" width="48" height="48" fill="url(#px)" mask="url(#m)" pointer-events="none"/>
</svg>