<svg xmlns="http://www.w3.org/2000/svg" viewBox="0 0 48 48">
  <defs>
    <pattern id="px" width="4" height="4" patternUnits="userSpaceOnUse">
      <rect width="4" height="4" fill="none"/>
      <rect width="2" height="2" fill="rgba(0,0,0,0.2)"/>
    </pattern>
    <mask id="m">
      <rect x="0" y="0" width="48" height="48" fill="black"/>
      <g fill="none" stroke="white" stroke-width="6" stroke-linecap="square" stroke-linejoin="miter" shape-rendering="crispEdges">
    <ellipse cx="24" cy="22" rx="10" ry="8"/>
    <ellipse cx="24" cy="14" rx="6" ry="5"/>
    <circle cx="20" cy="12" r="2"/>
    <circle cx="28" cy="12" r="2"/>
    <path d="M14 20 L6 16 M34 20 L42 16"/>
    <path d="M18 28 L14 44 M30 28 L34 44"/>
      </g>
    </mask>
  </defs>
  <g fill="none" stroke="#dbc9aa" stroke-width="6" stroke-linecap="square" stroke-linejoin="miter" shape-rendering="crispEdges">
    <ellipse cx="24" cy="22" rx="10" ry="8"/>
    <ellipse cx="24" cy="14" rx="6" ry="5"/>
    <circle cx="20" cy="12" r="2"/>
    <circle cx="28" cy="12" r="2"/>
    <path d="M14 20 L6 16 M34 20 L42 16"/>
    <path d="M18 28 L14 44 M30 28 L34 44"/>
  </g>
  <rect x="0" y="0" width="48" height="48" fill="url(#px)" mask="url(#m)" pointer-events="none"/>
</svg>