<svg xmlns="http://www.w3.org/2000/svg" viewBox="0 0 48 48">
  <defs>
    <pattern id="px" width="4" height="4" patternUnits="userSpaceOnUse">
      <rect width="4" height="4" fill="none"/>
      <rect width="2" height="2" fill="rgba(0,0,0,0.2)"/>
    </pattern>
    <mask id="m">
      <rect x="0" y="0" width="48" height="48" fill="black"/>
      <g fill="none" stroke="white" stroke-width="6" stroke-linecap="square" stroke-linejoin="miter" shape-rendering="crispEdges">
    <circle cx="24" cy="24" r="16"/>
    <path d="M8 16 Q16 14 24 16 Q32 18 40 16 M8 32 Q16 34 24 32 Q32 30 40 32"/>
    <line x1="8" y1="24" x2="40" y2="24 M24 8 L24 40"/>
      </g>
    </mask>
  </defs>
  <g fill="none" stroke="#b3b7d2" stroke-width="6" stroke-linecap="square" stroke-linejoin="miter" shape-rendering="crispEdges">
    <circle cx="24" cy="24" r="16"/>
    <path d="M8 16 Q16 14 24 16 Q32 18 40 16 M8 32 Q16 34 24 32 Q32 30 40 32"/>
    <line x1="8" y1="24" x2="40" y2="24 M24 8 L24 40"/>
  </g>
  <rect x="0" y="0" width="48" height="48" fill="url(#px)" mask="url(#m)" pointer-events="none"/>
</svg>