<svg xmlns="http://www.w3.org/2000/svg" viewBox="0 0 48 48">
  <defs>
    <pattern id="px" width="4" height="4" patternUnits="userSpaceOnUse">
      <rect width="4" height="4" fill="none"/>
      <rect width="2" height="2" fill="rgba(0,0,0,0.2)"/>
    </pattern>
    <mask id="m">
      <rect x="0" y="0" width="48" height="48" fill="black"/>
      <g fill="none" stroke="white" stroke-width="6" stroke-linecap="square" stroke-linejoin="miter" shape-rendering="crispEdges">
    <path d="M8 28 Q8 12 24 16 Q40 20 40 8 Q40 20 30 28 Q20 36 12 40 Q8 42 8 36"/>
    <circle cx="10" cy="24" r="2"/>
      </g>
    </mask>
  </defs>
  <g fill="none" stroke="#b2dbba" stroke-width="6" stroke-linecap="square" stroke-linejoin="miter" shape-rendering="crispEdges">
    <path d="M8 28 Q8 12 24 16 Q40 20 40 8 Q40 20 30 28 Q20 36 12 40 Q8 42 8 36"/>
    <circle cx="10" cy="24" r="2"/>
  </g>
  <rect x="0" y="0" width="48" height="48" fill="url(#px)" mask="url(#m)" pointer-events="none"/>
</svg>