<svg xmlns="http://www.w3.org/2000/svg" viewBox="0 0 48 48">
  <defs>
    <pattern id="grid" width="8" height="8" patternUnits="userSpaceOnUse">
      <path d="M 8 0 L 0 0 0 8" fill="none" stroke="rgba(255,255,255,0.04)" stroke-width="0.5"/>
    </pattern>
    <linearGradient id="g" x1="0%" y1="0%" x2="100%" y2="100%">
      <stop offset="0%" stop-color="#cfb3a3"/>
      <stop offset="100%" stop-color="#965833"/>
    </linearGradient>
    <filter id="glow" x="-30%" y="-30%" width="160%" height="160%">
      <feGaussianBlur in="SourceGraphic" stdDeviation="3.5" result="blur1"/>
      <feGaussianBlur in="SourceGraphic" stdDeviation="2" result="blur2"/>
      <feMerge>
        <feMergeNode in="blur1"/>
        <feMergeNode in="blur2"/>
        <feMergeNode in="SourceGraphic"/>
      </feMerge>
    </filter>
  </defs>
  <rect x="2" y="2" width="44" height="44" rx="10" fill="#0d0d1a" opacity="0.92"/>
  <rect x="2" y="2" width="44" height="44" rx="10" fill="url(#grid)"/>
  <g fill="none" stroke="url(#g)" stroke-width="3" stroke-linecap="round" stroke-linejoin="round" filter="url(#glow)">
<path d="M10 38 Q10 8 24 8 Q38 8 38 38"/><circle cx="24" cy="10" r="5"/><circle cx="22" cy="8" r="2"/><circle cx="26" cy="8" r="2"/><path d="M18 22 L30 22"/><rect x="20" y="18" width="8" height="10" rx="3"/><line x1="19" y1="28" x2="12" y2="34"/><line x1="29" y1="28" x2="36" y2="34"/>
  </g>
</svg>