<svg xmlns="http://www.w3.org/2000/svg" viewBox="0 0 48 48">
  <defs>
    <pattern id="grid" width="8" height="8" patternUnits="userSpaceOnUse">
      <path d="M 8 0 L 0 0 0 8" fill="none" stroke="rgba(255,255,255,0.04)" stroke-width="0.5"/>
    </pattern>
    <linearGradient id="g" x1="0%" y1="0%" x2="100%" y2="100%">
      <stop offset="0%" stop-color="#aed1b4"/>
      <stop offset="100%" stop-color="#132616"/>
    </linearGradient>
    <filter id="glow" x="-30%" y="-30%" width="160%" height="160%">
      <feGaussianBlur in="SourceGraphic" stdDeviation="3.5" result="blur1"/>
      <feGaussianBlur in="SourceGraphic" stdDeviation="2" result="blur2"/>
      <feMerge>
        <feMergeNode in="blur1"/>
        <feMergeNode in="blur2"/>
        <feMergeNode in="SourceGraphic"/>
      </feMerge>
    </filter>
  </defs>
  <rect x="2" y="2" width="44" height="44" rx="10" fill="#0d0d1a" opacity="0.92"/>
  <rect x="2" y="2" width="44" height="44" rx="10" fill="url(#grid)"/>
  <g fill="none" stroke="url(#g)" stroke-width="3" stroke-linecap="round" stroke-linejoin="round" filter="url(#glow)">
    <ellipse cx="24" cy="24" rx="9" ry="7"/>
    <ellipse cx="24" cy="16" rx="5" ry="4"/>
    <circle cx="22" cy="14" r="1.5"/>
    <path d="M18 10 L14 2 L18 6 M18 6 L16 0"/>
    <path d="M30 10 L34 2 L30 6 M30 6 L32 0"/>
    <path d="M30 24 L34 22 M34 22 L36 26 M36 26 L38 22"/>
    <line x1="18" y1="30" x2="14" y2="44"/>
    <line x1="30" y1="30" x2="34" y2="44"/>
  </g>
</svg>