<svg xmlns="http://www.w3.org/2000/svg" viewBox="0 0 48 48">
  <defs>
    <pattern id="grid" width="8" height="8" patternUnits="userSpaceOnUse">
      <path d="M 8 0 L 0 0 0 8" fill="none" stroke="rgba(255,255,255,0.04)" stroke-width="0.5"/>
    </pattern>
    <linearGradient id="g" x1="0%" y1="0%" x2="100%" y2="100%">
      <stop offset="0%" stop-color="#eff4c0"/>
      <stop offset="100%" stop-color="#DCE775"/>
    </linearGradient>
    <filter id="glow" x="-30%" y="-30%" width="160%" height="160%">
      <feGaussianBlur in="SourceGraphic" stdDeviation="3.5" result="blur1"/>
      <feGaussianBlur in="SourceGraphic" stdDeviation="2" result="blur2"/>
      <feMerge>
        <feMergeNode in="blur1"/>
        <feMergeNode in="blur2"/>
        <feMergeNode in="SourceGraphic"/>
      </feMerge>
    </filter>
  </defs>
  <rect x="2" y="2" width="44" height="44" rx="10" fill="#0d0d1a" opacity="0.92"/>
  <rect x="2" y="2" width="44" height="44" rx="10" fill="url(#grid)"/>
  <g fill="none" stroke="url(#g)" stroke-width="3" stroke-linecap="round" stroke-linejoin="round" filter="url(#glow)">
    <path d="M20 12h8v10l8 12a4 4 0 01-3.2 6H15.2a4 4 0 01-3.2-6l8-12V12z"/>
    <line x1="16" y1="32" x2="32" y2="32"/>
    <line x1="18" y1="12" x2="18" y2="8"/>
    <line x1="22" y1="12" x2="22" y2="8"/>
    <line x1="26" y1="12" x2="26" y2="8"/>
    <line x1="30" y1="12" x2="30" y2="8"/>
    <line x1="20" y1="37" x2="28" y2="37"/>
  </g>
</svg>