<svg xmlns="http://www.w3.org/2000/svg" viewBox="0 0 48 48">
  <defs>
    <pattern id="grid" width="8" height="8" patternUnits="userSpaceOnUse">
      <path d="M 8 0 L 0 0 0 8" fill="none" stroke="rgba(255,255,255,0.04)" stroke-width="0.5"/>
    </pattern>
    <linearGradient id="g" x1="0%" y1="0%" x2="100%" y2="100%">
      <stop offset="0%" stop-color="#c1d6b5"/>
      <stop offset="100%" stop-color="#1d2916"/>
    </linearGradient>
    <filter id="glow" x="-30%" y="-30%" width="160%" height="160%">
      <feGaussianBlur in="SourceGraphic" stdDeviation="3.5" result="blur1"/>
      <feGaussianBlur in="SourceGraphic" stdDeviation="2" result="blur2"/>
      <feMerge>
        <feMergeNode in="blur1"/>
        <feMergeNode in="blur2"/>
        <feMergeNode in="SourceGraphic"/>
      </feMerge>
    </filter>
  </defs>
  <rect x="2" y="2" width="44" height="44" rx="10" fill="#0d0d1a" opacity="0.92"/>
  <rect x="2" y="2" width="44" height="44" rx="10" fill="url(#grid)"/>
  <g fill="none" stroke="url(#g)" stroke-width="3" stroke-linecap="round" stroke-linejoin="round" filter="url(#glow)">
    <ellipse cx="24" cy="24" rx="14" ry="10"/>
    <polygon points="10,16 16,4 18,18"/>
    <polygon points="38,16 32,4 30,18"/>
    <circle cx="18" cy="20" r="2.5"/>
    <circle cx="30" cy="20" r="2.5"/>
    <ellipse cx="18" cy="20" rx="1" ry="1.5" fill="white"/>
    <ellipse cx="30" cy="20" rx="1" ry="1.5" fill="white"/>
    <path d="M20 28 Q24 32 28 28"/>
  </g>
</svg>