<svg xmlns="http://www.w3.org/2000/svg" viewBox="0 0 48 48">
  <rect x="2" y="2" width="44" height="44" rx="9" fill="#a0c3b6"/>
  <g fill="none" stroke="#FFFFFF" stroke-width="2.4" stroke-linecap="round" stroke-linejoin="round">
    <line x1="24" y1="44" x2="24" y2="6"/>
    <path d="M24 12 Q10 8 6 14 Q14 12 24 14"/>
    <path d="M24 18 Q8 16 4 22 Q12 20 24 22"/>
    <path d="M24 24 Q10 22 6 28 Q14 26 24 28"/>
    <path d="M24 30 Q12 28 8 34 Q14 32 24 34"/>
    <path d="M24 12 Q38 8 42 14 Q34 12 24 14"/>
    <path d="M24 18 Q40 16 44 22 Q36 20 24 22"/>
    <path d="M24 24 Q38 22 42 28 Q34 26 24 28"/>
    <path d="M24 30 Q36 28 40 34 Q34 32 24 34"/>
  </g>
</svg>