<svg xmlns="http://www.w3.org/2000/svg" viewBox="0 0 48 48">
  <rect x="2" y="2" width="44" height="44" rx="9" fill="#b7e2ba"/>
  <g fill="none" stroke="#FFFFFF" stroke-width="2.4" stroke-linecap="round" stroke-linejoin="round">
    <line x1="24" y1="44" x2="24" y2="16"/>
    <path d="M24 16 Q18 10 12 12 Q8 14 10 8 Q14 6 18 12 Q22 14 24 16"/>
    <path d="M24 16 Q30 10 36 12 Q40 14 38 8 Q34 6 30 12 Q26 14 24 16"/>
    <path d="M24 24 L14 20 M24 24 L34 20 M24 30 L16 26 M24 30 L32 26"/>
  </g>
</svg>