<svg xmlns="http://www.w3.org/2000/svg" viewBox="0 0 48 48">
  <defs>
    <linearGradient id="g" x1="0%" y1="0%" x2="100%" y2="100%">
      <stop offset="0%" stop-color="#aeded9"/>
      <stop offset="100%" stop-color="#4DB6AC"/>
    </linearGradient>
    <filter id="glow" x="-30%" y="-30%" width="160%" height="160%">
      <feGaussianBlur in="SourceGraphic" stdDeviation="3.5" result="blur1"/>
      <feGaussianBlur in="SourceGraphic" stdDeviation="2" result="blur2"/>
      <feMerge>
        <feMergeNode in="blur1"/>
        <feMergeNode in="blur2"/>
        <feMergeNode in="SourceGraphic"/>
      </feMerge>
    </filter>
  </defs>
  <g fill="none" stroke="url(#g)" stroke-width="3" stroke-linecap="round" stroke-linejoin="round" filter="url(#glow)">
    <rect x="14" y="14" width="20" height="20" rx="3"/>
    <line x1="10" y1="18" x2="14" y2="18"/>
    <line x1="10" y1="24" x2="14" y2="24"/>
    <line x1="10" y1="30" x2="14" y2="30"/>
    <line x1="34" y1="18" x2="38" y2="18"/>
    <line x1="34" y1="24" x2="38" y2="24"/>
    <line x1="34" y1="30" x2="38" y2="30"/>
    <line x1="18" y1="10" x2="18" y2="14"/>
    <line x1="24" y1="10" x2="24" y2="14"/>
    <line x1="30" y1="10" x2="30" y2="14"/>
    <line x1="18" y1="34" x2="18" y2="38"/>
    <line x1="24" y1="34" x2="24" y2="38"/>
    <line x1="30" y1="34" x2="30" y2="38"/>
  </g>
</svg>