<?xml version="1.0" encoding="UTF-8" standalone="no"?>
<!-- Created with Inkscape (http://www.inkscape.org/) -->

<svg
   xmlns:a="http://ns.adobe.com/AdobeSVGViewerExtensions/3.0/"
   xmlns:dc="http://purl.org/dc/elements/1.1/"
   xmlns:cc="http://creativecommons.org/ns#"
   xmlns:rdf="http://www.w3.org/1999/02/22-rdf-syntax-ns#"
   xmlns:svg="http://www.w3.org/2000/svg"
   xmlns="http://www.w3.org/2000/svg"
   xmlns:xlink="http://www.w3.org/1999/xlink"
   xmlns:sodipodi="http://sodipodi.sourceforge.net/DTD/sodipodi-0.dtd"
   xmlns:inkscape="http://www.inkscape.org/namespaces/inkscape"
   width="400"
   height="400"
   viewBox="0 0 400 400.00001"
   id="svg4217"
   version="1.1"
   inkscape:version="0.91 r13725"
   sodipodi:docname="gnc-invoice-cash.svg"
   inkscape:export-filename="D:\Dokumente\Arbeit\RRZE\github\bicons\22x22\emblems\gnc-invoice-cash.png"
   inkscape:export-xdpi="4.9499817"
   inkscape:export-ydpi="4.9499817">
  <title
     id="title4282">gnc invoice cash</title>
  <defs
     id="defs4219">
    <linearGradient
       inkscape:collect="always"
       id="linearGradient4274">
      <stop
         style="stop-color:#4e505d;stop-opacity:1;"
         offset="0"
         id="stop4276" />
      <stop
         style="stop-color:#7a859c;stop-opacity:1"
         offset="1"
         id="stop4278" />
    </linearGradient>
    <linearGradient
       id="linearGradient4321"
       inkscape:collect="always">
      <stop
         id="stop4323"
         offset="0"
         style="stop-color:#4e505d;stop-opacity:1;" />
      <stop
         id="stop4325"
         offset="1"
         style="stop-color:#7a8597;stop-opacity:1" />
    </linearGradient>
    <linearGradient
       inkscape:collect="always"
       xlink:href="#linearGradient4321"
       id="linearGradient4319-9"
       x1="280"
       y1="712.36218"
       x2="500"
       y2="472.36221"
       gradientUnits="userSpaceOnUse"
       gradientTransform="matrix(1.0685568,0,0,1.0477472,-26.445951,-34.107492)" />
    <linearGradient
       inkscape:collect="always"
       xlink:href="#linearGradient4321"
       id="linearGradient4317-3"
       x1="280"
       y1="692.36218"
       x2="500"
       y2="472.36221"
       gradientUnits="userSpaceOnUse"
       gradientTransform="matrix(1.0685568,0,0,1.0477472,-26.445951,-26.329318)" />
    <linearGradient
       inkscape:collect="always"
       xlink:href="#linearGradient4321"
       id="linearGradient4178"
       x1="378.51413"
       y1="461.36569"
       x2="424.83945"
       y2="349.64282"
       gradientUnits="userSpaceOnUse"
       gradientTransform="matrix(1.4213542,0,0,1.3240272,-170.3887,-120.86094)" />
    <linearGradient
       id="linearGradient5280">
      <stop
         id="stop5282"
         offset="0"
         style="stop-color:#555753;stop-opacity:0.01129944;" />
      <stop
         style="stop-color:#555753;stop-opacity:0.22598869;"
         offset="0.00195313"
         id="stop5310" />
      <stop
         style="stop-color:#555753;stop-opacity:0.01176471;"
         offset="0.00390625"
         id="stop5306" />
      <stop
         style="stop-color:#555753;stop-opacity:0.01176471;"
         offset="0.0078125"
         id="stop5304" />
      <stop
         style="stop-color:#555753;stop-opacity:0.07344633;"
         offset="0.015625"
         id="stop5302" />
      <stop
         style="stop-color:#555753;stop-opacity:0.01568627;"
         offset="0.03125"
         id="stop5298" />
      <stop
         style="stop-color:#555753;stop-opacity:0.01129944;"
         offset="0.0625"
         id="stop5296" />
      <stop
         style="stop-color:#555753;stop-opacity:0.36723164;"
         offset="0.125"
         id="stop5294" />
      <stop
         style="stop-color:#555753;stop-opacity:0.00564972;"
         offset="0.25"
         id="stop5290" />
      <stop
         style="stop-color:#555753;stop-opacity:0.02259887;"
         offset="0.5"
         id="stop5288" />
      <stop
         id="stop5292"
         offset="0.75"
         style="stop-color:#555753;stop-opacity:0.19774012;" />
      <stop
         style="stop-color:#555753;stop-opacity:0.18079096;"
         offset="0.875"
         id="stop5300" />
      <stop
         id="stop5308"
         offset="0.9375"
         style="stop-color:#555753;stop-opacity:0.28813559;" />
      <stop
         id="stop5284"
         offset="1"
         style="stop-color:#555753;stop-opacity:0.07344633;" />
    </linearGradient>
    <linearGradient
       id="linearGradient5348">
      <stop
         id="stop5350"
         offset="0"
         style="stop-color:#729fcf;stop-opacity:0;" />
      <stop
         style="stop-color:#729fcf;stop-opacity:0.17514125;"
         offset="0.14182246"
         id="stop5368" />
      <stop
         style="stop-color:#729fcf;stop-opacity:0.42937854;"
         offset="0.24686332"
         id="stop5366" />
      <stop
         id="stop5394"
         offset="0.27796116"
         style="stop-color:#729fcf;stop-opacity:0.39215686;" />
      <stop
         style="stop-color:#729fcf;stop-opacity:0.39215687;"
         offset="0.38030669"
         id="stop5364" />
      <stop
         style="stop-color:#ffffff;stop-opacity:1;"
         offset="0.46561956"
         id="stop5362" />
      <stop
         id="stop3727"
         offset="0.54757094"
         style="stop-color:#b8cfe7;stop-opacity:0.62352941;" />
      <stop
         style="stop-color:#729fcf;stop-opacity:0.24858756;"
         offset="0.62952232"
         id="stop5360" />
      <stop
         style="stop-color:#729fcf;stop-opacity:0.27683616;"
         offset="0.69749689"
         id="stop5358" />
      <stop
         style="stop-color:#729fcf;stop-opacity:0.16384181;"
         offset="0.84827983"
         id="stop5356" />
      <stop
         id="stop5352"
         offset="1"
         style="stop-color:#729fcf;stop-opacity:0;" />
    </linearGradient>
    <linearGradient
       id="linearGradient5170">
      <stop
         id="stop5172"
         offset="0"
         style="stop-color:#ffffff;stop-opacity:0.18039216;" />
      <stop
         style="stop-color:#ffffff;stop-opacity:1;"
         offset="0.51451057"
         id="stop5178" />
      <stop
         id="stop5174"
         offset="1"
         style="stop-color:#ffffff;stop-opacity:0;" />
    </linearGradient>
    <linearGradient
       id="linearGradient5210">
      <stop
         id="stop5212"
         offset="0"
         style="stop-color:#ffffff;stop-opacity:0.63973064" />
      <stop
         id="stop5214"
         offset="1"
         style="stop-color:#ffffff;stop-opacity:0;" />
    </linearGradient>
    <linearGradient
       inkscape:collect="always"
       xlink:href="#linearGradient5210"
       id="linearGradient4189"
       x1="201.14954"
       y1="961.82281"
       x2="335.09766"
       y2="690.03497"
       gradientUnits="userSpaceOnUse"
       gradientTransform="matrix(0.87213324,0,0,0.87213324,31.567287,101.09235)" />
    <linearGradient
       inkscape:collect="always"
       xlink:href="#linearGradient5210"
       id="linearGradient4204"
       x1="246.27283"
       y1="601.76038"
       x2="415.23526"
       y2="597.97443"
       gradientUnits="userSpaceOnUse"
       gradientTransform="matrix(0.75467109,0,0,0.75467109,84.984827,145.27184)" />
    <linearGradient
       inkscape:collect="always"
       xlink:href="#linearGradient5210"
       id="linearGradient4219"
       x1="446.96085"
       y1="461.98914"
       x2="408.0062"
       y2="539.08948"
       gradientUnits="userSpaceOnUse"
       gradientTransform="matrix(0.83863557,0,0,0.83863557,63.411889,86.824917)" />
    <linearGradient
       inkscape:collect="always"
       xlink:href="#linearGradient5210"
       id="linearGradient4234"
       x1="505.18594"
       y1="341.05081"
       x2="461.8429"
       y2="442.63501"
       gradientUnits="userSpaceOnUse"
       gradientTransform="matrix(0.80158707,0,0,0.80158707,90.129275,72.308238)" />
    <linearGradient
       inkscape:collect="always"
       xlink:href="#linearGradient5210"
       id="linearGradient4249"
       x1="559.49237"
       y1="209.43178"
       x2="519.25854"
       y2="298.70959"
       gradientUnits="userSpaceOnUse"
       gradientTransform="matrix(0.81797657,0,0,0.81797657,95.755906,55.021504)" />
    <linearGradient
       id="linearGradient4761">
      <stop
         id="stop4769"
         offset="0"
         style="stop-color:#ffffff;stop-opacity:1;" />
      <stop
         id="stop4775"
         offset="0.50370371"
         style="stop-color:#ffffff;stop-opacity:1;" />
      <stop
         id="stop4771"
         offset="1"
         style="stop-color:#ffffff;stop-opacity:0.06666667;" />
    </linearGradient>
    <linearGradient
       id="linearGradient3796">
      <stop
         style="stop-color:#3465a4;stop-opacity:1;"
         offset="0"
         id="stop3798" />
      <stop
         style="stop-color:#252525;stop-opacity:1;"
         offset="1"
         id="stop3800" />
    </linearGradient>
    <linearGradient
       id="linearGradient3812">
      <stop
         style="stop-color:#fce94f;stop-opacity:1;"
         offset="0"
         id="stop3814" />
      <stop
         style="stop-color:#fcaf3e;stop-opacity:1;"
         offset="1"
         id="stop3816" />
    </linearGradient>
    <pattern
       y="0"
       x="0"
       height="6"
       width="6"
       patternUnits="userSpaceOnUse"
       id="EMFhbasepattern" />
    <pattern
       y="0"
       x="0"
       height="6"
       width="6"
       patternUnits="userSpaceOnUse"
       id="EMFhbasepattern-2" />
    <linearGradient
       gradientUnits="userSpaceOnUse"
       id="XMLID_2_-4"
       x1="216.1084"
       x2="216.1084"
       y1="348.98831"
       y2="7.2768998">
      <stop
         id="stop12094-0"
         offset="0"
         style="stop-color:#cc0000;stop-opacity:1;" />
      <stop
         id="stop12096-9"
         offset="1"
         style="stop-color:#edd400;stop-opacity:1;" />
      <a:midPointStop
         offset="0"
         style="stop-color:#F40A0B" />
      <a:midPointStop
         offset="0.5"
         style="stop-color:#F40A0B" />
      <a:midPointStop
         offset="1"
         style="stop-color:#F5E710" />
    </linearGradient>
    <pattern
       y="0"
       x="0"
       height="6"
       width="6"
       patternUnits="userSpaceOnUse"
       id="EMFhbasepattern-4" />
    <linearGradient
       inkscape:collect="always"
       xlink:href="#linearGradient4321"
       id="linearGradient4180"
       x1="367"
       y1="585.36218"
       x2="426"
       y2="450.36221"
       gradientUnits="userSpaceOnUse"
       gradientTransform="matrix(0.875,0,0,0.875,47.749993,66.295265)" />
    <linearGradient
       inkscape:collect="always"
       xlink:href="#linearGradient4274"
       id="linearGradient4280"
       x1="54.540001"
       y1="1034.142"
       x2="363.59998"
       y2="670.54211"
       gradientUnits="userSpaceOnUse" />
  </defs>
  <sodipodi:namedview
     id="base"
     pagecolor="#ffffff"
     bordercolor="#666666"
     borderopacity="1.0"
     inkscape:pageopacity="0.0"
     inkscape:pageshadow="2"
     inkscape:zoom="0.70710678"
     inkscape:cx="84.645274"
     inkscape:cy="294.38509"
     inkscape:document-units="px"
     inkscape:current-layer="layer1"
     showgrid="false"
     units="px"
     inkscape:snap-bbox="true"
     inkscape:bbox-paths="true"
     inkscape:bbox-nodes="true"
     inkscape:snap-bbox-edge-midpoints="false"
     inkscape:snap-bbox-midpoints="false"
     showguides="true"
     inkscape:guide-bbox="true"
     inkscape:window-width="1600"
     inkscape:window-height="837"
     inkscape:window-x="-4"
     inkscape:window-y="-4"
     inkscape:window-maximized="1"
     inkscape:object-paths="true"
     inkscape:snap-intersection-paths="true"
     inkscape:object-nodes="true"
     inkscape:snap-smooth-nodes="true"
     inkscape:snap-midpoints="false"
     inkscape:showpageshadow="false"
     inkscape:snap-global="true"
     inkscape:snap-nodes="false"
     inkscape:snap-others="false">
    <sodipodi:guide
       position="0,411.37501"
       orientation="1,0"
       id="guide4765" />
    <sodipodi:guide
       position="18.18,410.73144"
       orientation="1,0"
       id="guide4769" />
    <sodipodi:guide
       position="36.360001,410.73144"
       orientation="1,0"
       id="guide4771" />
    <sodipodi:guide
       position="54.540001,410.73144"
       orientation="1,0"
       id="guide4773" />
    <sodipodi:guide
       position="72.647471,127.43479"
       orientation="1,0"
       id="guide4775" />
    <sodipodi:guide
       position="90.900002,410.73144"
       orientation="1,0"
       id="guide4777" />
    <sodipodi:guide
       position="109.08,410.73144"
       orientation="1,0"
       id="guide4779" />
    <sodipodi:guide
       position="127.26,410.73144"
       orientation="1,0"
       id="guide4781"
       inkscape:label=""
       inkscape:color="rgb(0,0,255)" />
    <sodipodi:guide
       position="145.44,410.73144"
       orientation="1,0"
       id="guide4783" />
    <sodipodi:guide
       position="163.62,410.73144"
       orientation="1,0"
       id="guide4785" />
    <sodipodi:guide
       position="181.8,410.73144"
       orientation="1,0"
       id="guide4787" />
    <sodipodi:guide
       position="199.98,410.73144"
       orientation="1,0"
       id="guide4789"
       inkscape:label=""
       inkscape:color="rgb(255,12,0)" />
    <sodipodi:guide
       position="218.16,409.81259"
       orientation="1,0"
       id="guide4791" />
    <sodipodi:guide
       position="254.52,410.73144"
       orientation="1,0"
       id="guide4795" />
    <sodipodi:guide
       position="272.7,410.73144"
       orientation="1,0"
       id="guide4797" />
    <sodipodi:guide
       position="290.88001,410.73144"
       orientation="1,0"
       id="guide4799" />
    <sodipodi:guide
       position="309.06001,410.73144"
       orientation="1,0"
       id="guide4801" />
    <sodipodi:guide
       position="345.41999,410.73144"
       orientation="1,0"
       id="guide4805" />
    <sodipodi:guide
       position="363.59997,136.39028"
       orientation="1,0"
       id="guide4807" />
    <sodipodi:guide
       position="381.82228,135.75"
       orientation="1,0"
       id="guide4809" />
    <sodipodi:guide
       position="400.00147,254.93962"
       orientation="1,0"
       id="guide4811" />
    <sodipodi:guide
       position="413.875,400.00001"
       orientation="0,1"
       id="guide4813" />
    <sodipodi:guide
       position="409.04996,381.82003"
       orientation="0,1"
       id="guide4815" />
    <sodipodi:guide
       position="409.04996,363.64003"
       orientation="0,1"
       id="guide4817" />
    <sodipodi:guide
       position="405.75,345.46004"
       orientation="0,1"
       id="guide4819" />
    <sodipodi:guide
       position="411.625,327.28005"
       orientation="0,1"
       id="guide4821" />
    <sodipodi:guide
       position="409.04996,309.10006"
       orientation="0,1"
       id="guide4823" />
    <sodipodi:guide
       position="411,290.92006"
       orientation="0,1"
       id="guide4825" />
    <sodipodi:guide
       position="411,272.74007"
       orientation="0,1"
       id="guide4827" />
    <sodipodi:guide
       position="409.04996,254.56008"
       orientation="0,1"
       id="guide4829" />
    <sodipodi:guide
       position="405.52575,236.38008"
       orientation="0,1"
       id="guide4831" />
    <sodipodi:guide
       position="412.125,218.20009"
       orientation="0,1"
       id="guide4833" />
    <sodipodi:guide
       position="409.04996,200.02001"
       orientation="0,1"
       id="guide4835"
       inkscape:label=""
       inkscape:color="rgb(0,255,92)" />
    <sodipodi:guide
       position="409.04996,181.8401"
       orientation="0,1"
       id="guide4837" />
    <sodipodi:guide
       position="463,163.5"
       orientation="0,1"
       id="guide4839" />
    <sodipodi:guide
       position="409.04996,145.48012"
       orientation="0,1"
       id="guide4841" />
    <sodipodi:guide
       position="409.04996,127.30012"
       orientation="0,1"
       id="guide4843" />
    <sodipodi:guide
       position="409.04996,109.12013"
       orientation="0,1"
       id="guide4845" />
    <sodipodi:guide
       position="327.23999,72.012103"
       orientation="0,1"
       id="guide4849" />
    <sodipodi:guide
       position="511.94531,54.447224"
       orientation="0,1"
       id="guide4851" />
    <sodipodi:guide
       position="409.04996,36.400158"
       orientation="0,1"
       id="guide4853" />
    <sodipodi:guide
       position="409.04996,18.220165"
       orientation="0,1"
       id="guide4855" />
    <sodipodi:guide
       position="327.23999,414.8949"
       orientation="1,0"
       id="guide4256" />
    <sodipodi:guide
       position="236.34,413.74587"
       orientation="1,0"
       id="guide4253" />
    <sodipodi:guide
       position="419.4288,90.943193"
       orientation="0,1"
       id="guide4339" />
    <sodipodi:guide
       position="409,0"
       orientation="0,1"
       id="guide6128"
       inkscape:label=""
       inkscape:color="rgb(0,0,255)" />
    <inkscape:grid
       type="xygrid"
       id="grid4298" />
  </sodipodi:namedview>
  <metadata
     id="metadata4222">
    <rdf:RDF>
      <cc:Work
         rdf:about="">
        <dc:format>image/svg+xml</dc:format>
        <dc:type
           rdf:resource="http://purl.org/dc/dcmitype/StillImage" />
        <dc:title>gnc invoice cash</dc:title>
        <dc:creator>
          <cc:Agent>
            <dc:title>Johannes Hechler</dc:title>
          </cc:Agent>
        </dc:creator>
        <dc:rights>
          <cc:Agent>
            <dc:title>Johannes Hechler</dc:title>
          </cc:Agent>
        </dc:rights>
        <dc:publisher>
          <cc:Agent>
            <dc:title>RRZE</dc:title>
          </cc:Agent>
        </dc:publisher>
        <dc:contributor>
          <cc:Agent>
            <dc:title>Ute Weber,
Hendrik Eggers</dc:title>
          </cc:Agent>
        </dc:contributor>
        <cc:license
           rdf:resource="http://creativecommons.org/licenses/by-nc/3.0/" />
        <dc:date>Oct 2016</dc:date>
        <dc:subject>
          <rdf:Bag>
            <rdf:li>calculator</rdf:li>
            <rdf:li>gnc</rdf:li>
            <rdf:li>invoice</rdf:li>
            <rdf:li>gnu</rdf:li>
            <rdf:li>cash</rdf:li>
          </rdf:Bag>
        </dc:subject>
      </cc:Work>
      <cc:License
         rdf:about="http://creativecommons.org/licenses/by-nc/3.0/">
        <cc:permits
           rdf:resource="http://creativecommons.org/ns#Reproduction" />
        <cc:permits
           rdf:resource="http://creativecommons.org/ns#Distribution" />
        <cc:requires
           rdf:resource="http://creativecommons.org/ns#Notice" />
        <cc:requires
           rdf:resource="http://creativecommons.org/ns#Attribution" />
        <cc:prohibits
           rdf:resource="http://creativecommons.org/ns#CommercialUse" />
        <cc:permits
           rdf:resource="http://creativecommons.org/ns#DerivativeWorks" />
      </cc:License>
    </rdf:RDF>
  </metadata>
  <g
     inkscape:label="Ebene 1"
     inkscape:groupmode="layer"
     id="layer1"
     transform="translate(0,-652.36214)">
    <path
       inkscape:connector-curvature="0"
       style="opacity:1;fill:url(#linearGradient4280);fill-opacity:1;stroke:none;stroke-width:50;stroke-linejoin:round;stroke-miterlimit:4;stroke-dasharray:none;stroke-dashoffset:0;stroke-opacity:1"
       d="m 54.539062,652.36214 c -10.071719,0 -18.179687,8.10797 -18.179687,18.17969 l 0,363.64067 c 0,10.0717 8.107968,18.1796 18.179687,18.1796 l 159.736328,0 c -40.96201,-23.5286 -68.65625,-67.73174 -68.65625,-118.18941 0,-75.00254 61.18861,-136.18946 136.19141,-136.18946 30.64785,0 58.98669,10.21894 81.78906,27.41993 l 0,-154.86133 c 0,-10.07172 -8.10797,-18.17969 -18.17969,-18.17969 l -290.880858,0 z M 281.81055,833.98323 c -55.54707,0 -100.19141,44.64288 -100.19141,100.18946 0,55.54657 44.64434,100.18941 100.19141,100.18941 33.86364,0 63.67472,-16.5935 81.78906,-42.13277 l 0,-116.11524 c -18.11434,-25.53933 -47.92542,-42.13086 -81.78906,-42.13086 z m 77.20703,212.26177 c -2.72133,1.8822 -5.51411,3.6671 -8.37305,5.3515 3.28356,-0.9776 6.16171,-2.859 8.37305,-5.3515 z"
       id="rect4242" />
    <rect
       style="opacity:1;fill:#ffffff;fill-opacity:1;stroke:none;stroke-width:50;stroke-linejoin:round;stroke-miterlimit:4;stroke-dasharray:none;stroke-dashoffset:0;stroke-opacity:1"
       id="rect4244"
       width="254.59251"
       height="54.539982"
       x="72.647469"
       y="688.72211"
       ry="13.635001" />
    <path
       inkscape:connector-curvature="0"
       style="opacity:1;fill:#ffffff;fill-opacity:1;stroke:none;stroke-width:50;stroke-linejoin:round;stroke-miterlimit:4;stroke-dasharray:none;stroke-dashoffset:0;stroke-opacity:1"
       d="m 145.36719,779.62191 0,36.22656 15.17578,0 c 0.97919,0.16194 1.97742,0.26562 3.00391,0.26562 l 0.0723,0 c 1.02649,0 2.02667,-0.10368 3.00586,-0.26562 l 15.17578,0 0,-36.22656 -36.43359,0 z m 72.7207,0 0,14.23632 c 11.47186,-5.2511 23.68535,-9.13597 36.43164,-11.4375 l 0,-2.79882 -36.43164,0 z m 72.71875,0 0,0.63281 c 12.59841,0.73439 24.80585,2.99304 36.43359,6.60547 l 0,-7.23828 -36.43359,0 z m -218.158202,0.13281 0,18.17969 0,18.04687 16.044921,0 c 0.700764,0.0814 1.411474,0.13281 2.134766,0.13281 l 0.07227,0 c 0.723291,0 1.432048,-0.0514 2.132812,-0.13281 l 16.046873,0 0,-18.04687 0,-18.17969 -18.179685,0 -0.07227,0 -18.179687,0 z m 72.718752,72.58789 0,10.25976 c 1.85019,-3.5013 3.83212,-6.92236 5.9375,-10.25976 l -5.9375,0 z m -72.720706,0.13281 0,16.74414 c -0.03691,0.47519 -0.07227,0.95057 -0.07227,1.43555 0,0.48498 0.03535,0.96036 0.07227,1.43555 l 0,16.61132 15.986328,0 c 0.696957,0.0805 1.403829,0.13282 2.123047,0.13282 l 0.07227,0 0.07227,0 c 0.719218,0 1.424137,-0.0524 2.121093,-0.13282 l 16.058598,0 0,-36.22656 -36.433598,0 z m 226.025396,1.1875 c -4.60962,2.1824 -7.79102,6.85759 -7.79102,12.31445 l 0,149.90043 c 13.39894,-1.4254 25.75558,-5.9873 36.35937,-12.9414 l 0,-136.95903 c 0,-0.19846 -0.021,-0.39154 -0.0293,-0.58789 -8.50839,-5.57468 -18.14032,-9.61743 -28.53906,-11.72656 z m -44.15235,2.85742 c -14.45548,4.9758 -27.00089,13.80778 -36.43164,25.33203 l 0,6.7168 15.17773,0 c 0.97819,0.16159 1.97659,0.26563 3.00196,0.26563 l 0.0723,0 0.0723,0 c 1.02512,0 2.02399,-0.10411 3.00195,-0.26563 l 15.10547,0 0,-16.47851 c 0.0369,-0.47519 0.0723,-0.95057 0.0723,-1.43555 0,-0.48498 -0.0353,-0.96036 -0.0723,-1.43555 l 0,-12.69922 z m -72.71875,14.70118 c -3.46802,5.49329 -6.48884,11.29465 -9.02734,17.34765 l 0.004,0 c 2.53809,-6.04843 5.55696,-11.84596 9.02344,-17.33594 l 0,-0.0117 z m -91.044921,53.97265 c -0.718539,0 -1.424772,0.0525 -2.121093,0.13281 l -15.988282,0 0,16.61133 c -0.03694,0.47533 -0.07227,0.95237 -0.07227,1.4375 0,0.48498 0.03535,0.96036 0.07227,1.43555 l 0,16.74414 16.060547,0 c 0.696322,0.0803 1.402554,0.13281 2.121094,0.13281 l 0.07227,0 c 0.718539,0 1.422819,-0.0525 2.11914,-0.13281 l 16.060545,0 0,-36.22852 -16.13281,0 c -0.696322,-0.0803 -1.400601,-0.13281 -2.119141,-0.13281 l -0.07227,0 z m 127.332031,0 0,36.22852 15.25977,0 c 0.9755,0.16067 1.96979,0.26562 2.99218,0.26562 l 0.0723,0 c 1.0224,0 2.01864,-0.10495 2.99414,-0.26562 l 15.11328,0 0,-16.47852 c 0.0369,-0.47519 0.0723,-0.95057 0.0723,-1.43555 0,-0.48513 -0.0353,-0.96216 -0.0723,-1.4375 l 0,-16.87695 -36.43164,0 z m 11.25977,72.58789 c 7.36813,6.05684 15.84426,10.82014 25.09961,14.01564 l 0,-14.01564 -25.09961,0 z m -156.773441,0.13281 0,36.22653 16.058593,0 c 0.696957,0.081 1.403829,0.1329 2.123047,0.1329 l 0.07227,0 c 0.719218,0 1.424137,-0.052 2.121094,-0.1329 l 16.058587,0 0,-36.22653 -36.433587,0 z m 72.720701,7.68943 0,28.4043 15.17969,0 c 0.97796,0.1615 1.97488,0.2657 3,0.2657 l 0.0723,0 c 0.40253,0 0.79859,-0.027 1.19335,-0.057 -7.49656,-8.7517 -14.0324,-18.345 -19.44531,-28.6133 z m 72.7207,28.0137 0,0.01 c 0.20049,0.129 0.40416,0.2531 0.60547,0.3809 l 0.0137,0 c -0.20604,-0.1308 -0.41397,-0.2586 -0.61915,-0.3907 z"
       id="rect4246" />
    <rect
       style="opacity:1;fill:none;fill-opacity:1;stroke:none;stroke-width:50;stroke-linejoin:round;stroke-miterlimit:4;stroke-dasharray:none;stroke-dashoffset:0;stroke-opacity:1"
       id="rect4284"
       width="400.00146"
       height="400"
       x="0"
       y="652.36212"
       ry="18.18" />
    <ellipse
       style="color:#000000;clip-rule:nonzero;display:inline;overflow:visible;visibility:visible;opacity:1;isolation:auto;mix-blend-mode:normal;color-interpolation:sRGB;color-interpolation-filters:linearRGB;solid-color:#000000;solid-opacity:1;fill:#99b000;fill-opacity:1;fill-rule:nonzero;stroke:none;stroke-width:1px;stroke-linecap:butt;stroke-linejoin:miter;stroke-miterlimit:4;stroke-dasharray:none;stroke-dashoffset:0;stroke-opacity:1;color-rendering:auto;image-rendering:auto;shape-rendering:auto;text-rendering:auto;enable-background:accumulate"
       id="path6783"
       cx="281.81073"
       cy="934.17212"
       rx="118.19073"
       ry="118.19004" />
    <g
       style="font-style:normal;font-weight:normal;font-size:240.3656311px;line-height:125%;font-family:sans-serif;letter-spacing:0px;word-spacing:0px;fill:#000000;fill-opacity:1;stroke:none;stroke-width:1px;stroke-linecap:butt;stroke-linejoin:miter;stroke-opacity:1"
       id="text4260"
       transform="matrix(1.0618698,0,0,1.1000004,-20.246035,-83.41639)">
      <path
         d="m 327.23999,850.8279 0,24.99896 c -7.12021,-8.21562 -14.00568,-14.08392 -20.65642,-17.6049 -6.5725,-3.52098 -13.84919,-5.28147 -21.83008,-5.28147 -12.28431,0 -22.37779,3.9122 -30.28044,11.7366 -7.90265,7.8244 -13.10587,20.8706 -15.60968,35.50223 l 67.7202,0 1.07875,14.43602 -70.67681,0 c -0.15649,1.87786 -0.27385,3.7166 -0.35209,5.51621 l 0,4.98905 0,6.45513 c 0.0782,1.79961 0.1956,1.82017 0.35209,3.69802 l 39.16096,0 -0.92208,14.43602 -36.36102,0 c 2.50381,14.63163 7.70703,27.71695 15.60968,35.6196 7.90265,7.90265 17.99613,11.85397 30.28044,11.85397 7.98089,0 15.25758,-1.76049 21.83008,-5.28147 6.65074,-3.52098 13.53621,-9.38928 20.65642,-17.60491 l 0,24.76424 c -6.96371,5.6335 -14.08392,9.8587 -21.36062,12.6755 -7.19845,2.8168 -14.55338,4.2252 -22.06481,4.2252 -18.54383,0 -33.87966,-5.6727 -46.00748,-17.01807 -12.04958,-11.34539 -19.63925,-28.96886 -22.76901,-49.23406 l -24.76424,0 2.6882,-14.43602 20.08081,0 c 0,-1.79961 -0.0391,-1.78105 -0.11736,-3.58066 l 0,-6.57249 0,-4.98905 c 0.0782,-1.87786 0.11736,-3.7166 0.11736,-5.51621 l -22.76901,0 2.6882,-14.43602 22.07604,0 c 3.12976,-20.10871 10.75855,-37.65394 22.88637,-48.99932 12.12783,-11.34539 27.42453,-17.01808 45.89012,-17.01808 7.66791,0 15.1011,1.40839 22.29955,4.22518 7.27669,2.73854 14.31865,6.88547 21.12588,12.4408 z"
         style="fill:#ffffff"
         id="path4265"
         inkscape:connector-curvature="0"
         sodipodi:nodetypes="cccsscccccccccccssccccsccccccccccccsscc" />
    </g>
  </g>
</svg>
