<?xml version="1.0" encoding="windows-1252"?>
<!-- Generator: Adobe Illustrator 19.0.0, SVG Export Plug-In . SVG Version: 6.00 Build 0)  -->
<svg version="1.1" id="Layer_1" xmlns="http://www.w3.org/2000/svg" xmlns:xlink="http://www.w3.org/1999/xlink" x="0px" y="0px" viewBox="0 0 512 512" style="enable-background:new 0 0 512 512;" xml:space="preserve">
<path style="fill:#E15050;" d="M494.345,414.897H17.655C7.904,414.897,0,406.993,0,397.241V114.759  c0-9.751,7.904-17.655,17.655-17.655h476.69c9.751,0,17.655,7.904,17.655,17.655v282.483  C512,406.993,504.096,414.897,494.345,414.897z"/>
<g>
	<path style="fill:#D24146;" d="M406.069,185.379H105.931c-9.751,0-17.655-7.904-17.655-17.655v-17.655   c0-9.751,7.904-17.655,17.655-17.655h300.138c9.751,0,17.655,7.904,17.655,17.655v17.655   C423.724,177.475,415.82,185.379,406.069,185.379z"/>
	<path style="fill:#D24146;" d="M494.345,414.897H17.655V247.172c0-14.626,11.857-26.483,26.483-26.483h423.724   c14.626,0,26.483,11.857,26.483,26.483V414.897z"/>
</g>
<path style="fill:#FFF5E6;" d="M467.862,397.241H44.138c-4.875,0-8.828-3.953-8.828-8.828V247.172c0-4.875,3.953-8.828,8.828-8.828  h423.724c4.875,0,8.828,3.953,8.828,8.828v141.241C476.69,393.289,472.737,397.241,467.862,397.241z"/>
<circle style="fill:#A0EB64;" cx="229.517" cy="158.897" r="13.241"/>
<circle style="fill:#FFD558;" cx="176.552" cy="158.897" r="13.241"/>
<circle style="fill:#FFAF4B;" cx="123.586" cy="158.897" r="13.241"/>
<circle style="fill:#00D2B9;" cx="282.483" cy="158.897" r="13.241"/>
<circle style="fill:#8CD2FF;" cx="335.448" cy="158.897" r="13.241"/>
<circle style="fill:#D28CE6;" cx="388.414" cy="158.897" r="13.241"/>
<g>
	<rect x="114.759" y="326.621" style="fill:#F0E1C8;" width="17.655" height="70.621"/>
	<rect x="167.724" y="326.621" style="fill:#F0E1C8;" width="17.655" height="70.621"/>
</g>
<g>
	<path style="fill:#5B5D6E;" d="M128,335.448h-8.828c-4.875,0-8.828-3.953-8.828-8.828v-88.276h26.483v88.276   C136.828,331.496,132.875,335.448,128,335.448z"/>
	<path style="fill:#5B5D6E;" d="M180.966,335.448h-8.828c-4.875,0-8.828-3.953-8.828-8.828v-88.276h26.483v88.276   C189.793,331.496,185.841,335.448,180.966,335.448z"/>
</g>
<g>
	<rect x="220.69" y="326.621" style="fill:#F0E1C8;" width="17.655" height="70.621"/>
	<rect x="273.655" y="326.621" style="fill:#F0E1C8;" width="17.655" height="70.621"/>
</g>
<g>
	<path style="fill:#5B5D6E;" d="M233.931,335.448h-8.828c-4.875,0-8.828-3.953-8.828-8.828v-88.276h26.483v88.276   C242.759,331.496,238.806,335.448,233.931,335.448z"/>
	<path style="fill:#5B5D6E;" d="M286.897,335.448h-8.828c-4.875,0-8.828-3.953-8.828-8.828v-88.276h26.483v88.276   C295.724,331.496,291.772,335.448,286.897,335.448z"/>
</g>
<g>
	<rect x="326.621" y="326.621" style="fill:#F0E1C8;" width="17.655" height="70.621"/>
	<rect x="379.586" y="326.621" style="fill:#F0E1C8;" width="17.655" height="70.621"/>
</g>
<g>
	<path style="fill:#5B5D6E;" d="M339.862,335.448h-8.828c-4.875,0-8.828-3.953-8.828-8.828v-88.276h26.483v88.276   C348.69,331.496,344.737,335.448,339.862,335.448z"/>
	<path style="fill:#5B5D6E;" d="M392.828,335.448H384c-4.875,0-8.828-3.953-8.828-8.828v-88.276h26.483v88.276   C401.655,331.496,397.703,335.448,392.828,335.448z"/>
</g>
<rect x="432.552" y="326.621" style="fill:#F0E1C8;" width="17.655" height="70.621"/>
<path style="fill:#5B5D6E;" d="M445.793,335.448h-8.828c-4.875,0-8.828-3.953-8.828-8.828v-88.276h26.483v88.276  C454.621,331.496,450.668,335.448,445.793,335.448z"/>
<rect x="61.793" y="326.621" style="fill:#F0E1C8;" width="17.655" height="70.621"/>
<g>
	<path style="fill:#5B5D6E;" d="M75.034,335.448h-8.828c-4.875,0-8.828-3.953-8.828-8.828v-88.276h26.483v88.276   C83.862,331.496,79.91,335.448,75.034,335.448z"/>
	<path style="fill:#5B5D6E;" d="M61.793,194.207h-35.31c-4.875,0-8.828-3.953-8.828-8.828v-52.966c0-4.875,3.953-8.828,8.828-8.828   h35.31c4.875,0,8.828,3.953,8.828,8.828v52.966C70.621,190.254,66.668,194.207,61.793,194.207z"/>
	<path style="fill:#5B5D6E;" d="M485.517,194.207h-35.31c-4.875,0-8.828-3.953-8.828-8.828v-52.966c0-4.875,3.953-8.828,8.828-8.828   h35.31c4.875,0,8.828,3.953,8.828,8.828v52.966C494.345,190.254,490.392,194.207,485.517,194.207z"/>
</g>
<g>
	<circle style="fill:#707487;" cx="44.138" cy="158.897" r="17.655"/>
	<circle style="fill:#707487;" cx="467.862" cy="158.897" r="17.655"/>
</g>
<g>
</g>
<g>
</g>
<g>
</g>
<g>
</g>
<g>
</g>
<g>
</g>
<g>
</g>
<g>
</g>
<g>
</g>
<g>
</g>
<g>
</g>
<g>
</g>
<g>
</g>
<g>
</g>
<g>
</g>
</svg>