<svg xmlns="http://www.w3.org/2000/svg" viewBox="0 0 48 48">
  <defs>
    <linearGradient id="g" x1="0%" y1="0%" x2="100%" y2="100%">
      <stop offset="0%" stop-color="#b7c4ca"/>
      <stop offset="100%" stop-color="#607D8B"/>
    </linearGradient>
    <filter id="glow" x="-30%" y="-30%" width="160%" height="160%">
      <feGaussianBlur in="SourceGraphic" stdDeviation="3.5" result="blur1"/>
      <feGaussianBlur in="SourceGraphic" stdDeviation="2" result="blur2"/>
      <feMerge>
        <feMergeNode in="blur1"/>
        <feMergeNode in="blur2"/>
        <feMergeNode in="SourceGraphic"/>
      </feMerge>
    </filter>
  </defs>
  <g fill="none" stroke="url(#g)" stroke-width="3" stroke-linecap="round" stroke-linejoin="round" filter="url(#glow)">
    <circle cx="24" cy="24" r="16"/>
    <path d="M24 24 L38 10 Q44 16 38 22 Q30 28 24 24 Z"/>
    <path d="M24 24 L10 38 Q4 32 10 26 Q18 20 24 24 Z"/>
    <path d="M24 24 L38 38 Q44 32 38 26 Q30 20 24 24 Z"/>
    <path d="M24 24 L10 10 Q4 16 10 22 Q18 28 24 24 Z"/>
    <circle cx="24" cy="24" r="3" fill="currentColor"/>
  </g>
</svg>