<svg xmlns="http://www.w3.org/2000/svg" viewBox="0 0 48 48">
  <defs>
    <linearGradient id="g" x1="0%" y1="0%" x2="100%" y2="100%">
      <stop offset="0%" stop-color="#b7c4ca"/>
      <stop offset="100%" stop-color="#607D8B"/>
    </linearGradient>
    <filter id="glow" x="-30%" y="-30%" width="160%" height="160%">
      <feGaussianBlur in="SourceGraphic" stdDeviation="3.5" result="blur1"/>
      <feGaussianBlur in="SourceGraphic" stdDeviation="2" result="blur2"/>
      <feMerge>
        <feMergeNode in="blur1"/>
        <feMergeNode in="blur2"/>
        <feMergeNode in="SourceGraphic"/>
      </feMerge>
    </filter>
  </defs>
  <g fill="none" stroke="url(#g)" stroke-width="3" stroke-linecap="round" stroke-linejoin="round" filter="url(#glow)">
    <line x1="24" y1="44" x2="24" y2="6"/>
    <path d="M24 12 Q10 8 6 14 Q14 12 24 14"/>
    <path d="M24 18 Q8 16 4 22 Q12 20 24 22"/>
    <path d="M24 24 Q10 22 6 28 Q14 26 24 28"/>
    <path d="M24 30 Q12 28 8 34 Q14 32 24 34"/>
    <path d="M24 12 Q38 8 42 14 Q34 12 24 14"/>
    <path d="M24 18 Q40 16 44 22 Q36 20 24 22"/>
    <path d="M24 24 Q38 22 42 28 Q34 26 24 28"/>
    <path d="M24 30 Q36 28 40 34 Q34 32 24 34"/>
  </g>
</svg>