<svg xmlns="http://www.w3.org/2000/svg" viewBox="0 0 48 48">
  <defs>
    <linearGradient id="gg" x1="0%" y1="0%" x2="100%" y2="100%">
      <stop offset="0%" stop-color="#CFD8DC"/>
      <stop offset="100%" stop-color="#37474F"/>
    </linearGradient>
    <filter id="g3d" x="-30%" y="-30%" width="160%" height="160%">
      <feGaussianBlur in="SourceGraphic" stdDeviation="2.5" result="blur1"/>
      <feGaussianBlur in="SourceGraphic" stdDeviation="1.2" result="blur2"/>
      <feOffset dx="1.5" dy="2.5" in="SourceAlpha" result="offsetAlpha"/>
      <feGaussianBlur stdDeviation="2" in="offsetAlpha" result="shadowBlur"/>
      <feFlood flood-color="#1a1a2e" flood-opacity="0.3" result="shadowColor"/>
      <feComposite in="shadowColor" in2="shadowBlur" operator="in" result="shadow"/>
      <feMerge>
        <feMergeNode in="blur1"/>
        <feMergeNode in="blur2"/>
        <feMergeNode in="shadow"/>
        <feMergeNode in="SourceGraphic"/>
      </feMerge>
    </filter>
  </defs>
  <g fill="none" stroke="url(#gg)" stroke-width="2.8" stroke-linecap="round" stroke-linejoin="round" filter="url(#g3d)">
    <circle cx="24" cy="24" r="16"/>
    <path d="M24 24 L38 10 Q44 16 38 22 Q30 28 24 24 Z"/>
    <path d="M24 24 L10 38 Q4 32 10 26 Q18 20 24 24 Z"/>
    <path d="M24 24 L38 38 Q44 32 38 26 Q30 20 24 24 Z"/>
    <path d="M24 24 L10 10 Q4 16 10 22 Q18 28 24 24 Z"/>
    <circle cx="24" cy="24" r="3" fill="currentColor"/>
  </g>
</svg>