<svg xmlns="http://www.w3.org/2000/svg" viewBox="0 0 48 48">
  <defs>
    <linearGradient id="rg" x1="0%" y1="0%" x2="100%" y2="100%">
      <stop offset="0%" stop-color="#FF6B6B"/>
      <stop offset="17%" stop-color="#FFA94D"/>
      <stop offset="33%" stop-color="#FFD43B"/>
      <stop offset="50%" stop-color="#69DB7C"/>
      <stop offset="67%" stop-color="#4DABF7"/>
      <stop offset="83%" stop-color="#DA77F2"/>
      <stop offset="100%" stop-color="#E599F7"/>
    </linearGradient>
    <filter id="g3d" x="-30%" y="-30%" width="160%" height="160%">
      <feGaussianBlur in="SourceGraphic" stdDeviation="2.5" result="blur1"/>
      <feGaussianBlur in="SourceGraphic" stdDeviation="1.2" result="blur2"/>
      <feOffset dx="1.5" dy="2.5" in="SourceAlpha" result="offsetAlpha"/>
      <feGaussianBlur stdDeviation="2" in="offsetAlpha" result="shadowBlur"/>
      <feFlood flood-color="#1a1a2e" flood-opacity="0.3" result="shadowColor"/>
      <feComposite in="shadowColor" in2="shadowBlur" operator="in" result="shadow"/>
      <feMerge>
        <feMergeNode in="blur1"/>
        <feMergeNode in="blur2"/>
        <feMergeNode in="shadow"/>
        <feMergeNode in="SourceGraphic"/>
      </feMerge>
    </filter>
  </defs>
  <g fill="none" stroke="url(#rg)" stroke-width="2.8" stroke-linecap="round" stroke-linejoin="round" filter="url(#g3d)">
    <circle cx="24" cy="24" r="16"/>
    <circle cx="18" cy="18" r="3" fill="currentColor"/>
    <circle cx="30" cy="18" r="3" fill="currentColor"/>
    <path d="M16 30 Q24 36 32 30"/>
    <polygon points="10,8 11,11 14,11 12,13 13,16 10,14 7,16 8,13 6,11 9,11"/>
    <polygon points="38,8 39,11 42,11 40,13 41,16 38,14 35,16 36,13 34,11 37,11"/>
  </g>
</svg>